<svg xmlns="http://www.w3.org/2000/svg" xmlns:xlink="http://www.w3.org/1999/xlink" width="671.25" height="561.046" viewBox="0 0 671.25 561.046">
  <defs>
    <linearGradient id="linear-gradient" x1="1.043" y1="-0.125" x2="0.336" y2="1.321" gradientUnits="objectBoundingBox">
      <stop offset="0" stop-color="#64f6f0"/>
      <stop offset="0.645" stop-color="#4b31a8"/>
      <stop offset="1" stop-color="#461698"/>
    </linearGradient>
    <clipPath id="clip-path">
      <path id="Rectangle_652" data-name="Rectangle 652" d="M660.68,0H10.571C4.733,0,0,9.3,0,20.779V540.266c0,11.476,4.733,20.779,10.571,20.779H660.68c5.838,0,10.571-9.3,10.571-20.779V20.779C671.25,9.3,666.518,0,660.68,0Z" fill="url(#linear-gradient)"/>
    </clipPath>
    <linearGradient id="linear-gradient-2" x1="0.5" x2="0.5" y2="1" gradientUnits="objectBoundingBox">
      <stop offset="0" stop-color="#d0cece"/>
      <stop offset="1" stop-color="#e2e2e2"/>
    </linearGradient>
  </defs>
  <g id="Enmascarar_grupo_45" data-name="Enmascarar grupo 45" clip-path="url(#clip-path)">
    <path id="Sustracción_4" data-name="Sustracción 4" d="M0,0H0c20.968,3,42.03,7.064,62.6,12.066C82.937,17.012,103.3,23,123.107,29.87c19.626,6.8,39.189,14.624,58.145,23.253,18.814,8.563,37.493,18.127,55.519,28.427,17.921,10.24,35.625,21.45,52.622,33.317,16.916,11.811,33.556,24.572,49.455,37.926,15.831,13.3,31.316,27.511,46.023,42.248s28.936,30.314,42.315,46.294c13.437,16.048,26.339,32.888,38.345,50.052,12.062,17.244,23.536,35.254,34.1,53.53,10.623,18.379,20.578,37.465,29.592,56.728,9.073,19.381,17.424,39.447,24.82,59.639,7.456,20.368,14.106,41.32,19.766,62.272,2.139,7.916,4.175,15.983,6.056,23.979h-184.1c-1.475-4.532-3.024-9.1-4.607-13.562-5.174-14.607-11.035-29.182-17.421-43.319-6.318-13.986-13.313-27.891-20.792-41.326-7.417-13.328-15.483-26.5-23.976-39.14-8.442-12.576-17.52-24.945-26.978-36.763-9.43-11.781-19.456-23.286-29.8-34.194s-21.264-21.488-32.438-31.43-22.914-19.526-34.891-28.474S180.374,261.852,167.7,254c-12.747-7.9-25.954-15.294-39.254-21.989-13.392-6.744-27.237-12.955-41.153-18.46-14.023-5.543-28.449-10.5-42.876-14.732C29.841,194.544,14.9,190.905,0,188V0Z" transform="translate(792.794 454.084) rotate(180)" fill="#6f88da"/>
    <path id="Sustracción_2" data-name="Sustracción 2" d="M405.691,0c224.056,0,405.69,191.6,405.69,427.961S629.747,855.922,405.691,855.922,0,664.317,0,427.961,181.633,0,405.691,0Z" transform="translate(97.17 74.546)" opacity="0.444" fill="url(#linear-gradient-2)" style="mix-blend-mode: multiply;isolation: isolate"/>
    <path id="Sustracción_6" data-name="Sustracción 6" d="M0,0H0A605.785,605.785,0,0,1,68.751,18.957a614.724,614.724,0,0,1,88.923,38.378,630.869,630.869,0,0,1,81.583,51.548,649.072,649.072,0,0,1,73.054,63.455,665.006,665.006,0,0,1,63.317,74.1,677.237,677.237,0,0,1,52.4,83.486,685.777,685.777,0,0,1,40.276,91.6h-2.673c-2.974-8.335-6.125-16.663-9.368-24.756-7.931-19.778-16.89-39.4-26.626-58.309-9.667-18.776-20.323-37.28-31.671-55-11.311-17.66-23.557-34.937-36.4-51.349-12.8-16.373-26.532-32.311-40.807-47.371S291.368,155.2,275.85,141.69c-15.576-13.559-31.95-26.477-48.671-38.4C210.4,91.329,192.855,80.089,175.049,69.883A618.083,618.083,0,0,0,119.776,41.8,608.391,608.391,0,0,0,61.691,19.365,605.56,605.56,0,0,0,1.1,2.926L0,2.692V0Z" transform="translate(680.231 328.075) rotate(180)" fill="#fff"/>
  </g>
</svg>
