<svg xmlns="http://www.w3.org/2000/svg" xmlns:xlink="http://www.w3.org/1999/xlink" width="1240" height="302.618" viewBox="0 0 1240 302.618">
  <defs>
    <linearGradient id="linear-gradient" x1="1.043" y1="-0.125" x2="0.336" y2="1.321" gradientUnits="objectBoundingBox">
      <stop offset="0" stop-color="#64f6f0"/>
      <stop offset="0.645" stop-color="#4b31a8"/>
      <stop offset="1" stop-color="#461698"/>
    </linearGradient>
    <clipPath id="clip-path">
      <path id="Rectangle_652" data-name="Rectangle 652" d="M1220.473,0H19.528C8.743,0,0,5.018,0,11.208v280.2c0,6.19,8.743,11.208,19.528,11.208H1220.473c10.785,0,19.527-5.018,19.527-11.208V11.208C1240,5.018,1231.258,0,1220.473,0Z" fill="url(#linear-gradient)"/>
    </clipPath>
    <linearGradient id="linear-gradient-2" x1="0.5" x2="0.5" y2="1" gradientUnits="objectBoundingBox">
      <stop offset="0" stop-color="#d0cece"/>
      <stop offset="1" stop-color="#e2e2e2"/>
    </linearGradient>
  </defs>
  <g id="Enmascarar_grupo_45" data-name="Enmascarar grupo 45" clip-path="url(#clip-path)">
    <path id="Sustracción_4" data-name="Sustracción 4" d="M0,0H0C20.968,2.846,42.03,6.69,62.6,11.427c20.339,4.684,40.7,10.356,60.508,16.86,19.626,6.44,39.189,13.849,58.145,22.021,18.814,8.109,37.493,17.166,55.519,26.92,17.921,9.7,35.625,20.313,52.622,31.551,16.916,11.185,33.556,23.27,49.455,35.916,15.831,12.591,31.316,26.053,46.023,40.009s28.936,28.707,42.315,43.84c13.437,15.2,26.339,31.145,38.345,47.4,12.062,16.33,23.536,33.386,34.1,50.693,10.623,17.4,20.578,35.479,29.592,53.721,9.073,18.354,17.424,37.356,24.82,56.477,7.456,19.288,14.106,39.129,19.766,58.971,2.139,7.5,4.175,15.136,6.056,22.707h-184.1c-1.475-4.292-3.024-8.613-4.607-12.843-5.174-13.833-11.035-27.635-17.421-41.023-6.318-13.245-13.313-26.412-20.792-39.135-7.417-12.622-15.483-25.092-23.976-37.065-8.442-11.91-17.52-23.623-26.978-34.815-9.43-11.157-19.456-22.052-29.8-32.382s-21.264-20.349-32.438-29.764-22.914-18.491-34.891-26.965-24.487-16.547-37.16-23.985c-12.747-7.477-25.954-14.483-39.254-20.823-13.392-6.387-27.237-12.269-41.153-17.481-14.023-5.25-28.449-9.944-42.876-13.951C29.841,184.231,14.9,180.786,0,178.036V0Z" transform="translate(639.794 518.014) rotate(180)" fill="#6f88da"/>
    <path id="Sustracción_2" data-name="Sustracción 2" d="M405.691,0c224.056,0,405.69,181.448,405.69,405.276S629.747,810.552,405.691,810.552,0,629.1,0,405.276,181.633,0,405.691,0Z" transform="translate(-55.83 158.594)" opacity="0.444" fill="url(#linear-gradient-2)" style="mix-blend-mode: multiply;isolation: isolate"/>
    <path id="Sustracción_6" data-name="Sustracción 6" d="M0,0H0A504.346,504.346,0,0,1,54.8,14.309a504.886,504.886,0,0,1,70.884,28.969,507.73,507.73,0,0,1,65.033,38.911,510.381,510.381,0,0,1,58.234,47.9,510.432,510.432,0,0,1,50.473,55.931A507.936,507.936,0,0,1,341.2,249.035,504.018,504.018,0,0,1,373.3,318.18h-2.13c-2.37-6.291-4.883-12.578-7.467-18.686-6.322-14.929-13.463-29.737-21.225-44.013-7.706-14.173-16.2-28.14-25.246-41.512-9.016-13.331-18.778-26.372-29.015-38.76-10.205-12.359-21.15-24.389-32.529-35.757s-23.427-22.3-35.8-32.5c-12.416-10.235-25.469-19.986-38.8-28.982-13.379-9.031-27.362-17.516-41.555-25.22-14.29-7.754-29.113-14.887-44.06-21.2-15.085-6.376-30.663-12.073-46.3-16.932C33.4,9.715,17.148,5.54.875,2.209L0,2.032V0Z" transform="translate(432.231 317.684) rotate(180)" fill="#fff"/>
  </g>
</svg>
