<svg xmlns="http://www.w3.org/2000/svg" width="50.399" height="90.644" viewBox="0 0 50.399 90.644">
  <g id="Grupo_78462" data-name="Grupo 78462" transform="translate(50.399) rotate(90)">
    <g id="Grupo_78414" data-name="Grupo 78414" transform="translate(0 0)">
      <path id="Trazado_114078" data-name="Trazado 114078" d="M78.2,0c-3.565,0-5.325,3.817-6.739,6.885-1.432,3.1-2.4,5.007-4.228,5.007s-2.794-1.9-4.223-5.007C61.6,3.817,59.835,0,56.272,0s-5.325,3.817-6.739,6.885c-1.431,3.1-2.4,5.007-4.224,5.007s-2.792-1.9-4.223-5.007C39.672,3.817,37.912,0,34.349,0s-5.324,3.819-6.736,6.887c-1.43,3.1-2.4,5-4.221,5s-2.79-1.9-4.221-5C17.758,3.817,16,0,12.436,0S7.114,3.817,5.7,6.887c-1.43,3.1-2.4,5-4.221,5C.662,11.891,0,12.78,0,13.873s.662,1.982,1.479,1.982c3.562,0,5.322-3.817,6.736-6.885,1.429-3.1,2.4-5.007,4.221-5.007s2.79,1.9,4.221,5.007c1.414,3.068,3.174,6.885,6.736,6.885s5.322-3.817,6.734-6.885c1.43-3.1,2.4-5.007,4.223-5.007s2.792,1.9,4.223,5.007c1.414,3.068,3.174,6.885,6.737,6.885s5.324-3.817,6.739-6.885c1.429-3.1,2.4-5.007,4.224-5.007s2.792,1.9,4.223,5.007c1.412,3.068,3.174,6.885,6.737,6.885s5.327-3.817,6.741-6.885c1.432-3.1,2.4-5.007,4.226-5.007s2.8,1.9,4.228,5.007c1.414,3.068,3.175,6.885,6.741,6.885.817,0,1.478-.886,1.478-1.982s-.661-1.982-1.478-1.982c-1.826,0-2.8-1.9-4.228-5.007C83.525,3.817,81.765,0,78.2,0Z" transform="translate(0 34.545)" fill="#ffca28"/>
      <path id="Trazado_114079" data-name="Trazado 114079" d="M78.2,0c-3.565,0-5.325,3.819-6.739,6.885-1.432,3.106-2.4,5.009-4.228,5.009s-2.794-1.9-4.223-5.007C61.6,3.819,59.835,0,56.272,0s-5.325,3.819-6.739,6.887c-1.431,3.1-2.4,5.007-4.224,5.007s-2.792-1.9-4.223-5.007C39.672,3.819,37.912,0,34.349,0s-5.324,3.821-6.736,6.887c-1.43,3.1-2.4,5.007-4.221,5.007s-2.79-1.9-4.221-5.007C17.758,3.819,16,0,12.436,0S7.114,3.819,5.7,6.887c-1.43,3.1-2.4,5.007-4.221,5.007C.662,11.894,0,12.78,0,13.875s.662,1.982,1.479,1.982c3.562,0,5.322-3.819,6.736-6.887,1.429-3.1,2.4-5,4.221-5s2.79,1.9,4.221,5c1.414,3.068,3.174,6.887,6.736,6.887s5.322-3.819,6.734-6.887c1.43-3.1,2.4-5,4.223-5s2.792,1.9,4.223,5c1.414,3.068,3.174,6.887,6.737,6.887s5.324-3.819,6.739-6.887c1.429-3.1,2.4-5,4.224-5s2.792,1.9,4.223,5c1.412,3.068,3.174,6.887,6.737,6.887s5.327-3.819,6.741-6.887c1.432-3.1,2.4-5,4.226-5s2.8,1.9,4.228,5c1.414,3.068,3.175,6.887,6.741,6.887.817,0,1.478-.888,1.478-1.982s-.661-1.982-1.478-1.982c-1.826,0-2.8-1.9-4.228-5.007C83.525,3.819,81.765,0,78.2,0Z" transform="translate(0 17.27)" fill="#ffca28"/>
      <path id="Trazado_114080" data-name="Trazado 114080" d="M78.2,0c-3.565,0-5.325,3.817-6.739,6.885-1.432,3.1-2.4,5.007-4.228,5.007s-2.794-1.9-4.223-5.007C61.6,3.817,59.835,0,56.272,0s-5.325,3.817-6.739,6.885c-1.431,3.1-2.4,5.007-4.224,5.007s-2.792-1.9-4.223-5.007C39.672,3.817,37.912,0,34.349,0s-5.324,3.817-6.736,6.885c-1.43,3.1-2.4,5.007-4.221,5.007s-2.79-1.9-4.221-5.007C17.758,3.817,16,0,12.436,0S7.114,3.817,5.7,6.885c-1.43,3.1-2.4,5.007-4.221,5.007C.662,11.891,0,12.777,0,13.873s.662,1.982,1.479,1.982c3.562,0,5.322-3.819,6.736-6.887,1.429-3.1,2.4-5,4.221-5s2.79,1.9,4.221,5c1.414,3.068,3.174,6.887,6.736,6.887s5.322-3.819,6.734-6.885c1.43-3.1,2.4-5.007,4.223-5.007s2.792,1.9,4.223,5.007c1.414,3.066,3.174,6.885,6.737,6.885s5.324-3.819,6.739-6.885c1.429-3.1,2.4-5.007,4.224-5.007s2.792,1.9,4.223,5.007c1.412,3.066,3.174,6.885,6.737,6.885s5.327-3.819,6.741-6.885c1.432-3.1,2.4-5.007,4.226-5.007s2.8,1.9,4.228,5.007c1.414,3.066,3.175,6.885,6.741,6.885.817,0,1.478-.888,1.478-1.982s-.661-1.982-1.478-1.982c-1.826,0-2.8-1.9-4.228-5.007C83.525,3.817,81.765,0,78.2,0Z" fill="#ffca28"/>
    </g>
  </g>
</svg>
