<svg id="Grupo_1019294" data-name="Grupo 1019294" xmlns="http://www.w3.org/2000/svg" xmlns:xlink="http://www.w3.org/1999/xlink" width="85" height="78.382" viewBox="0 0 85 78.382">
  <defs>
    <clipPath id="clip-path">
      <rect id="Rectángulo_352922" data-name="Rectángulo 352922" width="85" height="78.382" fill="none"/>
    </clipPath>
  </defs>
  <g id="Grupo_1019294-2" data-name="Grupo 1019294" clip-path="url(#clip-path)">
    <path id="Trazado_735769" data-name="Trazado 735769" d="M0,145.584a11.147,11.147,0,0,0,.469-2.244,20.885,20.885,0,0,1,1.186-3.652,1.7,1.7,0,0,1,2.23-1.072,1.7,1.7,0,0,1,.821,2.335,18.146,18.146,0,0,0-1.364,8.721,16.65,16.65,0,0,0,.684,3.554c-.041.115.037.149.121.179-.075.307.188.531.2.817-.036.118.038.156.132.179a17.563,17.563,0,0,0,3.043,5.271,17.126,17.126,0,0,0,5.648,4.583,14.219,14.219,0,0,0,5.29,1.765c1.108.106,2.208.281,3.323.34a.96.96,0,0,1,1.009,1.038l.286.277.014,2.145c.041.089.071.245.127.255.188.034.177-.136.2-.26a32.908,32.908,0,0,1,3.515-3.4c.073-.06.2-.056.3-.082.187.029.376.071.52-.107,1.908-.017,3.817-.015,5.725-.055a17.179,17.179,0,0,0,8.253-2.408,18.242,18.242,0,0,0,7.127-7.364,15.412,15.412,0,0,0,1.834-6.28,24.351,24.351,0,0,0,.13-2.865,18.292,18.292,0,0,0-1.788-7.139,17.976,17.976,0,0,0-4.413-5.787,17.266,17.266,0,0,0-8.133-4.043,16.489,16.489,0,0,0-3.41-.324c-.034-.088-.073-.167-.192-.116l-11.783,0-.175-.015a20.358,20.358,0,0,0-6.744,1.5,1.67,1.67,0,0,1-2.043-.823,1.485,1.485,0,0,1,.431-2.014c.66-.306,1.357-.557,2.035-.845,1.85-.786,3.875-.749,5.807-1.156a4.9,4.9,0,0,1,.992-.007c3.98,0,7.96-.012,11.94.018.721.005,1.281-.1,1.528-.854a.307.307,0,0,0,.337-.347,20.466,20.466,0,0,1,5.135-4.81l.182-.121a22.073,22.073,0,0,1,7.113-2.991,22.411,22.411,0,0,1,5.116-.495q5.183-.02,10.366,0a22.293,22.293,0,0,1,9.467,2.072,20.9,20.9,0,0,1,9.336,8.456,3.786,3.786,0,0,0,.3.386.291.291,0,0,0,.3.339,14.8,14.8,0,0,0,1.024,2.431,18.39,18.39,0,0,1,1.227,4.233,22.12,22.12,0,0,1-2.748,14.569,24.52,24.52,0,0,1-3.957,4.882c-.116-.036-.153.011-.128.122a22.327,22.327,0,0,1-9.573,5.081,7.162,7.162,0,0,1-2.55.393c-.478-.05-.614.155-.6.618.028,1.216.015,2.433.008,3.65a1.819,1.819,0,0,1-1.873,2.091,1.226,1.226,0,0,1-1.084-.474c-1.736-1.744-3.489-3.472-5.213-5.227a1.486,1.486,0,0,0-1.206-.524c-1.381.04-2.767.051-4.147-.012a1.9,1.9,0,0,0-1.818.906,20.91,20.91,0,0,1-10.031,7.454c-3.368,1.252-6.878,1.286-10.4,1.222a2.009,2.009,0,0,0-1.692.608.823.823,0,0,0-.732.286q-1.564,1.582-3.146,3.145a.821.821,0,0,0-.287.731c-.605.636-1.092,1.447-2.117,1.473a1.51,1.51,0,0,1-1.572-1.314,27.751,27.751,0,0,1-.063-4.207c.009-.655-.186-.764-.811-.81a21.9,21.9,0,0,1-6.279-1.668c-.021-.164-.091-.262-.276-.2a5.025,5.025,0,0,1-1.346-.631c0-.276-.136-.234-.3-.138l-1.032-.7-.19-.128-.308-.2-.188-.127L7.8,164.654l-.194-.14A20.349,20.349,0,0,1,.174,150.889c-.022-.13.009-.282-.174-.322V149.4a.557.557,0,0,0,0-.83v-1a.955.955,0,0,0,0-1.162Zm78.565-17.27h0a.324.324,0,0,0-.173-.331,18.159,18.159,0,0,0-14.6-7.662c-.169-.2-.4-.144-.616-.144q-5.413,0-10.826,0c-.237,0-.5-.071-.7.142a10.309,10.309,0,0,0-2.692.231,18.04,18.04,0,0,0-10.662,6.25c-.281.337-.21.416.161.522.694.2,1.377.433,2.065.653l.176,0c.768.392,1.543.77,2.3,1.178A21.589,21.589,0,0,1,51.749,138a19.2,19.2,0,0,1,2.237,7.414l.11.167.085.509.005.486a23.548,23.548,0,0,1-1.671,9.94c.087.315.351.2.542.2,1.527,0,3.055-.006,4.583-.012a2.029,2.029,0,0,1,1.02.675c-.024.111.044.154.134.18a30,30,0,0,0,2.481,2.481c.026.09.068.158.179.134l.331.178a.215.215,0,0,0,.071.036c.016,0,.051-.022.052-.035q.02-1.244.034-2.489c.136-.642.5-1.158,1.168-1.133,1.009.038,1.987-.212,2.986-.189l.172-.114a4.833,4.833,0,0,0,.9-.086,22.006,22.006,0,0,0,5.9-2.455,18.394,18.394,0,0,0,8.457-13.022,16.476,16.476,0,0,0-.069-5.239,20.219,20.219,0,0,0-2.733-7.144l-.167-.168" transform="translate(0 -97.424)" fill="#12263f"/>
    <path id="Trazado_735770" data-name="Trazado 735770" d="M287.09,0c.937.566,2.05.452,3.056.807a16.756,16.756,0,0,1,6.828,4.17,1.756,1.756,0,0,1-.02,2.352,1.552,1.552,0,0,1-2.256.034,15.747,15.747,0,0,0-3.583-2.637,11.8,11.8,0,0,0-3.154-1.053,14.435,14.435,0,0,0-9.187,1.157,13.071,13.071,0,0,0-3.282,2.364,1.6,1.6,0,0,1-2.6-.044,1.694,1.694,0,0,1,.421-2.521,19.5,19.5,0,0,1,4.171-2.909,16.465,16.465,0,0,1,5.2-1.556c.115-.014.213-.039.253-.163Z" transform="translate(-227.128)" fill="#12263f"/>
    <path id="Trazado_735771" data-name="Trazado 735771" d="M0,294.266a.955.955,0,0,1,0,1.163Z" transform="translate(0 -245.275)" fill="#0c0c0c"/>
    <path id="Trazado_735772" data-name="Trazado 735772" d="M0,307.234a.557.557,0,0,1,0,.83Z" transform="translate(0 -256.085)" fill="#0c0c0c"/>
    <path id="Trazado_735773" data-name="Trazado 735773" d="M90.812,60.6a21.358,21.358,0,0,1,5.155-2.222,17.815,17.815,0,0,1,14.106,2.677,21.3,21.3,0,0,0,2.408,1.914c.169.083.089.716.089,1.095a1.708,1.708,0,0,1-1.151,1.542,1.33,1.33,0,0,1-1.545-.345,15.742,15.742,0,0,0-4.248-2.868,13.972,13.972,0,0,0-8.132-.882,15.094,15.094,0,0,0-5.541,2.379,8.952,8.952,0,0,0-.81.688c-.117-.035-.155.041-.182.131-.162.145-.33.283-.485.435a1.423,1.423,0,0,1-2.268.054,1.572,1.572,0,0,1-.078-2.369,13.959,13.959,0,0,1,2.485-2.1l.2-.133" transform="translate(-73.041 -48.27)" fill="#12263f"/>
    <path id="Trazado_735774" data-name="Trazado 735774" d="M137.575,284.3c-2.765.167-5-2.529-4.9-5.116a4.985,4.985,0,1,1,4.9,5.116m1.755-4.974a1.67,1.67,0,0,0-3.336-.12,1.793,1.793,0,0,0,1.668,1.773,1.73,1.73,0,0,0,1.668-1.653" transform="translate(-110.58 -228.666)" fill="#12263f"/>
    <path id="Trazado_735775" data-name="Trazado 735775" d="M57.729,284.3c-2.728.155-4.988-2.522-4.876-5.143a4.985,4.985,0,1,1,4.876,5.143m.1-3.32a1.659,1.659,0,1,0-1.649-1.709,1.8,1.8,0,0,0,1.649,1.709" transform="translate(-44.05 -228.666)" fill="#12263f"/>
    <path id="Trazado_735776" data-name="Trazado 735776" d="M217.387,284.336c-2.758.165-5-2.525-4.9-5.122a4.983,4.983,0,0,1,9.963.13,5.1,5.1,0,0,1-5.062,4.992m1.759-5.016a1.669,1.669,0,0,0-3.336-.037,1.788,1.788,0,0,0,1.709,1.731,1.746,1.746,0,0,0,1.627-1.695" transform="translate(-177.108 -228.706)" fill="#12263f"/>
    <path id="Trazado_735777" data-name="Trazado 735777" d="M310.616,42.79A8.056,8.056,0,0,1,316.18,44.3c.734.516,1.6.956,1.9,2.018a1.556,1.556,0,0,1-.588,1.692,1.3,1.3,0,0,1-1.767.167,11.228,11.228,0,0,0-2.4-1.594,6.821,6.821,0,0,0-5.113-.065,6.947,6.947,0,0,0-1.957,1.256c-1.185,1-2.413.739-2.923-.526a2.279,2.279,0,0,1,1.118-2.429,8.518,8.518,0,0,1,6.17-2.025" transform="translate(-252.758 -35.624)" fill="#12263f"/>
    <path id="Trazado_735778" data-name="Trazado 735778" d="M118.628,103.771c-.152-.512.143-.805.45-1.15a9.108,9.108,0,0,1,8-2.883,9.428,9.428,0,0,1,5.542,2.433c1.186,1.052,1.066,2.606-.231,3.084a1.791,1.791,0,0,1-1.946-.435,6.538,6.538,0,0,0-9.032.116,1.61,1.61,0,0,1-1.837.363c-.539-.254-1.182-.694-.951-1.527" transform="translate(-98.838 -83.095)" fill="#12263f"/>
    <path id="Trazado_735779" data-name="Trazado 735779" d="M34.957,211.113a1.533,1.533,0,0,1,1.459-1.6,1.831,1.831,0,0,1,1.861,1.654,1.69,1.69,0,0,1-1.8,1.662,1.54,1.54,0,0,1-1.516-1.713" transform="translate(-29.137 -174.629)" fill="#12263f"/>
    <path id="Trazado_735780" data-name="Trazado 735780" d="M141.676,441.075a.822.822,0,0,1,.287-.732q1.582-1.564,3.146-3.145a.823.823,0,0,1,.732-.287q-2.011,2.153-4.164,4.163" transform="translate(-118.083 -364.167)" fill="#060606"/>
    <path id="Trazado_735781" data-name="Trazado 735781" d="M209.2,167.51a.306.306,0,0,1-.337.347c-.382-.6.268-.189.337-.347" transform="translate(-173.991 -139.622)" fill="#0c0c0c"/>
    <path id="Trazado_735782" data-name="Trazado 735782" d="M139.026,434.824c-.02.125-.008.294-.2.26-.056-.01-.085-.166-.127-.255l.323-.005" transform="translate(-115.611 -362.433)" fill="#090909"/>
    <path id="Trazado_735783" data-name="Trazado 735783" d="M137.189,420.582l-.285-.277c.118.01.26-.017.347.04.112.074.01.169-.061.238" transform="translate(-114.112 -350.331)" fill="#fafafa"/>
    <path id="Trazado_735784" data-name="Trazado 735784" d="M494.175,182.842a.291.291,0,0,1-.3-.339c.235-.006.391.057.3.339" transform="translate(-411.656 -152.119)" fill="#090909"/>
    <path id="Trazado_735785" data-name="Trazado 735785" d="M65.036,416.579c.165-.1.306-.138.3.138-.126.009-.292.105-.3-.138" transform="translate(-54.209 -347.165)" fill="#090909"/>
    <path id="Trazado_735786" data-name="Trazado 735786" d="M164.076,413.1c-.144.178-.334.137-.521.107.142-.188.331-.15.521-.107" transform="translate(-136.326 -344.298)" fill="#454545"/>
    <path id="Trazado_735787" data-name="Trazado 735787" d="M125.687,194.689l.175.015c-.069.122-.125.079-.175-.015" transform="translate(-104.762 -162.276)" fill="silver"/>
    <path id="Trazado_735788" data-name="Trazado 735788" d="M24.247,335.358c-.084-.03-.162-.064-.121-.179l.121.179" transform="translate(-20.1 -279.377)" fill="#f6f5f4"/>
    <path id="Trazado_735789" data-name="Trazado 735789" d="M26.2,341.338c-.094-.023-.168-.061-.132-.179l.132.179" transform="translate(-21.72 -284.362)" fill="#f6f5f4"/>
    <path id="Trazado_735790" data-name="Trazado 735790" d="M468.1,341.463c-.025-.111.012-.158.128-.122l-.128.122" transform="translate(-390.164 -284.503)" fill="#fafafa"/>
    <path id="Trazado_735791" data-name="Trazado 735791" d="M105.759,73.975l-.2.133c.037-.086.07-.178.2-.133" transform="translate(-87.988 -61.65)" fill="#0c0c0c"/>
    <path id="Trazado_735792" data-name="Trazado 735792" d="M107.643,98.014c.027-.091.065-.166.182-.131l-.182.131" transform="translate(-89.722 -81.579)" fill="#fafafa"/>
    <path id="Trazado_735793" data-name="Trazado 735793" d="M45.712,402.979l.194.14c-.122.033-.159-.052-.194-.14" transform="translate(-38.102 -335.889)" fill="#090909"/>
    <path id="Trazado_735794" data-name="Trazado 735794" d="M54.717,409.965l.188.127c-.123.047-.154-.042-.188-.127" transform="translate(-45.607 -341.712)" fill="#090909"/>
    <path id="Trazado_735795" data-name="Trazado 735795" d="M57.694,411.96l.191.128c-.125.049-.155-.043-.191-.128" transform="translate(-48.089 -343.375)" fill="#090909"/>
    <path id="Trazado_735796" data-name="Trazado 735796" d="M242.514,137.815l-.182.121c.029-.088.061-.171.182-.121" transform="translate(-201.988 -114.858)" fill="#090909"/>
    <path id="Trazado_735797" data-name="Trazado 735797" d="M74.934,421.466c.185-.062.254.035.275.2a.233.233,0,0,1-.275-.2" transform="translate(-62.459 -351.283)" fill="#090909"/>
    <path id="Trazado_735798" data-name="Trazado 735798" d="M197.515,194.667c.119-.052.158.028.192.116l-.192-.116" transform="translate(-164.632 -162.245)" fill="silver"/>
    <path id="Trazado_735799" data-name="Trazado 735799" d="M256.96,173.676c-1-.023-1.978.227-2.986.189-.665-.025-1.032.491-1.168,1.133a7.575,7.575,0,0,0-.156,2.488l-.331-.178-.179-.134a30,30,0,0,1-2.481-2.481l-.135-.18a2.029,2.029,0,0,0-1.02-.675,1.478,1.478,0,0,0-.951-.144c-1.391-.02-2.783-.031-4.174-.045a23.545,23.545,0,0,0,1.671-9.94.293.293,0,0,0-.006-.486l-.085-.509c.039-.106-.039-.134-.11-.167a19.2,19.2,0,0,0-2.237-7.414,21.59,21.59,0,0,0-8.75-8.839c-.759-.408-1.534-.786-2.3-1.178L231.5,145l-.118.114c-.688-.22-1.371-.456-2.065-.653-.371-.106-.441-.185-.161-.522a18.042,18.042,0,0,1,10.663-6.25,10.315,10.315,0,0,1,2.692-.231h12.144a18.158,18.158,0,0,1,14.6,7.662c.048.116.009.277.173.331h0l.167.168a20.219,20.219,0,0,1,2.733,7.143A16.483,16.483,0,0,1,272.4,158a18.4,18.4,0,0,1-8.457,13.022,22,22,0,0,1-5.9,2.455,4.832,4.832,0,0,1-.9.086c-.113-.046-.141.037-.172.114" transform="translate(-190.863 -114.559)" fill="#ffca28"/>
    <path id="Trazado_735800" data-name="Trazado 735800" d="M322.375,136.773H310.231c.2-.212.465-.141.7-.142q5.413-.01,10.826,0c.213,0,.447-.057.616.144" transform="translate(-258.582 -113.876)" fill="#7d571f"/>
    <path id="Trazado_735801" data-name="Trazado 735801" d="M315.436,354.926c1.391.014,2.783.025,4.174.045a1.478,1.478,0,0,1,.951.144c-1.528.006-3.055.016-4.583.012-.191,0-.456.114-.542-.2" transform="translate(-262.921 -295.837)" fill="#7d571f"/>
    <path id="Trazado_735802" data-name="Trazado 735802" d="M370.978,365.52a7.571,7.571,0,0,1,.157-2.488q-.016,1.244-.034,2.489c0,.013-.035.037-.052.035a.217.217,0,0,1-.071-.036" transform="translate(-309.192 -302.593)" fill="#7d571f"/>
    <path id="Trazado_735803" data-name="Trazado 735803" d="M325.442,292.3a.293.293,0,0,1,.005.486q0-.243-.005-.486" transform="translate(-271.261 -243.635)" fill="#ffb840"/>
    <path id="Trazado_735804" data-name="Trazado 735804" d="M471.041,183.888c-.165-.055-.125-.216-.173-.331a.325.325,0,0,1,.173.331" transform="translate(-392.476 -152.998)" fill="#0a0a06"/>
    <path id="Trazado_735805" data-name="Trazado 735805" d="M397.015,354.457c.032-.077.06-.159.173-.114l-.173.114" transform="translate(-330.918 -295.34)" fill="#0a0a06"/>
    <path id="Trazado_735806" data-name="Trazado 735806" d="M352.322,360.117l.135.18c-.09-.026-.159-.068-.135-.18" transform="translate(-293.662 -300.163)" fill="#ffb840"/>
    <path id="Trazado_735807" data-name="Trazado 735807" d="M368.059,376.1l.179.134c-.111.024-.153-.044-.179-.134" transform="translate(-306.783 -313.484)" fill="#ffb840"/>
    <path id="Trazado_735808" data-name="Trazado 735808" d="M243.387,182.953l.118-.114.059.117-.177,0" transform="translate(-202.867 -152.399)" fill="#0a0a06"/>
    <path id="Trazado_735809" data-name="Trazado 735809" d="M472.072,185.71l-.167-.168.167.168" transform="translate(-393.34 -154.652)" fill="#0a0a06"/>
    <path id="Trazado_735810" data-name="Trazado 735810" d="M324.27,288.238c.072.032.149.061.11.167l-.11-.167" transform="translate(-270.284 -240.251)" fill="#0a0a06"/>
    <path id="Trazado_735811" data-name="Trazado 735811" d="M155.982,295.931a1.73,1.73,0,0,1-1.668,1.653,1.793,1.793,0,0,1-1.668-1.773,1.67,1.67,0,0,1,3.336.12" transform="translate(-127.232 -245.275)" fill="#4adbd1"/>
    <path id="Trazado_735812" data-name="Trazado 735812" d="M74.482,297.586a1.8,1.8,0,0,1-1.649-1.709,1.668,1.668,0,1,1,1.649,1.709" transform="translate(-60.708 -245.276)" fill="#4adbd1"/>
    <path id="Trazado_735813" data-name="Trazado 735813" d="M235.8,295.892a1.746,1.746,0,0,1-1.627,1.695,1.788,1.788,0,0,1-1.709-1.731,1.669,1.669,0,0,1,3.336.037" transform="translate(-193.765 -245.277)" fill="#4adbd1"/>
  </g>
</svg>
