<svg id="Grupo_1015162" data-name="Grupo 1015162" xmlns="http://www.w3.org/2000/svg" xmlns:xlink="http://www.w3.org/1999/xlink" width="118.261" height="117.439" viewBox="0 0 118.261 117.439">
  <defs>
    <clipPath id="clip-path">
      <rect id="Rectángulo_352916" data-name="Rectángulo 352916" width="62.327" height="61.603" fill="#12263f"/>
    </clipPath>
  </defs>
  <g id="Grupo_156356" data-name="Grupo 156356" transform="translate(0 47.68)">
    <g id="Grupo_156332" data-name="Grupo 156332" transform="translate(0 0)">
      <path id="Trazado_99257" data-name="Trazado 99257" d="M418.612,104.881a2.2,2.2,0,1,1-2.2-2.1A2.153,2.153,0,0,1,418.612,104.881Z" transform="translate(-414.214 -102.779)" fill="#12263f"/>
      <path id="Trazado_116526" data-name="Trazado 116526" d="M418.612,104.881a2.2,2.2,0,1,1-2.2-2.1A2.153,2.153,0,0,1,418.612,104.881Z" transform="translate(-364.418 -102.779)" fill="#12263f"/>
      <path id="Trazado_99258" data-name="Trazado 99258" d="M427.058,104.881a2.2,2.2,0,1,1-2.2-2.1A2.152,2.152,0,0,1,427.058,104.881Z" transform="translate(-412.701 -102.779)" fill="#12263f"/>
      <path id="Trazado_116527" data-name="Trazado 116527" d="M427.058,104.881a2.2,2.2,0,1,1-2.2-2.1A2.152,2.152,0,0,1,427.058,104.881Z" transform="translate(-362.905 -102.779)" fill="#12263f"/>
      <path id="Trazado_99259" data-name="Trazado 99259" d="M435.5,104.881a2.2,2.2,0,1,1-2.2-2.1A2.152,2.152,0,0,1,435.5,104.881Z" transform="translate(-411.188 -102.779)" fill="#12263f"/>
      <path id="Trazado_116531" data-name="Trazado 116531" d="M435.5,104.881a2.2,2.2,0,1,1-2.2-2.1A2.152,2.152,0,0,1,435.5,104.881Z" transform="translate(-361.392 -102.779)" fill="#12263f"/>
      <path id="Trazado_99260" data-name="Trazado 99260" d="M443.951,104.881a2.2,2.2,0,1,1-2.2-2.1A2.152,2.152,0,0,1,443.951,104.881Z" transform="translate(-409.676 -102.779)" fill="#12263f"/>
      <path id="Trazado_116532" data-name="Trazado 116532" d="M443.951,104.881a2.2,2.2,0,1,1-2.2-2.1A2.152,2.152,0,0,1,443.951,104.881Z" transform="translate(-359.879 -102.779)" fill="#12263f"/>
      <path id="Trazado_99261" data-name="Trazado 99261" d="M452.4,104.881a2.2,2.2,0,1,1-2.2-2.1A2.152,2.152,0,0,1,452.4,104.881Z" transform="translate(-408.162 -102.779)" fill="#12263f"/>
    </g>
    <g id="Grupo_156331" data-name="Grupo 156331" transform="translate(0 10.924)">
      <ellipse id="Elipse_3975" data-name="Elipse 3975" cx="2.199" cy="2.103" rx="2.199" ry="2.103" transform="translate(0 0.001)" fill="#12263f"/>
      <ellipse id="Elipse_4742" data-name="Elipse 4742" cx="2.199" cy="2.103" rx="2.199" ry="2.103" transform="translate(49.796 0.001)" fill="#12263f"/>
      <path id="Trazado_99268" data-name="Trazado 99268" d="M427.058,112.389a2.2,2.2,0,1,1-2.2-2.1A2.153,2.153,0,0,1,427.058,112.389Z" transform="translate(-412.701 -110.287)" fill="#12263f"/>
      <path id="Trazado_116528" data-name="Trazado 116528" d="M427.058,112.389a2.2,2.2,0,1,1-2.2-2.1A2.153,2.153,0,0,1,427.058,112.389Z" transform="translate(-362.904 -110.287)" fill="#12263f"/>
      <ellipse id="Elipse_3976" data-name="Elipse 3976" cx="2.199" cy="2.103" rx="2.199" ry="2.103" transform="translate(19.918 0.001)" fill="#12263f"/>
      <ellipse id="Elipse_4743" data-name="Elipse 4743" cx="2.199" cy="2.103" rx="2.199" ry="2.103" transform="translate(69.715 0.001)" fill="#12263f"/>
      <path id="Trazado_99269" data-name="Trazado 99269" d="M443.951,112.389a2.2,2.2,0,1,1-2.2-2.1A2.154,2.154,0,0,1,443.951,112.389Z" transform="translate(-409.676 -110.287)" fill="#12263f"/>
      <path id="Trazado_116533" data-name="Trazado 116533" d="M443.951,112.389a2.2,2.2,0,1,1-2.2-2.1A2.154,2.154,0,0,1,443.951,112.389Z" transform="translate(-359.879 -110.287)" fill="#12263f"/>
      <path id="Trazado_99270" data-name="Trazado 99270" d="M452.4,112.389a2.2,2.2,0,1,1-2.2-2.1A2.153,2.153,0,0,1,452.4,112.389Z" transform="translate(-408.162 -110.287)" fill="#12263f"/>
    </g>
    <g id="Grupo_156330" data-name="Grupo 156330" transform="translate(0 21.85)">
      <path id="Trazado_99274" data-name="Trazado 99274" d="M418.612,119.9a2.2,2.2,0,1,1-2.2-2.1A2.154,2.154,0,0,1,418.612,119.9Z" transform="translate(-414.214 -117.794)" fill="#12263f"/>
      <path id="Trazado_116529" data-name="Trazado 116529" d="M418.612,119.9a2.2,2.2,0,1,1-2.2-2.1A2.154,2.154,0,0,1,418.612,119.9Z" transform="translate(-364.418 -117.794)" fill="#12263f"/>
      <path id="Trazado_99275" data-name="Trazado 99275" d="M427.058,119.9a2.2,2.2,0,1,1-2.2-2.1A2.153,2.153,0,0,1,427.058,119.9Z" transform="translate(-412.701 -117.794)" fill="#12263f"/>
      <path id="Trazado_116530" data-name="Trazado 116530" d="M427.058,119.9a2.2,2.2,0,1,1-2.2-2.1A2.153,2.153,0,0,1,427.058,119.9Z" transform="translate(-362.905 -117.794)" fill="#12263f"/>
      <path id="Trazado_99276" data-name="Trazado 99276" d="M435.5,119.9a2.2,2.2,0,1,1-2.2-2.1A2.153,2.153,0,0,1,435.5,119.9Z" transform="translate(-411.188 -117.794)" fill="#12263f"/>
      <path id="Trazado_116534" data-name="Trazado 116534" d="M435.5,119.9a2.2,2.2,0,1,1-2.2-2.1A2.153,2.153,0,0,1,435.5,119.9Z" transform="translate(-361.392 -117.794)" fill="#12263f"/>
      <path id="Trazado_99277" data-name="Trazado 99277" d="M443.951,119.9a2.2,2.2,0,1,1-2.2-2.1A2.154,2.154,0,0,1,443.951,119.9Z" transform="translate(-409.676 -117.794)" fill="#12263f"/>
      <path id="Trazado_116535" data-name="Trazado 116535" d="M443.951,119.9a2.2,2.2,0,1,1-2.2-2.1A2.154,2.154,0,0,1,443.951,119.9Z" transform="translate(-359.879 -117.794)" fill="#12263f"/>
      <path id="Trazado_99278" data-name="Trazado 99278" d="M452.4,119.9a2.2,2.2,0,1,1-2.2-2.1A2.153,2.153,0,0,1,452.4,119.9Z" transform="translate(-408.162 -117.794)" fill="#12263f"/>
    </g>
    <g id="Grupo_156327" data-name="Grupo 156327" transform="translate(0 54.626)">
      <path id="Trazado_116550" data-name="Trazado 116550" d="M418.612,119.9a2.2,2.2,0,1,1-2.2-2.1A2.154,2.154,0,0,1,418.612,119.9Z" transform="translate(-414.214 -117.794)" fill="#12263f"/>
      <path id="Trazado_116551" data-name="Trazado 116551" d="M418.612,119.9a2.2,2.2,0,1,1-2.2-2.1A2.154,2.154,0,0,1,418.612,119.9Z" transform="translate(-364.418 -117.794)" fill="#12263f"/>
      <path id="Trazado_116552" data-name="Trazado 116552" d="M427.058,119.9a2.2,2.2,0,1,1-2.2-2.1A2.153,2.153,0,0,1,427.058,119.9Z" transform="translate(-412.701 -117.794)" fill="#12263f"/>
      <path id="Trazado_116553" data-name="Trazado 116553" d="M427.058,119.9a2.2,2.2,0,1,1-2.2-2.1A2.153,2.153,0,0,1,427.058,119.9Z" transform="translate(-362.905 -117.794)" fill="#12263f"/>
      <path id="Trazado_116554" data-name="Trazado 116554" d="M435.5,119.9a2.2,2.2,0,1,1-2.2-2.1A2.153,2.153,0,0,1,435.5,119.9Z" transform="translate(-411.188 -117.794)" fill="#12263f"/>
      <path id="Trazado_116555" data-name="Trazado 116555" d="M435.5,119.9a2.2,2.2,0,1,1-2.2-2.1A2.153,2.153,0,0,1,435.5,119.9Z" transform="translate(-361.392 -117.794)" fill="#12263f"/>
      <path id="Trazado_116556" data-name="Trazado 116556" d="M443.951,119.9a2.2,2.2,0,1,1-2.2-2.1A2.154,2.154,0,0,1,443.951,119.9Z" transform="translate(-409.676 -117.794)" fill="#12263f"/>
      <path id="Trazado_116557" data-name="Trazado 116557" d="M443.951,119.9a2.2,2.2,0,1,1-2.2-2.1A2.154,2.154,0,0,1,443.951,119.9Z" transform="translate(-359.879 -117.794)" fill="#12263f"/>
      <path id="Trazado_116558" data-name="Trazado 116558" d="M452.4,119.9a2.2,2.2,0,1,1-2.2-2.1A2.153,2.153,0,0,1,452.4,119.9Z" transform="translate(-408.162 -117.794)" fill="#12263f"/>
    </g>
    <g id="Grupo_156329" data-name="Grupo 156329" transform="translate(0 32.776)">
      <ellipse id="Elipse_3980" data-name="Elipse 3980" cx="2.199" cy="2.103" rx="2.199" ry="2.103" transform="translate(0 0.002)" fill="#12263f"/>
      <ellipse id="Elipse_4744" data-name="Elipse 4744" cx="2.199" cy="2.103" rx="2.199" ry="2.103" transform="translate(49.796 0.002)" fill="#12263f"/>
      <path id="Trazado_99285" data-name="Trazado 99285" d="M427.058,127.406a2.2,2.2,0,1,1-2.2-2.1A2.151,2.151,0,0,1,427.058,127.406Z" transform="translate(-412.701 -125.302)" fill="#12263f"/>
      <path id="Trazado_116536" data-name="Trazado 116536" d="M427.058,127.406a2.2,2.2,0,1,1-2.2-2.1A2.151,2.151,0,0,1,427.058,127.406Z" transform="translate(-362.904 -125.302)" fill="#12263f"/>
      <ellipse id="Elipse_3981" data-name="Elipse 3981" cx="2.199" cy="2.103" rx="2.199" ry="2.103" transform="translate(19.918 0.002)" fill="#12263f"/>
      <ellipse id="Elipse_4745" data-name="Elipse 4745" cx="2.199" cy="2.103" rx="2.199" ry="2.103" transform="translate(69.715 0.002)" fill="#12263f"/>
      <path id="Trazado_99286" data-name="Trazado 99286" d="M443.951,127.406a2.2,2.2,0,1,1-2.2-2.1A2.152,2.152,0,0,1,443.951,127.406Z" transform="translate(-409.676 -125.302)" fill="#12263f"/>
      <path id="Trazado_116537" data-name="Trazado 116537" d="M443.951,127.406a2.2,2.2,0,1,1-2.2-2.1A2.152,2.152,0,0,1,443.951,127.406Z" transform="translate(-359.879 -125.302)" fill="#12263f"/>
      <path id="Trazado_99287" data-name="Trazado 99287" d="M452.4,127.406a2.2,2.2,0,1,1-2.2-2.1A2.151,2.151,0,0,1,452.4,127.406Z" transform="translate(-408.162 -125.302)" fill="#12263f"/>
    </g>
    <g id="Grupo_156326" data-name="Grupo 156326" transform="translate(0 65.553)">
      <ellipse id="Elipse_4754" data-name="Elipse 4754" cx="2.199" cy="2.103" rx="2.199" ry="2.103" transform="translate(0 0.001)" fill="#12263f"/>
      <ellipse id="Elipse_4750" data-name="Elipse 4750" cx="2.199" cy="2.103" rx="2.199" ry="2.103" transform="translate(49.796 0.001)" fill="#12263f"/>
      <path id="Trazado_116548" data-name="Trazado 116548" d="M427.058,127.406a2.2,2.2,0,1,1-2.2-2.1A2.151,2.151,0,0,1,427.058,127.406Z" transform="translate(-412.701 -125.302)" fill="#12263f"/>
      <path id="Trazado_116542" data-name="Trazado 116542" d="M427.058,127.406a2.2,2.2,0,1,1-2.2-2.1A2.151,2.151,0,0,1,427.058,127.406Z" transform="translate(-362.904 -125.302)" fill="#12263f"/>
      <ellipse id="Elipse_4751" data-name="Elipse 4751" cx="2.199" cy="2.103" rx="2.199" ry="2.103" transform="translate(19.918 0.001)" fill="#12263f"/>
      <ellipse id="Elipse_4752" data-name="Elipse 4752" cx="2.199" cy="2.103" rx="2.199" ry="2.103" transform="translate(69.715 0.001)" fill="#12263f"/>
      <path id="Trazado_116543" data-name="Trazado 116543" d="M443.951,127.406a2.2,2.2,0,1,1-2.2-2.1A2.152,2.152,0,0,1,443.951,127.406Z" transform="translate(-409.676 -125.302)" fill="#12263f"/>
      <path id="Trazado_116544" data-name="Trazado 116544" d="M443.951,127.406a2.2,2.2,0,1,1-2.2-2.1A2.152,2.152,0,0,1,443.951,127.406Z" transform="translate(-359.879 -125.302)" fill="#12263f"/>
      <path id="Trazado_116545" data-name="Trazado 116545" d="M452.4,127.406a2.2,2.2,0,1,1-2.2-2.1A2.151,2.151,0,0,1,452.4,127.406Z" transform="translate(-408.162 -125.302)" fill="#12263f"/>
    </g>
    <g id="Grupo_156328" data-name="Grupo 156328" transform="translate(0 43.702)">
      <ellipse id="Elipse_3985" data-name="Elipse 3985" cx="2.199" cy="2.103" rx="2.199" ry="2.103" transform="translate(0 0.001)" fill="#12263f"/>
      <ellipse id="Elipse_4746" data-name="Elipse 4746" cx="2.199" cy="2.103" rx="2.199" ry="2.103" transform="translate(49.796 0.001)" fill="#12263f"/>
      <path id="Trazado_99291" data-name="Trazado 99291" d="M427.058,134.914a2.2,2.2,0,1,1-2.2-2.1A2.151,2.151,0,0,1,427.058,134.914Z" transform="translate(-412.701 -132.81)" fill="#12263f"/>
      <path id="Trazado_116538" data-name="Trazado 116538" d="M427.058,134.914a2.2,2.2,0,1,1-2.2-2.1A2.151,2.151,0,0,1,427.058,134.914Z" transform="translate(-362.904 -132.81)" fill="#12263f"/>
      <ellipse id="Elipse_3986" data-name="Elipse 3986" cx="2.199" cy="2.103" rx="2.199" ry="2.103" transform="translate(19.918 0.001)" fill="#12263f"/>
      <ellipse id="Elipse_4747" data-name="Elipse 4747" cx="2.199" cy="2.103" rx="2.199" ry="2.103" transform="translate(69.715 0.001)" fill="#12263f"/>
      <path id="Trazado_99292" data-name="Trazado 99292" d="M443.951,134.914a2.2,2.2,0,1,1-2.2-2.1A2.152,2.152,0,0,1,443.951,134.914Z" transform="translate(-409.676 -132.81)" fill="#12263f"/>
      <path id="Trazado_116539" data-name="Trazado 116539" d="M443.951,134.914a2.2,2.2,0,1,1-2.2-2.1A2.152,2.152,0,0,1,443.951,134.914Z" transform="translate(-359.879 -132.81)" fill="#12263f"/>
      <path id="Trazado_99293" data-name="Trazado 99293" d="M452.4,134.914a2.2,2.2,0,1,1-2.2-2.1A2.151,2.151,0,0,1,452.4,134.914Z" transform="translate(-408.162 -132.81)" fill="#12263f"/>
    </g>
  </g>
  <g id="Grupo_1015138" data-name="Grupo 1015138" transform="translate(12.576 0)">
    <circle id="Elipse_8447" data-name="Elipse 8447" cx="52.842" cy="52.842" r="52.842" transform="translate(0)" fill="#6f88da"/>
    <circle id="Elipse_8448" data-name="Elipse 8448" cx="44.273" cy="44.273" r="44.273" transform="translate(8.569 8.569)" fill="#fff"/>
    <g id="Grupo_1019277" data-name="Grupo 1019277" transform="translate(20.985 22.447)">
      <g id="Grupo_1019277-2" data-name="Grupo 1019277" clip-path="url(#clip-path)">
        <path id="Trazado_735598" data-name="Trazado 735598" d="M0,2.44A3.284,3.284,0,0,1,2.325.106a4.287,4.287,0,0,1,.96-.1Q14.869,0,26.453.007A3.1,3.1,0,0,1,29.79,3.348q.017,6.9,0,13.8a3.161,3.161,0,0,1-3.427,3.4c-7.439,0-14.877-.03-22.316.023C2.123,20.591.693,20.043,0,18.139ZM2.063,8.276v.674q0,4.015,0,8.03c0,1.186.315,1.5,1.528,1.5H26.161c1.231,0,1.553-.318,1.553-1.539q0-4.015,0-8.03V8.276Zm0-2.184H27.715c0-.868,0-1.695,0-2.521,0-1.2-.313-1.5-1.517-1.5H3.581c-.162,0-.325-.008-.486.005a1,1,0,0,0-1.02,1c-.03.989-.008,1.979-.008,3.017" transform="translate(0 -0.004)" fill="#12263f"/>
        <path id="Trazado_735599" data-name="Trazado 735599" d="M252.592,247.019c-.909.914-1.743,1.8-2.635,2.626a2.7,2.7,0,0,1-1.146.6c-1.04.258-2.1.455-3.152.639-.9.157-1.438-.34-1.294-1.246.19-1.2.444-2.386.717-3.568a1.746,1.746,0,0,1,.486-.744c.992-1.016,2-2.012,3.009-3.015.892-.89.892-.89.744-2.264h-2.764c-1.235,0-1.537-.3-1.539-1.545,0-1.623.017-3.246-.008-4.868a1.494,1.494,0,0,1,.934-1.533c2.694-1.313,5.37-2.662,8.044-4.015a1.761,1.761,0,0,1,1.457-.1c1.664.569,3.341,1.1,5,1.685a.826.826,0,0,0,1.047-.262,17.174,17.174,0,0,1,1.287-1.293,3.076,3.076,0,0,1,4.447,4.248c-.48.549-1.039,1.027-1.52,1.575a.813.813,0,0,0-.16.662q1.155,3.58,2.375,7.14a2.05,2.05,0,0,0,.5.736q3.9,3.926,7.827,7.835c.836.837.838,1.257.007,2.089q-4.043,4.046-8.089,8.089c-.834.834-1.25.833-2.089-.006l-12.952-12.95c-.156-.156-.318-.3-.531-.507m7.4-7.249a2.768,2.768,0,0,1,.131.893c-.157.88-1.131,1.1-1.838.416-1.12-1.087-2.29-2.138-3.293-3.327a2.4,2.4,0,0,0-3.017-.913c-.349.135-.542.209-.537.628.022,1.683-.006,3.366.026,5.048a1.26,1.26,0,0,0,.359.77c1.878,1.907,3.78,3.79,5.667,5.688.3.3.555.641.854.99,2.522-2.526,4.947-4.946,7.352-7.386a.751.751,0,0,0,.082-.63c-.484-1.522-1-3.035-1.5-4.549-.162-.484-.331-.965-.5-1.448l-3.786,3.819m14.194,11.6L267.1,244.3l-7.073,7.07,7.085,7.077,7.072-7.073M247.12,237.929h2.257c0-.3,0-.565,0-.826s-.007-.527,0-.79a1.138,1.138,0,0,1,1.054-1.26c.693-.142,1.4-.243,2.08-.416,1.114-.28,2.211-.582,2.862.612l3.872-3.81c-1.365-.456-2.756-.931-4.156-1.376a.854.854,0,0,0-.569.089q-3.533,1.748-7.048,3.53a.69.69,0,0,0-.339.483c-.029,1.234-.016,2.47-.016,3.764m11.279.285c2.428-2.411,4.85-4.8,7.252-7.211a.977.977,0,0,0-.016-1.416,1.041,1.041,0,0,0-1.556.15q-3.488,3.477-6.963,6.966a.449.449,0,0,0-.07.12l1.353,1.392m-10.055,7.275,1.353,1.374,1.318-1.233-1.387-1.39-1.284,1.25m-.448,2.825-.951-1.122-.269,1.394,1.22-.272" transform="translate(-214.548 -199.503)" fill="#12263f"/>
        <path id="Trazado_735600" data-name="Trazado 735600" d="M46.172,176.838h2.067v.654q0,16.942,0,33.884a5.841,5.841,0,0,1-1.02,3.418h.79q16.76,0,33.519.008a3.8,3.8,0,0,0,2.6-.773l1.359,1.53a4.974,4.974,0,0,1-2.967,1.28c-.3.027-.608.018-.912.018H43.65c-.142,0-.284,0-.426,0a1.061,1.061,0,0,1-1.164-.985,1.09,1.09,0,0,1,1.09-1.078,3.116,3.116,0,0,0,3.021-3.482q0-16.82,0-33.64v-.833" transform="translate(-36.931 -155.275)" fill="#12263f"/>
        <path id="Trazado_735601" data-name="Trazado 735601" d="M278.6,2.061h-17.42V.036c.18-.011.356-.033.533-.033q10.4,0,20.8,0a5.077,5.077,0,0,1,5.143,3.814,2.687,2.687,0,0,1,.083.29c.3,1.7-.02,2.074-1.751,2.074h-6.332V25.634h-2.074c-.01-.2-.028-.416-.028-.629q0-9.731,0-19.462A5.615,5.615,0,0,1,278.6,2.061m1.3,2.033h5.635a2.971,2.971,0,0,0-5.635,0" transform="translate(-229.329 0)" fill="#12263f"/>
        <path id="Trazado_735602" data-name="Trazado 735602" d="M283.735,45.883c-1.6,0-3.2,0-4.8,0-.946,0-1.341-.38-1.343-1.318q-.011-4.834,0-9.668c0-.947.377-1.338,1.32-1.341q4.865-.015,9.729,0c.939,0,1.313.394,1.315,1.348q.01,4.8,0,9.608c0,1.008-.386,1.371-1.414,1.372q-2.4,0-4.8,0m4.082-10.2h-8.106V43.8h8.106Z" transform="translate(-243.735 -29.456)" fill="#12263f"/>
        <rect id="Rectángulo_352907" data-name="Rectángulo 352907" width="27.683" height="2.009" transform="translate(18.504 22.6)" fill="#12263f"/>
        <rect id="Rectángulo_352908" data-name="Rectángulo 352908" width="22.537" height="1.986" transform="translate(14.399 26.696)" fill="#12263f"/>
        <rect id="Rectángulo_352909" data-name="Rectángulo 352909" width="21.488" height="1.974" transform="translate(18.531 54.441)" fill="#12263f"/>
        <rect id="Rectángulo_352910" data-name="Rectángulo 352910" width="15.359" height="1.978" transform="translate(14.403 47.266)" fill="#12263f"/>
        <rect id="Rectángulo_352911" data-name="Rectángulo 352911" width="14.323" height="1.97" transform="translate(14.384 30.844)" fill="#12263f"/>
        <rect id="Rectángulo_352912" data-name="Rectángulo 352912" width="14.303" height="1.994" transform="translate(14.384 39.03)" fill="#12263f"/>
        <rect id="Rectángulo_352913" data-name="Rectángulo 352913" width="10.192" height="1.998" transform="translate(18.511 34.941)" fill="#12263f"/>
        <rect id="Rectángulo_352914" data-name="Rectángulo 352914" width="9.186" height="1.966" transform="translate(14.405 43.144)" fill="#12263f"/>
        <path id="Trazado_735603" data-name="Trazado 735603" d="M16.919,67.84H42.571v.631q0,4.015,0,8.03c0,1.221-.322,1.539-1.554,1.539H18.448c-1.214,0-1.528-.31-1.528-1.5q0-4.015,0-8.03V67.84" transform="translate(-14.856 -59.568)" fill="#dee4f0"/>
        <path id="Trazado_735604" data-name="Trazado 735604" d="M16.9,20.935c0-1.038-.022-2.028.008-3.017a1,1,0,0,1,1.02-1c.161-.013.324-.005.486-.005H41.031c1.2,0,1.513.307,1.517,1.5,0,.826,0,1.653,0,2.521Z" transform="translate(-14.833 -14.847)" fill="#ffca28"/>
        <path id="Trazado_735606" data-name="Trazado 735606" d="M387.163,374.45l-7.072,7.073-7.085-7.077,7.073-7.07,7.083,7.074" transform="translate(-327.522 -322.579)" fill="#b0c0d2"/>
        <path id="Trazado_735608" data-name="Trazado 735608" d="M349.878,253.277l-1.353-1.392a.448.448,0,0,1,.07-.12q3.479-3.486,6.963-6.966a1.041,1.041,0,0,1,1.556-.15.977.977,0,0,1,.016,1.416c-2.4,2.41-4.823,4.8-7.251,7.211" transform="translate(-306.026 -214.567)" fill="#6f88da"/>
        <path id="Trazado_735609" data-name="Trazado 735609" d="M277.161,368.116l1.284-1.25,1.387,1.39-1.318,1.233-1.353-1.374" transform="translate(-243.364 -322.131)" fill="#6f88da"/>
        <path id="Trazado_735610" data-name="Trazado 735610" d="M264.708,392.2l-1.22.272.269-1.394.951,1.122" transform="translate(-231.359 -343.394)" fill="#ffca28"/>
        <path id="Trazado_735611" data-name="Trazado 735611" d="M414.71,18.971a2.971,2.971,0,0,1,5.635,0H414.71Z" transform="translate(-364.141 -14.877)" fill="#12263f"/>
        <rect id="Rectángulo_352915" data-name="Rectángulo 352915" width="8.106" height="8.117" transform="translate(35.976 6.231)" fill="#4adbd1"/>
      </g>
    </g>
  </g>
</svg>
