<svg id="Grupo_1019301" data-name="Grupo 1019301" xmlns="http://www.w3.org/2000/svg" xmlns:xlink="http://www.w3.org/1999/xlink" width="85" height="79.264" viewBox="0 0 85 79.264">
  <defs>
    <clipPath id="clip-path">
      <rect id="Rectángulo_352930" data-name="Rectángulo 352930" width="85" height="79.264" fill="#12263f"/>
    </clipPath>
  </defs>
  <g id="Grupo_1019300" data-name="Grupo 1019300" clip-path="url(#clip-path)">
    <path id="Trazado_736122" data-name="Trazado 736122" d="M8.176,76.038v-.6c0-4.254-.009-8.509.012-12.763,0-.477-.167-.54-.58-.546a19.2,19.2,0,0,1-3.451-.154A5.187,5.187,0,0,1,.163,55.584C1.576,50,3.033,44.436,4.473,38.864q1.919-7.427,3.844-14.852a.538.538,0,0,0-.15-.632A10.82,10.82,0,0,1,4.69,12.618a1.03,1.03,0,0,0,0-.173A6.453,6.453,0,0,1,.9,9.039,6.229,6.229,0,0,1,.411,5.234a6.406,6.406,0,0,1,12.365-.9c1.022-.06,2.027-.2,3.028-.166A10.936,10.936,0,0,1,26.326,15.73a10.734,10.734,0,0,1-3.677,7.587.627.627,0,0,0-.212.742q.988,3.718,1.928,7.449c.1.384.268.493.652.517q5.861.372,11.72.792a12.22,12.22,0,0,1,1.5.3c.02-.352.023-.713.065-1.07a4.333,4.333,0,0,1,4.4-3.939c2.665-.012,5.33,0,7.995,0h.435a15.671,15.671,0,0,1,.018-2.331,4.693,4.693,0,0,1,4.609-3.943c1.541-.023,3.082-.01,4.623-.031a2.957,2.957,0,0,0,2.525-1.328c-.38-.412-.754-.784-1.089-1.189a7.108,7.108,0,0,1-1.262-7.611,7.037,7.037,0,0,1,6.185-4.609A7.4,7.4,0,0,1,72.3,20.019a.87.87,0,0,0-.33.739c.011,2.247.006,4.5.006,6.743v.571c.22.012.406.03.591.031q3.9,0,7.8,0a4.361,4.361,0,0,1,4.6,4.585c0,4.784.082,9.57-.022,14.352a13.238,13.238,0,0,1-6.915,11.65,1.436,1.436,0,0,0-.772.992c-.668,2.906-1.372,5.8-2.063,8.705-.022.091-.03.186-.053.336.262,0,.5,0,.735,0a46.985,46.985,0,0,1,4.758.117,5.17,5.17,0,0,1,4.327,5.472,5.269,5.269,0,0,1-4.815,4.921c-.448.029-.9.02-1.348.02q-17.073.006-34.147.009-20.108,0-40.215,0c-1.112,0-1.812-.577-1.852-1.52a1.575,1.575,0,0,1,1.576-1.7c1.14-.016,2.28,0,3.419-.005h.594M26.017,50.8c-.038-.161-.055-.237-.074-.313Q24.818,46.134,23.7,41.78a1.6,1.6,0,0,1,1.736-2.152c1.731.094,3.459.228,5.189.343,1.825.121,3.65.261,5.477.353a2.143,2.143,0,0,0,.29-4.275c-1.438-.126-2.88-.208-4.321-.307l-10.614-.732c-1.617-.112-3.236-.195-4.849-.348a1.576,1.576,0,0,1-1.47-1.753,1.6,1.6,0,0,1,1.771-1.455c.673.031,1.345.094,2.017.14.7.048,1.4.093,2.169.143l-1.658-6.4a11.284,11.284,0,0,1-8.119,0L4.727,50.8h.59c2.5,0,5.009,0,7.513,0a1.612,1.612,0,1,1-.074,3.218c-2.793.007-5.587.01-8.38-.006-.375,0-.542.109-.614.477-.1.518-.257,1.026-.388,1.539A2.1,2.1,0,0,0,5.588,58.9H19.314c2.039,0,4.078.008,6.116,0a2.029,2.029,0,0,0,2.053-2.27c-.137-.865-.4-1.711-.614-2.6h-.613c-1.605,0-3.211.013-4.816-.005a1.607,1.607,0,1,1-.007-3.213c1.507-.007,3.014,0,4.583,0M27.355,43c.059.24.1.425.151.609q1.534,5.935,3.067,11.871A5.288,5.288,0,0,1,28.286,61.3a5.442,5.442,0,0,1-3.015.836c-.879,0-1.757,0-2.663,0V76.013H38.634c-.034-.131-.057-.237-.089-.341a5.269,5.269,0,0,1,5.118-6.948q1.854,0,3.708,0H48.1c-.034-.2-.05-.322-.079-.445-.689-2.884-1.388-5.766-2.058-8.655a1.259,1.259,0,0,0-.676-.893,13.163,13.163,0,0,1-6.837-9.927,45.743,45.743,0,0,1-.187-4.993c-.006-.187,0-.374,0-.454a24.059,24.059,0,0,1-2.713.177c-2.067-.092-4.13-.276-6.194-.418-.652-.045-1.305-.076-2-.116m14.412,6.072c.039.183.064.324.1.461a10.368,10.368,0,0,0,9.916,7.686q9.8.041,19.6,0a10.4,10.4,0,0,0,10.109-8.145ZM15.331,22.864a7.746,7.746,0,1,0-7.7-7.752,7.763,7.763,0,0,0,7.7,7.752M49.494,60.318a.33.33,0,0,0-.009.115q.948,4,1.9,8c.063.268.222.3.453.3q9.772-.007,19.545,0c.317,0,.434-.1.507-.411.554-2.372,1.132-4.738,1.7-7.106.072-.3.131-.608.193-.895-4.085.268-8.126.12-12.163.12s-8.075.15-12.122-.119M61.608,76.036v0H79.333c.177,0,.354.006.53-.009A2.049,2.049,0,0,0,81.731,74a2,2,0,0,0-1.865-2.022c-.367-.028-.738-.019-1.107-.019q-17.484,0-34.967,0a4.063,4.063,0,0,0-.576.039,2.008,2.008,0,0,0-1.695,1.829,2.035,2.035,0,0,0,2.17,2.211q8.959.005,17.917,0M19.329,62.18a1.827,1.827,0,0,0-.253-.038c-2.439,0-4.878.005-7.317-.009-.41,0-.371.235-.371.5q0,6.45-.007,12.9c0,.4.11.515.511.512,2.326-.018,4.653-.008,6.98-.01.153,0,.305-.02.458-.03ZM77.366,45.758h4.372V45.15q0-4.306,0-8.612c0-1.3.008-2.6,0-3.9a1.143,1.143,0,0,0-1.3-1.3c-.882,0-1.764,0-2.646,0-.137,0-.273.021-.419.034ZM45.874,31.344c-1.039,0-2.016,0-2.992,0s-1.368.393-1.368,1.372q0,3.627,0,7.253,0,2.648,0,5.3c0,.169.014.338.021.5h4.339Zm22.845-9.566c-.824,0-1.593.032-2.357-.016a.561.561,0,0,0-.619.277,6.145,6.145,0,0,1-5.387,2.983c-1.444.018-2.888.03-4.331.052a2.429,2.429,0,0,0-.664.075,1.486,1.486,0,0,0-1.036,1.687,1.465,1.465,0,0,0,1.524,1.256q6.233.013,12.466.011c.125,0,.251-.02.4-.034ZM52.925,31.385H49.162V45.774h3.763Zm3.292,14.375h3.764V31.37H56.217Zm7.062.008h3.735V31.36H63.278Zm8.325-31.3a4.185,4.185,0,1,0-4.231,4.148A4.181,4.181,0,0,0,71.6,14.473m2.462,16.905H70.342V45.784h3.724ZM3.555,6.37A3.134,3.134,0,0,0,5.618,9.325a.387.387,0,0,0,.552-.171,10.508,10.508,0,0,1,3.28-3.26.432.432,0,0,0,.2-.627A3.177,3.177,0,0,0,6.183,3.276,3.12,3.12,0,0,0,3.555,6.37" transform="translate(0 0.001)" fill="#12263f"/>
    <path id="Trazado_736123" data-name="Trazado 736123" d="M56.655,288.469c-1.569,0-3.076-.005-4.583,0a1.607,1.607,0,1,0,.007,3.213c1.605.019,3.211.005,4.816.005h.613c.215.888.478,1.734.614,2.6a2.029,2.029,0,0,1-2.053,2.27c-2.039.011-4.078,0-6.117,0H36.227a2.1,2.1,0,0,1-2.214-2.865c.131-.513.286-1.02.388-1.539.072-.368.239-.479.614-.477,2.793.016,5.587.013,8.38.006a1.612,1.612,0,1,0,.074-3.218c-2.5-.007-5.009,0-7.513,0h-.59L41.953,263a11.284,11.284,0,0,0,8.119,0l1.658,6.4c-.766-.05-1.468-.1-2.169-.143-.672-.046-1.344-.109-2.017-.14a1.6,1.6,0,0,0-1.771,1.455,1.575,1.575,0,0,0,1.47,1.753c1.613.153,3.233.236,4.849.348l10.614.732c1.441.1,2.883.181,4.321.307a2.143,2.143,0,0,1-.291,4.275c-1.827-.091-3.651-.232-5.477-.353-1.729-.115-3.458-.248-5.189-.343a1.6,1.6,0,0,0-1.737,2.152q1.115,4.357,2.246,8.709c.02.076.036.152.075.313" transform="translate(-30.639 -237.666)" fill="#6f88da"/>
    <path id="Trazado_736124" data-name="Trazado 736124" d="M433.562,509.432h39.722a10.4,10.4,0,0,1-10.109,8.145q-9.8.043-19.6,0a10.368,10.368,0,0,1-9.916-7.686c-.037-.138-.061-.279-.1-.461" transform="translate(-391.795 -460.356)" fill="#f6f6f6"/>
    <path id="Trazado_736126" data-name="Trazado 736126" d="M513.655,626.135c4.047.269,8.086.119,12.122.119s8.078.148,12.163-.12c-.062.287-.12.593-.193.895-.568,2.368-1.146,4.735-1.7,7.106-.073.312-.191.411-.507.411q-9.773-.012-19.545,0c-.231,0-.39-.027-.453-.3q-.941-4-1.9-8a.331.331,0,0,1,.009-.115" transform="translate(-464.162 -565.817)" fill="#727997"/>
    <path id="Trazado_736127" data-name="Trazado 736127" d="M451.051,751.016q-8.959,0-17.917,0a2.035,2.035,0,0,1-2.17-2.211,2.007,2.007,0,0,1,1.695-1.829,4.04,4.04,0,0,1,.576-.039q17.484,0,34.967,0c.369,0,.74-.009,1.107.019a2,2,0,0,1,1.865,2.022,2.049,2.049,0,0,1-1.869,2.032c-.176.014-.353.009-.53.009H451.051Z" transform="translate(-389.442 -674.979)" fill="#b0c0d2"/>
    <path id="Trazado_736128" data-name="Trazado 736128" d="M126.084,645.03v13.824c-.152.01-.3.03-.458.03-2.327,0-4.653-.008-6.98.01-.4,0-.512-.113-.511-.512q.02-6.45.007-12.9c0-.264-.039-.5.371-.5,2.439.014,4.878.007,7.317.009a1.826,1.826,0,0,1,.253.038" transform="translate(-106.755 -582.849)" fill="#f3f9ff"/>
    <path id="Trazado_736131" data-name="Trazado 736131" d="M578.133,225.889v6.29c-.154.013-.279.034-.4.034q-6.233,0-12.466-.011a1.465,1.465,0,0,1-1.525-1.256,1.486,1.486,0,0,1,1.036-1.687,2.429,2.429,0,0,1,.664-.075c1.444-.022,2.887-.034,4.331-.052a6.145,6.145,0,0,0,5.388-2.983.561.561,0,0,1,.619-.277c.764.048,1.533.016,2.357.016" transform="translate(-509.415 -204.11)" fill="#ffca28"/>
  </g>
</svg>
