<svg id="Grupo_1019340" data-name="Grupo 1019340" xmlns="http://www.w3.org/2000/svg" xmlns:xlink="http://www.w3.org/1999/xlink" width="171.885" height="171.859" viewBox="0 0 171.885 171.859">
  <defs>
    <clipPath id="clip-path">
      <rect id="Rectángulo_352941" data-name="Rectángulo 352941" width="171.885" height="171.859" fill="none"/>
    </clipPath>
  </defs>
  <g id="Grupo_1019339" data-name="Grupo 1019339" clip-path="url(#clip-path)">
    <path id="Trazado_736272" data-name="Trazado 736272" d="M0,264.549a13.017,13.017,0,0,1,2.956-4.47c1.732-1.768,3.981-1.973,6.194-2.073,3.124-.141,6.261-.082,9.39-.011,1.142.026,1.566-.26,1.518-1.473-.092-2.344-.061-4.7,0-7.042.053-2.158.825-2.928,3.09-2.964,3.745-.06,7.491-.014,11.237-.021.613,0,1.226-.043,1.84-.067l.042.123a3.3,3.3,0,0,0,.785.2q11.023,0,22.046-.014a32.558,32.558,0,0,1,11.328,2.809,35.938,35.938,0,0,1,11.106,8.38c2.454.625,4.949.131,7.422.263.451.024,1.024.239,1.335-.361A19.588,19.588,0,0,1,93.27,254.8l.369-.273,2.077-1.727a.606.606,0,0,0,.609-.349c.563-.969,1.658-1.131,2.516-1.647a30.355,30.355,0,0,1,13.575-4.072q11.2.009,22.4.009a3.259,3.259,0,0,0,.787-.2l.052-.121q6.121.037,12.243.074c2.847.016,3.907,1.071,3.922,3.936.011,1.958.075,3.919-.023,5.872-.064,1.275.261,1.711,1.635,1.707a88.609,88.609,0,0,1,10.714.154,8.347,8.347,0,0,1,7.676,8.669q.14,17.03.005,34.062a8.6,8.6,0,0,1-8.561,8.7c-3.356,0-6.713.05-10.067-.023-1.125-.025-1.443.322-1.4,1.414.08,2.01-.1,4.035.053,6.038.193,2.57-1.22,4.118-4.072,4.1-10.011-.071-20.023-.034-30.036-.025a28.141,28.141,0,0,0-14.188,3.434,27.525,27.525,0,0,0-9.53,9.385,2.682,2.682,0,0,1-2.378,1.449c-3.971.012-7.942-.011-11.913.014a1.919,1.919,0,0,1-1.2-.426l-.348-.246-1.675-2.014c.537-.563.084-.61-.348-.668-.388-.085-.276-.408-.314-.659a.606.606,0,0,0-.691-.684,24.682,24.682,0,0,0-13.729-8.731,31.393,31.393,0,0,0-7.84-.861c-9.776.01-19.553-.056-29.329.036-3.171.03-4.41-1.036-4.247-4.184.1-1.95-.047-3.913.044-5.864.054-1.159-.275-1.53-1.475-1.508q-5.36.1-10.723-.037a8.187,8.187,0,0,1-7.515-5.755c-.042-.122-.224-.2-.341-.294v-1.007q.518-.336,0-.671V265.892q.518-.336,0-.671Zm157.338,10.414-.25.251c-4.168.02-8.337.067-12.5.04-.951-.006-1.438.13-1.338,1.246.123,1.378.08,2.772.109,4.159.085.379.394.32.656.319q6.531-.028,13.061-.064a3.071,3.071,0,0,0,.312.1q-.006,2.824-.012,5.649c-3.3.011-6.592-.01-9.887.05-1.375.025-3.251-.643-3.987.293-.686.873-.132,2.674-.251,4.055-.1,1.129.323,1.381,1.393,1.369,4.245-.048,8.491,0,12.736.01q0,2.821,0,5.642l.039.035c-4.3,0-8.606-.018-12.909.014-.482,0-1.113-.373-1.47.317-.019.555-.055,1.111-.052,1.667.013,2.527,1.211,3.709,3.762,3.711,5.347,0,10.694-.007,16.04.006,1.636,0,2.745-.62,3.034-2.337.585-.414.306-1.027.307-1.541q.028-16.263,0-32.525c0-.522.233-1.129-.314-1.555a2.49,2.49,0,0,0-2.46-2.026c-5.9-.019-11.794.006-17.691,0a2.041,2.041,0,0,0-1.452.618c-1.49,1.333-1.257,3.057-1.194,4.755.338.713.981.358,1.469.361,4.307.027,8.614.011,12.921.007l-.006,0-.07,5.375m-142.827,0-.07-5.376-.006,0c4.2,0,8.39.021,12.585-.007.488,0,1.13.351,1.469-.361.013-.614.036-1.228.038-1.842.008-2.692-.845-3.549-3.575-3.553-5.31-.007-10.62.012-15.929-.009-1.6-.006-2.825.465-3.295,2.146l-.269.092.263.123.05.388a.86.86,0,0,0-.032.165q.014,17.53.031,35.06A3.025,3.025,0,0,0,8.732,303.8c5.621.067,11.243.052,16.864.014a2.9,2.9,0,0,0,2.93-3.03c0-.778-.033-1.556-.052-2.334-.357-.69-.988-.313-1.47-.317-4.191-.033-8.382-.017-12.573-.015l.037-.035q0-2.82.006-5.641c3.3-.011,6.593.01,9.888-.05,1.375-.025,3.253.642,3.989-.29.687-.87.136-2.672.253-4.054.1-1.123-.314-1.386-1.39-1.374-4.245.049-8.491,0-12.737-.011q0-2.823-.01-5.648a2.881,2.881,0,0,0,.307-.1q6.533.033,13.065.064c.262,0,.571.06.657-.319.029-1.164-.017-2.337.107-3.492.155-1.446-.232-1.985-1.838-1.938-4,.118-8,.005-12.005-.015l-.248-.25M83.19,328c-.513,1.077-.531,1.81,1.02,1.674a11.7,11.7,0,0,1,2.676.01c1.392.2,1.946-.316,1.774-1.683.472-.462.277-1.054.277-1.589q.015-30.492,0-60.984c0-.518.251-1.133-.336-1.539l-5.36-.011c-.592.48-.32,1.144-.32,1.719q-.023,30.324,0,60.647c0,.588-.222,1.236.274,1.757m54.133-26.5c.194-.1.3-.222.113-.422q.015-17.4.03-34.8l.105-.75c.35-3.373,2.312-5.5,5.268-6.893,1.023-.483,2.6-.178,3.06-1.21.441-.979.032-2.313.142-3.477.118-1.249-.293-1.6-1.564-1.593-6.764.065-13.529-.04-20.292.056-4.449.063-8.892-.236-13.354.329a25.007,25.007,0,0,0-15.594,8.34,2.623,2.623,0,0,0-.65,1.98q.013,29.853.018,59.705c0,.337-.224.79.318,1.031a31.856,31.856,0,0,1,23.048-8.537q12.662-.016,25.324,0c2.725,0,2.688,0,2.74-2.71.032-1.671.387-3.475-2.29-3.124-.079.01-.168-.147-.268-.183-3.656-1.3-5.557-4-6.153-7.74M26.2,252.333c-.224-.182-.312-.079-.333.16-.011,1.563,0,3.126-.042,4.689-.017.67.148.929.908,1.017,4.147.483,6.7,3.021,7.526,7.341q.009,17.81.018,35.621a8.55,8.55,0,0,1-5.7,8.013c-.893.34-2.228-.124-2.635.852a8.481,8.481,0,0,0-.106,2.987,2.323,2.323,0,0,1,0,.335c-.235,1.461.245,1.969,1.847,1.954,9.057-.087,18.117-.125,27.174,0A32.546,32.546,0,0,1,66.51,317.42a35.242,35.242,0,0,1,10.476,6.423c.417-.328.269-.689.269-.991q.013-29.942.026-59.884a2.957,2.957,0,0,0-.966-2.183C71.28,255.415,65,252.83,57.752,252.352c-.119-.161-.244-.172-.377-.017H26.2" transform="translate(0 -163.52)" fill="#040504"/>
    <path id="Trazado_736273" data-name="Trazado 736273" d="M129.171,48.735l-5.042-.113-.273-.286V43.293l.274-.274c1.338-.019,2.68-.109,4.013-.035,1.05.059,1.427-.2,1.4-1.341-.082-3.515.038-7.035-.043-10.549a28.456,28.456,0,0,1,3.5-14.2C137.568,8.3,144.684,2.987,154.109.625c.851-.213,1.869.131,2.582-.625h2.014q.5.65,1.007,0H162.4q.336.518.672,0h1.678a1.724,1.724,0,0,0,1.216.669c7.768.868,13.961,4.7,19.06,10.392,3.895,4.351,5.9,9.61,6.943,15.327.913,5.018.568,10.057.588,15.09.005,1.3.375,1.6,1.581,1.511,1.274-.1,2.563.012,3.846.031l.272.275v5.043l-.274.284c-1.448.021-2.9.087-4.343.047-.989-.027-1.4.287-1.381,1.337a26.2,26.2,0,0,1-3,12.568c-.659,1.3-.038,1.672.93,1.834,4.808.8,8.918,3.153,12.88,5.794a33.636,33.636,0,0,1,5.609,5.131l-1.9,2.1c-2,2.092-3.459.925-4.866-.785a7.433,7.433,0,0,0-1.176-.894,27.16,27.16,0,0,0-15.164-6.339c-.1-.158-.187-.44-.3-.451-.348-.032-.33.29-.367.532l-.312.331-.359.266c-1.246.84-2.166,2.035-3.348,2.972-7.216,5.723-15.294,8.155-24.454,6.819a29.635,29.635,0,0,1-17.816-9.2,3.857,3.857,0,0,0-4.18-1.254,34.009,34.009,0,0,0-15.542,8.194c-1.8,1.589-1.729,1.663-3.479.091a1.6,1.6,0,0,0-.281-.165c-2.471-1.785-2.5-1.81-.283-3.952,1.132-1.1,2.371-2.082,3.561-3.118l.358-.238A35.421,35.421,0,0,1,131.562,64.4c1.011-.2,1.738-.7,1.017-2.1A28.4,28.4,0,0,1,129.457,49c.049-.244-.05-.328-.285-.265M150.651,41.2q0-.135-.007-.269c-1.819-2.869-4.777-3.749-7.779-3.567-3.908.236-6.438,2.9-7.539,6.49-.99,3.227.344,6.212,2.708,8.391a8.6,8.6,0,0,0,13.37-2.489c1.56-3.029,1.241-6.691-.754-8.556m26.506-15.289a31.406,31.406,0,0,1-4.644-4.272,1.589,1.589,0,0,0-2.147-.461,111.093,111.093,0,0,1-12.69,4.192,104.755,104.755,0,0,1-18.7,3.128c-3.783.335-3.795.2-3.762,4a1.394,1.394,0,0,1,0,.168c-.158,1.506.5,1.434,1.508.806,6.6-4.12,16.3-1.449,19.942,5.94.575,1.166.423,2.958,1.632,3.438s2.761.009,4.145.139c1.3.122,1.737-.433,2.151-1.6,2.1-5.91,6.4-9.116,12.575-9.9,3.4-.2,6.431,1,9.4,2.677,0-1.035-.021-1.871.007-2.705.019-.573-.16-.787-.766-1a41.055,41.055,0,0,1-8.648-4.55M178.822,13.1a39.347,39.347,0,0,0-3.929-3.211,22.705,22.705,0,0,0-10.158-3.562l-.344-.279c-2.459,0-4.981-.348-7.364.077-9.3,1.657-15.9,6.91-19.752,15.57-.358.805-.191,1.234.7,1.061,2.286-.44,4.611-.555,6.912-.859,8.918-1.179,17.582-3.164,25.711-7.153,1.742-.855,3.142-.428,4.422,1.04a27.141,27.141,0,0,0,4.452,4.508,23.347,23.347,0,0,0,6.168,3.679,24.193,24.193,0,0,0-6.136-10.19.606.606,0,0,0-.687-.683M157.03,74.122a14.2,14.2,0,0,0,6.269.328c7.2-1.024,13.4-4.048,17.975-9.9a19.151,19.151,0,0,0,3.3-5.865c-4.052,1.172-7.886,2.2-11.8.445-3.235-1.366-6.211-3.453-7.21-6.728-1.13-3.709-3.307-4.163-6.418-3.735a5.474,5.474,0,0,1-.837.006c-.381-.007-.529.13-.635.549a14,14,0,0,1-7.368,9.363,14.6,14.6,0,0,1-9.681,1.141c-1.109-.2-2.124-.877-3.38-.854,4.121,8.339,10.458,13.72,19.777,15.247M177.9,54.394c5.576,0,9.106-4.122,8.994-10.5-.047-2.672-5.389-6.776-8.629-6.629a9.3,9.3,0,0,0-8.973,9.567c.055,1.579,1.26,3.376,2.572,4.768a8.122,8.122,0,0,0,6.035,2.8" transform="translate(-75.13)" fill="#040504"/>
    <path id="Trazado_736274" data-name="Trazado 736274" d="M249.427,0q-.5.649-1.007,0Z" transform="translate(-164.845)" fill="#080908"/>
    <path id="Trazado_736275" data-name="Trazado 736275" d="M260.066,0q-.336.518-.671,0Z" transform="translate(-172.128)" fill="#080908"/>
    <path id="Trazado_736276" data-name="Trazado 736276" d="M0,302.3q.518.336,0,.671Z" transform="translate(0 -200.596)" fill="#080908"/>
    <path id="Trazado_736277" data-name="Trazado 736277" d="M0,411.044q.519.336,0,.671Z" transform="translate(0 -272.758)" fill="#080908"/>
    <path id="Trazado_736278" data-name="Trazado 736278" d="M180.891,206.457l.312-.331.666-.081a27.157,27.157,0,0,1,15.164,6.339,7.415,7.415,0,0,1,1.176.894c1.407,1.71,2.862,2.876,4.866.785a25.981,25.981,0,0,1,4.018,5.473l-.051.121a5.176,5.176,0,0,0-.818-.13q-10.39-.005-20.78.018c-.531,0-1.128-.161-1.586.3a30.355,30.355,0,0,0-13.575,4.072c-.859.516-1.953.678-2.516,1.647-.2.12-.594-.1-.609.349l-2.077,1.727c-.226-.048-.313.092-.369.273a19.605,19.605,0,0,0-2.984,3.024l-8.758.1a35.938,35.938,0,0,0-11.106-8.38,32.566,32.566,0,0,0-11.328-2.81c-.577-.5-1.28-.29-1.922-.3-2.9-.032-5.8-.045-8.7-.008-4.068.052-8.139-.171-12.2.12l-.042-.123a40.984,40.984,0,0,1,3.769-5.362,1.6,1.6,0,0,1,.281.165c1.749,1.572,1.682,1.5,3.479-.09a34.01,34.01,0,0,1,15.542-8.194,3.858,3.858,0,0,1,4.18,1.254,29.633,29.633,0,0,0,17.816,9.2c9.16,1.337,17.237-1.1,24.453-6.819,1.183-.938,2.1-2.132,3.348-2.972.227.057.31-.082.358-.266" transform="translate(-71.443 -136.633)" fill="#6f88da"/>
    <path id="Trazado_736279" data-name="Trazado 736279" d="M223.394,496.875a.606.606,0,0,1,.691.684c-.478.022-.7-.211-.691-.684" transform="translate(-148.238 -329.713)" fill="#080908"/>
    <path id="Trazado_736280" data-name="Trazado 736280" d="M226.382,500.868c.432.058.885.1.348.667-.379-.085-.261-.43-.348-.667" transform="translate(-150.221 -332.363)" fill="#080908"/>
    <path id="Trazado_736281" data-name="Trazado 736281" d="M365.155,143.966l.274-.284c.049.231-.026.34-.274.284" transform="translate(-242.307 -95.344)" fill="#080908"/>
    <path id="Trazado_736282" data-name="Trazado 736282" d="M232.4,508.838l.348.246c-.242.1-.3-.064-.348-.246" transform="translate(-154.211 -337.651)" fill="#080908"/>
    <path id="Trazado_736283" data-name="Trazado 736283" d="M365.434,128.122l-.272-.275c.235-.051.327.039.272.275" transform="translate(-242.312 -84.827)" fill="#080908"/>
    <path id="Trazado_736284" data-name="Trazado 736284" d="M145.082,127.845l-.274.273c-.053-.236.039-.326.274-.273" transform="translate(-96.082 -84.825)" fill="#080908"/>
    <path id="Trazado_736285" data-name="Trazado 736285" d="M128.971,208.716l-.358.237c.057-.174.117-.342.358-.237" transform="translate(-85.344 -138.477)" fill="#080908"/>
    <path id="Trazado_736286" data-name="Trazado 736286" d="M144.808,143.676l.273.286c-.249.055-.324-.055-.273-.286" transform="translate(-96.081 -95.34)" fill="#080908"/>
    <path id="Trazado_736287" data-name="Trazado 736287" d="M160.634,144.823c.235-.063.334.022.285.265l-.285-.265" transform="translate(-106.592 -96.087)" fill="#efdbc9"/>
    <path id="Trazado_736288" data-name="Trazado 736288" d="M108.531,264.009c7.247.478,13.528,3.064,18.564,8.432a2.959,2.959,0,0,1,.966,2.183q-.036,29.942-.026,59.884c0,.3.148.663-.269.991a35.233,35.233,0,0,0-10.476-6.423,32.547,32.547,0,0,0-11.664-2.121c-9.056-.121-18.116-.083-27.173,0-1.6.015-2.082-.493-1.847-1.954a2.322,2.322,0,0,0,0-.335,8.48,8.48,0,0,1,.106-2.987c.407-.976,1.742-.512,2.635-.852a8.551,8.551,0,0,0,5.7-8.013c.473-.46.278-1.051.279-1.584q.017-16.135,0-32.27c0-.6.148-1.237-.3-1.766-.824-4.32-3.379-6.858-7.527-7.341-.76-.088-.924-.347-.908-1.017.039-1.562.031-3.126.042-4.689l.334-.16,31.179,0,.377.016" transform="translate(-50.779 -175.177)" fill="#4adbd1"/>
    <path id="Trazado_736289" data-name="Trazado 736289" d="M323.976,277.983q-.015,17.4-.031,34.8c-.038.141-.075.282-.113.422.6,3.737,2.5,6.434,6.153,7.739.1.036.189.193.268.182,2.677-.35,2.321,1.453,2.29,3.124-.052,2.71-.014,2.71-2.74,2.71q-12.662,0-25.324,0a31.861,31.861,0,0,0-23.048,8.537c-.542-.241-.317-.693-.318-1.03q-.019-29.853-.018-59.705a2.624,2.624,0,0,1,.65-1.98,25,25,0,0,1,15.594-8.339c4.463-.565,8.906-.266,13.355-.329,6.763-.1,13.528.009,20.292-.056,1.271-.012,1.682.343,1.564,1.592-.11,1.164.3,2.5-.142,3.477-.465,1.032-2.037.726-3.06,1.209-2.956,1.4-4.918,3.521-5.268,6.894a.531.531,0,0,0-.105.75" transform="translate(-186.51 -175.223)" fill="#4adbd1"/>
    <path id="Trazado_736290" data-name="Trazado 736290" d="M439.383,315.375a3.073,3.073,0,0,1-.312-.1c-.536-.437-1.171-.245-1.761-.247-3.985-.017-7.971-.008-11.957-.008-.029-1.387.014-2.78-.109-4.159-.1-1.116.388-1.251,1.338-1.245,4.168.026,8.336-.02,12.5-.04l.135.05.142-.026a9.187,9.187,0,0,0,.043-5.65l.006,0c-.49-.562-1.146-.3-1.722-.307-4.223-.039-8.446-.045-12.668-.062-.063-1.7-.3-3.423,1.194-4.755a2.041,2.041,0,0,1,1.452-.618c5.9,0,11.794-.021,17.691,0a2.49,2.49,0,0,1,2.46,2.026q0,17.811,0,35.622c-.289,1.717-1.4,2.341-3.034,2.337-5.347-.013-10.694,0-16.041-.005-2.551,0-3.749-1.185-3.762-3.711,0-.555.034-1.111.052-1.667,4.217,0,8.434.006,12.65-.013.583,0,1.234.22,1.729-.319l-.038-.035a9.011,9.011,0,0,0,0-5.642c-4.245-.011-8.491-.058-12.736-.01-1.07.012-1.49-.241-1.393-1.369.118-1.381-.435-3.182.251-4.055.736-.936,2.612-.268,3.987-.293,3.295-.061,6.591-.039,9.887-.05a9.014,9.014,0,0,0,.012-5.649" transform="translate(-282 -197.878)" fill="#fcb48c"/>
    <path id="Trazado_736291" data-name="Trazado 736291" d="M17.062,300.882l-.05-.388a2,2,0,0,0,.007-.215c.47-1.68,1.7-2.152,3.294-2.146,5.31.021,10.62,0,15.929.009,2.729,0,3.582.861,3.575,3.553,0,.614-.025,1.228-.037,1.842-4.111.017-8.222.022-12.333.062-.577.006-1.233-.256-1.722.307l.006,0a9.207,9.207,0,0,0,.042,5.65l.141.026.135-.05c4,.02,8.007.133,12.005.015,1.605-.047,1.992.492,1.838,1.938-.124,1.155-.077,2.327-.106,3.492-3.71,0-7.42-.021-11.13.014-.863.008-1.771-.269-2.593.241a2.88,2.88,0,0,1-.307.1,9.032,9.032,0,0,0,.01,5.648c4.246.012,8.492.06,12.737.011,1.076-.012,1.486.251,1.39,1.374-.118,1.381.434,3.184-.253,4.054-.736.932-2.613.265-3.989.29-3.3.06-6.592.038-9.888.05a9.024,9.024,0,0,0-.006,5.641l-.037.035c.495.539,1.145.316,1.729.319,4.1.02,8.21.012,12.315.013.019.778.055,1.556.052,2.334a2.9,2.9,0,0,1-2.93,3.03c-5.621.038-11.244.052-16.864-.014a3.025,3.025,0,0,1-2.959-2.007c.408-.419.26-.948.26-1.435q.011-16.175,0-32.35c0-.49.131-1.016-.26-1.44" transform="translate(-11.289 -197.833)" fill="#fcb48c"/>
    <path id="Trazado_736292" data-name="Trazado 736292" d="M252.13,362.442c.172,1.366-.383,1.883-1.774,1.682a11.724,11.724,0,0,0-2.676-.009c-1.551.137-1.533-.6-1.02-1.674.016-.725.045-1.45.045-2.175q0-30.974,0-61.948l5.359.012q.008,19.836.017,39.673.011,12.219.045,24.438" transform="translate(-163.47 -197.956)" fill="#25b5ab"/>
    <path id="Trazado_736293" data-name="Trazado 736293" d="M263.411,362.465q-.023-12.219-.045-24.438-.017-19.837-.017-39.673c.588.406.336,1.021.336,1.539q.021,30.492,0,60.984c0,.535.195,1.127-.277,1.589" transform="translate(-174.751 -197.979)" fill="#751d1b"/>
    <path id="Trazado_736294" data-name="Trazado 736294" d="M246.665,298.318q0,30.974,0,61.948c0,.725-.029,1.45-.045,2.175-.5-.521-.274-1.169-.275-1.757q-.019-30.324,0-60.647c0-.575-.272-1.239.32-1.719" transform="translate(-163.427 -197.956)" fill="#751d1b"/>
    <path id="Trazado_736295" data-name="Trazado 736295" d="M492.89,339.866l0-35.622c.547.427.313,1.033.314,1.555q.023,16.263,0,32.526c0,.513.278,1.127-.307,1.54" transform="translate(-327.066 -201.888)" fill="#faa575"/>
    <path id="Trazado_736296" data-name="Trazado 736296" d="M101.818,303.248c.446.529.3,1.169.3,1.766q.014,16.135,0,32.27c0,.533.194,1.125-.279,1.584q-.009-17.81-.018-35.621" transform="translate(-67.564 -201.227)" fill="#751d1b"/>
    <path id="Trazado_736297" data-name="Trazado 736297" d="M17.1,306.3c.392.424.26.95.26,1.44q.009,16.175,0,32.35c0,.487.148,1.016-.26,1.435q-.016-17.53-.031-35.06a.86.86,0,0,1,.032-.165" transform="translate(-11.326 -203.255)" fill="#faa575"/>
    <path id="Trazado_736298" data-name="Trazado 736298" d="M334.147,246.7c.458-.463,1.054-.3,1.586-.3q10.391-.033,20.78-.018a5.186,5.186,0,0,1,.818.129,3.289,3.289,0,0,1-.787.2q-11.2.007-22.4-.009" transform="translate(-221.731 -163.486)" fill="#003a54"/>
    <path id="Trazado_736299" data-name="Trazado 736299" d="M107.79,246.5c4.065-.292,8.136-.069,12.2-.12,2.9-.037,5.8-.024,8.7.008.642.007,1.345-.2,1.922.3q-11.023.011-22.046.014a3.279,3.279,0,0,1-.785-.2" transform="translate(-71.527 -163.469)" fill="#003a54"/>
    <path id="Trazado_736300" data-name="Trazado 736300" d="M425.124,314.2c4.223.017,8.446.022,12.669.062.577.005,1.232-.256,1.722.306-4.307,0-8.614.021-12.921-.007-.488,0-1.131.351-1.469-.361" transform="translate(-282.101 -208.493)" fill="#9e694d"/>
    <path id="Trazado_736301" data-name="Trazado 736301" d="M439.553,399.916c-.495.539-1.146.316-1.729.319-4.216.02-8.434.012-12.65.013.358-.691.988-.314,1.47-.317,4.3-.033,8.606-.017,12.909-.015" transform="translate(-282.133 -265.317)" fill="#faa575"/>
    <path id="Trazado_736302" data-name="Trazado 736302" d="M42.911,314.566c.489-.563,1.145-.3,1.721-.307,4.111-.04,8.222-.045,12.333-.062-.338.712-.981.358-1.469.361-4.195.028-8.39.011-12.585.007" transform="translate(-28.475 -208.493)" fill="#9e694d"/>
    <path id="Trazado_736303" data-name="Trazado 736303" d="M56.937,400.248c-4.105,0-8.21.007-12.315-.013-.583,0-1.234.22-1.729-.319,4.191,0,8.382-.018,12.573.015.482,0,1.113-.374,1.47.317" transform="translate(-28.463 -265.318)" fill="#faa575"/>
    <path id="Trazado_736304" data-name="Trazado 736304" d="M43.913,348.334c.822-.51,1.73-.232,2.593-.241,3.71-.035,7.42-.014,11.13-.014-.086.379-.395.32-.657.319q-6.533-.028-13.065-.064" transform="translate(-29.139 -230.94)" fill="#faa575"/>
    <path id="Trazado_736305" data-name="Trazado 736305" d="M426.109,348.122c3.986,0,7.971-.009,11.957.008.59,0,1.225-.19,1.761.247q-6.531.033-13.061.064c-.262,0-.571.061-.656-.319" transform="translate(-282.755 -230.983)" fill="#faa575"/>
    <path id="Trazado_736306" data-name="Trazado 736306" d="M242.336,280.417l8.758-.1c-.312.6-.884.386-1.336.361-2.473-.132-4.968.362-7.422-.263" transform="translate(-160.808 -186.012)" fill="#003a54"/>
    <path id="Trazado_736307" data-name="Trazado 736307" d="M42.136,320.928a9.206,9.206,0,0,1-.042-5.649l.07,5.375a.651.651,0,0,0-.027.274" transform="translate(-27.651 -209.211)" fill="#9e694d"/>
    <path id="Trazado_736308" data-name="Trazado 736308" d="M42.128,354.895a9.034,9.034,0,0,1-.01-5.648q.005,2.824.01,5.648" transform="translate(-27.651 -231.751)" fill="#9e694d"/>
    <path id="Trazado_736309" data-name="Trazado 736309" d="M467.787,349.248a9.015,9.015,0,0,1-.012,5.649q.006-2.824.012-5.649" transform="translate(-310.403 -231.752)" fill="#9e694d"/>
    <path id="Trazado_736310" data-name="Trazado 736310" d="M42.118,388.852a9.024,9.024,0,0,1,.006-5.641q0,2.82-.006,5.641" transform="translate(-27.651 -254.289)" fill="#9e694d"/>
    <path id="Trazado_736311" data-name="Trazado 736311" d="M467.789,383.212a9.008,9.008,0,0,1,0,5.642q0-2.821,0-5.642" transform="translate(-310.412 -254.289)" fill="#9e694d"/>
    <path id="Trazado_736312" data-name="Trazado 736312" d="M467.745,315.279a9.188,9.188,0,0,1-.043,5.65.648.648,0,0,0-.027-.275l.07-5.375" transform="translate(-310.337 -209.211)" fill="#9e694d"/>
    <path id="Trazado_736313" data-name="Trazado 736313" d="M284.509,264.7c.015-.444.408-.229.609-.349a.606.606,0,0,1-.609.349" transform="translate(-188.793 -175.414)" fill="#080908"/>
    <path id="Trazado_736314" data-name="Trazado 736314" d="M408.388,303.966a.531.531,0,0,1,.105-.75q-.053.375-.105.75" transform="translate(-270.921 -201.206)" fill="#751d1b"/>
    <path id="Trazado_736315" data-name="Trazado 736315" d="M16.5,304.511a2,2,0,0,1-.006.215l-.263-.123.269-.092" transform="translate(-10.77 -202.065)" fill="#faa575"/>
    <path id="Trazado_736316" data-name="Trazado 736316" d="M43.046,331.531a.651.651,0,0,1,.027-.274l.248.251-.135.05Z" transform="translate(-28.561 -219.813)" fill="#080908"/>
    <path id="Trazado_736317" data-name="Trazado 736317" d="M277.237,270.772c.057-.181.143-.321.369-.273l-.369.273" transform="translate(-183.967 -179.49)" fill="#080908"/>
    <path id="Trazado_736318" data-name="Trazado 736318" d="M170.918,263.794l-.377-.016c.133-.155.258-.145.377.016" transform="translate(-113.166 -174.962)" fill="#511514"/>
    <path id="Trazado_736319" data-name="Trazado 736319" d="M77.207,263.808l-.333.16c.022-.24.109-.342.333-.16" transform="translate(-51.012 -174.994)" fill="#511514"/>
    <path id="Trazado_736320" data-name="Trazado 736320" d="M408.18,409.3l.113-.422c.183.2.081.324-.113.422" transform="translate(-270.857 -271.322)" fill="#751d1b"/>
    <path id="Trazado_736321" data-name="Trazado 736321" d="M467.181,331.257a.654.654,0,0,1,.027.275l-.142.026-.135-.05.25-.251" transform="translate(-309.843 -219.813)" fill="#080908"/>
    <path id="Trazado_736322" data-name="Trazado 736322" d="M204.436,169.86c-9.318-1.526-15.656-6.907-19.777-15.247,1.256-.023,2.271.656,3.379.854a14.6,14.6,0,0,0,9.681-1.141,14,14,0,0,0,7.368-9.363c.106-.419.254-.556.635-.549a5.468,5.468,0,0,0,.837-.006c3.111-.428,5.288.025,6.418,3.735,1,3.275,3.974,5.362,7.21,6.728a41.7,41.7,0,0,1-5.36,7.224,45.039,45.039,0,0,1-10.392,7.764" transform="translate(-122.535 -95.738)" fill="#fcb48c"/>
    <path id="Trazado_736323" data-name="Trazado 736323" d="M226.609,25.444a24.192,24.192,0,0,1,6.136,10.19,23.357,23.357,0,0,1-6.168-3.68,27.142,27.142,0,0,1-4.452-4.508c-1.28-1.467-2.68-1.894-4.422-1.04-8.129,3.989-16.793,5.974-25.711,7.153-2.3.3-4.626.419-6.912.859-.895.173-1.062-.256-.7-1.061,3.854-8.66,10.452-13.913,19.752-15.57,2.384-.425,4.906-.072,7.365-.077l.343.279a22.712,22.712,0,0,1,10.158,3.562,39.476,39.476,0,0,1,3.929,3.211.616.616,0,0,0,.686.683" transform="translate(-122.23 -11.664)" fill="#727997"/>
    <path id="Trazado_736324" data-name="Trazado 736324" d="M220.487,72.829c-6.174.78-10.479,3.986-12.575,9.9-.414,1.167-.846,1.723-2.151,1.6-1.384-.13-2.938.34-4.145-.139s-1.057-2.271-1.631-3.438c-3.639-7.39-13.337-10.059-19.942-5.94-1.006.627-1.666.7-1.507-.806a1.536,1.536,0,0,0,0-.167c-.032-3.8-.021-3.667,3.762-4A104.747,104.747,0,0,0,201,66.706a111.049,111.049,0,0,0,12.69-4.192,1.59,1.59,0,0,1,2.147.461,31.372,31.372,0,0,0,4.644,4.272q0,2.792,0,5.583" transform="translate(-118.455 -41.334)" fill="#fcb48c"/>
    <path id="Trazado_736325" data-name="Trazado 736325" d="M288.477,127.885a8.122,8.122,0,0,1-6.035-2.8c-1.311-1.392-2.516-3.189-2.572-4.768a9.3,9.3,0,0,1,8.973-9.567c3.24-.146,8.582,3.957,8.629,6.629.112,6.38-3.418,10.5-8.994,10.5" transform="translate(-185.71 -73.491)" fill="#efdbc9"/>
    <path id="Trazado_736326" data-name="Trazado 736326" d="M193.6,114.856c2,1.865,2.314,5.527.754,8.556a8.6,8.6,0,0,1-13.37,2.489c-2.365-2.178-3.7-5.163-2.708-8.391,1.1-3.59,3.631-6.254,7.539-6.49,3-.181,5.959.7,7.779,3.567l-.235.234.243.035" transform="translate(-118.081 -73.654)" fill="#efdbc9"/>
    <path id="Trazado_736327" data-name="Trazado 736327" d="M243.443,189.881a45.041,45.041,0,0,0,10.392-7.764,41.7,41.7,0,0,0,5.36-7.224c3.911,1.76,7.745.727,11.8-.445a19.16,19.16,0,0,1-3.305,5.865c-4.576,5.85-10.773,8.873-17.975,9.9a14.2,14.2,0,0,1-6.269-.328" transform="translate(-161.542 -115.758)" fill="#faa575"/>
    <path id="Trazado_736328" data-name="Trazado 736328" d="M303.272,82.606q0-2.791,0-5.583a41.06,41.06,0,0,0,8.647,4.55c.607.217.785.432.766,1-.027.834-.007,1.67-.007,2.705-2.971-1.678-6-2.879-9.4-2.677" transform="translate(-201.241 -51.11)" fill="#faa575"/>
    <path id="Trazado_736329" data-name="Trazado 736329" d="M308.9,39.614a.616.616,0,0,1-.686-.683.606.606,0,0,1,.686.683" transform="translate(-204.525 -25.834)" fill="#080908"/>
    <path id="Trazado_736330" data-name="Trazado 736330" d="M326.92,205.429l-.666.081c.037-.242.02-.564.367-.532.113.01.2.293.3.451" transform="translate(-216.493 -136.017)" fill="#080908"/>
    <path id="Trazado_736331" data-name="Trazado 736331" d="M224,121.937l-.243-.035.235-.234q.008.134.007.269" transform="translate(-148.48 -80.736)" fill="#080908"/>
    <path id="Trazado_736332" data-name="Trazado 736332" d="M324.619,207.546c-.049.184-.131.323-.358.266l.358-.266" transform="translate(-215.171 -137.722)" fill="#080908"/>
    <path id="Trazado_736333" data-name="Trazado 736333" d="M265.668,18.252l-.343-.279.343.279" transform="translate(-176.063 -11.926)" fill="#080908"/>
  </g>
</svg>
