<svg id="Grupo_1019338" data-name="Grupo 1019338" xmlns="http://www.w3.org/2000/svg" xmlns:xlink="http://www.w3.org/1999/xlink" width="154.727" height="154.701" viewBox="0 0 154.727 154.701">
  <defs>
    <clipPath id="clip-path">
      <rect id="Rectángulo_352940" data-name="Rectángulo 352940" width="154.727" height="154.701" fill="none"/>
    </clipPath>
  </defs>
  <g id="Grupo_1019337" data-name="Grupo 1019337" clip-path="url(#clip-path)">
    <path id="Trazado_736234" data-name="Trazado 736234" d="M137.759,154.7H14.5c-.094-.1-.174-.262-.282-.283a17.017,17.017,0,0,1-11.412-7.611A29.846,29.846,0,0,1,0,140.2v-9.668a3.8,3.8,0,0,1,3.828-1.819c.447.044.908-.042,1.351.016,1.1.145,1.533-.155,1.5-1.407-.1-3.906-.076-7.817-.009-11.725.018-1.076-.177-1.519-1.361-1.4A5.768,5.768,0,0,1,0,112.4V43.522c1.112-1.566,2.66-1.852,4.5-1.844,13.279.059,26.558.041,39.837.025a13.326,13.326,0,0,1,9.135,3.073c.031.193.056.424.3.424s.272-.23.3-.424a13.671,13.671,0,0,1,3.4-2.217c3.944-1.451,7.994-.751,11.99-.776a2.94,2.94,0,0,1,3.011,3.137,3.37,3.37,0,0,1-3.7,2.866,52.892,52.892,0,0,0-6.339-.017c-3.513.16-5.719,1.653-5.689,5.729.1,13.944.039,27.888.039,41.833v1.857a18.157,18.157,0,0,1,6.947-1.122c8.053.061,16.108.023,24.162.023a8.428,8.428,0,0,0,.905-.009c.177-.019.572.163.434-.286-.049-.159-.282-.261-.43-.389l-.244-.22A23.328,23.328,0,0,1,83.013,89.5c-2.784-3.95-4.894-8.192-5.356-13.1-.06-.634-.383-.8-.976-.875-3.183-.375-6.049-1.319-8.1-4.065a9.917,9.917,0,0,1,.329-12.727c2.137-2.547,5-3.31,8.133-3.514.2.059.282-.012.24-.219q.032-8.208.064-16.415c.008-2.63-.053-2.508-2.364-3.539-5.334-2.379-10.6-4.9-15.774-7.624l-.312-.217q-2.015-2.1.169-4.936c.087.023.063.3.243.1l-.206-.145c.359-.956,1.293-.369,1.943-.719,4.555-2.458,9.385-4.353,13.944-6.828,2.73-1.482,5.666-2.573,8.429-4.039,2.723-1.445,5.591-2.617,8.348-4.02,4.3-2.188,8.683-4.212,13.03-6.309a3.232,3.232,0,0,1,2.983.1c3.184,1.564,6.376,3.114,9.561,4.677,4.327,2.125,8.653,4.261,13,6.341,4.5,2.152,8.94,4.441,13.535,6.387,2.561,1.084,4.823,2.777,7.48,3.632,2.617.842,3.455,2.6,3.37,5.274-.155,4.876-.084,9.761,0,14.64.014.832-.46,1.5-.4,2.283a2.785,2.785,0,0,1-3.87,2.718c-.85-.41-1.721-1.1-1.743-2.039-.1-4.466-.056-8.935-.078-13.4,0-.317.161-.693-.167-.958-4.3,1.634-8.2,4.082-12.444,5.783a1.019,1.019,0,0,0-.7,1.119c.061,2.715.055,5.431.073,8.147-.018,3.118-.017,6.237-.07,9.354-.013.724.215.9.927.941a10.715,10.715,0,0,1,8.748,5.169c1.312,3.608,1.576,7.151-.656,10.539a.931.931,0,0,0-.528.925c-.474.4-.929.828-1.426,1.2a7.89,7.89,0,0,1-3.7,1.8l-.615.219a4.161,4.161,0,0,1-1.557.342c-1.329-.26-1.634.692-1.723,1.523a22.559,22.559,0,0,1-1.286,4.946,27.014,27.014,0,0,1-6.54,10.542,29.142,29.142,0,0,1-6.981,5.228,29.513,29.513,0,0,1-11.408,3.435c-.911.074-1.053.336-1.041,1.132.041,2.668.008,5.336.018,8a3.469,3.469,0,0,1-2,3.365,4.35,4.35,0,0,1-2.193.218q-44.553.021-89.106-.025c-1.378,0-1.628.38-1.6,1.652q.129,5.888,0,11.779c-.03,1.253.4,1.431,1.508,1.43q63.205-.04,126.41.008c1.227,0,1.445-.363,1.442-1.494-.038-14.1,0-28.193-.053-42.29-.007-1.888.6-3.1,2.452-3.6.094.131.19.134.288.005l.314-.127c2.733.579,3.041,2.578,3.035,4.916-.037,13.286-.018,26.573-.018,39.86,0,2.67,0,2.621,2.738,2.716,2.845.1,3.807,1.057,3.885,3.846a37.6,37.6,0,0,1-.229,7.318c-.11.474-.213.949-.331,1.421a17.283,17.283,0,0,1-8.488,11.145,28.343,28.343,0,0,1-6.034,2.238h-.6a.735.735,0,0,0-1.208,0M120.531,90.128c.646-.618,1.306-1.222,1.937-1.855,4.166-4.178,6.666-9.081,6.542-15.117.4-.231.278-.59.227-.931V60.14c.038-.239.176-.523-.249-.554-.726.288-1.462.553-2.175.869q-9.372,4.156-18.737,8.329a4.264,4.264,0,0,1-3.582.091c-4.631-2.045-9.24-4.142-13.885-6.155a59.05,59.05,0,0,0-6.921-2.913c-.061-.055-.16-.166-.177-.154-.192.13-.123.312-.072.487q0,6.04,0,12.08l.008.306q.014.3.028.6l-.033.3a8.164,8.164,0,0,0,.5,3.985A30.527,30.527,0,0,0,86.982,84.6a22.531,22.531,0,0,0,10.072,8.723,23.135,23.135,0,0,0,21.925-2.059l.344-.23.868-.676.341-.228m-8.692-64.743a.834.834,0,0,0,.021-1.18c.34-1.355,1.425-1.818,2.6-2.17q11.366.018,22.732.032c.289,0,.693.044.843-.118.241-.261-.064-.4-.323-.455-5.457-2.6-10.921-5.185-16.368-7.806-4.574-2.2-9.13-4.438-13.688-6.671a3.169,3.169,0,0,0-2.987.013c-3.284,1.647-6.561,3.308-9.864,4.916C88.821,14.861,82.8,17.7,76.832,20.656c-2.922,1.446-6,2.591-8.8,4.318a3.341,3.341,0,0,0,1.287.732A46.334,46.334,0,0,1,74.382,28.1c2.795,1.69,5.826,2.929,8.723,4.373,3.479,1.733,7.027,3.41,10.589,5.015,3.169,1.428,6.246,3.059,9.4,4.515,1.637.756,3.161,1.82,5.213.477a36.484,36.484,0,0,1,4.205-2.162c3.47-1.662,7.016-3.155,10.434-4.936,2.124-1.107,4.48-1.835,6.535-2.98,2.613-1.455,5.335-2.627,8-3.947.146-.124.433-.277.415-.369-.106-.532-.561-.26-.842-.26q-11.276-.009-22.553.022a2.825,2.825,0,0,1-2.662-2.464M6.042,71.924c0,7.552.034,15.1-.033,22.655-.011,1.26.3,1.549,1.549,1.543,12.384-.053,24.769-.027,37.153-.039a12.539,12.539,0,0,1,4.631.746c1.43.572,1.425.062,1.424-1.042-.017-14.1,0-28.194-.028-42.29a6.324,6.324,0,0,0-.8-3.385c-1.177-1.915-3.067-2.343-5.08-2.347-12.485-.027-24.97,0-37.455-.043-1.136,0-1.4.273-1.387,1.4.055,7.6.029,15.2.029,22.806m71.394,62.838H48.588q-20.616,0-41.232-.024c-1.021,0-1.4.188-1.342,1.291a18.908,18.908,0,0,0,.593,4.692c1.328,4.282,5.555,7.888,10.013,7.9q60.338.1,120.677.028a10.688,10.688,0,0,0,4.387-1.04c4.838-2.177,6.7-6.188,6.976-11.231.07-1.287-.229-1.652-1.6-1.648q-34.814.077-69.627.037M83.38,46.219c0,1.861.112,3.732-.048,5.579a1.283,1.283,0,0,0,.928,1.527c6.944,3.03,13.9,6.038,20.813,9.131a2.977,2.977,0,0,0,2.806-.163c2-.966,4.041-1.845,6.073-2.744,4.8-2.123,9.591-4.255,14.409-6.333a1.4,1.4,0,0,0,.954-1.569c-.042-3.722-.015-7.444-.022-11.166,0-.634.185-1.42-.543-1.735s-.808.533-1.166.885a2.338,2.338,0,0,1-.5.289c-3.956,2.248-8.186,3.941-12.228,6.017q-3.219,1.653-6.5,3.186c-1,.464-1.948,1.074-3.215.447q-8.592-4.253-17.265-8.342a26.324,26.324,0,0,0-3.594-1.7c-.823-.248-.917-.08-.907.653.028,2.012.01,4.024.006,6.036M78.99,107.873c5.987,0,11.975.02,17.961-.014,1.487-.008,3.529.662,4.311-.295.748-.915.214-2.876.244-4.378a1.137,1.137,0,0,1,0-.151c.113-.75-.251-.915-.945-.914-12.88.017-25.76-.01-38.64.03a4.943,4.943,0,0,0-5.129,4.215c-.113,1.05.054,1.558,1.367,1.543,6.942-.079,13.886-.037,20.829-.037m-50.6,0H49.215c.352,0,.7-.011,1.056-.005.39.006.587-.206.475-.555-.31-.973-.236-2.035-.859-2.944-1.233-1.8-3.065-2.219-5.029-2.224q-17.276-.04-34.551,0c-1.387,0-3.286-.627-4.023.276-.7.856-.137,2.688-.265,4.078-.105,1.146.279,1.41,1.4,1.4,6.99-.055,13.981-.028,20.972-.028M77.346,65.368q0-1.2,0-2.408c0-1.74-.6-2.118-2.229-1.371a4.972,4.972,0,0,0-1.137.668,4.064,4.064,0,0,0-1.427,4.105,3.966,3.966,0,0,0,2.754,2.785c1.549.535,2.037.079,2.039-1.521q0-1.129,0-2.258m57.988-.082q0,1.281,0,2.561c0,1.83,0,1.83,1.735,1.345,1.31-.366,3.143-2.393,3.079-3.4-.147-2.318-1.552-4.123-3.485-4.425-.785-.123-1.506-.167-1.352,1.063a23.207,23.207,0,0,1,.023,2.86" transform="translate(0 0)" fill="#12263f"/>
    <path id="Trazado_736235" data-name="Trazado 736235" d="M454.938,510.159a.735.735,0,0,1,1.208,0Z" transform="translate(-317.179 -355.458)" fill="#070807"/>
    <path id="Trazado_736236" data-name="Trazado 736236" d="M173.2,237.444c1.007.1.937.849.936,1.56q0,3.89,0,7.781l-.314.128a.371.371,0,0,0-.287-.006c-1.849.5-2.459,1.715-2.452,3.6.052,14.1.015,28.193.053,42.29,0,1.13-.215,1.495-1.442,1.493q-63.205-.055-126.41-.008c-1.109,0-1.538-.177-1.508-1.43q.142-5.887,0-11.779c-.028-1.273.222-1.655,1.6-1.652q44.553.073,89.106.025a4.349,4.349,0,0,0,2.193-.218,3.469,3.469,0,0,0,2-3.365c-.011-2.668.022-5.337-.019-8-.012-.8.13-1.059,1.041-1.133a29.5,29.5,0,0,0,11.408-3.434,29.145,29.145,0,0,0,6.981-5.228,27.014,27.014,0,0,0,6.54-10.542,22.614,22.614,0,0,0,1.286-4.946c.089-.832.394-1.784,1.723-1.523a4.162,4.162,0,0,0,1.557-.342c.249.052.493.088.615-.22a7.888,7.888,0,0,0,3.7-1.8c.5-.371.952-.8,1.426-1.2a2.513,2.513,0,0,1,.263-.048" transform="translate(-29.131 -165.544)" fill="#b5e4f4"/>
    <path id="Trazado_736237" data-name="Trazado 736237" d="M19.876,181.8c0-7.6.026-15.2-.029-22.806-.008-1.122.252-1.4,1.387-1.4,12.485.046,24.97.016,37.455.042,2.012,0,3.9.432,5.079,2.347a6.321,6.321,0,0,1,.8,3.385c.026,14.1.011,28.193.028,42.29,0,1.1.007,1.614-1.424,1.042a12.536,12.536,0,0,0-4.63-.746c-12.384.012-24.769-.014-37.153.039-1.252.005-1.56-.283-1.549-1.543.067-7.551.033-15.1.033-22.655M40.721,192.12a3.27,3.27,0,0,0,.44-.1c1.672-.63,2.623-1.754,2.573-3.033a2.824,2.824,0,0,0-2.751-2.776,39.4,39.4,0,0,0-10.584.082c-2.166.371-2.564,1.248-2.327,3.353a3.082,3.082,0,0,0,2.982,2.476c.093.534.492.555.913.555q3.921,0,7.841,0c.422,0,.82-.021.913-.555m.538-14.552c3.523,0,7.046.017,10.569-.008a2.969,2.969,0,0,0,3.1-2.379c.222-2.014-.285-2.747-2.208-3.384-1.768-.586-3.572-.228-5.353-.249-5.284-.063-10.569-.046-15.853-.011-2.136.014-3.565,1.171-3.487,3.075.078,1.873,1.249,2.946,3.418,2.953,3.271.01,6.542,0,9.814,0m10.8,8.762a2.886,2.886,0,0,0-3.173,2.734,3.462,3.462,0,0,0,3.081,3A2.748,2.748,0,0,0,54.92,189c-.008-1.82-.919-2.671-2.856-2.67" transform="translate(-13.834 -109.877)" fill="#fff"/>
    <path id="Trazado_736238" data-name="Trazado 736238" d="M91.266,444.954q34.814,0,69.627-.037c1.368,0,1.667.362,1.6,1.648-.275,5.043-2.139,9.055-6.977,11.231a10.686,10.686,0,0,1-4.387,1.04q-60.338.015-120.677-.028c-4.458-.008-8.684-3.614-10.013-7.9a18.908,18.908,0,0,1-.593-4.692c-.062-1.1.321-1.294,1.342-1.291q20.616.053,41.232.024Zm-.342,9.97c2.164,0,4.329.01,6.494,0,2.044-.012,3.358-1.135,3.425-2.9a2.959,2.959,0,0,0-3.031-3.112c-4.528-.092-9.061-.082-13.59,0-1.826.033-2.811,1.384-2.721,3.327a2.823,2.823,0,0,0,3.08,2.68c2.114.007,4.228,0,6.343,0" transform="translate(-13.831 -310.192)" fill="#ced0df"/>
    <path id="Trazado_736239" data-name="Trazado 736239" d="M271.1,37.345c-1.177.352-2.261.815-2.6,2.17q-.011.59-.021,1.18a2.825,2.825,0,0,0,2.662,2.464c.524.449,1.154.255,1.736.256,6.523.014,13.046,0,19.569.023.56,0,1.217-.277,1.675.328-2.662,1.32-5.384,2.492-8,3.947-2.055,1.144-4.411,1.872-6.535,2.98-3.418,1.781-6.964,3.275-10.434,4.936a36.482,36.482,0,0,0-4.205,2.162c-2.052,1.343-3.576.279-5.213-.477-3.157-1.456-6.234-3.087-9.4-4.515-3.562-1.605-7.11-3.282-10.589-5.015-2.9-1.443-5.928-2.682-8.723-4.373a46.305,46.305,0,0,0-5.062-2.394,3.343,3.343,0,0,1-1.287-.732c2.8-1.727,5.877-2.872,8.8-4.318,5.967-2.953,11.989-5.795,17.975-8.711,3.3-1.609,6.58-3.269,9.864-4.916a3.169,3.169,0,0,1,2.987-.013c4.558,2.233,9.114,4.47,13.688,6.671,5.447,2.621,10.911,5.205,16.368,7.806-.435.528-1.029.261-1.54.263-6.717.021-13.434.008-20.151.026-.52,0-1.107-.232-1.56.253m-8.265.035a2.739,2.739,0,0,0-2.874,2.864,2.829,2.829,0,0,0,3.071,2.9,3.123,3.123,0,0,0,2.954-2.934,2.853,2.853,0,0,0-3.152-2.831" transform="translate(-156.64 -15.31)" fill="#92a5e3"/>
    <path id="Trazado_736240" data-name="Trazado 736240" d="M275.371,209.413v-12.08l.25-.332a59.094,59.094,0,0,1,6.921,2.913c4.645,2.012,9.253,4.11,13.884,6.155a4.264,4.264,0,0,0,3.582-.091q9.368-4.166,18.737-8.329c.713-.316,1.45-.581,2.175-.869l.249.554v12.085c-.293.257-.246.6-.227.931.124,6.036-2.377,10.939-6.542,15.117-.631.633-1.291,1.237-1.937,1.855-.219-.081-.278.076-.341.228l-.867.676c-.22-.081-.28.078-.344.23a23.135,23.135,0,0,1-21.925,2.059,22.53,22.53,0,0,1-10.072-8.723,30.515,30.515,0,0,1-3.041-7.183,8.164,8.164,0,0,1-.5-3.985c.037-.026.108-.058.1-.079a1.211,1.211,0,0,0-.072-.223q-.014-.3-.028-.6c.033-.031.1-.07.092-.09a1.314,1.314,0,0,0-.1-.216" transform="translate(-191.929 -137.193)" fill="#fbb996"/>
    <path id="Trazado_736241" data-name="Trazado 736241" d="M275.224,135.271c0-2.012.018-4.024-.01-6.036-.01-.733.084-.9.907-.653a26.343,26.343,0,0,1,3.594,1.7q8.671,4.089,17.265,8.342c1.267.627,2.217.017,3.215-.447,2.188-1.016,4.353-2.084,6.5-3.186,4.042-2.076,8.271-3.769,12.228-6.017a2.336,2.336,0,0,0,.5-.289c.358-.352.434-1.2,1.165-.885s.542,1.1.543,1.735c.007,3.722-.02,7.444.022,11.166a1.4,1.4,0,0,1-.954,1.569c-4.817,2.078-9.611,4.21-14.409,6.333-2.031.9-4.073,1.778-6.072,2.744a2.978,2.978,0,0,1-2.806.163c-6.916-3.093-13.87-6.1-20.813-9.131a1.283,1.283,0,0,1-.929-1.527c.16-1.847.048-3.718.051-5.579" transform="translate(-191.84 -89.051)" fill="#6f88da"/>
    <path id="Trazado_736242" data-name="Trazado 736242" d="M209.684,343c-6.943,0-13.887-.042-20.829.037-1.313.015-1.481-.494-1.367-1.543a4.943,4.943,0,0,1,5.129-4.215c12.88-.04,25.76-.013,38.64-.03.694,0,1.058.164.945.914a1.191,1.191,0,0,0,0,.151c-.03,1.5.5,3.463-.244,4.378-.782.957-2.824.286-4.311.295-5.987.034-11.974.014-17.961.014" transform="translate(-130.694 -235.128)" fill="#ffca28"/>
    <path id="Trazado_736243" data-name="Trazado 736243" d="M42.038,342.571c-6.991,0-13.982-.028-20.972.028-1.122.009-1.507-.256-1.4-1.4.127-1.39-.434-3.222.264-4.078.738-.9,2.636-.273,4.023-.276q17.276-.035,34.551,0c1.963,0,3.8.424,5.029,2.224.622.908.549,1.971.859,2.944.111.349-.085.561-.475.555-.352-.006-.7.005-1.056.005H42.038" transform="translate(-13.645 -234.697)" fill="#ffca28"/>
    <path id="Trazado_736244" data-name="Trazado 736244" d="M446.946,148.671c3.732.161,7.945,3.781,9.044,7.553.764,2.623.518,5.266.561,7.912a10.714,10.714,0,0,0-8.748-5.169c-.712-.039-.94-.217-.927-.941.054-3.117.052-6.236.071-9.354" transform="translate(-311.558 -103.652)" fill="#b5e4f4"/>
    <path id="Trazado_736245" data-name="Trazado 736245" d="M244.159,206.336q0,1.129,0,2.258c0,1.6-.49,2.056-2.039,1.521a3.966,3.966,0,0,1-2.754-2.785,4.064,4.064,0,0,1,1.427-4.105,4.973,4.973,0,0,1,1.137-.668c1.624-.747,2.228-.369,2.229,1.37q0,1.2,0,2.409" transform="translate(-166.812 -140.967)" fill="#fbb996"/>
    <path id="Trazado_736246" data-name="Trazado 736246" d="M446.828,206.436a23.207,23.207,0,0,0-.023-2.86c-.154-1.231.567-1.186,1.352-1.063,1.933.3,3.337,2.107,3.485,4.425.064,1.011-1.769,3.039-3.079,3.4-1.734.484-1.734.484-1.735-1.345q0-1.281,0-2.561" transform="translate(-311.494 -141.149)" fill="#fbb996"/>
    <path id="Trazado_736247" data-name="Trazado 736247" d="M378,71.523c.453-.485,1.04-.252,1.56-.253,6.717-.018,13.434,0,20.151-.026.511,0,1.1.266,1.54-.263.259.056.564.2.323.455-.15.162-.553.119-.843.119q-11.366-.01-22.732-.032" transform="translate(-263.54 -49.487)" fill="#1c3158"/>
    <path id="Trazado_736248" data-name="Trazado 736248" d="M401.112,92.367c-.458-.605-1.114-.326-1.674-.328-6.523-.021-13.046-.009-19.569-.023-.582,0-1.212.193-1.736-.256q11.276-.019,22.553-.022c.281,0,.736-.272.842.26.018.092-.269.245-.415.369" transform="translate(-263.631 -63.91)" fill="#2b4b8c"/>
    <path id="Trazado_736249" data-name="Trazado 736249" d="M475.182,235.424a2.512,2.512,0,0,0-.263.048.931.931,0,0,1,.528-.925c.177.372-.173.586-.265.877" transform="translate(-331.108 -163.524)" fill="#0a0a09"/>
    <path id="Trazado_736250" data-name="Trazado 736250" d="M176.586,147.87h.605c-.031.193-.056.424-.3.424s-.272-.231-.3-.424" transform="translate(-123.114 -103.094)" fill="#0a0a09"/>
    <path id="Trazado_736251" data-name="Trazado 736251" d="M369.34,81.116q.01-.59.021-1.18a.834.834,0,0,1-.021,1.18" transform="translate(-257.501 -55.731)" fill="#0a0a09"/>
    <path id="Trazado_736252" data-name="Trazado 736252" d="M426.014,239.449c-.019-.333-.066-.673.227-.931.051.341.173.7-.227.931" transform="translate(-297.003 -166.293)" fill="#e19e7d"/>
    <path id="Trazado_736253" data-name="Trazado 736253" d="M456.576,247.514c-.122.307-.365.271-.615.219Z" transform="translate(-317.892 -172.565)" fill="#0a0a09"/>
    <path id="Trazado_736254" data-name="Trazado 736254" d="M426.23,197.332l-.249-.554c.425.031.287.315.249.554" transform="translate(-296.99 -137.192)" fill="#e19e7d"/>
    <path id="Trazado_736255" data-name="Trazado 736255" d="M275.682,197.154l-.249.332c-.051-.175-.119-.357.072-.487.017-.011.116.1.177.154" transform="translate(-191.991 -137.346)" fill="#e19e7d"/>
    <path id="Trazado_736256" data-name="Trazado 736256" d="M275.6,241.505a1.194,1.194,0,0,1,.072.223c0,.021-.068.052-.1.079.011-.1.022-.2.033-.3" transform="translate(-192.124 -168.375)" fill="#e19e7d"/>
    <path id="Trazado_736257" data-name="Trazado 736257" d="M476.908,268.633a.371.371,0,0,1,.288.005c-.1.129-.194.125-.288-.005" transform="translate(-332.496 -187.27)" fill="#070807"/>
    <path id="Trazado_736258" data-name="Trazado 736258" d="M275.56,238.5a1.311,1.311,0,0,1,.1.216c.005.02-.059.059-.092.09q0-.154-.008-.306" transform="translate(-192.118 -166.281)" fill="#e19e7d"/>
    <path id="Trazado_736259" data-name="Trazado 736259" d="M396.919,297.818c.062-.152.122-.31.341-.229l-.341.229" transform="translate(-276.729 -207.461)" fill="#070807"/>
    <path id="Trazado_736260" data-name="Trazado 736260" d="M392.919,300.808c.064-.153.124-.311.344-.23Z" transform="translate(-273.94 -209.545)" fill="#070807"/>
    <path id="Trazado_736261" data-name="Trazado 736261" d="M292.714,314.568c-.22.081-.278-.018-.244-.22l.244.22" transform="translate(-203.901 -219.161)" fill="#070807"/>
    <path id="Trazado_736262" data-name="Trazado 736262" d="M254.425,181.877l.239-.219c.043.207-.039.277-.239.219" transform="translate(-177.383 -126.65)" fill="#fdfdfd"/>
    <path id="Trazado_736263" data-name="Trazado 736263" d="M194.809,90.085c-.22.094-.273-.052-.312-.217l.312.217" transform="translate(-135.602 -62.655)" fill="#0a0a09"/>
    <path id="Trazado_736264" data-name="Trazado 736264" d="M195.091,73.434l.206.145c-.181.2-.156-.082-.243-.1l.037-.041" transform="translate(-135.99 -51.198)" fill="#0a0a09"/>
    <path id="Trazado_736265" data-name="Trazado 736265" d="M493.717,178.643a2.919,2.919,0,0,1,3.178,2.93,3.578,3.578,0,0,1-3.146,3.116,3.149,3.149,0,0,1-2.887-3.221c-.012-2.105.707-2.817,2.854-2.824" transform="translate(-342.225 -124.548)" fill="#12263f"/>
    <path id="Trazado_736266" data-name="Trazado 736266" d="M60.1,209.481c-3.271,0-6.542.008-9.814,0-2.17-.007-3.341-1.079-3.418-2.953-.079-1.9,1.351-3.061,3.486-3.075,5.284-.035,10.569-.052,15.853.011,1.781.021,3.585-.336,5.353.249,1.923.637,2.429,1.37,2.208,3.384a2.97,2.97,0,0,1-3.1,2.379c-3.523.025-7.046.008-10.569.008" transform="translate(-32.672 -141.79)" fill="#12263f"/>
    <path id="Trazado_736267" data-name="Trazado 736267" d="M49.861,257.262a3.082,3.082,0,0,1-2.982-2.476c-.237-2.105.161-2.981,2.327-3.353a39.375,39.375,0,0,1,10.584-.082,2.824,2.824,0,0,1,2.751,2.776c.05,1.279-.9,2.4-2.573,3.033a3.27,3.27,0,0,1-.44.1Z" transform="translate(-32.641 -175.019)" fill="#12263f"/>
    <path id="Trazado_736268" data-name="Trazado 736268" d="M118.946,252.479c1.936,0,2.847.851,2.856,2.67a2.748,2.748,0,0,1-2.948,3.068,3.462,3.462,0,0,1-3.081-3,2.886,2.886,0,0,1,3.173-2.734" transform="translate(-80.715 -176.026)" fill="#12263f"/>
    <path id="Trazado_736269" data-name="Trazado 736269" d="M56.866,271.6h9.668c-.093.534-.491.555-.913.554q-3.921,0-7.841,0c-.422,0-.82-.021-.913-.554" transform="translate(-39.647 -189.358)" fill="#fdfdfd"/>
    <path id="Trazado_736270" data-name="Trazado 736270" d="M232.888,463.969c-2.114,0-4.228.005-6.343,0a2.823,2.823,0,0,1-3.08-2.68c-.09-1.943.9-3.294,2.721-3.327,4.529-.081,9.062-.091,13.59,0a2.958,2.958,0,0,1,3.031,3.112c-.067,1.761-1.381,2.884-3.425,2.9-2.164.013-4.329,0-6.494,0" transform="translate(-155.794 -319.241)" fill="#12263f"/>
    <path id="Trazado_736271" data-name="Trazado 736271" d="M344.09,72.887a2.853,2.853,0,0,1,3.152,2.831,3.124,3.124,0,0,1-2.954,2.934,2.829,2.829,0,0,1-3.071-2.9,2.739,2.739,0,0,1,2.874-2.864" transform="translate(-237.893 -50.816)" fill="#12263f"/>
  </g>
</svg>
