<svg id="Grupo_1019306" data-name="Grupo 1019306" xmlns="http://www.w3.org/2000/svg" xmlns:xlink="http://www.w3.org/1999/xlink" width="118.261" height="117.439" viewBox="0 0 118.261 117.439">
  <defs>
    <clipPath id="clip-path">
      <rect id="Rectángulo_352949" data-name="Rectángulo 352949" width="63.804" height="63.786" fill="#12263f"/>
    </clipPath>
  </defs>
  <g id="Grupo_156356" data-name="Grupo 156356" transform="translate(0 47.68)">
    <g id="Grupo_156332" data-name="Grupo 156332" transform="translate(0 0)">
      <path id="Trazado_99257" data-name="Trazado 99257" d="M418.612,104.881a2.2,2.2,0,1,1-2.2-2.1A2.153,2.153,0,0,1,418.612,104.881Z" transform="translate(-414.214 -102.779)" fill="#12263f"/>
      <path id="Trazado_116526" data-name="Trazado 116526" d="M418.612,104.881a2.2,2.2,0,1,1-2.2-2.1A2.153,2.153,0,0,1,418.612,104.881Z" transform="translate(-364.418 -102.779)" fill="#12263f"/>
      <path id="Trazado_99258" data-name="Trazado 99258" d="M427.058,104.881a2.2,2.2,0,1,1-2.2-2.1A2.152,2.152,0,0,1,427.058,104.881Z" transform="translate(-412.701 -102.779)" fill="#12263f"/>
      <path id="Trazado_116527" data-name="Trazado 116527" d="M427.058,104.881a2.2,2.2,0,1,1-2.2-2.1A2.152,2.152,0,0,1,427.058,104.881Z" transform="translate(-362.905 -102.779)" fill="#12263f"/>
      <path id="Trazado_99259" data-name="Trazado 99259" d="M435.5,104.881a2.2,2.2,0,1,1-2.2-2.1A2.152,2.152,0,0,1,435.5,104.881Z" transform="translate(-411.188 -102.779)" fill="#12263f"/>
      <path id="Trazado_116531" data-name="Trazado 116531" d="M435.5,104.881a2.2,2.2,0,1,1-2.2-2.1A2.152,2.152,0,0,1,435.5,104.881Z" transform="translate(-361.392 -102.779)" fill="#12263f"/>
      <path id="Trazado_99260" data-name="Trazado 99260" d="M443.951,104.881a2.2,2.2,0,1,1-2.2-2.1A2.152,2.152,0,0,1,443.951,104.881Z" transform="translate(-409.676 -102.779)" fill="#12263f"/>
      <path id="Trazado_116532" data-name="Trazado 116532" d="M443.951,104.881a2.2,2.2,0,1,1-2.2-2.1A2.152,2.152,0,0,1,443.951,104.881Z" transform="translate(-359.879 -102.779)" fill="#12263f"/>
      <path id="Trazado_99261" data-name="Trazado 99261" d="M452.4,104.881a2.2,2.2,0,1,1-2.2-2.1A2.152,2.152,0,0,1,452.4,104.881Z" transform="translate(-408.162 -102.779)" fill="#12263f"/>
    </g>
    <g id="Grupo_156331" data-name="Grupo 156331" transform="translate(0 10.924)">
      <ellipse id="Elipse_3975" data-name="Elipse 3975" cx="2.199" cy="2.103" rx="2.199" ry="2.103" transform="translate(0 0.001)" fill="#12263f"/>
      <ellipse id="Elipse_4742" data-name="Elipse 4742" cx="2.199" cy="2.103" rx="2.199" ry="2.103" transform="translate(49.796 0.001)" fill="#12263f"/>
      <path id="Trazado_99268" data-name="Trazado 99268" d="M427.058,112.389a2.2,2.2,0,1,1-2.2-2.1A2.153,2.153,0,0,1,427.058,112.389Z" transform="translate(-412.701 -110.287)" fill="#12263f"/>
      <path id="Trazado_116528" data-name="Trazado 116528" d="M427.058,112.389a2.2,2.2,0,1,1-2.2-2.1A2.153,2.153,0,0,1,427.058,112.389Z" transform="translate(-362.904 -110.287)" fill="#12263f"/>
      <ellipse id="Elipse_3976" data-name="Elipse 3976" cx="2.199" cy="2.103" rx="2.199" ry="2.103" transform="translate(19.918 0.001)" fill="#12263f"/>
      <ellipse id="Elipse_4743" data-name="Elipse 4743" cx="2.199" cy="2.103" rx="2.199" ry="2.103" transform="translate(69.715 0.001)" fill="#12263f"/>
      <path id="Trazado_99269" data-name="Trazado 99269" d="M443.951,112.389a2.2,2.2,0,1,1-2.2-2.1A2.154,2.154,0,0,1,443.951,112.389Z" transform="translate(-409.676 -110.287)" fill="#12263f"/>
      <path id="Trazado_116533" data-name="Trazado 116533" d="M443.951,112.389a2.2,2.2,0,1,1-2.2-2.1A2.154,2.154,0,0,1,443.951,112.389Z" transform="translate(-359.879 -110.287)" fill="#12263f"/>
      <path id="Trazado_99270" data-name="Trazado 99270" d="M452.4,112.389a2.2,2.2,0,1,1-2.2-2.1A2.153,2.153,0,0,1,452.4,112.389Z" transform="translate(-408.162 -110.287)" fill="#12263f"/>
    </g>
    <g id="Grupo_156330" data-name="Grupo 156330" transform="translate(0 21.85)">
      <path id="Trazado_99274" data-name="Trazado 99274" d="M418.612,119.9a2.2,2.2,0,1,1-2.2-2.1A2.154,2.154,0,0,1,418.612,119.9Z" transform="translate(-414.214 -117.794)" fill="#12263f"/>
      <path id="Trazado_116529" data-name="Trazado 116529" d="M418.612,119.9a2.2,2.2,0,1,1-2.2-2.1A2.154,2.154,0,0,1,418.612,119.9Z" transform="translate(-364.418 -117.794)" fill="#12263f"/>
      <path id="Trazado_99275" data-name="Trazado 99275" d="M427.058,119.9a2.2,2.2,0,1,1-2.2-2.1A2.153,2.153,0,0,1,427.058,119.9Z" transform="translate(-412.701 -117.794)" fill="#12263f"/>
      <path id="Trazado_116530" data-name="Trazado 116530" d="M427.058,119.9a2.2,2.2,0,1,1-2.2-2.1A2.153,2.153,0,0,1,427.058,119.9Z" transform="translate(-362.905 -117.794)" fill="#12263f"/>
      <path id="Trazado_99276" data-name="Trazado 99276" d="M435.5,119.9a2.2,2.2,0,1,1-2.2-2.1A2.153,2.153,0,0,1,435.5,119.9Z" transform="translate(-411.188 -117.794)" fill="#12263f"/>
      <path id="Trazado_116534" data-name="Trazado 116534" d="M435.5,119.9a2.2,2.2,0,1,1-2.2-2.1A2.153,2.153,0,0,1,435.5,119.9Z" transform="translate(-361.392 -117.794)" fill="#12263f"/>
      <path id="Trazado_99277" data-name="Trazado 99277" d="M443.951,119.9a2.2,2.2,0,1,1-2.2-2.1A2.154,2.154,0,0,1,443.951,119.9Z" transform="translate(-409.676 -117.794)" fill="#12263f"/>
      <path id="Trazado_116535" data-name="Trazado 116535" d="M443.951,119.9a2.2,2.2,0,1,1-2.2-2.1A2.154,2.154,0,0,1,443.951,119.9Z" transform="translate(-359.879 -117.794)" fill="#12263f"/>
      <path id="Trazado_99278" data-name="Trazado 99278" d="M452.4,119.9a2.2,2.2,0,1,1-2.2-2.1A2.153,2.153,0,0,1,452.4,119.9Z" transform="translate(-408.162 -117.794)" fill="#12263f"/>
    </g>
    <g id="Grupo_156327" data-name="Grupo 156327" transform="translate(0 54.626)">
      <path id="Trazado_116550" data-name="Trazado 116550" d="M418.612,119.9a2.2,2.2,0,1,1-2.2-2.1A2.154,2.154,0,0,1,418.612,119.9Z" transform="translate(-414.214 -117.794)" fill="#12263f"/>
      <path id="Trazado_116551" data-name="Trazado 116551" d="M418.612,119.9a2.2,2.2,0,1,1-2.2-2.1A2.154,2.154,0,0,1,418.612,119.9Z" transform="translate(-364.418 -117.794)" fill="#12263f"/>
      <path id="Trazado_116552" data-name="Trazado 116552" d="M427.058,119.9a2.2,2.2,0,1,1-2.2-2.1A2.153,2.153,0,0,1,427.058,119.9Z" transform="translate(-412.701 -117.794)" fill="#12263f"/>
      <path id="Trazado_116553" data-name="Trazado 116553" d="M427.058,119.9a2.2,2.2,0,1,1-2.2-2.1A2.153,2.153,0,0,1,427.058,119.9Z" transform="translate(-362.905 -117.794)" fill="#12263f"/>
      <path id="Trazado_116554" data-name="Trazado 116554" d="M435.5,119.9a2.2,2.2,0,1,1-2.2-2.1A2.153,2.153,0,0,1,435.5,119.9Z" transform="translate(-411.188 -117.794)" fill="#12263f"/>
      <path id="Trazado_116555" data-name="Trazado 116555" d="M435.5,119.9a2.2,2.2,0,1,1-2.2-2.1A2.153,2.153,0,0,1,435.5,119.9Z" transform="translate(-361.392 -117.794)" fill="#12263f"/>
      <path id="Trazado_116556" data-name="Trazado 116556" d="M443.951,119.9a2.2,2.2,0,1,1-2.2-2.1A2.154,2.154,0,0,1,443.951,119.9Z" transform="translate(-409.676 -117.794)" fill="#12263f"/>
      <path id="Trazado_116557" data-name="Trazado 116557" d="M443.951,119.9a2.2,2.2,0,1,1-2.2-2.1A2.154,2.154,0,0,1,443.951,119.9Z" transform="translate(-359.879 -117.794)" fill="#12263f"/>
      <path id="Trazado_116558" data-name="Trazado 116558" d="M452.4,119.9a2.2,2.2,0,1,1-2.2-2.1A2.153,2.153,0,0,1,452.4,119.9Z" transform="translate(-408.162 -117.794)" fill="#12263f"/>
    </g>
    <g id="Grupo_156329" data-name="Grupo 156329" transform="translate(0 32.776)">
      <ellipse id="Elipse_3980" data-name="Elipse 3980" cx="2.199" cy="2.103" rx="2.199" ry="2.103" transform="translate(0 0.002)" fill="#12263f"/>
      <ellipse id="Elipse_4744" data-name="Elipse 4744" cx="2.199" cy="2.103" rx="2.199" ry="2.103" transform="translate(49.796 0.002)" fill="#12263f"/>
      <path id="Trazado_99285" data-name="Trazado 99285" d="M427.058,127.406a2.2,2.2,0,1,1-2.2-2.1A2.151,2.151,0,0,1,427.058,127.406Z" transform="translate(-412.701 -125.302)" fill="#12263f"/>
      <path id="Trazado_116536" data-name="Trazado 116536" d="M427.058,127.406a2.2,2.2,0,1,1-2.2-2.1A2.151,2.151,0,0,1,427.058,127.406Z" transform="translate(-362.904 -125.302)" fill="#12263f"/>
      <ellipse id="Elipse_3981" data-name="Elipse 3981" cx="2.199" cy="2.103" rx="2.199" ry="2.103" transform="translate(19.918 0.002)" fill="#12263f"/>
      <ellipse id="Elipse_4745" data-name="Elipse 4745" cx="2.199" cy="2.103" rx="2.199" ry="2.103" transform="translate(69.715 0.002)" fill="#12263f"/>
      <path id="Trazado_99286" data-name="Trazado 99286" d="M443.951,127.406a2.2,2.2,0,1,1-2.2-2.1A2.152,2.152,0,0,1,443.951,127.406Z" transform="translate(-409.676 -125.302)" fill="#12263f"/>
      <path id="Trazado_116537" data-name="Trazado 116537" d="M443.951,127.406a2.2,2.2,0,1,1-2.2-2.1A2.152,2.152,0,0,1,443.951,127.406Z" transform="translate(-359.879 -125.302)" fill="#12263f"/>
      <path id="Trazado_99287" data-name="Trazado 99287" d="M452.4,127.406a2.2,2.2,0,1,1-2.2-2.1A2.151,2.151,0,0,1,452.4,127.406Z" transform="translate(-408.162 -125.302)" fill="#12263f"/>
    </g>
    <g id="Grupo_156326" data-name="Grupo 156326" transform="translate(0 65.553)">
      <ellipse id="Elipse_4754" data-name="Elipse 4754" cx="2.199" cy="2.103" rx="2.199" ry="2.103" transform="translate(0 0.001)" fill="#12263f"/>
      <ellipse id="Elipse_4750" data-name="Elipse 4750" cx="2.199" cy="2.103" rx="2.199" ry="2.103" transform="translate(49.796 0.001)" fill="#12263f"/>
      <path id="Trazado_116548" data-name="Trazado 116548" d="M427.058,127.406a2.2,2.2,0,1,1-2.2-2.1A2.151,2.151,0,0,1,427.058,127.406Z" transform="translate(-412.701 -125.302)" fill="#12263f"/>
      <path id="Trazado_116542" data-name="Trazado 116542" d="M427.058,127.406a2.2,2.2,0,1,1-2.2-2.1A2.151,2.151,0,0,1,427.058,127.406Z" transform="translate(-362.904 -125.302)" fill="#12263f"/>
      <ellipse id="Elipse_4751" data-name="Elipse 4751" cx="2.199" cy="2.103" rx="2.199" ry="2.103" transform="translate(19.918 0.001)" fill="#12263f"/>
      <ellipse id="Elipse_4752" data-name="Elipse 4752" cx="2.199" cy="2.103" rx="2.199" ry="2.103" transform="translate(69.715 0.001)" fill="#12263f"/>
      <path id="Trazado_116543" data-name="Trazado 116543" d="M443.951,127.406a2.2,2.2,0,1,1-2.2-2.1A2.152,2.152,0,0,1,443.951,127.406Z" transform="translate(-409.676 -125.302)" fill="#12263f"/>
      <path id="Trazado_116544" data-name="Trazado 116544" d="M443.951,127.406a2.2,2.2,0,1,1-2.2-2.1A2.152,2.152,0,0,1,443.951,127.406Z" transform="translate(-359.879 -125.302)" fill="#12263f"/>
      <path id="Trazado_116545" data-name="Trazado 116545" d="M452.4,127.406a2.2,2.2,0,1,1-2.2-2.1A2.151,2.151,0,0,1,452.4,127.406Z" transform="translate(-408.162 -125.302)" fill="#12263f"/>
    </g>
    <g id="Grupo_156328" data-name="Grupo 156328" transform="translate(0 43.702)">
      <ellipse id="Elipse_3985" data-name="Elipse 3985" cx="2.199" cy="2.103" rx="2.199" ry="2.103" transform="translate(0 0.001)" fill="#12263f"/>
      <ellipse id="Elipse_4746" data-name="Elipse 4746" cx="2.199" cy="2.103" rx="2.199" ry="2.103" transform="translate(49.796 0.001)" fill="#12263f"/>
      <path id="Trazado_99291" data-name="Trazado 99291" d="M427.058,134.914a2.2,2.2,0,1,1-2.2-2.1A2.151,2.151,0,0,1,427.058,134.914Z" transform="translate(-412.701 -132.81)" fill="#12263f"/>
      <path id="Trazado_116538" data-name="Trazado 116538" d="M427.058,134.914a2.2,2.2,0,1,1-2.2-2.1A2.151,2.151,0,0,1,427.058,134.914Z" transform="translate(-362.904 -132.81)" fill="#12263f"/>
      <ellipse id="Elipse_3986" data-name="Elipse 3986" cx="2.199" cy="2.103" rx="2.199" ry="2.103" transform="translate(19.918 0.001)" fill="#12263f"/>
      <ellipse id="Elipse_4747" data-name="Elipse 4747" cx="2.199" cy="2.103" rx="2.199" ry="2.103" transform="translate(69.715 0.001)" fill="#12263f"/>
      <path id="Trazado_99292" data-name="Trazado 99292" d="M443.951,134.914a2.2,2.2,0,1,1-2.2-2.1A2.152,2.152,0,0,1,443.951,134.914Z" transform="translate(-409.676 -132.81)" fill="#12263f"/>
      <path id="Trazado_116539" data-name="Trazado 116539" d="M443.951,134.914a2.2,2.2,0,1,1-2.2-2.1A2.152,2.152,0,0,1,443.951,134.914Z" transform="translate(-359.879 -132.81)" fill="#12263f"/>
      <path id="Trazado_99293" data-name="Trazado 99293" d="M452.4,134.914a2.2,2.2,0,1,1-2.2-2.1A2.151,2.151,0,0,1,452.4,134.914Z" transform="translate(-408.162 -132.81)" fill="#12263f"/>
    </g>
  </g>
  <g id="Grupo_1015138" data-name="Grupo 1015138" transform="translate(12.576 0)">
    <circle id="Elipse_8447" data-name="Elipse 8447" cx="52.842" cy="52.842" r="52.842" transform="translate(0)" fill="#6f88da"/>
    <circle id="Elipse_8448" data-name="Elipse 8448" cx="44.273" cy="44.273" r="44.273" transform="translate(8.569 8.569)" fill="#fff"/>
    <g id="Grupo_1019348" data-name="Grupo 1019348" transform="translate(19.837 18.563)">
      <g id="Grupo_1019348-2" data-name="Grupo 1019348" clip-path="url(#clip-path)">
        <path id="Trazado_736334" data-name="Trazado 736334" d="M49.845,0Q52.8,2.979,55.763,5.957c1.186,1.192,2.388,2.367,3.553,3.578a1.39,1.39,0,0,1,.355.85c.037,1.366.016,2.734.016,4.116a5.06,5.06,0,0,1,3.674,3.06,6,6,0,0,1,.424,2.166q.038,16.309.013,32.617a5.2,5.2,0,0,1-4.134,5.177,7.074,7.074,0,0,1-1.426.072q-5.572.008-11.144,0h-.714V61.7h4.089v2.085H13.337V61.722h4.1V57.6h-.672c-3.737,0-7.475-.009-11.212,0a5.414,5.414,0,0,1-3.628-1.156A5.025,5.025,0,0,1,.013,52.386q-.027-16.348-.007-32.7a5.169,5.169,0,0,1,5.309-5.277c2.864.013,5.728.014,8.592.018,2.2,0,4.391,0,6.658,0V0ZM22.71,2.1V45.194H57.561V12.307H47.335V2.1ZM2.081,49.319H61.715c0-.1.011-.157.011-.217q0-14.541,0-29.083c0-.311-.024-.622-.037-.933-.037-.845-1.021-2.277-2.033-2.324V47.309H20.561V16.443h-.614c-4.837,0-9.675.007-14.512,0a3.2,3.2,0,0,0-3.364,3.323q.034,14.758.01,29.557m59.574,2.167H2.047A11.167,11.167,0,0,0,2.2,53.293a3.072,3.072,0,0,0,3.288,2.273H58.255c2.443,0,3.8-1.611,3.4-4.081M44.216,57.637H19.6v4.04H44.216ZM56.842,10.259,49.4,2.776v7.483Z" transform="translate(0)" fill="#12263f"/>
        <path id="Trazado_736335" data-name="Trazado 736335" d="M182.288,16.857h24.625V27.064h10.226V59.951H182.288Zm16.832,4.269-2.549,1.788V21H186.4V31.162h10.2c0-1.737.018-3.435-.012-5.133a.975.975,0,0,1,.463-.924c1.087-.752,2.161-1.524,3.256-2.3l-1.19-1.679M186.38,43.5h10.226c0-1.762-.018-3.48.019-5.2a1.176,1.176,0,0,1,.409-.8c1.068-.811,2.176-1.569,3.283-2.356l-1.2-1.659-2.527,1.768V33.343H186.38Zm10.206,2.182H186.394V55.854h10.2c0-1.727.015-3.423-.01-5.118a1.008,1.008,0,0,1,.508-.959c1.087-.739,2.142-1.525,3.215-2.3l-1.2-1.644L196.587,47.6Zm16.469-16.45h-12.3v1.926h12.3Zm-.012,8.237h-12.3v1.918h12.3Zm-12.3,6.027h12.3V41.562h-12.3Zm-.018,8.233h12.318V49.808H200.726Zm12.319,2.185H200.759v1.925h12.285Zm-8.25-28.8h-4.041v1.953h4.041Z" transform="translate(-159.578 -14.757)" fill="#dee4f0"/>
        <path id="Trazado_736336" data-name="Trazado 736336" d="M16.634,164.831q0-14.82-.01-29.557a3.2,3.2,0,0,1,3.364-3.323c4.837.011,9.675,0,14.512,0h.614v30.866H74.206V132.275c1.012.047,2,1.479,2.033,2.324.014.311.037.622.037.933q0,14.541,0,29.083c0,.06-.006.121-.011.217Zm9.7-16.351c4.594-.633,7.215-4.358,6.666-8.3a7.232,7.232,0,0,0-6.916-6.12,7.147,7.147,0,0,0-7.385,6.567c-.311,2.9,1.424,7.073,6.631,7.856a7.211,7.211,0,0,0-6.655,7.614A7.308,7.308,0,0,0,26,162.852a7.193,7.193,0,0,0,.33-14.371" transform="translate(-14.553 -115.513)" fill="#dee4f0"/>
        <path id="Trazado_736337" data-name="Trazado 736337" d="M76.041,413.259c.4,2.47-.957,4.081-3.4,4.081H19.877a3.071,3.071,0,0,1-3.288-2.273,11.167,11.167,0,0,1-.156-1.808Z" transform="translate(-14.386 -361.774)" fill="#b0c0d2"/>
        <rect id="Rectángulo_352942" data-name="Rectángulo 352942" width="24.618" height="4.04" transform="translate(19.598 57.637)" fill="#f6f6f6"/>
        <path id="Trazado_736338" data-name="Trazado 736338" d="M403.962,29.762H396.52V22.279l7.442,7.483" transform="translate(-347.12 -19.503)" fill="#afafaf"/>
        <path id="Trazado_736339" data-name="Trazado 736339" d="M228.006,50.221,229.2,51.9c-1.1.776-2.169,1.548-3.256,2.3a.975.975,0,0,0-.463.924c.03,1.7.012,3.4.012,5.133h-10.2V50.093h10.173v1.916l2.549-1.788m-6.648,7.258-2.646-2.617,1.462-1.49,1.3,1.494c.477-.332.888-.608,1.288-.9.793-.576.887-.871.626-1.858h-6.1v6.123h6.156V56.01l-2.086,1.469" transform="translate(-188.463 -43.852)" fill="#12263f"/>
        <path id="Trazado_736340" data-name="Trazado 736340" d="M215.136,159.344V149.188h10.209V151.1l2.527-1.768,1.2,1.659c-1.107.786-2.215,1.545-3.283,2.356a1.176,1.176,0,0,0-.409.8c-.037,1.718-.019,3.436-.019,5.2Zm2.029-8.171v6.155h6.151v-2.222L221.2,156.59l-2.62-2.627,1.458-1.505,1.318,1.5c.466-.329.873-.612,1.274-.9.794-.571.891-.872.61-1.881Z" transform="translate(-188.334 -130.602)" fill="#12263f"/>
        <path id="Trazado_736341" data-name="Trazado 736341" d="M225.44,248.224v1.919l2.527-1.764,1.2,1.644c-1.073.771-2.128,1.557-3.215,2.3a1.008,1.008,0,0,0-.508.959c.025,1.7.01,3.391.01,5.118h-10.2V248.224Zm-8.194,8.147h6.167v-2.215l-2.059,1.442-2.741-2.649c.241-.233.485-.459.717-.7s.439-.474.7-.761c.153.188.236.31.338.412,1.1,1.1,1.1,1.1,2.362.184.8-.581.885-.852.608-1.85h-6.1Z" transform="translate(-188.431 -217.3)" fill="#12263f"/>
        <rect id="Rectángulo_352943" data-name="Rectángulo 352943" width="12.297" height="1.926" transform="translate(41.181 14.475)" fill="#12263f"/>
        <rect id="Rectángulo_352944" data-name="Rectángulo 352944" width="12.296" height="1.918" transform="translate(41.169 22.712)" fill="#12263f"/>
        <rect id="Rectángulo_352945" data-name="Rectángulo 352945" width="12.297" height="1.933" transform="translate(41.166 26.805)" fill="#12263f"/>
        <rect id="Rectángulo_352946" data-name="Rectángulo 352946" width="12.318" height="1.921" transform="translate(41.148 35.051)" fill="#12263f"/>
        <rect id="Rectángulo_352947" data-name="Rectángulo 352947" width="12.285" height="1.925" transform="translate(41.181 39.157)" fill="#12263f"/>
        <rect id="Rectángulo_352948" data-name="Rectángulo 352948" width="4.041" height="1.953" transform="translate(41.175 10.357)" fill="#12263f"/>
        <path id="Trazado_736342" data-name="Trazado 736342" d="M40.665,163.275a7.193,7.193,0,0,1-.33,14.371,7.308,7.308,0,0,1-7.328-6.756,7.211,7.211,0,0,1,6.655-7.614c-5.208-.783-6.943-4.96-6.631-7.856a7.147,7.147,0,0,1,7.385-6.567,7.232,7.232,0,0,1,6.916,6.121c.549,3.943-2.072,7.669-6.666,8.3m3.3-3.774a5.069,5.069,0,0,0-2.472-8.371,3.1,3.1,0,0,1,1.7,3.547,3.02,3.02,0,0,1-2.693,2.362,4.349,4.349,0,0,1,3.465,2.462M39.9,157.047a3.121,3.121,0,0,1-.994-5.913,4.947,4.947,0,0,0-3.735,3.934,4.883,4.883,0,0,0,1.273,4.408,4.417,4.417,0,0,1,3.456-2.429M39.767,171.5a3.191,3.191,0,0,1-1.021-5.929,4.836,4.836,0,0,0-3.319,3.02,5.031,5.031,0,0,0,1.017,5.31,4.111,4.111,0,0,1,3.323-2.4m1.92-5.912a3.152,3.152,0,0,1,1.532,3.317,3.028,3.028,0,0,1-2.4,2.518,10.019,10.019,0,0,1,1.771.847,10.927,10.927,0,0,1,1.431,1.484,4.787,4.787,0,0,0,1.171-4.526,4.984,4.984,0,0,0-3.509-3.639m.519-4.834a2.224,2.224,0,0,0-2.1-1.657,1.969,1.969,0,0,0-1.833,1.688,5.341,5.341,0,0,0,3.929-.031m0,14.4a2.116,2.116,0,0,0-2.307-1.621,2.024,2.024,0,0,0-1.629,1.646,5.232,5.232,0,0,0,3.936-.025M39.222,153.97a.953.953,0,0,0,1,1.006,1.007,1.007,0,0,0,1-.971.98.98,0,0,0-1-1.03.936.936,0,0,0-1.007.994m0,14.417A1.008,1.008,0,0,0,40.24,169.4a1.1,1.1,0,0,0,.986-1.017,1.082,1.082,0,0,0-1.018-1.044,1.019,1.019,0,0,0-.989,1.043" transform="translate(-28.885 -130.308)" fill="#12263f"/>
        <path id="Trazado_736343" data-name="Trazado 736343" d="M235.438,71.646l2.086-1.469V72.4h-6.156V66.276h6.1c.261.987.167,1.282-.626,1.858-.4.291-.811.566-1.288.9l-1.3-1.494-1.462,1.49,2.646,2.617" transform="translate(-202.543 -58.019)" fill="#4adbd1"/>
        <path id="Trazado_736344" data-name="Trazado 736344" d="M231.423,165.121H237.5c.281,1.009.184,1.311-.61,1.881-.4.289-.808.572-1.274.9l-1.318-1.5-1.458,1.505,2.62,2.627,2.117-1.484v2.222h-6.151Z" transform="translate(-202.592 -144.55)" fill="#6f88da"/>
        <path id="Trazado_736345" data-name="Trazado 736345" d="M231.291,270.514V264.38h6.1c.276,1,.188,1.27-.608,1.85-1.258.917-1.258.918-2.362-.184-.1-.1-.185-.224-.338-.412-.264.287-.478.53-.7.761s-.476.463-.717.7l2.741,2.649,2.059-1.442v2.215Z" transform="translate(-202.476 -231.443)" fill="#ffca28"/>
        <path id="Trazado_736346" data-name="Trazado 736346" d="M96.7,175.505a4.349,4.349,0,0,0-3.465-2.462,3.02,3.02,0,0,0,2.693-2.362,3.1,3.1,0,0,0-1.7-3.547,5.069,5.069,0,0,1,2.472,8.371" transform="translate(-81.62 -146.312)" fill="#dee4f0"/>
        <path id="Trazado_736347" data-name="Trazado 736347" d="M54.527,173.08a4.417,4.417,0,0,0-3.456,2.429A4.884,4.884,0,0,1,49.8,171.1a4.948,4.948,0,0,1,3.735-3.934,3.121,3.121,0,0,0,.994,5.913" transform="translate(-43.508 -146.341)" fill="#dee4f0"/>
        <path id="Trazado_736348" data-name="Trazado 736348" d="M54.364,288.988a4.111,4.111,0,0,0-3.323,2.4,5.031,5.031,0,0,1-1.017-5.31,4.836,4.836,0,0,1,3.319-3.02,3.191,3.191,0,0,0,1.021,5.929" transform="translate(-43.482 -247.795)" fill="#dee4f0"/>
        <path id="Trazado_736349" data-name="Trazado 736349" d="M96.682,283.2a4.984,4.984,0,0,1,3.509,3.639,4.787,4.787,0,0,1-1.171,4.526,10.935,10.935,0,0,0-1.431-1.484,10.024,10.024,0,0,0-1.771-.847,3.028,3.028,0,0,0,2.4-2.518,3.152,3.152,0,0,0-1.532-3.317" transform="translate(-83.88 -247.915)" fill="#dee4f0"/>
        <path id="Trazado_736350" data-name="Trazado 736350" d="M79.315,232.715a5.34,5.34,0,0,1-3.929.031,1.969,1.969,0,0,1,1.833-1.688,2.224,2.224,0,0,1,2.1,1.657" transform="translate(-65.994 -202.267)" fill="#ffca28"/>
        <path id="Trazado_736351" data-name="Trazado 736351" d="M79.3,348.5a5.232,5.232,0,0,1-3.936.025,2.024,2.024,0,0,1,1.629-1.646A2.116,2.116,0,0,1,79.3,348.5" transform="translate(-65.976 -303.648)" fill="#6f88da"/>
      </g>
    </g>
  </g>
</svg>
