<svg xmlns="http://www.w3.org/2000/svg" xmlns:xlink="http://www.w3.org/1999/xlink" width="307.018" height="214.547" viewBox="0 0 307.018 214.547">
  <defs>
    <filter id="Rectángulo_352951" x="0" y="0" width="307.018" height="214.547" filterUnits="userSpaceOnUse">
      <feOffset dy="3" input="SourceAlpha"/>
      <feGaussianBlur stdDeviation="3" result="blur"/>
      <feFlood flood-opacity="0.161"/>
      <feComposite operator="in" in2="blur"/>
      <feComposite in="SourceGraphic"/>
    </filter>
    <clipPath id="clip-path">
      <rect id="Rectángulo_57641" data-name="Rectángulo 57641" width="60.965" height="55.825" fill="#12263f"/>
    </clipPath>
  </defs>
  <g id="Grupo_1019476" data-name="Grupo 1019476" transform="translate(-641.413 -12560.352)">
    <g transform="matrix(1, 0, 0, 1, 641.41, 12560.35)" filter="url(#Rectángulo_352951)">
      <rect id="Rectángulo_352951-2" data-name="Rectángulo 352951" width="289.018" height="196.547" rx="10" transform="translate(9 6)" fill="#f6f6f6"/>
    </g>
    <g id="Grupo_1019350" data-name="Grupo 1019350" transform="translate(748.688 12586.018)">
      <ellipse id="Elipse_4870" data-name="Elipse 4870" cx="46.5" cy="47" rx="46.5" ry="47" transform="translate(-0.275 0.334)" fill="#6f88da"/>
      <g id="Grupo_179405" data-name="Grupo 179405" transform="translate(17.291 19.719)">
        <g id="Grupo_179404" data-name="Grupo 179404" clip-path="url(#clip-path)">
          <path id="Trazado_228364" data-name="Trazado 228364" d="M60.965,53.15a8.006,8.006,0,0,1-.813,1.562,3.2,3.2,0,0,1-5.232-.554,1.283,1.283,0,0,0-.819-.628,3.89,3.89,0,0,1-1.353-.8c-1.711-1.655-3.381-3.353-5.061-5.041a3.286,3.286,0,0,1-.32-.43c-1.148.546-2.155,1.1-3.215,1.518a17.656,17.656,0,0,1-21.838-7.737A.9.9,0,0,0,21.4,40.5q-8.87.024-17.741.01C1.25,40.508,0,39.251,0,36.834Q0,20.108,0,3.383A3.154,3.154,0,0,1,2.346.13,4.965,4.965,0,0,1,3.583.006q4.762-.014,9.525,0A3.174,3.174,0,0,1,13.7.036a.787.787,0,0,1,.7.885.8.8,0,0,1-.743.795,3.489,3.489,0,0,1-.535.012H3.658c-1.447,0-1.911.47-1.913,1.935q0,1.994,0,3.988v.676H52.7a1.38,1.38,0,0,0,.044-.236c0-1.607.012-3.214,0-4.821a1.451,1.451,0,0,0-1.472-1.537c-.2-.012-.4,0-.6,0H18.474c-.945,0-1.343-.261-1.334-.873S17.53,0,18.443,0q16.223,0,32.445,0a5.043,5.043,0,0,1,1.238.117,3.162,3.162,0,0,1,2.37,3.24q.015,7.708,0,15.416c0,.721-.315,1.128-.853,1.144-.558.017-.893-.408-.894-1.155q0-3.988,0-7.976v-.675H1.744v.662q0,13.065,0,26.13c0,1.377.476,1.843,1.868,1.843H21.181a17.738,17.738,0,0,1,.934-14.8A17.33,17.33,0,0,1,29.96,16.4,17.726,17.726,0,0,1,52.444,42.181c1.156,1.142,2.327,2.295,3.494,3.452.662.656,1.365,1.28,1.961,1.993a8.679,8.679,0,0,1,.839,1.528c.078.146.123.372.244.425a3.617,3.617,0,0,1,1.983,2.381ZM53.637,32.319a15.939,15.939,0,1,0-15.974,15.95,15.932,15.932,0,0,0,15.974-15.95M51.43,43.6,48.821,46.37c1.67,1.67,3.443,3.458,5.24,5.221a1.156,1.156,0,0,0,.746.259c.954,0,1.164.171,1.494,1.086a2.061,2.061,0,0,0,.68.919,1.324,1.324,0,0,0,1.614-.048,1.508,1.508,0,0,0-.474-2.671c-.991-.3-1.1-.461-1.1-1.511a1.082,1.082,0,0,0-.253-.693C55,47.14,53.207,45.369,51.43,43.6" transform="translate(0 0)" fill="#12263f"/>
          <path id="Trazado_228365" data-name="Trazado 228365" d="M30.428,108.556a8.307,8.307,0,1,1,8.358,8.29,8.316,8.316,0,0,1-8.358-8.29m7.4,6.233v-5.341H35.821a8.6,8.6,0,0,0,2.007,5.341m0-7.161V102.3a8.5,8.5,0,0,0-2,5.331Zm1.828,7.147a8.5,8.5,0,0,0,1.985-5.331H39.654Zm0-12.486v5.322h2a8.607,8.607,0,0,0-2-5.322m-4.659,11.642-1.037-4.487H32.23a6.55,6.55,0,0,0,2.762,4.487m8.523-4.5-1.024,4.49a6.544,6.544,0,0,0,2.748-4.49Zm-1.033-6.289,1.033,4.477h1.726a6.541,6.541,0,0,0-2.759-4.477m-8.533,4.485,1.042-4.461c-1.479.943-2.766,3.051-2.667,4.461Z" transform="translate(-26.797 -88.274)" fill="#12263f"/>
          <path id="Trazado_228366" data-name="Trazado 228366" d="M44.8,266.95q-2.734,0-5.468,0c-.714,0-1.121-.315-1.134-.854s.4-.887,1.1-.888q5.5-.007,11,0c.723,0,1.1.323,1.092.887s-.4.854-1.121.856q-2.734.005-5.468,0" transform="translate(-33.642 -233.563)" fill="#12263f"/>
          <path id="Trazado_228367" data-name="Trazado 228367" d="M40.847,298.166c-.575,0-1.151.013-1.726,0a.87.87,0,0,1-.921-.879.86.86,0,0,1,.909-.829c1.15-.016,2.3-.018,3.452,0a.806.806,0,0,1,.875.844.834.834,0,0,1-.923.862c-.555.015-1.111,0-1.666,0" transform="translate(-33.643 -261.076)" fill="#12263f"/>
          <path id="Trazado_228368" data-name="Trazado 228368" d="M40.875,35.278a1.218,1.218,0,0,1,1.261-1.215,1.248,1.248,0,0,1,1.231,1.257,1.266,1.266,0,0,1-1.273,1.224,1.238,1.238,0,0,1-1.219-1.266" transform="translate(-35.999 -29.999)" fill="#12263f"/>
          <path id="Trazado_228369" data-name="Trazado 228369" d="M80.8,35.31a1.216,1.216,0,0,1,1.232-1.243,1.244,1.244,0,0,1,1.26,1.228,1.269,1.269,0,0,1-1.244,1.255A1.242,1.242,0,0,1,80.8,35.31" transform="translate(-71.161 -30.003)" fill="#12263f"/>
          <path id="Trazado_228370" data-name="Trazado 228370" d="M120.723,35.311a1.216,1.216,0,0,1,1.232-1.243,1.245,1.245,0,0,1,1.26,1.228,1.269,1.269,0,0,1-1.244,1.255,1.241,1.241,0,0,1-1.248-1.24" transform="translate(-106.32 -30.003)" fill="#12263f"/>
          <path id="Trazado_228371" data-name="Trazado 228371" d="M196.9,166A14.2,14.2,0,1,1,211.433,180.2c-.1,0-.2.006-.3,0a.87.87,0,0,1-.9-.836.894.894,0,0,1,.867-.876,25.644,25.644,0,0,0,3.8-.624,12.435,12.435,0,1,0-8.18-.179c.037.014.076.024.113.038.72.273,1.006.7.818,1.215-.2.536-.676.681-1.4.423a13.721,13.721,0,0,1-5.216-3.339A14.073,14.073,0,0,1,196.9,166" transform="translate(-173.406 -133.701)" fill="#12263f"/>
        </g>
      </g>
    </g>
    <path id="Trazado_736469" data-name="Trazado 736469" d="M31.43,4.852H27.773V15H26.281V4.852H22.633V3.625h8.8Zm4.961,2.992a4.331,4.331,0,0,0-.711-.055A1.9,1.9,0,0,0,33.75,9v6H32.3V6.547h1.406l.023.977A2.251,2.251,0,0,1,35.75,6.391a1.477,1.477,0,0,1,.641.109Zm4.688,7.313a3.693,3.693,0,0,1-2.8-1.129,4.19,4.19,0,0,1-1.078-3.02v-.266a5.073,5.073,0,0,1,.48-2.246,3.748,3.748,0,0,1,1.344-1.547A3.378,3.378,0,0,1,40.9,6.391a3.166,3.166,0,0,1,2.563,1.086,4.7,4.7,0,0,1,.914,3.109v.6H38.648a3,3,0,0,0,.73,2.02,2.3,2.3,0,0,0,1.777.77,2.517,2.517,0,0,0,1.3-.312,3.259,3.259,0,0,0,.93-.828l.883.688A3.55,3.55,0,0,1,41.078,15.156ZM40.9,7.578a1.928,1.928,0,0,0-1.469.637A3.1,3.1,0,0,0,38.7,10H42.93V9.891a2.753,2.753,0,0,0-.594-1.707A1.815,1.815,0,0,0,40.9,7.578Zm10.07,5.18a1.064,1.064,0,0,0-.441-.91,4.249,4.249,0,0,0-1.539-.559,7.277,7.277,0,0,1-1.742-.562,2.479,2.479,0,0,1-.953-.781,1.869,1.869,0,0,1-.309-1.078,2.193,2.193,0,0,1,.879-1.758,3.432,3.432,0,0,1,2.246-.719,3.532,3.532,0,0,1,2.332.742,2.357,2.357,0,0,1,.895,1.9H50.883a1.3,1.3,0,0,0-.5-1.023,1.888,1.888,0,0,0-1.27-.43,1.976,1.976,0,0,0-1.234.344,1.082,1.082,0,0,0-.445.9.877.877,0,0,0,.414.789,5.1,5.1,0,0,0,1.5.508,7.8,7.8,0,0,1,1.754.578,2.558,2.558,0,0,1,1,.809,1.988,1.988,0,0,1,.324,1.152,2.163,2.163,0,0,1-.906,1.816,3.8,3.8,0,0,1-2.352.684,4.257,4.257,0,0,1-1.8-.359,2.922,2.922,0,0,1-1.223-1A2.42,2.42,0,0,1,45.7,12.4h1.445a1.5,1.5,0,0,0,.582,1.152,2.258,2.258,0,0,0,1.434.426,2.331,2.331,0,0,0,1.316-.332A1.02,1.02,0,0,0,50.969,12.758Zm12.211,0a1.064,1.064,0,0,0-.441-.91,4.249,4.249,0,0,0-1.539-.559,7.277,7.277,0,0,1-1.742-.562,2.479,2.479,0,0,1-.953-.781A1.869,1.869,0,0,1,58.2,8.867a2.193,2.193,0,0,1,.879-1.758,3.432,3.432,0,0,1,2.246-.719,3.532,3.532,0,0,1,2.332.742,2.357,2.357,0,0,1,.895,1.9H63.094a1.3,1.3,0,0,0-.5-1.023,1.888,1.888,0,0,0-1.27-.43,1.976,1.976,0,0,0-1.234.344,1.082,1.082,0,0,0-.445.9.877.877,0,0,0,.414.789,5.1,5.1,0,0,0,1.5.508A7.8,7.8,0,0,1,63.3,10.7a2.558,2.558,0,0,1,1,.809,1.988,1.988,0,0,1,.324,1.152,2.163,2.163,0,0,1-.906,1.816,3.8,3.8,0,0,1-2.352.684,4.257,4.257,0,0,1-1.8-.359,2.922,2.922,0,0,1-1.223-1,2.42,2.42,0,0,1-.441-1.395h1.445a1.5,1.5,0,0,0,.582,1.152,2.258,2.258,0,0,0,1.434.426,2.331,2.331,0,0,0,1.316-.332A1.02,1.02,0,0,0,63.18,12.758Zm6.836,2.4a3.693,3.693,0,0,1-2.8-1.129,4.19,4.19,0,0,1-1.078-3.02v-.266a5.073,5.073,0,0,1,.48-2.246,3.748,3.748,0,0,1,1.344-1.547,3.378,3.378,0,0,1,1.871-.559A3.166,3.166,0,0,1,72.4,7.477a4.7,4.7,0,0,1,.914,3.109v.6H67.586a3,3,0,0,0,.73,2.02,2.3,2.3,0,0,0,1.777.77,2.517,2.517,0,0,0,1.3-.312,3.259,3.259,0,0,0,.93-.828l.883.688A3.55,3.55,0,0,1,70.016,15.156Zm-.18-7.578a1.928,1.928,0,0,0-1.469.637A3.1,3.1,0,0,0,67.633,10h4.234V9.891a2.753,2.753,0,0,0-.594-1.707A1.815,1.815,0,0,0,69.836,7.578Zm10.07,5.18a1.064,1.064,0,0,0-.441-.91,4.249,4.249,0,0,0-1.539-.559,7.277,7.277,0,0,1-1.742-.562,2.479,2.479,0,0,1-.953-.781,1.869,1.869,0,0,1-.309-1.078A2.193,2.193,0,0,1,75.8,7.109a3.432,3.432,0,0,1,2.246-.719,3.532,3.532,0,0,1,2.332.742,2.357,2.357,0,0,1,.895,1.9H79.82a1.3,1.3,0,0,0-.5-1.023,1.888,1.888,0,0,0-1.27-.43,1.976,1.976,0,0,0-1.234.344,1.082,1.082,0,0,0-.445.9.877.877,0,0,0,.414.789,5.1,5.1,0,0,0,1.5.508,7.8,7.8,0,0,1,1.754.578,2.558,2.558,0,0,1,1,.809,1.988,1.988,0,0,1,.324,1.152,2.163,2.163,0,0,1-.906,1.816,3.8,3.8,0,0,1-2.352.684,4.257,4.257,0,0,1-1.8-.359,2.922,2.922,0,0,1-1.223-1,2.42,2.42,0,0,1-.441-1.395h1.445a1.5,1.5,0,0,0,.582,1.152,2.258,2.258,0,0,0,1.434.426,2.331,2.331,0,0,0,1.316-.332A1.02,1.02,0,0,0,79.906,12.758ZM84.8,15H83.359V6.547H84.8ZM83.242,4.3a.863.863,0,0,1,.215-.594.807.807,0,0,1,.637-.242.819.819,0,0,1,.641.242.854.854,0,0,1,.219.594.826.826,0,0,1-.219.586.834.834,0,0,1-.641.234.821.821,0,0,1-.637-.234A.834.834,0,0,1,83.242,4.3ZM86.734,10.7a4.993,4.993,0,0,1,.488-2.234A3.643,3.643,0,0,1,88.582,6.93a3.7,3.7,0,0,1,1.988-.539,3.565,3.565,0,0,1,2.793,1.2,4.6,4.6,0,0,1,1.066,3.18v.1a5.036,5.036,0,0,1-.473,2.215,3.589,3.589,0,0,1-1.352,1.527,3.743,3.743,0,0,1-2.02.547,3.556,3.556,0,0,1-2.785-1.2A4.575,4.575,0,0,1,86.734,10.8Zm1.453.172a3.616,3.616,0,0,0,.652,2.258,2.211,2.211,0,0,0,3.5-.012,3.955,3.955,0,0,0,.648-2.418,3.61,3.61,0,0,0-.66-2.254,2.1,2.1,0,0,0-1.754-.863,2.075,2.075,0,0,0-1.727.852A3.925,3.925,0,0,0,88.188,10.867Zm9.422-4.32.047,1.063a3.08,3.08,0,0,1,2.531-1.219q2.68,0,2.7,3.023V15h-1.445V9.406a1.946,1.946,0,0,0-.418-1.352,1.675,1.675,0,0,0-1.277-.437,2.086,2.086,0,0,0-1.234.375,2.546,2.546,0,0,0-.828.984V15H96.242V6.547Zm10.969,8.609a3.693,3.693,0,0,1-2.8-1.129,4.19,4.19,0,0,1-1.078-3.02v-.266a5.073,5.073,0,0,1,.48-2.246,3.748,3.748,0,0,1,1.344-1.547,3.378,3.378,0,0,1,1.871-.559,3.166,3.166,0,0,1,2.563,1.086,4.7,4.7,0,0,1,.914,3.109v.6h-5.727a3,3,0,0,0,.73,2.02,2.3,2.3,0,0,0,1.777.77,2.517,2.517,0,0,0,1.3-.312,3.259,3.259,0,0,0,.93-.828l.883.688A3.55,3.55,0,0,1,108.578,15.156Zm-.18-7.578a1.928,1.928,0,0,0-1.469.637A3.1,3.1,0,0,0,106.2,10h4.234V9.891a2.753,2.753,0,0,0-.594-1.707A1.815,1.815,0,0,0,108.4,7.578Zm10.07,5.18a1.064,1.064,0,0,0-.441-.91,4.249,4.249,0,0,0-1.539-.559,7.277,7.277,0,0,1-1.742-.562,2.479,2.479,0,0,1-.953-.781,1.869,1.869,0,0,1-.309-1.078,2.193,2.193,0,0,1,.879-1.758,3.432,3.432,0,0,1,2.246-.719,3.532,3.532,0,0,1,2.332.742,2.357,2.357,0,0,1,.895,1.9h-1.453a1.3,1.3,0,0,0-.5-1.023,1.888,1.888,0,0,0-1.27-.43,1.976,1.976,0,0,0-1.234.344,1.082,1.082,0,0,0-.445.9.877.877,0,0,0,.414.789,5.1,5.1,0,0,0,1.5.508,7.8,7.8,0,0,1,1.754.578,2.558,2.558,0,0,1,1,.809,1.988,1.988,0,0,1,.324,1.152,2.163,2.163,0,0,1-.906,1.816,3.8,3.8,0,0,1-2.352.684,4.257,4.257,0,0,1-1.8-.359,2.922,2.922,0,0,1-1.223-1A2.42,2.42,0,0,1,113.2,12.4h1.445a1.5,1.5,0,0,0,.582,1.152,2.258,2.258,0,0,0,1.434.426,2.331,2.331,0,0,0,1.316-.332A1.02,1.02,0,0,0,118.469,12.758Zm10.8,2.4a3.693,3.693,0,0,1-2.8-1.129,4.19,4.19,0,0,1-1.078-3.02v-.266a5.073,5.073,0,0,1,.48-2.246,3.748,3.748,0,0,1,1.344-1.547,3.378,3.378,0,0,1,1.871-.559,3.166,3.166,0,0,1,2.563,1.086,4.7,4.7,0,0,1,.914,3.109v.6h-5.727a3,3,0,0,0,.73,2.02,2.3,2.3,0,0,0,1.777.77,2.517,2.517,0,0,0,1.3-.312,3.258,3.258,0,0,0,.93-.828l.883.688A3.55,3.55,0,0,1,129.266,15.156Zm-.18-7.578a1.928,1.928,0,0,0-1.469.637A3.1,3.1,0,0,0,126.883,10h4.234V9.891a2.753,2.753,0,0,0-.594-1.707A1.815,1.815,0,0,0,129.086,7.578ZM135.6,6.547l.047,1.063a3.08,3.08,0,0,1,2.531-1.219q2.68,0,2.7,3.023V15h-1.445V9.406a1.946,1.946,0,0,0-.418-1.352,1.675,1.675,0,0,0-1.277-.437,2.086,2.086,0,0,0-1.234.375,2.546,2.546,0,0,0-.828.984V15h-1.445V6.547Zm14.93,8.609a3.693,3.693,0,0,1-2.8-1.129,4.19,4.19,0,0,1-1.078-3.02v-.266a5.073,5.073,0,0,1,.48-2.246,3.748,3.748,0,0,1,1.344-1.547,3.378,3.378,0,0,1,1.871-.559,3.166,3.166,0,0,1,2.563,1.086,4.7,4.7,0,0,1,.914,3.109v.6H148.1a3,3,0,0,0,.73,2.02,2.3,2.3,0,0,0,1.777.77,2.517,2.517,0,0,0,1.3-.312,3.258,3.258,0,0,0,.93-.828l.883.688A3.55,3.55,0,0,1,150.531,15.156Zm-.18-7.578a1.928,1.928,0,0,0-1.469.637A3.1,3.1,0,0,0,148.148,10h4.234V9.891a2.753,2.753,0,0,0-.594-1.707A1.815,1.815,0,0,0,150.352,7.578ZM157.07,15h-1.445V3h1.445Zm11.2-2.242a1.064,1.064,0,0,0-.441-.91,4.249,4.249,0,0,0-1.539-.559,7.277,7.277,0,0,1-1.742-.562,2.479,2.479,0,0,1-.953-.781,1.869,1.869,0,0,1-.309-1.078,2.193,2.193,0,0,1,.879-1.758,3.432,3.432,0,0,1,2.246-.719,3.532,3.532,0,0,1,2.332.742,2.357,2.357,0,0,1,.895,1.9H168.18a1.3,1.3,0,0,0-.5-1.023,1.888,1.888,0,0,0-1.27-.43,1.976,1.976,0,0,0-1.234.344,1.082,1.082,0,0,0-.445.9.877.877,0,0,0,.414.789,5.1,5.1,0,0,0,1.5.508,7.8,7.8,0,0,1,1.754.578,2.558,2.558,0,0,1,1,.809,1.988,1.988,0,0,1,.324,1.152,2.163,2.163,0,0,1-.906,1.816,3.8,3.8,0,0,1-2.352.684,4.257,4.257,0,0,1-1.8-.359,2.922,2.922,0,0,1-1.223-1,2.42,2.42,0,0,1-.441-1.395h1.445a1.5,1.5,0,0,0,.582,1.152,2.258,2.258,0,0,0,1.434.426,2.331,2.331,0,0,0,1.316-.332A1.02,1.02,0,0,0,168.266,12.758Zm6.836,2.4a3.693,3.693,0,0,1-2.8-1.129,4.19,4.19,0,0,1-1.078-3.02v-.266a5.073,5.073,0,0,1,.48-2.246,3.748,3.748,0,0,1,1.344-1.547,3.378,3.378,0,0,1,1.871-.559,3.166,3.166,0,0,1,2.563,1.086,4.7,4.7,0,0,1,.914,3.109v.6h-5.727a3,3,0,0,0,.73,2.02,2.3,2.3,0,0,0,1.777.77,2.517,2.517,0,0,0,1.3-.312,3.258,3.258,0,0,0,.93-.828l.883.688A3.55,3.55,0,0,1,175.1,15.156Zm-.18-7.578a1.928,1.928,0,0,0-1.469.637A3.1,3.1,0,0,0,172.719,10h4.234V9.891a2.753,2.753,0,0,0-.594-1.707A1.815,1.815,0,0,0,174.922,7.578Zm4.8,3.125a4.968,4.968,0,0,1,.914-3.145,3.151,3.151,0,0,1,4.836-.074l.07-.937h1.32V14.8a3.439,3.439,0,0,1-.973,2.586,3.589,3.589,0,0,1-2.613.945,4.348,4.348,0,0,1-1.789-.391,3.08,3.08,0,0,1-1.336-1.07l.75-.867a2.826,2.826,0,0,0,2.273,1.148,2.214,2.214,0,0,0,1.645-.594,2.269,2.269,0,0,0,.59-1.672v-.727a2.971,2.971,0,0,1-2.367,1,2.887,2.887,0,0,1-2.4-1.2A5.224,5.224,0,0,1,179.727,10.7Zm1.453.164a3.79,3.79,0,0,0,.586,2.246,1.9,1.9,0,0,0,1.641.816,2.117,2.117,0,0,0,2.008-1.242V8.828a2.142,2.142,0,0,0-1.992-1.211,1.921,1.921,0,0,0-1.648.82A4.128,4.128,0,0,0,181.18,10.867Zm13.086,3.3a3.07,3.07,0,0,1-2.477.992,2.628,2.628,0,0,1-2.059-.785,3.4,3.4,0,0,1-.715-2.324v-5.5h1.445v5.461q0,1.922,1.563,1.922a2.163,2.163,0,0,0,2.2-1.234V6.547h1.445V15H194.3Zm4.969-7.617.047,1.063a3.08,3.08,0,0,1,2.531-1.219q2.68,0,2.7,3.023V15H203.07V9.406a1.946,1.946,0,0,0-.418-1.352,1.675,1.675,0,0,0-1.277-.437,2.086,2.086,0,0,0-1.234.375,2.546,2.546,0,0,0-.828.984V15h-1.445V6.547Zm7.109,4.156a4.952,4.952,0,0,1,.922-3.129,3.137,3.137,0,0,1,4.766-.168V3h1.445V15h-1.328l-.07-.906a2.943,2.943,0,0,1-2.414,1.063,2.887,2.887,0,0,1-2.395-1.2,5.008,5.008,0,0,1-.926-3.141Zm1.445.164a3.749,3.749,0,0,0,.594,2.25,1.919,1.919,0,0,0,1.641.813,2.108,2.108,0,0,0,2.008-1.234V8.813a2.125,2.125,0,0,0-1.992-1.2,1.929,1.929,0,0,0-1.656.82A4.128,4.128,0,0,0,207.789,10.867Zm7.547-.172a4.993,4.993,0,0,1,.488-2.234,3.642,3.642,0,0,1,1.359-1.531,3.7,3.7,0,0,1,1.988-.539,3.565,3.565,0,0,1,2.793,1.2,4.6,4.6,0,0,1,1.066,3.18v.1a5.036,5.036,0,0,1-.473,2.215,3.589,3.589,0,0,1-1.352,1.527,3.743,3.743,0,0,1-2.02.547,3.556,3.556,0,0,1-2.785-1.2,4.575,4.575,0,0,1-1.066-3.164Zm1.453.172a3.616,3.616,0,0,0,.652,2.258,2.211,2.211,0,0,0,3.5-.012,3.954,3.954,0,0,0,.648-2.418,3.61,3.61,0,0,0-.66-2.254,2.1,2.1,0,0,0-1.754-.863,2.075,2.075,0,0,0-1.727.852A3.925,3.925,0,0,0,216.789,10.867ZM93.934,26.5v2.047h1.578v1.117H93.934v5.249a1.173,1.173,0,0,0,.211.763.888.888,0,0,0,.719.254,3.5,3.5,0,0,0,.688-.094V37a4.215,4.215,0,0,1-1.109.155,1.8,1.8,0,0,1-1.461-.586,2.517,2.517,0,0,1-.492-1.664V29.664H90.949V28.547h1.539V26.5Zm7.352,3.344a4.331,4.331,0,0,0-.711-.055A1.9,1.9,0,0,0,98.645,31v6H97.2V28.547h1.406l.023.977a2.251,2.251,0,0,1,2.016-1.133,1.477,1.477,0,0,1,.641.109Zm2.9,7.156h-1.445V28.547h1.445Zm-1.562-10.7a.863.863,0,0,1,.215-.594.807.807,0,0,1,.637-.242.819.819,0,0,1,.641.242.854.854,0,0,1,.219.594.826.826,0,0,1-.219.586.834.834,0,0,1-.641.234.821.821,0,0,1-.637-.234A.834.834,0,0,1,102.621,26.3Zm5.234,2.242.039.938a3.122,3.122,0,0,1,2.508-1.094,2.417,2.417,0,0,1,2.414,1.359,3.2,3.2,0,0,1,1.1-.984,3.242,3.242,0,0,1,1.6-.375q2.781,0,2.828,2.945V37h-1.445V31.422a1.941,1.941,0,0,0-.414-1.355,1.823,1.823,0,0,0-1.391-.449,1.916,1.916,0,0,0-1.336.48,1.949,1.949,0,0,0-.617,1.293V37h-1.453V31.461a1.613,1.613,0,0,0-1.8-1.844,1.934,1.934,0,0,0-1.945,1.211V37h-1.445V28.547Zm16.172,8.609a3.693,3.693,0,0,1-2.8-1.129,4.19,4.19,0,0,1-1.078-3.02v-.266a5.073,5.073,0,0,1,.48-2.246,3.748,3.748,0,0,1,1.344-1.547,3.378,3.378,0,0,1,1.871-.559,3.166,3.166,0,0,1,2.563,1.086,4.7,4.7,0,0,1,.914,3.109v.6H121.6a3,3,0,0,0,.73,2.02,2.3,2.3,0,0,0,1.777.77,2.517,2.517,0,0,0,1.3-.312,3.259,3.259,0,0,0,.93-.828l.883.688A3.55,3.55,0,0,1,124.027,37.156Zm-.18-7.578a1.928,1.928,0,0,0-1.469.637A3.1,3.1,0,0,0,121.645,32h4.234v-.109a2.753,2.753,0,0,0-.594-1.707A1.815,1.815,0,0,0,123.848,29.578Zm10.07,5.18a1.064,1.064,0,0,0-.441-.91,4.249,4.249,0,0,0-1.539-.559,7.277,7.277,0,0,1-1.742-.562,2.479,2.479,0,0,1-.953-.781,1.869,1.869,0,0,1-.309-1.078,2.193,2.193,0,0,1,.879-1.758,3.432,3.432,0,0,1,2.246-.719,3.532,3.532,0,0,1,2.332.742,2.357,2.357,0,0,1,.895,1.9h-1.453a1.3,1.3,0,0,0-.5-1.023,1.888,1.888,0,0,0-1.27-.43,1.976,1.976,0,0,0-1.234.344,1.082,1.082,0,0,0-.445.9.877.877,0,0,0,.414.789,5.1,5.1,0,0,0,1.5.508,7.8,7.8,0,0,1,1.754.578,2.558,2.558,0,0,1,1,.809,1.988,1.988,0,0,1,.324,1.152,2.163,2.163,0,0,1-.906,1.816,3.8,3.8,0,0,1-2.352.684,4.257,4.257,0,0,1-1.8-.359,2.922,2.922,0,0,1-1.223-1,2.42,2.42,0,0,1-.441-1.395h1.445a1.5,1.5,0,0,0,.582,1.152,2.258,2.258,0,0,0,1.434.426,2.331,2.331,0,0,0,1.316-.332A1.02,1.02,0,0,0,133.918,34.758Zm5.289-8.258v2.047h1.578v1.117h-1.578v5.249a1.173,1.173,0,0,0,.211.763.888.888,0,0,0,.719.254,3.5,3.5,0,0,0,.688-.094V37a4.215,4.215,0,0,1-1.109.155,1.8,1.8,0,0,1-1.461-.586,2.517,2.517,0,0,1-.492-1.664V29.664h-1.539V28.547h1.539V26.5Zm7.352,3.344a4.331,4.331,0,0,0-.711-.055A1.9,1.9,0,0,0,143.918,31v6h-1.445V28.547h1.406l.023.977a2.251,2.251,0,0,1,2.016-1.133,1.477,1.477,0,0,1,.641.109Zm4.688,7.313a3.693,3.693,0,0,1-2.8-1.129,4.19,4.19,0,0,1-1.078-3.02v-.266a5.073,5.073,0,0,1,.48-2.246,3.748,3.748,0,0,1,1.344-1.547,3.378,3.378,0,0,1,1.871-.559,3.166,3.166,0,0,1,2.563,1.086,4.7,4.7,0,0,1,.914,3.109v.6h-5.727a3,3,0,0,0,.73,2.02,2.3,2.3,0,0,0,1.777.77,2.517,2.517,0,0,0,1.3-.312,3.258,3.258,0,0,0,.93-.828l.883.688A3.55,3.55,0,0,1,151.246,37.156Zm-.18-7.578a1.928,1.928,0,0,0-1.469.637A3.1,3.1,0,0,0,148.863,32H153.1v-.109a2.753,2.753,0,0,0-.594-1.707A1.815,1.815,0,0,0,151.066,29.578Z" transform="translate(673.904 12689.352)" fill="#12263f"/>
    <path id="Trazado_736472" data-name="Trazado 736472" d="M11.66,13.189a6.789,6.789,0,0,1-1.294,4.443A4.471,4.471,0,0,1,6.719,19.2a4.5,4.5,0,0,1-3.672-1.572,6.779,6.779,0,0,1-1.3-4.434v-2.6A6.789,6.789,0,0,1,3.042,6.148,4.483,4.483,0,0,1,6.7,4.586a4.484,4.484,0,0,1,3.662,1.572,6.8,6.8,0,0,1,1.3,4.443ZM8.369,10.172a5.071,5.071,0,0,0-.4-2.29A1.338,1.338,0,0,0,6.7,7.125a1.307,1.307,0,0,0-1.235.7,4.777,4.777,0,0,0-.415,2.129V13.59a5.109,5.109,0,0,0,.4,2.329,1.343,1.343,0,0,0,1.27.737,1.325,1.325,0,0,0,1.24-.718,4.878,4.878,0,0,0,.41-2.251ZM23.291,19H13.369V16.852l4.57-4.8q1.689-1.924,1.689-3.057a2.126,2.126,0,0,0-.4-1.4,1.43,1.43,0,0,0-1.162-.479,1.447,1.447,0,0,0-1.221.64,2.629,2.629,0,0,0-.469,1.6h-3.3a4.67,4.67,0,0,1,.654-2.417A4.588,4.588,0,0,1,15.547,5.2a5.4,5.4,0,0,1,2.6-.625,5.308,5.308,0,0,1,3.55,1.064A3.8,3.8,0,0,1,22.939,8.7a4.439,4.439,0,0,1-.312,1.636A7.173,7.173,0,0,1,21.655,12a24.476,24.476,0,0,1-2.124,2.339L17.7,16.461h5.6Z" transform="translate(661.404 12573.021)" fill="#12263f" opacity="0.134"/>
  </g>
</svg>
