<svg xmlns="http://www.w3.org/2000/svg" xmlns:xlink="http://www.w3.org/1999/xlink" width="80" height="80" viewBox="0 0 80 80">
  <defs>
    <clipPath id="clip-path">
      <rect id="Rectángulo_347809" data-name="Rectángulo 347809" width="41.818" height="47.232" fill="none"/>
    </clipPath>
  </defs>
  <g id="Grupo_1019478" data-name="Grupo 1019478" transform="translate(-1179 -19544)">
    <g id="Elipse_8481" data-name="Elipse 8481" transform="translate(1179 19544)" fill="#fff" stroke="#12263f" stroke-width="3">
      <circle cx="40" cy="40" r="40" stroke="none"/>
      <circle cx="40" cy="40" r="38.5" fill="none"/>
    </g>
    <g id="Grupo_1005810" data-name="Grupo 1005810" transform="translate(472 11681.629)">
      <g id="Grupo_1005809" data-name="Grupo 1005809" transform="translate(630.943 7917)">
        <g id="Grupo_1005808" data-name="Grupo 1005808" transform="translate(96.888 -40.22)" clip-path="url(#clip-path)">
          <path id="Trazado_716586" data-name="Trazado 716586" d="M70.668,286.295a3.526,3.526,0,0,1-.754-.518,1.315,1.315,0,0,1-.4-1.191,2.369,2.369,0,0,0-.927-2.169c-.083-.088-.165-.177-.248-.266-.447-.592-.943-1.142-1.425-1.7-.794-.926-1.571-1.866-2.323-2.826A5.887,5.887,0,0,1,63.4,275.9a2.636,2.636,0,0,1,.928-3.194,3.5,3.5,0,0,1,1.357-.513c.034.1.112.082.188.068a2.371,2.371,0,0,1,1.9,1,3.939,3.939,0,0,0,.828.98l.014.014c.165.267.316.549.673.6.17.088-.086.432.173.388.189-.033.088-.314.092-.489,0-.025-.027-.051-.042-.077,0-.876-.022-1.753.011-2.628.015-.415-.116-.508-.517-.507q-9.315.02-18.629.01a3.282,3.282,0,0,0-.5.048,1.5,1.5,0,0,1-1.683-1.345c0-1.03-.015-2.06.008-3.089a1.164,1.164,0,0,1,.554-1.01,1.987,1.987,0,0,1,1.167-.272q9.545,0,19.091.008c.362,0,.5-.106.558-.461a2.308,2.308,0,0,1,.806-1.368l.106-.075c.315-.3.769-.324,1.109-.573l0,0c.02.106.106.092.177.088a2.833,2.833,0,0,1,1.837.553c.019.049.042.094.108.08l.171.117c.106.315.392.523.481.856a5.557,5.557,0,0,1,.192,1.522c-.014,1.1,0,2.194,0,3.331a3.471,3.471,0,0,1,1.933-.107c.283.191.638.268.864.552.128.16.193,0,.274-.064a2.649,2.649,0,0,1,2.666-.4,3.57,3.57,0,0,0,1.725-.019,2.531,2.531,0,0,1,3.507,2.406c.033.983.015,1.967.006,2.951,0,.572-.235.83-.742.878-.549-.012-.64-.379-.64-.82,0-1,.011-2,0-2.992a1.285,1.285,0,0,0-1.607-1.249c-.031.007-.041.1-.061.153a.749.749,0,0,0-.544.543.875.875,0,0,1-.444.552c-.466.236-.8.072-1.06-.482a1.13,1.13,0,0,0-1.152-.715,1.009,1.009,0,0,0-1.02.692.9.9,0,0,1-.3.433c-.437.316-.933.187-1.238-.472a1.128,1.128,0,0,0-2.169.41.69.69,0,0,1-.342.6c-.543.306-1.031-.025-1.032-.718q-.008-2.9,0-5.81a1.705,1.705,0,0,0-.177-.781,1.139,1.139,0,0,0-1.293-.61.944.944,0,0,0-.778,1.025q-.021,5.324-.031,10.648a4.377,4.377,0,0,1-.044.733.642.642,0,0,1-1.05.43,8.238,8.238,0,0,1-1.143-1.277c-.755-.856-1.465-1.751-2.2-2.626a.934.934,0,0,0-.82-.3,1.392,1.392,0,0,0-.81,2.247,14.6,14.6,0,0,0,1.084,1.287c.531.625,1.065,1.247,1.59,1.877.719.862,1.4,1.759,2.154,2.585.78.85,1.5,1.69,1.244,2.96a.18.18,0,0,0,0,.046c-.05.134-.087.262.124.282.041.117.143.1.23.1l9.561-.013c.063.015.093-.017.107-.073a.143.143,0,0,0,.072-.018,3.444,3.444,0,0,0,2.285-1.341,3.986,3.986,0,0,0,.864-2.65q.01-1.22,0-2.441c0-.444.151-.742.639-.769.562.12.739.32.744.885.008.86.056,1.724-.009,2.579a5.266,5.266,0,0,1-3.678,4.989,5.262,5.262,0,0,0-.932.237ZM59.519,270.169c3.195,0,6.389,0,9.584.007.308,0,.429-.054.416-.394-.028-.721-.023-1.444,0-2.165.009-.294-.089-.353-.365-.353q-9.607.011-19.214,0c-.322,0-.383.11-.376.4.017.691.031,1.384,0,2.073-.019.386.126.445.468.444,3.164-.012,6.328-.007,9.492-.007" transform="translate(-43.733 -239.062)"/>
          <path id="Trazado_716587" data-name="Trazado 716587" d="M35.506,39.714a3.5,3.5,0,0,0-1.357.513,2.636,2.636,0,0,0-.928,3.194,5.888,5.888,0,0,0,1.194,1.725c.752.96,1.529,1.9,2.323,2.826.482.563.978,1.113,1.426,1.7l-1.457.016a.131.131,0,0,0-.077-.017c-.046-.394-.2-.724-.65-.7-.209.01-.424.03-.635.031q-4.658.006-9.317,0-4.428,0-8.855-.016a1.963,1.963,0,0,1-1.259-.513A2.872,2.872,0,0,1,15,45.983q.046-17.48.019-34.961a1.09,1.09,0,0,0-.019-.41,1.275,1.275,0,0,1,.085-.961,2.444,2.444,0,0,1,2.5-1.678H28.7c.61,0,.763-.122.923-.715l1.344.044c.1.54.24.667.776.671.368,0,.737,0,1.1,0L42.7,7.99A3.809,3.809,0,0,1,43.81,11Q43.794,21.154,43.8,31.31c0,.161.061.343-.1.473l-.171-.117-.108-.08a2.832,2.832,0,0,0-1.837-.553c-.071,0-.156.018-.177-.088,0-.169.17-.14.254-.176a1.481,1.481,0,0,0,.947-1.462c.009-.752,0-1.5,0-2.257.011-1.349-.667-1.893-1.867-1.865H19.879c-.153,0-.307.011-.46.005A1.415,1.415,0,0,0,18,26.674c.033.859.023,1.72,0,2.579a1.562,1.562,0,0,0,.457,1.23c-.012.062.022.085.077.09a1.292,1.292,0,0,0,1.049.285q10.734,0,21.468,0c.119,0,.276-.082.361.088-.34.249-.795.275-1.109.573-.067-.019-.087.027-.106.075a2.308,2.308,0,0,0-.806,1.368c-.054.354-.2.461-.558.461q-9.545-.017-19.091-.008a1.986,1.986,0,0,0-1.167.272,1.164,1.164,0,0,0-.554,1.01c-.023,1.029,0,2.059-.008,3.089A1.5,1.5,0,0,0,19.7,39.127a3.277,3.277,0,0,1,.5-.048q9.315,0,18.63-.011c.4,0,.533.092.517.507-.033.875-.011,1.752-.011,2.628-.124,0-.18.079-.223.178-.356-.054-.507-.336-.672-.6.01-.026.092-.02.034-.076l-.048.061a3.942,3.942,0,0,1-.828-.98,2.371,2.371,0,0,0-1.9-1c-.025-.127-.064-.215-.188-.068M31.357,20.077l.048.109.045-.111A.724.724,0,0,0,32,19.211c-.075-.423-.407-.522-.777-.53-.145,0-.228-.031-.227-.2,0-1.4-.014-2.794.013-4.19a.778.778,0,0,0-.767-.87c-.322-.008-.645,0-.967,0a.714.714,0,0,0-.779.687.7.7,0,0,0,.782.686c.31-.01.345.112.341.372-.013,1-.007,2,0,2.993,0,.316.017.537-.458.554a.6.6,0,0,0-.474,1.043.92.92,0,0,0,.694.311c.66,0,1.319.008,1.979.013M26.651,41.8a.108.108,0,0,0-.063-.063,2.057,2.057,0,0,0-1.579-.595c-1.609-.064-3.223-.052-4.834-.011a2.1,2.1,0,0,0-2.1,1.612,9.58,9.58,0,0,0-.07,1.5A2.2,2.2,0,0,0,20.17,46.5c1.61-.047,3.223-.014,4.835,0a2.24,2.24,0,0,0,1.635-.661,3.39,3.39,0,0,0,.011-4.033m9.339-22.667.07-.1.022-.175c.177-.069.319-.153.165-.37.09-.484.174-.969.27-1.452a.8.8,0,0,0-.528-.938.668.668,0,0,0-.834.432,2.968,2.968,0,0,0-.1.851,3.263,3.263,0,0,1-.792,2.141,4.782,4.782,0,0,1-2.114,1.665,4.605,4.605,0,0,1-4.208-.232l-.1-.065c-.168.013-.227-.16-.358-.211-.014-.17-.14-.163-.26-.163-.295-.4-.67-.721-.961-1.137a5.4,5.4,0,0,1-.784-2.257,4.607,4.607,0,0,1,.741-2.97,4.654,4.654,0,0,1,1.91-1.675,4.282,4.282,0,0,1,2.058-.54.824.824,0,0,0,.8-.65.64.64,0,0,0-.507-.714,2.781,2.781,0,0,0-1.054-.007,6.175,6.175,0,0,0-4.546,3.111,5.994,5.994,0,0,0-.742,3.978,4.645,4.645,0,0,1,.222,1.293c0,.105.083.146.16.188a7.137,7.137,0,0,0,2.528,2.868,5.836,5.836,0,0,0,5.514.483,6.122,6.122,0,0,0,1.761-1.049l.075-.088c.236-.464.835-.64.949-1.2.136,0,.252-.018.246-.194l.392-.823M31.45,13.07a.556.556,0,0,0,.55.68c.875-.162.97.357,1.022.981,0,.015,0,.031,0,.046a.61.61,0,0,0,.7.551.591.591,0,0,0,.585-.585,5.19,5.19,0,0,0,0-.656c-.023-.244.063-.325.306-.3a1.7,1.7,0,0,0,.963-.17.578.578,0,0,0,.3-.646.489.489,0,0,0-.37-.493,2.064,2.064,0,0,0-.761-.064c-.355.022-.475-.125-.432-.457a1.96,1.96,0,0,0,.026-.362c-.015-.26.01-.525-.306-.672a.7.7,0,0,0-.806.057,1.112,1.112,0,0,0-.3.826c-.008.6-.012.6-.6.6H32.14c-.52.005-.674.154-.69.668" transform="translate(-13.555 -6.588)" fill="#bcccff"/>
          <path id="Trazado_716588" data-name="Trazado 716588" d="M16.073.686c-.16.593-.313.715-.923.715H4.035a2.443,2.443,0,0,0-2.5,1.678,1.275,1.275,0,0,0-.086.961,1.089,1.089,0,0,1,.02.41q0,17.48-.019,34.961A2.872,2.872,0,0,0,2.36,41.9a1.963,1.963,0,0,0,1.259.513q4.427.008,8.855.016,4.658,0,9.317,0c.211,0,.426-.02.635-.031.446-.022.6.308.65.7a.08.08,0,0,0,0,.087c-.108.5-.31.629-.957.629-6.1,0-12.2-.011-18.307.007a3.768,3.768,0,0,1-2.339-.84l-.1-.07A3.325,3.325,0,0,1,.55,41.906l-.073-.1A2.738,2.738,0,0,1,.1,40.493Q.087,22.534.083,4.575a6.015,6.015,0,0,0-.068-.713,3.228,3.228,0,0,1,.51-1.907A3.444,3.444,0,0,1,2.963.148,5.84,5.84,0,0,1,4.083.023C7.757.014,11.43.019,15.1.016c.484,0,.865.13.97.67" transform="translate(0 -0.015)"/>
          <path id="Trazado_716589" data-name="Trazado 716589" d="M200.1,1.4l-9.851-.016c-.368,0-.737,0-1.1,0-.536,0-.681-.131-.776-.671.124-.546.32-.711.868-.711,3.689,0,7.378-.01,11.068,0a4.162,4.162,0,0,1,2.853.99,3.324,3.324,0,0,1,1.176,2.442c.136,8.267.033,16.535.062,24.8,0,.718-.107.878-.694,1.11-.644-.227-.684-.292-.684-.989q0-11.94-.01-23.881a3.979,3.979,0,0,0-.217-1.656A2.5,2.5,0,0,0,200.1,1.4" transform="translate(-170.956 0)"/>
          <path id="Trazado_716590" data-name="Trazado 716590" d="M315.253,15.1a2.5,2.5,0,0,1,2.69,1.425,3.98,3.98,0,0,1,.217,1.656q.022,11.94.01,23.881c0,.7.04.761.684.989v1.445a3.472,3.472,0,0,0-1.933.108c0-1.137-.01-2.234,0-3.331a5.555,5.555,0,0,0-.192-1.522c-.089-.333-.375-.541-.481-.856.16-.131.1-.313.1-.473q0-10.156.008-20.312a3.809,3.809,0,0,0-1.107-3.008" transform="translate(-286.104 -13.696)" fill="#6f88da"/>
          <path id="Trazado_716591" data-name="Trazado 716591" d="M404.476,346.291c.02-.053.03-.146.061-.153a1.285,1.285,0,0,1,1.607,1.249c.014,1,0,1.995,0,2.992,0,.441.091.808.64.82q0,.721,0,1.442c-.489.027-.643.325-.639.769q.009,1.22,0,2.441a3.986,3.986,0,0,1-.864,2.65A3.445,3.445,0,0,1,403,359.841c.022-.226.213-.329.351-.464a4.537,4.537,0,0,0,1.414-3.41c-.019-2.85-.01-5.7,0-8.552a1.9,1.9,0,0,0-.284-1.125" transform="translate(-365.736 -314.098)" fill="#f0936e"/>
          <path id="Trazado_716592" data-name="Trazado 716592" d="M5.1,451.985l.073.1c-.051-.014-.093-.035-.073-.1" transform="translate(-4.628 -410.194)" fill="#020202"/>
          <path id="Trazado_716593" data-name="Trazado 716593" d="M14.86,463.982l.1.07c-.065.022-.085-.021-.1-.07" transform="translate(-13.486 -421.082)" fill="#020202"/>
          <path id="Trazado_716594" data-name="Trazado 716594" d="M249.446,466.09a.081.081,0,0,1,0-.087.13.13,0,0,1,.077.017l-.076.07" transform="translate(-226.37 -422.915)" fill="#eaeef2"/>
          <path id="Trazado_716595" data-name="Trazado 716595" d="M242.736,285.521a1.9,1.9,0,0,1,.284,1.125c-.009,2.851-.018,5.7,0,8.552a4.537,4.537,0,0,1-1.413,3.41c-.137.135-.329.238-.351.464a.144.144,0,0,1-.072.018l-.107.073-9.561.013c-.087,0-.189.022-.23-.1.011-.117.061-.251-.124-.283a.179.179,0,0,1,0-.046c.257-1.27-.464-2.109-1.243-2.96-.757-.826-1.435-1.723-2.154-2.585-.525-.63-1.059-1.252-1.59-1.877a14.6,14.6,0,0,1-1.084-1.287,1.392,1.392,0,0,1,.81-2.247.933.933,0,0,1,.82.3c.733.875,1.444,1.77,2.2,2.626A8.231,8.231,0,0,0,230.06,292a.642.642,0,0,0,1.05-.43,4.377,4.377,0,0,0,.044-.733q.017-5.324.031-10.648a.944.944,0,0,1,.778-1.025,1.139,1.139,0,0,1,1.293.61,1.7,1.7,0,0,1,.177.781q-.009,2.9,0,5.81c0,.693.489,1.024,1.033.718a.69.69,0,0,0,.342-.6,1.128,1.128,0,0,1,2.169-.41c.305.659.8.789,1.238.472a.9.9,0,0,0,.3-.433,1.009,1.009,0,0,1,1.02-.692,1.13,1.13,0,0,1,1.152.715c.264.554.594.717,1.06.482a.876.876,0,0,0,.444-.552.748.748,0,0,1,.544-.543" transform="translate(-203.995 -253.329)" fill="#ffb88c"/>
          <path id="Trazado_716596" data-name="Trazado 716596" d="M72.954,307.895c-3.164,0-6.328,0-9.492.007-.342,0-.488-.058-.468-.444.035-.689.022-1.382,0-2.073-.007-.287.053-.4.376-.4q9.607.015,19.214,0c.276,0,.374.059.365.353-.022.721-.027,1.444,0,2.165.013.341-.108.4-.416.394-3.195-.011-6.389-.007-9.584-.007m-5.261-.756c.537,0,.83-.261.821-.722a.7.7,0,0,0-.794-.66.832.832,0,0,0-.839.759c.012.278.465.625.812.623m8.479,0c.542,0,.835-.254.829-.714a.7.7,0,0,0-.786-.668.818.818,0,0,0-.841.754c0,.277.452.629.8.628m-5.555,0a.7.7,0,0,0,.757-.7.792.792,0,0,0-1.569-.005c-.006.419.317.7.812.7m-5.689,0c.5,0,.831-.291.817-.706a.735.735,0,0,0-.843-.678.694.694,0,0,0-.72.69.658.658,0,0,0,.746.694m8.464,0c.508,0,.831-.261.84-.683a.737.737,0,0,0-.821-.7.7.7,0,0,0-.742.667.659.659,0,0,0,.723.716" transform="translate(-57.168 -276.789)" fill="#eaeef2"/>
          <path id="Trazado_716597" data-name="Trazado 716597" d="M276.351,385.374c.043-.1.1-.181.223-.178.015.026.043.052.042.077,0,.174.1.456-.092.488-.259.045,0-.3-.173-.388" transform="translate(-250.799 -349.581)" fill="#2d6275"/>
          <path id="Trazado_716598" data-name="Trazado 716598" d="M293.443,491.777c.185.031.135.166.124.283-.211-.02-.174-.148-.124-.283" transform="translate(-266.276 -446.307)" fill="#767676"/>
          <path id="Trazado_716599" data-name="Trazado 716599" d="M237.412,357.524c.124-.147.163-.059.188.068-.076.014-.153.032-.188-.068" transform="translate(-215.461 -324.398)" fill="#5cccf2"/>
          <path id="Trazado_716600" data-name="Trazado 716600" d="M323.054,270.374l.108.08c-.066.014-.089-.031-.108-.08" transform="translate(-293.184 -245.375)" fill="#5cccf2"/>
          <path id="Trazado_716601" data-name="Trazado 716601" d="M288.151,269.646c.019-.048.04-.094.106-.075l-.106.075" transform="translate(-261.508 -244.643)" fill="#020202"/>
          <path id="Trazado_716602" data-name="Trazado 716602" d="M401.061,495l.107-.073c-.014.057-.044.089-.107.073" transform="translate(-363.979 -449.164)" fill="#f0936e"/>
          <path id="Trazado_716603" data-name="Trazado 716603" d="M71.48,206.888c-.085-.17-.241-.088-.361-.088q-10.734,0-21.468,0a1.292,1.292,0,0,1-1.049-.285l-.077-.09a1.562,1.562,0,0,1-.457-1.23c.023-.859.032-1.721,0-2.579a1.415,1.415,0,0,1,1.419-1.483c.153.006.307-.005.46-.005H70.815c1.2-.027,1.878.516,1.867,1.866-.006.752.006,1.5,0,2.257a1.481,1.481,0,0,1-.947,1.462c-.084.036-.25.007-.254.176l0,0m-11.089-1.469c3.5,0,7.006,0,10.508.007.32,0,.42-.074.406-.4a18.349,18.349,0,0,1,0-1.935c.028-.454-.085-.591-.569-.59q-10.37.027-20.74.012a2.1,2.1,0,0,1-.23,0c-.244-.027-.318.082-.314.319.012.706.028,1.414-.005,2.12-.019.388.1.48.48.478,3.487-.015,6.975-.009,10.462-.009" transform="translate(-43.622 -182.532)"/>
          <path id="Trazado_716604" data-name="Trazado 716604" d="M124.98,52.188c-.114.56-.713.737-.949,1.2-.054,0-.088.026-.075.088a6.124,6.124,0,0,1-1.761,1.049,5.836,5.836,0,0,1-5.514-.483,7.138,7.138,0,0,1-2.528-2.868c.1-.165.095-.17-.16-.188a4.642,4.642,0,0,0-.222-1.293,5.994,5.994,0,0,1,.742-3.978,6.175,6.175,0,0,1,4.546-3.111,2.781,2.781,0,0,1,1.054.008.64.64,0,0,1,.507.714.824.824,0,0,1-.8.65,4.283,4.283,0,0,0-2.058.539,4.655,4.655,0,0,0-1.91,1.675,4.606,4.606,0,0,0-.741,2.97,5.4,5.4,0,0,0,.784,2.257c.291.415.666.737.961,1.136.028.148.128.182.26.163.131.051.19.224.358.211.017.048.035.092.1.064a4.605,4.605,0,0,0,4.208.232,4.781,4.781,0,0,0,2.114-1.665,3.263,3.263,0,0,0,.792-2.141,2.972,2.972,0,0,1,.1-.851.668.668,0,0,1,.834-.432.8.8,0,0,1,.528.938c-.1.483-.181.968-.27,1.452-.25.036-.1.251-.165.37l-.022.175c-.049.015-.09.036-.07.1l-.392.823c-.115.023-.232.044-.246.194" transform="translate(-103.183 -38.624)"/>
          <path id="Trazado_716605" data-name="Trazado 716605" d="M56.677,373.952a3.39,3.39,0,0,1-.011,4.033,2.239,2.239,0,0,1-1.635.661c-1.612-.01-3.225-.043-4.835,0a2.2,2.2,0,0,1-2.167-2.259,9.58,9.58,0,0,1,.07-1.5,2.1,2.1,0,0,1,2.1-1.612c1.611-.04,3.225-.052,4.834.012a2.057,2.057,0,0,1,1.579.595q-.029.091.063.063m-4.175,3.3v.006c.752,0,1.5-.009,2.257,0,.471.007.952-.057,1.078-.561a2.105,2.105,0,0,0-.159-1.807.707.707,0,0,0-.574-.238c-1.658,0-3.316,0-4.973.011a.66.66,0,0,0-.693.651,8.019,8.019,0,0,0,0,1.287.678.678,0,0,0,.761.648h2.3" transform="translate(-43.581 -338.739)"/>
          <path id="Trazado_716606" data-name="Trazado 716606" d="M164.425,80.49c-.66-.005-1.319-.016-1.979-.013a.919.919,0,0,1-.694-.311.6.6,0,0,1,.474-1.043c.476-.017.459-.238.458-.554,0-1-.009-2,0-2.993,0-.26-.031-.382-.341-.372a.7.7,0,0,1-.782-.686.714.714,0,0,1,.779-.688c.322,0,.645-.007.967,0a.778.778,0,0,1,.767.87c-.027,1.4-.009,2.793-.013,4.19,0,.171.083.2.227.2.371.008.7.108.777.53a.724.724,0,0,1-.552.865l-.093,0" transform="translate(-146.623 -67)"/>
          <path id="Trazado_716607" data-name="Trazado 716607" d="M193.452,48.009c.017-.514.17-.662.69-.668h.184c.588,0,.592,0,.6-.6a1.112,1.112,0,0,1,.3-.826.7.7,0,0,1,.806-.057c.316.148.291.413.306.672a1.951,1.951,0,0,1-.026.362c-.043.332.077.479.432.457a2.066,2.066,0,0,1,.761.064.489.489,0,0,1,.37.493.578.578,0,0,1-.3.646,1.7,1.7,0,0,1-.963.17c-.243-.02-.329.06-.306.3a5.225,5.225,0,0,1,0,.656.591.591,0,0,1-.585.585.61.61,0,0,1-.7-.55c0-.015,0-.031,0-.046-.052-.624-.146-1.142-1.022-.981a.556.556,0,0,1-.55-.68" transform="translate(-175.557 -41.527)"/>
          <path id="Trazado_716608" data-name="Trazado 716608" d="M243.631,129.1c.064-.119-.086-.334.165-.37.155.217.012.3-.165.37" transform="translate(-221.105 -116.825)" fill="#5cccf2"/>
          <path id="Trazado_716609" data-name="Trazado 716609" d="M148.091,150.836c-.133.019-.232-.015-.26-.163.121,0,.246-.008.26.163" transform="translate(-134.162 -136.742)" fill="#5cccf2"/>
          <path id="Trazado_716610" data-name="Trazado 716610" d="M235.742,144.79c.014-.151.131-.171.246-.194.006.177-.11.2-.246.194" transform="translate(-213.945 -131.227)" fill="#5cccf2"/>
          <path id="Trazado_716611" data-name="Trazado 716611" d="M116.907,133.716c.255.018.26.023.16.188-.078-.042-.157-.083-.16-.188" transform="translate(-106.098 -121.353)" fill="#020202"/>
          <path id="Trazado_716612" data-name="Trazado 716612" d="M192.542,145.875l.093,0-.045.111-.048-.108" transform="translate(-174.739 -132.385)" fill="#5cccf2"/>
          <path id="Trazado_716613" data-name="Trazado 716613" d="M53.011,258.443l.077.09c-.055,0-.089-.028-.077-.09" transform="translate(-48.108 -234.547)" fill="#020202"/>
          <path id="Trazado_716614" data-name="Trazado 716614" d="M224.636,159.772c-.013-.062.021-.084.075-.088l-.075.088" transform="translate(-203.864 -144.92)" fill="#5cccf2"/>
          <path id="Trazado_716615" data-name="Trazado 716615" d="M154.62,154.776c-.065.028-.084-.017-.1-.064l.1.064" transform="translate(-140.232 -140.407)" fill="#5cccf2"/>
          <path id="Trazado_716616" data-name="Trazado 716616" d="M268.93,379.84l.048-.061c.058.056-.024.05-.034.076l-.014-.014" transform="translate(-244.065 -344.664)" fill="#5cccf2"/>
          <path id="Trazado_716617" data-name="Trazado 716617" d="M140.957,380.231c-.061.019-.082,0-.063-.063a.108.108,0,0,1,.063.063" transform="translate(-127.861 -345.017)" fill="#5cccf2"/>
          <path id="Trazado_716618" data-name="Trazado 716618" d="M242.585,134.716c-.021-.064.02-.085.07-.1Z" transform="translate(-220.15 -122.169)" fill="#5cccf2"/>
          <path id="Trazado_716619" data-name="Trazado 716619" d="M105.855,314.681c-.347,0-.8-.345-.812-.623a.832.832,0,0,1,.839-.759.7.7,0,0,1,.794.66c.008.462-.285.72-.821.722" transform="translate(-95.33 -284.331)" fill="#020202"/>
          <path id="Trazado_716620" data-name="Trazado 716620" d="M197.693,314.68c-.346,0-.794-.351-.8-.628a.818.818,0,0,1,.841-.754.7.7,0,0,1,.786.668c.006.46-.287.713-.829.714" transform="translate(-178.689 -284.33)" fill="#020202"/>
          <path id="Trazado_716621" data-name="Trazado 716621" d="M137.483,314.681c-.495,0-.817-.283-.812-.7a.792.792,0,0,1,1.569.005.7.7,0,0,1-.757.7" transform="translate(-124.034 -284.329)" fill="#020202"/>
          <path id="Trazado_716622" data-name="Trazado 716622" d="M76.6,314.68a.658.658,0,0,1-.746-.694.694.694,0,0,1,.72-.69.735.735,0,0,1,.843.678c.014.415-.319.7-.817.706" transform="translate(-68.838 -284.329)" fill="#020202"/>
          <path id="Trazado_716623" data-name="Trazado 716623" d="M168.367,314.68a.659.659,0,0,1-.723-.716.7.7,0,0,1,.742-.667.736.736,0,0,1,.821.7c-.009.422-.333.684-.84.683" transform="translate(-152.143 -284.329)" fill="#020202"/>
          <path id="Trazado_716624" data-name="Trazado 716624" d="M73.942,218.876c-3.487,0-6.975-.006-10.462.009-.379,0-.5-.09-.48-.478.034-.705.017-1.413.005-2.12,0-.237.07-.346.314-.319a2.123,2.123,0,0,0,.23,0q10.37,0,20.74-.012c.484,0,.6.136.569.59a18.349,18.349,0,0,0,0,1.935c.014.328-.086.4-.406.4-3.5-.012-7.006-.007-10.508-.007" transform="translate(-57.173 -195.989)" fill="#eaeef2"/>
          <path id="Trazado_716625" data-name="Trazado 716625" d="M66.151,391.067h-2.3a.678.678,0,0,1-.761-.648,8.02,8.02,0,0,1,0-1.287.66.66,0,0,1,.693-.651c1.658-.015,3.316-.013,4.973-.011a.707.707,0,0,1,.574.238,2.105,2.105,0,0,1,.16,1.807c-.125.5-.606.569-1.078.561-.752-.012-1.5,0-2.257,0v-.006" transform="translate(-57.23 -352.55)" fill="#ffca28"/>
        </g>
      </g>
    </g>
  </g>
</svg>
