<svg id="Grupo_1019441" data-name="Grupo 1019441" xmlns="http://www.w3.org/2000/svg" xmlns:xlink="http://www.w3.org/1999/xlink" width="115.415" height="114.613" viewBox="0 0 115.415 114.613">
  <defs>
    <clipPath id="clip-path">
      <rect id="Rectángulo_352992" data-name="Rectángulo 352992" width="47.33" height="56.817" fill="#12263f"/>
    </clipPath>
  </defs>
  <g id="Grupo_156356" data-name="Grupo 156356" transform="translate(0 46.533)">
    <g id="Grupo_156332" data-name="Grupo 156332" transform="translate(0 0)">
      <path id="Trazado_99257" data-name="Trazado 99257" d="M418.506,104.83a2.148,2.148,0,1,1-2.147-2.051A2.1,2.1,0,0,1,418.506,104.83Z" transform="translate(-414.214 -102.779)" fill="#12263f"/>
      <path id="Trazado_116526" data-name="Trazado 116526" d="M418.506,104.83a2.148,2.148,0,1,1-2.147-2.051A2.1,2.1,0,0,1,418.506,104.83Z" transform="translate(-365.616 -102.779)" fill="#12263f"/>
      <path id="Trazado_99258" data-name="Trazado 99258" d="M426.952,104.83a2.148,2.148,0,1,1-2.145-2.051A2.1,2.1,0,0,1,426.952,104.83Z" transform="translate(-412.941 -102.779)" fill="#12263f"/>
      <path id="Trazado_116527" data-name="Trazado 116527" d="M426.952,104.83a2.148,2.148,0,1,1-2.145-2.051A2.1,2.1,0,0,1,426.952,104.83Z" transform="translate(-364.342 -102.779)" fill="#12263f"/>
      <path id="Trazado_99259" data-name="Trazado 99259" d="M435.4,104.83a2.148,2.148,0,1,1-2.145-2.051A2.1,2.1,0,0,1,435.4,104.83Z" transform="translate(-411.667 -102.779)" fill="#12263f"/>
      <path id="Trazado_116531" data-name="Trazado 116531" d="M435.4,104.83a2.148,2.148,0,1,1-2.145-2.051A2.1,2.1,0,0,1,435.4,104.83Z" transform="translate(-363.069 -102.779)" fill="#12263f"/>
      <path id="Trazado_99260" data-name="Trazado 99260" d="M443.845,104.83a2.148,2.148,0,1,1-2.147-2.051A2.1,2.1,0,0,1,443.845,104.83Z" transform="translate(-410.395 -102.779)" fill="#12263f"/>
      <path id="Trazado_116532" data-name="Trazado 116532" d="M443.845,104.83a2.148,2.148,0,1,1-2.147-2.051A2.1,2.1,0,0,1,443.845,104.83Z" transform="translate(-361.796 -102.779)" fill="#12263f"/>
      <path id="Trazado_99261" data-name="Trazado 99261" d="M452.291,104.83a2.148,2.148,0,1,1-2.145-2.051A2.1,2.1,0,0,1,452.291,104.83Z" transform="translate(-409.121 -102.779)" fill="#12263f"/>
    </g>
    <g id="Grupo_156331" data-name="Grupo 156331" transform="translate(0 10.661)">
      <ellipse id="Elipse_3975" data-name="Elipse 3975" cx="2.146" cy="2.052" rx="2.146" ry="2.052" transform="translate(0 0.001)" fill="#12263f"/>
      <ellipse id="Elipse_4742" data-name="Elipse 4742" cx="2.146" cy="2.052" rx="2.146" ry="2.052" transform="translate(48.598 0.001)" fill="#12263f"/>
      <path id="Trazado_99268" data-name="Trazado 99268" d="M426.952,112.338a2.148,2.148,0,1,1-2.145-2.051A2.1,2.1,0,0,1,426.952,112.338Z" transform="translate(-412.941 -110.287)" fill="#12263f"/>
      <path id="Trazado_116528" data-name="Trazado 116528" d="M426.952,112.338a2.148,2.148,0,1,1-2.145-2.051A2.1,2.1,0,0,1,426.952,112.338Z" transform="translate(-364.342 -110.287)" fill="#12263f"/>
      <ellipse id="Elipse_3976" data-name="Elipse 3976" cx="2.146" cy="2.052" rx="2.146" ry="2.052" transform="translate(19.439 0.001)" fill="#12263f"/>
      <ellipse id="Elipse_4743" data-name="Elipse 4743" cx="2.146" cy="2.052" rx="2.146" ry="2.052" transform="translate(68.037 0.001)" fill="#12263f"/>
      <path id="Trazado_99269" data-name="Trazado 99269" d="M443.845,112.338a2.148,2.148,0,1,1-2.147-2.051A2.1,2.1,0,0,1,443.845,112.338Z" transform="translate(-410.395 -110.287)" fill="#12263f"/>
      <path id="Trazado_116533" data-name="Trazado 116533" d="M443.845,112.338a2.148,2.148,0,1,1-2.147-2.051A2.1,2.1,0,0,1,443.845,112.338Z" transform="translate(-361.796 -110.287)" fill="#12263f"/>
      <path id="Trazado_99270" data-name="Trazado 99270" d="M452.291,112.338a2.148,2.148,0,1,1-2.145-2.051A2.1,2.1,0,0,1,452.291,112.338Z" transform="translate(-409.121 -110.287)" fill="#12263f"/>
    </g>
    <g id="Grupo_156330" data-name="Grupo 156330" transform="translate(0 21.324)">
      <path id="Trazado_99274" data-name="Trazado 99274" d="M418.506,119.847a2.148,2.148,0,1,1-2.147-2.053A2.1,2.1,0,0,1,418.506,119.847Z" transform="translate(-414.214 -117.794)" fill="#12263f"/>
      <path id="Trazado_116529" data-name="Trazado 116529" d="M418.506,119.847a2.148,2.148,0,1,1-2.147-2.053A2.1,2.1,0,0,1,418.506,119.847Z" transform="translate(-365.616 -117.794)" fill="#12263f"/>
      <path id="Trazado_99275" data-name="Trazado 99275" d="M426.952,119.847a2.148,2.148,0,1,1-2.145-2.053A2.1,2.1,0,0,1,426.952,119.847Z" transform="translate(-412.941 -117.794)" fill="#12263f"/>
      <path id="Trazado_116530" data-name="Trazado 116530" d="M426.952,119.847a2.148,2.148,0,1,1-2.145-2.053A2.1,2.1,0,0,1,426.952,119.847Z" transform="translate(-364.342 -117.794)" fill="#12263f"/>
      <path id="Trazado_99276" data-name="Trazado 99276" d="M435.4,119.847a2.148,2.148,0,1,1-2.145-2.053A2.1,2.1,0,0,1,435.4,119.847Z" transform="translate(-411.667 -117.794)" fill="#12263f"/>
      <path id="Trazado_116534" data-name="Trazado 116534" d="M435.4,119.847a2.148,2.148,0,1,1-2.145-2.053A2.1,2.1,0,0,1,435.4,119.847Z" transform="translate(-363.069 -117.794)" fill="#12263f"/>
      <path id="Trazado_99277" data-name="Trazado 99277" d="M443.845,119.847a2.148,2.148,0,1,1-2.147-2.053A2.1,2.1,0,0,1,443.845,119.847Z" transform="translate(-410.395 -117.794)" fill="#12263f"/>
      <path id="Trazado_116535" data-name="Trazado 116535" d="M443.845,119.847a2.148,2.148,0,1,1-2.147-2.053A2.1,2.1,0,0,1,443.845,119.847Z" transform="translate(-361.796 -117.794)" fill="#12263f"/>
      <path id="Trazado_99278" data-name="Trazado 99278" d="M452.291,119.847a2.148,2.148,0,1,1-2.145-2.053A2.1,2.1,0,0,1,452.291,119.847Z" transform="translate(-409.121 -117.794)" fill="#12263f"/>
    </g>
    <g id="Grupo_156327" data-name="Grupo 156327" transform="translate(0 53.311)">
      <path id="Trazado_116550" data-name="Trazado 116550" d="M418.506,119.847a2.148,2.148,0,1,1-2.147-2.053A2.1,2.1,0,0,1,418.506,119.847Z" transform="translate(-414.214 -117.794)" fill="#12263f"/>
      <path id="Trazado_116551" data-name="Trazado 116551" d="M418.506,119.847a2.148,2.148,0,1,1-2.147-2.053A2.1,2.1,0,0,1,418.506,119.847Z" transform="translate(-365.616 -117.794)" fill="#12263f"/>
      <path id="Trazado_116552" data-name="Trazado 116552" d="M426.952,119.847a2.148,2.148,0,1,1-2.145-2.053A2.1,2.1,0,0,1,426.952,119.847Z" transform="translate(-412.941 -117.794)" fill="#12263f"/>
      <path id="Trazado_116553" data-name="Trazado 116553" d="M426.952,119.847a2.148,2.148,0,1,1-2.145-2.053A2.1,2.1,0,0,1,426.952,119.847Z" transform="translate(-364.342 -117.794)" fill="#12263f"/>
      <path id="Trazado_116554" data-name="Trazado 116554" d="M435.4,119.847a2.148,2.148,0,1,1-2.145-2.053A2.1,2.1,0,0,1,435.4,119.847Z" transform="translate(-411.667 -117.794)" fill="#12263f"/>
      <path id="Trazado_116555" data-name="Trazado 116555" d="M435.4,119.847a2.148,2.148,0,1,1-2.145-2.053A2.1,2.1,0,0,1,435.4,119.847Z" transform="translate(-363.069 -117.794)" fill="#12263f"/>
      <path id="Trazado_116556" data-name="Trazado 116556" d="M443.845,119.847a2.148,2.148,0,1,1-2.147-2.053A2.1,2.1,0,0,1,443.845,119.847Z" transform="translate(-410.395 -117.794)" fill="#12263f"/>
      <path id="Trazado_116557" data-name="Trazado 116557" d="M443.845,119.847a2.148,2.148,0,1,1-2.147-2.053A2.1,2.1,0,0,1,443.845,119.847Z" transform="translate(-361.796 -117.794)" fill="#12263f"/>
      <path id="Trazado_116558" data-name="Trazado 116558" d="M452.291,119.847a2.148,2.148,0,1,1-2.145-2.053A2.1,2.1,0,0,1,452.291,119.847Z" transform="translate(-409.121 -117.794)" fill="#12263f"/>
    </g>
    <g id="Grupo_156329" data-name="Grupo 156329" transform="translate(0 31.987)">
      <ellipse id="Elipse_3980" data-name="Elipse 3980" cx="2.146" cy="2.052" rx="2.146" ry="2.052" transform="translate(0 0.002)" fill="#12263f"/>
      <ellipse id="Elipse_4744" data-name="Elipse 4744" cx="2.146" cy="2.052" rx="2.146" ry="2.052" transform="translate(48.598 0.002)" fill="#12263f"/>
      <path id="Trazado_99285" data-name="Trazado 99285" d="M426.952,127.355a2.148,2.148,0,1,1-2.145-2.053A2.1,2.1,0,0,1,426.952,127.355Z" transform="translate(-412.941 -125.302)" fill="#12263f"/>
      <path id="Trazado_116536" data-name="Trazado 116536" d="M426.952,127.355a2.148,2.148,0,1,1-2.145-2.053A2.1,2.1,0,0,1,426.952,127.355Z" transform="translate(-364.342 -125.302)" fill="#12263f"/>
      <ellipse id="Elipse_3981" data-name="Elipse 3981" cx="2.146" cy="2.052" rx="2.146" ry="2.052" transform="translate(19.439 0.002)" fill="#12263f"/>
      <ellipse id="Elipse_4745" data-name="Elipse 4745" cx="2.146" cy="2.052" rx="2.146" ry="2.052" transform="translate(68.037 0.002)" fill="#12263f"/>
      <path id="Trazado_99286" data-name="Trazado 99286" d="M443.845,127.355A2.148,2.148,0,1,1,441.7,125.3,2.1,2.1,0,0,1,443.845,127.355Z" transform="translate(-410.395 -125.302)" fill="#12263f"/>
      <path id="Trazado_116537" data-name="Trazado 116537" d="M443.845,127.355A2.148,2.148,0,1,1,441.7,125.3,2.1,2.1,0,0,1,443.845,127.355Z" transform="translate(-361.796 -125.302)" fill="#12263f"/>
      <path id="Trazado_99287" data-name="Trazado 99287" d="M452.291,127.355a2.148,2.148,0,1,1-2.145-2.053A2.1,2.1,0,0,1,452.291,127.355Z" transform="translate(-409.121 -125.302)" fill="#12263f"/>
    </g>
    <g id="Grupo_156326" data-name="Grupo 156326" transform="translate(0 63.975)">
      <ellipse id="Elipse_4754" data-name="Elipse 4754" cx="2.146" cy="2.052" rx="2.146" ry="2.052" transform="translate(0 0.001)" fill="#12263f"/>
      <ellipse id="Elipse_4750" data-name="Elipse 4750" cx="2.146" cy="2.052" rx="2.146" ry="2.052" transform="translate(48.598 0.001)" fill="#12263f"/>
      <path id="Trazado_116548" data-name="Trazado 116548" d="M426.952,127.355a2.148,2.148,0,1,1-2.145-2.053A2.1,2.1,0,0,1,426.952,127.355Z" transform="translate(-412.941 -125.302)" fill="#12263f"/>
      <path id="Trazado_116542" data-name="Trazado 116542" d="M426.952,127.355a2.148,2.148,0,1,1-2.145-2.053A2.1,2.1,0,0,1,426.952,127.355Z" transform="translate(-364.342 -125.302)" fill="#12263f"/>
      <ellipse id="Elipse_4751" data-name="Elipse 4751" cx="2.146" cy="2.052" rx="2.146" ry="2.052" transform="translate(19.439 0.001)" fill="#12263f"/>
      <ellipse id="Elipse_4752" data-name="Elipse 4752" cx="2.146" cy="2.052" rx="2.146" ry="2.052" transform="translate(68.037 0.001)" fill="#12263f"/>
      <path id="Trazado_116543" data-name="Trazado 116543" d="M443.845,127.355A2.148,2.148,0,1,1,441.7,125.3,2.1,2.1,0,0,1,443.845,127.355Z" transform="translate(-410.395 -125.302)" fill="#12263f"/>
      <path id="Trazado_116544" data-name="Trazado 116544" d="M443.845,127.355A2.148,2.148,0,1,1,441.7,125.3,2.1,2.1,0,0,1,443.845,127.355Z" transform="translate(-361.796 -125.302)" fill="#12263f"/>
      <path id="Trazado_116545" data-name="Trazado 116545" d="M452.291,127.355a2.148,2.148,0,1,1-2.145-2.053A2.1,2.1,0,0,1,452.291,127.355Z" transform="translate(-409.121 -125.302)" fill="#12263f"/>
    </g>
    <g id="Grupo_156328" data-name="Grupo 156328" transform="translate(0 42.65)">
      <ellipse id="Elipse_3985" data-name="Elipse 3985" cx="2.146" cy="2.052" rx="2.146" ry="2.052" transform="translate(0 0.001)" fill="#12263f"/>
      <ellipse id="Elipse_4746" data-name="Elipse 4746" cx="2.146" cy="2.052" rx="2.146" ry="2.052" transform="translate(48.598 0.001)" fill="#12263f"/>
      <path id="Trazado_99291" data-name="Trazado 99291" d="M426.952,134.863a2.148,2.148,0,1,1-2.145-2.053A2.1,2.1,0,0,1,426.952,134.863Z" transform="translate(-412.941 -132.81)" fill="#12263f"/>
      <path id="Trazado_116538" data-name="Trazado 116538" d="M426.952,134.863a2.148,2.148,0,1,1-2.145-2.053A2.1,2.1,0,0,1,426.952,134.863Z" transform="translate(-364.342 -132.81)" fill="#12263f"/>
      <ellipse id="Elipse_3986" data-name="Elipse 3986" cx="2.146" cy="2.052" rx="2.146" ry="2.052" transform="translate(19.439 0.001)" fill="#12263f"/>
      <ellipse id="Elipse_4747" data-name="Elipse 4747" cx="2.146" cy="2.052" rx="2.146" ry="2.052" transform="translate(68.037 0.001)" fill="#12263f"/>
      <path id="Trazado_99292" data-name="Trazado 99292" d="M443.845,134.863a2.148,2.148,0,1,1-2.147-2.053A2.1,2.1,0,0,1,443.845,134.863Z" transform="translate(-410.395 -132.81)" fill="#12263f"/>
      <path id="Trazado_116539" data-name="Trazado 116539" d="M443.845,134.863a2.148,2.148,0,1,1-2.147-2.053A2.1,2.1,0,0,1,443.845,134.863Z" transform="translate(-361.796 -132.81)" fill="#12263f"/>
      <path id="Trazado_99293" data-name="Trazado 99293" d="M452.291,134.863a2.148,2.148,0,1,1-2.145-2.053A2.1,2.1,0,0,1,452.291,134.863Z" transform="translate(-409.121 -132.81)" fill="#12263f"/>
    </g>
  </g>
  <g id="Grupo_1015138" data-name="Grupo 1015138" transform="translate(12.273 0)">
    <circle id="Elipse_8447" data-name="Elipse 8447" cx="51.571" cy="51.571" r="51.571" transform="translate(0)" fill="#6f88da"/>
    <circle id="Elipse_8448" data-name="Elipse 8448" cx="43.208" cy="43.208" r="43.208" transform="translate(8.363 8.363)" fill="#fff"/>
    <g id="Grupo_1019443" data-name="Grupo 1019443" transform="translate(27.906 19.163)">
      <g id="Grupo_1019442" data-name="Grupo 1019442" clip-path="url(#clip-path)">
        <path id="Trazado_736376" data-name="Trazado 736376" d="M47.33,19.537V56.817H.6A1.383,1.383,0,0,1,0,55.51Q.021,37.879,0,20.247a1.409,1.409,0,0,1,.787-1.376q11-6.4,21.984-12.833a1.532,1.532,0,0,1,1.794,0c1.232.77,2.506,1.474,3.786,2.219C29.191,3.548,31.815.6,36.6.058A8.56,8.56,0,0,1,45.44,5.033c2.052,4.534.8,8.332-2.944,11.476,1.322.774,2.633,1.528,3.928,2.307a8.634,8.634,0,0,1,.906.719M5.436,33.792a4.76,4.76,0,0,1,7.019-6.232,4.813,4.813,0,0,1,.961,6.381c1.929,1.515,3.271,3.708,5.553,4.924-.136-3.332,1.7-5.65,4.444-5.712,3.132-.071,4.944,1.98,4.979,5.705,2.265-1.22,3.609-3.4,5.535-4.921a4.759,4.759,0,1,1,7.982-.142,4.083,4.083,0,0,1,1.667,3.4c.028,1.141.153,2.281.236,3.421.222,3.047.453,6.093.663,9.14.064.93-.061,1.091-.9,1.464v3.666h1.847c.007-.152.017-.268.017-.383q0-16.8.009-33.607a.7.7,0,0,0-.408-.693c-1.436-.819-2.856-1.669-4.3-2.479a1.281,1.281,0,0,0-.756-.092,15,15,0,0,1-1.852.334c-3.252.038-6.505.029-9.758.022a.939.939,0,0,1,.02-1.877c.966-.017,1.932,0,2.9-.007.139,0,.277-.028.489-.052a9.3,9.3,0,0,1-3.2-5.153,1.022,1.022,0,0,0-.462-.547c-1.282-.772-2.591-1.5-3.865-2.281a.983.983,0,0,0-1.171,0Q12.772,14.118,2.432,20.125a.965.965,0,0,0-.542.974q.019,16.567.01,33.133v.659H3.8v-.732c0-5.6.018-11.2-.012-16.8a4.1,4.1,0,0,1,1.652-3.564m5.932,21.121V54.16q0-7.542,0-15.084a1,1,0,0,1,1.719-.867c.811.622,1.636,1.226,2.619,1.959.029-.506.221-1.037.044-1.23-1.064-1.161-2.21-2.247-3.335-3.352a.654.654,0,0,0-.847-.092A4.52,4.52,0,0,1,7.2,35.4a.641.641,0,0,0-.843.1,2.065,2.065,0,0,0-.678,1.636q0,8.636,0,17.273v.479h1.9V46.882c0-.138,0-.276,0-.414a.945.945,0,1,1,1.885.014c.007,2.6,0,5.206,0,7.808,0,.206,0,.412,0,.622Zm31.149-5.668c-.093-1.267-.182-2.445-.264-3.623-.2-2.927-.385-5.857-.63-8.781a2.886,2.886,0,0,0-.577-1.251.657.657,0,0,0-.97-.164,4.322,4.322,0,0,1-4.084.157,1.032,1.032,0,0,0-1.379.273c-.883.9-1.781,1.786-2.672,2.678-.625.625-.632.688-.144,1.518.789-.591,1.579-1.176,2.36-1.771.389-.3.777-.553,1.289-.3.548.271.557.761.514,1.268-.18,2.119-.365,4.238-.543,6.357-.1,1.191-.191,2.383-.288,3.606.168.014.281.032.395.032,2.3,0,4.6,0,6.994,0M29.73,40.29c-.657.393-1.26.761-1.869,1.118a7.764,7.764,0,0,1-8.488-.069c-.585-.354-1.174-.7-1.769-1.053-.448,1.087-.448,1.087.316,1.852.78.781,1.547,1.576,2.348,2.336a1.7,1.7,0,0,1,.572,1.349c-.025,2.819-.011,5.639-.011,8.459V54.9h1.9c0-1.543,0-3.057,0-4.57,0-.7.368-1.093.968-1.079.569.014.914.406.917,1.071.006,1.341,0,2.682,0,4.022V54.9h1.9V54.23c0-2.82.01-5.639-.01-8.459a1.582,1.582,0,0,1,.525-1.248c.825-.791,1.621-1.612,2.43-2.421.74-.74.741-.74.274-1.811M37.41,1.9a7.1,7.1,0,1,0,.022,14.2A7.168,7.168,0,0,0,44.49,8.99,7.148,7.148,0,0,0,37.41,1.9m-18.471,53c0-2.965,0-5.877-.009-8.789a.716.716,0,0,0-.207-.451,34.231,34.231,0,0,0-5.046-4.611c-.118-.077-.243-.143-.385-.226V54.9Zm15.12,0V51.205c-.829-.327-.978-.522-.909-1.412.165-2.121.359-4.24.536-6.36.067-.8.12-1.61.187-2.52a7.122,7.122,0,0,0-.6.428c-1.507,1.383-3.02,2.761-4.5,4.172a1.318,1.318,0,0,0-.36.855c-.027,2.662-.016,5.324-.016,7.986V54.9ZM6.638,31.252A2.836,2.836,0,1,0,9.46,28.417a2.88,2.88,0,0,0-2.823,2.835m28.393,0a2.836,2.836,0,1,0,2.823-2.834,2.88,2.88,0,0,0-2.823,2.834M26.5,37.878a2.836,2.836,0,1,0-2.817,2.841A2.875,2.875,0,0,0,26.5,37.878m11.322,13.3H36V54.9h1.823Zm1.968-.036v3.737h1.86V51.146Z" transform="translate(0 -0.001)" fill="#12263f"/>
        <path id="Trazado_736377" data-name="Trazado 736377" d="M19.482,92.327a4.1,4.1,0,0,0-1.652,3.564c.03,5.6.012,11.2.012,16.8v.732h-1.9v-.659q0-16.567-.01-33.133a.965.965,0,0,1,.542-.974Q26.819,72.653,37.135,66.6a.983.983,0,0,1,1.171,0c1.274.784,2.583,1.51,3.865,2.281a1.022,1.022,0,0,1,.462.546,9.3,9.3,0,0,0,3.2,5.154c-.212.023-.35.051-.489.051-.966,0-1.932-.009-2.9.007a.939.939,0,0,0-.02,1.877c3.253.008,6.506.017,9.758-.022a14.982,14.982,0,0,0,1.852-.334,1.28,1.28,0,0,1,.756.092c1.442.81,2.861,1.66,4.3,2.479a.7.7,0,0,1,.408.693q-.014,16.8-.009,33.607c0,.115-.01.231-.017.383H57.62v-3.666c.84-.373.965-.534.9-1.464-.21-3.047-.44-6.093-.663-9.14-.083-1.14-.209-2.279-.237-3.421a4.082,4.082,0,0,0-1.667-3.4,4.762,4.762,0,1,0-7.982.142c-1.926,1.516-3.27,3.7-5.535,4.921-.035-3.726-1.847-5.776-4.979-5.706-2.748.062-4.58,2.381-4.444,5.712-2.282-1.215-3.624-3.408-5.553-4.924a4.761,4.761,0,1,0-7.98-.148M37.73,81.96a9.829,9.829,0,0,0-.654-.784,2.953,2.953,0,0,0-4.788.9,3.5,3.5,0,0,0,.908,4.234c1.24,1.065,2.505,2.1,3.764,3.142a.981.981,0,0,0,1.517,0c1.23-1.016,2.45-2.042,3.677-3.062a3.676,3.676,0,0,0,1.3-2.25,3.4,3.4,0,0,0-1.621-3.466,2.929,2.929,0,0,0-3.607.637,6.913,6.913,0,0,0-.494.654" transform="translate(-14.046 -58.536)" fill="#dee4f0"/>
        <path id="Trazado_736378" data-name="Trazado 736378" d="M53.614,317.156h-1.9v-.622c0-2.6,0-5.206,0-7.808a.945.945,0,1,0-1.885-.014c0,.138,0,.276,0,.414v8.009h-1.9v-.479q0-8.637,0-17.273a2.065,2.065,0,0,1,.678-1.636.641.641,0,0,1,.843-.1,4.52,4.52,0,0,0,4.358.093.654.654,0,0,1,.847.092c1.125,1.1,2.271,2.191,3.335,3.352.177.193-.015.724-.044,1.23-.983-.733-1.808-1.337-2.619-1.959a1,1,0,0,0-1.719.867q.011,7.542,0,15.084v.752" transform="translate(-42.246 -262.244)" fill="#6f88da"/>
        <path id="Trazado_736379" data-name="Trazado 736379" d="M276.251,311.494c-2.392,0-4.693,0-6.994,0-.114,0-.227-.018-.395-.033.1-1.223.188-2.415.288-3.606.178-2.119.363-4.238.543-6.357.043-.507.035-1-.513-1.268-.513-.253-.9,0-1.289.3-.781.6-1.571,1.18-2.36,1.771-.488-.829-.481-.892.144-1.518.892-.892,1.789-1.778,2.672-2.678a1.032,1.032,0,0,1,1.379-.273,4.322,4.322,0,0,0,4.084-.157.657.657,0,0,1,.97.164,2.886,2.886,0,0,1,.577,1.251c.245,2.924.426,5.853.63,8.781.082,1.178.171,2.355.264,3.623" transform="translate(-233.734 -262.25)" fill="#219cd5"/>
        <path id="Trazado_736380" data-name="Trazado 736380" d="M158.3,339.681c.466,1.072.466,1.071-.274,1.811-.809.809-1.6,1.63-2.43,2.421a1.581,1.581,0,0,0-.525,1.249c.02,2.819.01,5.639.009,8.459v.666h-1.9v-.555c0-1.341,0-2.682,0-4.022,0-.665-.349-1.058-.917-1.071-.6-.014-.965.383-.968,1.079-.006,1.513,0,3.026,0,4.57h-1.9v-.614c0-2.82-.013-5.639.011-8.459a1.7,1.7,0,0,0-.572-1.349c-.8-.76-1.567-1.555-2.348-2.336-.764-.765-.764-.765-.316-1.852.594.353,1.184.7,1.769,1.053a7.764,7.764,0,0,0,8.488.069c.609-.356,1.212-.724,1.869-1.118" transform="translate(-128.569 -299.391)" fill="#4adbd1"/>
        <path id="Trazado_736381" data-name="Trazado 736381" d="M262.554,16.027a7.1,7.1,0,1,1-7.115,7.112,7.148,7.148,0,0,1,7.115-7.112m5.186,7.1a5.2,5.2,0,1,0-5.158,5.205,5.183,5.183,0,0,0,5.158-5.205" transform="translate(-225.144 -14.126)" fill="#727997"/>
        <path id="Trazado_736388" data-name="Trazado 736388" d="M156.6,185.193a6.917,6.917,0,0,1,.494-.654,2.929,2.929,0,0,1,3.607-.637,3.4,3.4,0,0,1,1.621,3.466,3.677,3.677,0,0,1-1.3,2.25c-1.226,1.02-2.447,2.046-3.677,3.062a.981.981,0,0,1-1.517,0c-1.259-1.043-2.524-2.077-3.764-3.142a3.5,3.5,0,0,1-.909-4.235,2.953,2.953,0,0,1,4.788-.9,9.875,9.875,0,0,1,.654.784m-.014,5.638c1.12-.935,2.182-1.815,3.236-2.7a1.622,1.622,0,0,0,.556-1.7,1.074,1.074,0,0,0-1.881-.585c-.387.365-.749.757-1.133,1.125a.961.961,0,0,1-1.546.011c-.4-.381-.772-.79-1.177-1.164a1.058,1.058,0,0,0-1.817.482,1.551,1.551,0,0,0,.428,1.733c1.083.941,2.2,1.85,3.333,2.8" transform="translate(-132.917 -161.77)" fill="#12263f"/>
        <path id="Trazado_736389" data-name="Trazado 736389" d="M281.823,37.226a5.2,5.2,0,1,1-5.221-5.2,5.179,5.179,0,0,1,5.221,5.2m-1.891-.035a3.313,3.313,0,1,0-3.278,3.349,3.36,3.36,0,0,0,3.278-3.349" transform="translate(-239.227 -28.223)" fill="#12263f"/>
        <path id="Trazado_736390" data-name="Trazado 736390" d="M170.917,205.186c-1.137-.953-2.249-1.862-3.333-2.8a1.551,1.551,0,0,1-.428-1.733,1.058,1.058,0,0,1,1.817-.482c.405.374.778.783,1.177,1.164a.961.961,0,0,0,1.546-.011c.384-.369.745-.761,1.133-1.125a1.074,1.074,0,0,1,1.881.585,1.622,1.622,0,0,1-.556,1.7c-1.054.89-2.116,1.769-3.236,2.7" transform="translate(-147.247 -176.125)" fill="#ffca28"/>
        <path id="Trazado_736391" data-name="Trazado 736391" d="M293.974,51.232a3.313,3.313,0,1,1-3.345-3.28,3.363,3.363,0,0,1,3.345,3.28" transform="translate(-253.27 -42.264)" fill="#ffca28"/>
      </g>
    </g>
  </g>
</svg>
