<svg id="Grupo_1019451" data-name="Grupo 1019451" xmlns="http://www.w3.org/2000/svg" xmlns:xlink="http://www.w3.org/1999/xlink" width="142.235" height="141.246" viewBox="0 0 142.235 141.246">
  <defs>
    <clipPath id="clip-path">
      <rect id="Rectángulo_353000" data-name="Rectángulo 353000" width="65.844" height="65.833" fill="none"/>
    </clipPath>
  </defs>
  <g id="Grupo_156356" data-name="Grupo 156356" transform="translate(0 57.346)">
    <g id="Grupo_156332" data-name="Grupo 156332" transform="translate(0 0)">
      <path id="Trazado_99257" data-name="Trazado 99257" d="M419.5,105.307a2.647,2.647,0,1,1-2.646-2.528A2.589,2.589,0,0,1,419.5,105.307Z" transform="translate(-414.214 -102.779)" fill="#12263f"/>
      <path id="Trazado_116526" data-name="Trazado 116526" d="M419.5,105.307a2.647,2.647,0,1,1-2.646-2.528A2.589,2.589,0,0,1,419.5,105.307Z" transform="translate(-354.323 -102.779)" fill="#12263f"/>
      <path id="Trazado_99258" data-name="Trazado 99258" d="M427.949,105.307a2.647,2.647,0,1,1-2.643-2.528A2.588,2.588,0,0,1,427.949,105.307Z" transform="translate(-410.682 -102.779)" fill="#12263f"/>
      <path id="Trazado_116527" data-name="Trazado 116527" d="M427.949,105.307a2.647,2.647,0,1,1-2.643-2.528A2.588,2.588,0,0,1,427.949,105.307Z" transform="translate(-350.79 -102.779)" fill="#12263f"/>
      <path id="Trazado_99259" data-name="Trazado 99259" d="M436.4,105.307a2.647,2.647,0,1,1-2.643-2.528A2.588,2.588,0,0,1,436.4,105.307Z" transform="translate(-407.15 -102.779)" fill="#12263f"/>
      <path id="Trazado_116531" data-name="Trazado 116531" d="M436.4,105.307a2.647,2.647,0,1,1-2.643-2.528A2.588,2.588,0,0,1,436.4,105.307Z" transform="translate(-347.259 -102.779)" fill="#12263f"/>
      <path id="Trazado_99260" data-name="Trazado 99260" d="M444.842,105.307a2.647,2.647,0,1,1-2.646-2.528A2.589,2.589,0,0,1,444.842,105.307Z" transform="translate(-403.619 -102.779)" fill="#12263f"/>
      <path id="Trazado_116532" data-name="Trazado 116532" d="M444.842,105.307a2.647,2.647,0,1,1-2.646-2.528A2.589,2.589,0,0,1,444.842,105.307Z" transform="translate(-343.727 -102.779)" fill="#12263f"/>
      <path id="Trazado_99261" data-name="Trazado 99261" d="M453.288,105.307a2.647,2.647,0,1,1-2.643-2.528A2.588,2.588,0,0,1,453.288,105.307Z" transform="translate(-400.086 -102.779)" fill="#12263f"/>
    </g>
    <g id="Grupo_156331" data-name="Grupo 156331" transform="translate(0 13.139)">
      <ellipse id="Elipse_3975" data-name="Elipse 3975" cx="2.645" cy="2.529" rx="2.645" ry="2.529" transform="translate(0 0.001)" fill="#12263f"/>
      <ellipse id="Elipse_4742" data-name="Elipse 4742" cx="2.645" cy="2.529" rx="2.645" ry="2.529" transform="translate(59.891 0.001)" fill="#12263f"/>
      <path id="Trazado_99268" data-name="Trazado 99268" d="M427.949,112.815a2.647,2.647,0,1,1-2.643-2.528A2.59,2.59,0,0,1,427.949,112.815Z" transform="translate(-410.682 -110.287)" fill="#12263f"/>
      <path id="Trazado_116528" data-name="Trazado 116528" d="M427.949,112.815a2.647,2.647,0,1,1-2.643-2.528A2.59,2.59,0,0,1,427.949,112.815Z" transform="translate(-350.79 -110.287)" fill="#12263f"/>
      <ellipse id="Elipse_3976" data-name="Elipse 3976" cx="2.645" cy="2.529" rx="2.645" ry="2.529" transform="translate(23.956 0.001)" fill="#12263f"/>
      <ellipse id="Elipse_4743" data-name="Elipse 4743" cx="2.645" cy="2.529" rx="2.645" ry="2.529" transform="translate(83.848 0.001)" fill="#12263f"/>
      <path id="Trazado_99269" data-name="Trazado 99269" d="M444.842,112.815a2.647,2.647,0,1,1-2.646-2.528A2.591,2.591,0,0,1,444.842,112.815Z" transform="translate(-403.619 -110.287)" fill="#12263f"/>
      <path id="Trazado_116533" data-name="Trazado 116533" d="M444.842,112.815a2.647,2.647,0,1,1-2.646-2.528A2.591,2.591,0,0,1,444.842,112.815Z" transform="translate(-343.727 -110.287)" fill="#12263f"/>
      <path id="Trazado_99270" data-name="Trazado 99270" d="M453.288,112.815a2.647,2.647,0,1,1-2.643-2.528A2.59,2.59,0,0,1,453.288,112.815Z" transform="translate(-400.086 -110.287)" fill="#12263f"/>
    </g>
    <g id="Grupo_156330" data-name="Grupo 156330" transform="translate(0 26.279)">
      <path id="Trazado_99274" data-name="Trazado 99274" d="M419.5,120.325a2.647,2.647,0,1,1-2.646-2.531A2.591,2.591,0,0,1,419.5,120.325Z" transform="translate(-414.214 -117.794)" fill="#12263f"/>
      <path id="Trazado_116529" data-name="Trazado 116529" d="M419.5,120.325a2.647,2.647,0,1,1-2.646-2.531A2.591,2.591,0,0,1,419.5,120.325Z" transform="translate(-354.323 -117.794)" fill="#12263f"/>
      <path id="Trazado_99275" data-name="Trazado 99275" d="M427.949,120.325a2.647,2.647,0,1,1-2.643-2.531A2.59,2.59,0,0,1,427.949,120.325Z" transform="translate(-410.682 -117.794)" fill="#12263f"/>
      <path id="Trazado_116530" data-name="Trazado 116530" d="M427.949,120.325a2.647,2.647,0,1,1-2.643-2.531A2.59,2.59,0,0,1,427.949,120.325Z" transform="translate(-350.79 -117.794)" fill="#12263f"/>
      <path id="Trazado_99276" data-name="Trazado 99276" d="M436.4,120.325a2.647,2.647,0,1,1-2.643-2.531A2.59,2.59,0,0,1,436.4,120.325Z" transform="translate(-407.15 -117.794)" fill="#12263f"/>
      <path id="Trazado_116534" data-name="Trazado 116534" d="M436.4,120.325a2.647,2.647,0,1,1-2.643-2.531A2.59,2.59,0,0,1,436.4,120.325Z" transform="translate(-347.259 -117.794)" fill="#12263f"/>
      <path id="Trazado_99277" data-name="Trazado 99277" d="M444.842,120.325a2.647,2.647,0,1,1-2.646-2.531A2.591,2.591,0,0,1,444.842,120.325Z" transform="translate(-403.619 -117.794)" fill="#12263f"/>
      <path id="Trazado_116535" data-name="Trazado 116535" d="M444.842,120.325a2.647,2.647,0,1,1-2.646-2.531A2.591,2.591,0,0,1,444.842,120.325Z" transform="translate(-343.727 -117.794)" fill="#12263f"/>
      <path id="Trazado_99278" data-name="Trazado 99278" d="M453.288,120.325a2.647,2.647,0,1,1-2.643-2.531A2.59,2.59,0,0,1,453.288,120.325Z" transform="translate(-400.086 -117.794)" fill="#12263f"/>
    </g>
    <g id="Grupo_156327" data-name="Grupo 156327" transform="translate(0 65.7)">
      <path id="Trazado_116550" data-name="Trazado 116550" d="M419.5,120.325a2.647,2.647,0,1,1-2.646-2.531A2.591,2.591,0,0,1,419.5,120.325Z" transform="translate(-414.214 -117.794)" fill="#12263f"/>
      <path id="Trazado_116551" data-name="Trazado 116551" d="M419.5,120.325a2.647,2.647,0,1,1-2.646-2.531A2.591,2.591,0,0,1,419.5,120.325Z" transform="translate(-354.323 -117.794)" fill="#12263f"/>
      <path id="Trazado_116552" data-name="Trazado 116552" d="M427.949,120.325a2.647,2.647,0,1,1-2.643-2.531A2.59,2.59,0,0,1,427.949,120.325Z" transform="translate(-410.682 -117.794)" fill="#12263f"/>
      <path id="Trazado_116553" data-name="Trazado 116553" d="M427.949,120.325a2.647,2.647,0,1,1-2.643-2.531A2.59,2.59,0,0,1,427.949,120.325Z" transform="translate(-350.79 -117.794)" fill="#12263f"/>
      <path id="Trazado_116554" data-name="Trazado 116554" d="M436.4,120.325a2.647,2.647,0,1,1-2.643-2.531A2.59,2.59,0,0,1,436.4,120.325Z" transform="translate(-407.15 -117.794)" fill="#12263f"/>
      <path id="Trazado_116555" data-name="Trazado 116555" d="M436.4,120.325a2.647,2.647,0,1,1-2.643-2.531A2.59,2.59,0,0,1,436.4,120.325Z" transform="translate(-347.259 -117.794)" fill="#12263f"/>
      <path id="Trazado_116556" data-name="Trazado 116556" d="M444.842,120.325a2.647,2.647,0,1,1-2.646-2.531A2.591,2.591,0,0,1,444.842,120.325Z" transform="translate(-403.619 -117.794)" fill="#12263f"/>
      <path id="Trazado_116557" data-name="Trazado 116557" d="M444.842,120.325a2.647,2.647,0,1,1-2.646-2.531A2.591,2.591,0,0,1,444.842,120.325Z" transform="translate(-343.727 -117.794)" fill="#12263f"/>
      <path id="Trazado_116558" data-name="Trazado 116558" d="M453.288,120.325a2.647,2.647,0,1,1-2.643-2.531A2.59,2.59,0,0,1,453.288,120.325Z" transform="translate(-400.086 -117.794)" fill="#12263f"/>
    </g>
    <g id="Grupo_156329" data-name="Grupo 156329" transform="translate(0 39.42)">
      <ellipse id="Elipse_3980" data-name="Elipse 3980" cx="2.645" cy="2.529" rx="2.645" ry="2.529" transform="translate(0 0.002)" fill="#12263f"/>
      <ellipse id="Elipse_4744" data-name="Elipse 4744" cx="2.645" cy="2.529" rx="2.645" ry="2.529" transform="translate(59.891 0.002)" fill="#12263f"/>
      <path id="Trazado_99285" data-name="Trazado 99285" d="M427.949,127.833a2.647,2.647,0,1,1-2.643-2.531A2.588,2.588,0,0,1,427.949,127.833Z" transform="translate(-410.682 -125.302)" fill="#12263f"/>
      <path id="Trazado_116536" data-name="Trazado 116536" d="M427.949,127.833a2.647,2.647,0,1,1-2.643-2.531A2.588,2.588,0,0,1,427.949,127.833Z" transform="translate(-350.79 -125.302)" fill="#12263f"/>
      <ellipse id="Elipse_3981" data-name="Elipse 3981" cx="2.645" cy="2.529" rx="2.645" ry="2.529" transform="translate(23.956 0.002)" fill="#12263f"/>
      <ellipse id="Elipse_4745" data-name="Elipse 4745" cx="2.645" cy="2.529" rx="2.645" ry="2.529" transform="translate(83.848 0.002)" fill="#12263f"/>
      <path id="Trazado_99286" data-name="Trazado 99286" d="M444.842,127.833A2.647,2.647,0,1,1,442.2,125.3,2.588,2.588,0,0,1,444.842,127.833Z" transform="translate(-403.619 -125.302)" fill="#12263f"/>
      <path id="Trazado_116537" data-name="Trazado 116537" d="M444.842,127.833A2.647,2.647,0,1,1,442.2,125.3,2.588,2.588,0,0,1,444.842,127.833Z" transform="translate(-343.727 -125.302)" fill="#12263f"/>
      <path id="Trazado_99287" data-name="Trazado 99287" d="M453.288,127.833a2.647,2.647,0,1,1-2.643-2.531A2.588,2.588,0,0,1,453.288,127.833Z" transform="translate(-400.086 -125.302)" fill="#12263f"/>
    </g>
    <g id="Grupo_156326" data-name="Grupo 156326" transform="translate(0 78.842)">
      <ellipse id="Elipse_4754" data-name="Elipse 4754" cx="2.645" cy="2.529" rx="2.645" ry="2.529" transform="translate(0 0.001)" fill="#12263f"/>
      <ellipse id="Elipse_4750" data-name="Elipse 4750" cx="2.645" cy="2.529" rx="2.645" ry="2.529" transform="translate(59.891 0.001)" fill="#12263f"/>
      <path id="Trazado_116548" data-name="Trazado 116548" d="M427.949,127.833a2.647,2.647,0,1,1-2.643-2.531A2.588,2.588,0,0,1,427.949,127.833Z" transform="translate(-410.682 -125.302)" fill="#12263f"/>
      <path id="Trazado_116542" data-name="Trazado 116542" d="M427.949,127.833a2.647,2.647,0,1,1-2.643-2.531A2.588,2.588,0,0,1,427.949,127.833Z" transform="translate(-350.79 -125.302)" fill="#12263f"/>
      <ellipse id="Elipse_4751" data-name="Elipse 4751" cx="2.645" cy="2.529" rx="2.645" ry="2.529" transform="translate(23.956 0.001)" fill="#12263f"/>
      <ellipse id="Elipse_4752" data-name="Elipse 4752" cx="2.645" cy="2.529" rx="2.645" ry="2.529" transform="translate(83.848 0.001)" fill="#12263f"/>
      <path id="Trazado_116543" data-name="Trazado 116543" d="M444.842,127.833A2.647,2.647,0,1,1,442.2,125.3,2.588,2.588,0,0,1,444.842,127.833Z" transform="translate(-403.619 -125.302)" fill="#12263f"/>
      <path id="Trazado_116544" data-name="Trazado 116544" d="M444.842,127.833A2.647,2.647,0,1,1,442.2,125.3,2.588,2.588,0,0,1,444.842,127.833Z" transform="translate(-343.727 -125.302)" fill="#12263f"/>
      <path id="Trazado_116545" data-name="Trazado 116545" d="M453.288,127.833a2.647,2.647,0,1,1-2.643-2.531A2.588,2.588,0,0,1,453.288,127.833Z" transform="translate(-400.086 -125.302)" fill="#12263f"/>
    </g>
    <g id="Grupo_156328" data-name="Grupo 156328" transform="translate(0 52.561)">
      <ellipse id="Elipse_3985" data-name="Elipse 3985" cx="2.645" cy="2.529" rx="2.645" ry="2.529" transform="translate(0 0.001)" fill="#12263f"/>
      <ellipse id="Elipse_4746" data-name="Elipse 4746" cx="2.645" cy="2.529" rx="2.645" ry="2.529" transform="translate(59.891 0.001)" fill="#12263f"/>
      <path id="Trazado_99291" data-name="Trazado 99291" d="M427.949,135.341a2.647,2.647,0,1,1-2.643-2.531A2.588,2.588,0,0,1,427.949,135.341Z" transform="translate(-410.682 -132.81)" fill="#12263f"/>
      <path id="Trazado_116538" data-name="Trazado 116538" d="M427.949,135.341a2.647,2.647,0,1,1-2.643-2.531A2.588,2.588,0,0,1,427.949,135.341Z" transform="translate(-350.79 -132.81)" fill="#12263f"/>
      <ellipse id="Elipse_3986" data-name="Elipse 3986" cx="2.645" cy="2.529" rx="2.645" ry="2.529" transform="translate(23.956 0.001)" fill="#12263f"/>
      <ellipse id="Elipse_4747" data-name="Elipse 4747" cx="2.645" cy="2.529" rx="2.645" ry="2.529" transform="translate(83.848 0.001)" fill="#12263f"/>
      <path id="Trazado_99292" data-name="Trazado 99292" d="M444.842,135.341a2.647,2.647,0,1,1-2.646-2.531A2.588,2.588,0,0,1,444.842,135.341Z" transform="translate(-403.619 -132.81)" fill="#12263f"/>
      <path id="Trazado_116539" data-name="Trazado 116539" d="M444.842,135.341a2.647,2.647,0,1,1-2.646-2.531A2.588,2.588,0,0,1,444.842,135.341Z" transform="translate(-343.727 -132.81)" fill="#12263f"/>
      <path id="Trazado_99293" data-name="Trazado 99293" d="M453.288,135.341a2.647,2.647,0,1,1-2.643-2.531A2.588,2.588,0,0,1,453.288,135.341Z" transform="translate(-400.086 -132.81)" fill="#12263f"/>
    </g>
  </g>
  <g id="Grupo_1015138" data-name="Grupo 1015138" transform="translate(15.125 0)">
    <circle id="Elipse_8447" data-name="Elipse 8447" cx="63.555" cy="63.555" r="63.555" transform="translate(0)" fill="#6f88da"/>
    <circle id="Elipse_8448" data-name="Elipse 8448" cx="53.249" cy="53.249" r="53.249" transform="translate(10.306 10.306)" fill="#fff"/>
    <g id="Grupo_1019457" data-name="Grupo 1019457" transform="translate(30.633 30.639)">
      <g id="Grupo_1019456" data-name="Grupo 1019456" clip-path="url(#clip-path)">
        <path id="Trazado_736394" data-name="Trazado 736394" d="M58.624,65.833H6.171c-.04-.041-.074-.111-.12-.12a7.242,7.242,0,0,1-4.856-3.239A12.7,12.7,0,0,1,0,59.662V55.548a1.615,1.615,0,0,1,1.629-.774c.19.019.386-.018.575.007.469.062.652-.066.639-.6-.041-1.662-.032-3.327,0-4.989.008-.458-.076-.647-.579-.6A2.454,2.454,0,0,1,0,47.834V18.521a2.074,2.074,0,0,1,1.915-.785c5.651.025,11.3.017,16.953.011a5.671,5.671,0,0,1,3.887,1.308c.013.082.024.18.129.18s.116-.1.129-.18a5.818,5.818,0,0,1,1.448-.944c1.678-.618,3.4-.32,5.1-.33a1.251,1.251,0,0,1,1.281,1.335,1.434,1.434,0,0,1-1.573,1.22,22.508,22.508,0,0,0-2.7-.007c-1.5.068-2.434.7-2.421,2.438.044,5.934.017,11.868.017,17.8v.79a7.727,7.727,0,0,1,2.956-.477c3.427.026,6.855.01,10.282.01a3.587,3.587,0,0,0,.385,0c.075-.008.244.069.185-.122-.021-.068-.12-.111-.183-.165l-.1-.093a9.927,9.927,0,0,1-2.364-2.419,11.512,11.512,0,0,1-2.279-5.573c-.026-.27-.163-.342-.415-.372a4.648,4.648,0,0,1-3.448-1.73A4.22,4.22,0,0,1,29.324,25a4.58,4.58,0,0,1,3.461-1.5c.085.025.12,0,.1-.093q.014-3.493.027-6.986c0-1.119-.023-1.067-1.006-1.506C29.638,13.9,27.4,12.831,25.2,11.673l-.133-.093q-.858-.894.072-2.1c.037.01.027.129.1.044l-.088-.062c.153-.407.55-.157.827-.306,1.938-1.046,3.994-1.852,5.934-2.906,1.162-.631,2.411-1.095,3.587-1.719,1.159-.615,2.379-1.114,3.552-1.711,1.83-.931,3.7-1.793,5.545-2.685a1.375,1.375,0,0,1,1.27.041c1.355.666,2.713,1.325,4.069,1.99,1.842.9,3.682,1.813,5.532,2.7,1.914.916,3.8,1.89,5.76,2.718,1.09.461,2.052,1.182,3.183,1.546a1.963,1.963,0,0,1,1.434,2.244c-.066,2.075-.036,4.154,0,6.23.006.354-.2.64-.17.971a1.185,1.185,0,0,1-1.647,1.157c-.362-.175-.733-.469-.742-.867-.044-1.9-.024-3.8-.033-5.7,0-.135.069-.3-.071-.408-1.831.7-3.489,1.737-5.3,2.461a.433.433,0,0,0-.3.476c.026,1.155.023,2.311.031,3.467-.008,1.327-.007,2.654-.03,3.981-.005.308.091.384.395.4a4.56,4.56,0,0,1,3.723,2.2,4.739,4.739,0,0,1-.279,4.485.4.4,0,0,0-.225.394c-.2.171-.4.352-.607.51a3.358,3.358,0,0,1-1.575.767l-.262.093a1.771,1.771,0,0,1-.663.145c-.565-.111-.7.294-.733.648a9.6,9.6,0,0,1-.547,2.1,11.5,11.5,0,0,1-2.783,4.486A12.4,12.4,0,0,1,51.058,41.6,12.559,12.559,0,0,1,46.2,43.059c-.388.031-.448.143-.443.482.018,1.135,0,2.271.008,3.406a1.476,1.476,0,0,1-.849,1.432,1.851,1.851,0,0,1-.933.093q-18.96.009-37.919-.011c-.586,0-.693.162-.681.7q.055,2.505,0,5.013c-.013.533.169.609.642.609q26.9-.017,53.794,0c.522,0,.615-.155.614-.636-.016-6,0-12-.023-18a1.348,1.348,0,0,1,1.043-1.533c.04.056.081.057.123,0l.134-.054c1.163.246,1.294,1.1,1.291,2.092-.016,5.654-.008,11.308-.008,16.962,0,1.136,0,1.115,1.165,1.156,1.211.042,1.62.45,1.653,1.637a16,16,0,0,1-.1,3.114c-.047.2-.091.4-.141.6a7.355,7.355,0,0,1-3.612,4.743,12.062,12.062,0,0,1-2.568.953h-.257a.313.313,0,0,0-.514,0M51.292,38.354c.275-.263.556-.52.824-.789A8.607,8.607,0,0,0,54.9,31.131c.17-.1.118-.251.1-.4V25.593c.016-.1.075-.223-.106-.236-.309.123-.622.235-.926.37q-3.988,1.769-7.974,3.544a1.814,1.814,0,0,1-1.524.039c-1.971-.87-3.932-1.763-5.909-2.619a25.129,25.129,0,0,0-2.945-1.24c-.026-.023-.068-.07-.075-.066-.082.055-.052.133-.031.207q0,2.57,0,5.141l0,.13.012.257-.014.128a3.474,3.474,0,0,0,.211,1.7A12.991,12.991,0,0,0,37.015,36,9.588,9.588,0,0,0,41.3,39.713a9.845,9.845,0,0,0,9.33-.876l.146-.1.369-.288.145-.1M47.593,10.8a.355.355,0,0,0,.009-.5c.145-.577.606-.774,1.107-.924q4.837.008,9.673.014c.123,0,.295.019.359-.05.1-.111-.027-.17-.138-.194C56.282,8.04,53.957,6.94,51.639,5.825c-1.946-.936-3.885-1.889-5.825-2.839a1.348,1.348,0,0,0-1.271.006c-1.4.7-2.792,1.408-4.2,2.092C37.8,6.324,35.235,7.533,32.7,8.79c-1.244.615-2.551,1.1-3.745,1.838a1.422,1.422,0,0,0,.548.312,19.717,19.717,0,0,1,2.154,1.019c1.189.719,2.479,1.246,3.712,1.861,1.48.738,2.99,1.451,4.506,2.134,1.349.608,2.658,1.3,4,1.922.7.322,1.345.775,2.219.2a15.526,15.526,0,0,1,1.789-.92c1.476-.707,2.986-1.343,4.44-2.1.9-.471,1.907-.781,2.781-1.268,1.112-.619,2.27-1.118,3.4-1.68.062-.053.184-.118.177-.157-.045-.226-.239-.111-.358-.111q-4.8,0-9.6.01A1.2,1.2,0,0,1,47.593,10.8M2.571,30.607c0,3.214.014,6.427-.014,9.641,0,.536.126.659.659.657,5.27-.023,10.54-.011,15.811-.016A5.336,5.336,0,0,1,21,41.206c.609.243.606.026.606-.443-.007-6,0-12-.012-18a2.691,2.691,0,0,0-.341-1.44,2.3,2.3,0,0,0-2.162-1c-5.313-.011-10.626,0-15.939-.018-.483,0-.594.116-.59.594.023,3.235.012,6.47.012,9.705M32.953,57.348H20.677q-8.773,0-17.546-.01c-.434,0-.6.08-.571.549a8.046,8.046,0,0,0,.252,2,4.779,4.779,0,0,0,4.261,3.36q25.677.044,51.354.012a4.548,4.548,0,0,0,1.867-.443,5.032,5.032,0,0,0,2.969-4.779c.03-.548-.1-.7-.679-.7q-14.815.033-29.63.016m2.53-37.679c0,.792.048,1.588-.02,2.374a.546.546,0,0,0,.4.65c2.955,1.29,5.914,2.569,8.857,3.886a1.267,1.267,0,0,0,1.194-.069c.851-.411,1.72-.785,2.584-1.168,2.042-.9,4.082-1.811,6.132-2.695a.6.6,0,0,0,.406-.667c-.018-1.584-.006-3.168-.009-4.752,0-.27.079-.6-.231-.738s-.344.227-.5.377a1,1,0,0,1-.215.123c-1.684.957-3.484,1.677-5.2,2.561q-1.37.7-2.765,1.356c-.425.2-.829.457-1.368.19q-3.656-1.81-7.347-3.55a11.2,11.2,0,0,0-1.529-.722c-.35-.105-.39-.034-.386.278.012.856,0,1.712,0,2.568M33.614,45.905c2.548,0,5.1.008,7.643-.006.633,0,1.5.282,1.835-.126.318-.389.091-1.224.1-1.863a.484.484,0,0,1,0-.064c.048-.319-.107-.389-.4-.389-5.481.007-10.962,0-16.443.013a2.1,2.1,0,0,0-2.183,1.794c-.048.447.023.663.582.657,2.954-.034,5.909-.016,8.864-.016m-21.531,0h8.86c.15,0,.3,0,.449,0,.166,0,.25-.088.2-.236a4.227,4.227,0,0,0-.365-1.253,2.368,2.368,0,0,0-2.14-.946q-7.352-.017-14.7,0c-.59,0-1.4-.267-1.712.118-.3.364-.058,1.144-.113,1.735-.045.488.119.6.6.6,2.975-.023,5.95-.012,8.925-.012M32.915,27.817q0-.512,0-1.025c0-.74-.257-.9-.948-.583a2.116,2.116,0,0,0-.484.284,1.73,1.73,0,0,0-.607,1.747,1.688,1.688,0,0,0,1.172,1.185c.659.228.867.034.867-.647q0-.481,0-.961m24.677-.035q0,.545,0,1.09c0,.779,0,.779.738.572.557-.156,1.337-1.019,1.31-1.449a1.9,1.9,0,0,0-1.483-1.883c-.334-.052-.641-.071-.575.452a9.876,9.876,0,0,1,.01,1.217" transform="translate(0 0)" fill="#030404"/>
        <path id="Trazado_736395" data-name="Trazado 736395" d="M454.938,509.977a.313.313,0,0,1,.514,0Z" transform="translate(-396.314 -444.144)" fill="#070807"/>
        <path id="Trazado_736396" data-name="Trazado 736396" d="M97.71,237.444c.428.044.4.361.4.664q0,1.656,0,3.311l-.134.054a.158.158,0,0,0-.122,0A1.349,1.349,0,0,0,96.81,243c.022,6,.007,12,.023,18,0,.481-.092.636-.614.636q-26.9-.023-53.794,0c-.472,0-.654-.076-.642-.609q.06-2.505,0-5.013c-.012-.542.094-.7.681-.7q18.96.031,37.919.011a1.851,1.851,0,0,0,.933-.093,1.476,1.476,0,0,0,.849-1.432c0-1.135.01-2.271-.008-3.406-.005-.339.055-.451.443-.482a12.555,12.555,0,0,0,4.855-1.462,12.4,12.4,0,0,0,2.971-2.225,11.5,11.5,0,0,0,2.783-4.486,9.623,9.623,0,0,0,.547-2.1c.038-.354.168-.759.733-.648a1.771,1.771,0,0,0,.663-.145c.106.022.21.037.262-.093a3.357,3.357,0,0,0,1.575-.767c.211-.158.405-.339.607-.51a1.067,1.067,0,0,1,.112-.02" transform="translate(-36.399 -206.847)" fill="#b5e4f4"/>
        <path id="Trazado_736397" data-name="Trazado 736397" d="M19.856,167.9c0-3.235.011-6.47-.012-9.705,0-.477.107-.6.59-.594,5.313.02,10.626.007,15.939.018a2.3,2.3,0,0,1,2.162,1,2.69,2.69,0,0,1,.341,1.44c.011,6,0,12,.012,18,0,.47,0,.687-.606.444a5.335,5.335,0,0,0-1.97-.317c-5.27.005-10.54-.006-15.811.016-.533,0-.664-.12-.659-.657.029-3.213.014-6.427.014-9.641m8.871,4.391a1.392,1.392,0,0,0,.187-.043c.711-.268,1.116-.746,1.095-1.291a1.2,1.2,0,0,0-1.171-1.181,16.766,16.766,0,0,0-4.5.035c-.922.158-1.091.531-.99,1.427a1.312,1.312,0,0,0,1.269,1.054c.04.227.209.236.389.236q1.668,0,3.337,0c.18,0,.349-.009.389-.236m.229-6.193c1.5,0,3,.007,4.5,0a1.264,1.264,0,0,0,1.319-1.012c.094-.857-.121-1.169-.94-1.44a7.262,7.262,0,0,0-2.278-.106c-2.248-.027-4.5-.02-6.746,0-.909.006-1.517.5-1.484,1.309s.532,1.254,1.455,1.257c1.392,0,2.784,0,4.176,0m4.6,3.729a1.228,1.228,0,0,0-1.35,1.164,1.473,1.473,0,0,0,1.311,1.278,1.169,1.169,0,0,0,1.254-1.306c0-.774-.391-1.137-1.215-1.136" transform="translate(-17.285 -137.291)" fill="#fff"/>
        <path id="Trazado_736398" data-name="Trazado 736398" d="M50.234,444.933q14.815,0,29.63-.016c.582,0,.709.154.679.7a5.032,5.032,0,0,1-2.969,4.779,4.547,4.547,0,0,1-1.867.443q-25.677.006-51.354-.012a4.779,4.779,0,0,1-4.261-3.36,8.047,8.047,0,0,1-.252-2c-.026-.469.137-.551.571-.549q8.773.022,17.547.01Zm-.145,4.243c.921,0,1.842,0,2.763,0a1.3,1.3,0,0,0,1.458-1.233,1.259,1.259,0,0,0-1.29-1.324c-1.927-.039-3.856-.035-5.783,0-.777.014-1.2.589-1.158,1.416a1.2,1.2,0,0,0,1.311,1.14c.9,0,1.8,0,2.7,0" transform="translate(-17.281 -387.585)" fill="#ced0df"/>
        <path id="Trazado_736399" data-name="Trazado 736399" d="M244.431,28.507c-.5.15-.962.347-1.107.924q0,.251-.009.5a1.2,1.2,0,0,0,1.133,1.049c.223.191.491.108.739.109,2.776.006,5.552,0,8.328.01.238,0,.518-.118.713.14-1.133.562-2.291,1.061-3.4,1.68-.874.487-1.877.8-2.781,1.268-1.454.758-2.964,1.394-4.44,2.1a15.527,15.527,0,0,0-1.789.92c-.873.572-1.522.119-2.219-.2-1.344-.62-2.653-1.314-4-1.922-1.516-.683-3.026-1.4-4.506-2.134-1.233-.614-2.523-1.141-3.712-1.861a19.7,19.7,0,0,0-2.154-1.019,1.423,1.423,0,0,1-.548-.312c1.193-.735,2.5-1.222,3.745-1.838,2.539-1.257,5.1-2.466,7.649-3.707,1.405-.685,2.8-1.391,4.2-2.092a1.348,1.348,0,0,1,1.271-.006c1.94.95,3.878,1.9,5.825,2.839,2.318,1.115,4.643,2.215,6.965,3.322-.185.225-.438.111-.655.112-2.858.009-5.717,0-8.575.011-.221,0-.471-.1-.664.108m-3.517.015a1.166,1.166,0,0,0-1.223,1.219A1.2,1.2,0,0,0,241,30.975a1.329,1.329,0,0,0,1.257-1.248,1.214,1.214,0,0,0-1.341-1.2" transform="translate(-195.722 -19.13)" fill="#6183c1"/>
        <path id="Trazado_736400" data-name="Trazado 736400" d="M275.324,202.155v-5.141l.106-.141a25.145,25.145,0,0,1,2.945,1.24c1.977.856,3.938,1.749,5.909,2.619a1.815,1.815,0,0,0,1.524-.039q3.986-1.773,7.974-3.544c.3-.135.617-.247.926-.37l.106.236q0,2.572,0,5.143c-.125.109-.1.254-.1.4a8.607,8.607,0,0,1-2.784,6.433c-.269.269-.549.527-.824.789-.093-.035-.118.032-.145.1l-.369.288c-.094-.034-.119.033-.146.1a9.845,9.845,0,0,1-9.33.876,9.588,9.588,0,0,1-4.286-3.712,12.986,12.986,0,0,1-1.294-3.057,3.475,3.475,0,0,1-.211-1.7c.016-.011.046-.025.045-.034a.517.517,0,0,0-.031-.095l-.012-.257c.014-.013.041-.03.039-.038a.561.561,0,0,0-.042-.092" transform="translate(-239.815 -171.422)" fill="#fbb996"/>
        <path id="Trazado_736401" data-name="Trazado 736401" d="M275.188,130.938c0-.856.008-1.712,0-2.568,0-.312.036-.383.386-.278a11.21,11.21,0,0,1,1.529.722q3.69,1.74,7.347,3.55c.539.267.943.007,1.368-.19.931-.432,1.852-.887,2.765-1.356,1.72-.883,3.52-1.6,5.2-2.561a.994.994,0,0,0,.214-.123c.152-.15.185-.511.5-.377s.231.469.231.739c0,1.584-.009,3.168.009,4.752a.6.6,0,0,1-.406.668c-2.05.884-4.09,1.792-6.132,2.695-.864.382-1.733.757-2.584,1.168a1.267,1.267,0,0,1-1.194.069c-2.943-1.316-5.9-2.6-8.857-3.886a.546.546,0,0,1-.4-.65c.068-.786.02-1.582.022-2.374" transform="translate(-239.704 -111.27)" fill="#3b4c9b"/>
        <path id="Trazado_736402" data-name="Trazado 736402" d="M196.917,339.7c-2.955,0-5.91-.018-8.864.016-.559.006-.63-.21-.582-.657a2.1,2.1,0,0,1,2.183-1.794c5.481-.017,10.962-.006,16.443-.013.3,0,.45.07.4.389a.5.5,0,0,0,0,.064c-.013.639.214,1.474-.1,1.863-.333.407-1.2.122-1.835.126-2.548.014-5.1.006-7.643.006" transform="translate(-163.302 -293.792)" fill="#ff9f2b"/>
        <path id="Trazado_736403" data-name="Trazado 736403" d="M29.132,339.159c-2.975,0-5.95-.012-8.925.012-.478,0-.641-.109-.6-.6.054-.592-.185-1.371.112-1.735.314-.384,1.122-.116,1.712-.118q7.352-.015,14.7,0a2.368,2.368,0,0,1,2.14.946,4.224,4.224,0,0,1,.365,1.253c.047.148-.036.239-.2.236-.15,0-.3,0-.449,0H29.132" transform="translate(-17.049 -293.253)" fill="#ff9f2b"/>
        <path id="Trazado_736404" data-name="Trazado 736404" d="M446.906,148.671a4.772,4.772,0,0,1,3.849,3.214,12.438,12.438,0,0,1,.239,3.367,4.559,4.559,0,0,0-3.723-2.2c-.3-.017-.4-.092-.395-.4.023-1.327.022-2.654.03-3.981" transform="translate(-389.291 -129.513)" fill="#b5e4f4"/>
        <path id="Trazado_736405" data-name="Trazado 736405" d="M241.346,203.956q0,.48,0,.961c0,.681-.208.875-.868.647a1.688,1.688,0,0,1-1.172-1.185,1.73,1.73,0,0,1,.607-1.747,2.118,2.118,0,0,1,.484-.284c.691-.318.948-.157.948.583q0,.513,0,1.025" transform="translate(-208.431 -176.138)" fill="#fbb996"/>
        <path id="Trazado_736406" data-name="Trazado 736406" d="M446.8,204.148a9.878,9.878,0,0,0-.01-1.217c-.066-.524.241-.5.576-.452a1.9,1.9,0,0,1,1.483,1.883c.027.43-.753,1.293-1.31,1.449-.738.206-.738.206-.738-.572q0-.545,0-1.09" transform="translate(-389.211 -176.365)" fill="#fbb996"/>
        <path id="Trazado_736407" data-name="Trazado 736407" d="M378,71.212c.193-.206.443-.107.664-.108,2.858-.008,5.717,0,8.575-.011.217,0,.47.113.655-.112.11.024.24.083.138.194-.064.069-.235.051-.359.051q-4.837,0-9.673-.014" transform="translate(-329.292 -61.834)" fill="#1c3158"/>
        <path id="Trazado_736408" data-name="Trazado 736408" d="M387.911,91.965c-.195-.258-.474-.139-.713-.14-2.776-.009-5.552,0-8.328-.01-.248,0-.516.082-.739-.109q4.8-.008,9.6-.01c.119,0,.313-.116.358.111.008.039-.114.1-.177.157" transform="translate(-329.406 -79.856)" fill="#2b4b8c"/>
        <path id="Trazado_736409" data-name="Trazado 736409" d="M475.029,234.92a1.076,1.076,0,0,0-.112.02.4.4,0,0,1,.225-.394c.075.158-.074.249-.113.373" transform="translate(-413.719 -204.323)" fill="#0a0a09"/>
        <path id="Trazado_736410" data-name="Trazado 736410" d="M176.586,147.87h.258c-.013.082-.024.18-.129.18s-.116-.1-.129-.18" transform="translate(-153.831 -128.815)" fill="#0a0a09"/>
        <path id="Trazado_736411" data-name="Trazado 736411" d="M369.34,80.438q0-.251.009-.5a.355.355,0,0,1-.009.5" transform="translate(-321.747 -69.635)" fill="#0a0a09"/>
        <path id="Trazado_736412" data-name="Trazado 736412" d="M426.005,238.914c-.008-.142-.028-.287.1-.4.022.145.073.3-.1.4" transform="translate(-371.105 -207.782)" fill="#e19e7d"/>
        <path id="Trazado_736413" data-name="Trazado 736413" d="M456.223,247.514c-.052.131-.156.115-.262.093Z" transform="translate(-397.206 -215.619)" fill="#0a0a09"/>
        <path id="Trazado_736414" data-name="Trazado 736414" d="M426.087,197.014l-.106-.236c.181.013.122.134.106.236" transform="translate(-371.089 -171.421)" fill="#e19e7d"/>
        <path id="Trazado_736415" data-name="Trazado 736415" d="M275.507,197.064l-.106.141c-.022-.074-.051-.152.031-.207.007,0,.049.043.075.066" transform="translate(-239.892 -171.613)" fill="#e19e7d"/>
        <path id="Trazado_736416" data-name="Trazado 736416" d="M275.583,241.505a.509.509,0,0,1,.031.095c0,.009-.029.022-.045.034l.014-.128" transform="translate(-240.059 -210.385)" fill="#e19e7d"/>
        <path id="Trazado_736417" data-name="Trazado 736417" d="M476.908,268.618a.158.158,0,0,1,.123,0c-.042.055-.083.053-.123,0" transform="translate(-415.453 -233.994)" fill="#070807"/>
        <path id="Trazado_736418" data-name="Trazado 736418" d="M275.56,238.5a.561.561,0,0,1,.042.092c0,.009-.025.025-.039.038q0-.065,0-.13" transform="translate(-240.051 -207.768)" fill="#e19e7d"/>
        <path id="Trazado_736419" data-name="Trazado 736419" d="M396.919,297.674c.027-.065.052-.132.145-.1l-.145.1" transform="translate(-345.772 -259.222)" fill="#070807"/>
        <path id="Trazado_736420" data-name="Trazado 736420" d="M392.919,300.663c.027-.065.053-.132.146-.1Z" transform="translate(-342.287 -261.826)" fill="#070807"/>
        <path id="Trazado_736421" data-name="Trazado 736421" d="M292.569,314.441c-.094.035-.118-.008-.1-.093l.1.093" transform="translate(-254.774 -273.841)" fill="#070807"/>
        <path id="Trazado_736422" data-name="Trazado 736422" d="M254.425,181.751l.1-.093c.018.088-.017.118-.1.093" transform="translate(-221.64 -158.249)" fill="#fdfdfd"/>
        <path id="Trazado_736423" data-name="Trazado 736423" d="M194.63,89.961c-.094.04-.116-.022-.133-.093l.133.093" transform="translate(-169.434 -78.288)" fill="#0a0a09"/>
        <path id="Trazado_736424" data-name="Trazado 736424" d="M195.07,73.434l.088.062c-.077.084-.066-.035-.1-.044l.016-.017" transform="translate(-169.919 -63.971)" fill="#0a0a09"/>
        <path id="Trazado_736425" data-name="Trazado 736425" d="M492.077,178.643a1.242,1.242,0,0,1,1.353,1.247,1.523,1.523,0,0,1-1.339,1.326,1.34,1.34,0,0,1-1.228-1.371c-.005-.9.3-1.2,1.214-1.2" transform="translate(-427.61 -155.623)" fill="#0a0a09"/>
        <path id="Trazado_736426" data-name="Trazado 736426" d="M52.495,205.973c-1.392,0-2.784,0-4.176,0-.923,0-1.422-.459-1.455-1.257s.575-1.3,1.484-1.309c2.249-.015,4.5-.022,6.746,0a7.269,7.269,0,0,1,2.278.106c.818.271,1.034.583.94,1.44a1.264,1.264,0,0,1-1.319,1.012c-1.5.01-3,0-4.5,0" transform="translate(-40.824 -177.166)" fill="#030404"/>
        <path id="Trazado_736427" data-name="Trazado 736427" d="M48.113,253.684a1.312,1.312,0,0,1-1.269-1.054c-.1-.9.069-1.269.99-1.427a16.756,16.756,0,0,1,4.5-.035,1.2,1.2,0,0,1,1.171,1.181c.021.544-.383,1.023-1.095,1.291a1.387,1.387,0,0,1-.187.043Z" transform="translate(-40.785 -218.686)" fill="#070807"/>
        <path id="Trazado_736428" data-name="Trazado 736428" d="M117.123,252.479c.824,0,1.212.362,1.215,1.136a1.169,1.169,0,0,1-1.254,1.306,1.473,1.473,0,0,1-1.311-1.278,1.228,1.228,0,0,1,1.35-1.164" transform="translate(-100.854 -219.944)" fill="#030404"/>
        <path id="Trazado_736429" data-name="Trazado 736429" d="M56.866,271.6H60.98c-.04.227-.209.236-.389.236q-1.668,0-3.337,0c-.18,0-.349-.009-.389-.236" transform="translate(-49.538 -236.602)" fill="#fdfdfd"/>
        <path id="Trazado_736430" data-name="Trazado 736430" d="M227.472,460.481c-.9,0-1.8,0-2.7,0a1.2,1.2,0,0,1-1.311-1.14c-.038-.827.381-1.4,1.158-1.416,1.927-.035,3.856-.039,5.783,0a1.259,1.259,0,0,1,1.29,1.324,1.3,1.3,0,0,1-1.458,1.232c-.921.005-1.842,0-2.763,0" transform="translate(-194.664 -398.891)" fill="#030404"/>
        <path id="Trazado_736431" data-name="Trazado 736431" d="M342.439,72.887a1.214,1.214,0,0,1,1.341,1.2,1.329,1.329,0,0,1-1.257,1.248,1.2,1.2,0,0,1-1.307-1.234,1.166,1.166,0,0,1,1.223-1.219" transform="translate(-297.247 -63.495)" fill="#060708"/>
      </g>
    </g>
  </g>
</svg>
