<svg xmlns="http://www.w3.org/2000/svg" width="101.988" height="101.988" viewBox="0 0 101.988 101.988">
  <g id="Grupo_1018610" data-name="Grupo 1018610" transform="translate(-1303.012 -14335.409)">
    <path id="Trazado_732342" data-name="Trazado 732342" d="M50.994,0A50.994,50.994,0,1,1,0,50.994,50.994,50.994,0,0,1,50.994,0Z" transform="translate(1303.012 14335.409)" fill="#31313c" opacity="0.444" style="mix-blend-mode: multiply;isolation: isolate"/>
    <g id="Grupo_1018593" data-name="Grupo 1018593" transform="translate(1322.922 14356.49)">
      <g id="Grupo_53306" data-name="Grupo 53306">
        <path id="Trazado_99200" data-name="Trazado 99200" d="M415.6,50.886a.693.693,0,1,1-.693-.662A.678.678,0,0,1,415.6,50.886Z" transform="translate(-414.214 -50.224)" fill="#fff"/>
        <path id="Trazado_99201" data-name="Trazado 99201" d="M424.045,50.886a.693.693,0,1,1-.692-.662A.678.678,0,0,1,424.045,50.886Z" transform="translate(-416.428 -50.224)" fill="#fff"/>
        <path id="Trazado_99202" data-name="Trazado 99202" d="M432.491,50.886a.693.693,0,1,1-.692-.662A.678.678,0,0,1,432.491,50.886Z" transform="translate(-418.642 -50.224)" fill="#fff"/>
        <path id="Trazado_99203" data-name="Trazado 99203" d="M440.938,50.886a.693.693,0,1,1-.693-.662A.678.678,0,0,1,440.938,50.886Z" transform="translate(-420.857 -50.224)" fill="#fff"/>
        <path id="Trazado_99204" data-name="Trazado 99204" d="M449.384,50.886a.693.693,0,1,1-.692-.662A.678.678,0,0,1,449.384,50.886Z" transform="translate(-423.071 -50.224)" fill="#fff"/>
        <path id="Trazado_99205" data-name="Trazado 99205" d="M457.83,50.886a.693.693,0,1,1-.692-.662A.678.678,0,0,1,457.83,50.886Z" transform="translate(-425.286 -50.224)" fill="#fff"/>
        <path id="Trazado_99206" data-name="Trazado 99206" d="M466.277,50.886a.693.693,0,1,1-.693-.662A.678.678,0,0,1,466.277,50.886Z" transform="translate(-427.5 -50.224)" fill="#fff"/>
        <path id="Trazado_99207" data-name="Trazado 99207" d="M474.723,50.886a.693.693,0,1,1-.692-.662A.678.678,0,0,1,474.723,50.886Z" transform="translate(-429.715 -50.224)" fill="#fff"/>
        <path id="Trazado_99208" data-name="Trazado 99208" d="M483.169,50.886a.693.693,0,1,1-.692-.662A.678.678,0,0,1,483.169,50.886Z" transform="translate(-431.929 -50.224)" fill="#fff"/>
        <path id="Trazado_99209" data-name="Trazado 99209" d="M491.616,50.886a.693.693,0,1,1-.693-.662A.678.678,0,0,1,491.616,50.886Z" transform="translate(-434.143 -50.224)" fill="#fff"/>
        <path id="Trazado_99210" data-name="Trazado 99210" d="M500.062,50.886a.693.693,0,1,1-.693-.662A.678.678,0,0,1,500.062,50.886Z" transform="translate(-436.358 -50.224)" fill="#fff"/>
      </g>
      <g id="Grupo_53307" data-name="Grupo 53307" transform="translate(0 5.298)">
        <path id="Trazado_99211" data-name="Trazado 99211" d="M415.6,58.394a.693.693,0,1,1-.693-.662A.678.678,0,0,1,415.6,58.394Z" transform="translate(-414.214 -57.732)" fill="#fff"/>
        <path id="Trazado_99212" data-name="Trazado 99212" d="M424.045,58.394a.693.693,0,1,1-.692-.662A.678.678,0,0,1,424.045,58.394Z" transform="translate(-416.428 -57.732)" fill="#fff"/>
        <path id="Trazado_99213" data-name="Trazado 99213" d="M432.491,58.394a.693.693,0,1,1-.692-.662A.678.678,0,0,1,432.491,58.394Z" transform="translate(-418.642 -57.732)" fill="#fff"/>
        <path id="Trazado_99214" data-name="Trazado 99214" d="M440.938,58.394a.693.693,0,1,1-.693-.662A.678.678,0,0,1,440.938,58.394Z" transform="translate(-420.857 -57.732)" fill="#fff"/>
        <path id="Trazado_99215" data-name="Trazado 99215" d="M449.384,58.394a.693.693,0,1,1-.692-.662A.678.678,0,0,1,449.384,58.394Z" transform="translate(-423.071 -57.732)" fill="#fff"/>
        <path id="Trazado_99216" data-name="Trazado 99216" d="M457.83,58.394a.693.693,0,1,1-.692-.662A.678.678,0,0,1,457.83,58.394Z" transform="translate(-425.286 -57.732)" fill="#fff"/>
        <path id="Trazado_99217" data-name="Trazado 99217" d="M466.277,58.394a.693.693,0,1,1-.693-.662A.678.678,0,0,1,466.277,58.394Z" transform="translate(-427.5 -57.732)" fill="#fff"/>
        <path id="Trazado_99218" data-name="Trazado 99218" d="M474.723,58.394a.693.693,0,1,1-.692-.662A.678.678,0,0,1,474.723,58.394Z" transform="translate(-429.715 -57.732)" fill="#fff"/>
        <path id="Trazado_99219" data-name="Trazado 99219" d="M483.169,58.394a.693.693,0,1,1-.692-.662A.678.678,0,0,1,483.169,58.394Z" transform="translate(-431.929 -57.732)" fill="#fff"/>
        <path id="Trazado_99220" data-name="Trazado 99220" d="M491.616,58.394a.693.693,0,1,1-.693-.662A.678.678,0,0,1,491.616,58.394Z" transform="translate(-434.143 -57.732)" fill="#fff"/>
        <path id="Trazado_99221" data-name="Trazado 99221" d="M500.062,58.394a.693.693,0,1,1-.693-.662A.678.678,0,0,1,500.062,58.394Z" transform="translate(-436.358 -57.732)" fill="#fff"/>
      </g>
      <g id="Grupo_53308" data-name="Grupo 53308" transform="translate(0 10.595)">
        <ellipse id="Elipse_3955" data-name="Elipse 3955" cx="0.692" cy="0.662" rx="0.692" ry="0.662" fill="#fff"/>
        <path id="Trazado_99222" data-name="Trazado 99222" d="M424.045,65.9a.693.693,0,1,1-.692-.662A.678.678,0,0,1,424.045,65.9Z" transform="translate(-416.428 -65.24)" fill="#fff"/>
        <ellipse id="Elipse_3956" data-name="Elipse 3956" cx="0.692" cy="0.662" rx="0.692" ry="0.662" transform="translate(12.464)" fill="#fff"/>
        <path id="Trazado_99223" data-name="Trazado 99223" d="M440.938,65.9a.693.693,0,1,1-.693-.662A.678.678,0,0,1,440.938,65.9Z" transform="translate(-420.857 -65.24)" fill="#fff"/>
        <path id="Trazado_99224" data-name="Trazado 99224" d="M449.384,65.9a.693.693,0,1,1-.692-.662A.678.678,0,0,1,449.384,65.9Z" transform="translate(-423.071 -65.24)" fill="#fff"/>
        <ellipse id="Elipse_3957" data-name="Elipse 3957" cx="0.692" cy="0.662" rx="0.692" ry="0.662" transform="translate(31.16)" fill="#fff"/>
        <path id="Trazado_99225" data-name="Trazado 99225" d="M466.277,65.9a.693.693,0,1,1-.693-.662A.679.679,0,0,1,466.277,65.9Z" transform="translate(-427.5 -65.24)" fill="#fff"/>
        <ellipse id="Elipse_3958" data-name="Elipse 3958" cx="0.692" cy="0.662" rx="0.692" ry="0.662" transform="translate(43.624)" fill="#fff"/>
        <ellipse id="Elipse_3959" data-name="Elipse 3959" cx="0.692" cy="0.662" rx="0.692" ry="0.662" transform="translate(49.856)" fill="#fff"/>
        <path id="Trazado_99226" data-name="Trazado 99226" d="M491.616,65.9a.693.693,0,1,1-.693-.662A.679.679,0,0,1,491.616,65.9Z" transform="translate(-434.143 -65.24)" fill="#fff"/>
        <path id="Trazado_99227" data-name="Trazado 99227" d="M500.062,65.9a.693.693,0,1,1-.693-.662A.678.678,0,0,1,500.062,65.9Z" transform="translate(-436.358 -65.24)" fill="#fff"/>
      </g>
      <g id="Grupo_53309" data-name="Grupo 53309" transform="translate(0 15.892)">
        <ellipse id="Elipse_3960" data-name="Elipse 3960" cx="0.692" cy="0.662" rx="0.692" ry="0.662" transform="translate(0 0)" fill="#fff"/>
        <path id="Trazado_99228" data-name="Trazado 99228" d="M424.045,73.41a.693.693,0,1,1-.692-.663A.677.677,0,0,1,424.045,73.41Z" transform="translate(-416.428 -72.747)" fill="#fff"/>
        <ellipse id="Elipse_3961" data-name="Elipse 3961" cx="0.692" cy="0.662" rx="0.692" ry="0.662" transform="translate(12.464 0)" fill="#fff"/>
        <path id="Trazado_99229" data-name="Trazado 99229" d="M440.938,73.41a.693.693,0,1,1-.693-.663A.678.678,0,0,1,440.938,73.41Z" transform="translate(-420.857 -72.747)" fill="#fff"/>
        <path id="Trazado_99230" data-name="Trazado 99230" d="M449.384,73.41a.693.693,0,1,1-.692-.663A.678.678,0,0,1,449.384,73.41Z" transform="translate(-423.071 -72.747)" fill="#fff"/>
        <ellipse id="Elipse_3962" data-name="Elipse 3962" cx="0.692" cy="0.662" rx="0.692" ry="0.662" transform="translate(31.16 0)" fill="#fff"/>
        <path id="Trazado_99231" data-name="Trazado 99231" d="M466.277,73.41a.693.693,0,1,1-.693-.663A.678.678,0,0,1,466.277,73.41Z" transform="translate(-427.5 -72.747)" fill="#fff"/>
        <ellipse id="Elipse_3963" data-name="Elipse 3963" cx="0.692" cy="0.662" rx="0.692" ry="0.662" transform="translate(43.624 0)" fill="#fff"/>
        <ellipse id="Elipse_3964" data-name="Elipse 3964" cx="0.692" cy="0.662" rx="0.692" ry="0.662" transform="translate(49.856 0)" fill="#fff"/>
        <path id="Trazado_99232" data-name="Trazado 99232" d="M491.616,73.41a.693.693,0,1,1-.693-.663A.678.678,0,0,1,491.616,73.41Z" transform="translate(-434.143 -72.747)" fill="#fff"/>
        <path id="Trazado_99233" data-name="Trazado 99233" d="M500.062,73.41a.693.693,0,1,1-.693-.663A.678.678,0,0,1,500.062,73.41Z" transform="translate(-436.358 -72.747)" fill="#fff"/>
      </g>
      <g id="Grupo_53310" data-name="Grupo 53310" transform="translate(0 21.19)">
        <path id="Trazado_99234" data-name="Trazado 99234" d="M415.6,80.918a.693.693,0,1,1-.693-.663A.678.678,0,0,1,415.6,80.918Z" transform="translate(-414.214 -80.255)" fill="#fff"/>
        <path id="Trazado_99235" data-name="Trazado 99235" d="M424.045,80.918a.693.693,0,1,1-.692-.663A.677.677,0,0,1,424.045,80.918Z" transform="translate(-416.428 -80.255)" fill="#fff"/>
        <path id="Trazado_99236" data-name="Trazado 99236" d="M432.491,80.918a.693.693,0,1,1-.692-.663A.678.678,0,0,1,432.491,80.918Z" transform="translate(-418.642 -80.255)" fill="#fff"/>
        <path id="Trazado_99237" data-name="Trazado 99237" d="M440.938,80.918a.693.693,0,1,1-.693-.663A.678.678,0,0,1,440.938,80.918Z" transform="translate(-420.857 -80.255)" fill="#fff"/>
        <path id="Trazado_99238" data-name="Trazado 99238" d="M449.384,80.918a.693.693,0,1,1-.692-.663A.678.678,0,0,1,449.384,80.918Z" transform="translate(-423.071 -80.255)" fill="#fff"/>
        <path id="Trazado_99239" data-name="Trazado 99239" d="M457.83,80.918a.693.693,0,1,1-.692-.663A.678.678,0,0,1,457.83,80.918Z" transform="translate(-425.286 -80.255)" fill="#fff"/>
        <path id="Trazado_99240" data-name="Trazado 99240" d="M466.277,80.918a.693.693,0,1,1-.693-.663A.678.678,0,0,1,466.277,80.918Z" transform="translate(-427.5 -80.255)" fill="#fff"/>
        <path id="Trazado_99241" data-name="Trazado 99241" d="M474.723,80.918a.693.693,0,1,1-.692-.663A.678.678,0,0,1,474.723,80.918Z" transform="translate(-429.715 -80.255)" fill="#fff"/>
        <path id="Trazado_99242" data-name="Trazado 99242" d="M483.169,80.918a.693.693,0,1,1-.692-.663A.678.678,0,0,1,483.169,80.918Z" transform="translate(-431.929 -80.255)" fill="#fff"/>
        <path id="Trazado_99243" data-name="Trazado 99243" d="M491.616,80.918a.693.693,0,1,1-.693-.663A.678.678,0,0,1,491.616,80.918Z" transform="translate(-434.143 -80.255)" fill="#fff"/>
        <path id="Trazado_99244" data-name="Trazado 99244" d="M500.062,80.918a.693.693,0,1,1-.693-.663A.678.678,0,0,1,500.062,80.918Z" transform="translate(-436.358 -80.255)" fill="#fff"/>
      </g>
      <g id="Grupo_53311" data-name="Grupo 53311" transform="translate(0 26.488)">
        <ellipse id="Elipse_3965" data-name="Elipse 3965" cx="0.692" cy="0.662" rx="0.692" ry="0.662" transform="translate(0 0)" fill="#fff"/>
        <path id="Trazado_99245" data-name="Trazado 99245" d="M424.045,88.426a.693.693,0,1,1-.692-.663A.677.677,0,0,1,424.045,88.426Z" transform="translate(-416.428 -87.763)" fill="#fff"/>
        <ellipse id="Elipse_3966" data-name="Elipse 3966" cx="0.692" cy="0.662" rx="0.692" ry="0.662" transform="translate(12.464 0)" fill="#fff"/>
        <path id="Trazado_99246" data-name="Trazado 99246" d="M440.938,88.426a.693.693,0,1,1-.693-.663A.678.678,0,0,1,440.938,88.426Z" transform="translate(-420.857 -87.763)" fill="#fff"/>
        <path id="Trazado_99247" data-name="Trazado 99247" d="M449.384,88.426a.693.693,0,1,1-.692-.663A.678.678,0,0,1,449.384,88.426Z" transform="translate(-423.071 -87.763)" fill="#fff"/>
        <ellipse id="Elipse_3967" data-name="Elipse 3967" cx="0.692" cy="0.662" rx="0.692" ry="0.662" transform="translate(31.16 0)" fill="#fff"/>
        <path id="Trazado_99248" data-name="Trazado 99248" d="M466.277,88.426a.693.693,0,1,1-.693-.663A.678.678,0,0,1,466.277,88.426Z" transform="translate(-427.5 -87.763)" fill="#fff"/>
        <ellipse id="Elipse_3968" data-name="Elipse 3968" cx="0.692" cy="0.662" rx="0.692" ry="0.662" transform="translate(43.624 0)" fill="#fff"/>
        <ellipse id="Elipse_3969" data-name="Elipse 3969" cx="0.692" cy="0.662" rx="0.692" ry="0.662" transform="translate(49.856 0)" fill="#fff"/>
        <path id="Trazado_99249" data-name="Trazado 99249" d="M491.616,88.426a.693.693,0,1,1-.693-.663A.678.678,0,0,1,491.616,88.426Z" transform="translate(-434.143 -87.763)" fill="#fff"/>
        <path id="Trazado_99250" data-name="Trazado 99250" d="M500.062,88.426a.693.693,0,1,1-.693-.663A.678.678,0,0,1,500.062,88.426Z" transform="translate(-436.358 -87.763)" fill="#fff"/>
      </g>
      <g id="Grupo_53312" data-name="Grupo 53312" transform="translate(0 31.785)">
        <ellipse id="Elipse_3970" data-name="Elipse 3970" cx="0.692" cy="0.662" rx="0.692" ry="0.662" fill="#fff"/>
        <path id="Trazado_99251" data-name="Trazado 99251" d="M424.045,95.933a.693.693,0,1,1-.692-.662A.678.678,0,0,1,424.045,95.933Z" transform="translate(-416.428 -95.271)" fill="#fff"/>
        <ellipse id="Elipse_3971" data-name="Elipse 3971" cx="0.692" cy="0.662" rx="0.692" ry="0.662" transform="translate(12.464)" fill="#fff"/>
        <path id="Trazado_99252" data-name="Trazado 99252" d="M440.938,95.933a.693.693,0,1,1-.693-.662A.678.678,0,0,1,440.938,95.933Z" transform="translate(-420.857 -95.271)" fill="#fff"/>
        <path id="Trazado_99253" data-name="Trazado 99253" d="M449.384,95.933a.693.693,0,1,1-.692-.662A.678.678,0,0,1,449.384,95.933Z" transform="translate(-423.071 -95.271)" fill="#fff"/>
        <ellipse id="Elipse_3972" data-name="Elipse 3972" cx="0.692" cy="0.662" rx="0.692" ry="0.662" transform="translate(31.16)" fill="#fff"/>
        <path id="Trazado_99254" data-name="Trazado 99254" d="M466.277,95.933a.693.693,0,1,1-.693-.662A.678.678,0,0,1,466.277,95.933Z" transform="translate(-427.5 -95.271)" fill="#fff"/>
        <ellipse id="Elipse_3973" data-name="Elipse 3973" cx="0.692" cy="0.662" rx="0.692" ry="0.662" transform="translate(43.624)" fill="#fff"/>
        <ellipse id="Elipse_3974" data-name="Elipse 3974" cx="0.692" cy="0.662" rx="0.692" ry="0.662" transform="translate(49.856)" fill="#fff"/>
        <path id="Trazado_99255" data-name="Trazado 99255" d="M491.616,95.933a.693.693,0,1,1-.693-.662A.678.678,0,0,1,491.616,95.933Z" transform="translate(-434.143 -95.271)" fill="#fff"/>
        <path id="Trazado_99256" data-name="Trazado 99256" d="M500.062,95.933a.693.693,0,1,1-.693-.662A.678.678,0,0,1,500.062,95.933Z" transform="translate(-436.358 -95.271)" fill="#fff"/>
      </g>
      <g id="Grupo_53313" data-name="Grupo 53313" transform="translate(0 37.083)">
        <path id="Trazado_99257" data-name="Trazado 99257" d="M415.6,103.441a.693.693,0,1,1-.693-.662A.678.678,0,0,1,415.6,103.441Z" transform="translate(-414.214 -102.779)" fill="#fff"/>
        <path id="Trazado_99258" data-name="Trazado 99258" d="M424.045,103.441a.693.693,0,1,1-.692-.662A.678.678,0,0,1,424.045,103.441Z" transform="translate(-416.428 -102.779)" fill="#fff"/>
        <path id="Trazado_99259" data-name="Trazado 99259" d="M432.491,103.441a.693.693,0,1,1-.692-.662A.678.678,0,0,1,432.491,103.441Z" transform="translate(-418.642 -102.779)" fill="#fff"/>
        <path id="Trazado_99260" data-name="Trazado 99260" d="M440.938,103.441a.693.693,0,1,1-.693-.662A.678.678,0,0,1,440.938,103.441Z" transform="translate(-420.857 -102.779)" fill="#fff"/>
        <path id="Trazado_99261" data-name="Trazado 99261" d="M449.384,103.441a.693.693,0,1,1-.692-.662A.678.678,0,0,1,449.384,103.441Z" transform="translate(-423.071 -102.779)" fill="#fff"/>
        <path id="Trazado_99262" data-name="Trazado 99262" d="M457.83,103.441a.693.693,0,1,1-.692-.662A.678.678,0,0,1,457.83,103.441Z" transform="translate(-425.286 -102.779)" fill="#fff"/>
        <path id="Trazado_99263" data-name="Trazado 99263" d="M466.277,103.441a.693.693,0,1,1-.693-.662A.678.678,0,0,1,466.277,103.441Z" transform="translate(-427.5 -102.779)" fill="#fff"/>
        <path id="Trazado_99264" data-name="Trazado 99264" d="M474.723,103.441a.693.693,0,1,1-.692-.662A.678.678,0,0,1,474.723,103.441Z" transform="translate(-429.715 -102.779)" fill="#fff"/>
        <path id="Trazado_99265" data-name="Trazado 99265" d="M483.169,103.441a.693.693,0,1,1-.692-.662A.678.678,0,0,1,483.169,103.441Z" transform="translate(-431.929 -102.779)" fill="#fff"/>
        <path id="Trazado_99266" data-name="Trazado 99266" d="M491.616,103.441a.693.693,0,1,1-.693-.662A.678.678,0,0,1,491.616,103.441Z" transform="translate(-434.143 -102.779)" fill="#fff"/>
        <path id="Trazado_99267" data-name="Trazado 99267" d="M500.062,103.441a.693.693,0,1,1-.693-.662A.678.678,0,0,1,500.062,103.441Z" transform="translate(-436.358 -102.779)" fill="#fff"/>
      </g>
      <g id="Grupo_53314" data-name="Grupo 53314" transform="translate(0 42.381)">
        <ellipse id="Elipse_3975" data-name="Elipse 3975" cx="0.692" cy="0.662" rx="0.692" ry="0.662" fill="#fff"/>
        <path id="Trazado_99268" data-name="Trazado 99268" d="M424.045,110.949a.693.693,0,1,1-.692-.662A.678.678,0,0,1,424.045,110.949Z" transform="translate(-416.428 -110.287)" fill="#fff"/>
        <ellipse id="Elipse_3976" data-name="Elipse 3976" cx="0.692" cy="0.662" rx="0.692" ry="0.662" transform="translate(12.464)" fill="#fff"/>
        <path id="Trazado_99269" data-name="Trazado 99269" d="M440.938,110.949a.693.693,0,1,1-.693-.662A.678.678,0,0,1,440.938,110.949Z" transform="translate(-420.857 -110.287)" fill="#fff"/>
        <path id="Trazado_99270" data-name="Trazado 99270" d="M449.384,110.949a.693.693,0,1,1-.692-.662A.678.678,0,0,1,449.384,110.949Z" transform="translate(-423.071 -110.287)" fill="#fff"/>
        <ellipse id="Elipse_3977" data-name="Elipse 3977" cx="0.692" cy="0.662" rx="0.692" ry="0.662" transform="translate(31.16)" fill="#fff"/>
        <path id="Trazado_99271" data-name="Trazado 99271" d="M466.277,110.949a.693.693,0,1,1-.693-.662A.679.679,0,0,1,466.277,110.949Z" transform="translate(-427.5 -110.287)" fill="#fff"/>
        <ellipse id="Elipse_3978" data-name="Elipse 3978" cx="0.692" cy="0.662" rx="0.692" ry="0.662" transform="translate(43.624)" fill="#fff"/>
        <ellipse id="Elipse_3979" data-name="Elipse 3979" cx="0.692" cy="0.662" rx="0.692" ry="0.662" transform="translate(49.856)" fill="#fff"/>
        <path id="Trazado_99272" data-name="Trazado 99272" d="M491.616,110.949a.693.693,0,1,1-.693-.662A.679.679,0,0,1,491.616,110.949Z" transform="translate(-434.143 -110.287)" fill="#fff"/>
        <path id="Trazado_99273" data-name="Trazado 99273" d="M500.062,110.949a.693.693,0,1,1-.693-.662A.678.678,0,0,1,500.062,110.949Z" transform="translate(-436.358 -110.287)" fill="#fff"/>
      </g>
      <g id="Grupo_53315" data-name="Grupo 53315" transform="translate(0 47.678)">
        <path id="Trazado_99274" data-name="Trazado 99274" d="M415.6,118.457a.693.693,0,1,1-.693-.663A.678.678,0,0,1,415.6,118.457Z" transform="translate(-414.214 -117.794)" fill="#fff"/>
        <path id="Trazado_99275" data-name="Trazado 99275" d="M424.045,118.457a.693.693,0,1,1-.692-.663A.678.678,0,0,1,424.045,118.457Z" transform="translate(-416.428 -117.794)" fill="#fff"/>
        <path id="Trazado_99276" data-name="Trazado 99276" d="M432.491,118.457a.693.693,0,1,1-.692-.663A.678.678,0,0,1,432.491,118.457Z" transform="translate(-418.642 -117.794)" fill="#fff"/>
        <path id="Trazado_99277" data-name="Trazado 99277" d="M440.938,118.457a.693.693,0,1,1-.693-.663A.678.678,0,0,1,440.938,118.457Z" transform="translate(-420.857 -117.794)" fill="#fff"/>
        <path id="Trazado_99278" data-name="Trazado 99278" d="M449.384,118.457a.693.693,0,1,1-.692-.663A.678.678,0,0,1,449.384,118.457Z" transform="translate(-423.071 -117.794)" fill="#fff"/>
        <path id="Trazado_99279" data-name="Trazado 99279" d="M457.83,118.457a.693.693,0,1,1-.692-.663A.678.678,0,0,1,457.83,118.457Z" transform="translate(-425.286 -117.794)" fill="#fff"/>
        <path id="Trazado_99280" data-name="Trazado 99280" d="M466.277,118.457a.693.693,0,1,1-.693-.663A.679.679,0,0,1,466.277,118.457Z" transform="translate(-427.5 -117.794)" fill="#fff"/>
        <path id="Trazado_99281" data-name="Trazado 99281" d="M474.723,118.457a.693.693,0,1,1-.692-.663A.678.678,0,0,1,474.723,118.457Z" transform="translate(-429.715 -117.794)" fill="#fff"/>
        <path id="Trazado_99282" data-name="Trazado 99282" d="M483.169,118.457a.693.693,0,1,1-.692-.663A.678.678,0,0,1,483.169,118.457Z" transform="translate(-431.929 -117.794)" fill="#fff"/>
        <path id="Trazado_99283" data-name="Trazado 99283" d="M491.616,118.457a.693.693,0,1,1-.693-.663A.679.679,0,0,1,491.616,118.457Z" transform="translate(-434.143 -117.794)" fill="#fff"/>
        <path id="Trazado_99284" data-name="Trazado 99284" d="M500.062,118.457a.693.693,0,1,1-.693-.663A.678.678,0,0,1,500.062,118.457Z" transform="translate(-436.358 -117.794)" fill="#fff"/>
      </g>
      <g id="Grupo_53316" data-name="Grupo 53316" transform="translate(0 52.975)">
        <ellipse id="Elipse_3980" data-name="Elipse 3980" cx="0.692" cy="0.662" rx="0.692" ry="0.662" transform="translate(0 0)" fill="#fff"/>
        <path id="Trazado_99285" data-name="Trazado 99285" d="M424.045,125.965a.693.693,0,1,1-.692-.663A.677.677,0,0,1,424.045,125.965Z" transform="translate(-416.428 -125.302)" fill="#fff"/>
        <ellipse id="Elipse_3981" data-name="Elipse 3981" cx="0.692" cy="0.662" rx="0.692" ry="0.662" transform="translate(12.464 0)" fill="#fff"/>
        <path id="Trazado_99286" data-name="Trazado 99286" d="M440.938,125.965a.693.693,0,1,1-.693-.663A.678.678,0,0,1,440.938,125.965Z" transform="translate(-420.857 -125.302)" fill="#fff"/>
        <path id="Trazado_99287" data-name="Trazado 99287" d="M449.384,125.965a.693.693,0,1,1-.692-.663A.678.678,0,0,1,449.384,125.965Z" transform="translate(-423.071 -125.302)" fill="#fff"/>
        <ellipse id="Elipse_3982" data-name="Elipse 3982" cx="0.692" cy="0.662" rx="0.692" ry="0.662" transform="translate(31.16 0)" fill="#fff"/>
        <path id="Trazado_99288" data-name="Trazado 99288" d="M466.277,125.965a.693.693,0,1,1-.693-.663A.678.678,0,0,1,466.277,125.965Z" transform="translate(-427.5 -125.302)" fill="#fff"/>
        <ellipse id="Elipse_3983" data-name="Elipse 3983" cx="0.692" cy="0.662" rx="0.692" ry="0.662" transform="translate(43.624 0)" fill="#fff"/>
        <ellipse id="Elipse_3984" data-name="Elipse 3984" cx="0.692" cy="0.662" rx="0.692" ry="0.662" transform="translate(49.856 0)" fill="#fff"/>
        <path id="Trazado_99289" data-name="Trazado 99289" d="M491.616,125.965a.693.693,0,1,1-.693-.663A.678.678,0,0,1,491.616,125.965Z" transform="translate(-434.143 -125.302)" fill="#fff"/>
        <path id="Trazado_99290" data-name="Trazado 99290" d="M500.062,125.965a.693.693,0,1,1-.693-.663A.678.678,0,0,1,500.062,125.965Z" transform="translate(-436.358 -125.302)" fill="#fff"/>
      </g>
      <g id="Grupo_53317" data-name="Grupo 53317" transform="translate(0 58.273)">
        <ellipse id="Elipse_3985" data-name="Elipse 3985" cx="0.692" cy="0.662" rx="0.692" ry="0.662" transform="translate(0 0)" fill="#fff"/>
        <path id="Trazado_99291" data-name="Trazado 99291" d="M424.045,133.473a.693.693,0,1,1-.692-.663A.677.677,0,0,1,424.045,133.473Z" transform="translate(-416.428 -132.81)" fill="#fff"/>
        <ellipse id="Elipse_3986" data-name="Elipse 3986" cx="0.692" cy="0.662" rx="0.692" ry="0.662" transform="translate(12.464 0)" fill="#fff"/>
        <path id="Trazado_99292" data-name="Trazado 99292" d="M440.938,133.473a.693.693,0,1,1-.693-.663A.678.678,0,0,1,440.938,133.473Z" transform="translate(-420.857 -132.81)" fill="#fff"/>
        <path id="Trazado_99293" data-name="Trazado 99293" d="M449.384,133.473a.693.693,0,1,1-.692-.663A.678.678,0,0,1,449.384,133.473Z" transform="translate(-423.071 -132.81)" fill="#fff"/>
        <ellipse id="Elipse_3987" data-name="Elipse 3987" cx="0.692" cy="0.662" rx="0.692" ry="0.662" transform="translate(31.16 0)" fill="#fff"/>
        <path id="Trazado_99294" data-name="Trazado 99294" d="M466.277,133.473a.693.693,0,1,1-.693-.663A.678.678,0,0,1,466.277,133.473Z" transform="translate(-427.5 -132.81)" fill="#fff"/>
        <ellipse id="Elipse_3988" data-name="Elipse 3988" cx="0.692" cy="0.662" rx="0.692" ry="0.662" transform="translate(43.624 0)" fill="#fff"/>
        <ellipse id="Elipse_3989" data-name="Elipse 3989" cx="0.692" cy="0.662" rx="0.692" ry="0.662" transform="translate(49.856 0)" fill="#fff"/>
        <path id="Trazado_99295" data-name="Trazado 99295" d="M491.616,133.473a.693.693,0,1,1-.693-.663A.678.678,0,0,1,491.616,133.473Z" transform="translate(-434.143 -132.81)" fill="#fff"/>
        <path id="Trazado_99296" data-name="Trazado 99296" d="M500.062,133.473a.693.693,0,1,1-.693-.663A.678.678,0,0,1,500.062,133.473Z" transform="translate(-436.358 -132.81)" fill="#fff"/>
      </g>
    </g>
  </g>
</svg>
