<svg xmlns="http://www.w3.org/2000/svg" xmlns:xlink="http://www.w3.org/1999/xlink" width="98.955" height="99.541" viewBox="0 0 98.955 99.541">
  <defs>
    <radialGradient id="radial-gradient" cx="0.076" cy="0.019" r="1.465" gradientTransform="translate(0.001)" gradientUnits="objectBoundingBox">
      <stop offset="0" stop-color="#f6f6f7"/>
      <stop offset="0.477" stop-color="#f9f9fa"/>
      <stop offset="0.715" stop-color="#fff"/>
    </radialGradient>
    <filter id="Trazado_40937" x="0" y="0.685" width="98.955" height="98.856" filterUnits="userSpaceOnUse">
      <feOffset dy="7" input="SourceAlpha"/>
      <feGaussianBlur stdDeviation="2.5" result="blur"/>
      <feFlood flood-opacity="0.102"/>
      <feComposite operator="in" in2="blur"/>
      <feComposite in="SourceGraphic"/>
    </filter>
    <clipPath id="clip-path">
      <rect id="Rectángulo_352718" data-name="Rectángulo 352718" width="42.335" height="37.202" fill="none"/>
    </clipPath>
  </defs>
  <g id="Grupo_1019311" data-name="Grupo 1019311" transform="translate(-803.586 -4312.63)">
    <g id="Grupo_1001288" data-name="Grupo 1001288" transform="translate(810 4312.63)">
      <g id="Grupo_18423" data-name="Grupo 18423" transform="translate(0 0)">
        <g id="Grupo_18421" data-name="Grupo 18421">
          <g id="Grupo_18420" data-name="Grupo 18420">
            <g id="Grupo_18419" data-name="Grupo 18419">
              <path id="Trazado_40936" data-name="Trazado 40936" d="M279.664,2188.24a42.521,42.521,0,1,1-42.52-42.519A42.52,42.52,0,0,1,279.664,2188.24Z" transform="translate(-194.623 -2145.721)" fill="#fff"/>
            </g>
          </g>
        </g>
        <g transform="matrix(1, 0, 0, 1, -6.41, 0)" filter="url(#Trazado_40937)">
          <path id="Trazado_40937-2" data-name="Trazado 40937" d="M279.432,2187.987a42.52,42.52,0,1,0-42.52,42.521A42.352,42.352,0,0,0,279.432,2187.987Z" transform="translate(-187.98 -2145.47)" fill="url(#radial-gradient)"/>
        </g>
        <path id="Trazado_40938" data-name="Trazado 40938" d="M267.371,2186.006a32.456,32.456,0,1,0-32.456,32.456A32.336,32.336,0,0,0,267.371,2186.006Z" transform="translate(-192.266 -2143.346)" fill="none" stroke="#4adbd1" stroke-miterlimit="10" stroke-width="4"/>
        <g id="Grupo_18422" data-name="Grupo 18422" transform="translate(7.533 23.872)">
          <path id="Trazado_40939" data-name="Trazado 40939" d="M273.754,2164.488a42.526,42.526,0,0,1-73.209,42.344,42.391,42.391,0,0,0,73.209-42.344Z" transform="translate(-200.545 -2164.488)" fill="#eceef0"/>
        </g>
      </g>
    </g>
    <g id="Grupo_1018779" data-name="Grupo 1018779" transform="translate(830.874 4338.894)">
      <g id="Grupo_1018778" data-name="Grupo 1018778" clip-path="url(#clip-path)">
        <path id="Trazado_733035" data-name="Trazado 733035" d="M42.336,23.722a.25.25,0,0,0-.168.207,6.5,6.5,0,0,1-3.873,5.02,5.7,5.7,0,0,1-2.573.562q-5.684,0-11.368,0a.948.948,0,0,0-.661.22c-.963.778-1.956,1.518-2.939,2.272-.061-.019-.079.025-.1.068l-2.8,2.163c-.059-.02-.077.019-.091.063l-2.8,2.169c-.061-.019-.079.025-.1.068-.393.26-.681.7-1.243.665a.886.886,0,0,1-.89-.861c-.012-1.5-.01-3-.012-4.5,0-.756,0-1.512,0-2.257A8.211,8.211,0,0,1,8.745,28.8a6.7,6.7,0,0,1-3.451-4.056c-.062-.2-.2-.258-.385-.306a6.549,6.549,0,0,1-3.247-2.009A6.806,6.806,0,0,1,.081,19.239a6.98,6.98,0,0,1-.076-1.508c0-3.718,0-7.436,0-11.154A6.066,6.066,0,0,1,1.286,2.894,6.34,6.34,0,0,1,4.118.673a6.534,6.534,0,0,1,2.26-.5c.978-.012,1.956,0,2.934-.019.056,0,.329.147.2-.151h20.67c-.085.2.076.154.167.16.309.02.617.041.927.075a7.17,7.17,0,0,1,2.708.844.5.5,0,0,0,.329.171c.209.164.426.318.627.492A6.658,6.658,0,0,1,36.9,4.465c-.017.058.018.076.065.084.08.186.055.406.184.577-.014.056.008.077.064.065a1.307,1.307,0,0,0,.577.191c.032.095.1.077.169.055A7.679,7.679,0,0,1,39.84,6.528c.017.043.035.086.1.069a7.1,7.1,0,0,1,1.732,2.25l.1.246.249.661c-.015.069-.036.139.059.169.062.308.018.647.257.905ZM15.148,33.891c.106.059.158.033.147-.093a1.116,1.116,0,0,1,.257-.251c.579-.437,1.147-.887,1.719-1.333l1.845-1.38c.105.058.158.033.148-.092a2.154,2.154,0,0,1,.225-.234c.932-.722,1.886-1.419,2.8-2.168a3.243,3.243,0,0,1,2.254-.819c2.795.056,5.591.022,8.387.02,1.037,0,2.077.036,3.111-.023a4.469,4.469,0,0,0,3.648-2.31,5.339,5.339,0,0,0,.726-2.831c.027-3.194.01-6.388.01-9.582a11.837,11.837,0,0,0-.156-2.075,4.525,4.525,0,0,0-2.183-3.092,5.5,5.5,0,0,0-3.054-.665c-6.734-.022-13.469-.012-20.2-.011a27.293,27.293,0,0,0-3.166.089,2.279,2.279,0,0,0-1.016.062A4.126,4.126,0,0,0,8.093,8.618a4.693,4.693,0,0,0-1.11,3.11c.069,3.605.032,7.213.016,10.82a6.41,6.41,0,0,0,.177,1.581,4.647,4.647,0,0,0,4.653,3.392.24.24,0,0,0,.077.028c.03.041.06.04.089,0l1.561-.01a1.068,1.068,0,0,1,.94.392,2.719,2.719,0,0,1,.245.589v5.658l.407-.288M5.025,21q0-.046,0-.093.005-4.484.012-8.967a8.149,8.149,0,0,1,.069-1.319,7.442,7.442,0,0,1,.782-2.163A6.449,6.449,0,0,1,9.079,5.534a7.555,7.555,0,0,1,3.3-.544c7.358-.023,14.716-.012,22.075-.012h.518A4.215,4.215,0,0,0,33.157,2.86a5.815,5.815,0,0,0-3.109-.732q-11.389.015-22.777.006c-.247,0-.5.018-.743.027A4.351,4.351,0,0,0,3.574,3.335,4.8,4.8,0,0,0,2.008,7.09c.033,3.535.011,7.07.01,10.605,0,.226-.035.462-.012.676a4.643,4.643,0,0,0,1.106,2.617A3.706,3.706,0,0,0,5.025,22.3V21" transform="translate(0)"/>
        <path id="Trazado_733036" data-name="Trazado 733036" d="M249.255,386.192c.018-.043.036-.087.1-.068l-.1.068" transform="translate(-228.598 -354.12)" fill="#fff"/>
        <path id="Trazado_733037" data-name="Trazado 733037" d="M214.413,413.1c.014-.044.032-.083.091-.063l-.091.063" transform="translate(-196.644 -378.806)" fill="#fff"/>
        <path id="Trazado_733038" data-name="Trazado 733038" d="M179.418,440.049c.018-.043.036-.087.1-.068l-.1.068" transform="translate(-164.549 -403.514)" fill="#fff"/>
        <path id="Trazado_733039" data-name="Trazado 733039" d="M116.922,104.416a.238.238,0,0,1-.077-.028,5.856,5.856,0,0,1-1.2-1.231,7.05,7.05,0,0,1-1.141-4.041c.062-3.5.012-7,.023-10.494a5.637,5.637,0,0,1,1.749-4.21c.153-.147.361-.263.4-.507a27.289,27.289,0,0,1,3.166-.089c6.734,0,13.469-.011,20.2.011a5.5,5.5,0,0,1,3.054.665,4.525,4.525,0,0,1,2.183,3.092,11.83,11.83,0,0,1,.156,2.075c0,3.194.017,6.388-.01,9.582a5.339,5.339,0,0,1-.726,2.831,4.469,4.469,0,0,1-3.648,2.31c-1.034.059-2.074.023-3.112.023-2.8,0-5.592.036-8.387-.02a3.243,3.243,0,0,0-2.254.819c-.91.749-1.864,1.446-2.8,2.168a2.159,2.159,0,0,0-.225.234c-.059.015-.145-.013-.148.093l-1.845,1.38c0-1.114-.006-2.228.007-3.342,0-.267-.076-.362-.351-.356-.729.016-1.458.006-2.187.006a2.717,2.717,0,0,0-.245-.589,1.068,1.068,0,0,0-.94-.392l-1.561.01h-.089m11.594-7.449V97q-5.078,0-10.157,0a.977.977,0,0,0-.785,1.38,1.069,1.069,0,0,0,1.047.563q9.754-.008,19.508-.007a2.868,2.868,0,0,0,.916,0,1.119,1.119,0,0,0,.785-.968.8.8,0,0,0-.475-.864,2.033,2.033,0,0,0-.919-.142q-4.96,0-9.92,0m.1-6.732v.021h10.124a1.029,1.029,0,0,0,1-.686c.179-.511.119-.83-.266-1.1a1.521,1.521,0,0,0-.892-.21H118.708a2.3,2.3,0,0,0-.371.017.949.949,0,0,0-.832,1.1,1.062,1.062,0,0,0,.985.853q5.063,0,10.125,0m-.019,4.384v.018q5.06,0,10.119,0a1.22,1.22,0,0,0,.653-.194,1.061,1.061,0,0,0,.458-1.025.716.716,0,0,0-.537-.655,2.487,2.487,0,0,0-.757-.124q-9.872.011-19.745.006a1.915,1.915,0,0,0-.248,0c-.677.089-1.095.385-1.036,1.073a1.015,1.015,0,0,0,1.138.9q4.978,0,9.955,0" transform="translate(-105.017 -76.866)" fill="gold"/>
        <path id="Trazado_733040" data-name="Trazado 733040" d="M52.237,25.71c.248-.009.5-.027.743-.027q11.389,0,22.777-.006a5.815,5.815,0,0,1,3.109.732,4.215,4.215,0,0,1,1.813,2.118h-.518c-7.358,0-14.716-.011-22.075.012a7.553,7.553,0,0,0-3.3.544A6.448,6.448,0,0,0,51.6,32.006a7.442,7.442,0,0,0-.782,2.163,8.149,8.149,0,0,0-.07,1.319q-.011,4.483-.012,8.967a.6.6,0,0,0-.072.006,4.708,4.708,0,0,1-.82-2.788q-.007-5.845,0-11.69a3.153,3.153,0,0,1,.05-.572,5.872,5.872,0,0,1,2.343-3.7" transform="translate(-45.709 -23.549)" fill="#4adbd1"/>
        <path id="Trazado_733041" data-name="Trazado 733041" d="M88.92,84.507c-.035.244-.243.36-.4.507a5.637,5.637,0,0,0-1.749,4.21c-.012,3.5.038,7-.023,10.494a7.05,7.05,0,0,0,1.141,4.041,5.857,5.857,0,0,0,1.2,1.231,4.647,4.647,0,0,1-4.653-3.392,6.41,6.41,0,0,1-.177-1.581c.016-3.607.053-7.214-.016-10.82a4.694,4.694,0,0,1,1.11-3.11A4.126,4.126,0,0,1,87.9,84.568a2.279,2.279,0,0,1,1.016-.062" transform="translate(-77.261 -77.467)" fill="#ffe66e"/>
        <path id="Trazado_733042" data-name="Trazado 733042" d="M28.632,26.08a5.872,5.872,0,0,0-2.343,3.7,3.153,3.153,0,0,0-.05.572q-.005,5.845,0,11.69a4.707,4.707,0,0,0,.82,2.788l.071.087v1.3a3.706,3.706,0,0,1-1.914-1.314,4.644,4.644,0,0,1-1.106-2.617c-.022-.214.012-.45.012-.676,0-3.535.023-7.07-.01-10.605a4.8,4.8,0,0,1,1.566-3.755,4.351,4.351,0,0,1,2.954-1.174" transform="translate(-22.104 -23.919)" fill="#2bbab0"/>
        <path id="Trazado_733043" data-name="Trazado 733043" d="M177.867,344.082c.729,0,1.458.01,2.187-.006.274-.006.354.089.351.356-.013,1.114-.006,2.228-.007,3.342-.572.446-1.141.9-1.719,1.333a1.115,1.115,0,0,0-.257.251c-.059.015-.148-.017-.148.093l-.407.288Z" transform="translate(-163.126 -315.561)" fill="#ffe66e"/>
        <path id="Trazado_733044" data-name="Trazado 733044" d="M410.053,12.118c.233-.18.3-.033.329.171a.5.5,0,0,1-.329-.171" transform="translate(-376.07 -11.039)" fill="#fff"/>
        <path id="Trazado_733045" data-name="Trazado 733045" d="M502.781,106.743c.088.008.2-.029.234.093.03.1-.046.138-.132.153l-.1-.246" transform="translate(-461.114 -97.897)" fill="#fff"/>
        <path id="Trazado_733046" data-name="Trazado 733046" d="M455.922,64.148c.1-.132.145-.062.169.055-.069.022-.137.04-.169-.055" transform="translate(-418.138 -58.766)" fill="#fff"/>
        <path id="Trazado_733047" data-name="Trazado 733047" d="M506.872,117.687c.116.023.193.059.059.169-.1-.03-.075-.1-.059-.169" transform="translate(-464.854 -107.934)" fill="#fff"/>
        <path id="Trazado_733048" data-name="Trazado 733048" d="M230.672,371.019c0-.106.089-.077.148-.093.01.125-.043.151-.148.093" transform="translate(-211.555 -340.186)" fill="#381702"/>
        <path id="Trazado_733049" data-name="Trazado 733049" d="M182.78,407.912c0-.11.088-.078.147-.093.011.126-.042.152-.147.093" transform="translate(-167.632 -374.021)" fill="#381702"/>
        <path id="Trazado_733050" data-name="Trazado 733050" d="M480.73,78.767l.1.068c-.06.017-.078-.025-.1-.068" transform="translate(-440.89 -72.239)" fill="#fff"/>
        <path id="Trazado_733051" data-name="Trazado 733051" d="M448.149,61.852l.063.065c-.056.012-.078-.009-.063-.065" transform="translate(-411.005 -56.726)" fill="#fff"/>
        <path id="Trazado_733052" data-name="Trazado 733052" d="M445.142,53.872l.065.084c-.047-.008-.082-.026-.065-.084" transform="translate(-408.247 -49.407)" fill="#fff"/>
        <path id="Trazado_733053" data-name="Trazado 733053" d="M59.839,252.362l-.071-.087a.588.588,0,0,1,.072-.006q0,.047,0,.093" transform="translate(-54.815 -231.362)" fill="#5aaaca"/>
        <path id="Trazado_733054" data-name="Trazado 733054" d="M143.658,332.429h.089c-.03.04-.059.042-.089,0" transform="translate(-131.753 -304.879)" fill="#714c00"/>
        <path id="Trazado_733055" data-name="Trazado 733055" d="M161.406,242.534q4.96,0,9.919,0a2.035,2.035,0,0,1,.919.142.8.8,0,0,1,.475.864,1.119,1.119,0,0,1-.785.968,2.867,2.867,0,0,1-.916,0q-9.754.007-19.508.007a1.069,1.069,0,0,1-1.047-.563.977.977,0,0,1,.785-1.38q5.078,0,10.157,0v-.033" transform="translate(-137.906 -222.433)"/>
        <path id="Trazado_733056" data-name="Trazado 733056" d="M161.672,139.48q-5.063,0-10.125,0a1.062,1.062,0,0,1-.985-.853.949.949,0,0,1,.832-1.1,2.292,2.292,0,0,1,.371-.017h19.879a1.521,1.521,0,0,1,.892.21c.384.268.445.587.266,1.1a1.03,1.03,0,0,1-1.005.686H161.672v-.021" transform="translate(-138.074 -126.111)"/>
        <path id="Trazado_733057" data-name="Trazado 733057" d="M161.7,192.322q-4.978,0-9.955,0a1.015,1.015,0,0,1-1.138-.9c-.058-.688.359-.984,1.036-1.073a1.912,1.912,0,0,1,.248,0q9.872,0,19.745-.006a2.486,2.486,0,0,1,.757.124.716.716,0,0,1,.537.655,1.061,1.061,0,0,1-.458,1.025,1.22,1.22,0,0,1-.653.194q-5.06,0-10.119,0v-.018" transform="translate(-138.123 -174.569)"/>
      </g>
    </g>
  </g>
</svg>
