<svg id="Grupo_1018789" data-name="Grupo 1018789" xmlns="http://www.w3.org/2000/svg" xmlns:xlink="http://www.w3.org/1999/xlink" width="118.261" height="117.439" viewBox="0 0 118.261 117.439">
  <defs>
    <clipPath id="clip-path">
      <rect id="Rectángulo_351072" data-name="Rectángulo 351072" width="43.703" height="49.41" fill="#12263f"/>
    </clipPath>
  </defs>
  <g id="Grupo_156356" data-name="Grupo 156356" transform="translate(0 47.68)">
    <g id="Grupo_156332" data-name="Grupo 156332" transform="translate(0 0)">
      <path id="Trazado_99257" data-name="Trazado 99257" d="M418.612,104.881a2.2,2.2,0,1,1-2.2-2.1A2.153,2.153,0,0,1,418.612,104.881Z" transform="translate(-414.214 -102.779)" fill="#12263f"/>
      <path id="Trazado_116526" data-name="Trazado 116526" d="M418.612,104.881a2.2,2.2,0,1,1-2.2-2.1A2.153,2.153,0,0,1,418.612,104.881Z" transform="translate(-364.418 -102.779)" fill="#12263f"/>
      <path id="Trazado_99258" data-name="Trazado 99258" d="M427.058,104.881a2.2,2.2,0,1,1-2.2-2.1A2.152,2.152,0,0,1,427.058,104.881Z" transform="translate(-412.701 -102.779)" fill="#12263f"/>
      <path id="Trazado_116527" data-name="Trazado 116527" d="M427.058,104.881a2.2,2.2,0,1,1-2.2-2.1A2.152,2.152,0,0,1,427.058,104.881Z" transform="translate(-362.905 -102.779)" fill="#12263f"/>
      <path id="Trazado_99259" data-name="Trazado 99259" d="M435.5,104.881a2.2,2.2,0,1,1-2.2-2.1A2.152,2.152,0,0,1,435.5,104.881Z" transform="translate(-411.188 -102.779)" fill="#12263f"/>
      <path id="Trazado_116531" data-name="Trazado 116531" d="M435.5,104.881a2.2,2.2,0,1,1-2.2-2.1A2.152,2.152,0,0,1,435.5,104.881Z" transform="translate(-361.392 -102.779)" fill="#12263f"/>
      <path id="Trazado_99260" data-name="Trazado 99260" d="M443.951,104.881a2.2,2.2,0,1,1-2.2-2.1A2.152,2.152,0,0,1,443.951,104.881Z" transform="translate(-409.676 -102.779)" fill="#12263f"/>
      <path id="Trazado_116532" data-name="Trazado 116532" d="M443.951,104.881a2.2,2.2,0,1,1-2.2-2.1A2.152,2.152,0,0,1,443.951,104.881Z" transform="translate(-359.879 -102.779)" fill="#12263f"/>
      <path id="Trazado_99261" data-name="Trazado 99261" d="M452.4,104.881a2.2,2.2,0,1,1-2.2-2.1A2.152,2.152,0,0,1,452.4,104.881Z" transform="translate(-408.162 -102.779)" fill="#12263f"/>
    </g>
    <g id="Grupo_156331" data-name="Grupo 156331" transform="translate(0 10.924)">
      <ellipse id="Elipse_3975" data-name="Elipse 3975" cx="2.199" cy="2.103" rx="2.199" ry="2.103" transform="translate(0 0.001)" fill="#12263f"/>
      <ellipse id="Elipse_4742" data-name="Elipse 4742" cx="2.199" cy="2.103" rx="2.199" ry="2.103" transform="translate(49.796 0.001)" fill="#12263f"/>
      <path id="Trazado_99268" data-name="Trazado 99268" d="M427.058,112.389a2.2,2.2,0,1,1-2.2-2.1A2.153,2.153,0,0,1,427.058,112.389Z" transform="translate(-412.701 -110.287)" fill="#12263f"/>
      <path id="Trazado_116528" data-name="Trazado 116528" d="M427.058,112.389a2.2,2.2,0,1,1-2.2-2.1A2.153,2.153,0,0,1,427.058,112.389Z" transform="translate(-362.904 -110.287)" fill="#12263f"/>
      <ellipse id="Elipse_3976" data-name="Elipse 3976" cx="2.199" cy="2.103" rx="2.199" ry="2.103" transform="translate(19.918 0.001)" fill="#12263f"/>
      <ellipse id="Elipse_4743" data-name="Elipse 4743" cx="2.199" cy="2.103" rx="2.199" ry="2.103" transform="translate(69.715 0.001)" fill="#12263f"/>
      <path id="Trazado_99269" data-name="Trazado 99269" d="M443.951,112.389a2.2,2.2,0,1,1-2.2-2.1A2.154,2.154,0,0,1,443.951,112.389Z" transform="translate(-409.676 -110.287)" fill="#12263f"/>
      <path id="Trazado_116533" data-name="Trazado 116533" d="M443.951,112.389a2.2,2.2,0,1,1-2.2-2.1A2.154,2.154,0,0,1,443.951,112.389Z" transform="translate(-359.879 -110.287)" fill="#12263f"/>
      <path id="Trazado_99270" data-name="Trazado 99270" d="M452.4,112.389a2.2,2.2,0,1,1-2.2-2.1A2.153,2.153,0,0,1,452.4,112.389Z" transform="translate(-408.162 -110.287)" fill="#12263f"/>
    </g>
    <g id="Grupo_156330" data-name="Grupo 156330" transform="translate(0 21.85)">
      <path id="Trazado_99274" data-name="Trazado 99274" d="M418.612,119.9a2.2,2.2,0,1,1-2.2-2.1A2.154,2.154,0,0,1,418.612,119.9Z" transform="translate(-414.214 -117.794)" fill="#12263f"/>
      <path id="Trazado_116529" data-name="Trazado 116529" d="M418.612,119.9a2.2,2.2,0,1,1-2.2-2.1A2.154,2.154,0,0,1,418.612,119.9Z" transform="translate(-364.418 -117.794)" fill="#12263f"/>
      <path id="Trazado_99275" data-name="Trazado 99275" d="M427.058,119.9a2.2,2.2,0,1,1-2.2-2.1A2.153,2.153,0,0,1,427.058,119.9Z" transform="translate(-412.701 -117.794)" fill="#12263f"/>
      <path id="Trazado_116530" data-name="Trazado 116530" d="M427.058,119.9a2.2,2.2,0,1,1-2.2-2.1A2.153,2.153,0,0,1,427.058,119.9Z" transform="translate(-362.905 -117.794)" fill="#12263f"/>
      <path id="Trazado_99276" data-name="Trazado 99276" d="M435.5,119.9a2.2,2.2,0,1,1-2.2-2.1A2.153,2.153,0,0,1,435.5,119.9Z" transform="translate(-411.188 -117.794)" fill="#12263f"/>
      <path id="Trazado_116534" data-name="Trazado 116534" d="M435.5,119.9a2.2,2.2,0,1,1-2.2-2.1A2.153,2.153,0,0,1,435.5,119.9Z" transform="translate(-361.392 -117.794)" fill="#12263f"/>
      <path id="Trazado_99277" data-name="Trazado 99277" d="M443.951,119.9a2.2,2.2,0,1,1-2.2-2.1A2.154,2.154,0,0,1,443.951,119.9Z" transform="translate(-409.676 -117.794)" fill="#12263f"/>
      <path id="Trazado_116535" data-name="Trazado 116535" d="M443.951,119.9a2.2,2.2,0,1,1-2.2-2.1A2.154,2.154,0,0,1,443.951,119.9Z" transform="translate(-359.879 -117.794)" fill="#12263f"/>
      <path id="Trazado_99278" data-name="Trazado 99278" d="M452.4,119.9a2.2,2.2,0,1,1-2.2-2.1A2.153,2.153,0,0,1,452.4,119.9Z" transform="translate(-408.162 -117.794)" fill="#12263f"/>
    </g>
    <g id="Grupo_156327" data-name="Grupo 156327" transform="translate(0 54.626)">
      <path id="Trazado_116550" data-name="Trazado 116550" d="M418.612,119.9a2.2,2.2,0,1,1-2.2-2.1A2.154,2.154,0,0,1,418.612,119.9Z" transform="translate(-414.214 -117.794)" fill="#12263f"/>
      <path id="Trazado_116551" data-name="Trazado 116551" d="M418.612,119.9a2.2,2.2,0,1,1-2.2-2.1A2.154,2.154,0,0,1,418.612,119.9Z" transform="translate(-364.418 -117.794)" fill="#12263f"/>
      <path id="Trazado_116552" data-name="Trazado 116552" d="M427.058,119.9a2.2,2.2,0,1,1-2.2-2.1A2.153,2.153,0,0,1,427.058,119.9Z" transform="translate(-412.701 -117.794)" fill="#12263f"/>
      <path id="Trazado_116553" data-name="Trazado 116553" d="M427.058,119.9a2.2,2.2,0,1,1-2.2-2.1A2.153,2.153,0,0,1,427.058,119.9Z" transform="translate(-362.905 -117.794)" fill="#12263f"/>
      <path id="Trazado_116554" data-name="Trazado 116554" d="M435.5,119.9a2.2,2.2,0,1,1-2.2-2.1A2.153,2.153,0,0,1,435.5,119.9Z" transform="translate(-411.188 -117.794)" fill="#12263f"/>
      <path id="Trazado_116555" data-name="Trazado 116555" d="M435.5,119.9a2.2,2.2,0,1,1-2.2-2.1A2.153,2.153,0,0,1,435.5,119.9Z" transform="translate(-361.392 -117.794)" fill="#12263f"/>
      <path id="Trazado_116556" data-name="Trazado 116556" d="M443.951,119.9a2.2,2.2,0,1,1-2.2-2.1A2.154,2.154,0,0,1,443.951,119.9Z" transform="translate(-409.676 -117.794)" fill="#12263f"/>
      <path id="Trazado_116557" data-name="Trazado 116557" d="M443.951,119.9a2.2,2.2,0,1,1-2.2-2.1A2.154,2.154,0,0,1,443.951,119.9Z" transform="translate(-359.879 -117.794)" fill="#12263f"/>
      <path id="Trazado_116558" data-name="Trazado 116558" d="M452.4,119.9a2.2,2.2,0,1,1-2.2-2.1A2.153,2.153,0,0,1,452.4,119.9Z" transform="translate(-408.162 -117.794)" fill="#12263f"/>
    </g>
    <g id="Grupo_156329" data-name="Grupo 156329" transform="translate(0 32.776)">
      <ellipse id="Elipse_3980" data-name="Elipse 3980" cx="2.199" cy="2.103" rx="2.199" ry="2.103" transform="translate(0 0.002)" fill="#12263f"/>
      <ellipse id="Elipse_4744" data-name="Elipse 4744" cx="2.199" cy="2.103" rx="2.199" ry="2.103" transform="translate(49.796 0.002)" fill="#12263f"/>
      <path id="Trazado_99285" data-name="Trazado 99285" d="M427.058,127.406a2.2,2.2,0,1,1-2.2-2.1A2.151,2.151,0,0,1,427.058,127.406Z" transform="translate(-412.701 -125.302)" fill="#12263f"/>
      <path id="Trazado_116536" data-name="Trazado 116536" d="M427.058,127.406a2.2,2.2,0,1,1-2.2-2.1A2.151,2.151,0,0,1,427.058,127.406Z" transform="translate(-362.904 -125.302)" fill="#12263f"/>
      <ellipse id="Elipse_3981" data-name="Elipse 3981" cx="2.199" cy="2.103" rx="2.199" ry="2.103" transform="translate(19.918 0.002)" fill="#12263f"/>
      <ellipse id="Elipse_4745" data-name="Elipse 4745" cx="2.199" cy="2.103" rx="2.199" ry="2.103" transform="translate(69.715 0.002)" fill="#12263f"/>
      <path id="Trazado_99286" data-name="Trazado 99286" d="M443.951,127.406a2.2,2.2,0,1,1-2.2-2.1A2.152,2.152,0,0,1,443.951,127.406Z" transform="translate(-409.676 -125.302)" fill="#12263f"/>
      <path id="Trazado_116537" data-name="Trazado 116537" d="M443.951,127.406a2.2,2.2,0,1,1-2.2-2.1A2.152,2.152,0,0,1,443.951,127.406Z" transform="translate(-359.879 -125.302)" fill="#12263f"/>
      <path id="Trazado_99287" data-name="Trazado 99287" d="M452.4,127.406a2.2,2.2,0,1,1-2.2-2.1A2.151,2.151,0,0,1,452.4,127.406Z" transform="translate(-408.162 -125.302)" fill="#12263f"/>
    </g>
    <g id="Grupo_156326" data-name="Grupo 156326" transform="translate(0 65.553)">
      <ellipse id="Elipse_4754" data-name="Elipse 4754" cx="2.199" cy="2.103" rx="2.199" ry="2.103" transform="translate(0 0.001)" fill="#12263f"/>
      <ellipse id="Elipse_4750" data-name="Elipse 4750" cx="2.199" cy="2.103" rx="2.199" ry="2.103" transform="translate(49.796 0.001)" fill="#12263f"/>
      <path id="Trazado_116548" data-name="Trazado 116548" d="M427.058,127.406a2.2,2.2,0,1,1-2.2-2.1A2.151,2.151,0,0,1,427.058,127.406Z" transform="translate(-412.701 -125.302)" fill="#12263f"/>
      <path id="Trazado_116542" data-name="Trazado 116542" d="M427.058,127.406a2.2,2.2,0,1,1-2.2-2.1A2.151,2.151,0,0,1,427.058,127.406Z" transform="translate(-362.904 -125.302)" fill="#12263f"/>
      <ellipse id="Elipse_4751" data-name="Elipse 4751" cx="2.199" cy="2.103" rx="2.199" ry="2.103" transform="translate(19.918 0.001)" fill="#12263f"/>
      <ellipse id="Elipse_4752" data-name="Elipse 4752" cx="2.199" cy="2.103" rx="2.199" ry="2.103" transform="translate(69.715 0.001)" fill="#12263f"/>
      <path id="Trazado_116543" data-name="Trazado 116543" d="M443.951,127.406a2.2,2.2,0,1,1-2.2-2.1A2.152,2.152,0,0,1,443.951,127.406Z" transform="translate(-409.676 -125.302)" fill="#12263f"/>
      <path id="Trazado_116544" data-name="Trazado 116544" d="M443.951,127.406a2.2,2.2,0,1,1-2.2-2.1A2.152,2.152,0,0,1,443.951,127.406Z" transform="translate(-359.879 -125.302)" fill="#12263f"/>
      <path id="Trazado_116545" data-name="Trazado 116545" d="M452.4,127.406a2.2,2.2,0,1,1-2.2-2.1A2.151,2.151,0,0,1,452.4,127.406Z" transform="translate(-408.162 -125.302)" fill="#12263f"/>
    </g>
    <g id="Grupo_156328" data-name="Grupo 156328" transform="translate(0 43.702)">
      <ellipse id="Elipse_3985" data-name="Elipse 3985" cx="2.199" cy="2.103" rx="2.199" ry="2.103" transform="translate(0 0.001)" fill="#12263f"/>
      <ellipse id="Elipse_4746" data-name="Elipse 4746" cx="2.199" cy="2.103" rx="2.199" ry="2.103" transform="translate(49.796 0.001)" fill="#12263f"/>
      <path id="Trazado_99291" data-name="Trazado 99291" d="M427.058,134.914a2.2,2.2,0,1,1-2.2-2.1A2.151,2.151,0,0,1,427.058,134.914Z" transform="translate(-412.701 -132.81)" fill="#12263f"/>
      <path id="Trazado_116538" data-name="Trazado 116538" d="M427.058,134.914a2.2,2.2,0,1,1-2.2-2.1A2.151,2.151,0,0,1,427.058,134.914Z" transform="translate(-362.904 -132.81)" fill="#12263f"/>
      <ellipse id="Elipse_3986" data-name="Elipse 3986" cx="2.199" cy="2.103" rx="2.199" ry="2.103" transform="translate(19.918 0.001)" fill="#12263f"/>
      <ellipse id="Elipse_4747" data-name="Elipse 4747" cx="2.199" cy="2.103" rx="2.199" ry="2.103" transform="translate(69.715 0.001)" fill="#12263f"/>
      <path id="Trazado_99292" data-name="Trazado 99292" d="M443.951,134.914a2.2,2.2,0,1,1-2.2-2.1A2.152,2.152,0,0,1,443.951,134.914Z" transform="translate(-409.676 -132.81)" fill="#12263f"/>
      <path id="Trazado_116539" data-name="Trazado 116539" d="M443.951,134.914a2.2,2.2,0,1,1-2.2-2.1A2.152,2.152,0,0,1,443.951,134.914Z" transform="translate(-359.879 -132.81)" fill="#12263f"/>
      <path id="Trazado_99293" data-name="Trazado 99293" d="M452.4,134.914a2.2,2.2,0,1,1-2.2-2.1A2.151,2.151,0,0,1,452.4,134.914Z" transform="translate(-408.162 -132.81)" fill="#12263f"/>
    </g>
  </g>
  <g id="Grupo_1015138" data-name="Grupo 1015138" transform="translate(12.576 0)">
    <circle id="Elipse_8447" data-name="Elipse 8447" cx="52.842" cy="52.842" r="52.842" transform="translate(0)" fill="#6f88da"/>
    <circle id="Elipse_8448" data-name="Elipse 8448" cx="44.273" cy="44.273" r="44.273" transform="translate(8.569 8.569)" fill="#fff"/>
    <g id="Grupo_1018790" data-name="Grupo 1018790" transform="translate(33.314 28.137)">
      <g id="Grupo_1014667" data-name="Grupo 1014667" clip-path="url(#clip-path)">
        <path id="Trazado_728194" data-name="Trazado 728194" d="M39,0h0c0,16.466.009,27.105.009,43.584-2.688,0-5.083,5.826-7.771,5.826H0v-.661a1.264,1.264,0,0,0,1.2.588q15.717-.023,31.434,0A1.379,1.379,0,0,0,33.7,48.9q2.641-2.67,5.311-5.312a1.486,1.486,0,0,0,.479-1.146q-.018-9.03-.008-18.061v-.519H37.816V41.916h-.574c-1.4,0-2.792,0-4.188,0a.855.855,0,0,0-.981.97c-.006,1.043,0,2.087,0,3.131v1.629H1.729V1.672H37.851V12.305h1.628v-.541c0-3.516-.009-7.032.011-10.547A1.4,1.4,0,0,0,39,0M26.707,32.075a4.02,4.02,0,0,1,.577,0,1.952,1.952,0,0,0,1.77-.724c3.167-3.21,6.366-6.389,9.553-9.579,1.452-1.453,2.919-2.891,4.347-4.367a2.521,2.521,0,0,0-.007-3.593,2.594,2.594,0,0,0-3.645,0q-7.162,7.136-14.291,14.3a1.194,1.194,0,0,0-.328.712c-.041.784-.03,1.573-.01,2.359a.847.847,0,0,0,.927.884c.369.009.738,0,1.107,0m-6.075,4.083a21.9,21.9,0,0,1,5.562-16.716l.131.028v1.06h1.642c0-1.149.019-2.268-.011-3.385a.66.66,0,0,0-.644-.67c-1.131-.028-2.264-.01-3.445-.01v1.662h1.273a23.651,23.651,0,0,0-6.176,18.032ZM13.953,17.836a12,12,0,0,1-.584,15.346l1.265,1.142c4.506-5.887,4.672-11.791.516-17.882h1.261V14.81c-1.153,0-2.272-.015-3.39.009a.659.659,0,0,0-.677.637c-.033,1.134-.012,2.269-.012,3.421h1.621Zm8.857-2.464c.845-.843,1.672-1.648,2.473-2.478a.793.793,0,0,0-.065-1.2c-.5-.519-1.029-1.014-1.525-1.539-.282-.3-.523-.638-.725-.888l-1.38,1.27,1.077.96H12.377v1.686H22.535l.071.122-.983.867,1.188,1.2M9.882,33.712a3.283,3.283,0,1,0,3.3,3.282,3.275,3.275,0,0,0-3.3-3.282M7.42,17.259a3.283,3.283,0,1,0-3.277-3.3,3.26,3.26,0,0,0,3.277,3.3M23.041,41.1a3.286,3.286,0,1,0-3.291,3.306A3.3,3.3,0,0,0,23.041,41.1M33.72,13.174a3.282,3.282,0,1,0-3.314,3.285,3.3,3.3,0,0,0,3.314-3.285m-4.3,26.087,1.892-2.006,1.775,1.9L34.258,38,32.339,36.12l1.894-1.794-1.163-1.188-1.835,1.95L29.407,33.2l-1.184,1.175L30.2,36.225l-1.985,1.822,1.2,1.213M16.679,3.912l1.928,1.874L16.72,7.623l1.237,1.222,1.875-2.013,1.8,1.886,1.2-1.144-1.947-1.9,1.833-1.7L21.507,2.652,19.628,4.567,17.883,2.754l-1.2,1.158M10.672,23.552,8.931,21.691,7.614,22.847,9.59,24.713,7.665,26.5l1.273,1.288,1.812-2,1.786,1.865,1.294-1.187-1.955-1.838L13.714,22.9l-1.208-1.253-1.834,1.9" fill="#dee4f0"/>
        <path id="Trazado_728195" data-name="Trazado 728195" d="M39,0a1.4,1.4,0,0,1,.49,1.217c-.02,3.516-.011,7.032-.011,10.547v.541H37.851V1.672H1.729V47.647H32.072V46.018c0-1.043,0-2.087,0-3.131a.855.855,0,0,1,.981-.97c1.4-.005,2.792,0,4.188,0h.574V23.858h1.663v.52q0,9.03.008,18.061a1.485,1.485,0,0,1-.479,1.146Q36.337,46.224,33.7,48.9a1.379,1.379,0,0,1-1.064.436q-15.717-.014-31.434,0A1.264,1.264,0,0,1,0,48.749V0ZM33.747,46.189l2.574-2.575H33.747Z" fill="#12263f"/>
        <path id="Trazado_728196" data-name="Trazado 728196" d="M257.532,154.409c-.369,0-.738.007-1.107,0a.847.847,0,0,1-.927-.884c-.02-.786-.031-1.574.01-2.358a1.194,1.194,0,0,1,.328-.712q7.132-7.166,14.291-14.3a2.594,2.594,0,0,1,3.645,0,2.521,2.521,0,0,1,.007,3.593c-1.428,1.476-2.9,2.914-4.347,4.367-3.187,3.19-6.386,6.369-9.553,9.579a1.952,1.952,0,0,1-1.77.724,4.059,4.059,0,0,0-.577,0m9.84-13.25c-.131.161-.222.3-.334.41-3.094,3.1-6.173,6.215-9.3,9.277a1.917,1.917,0,0,0-.518,1.867,1.892,1.892,0,0,0,1.82-.516c3.073-3.142,6.2-6.233,9.305-9.342.12-.12.233-.249.341-.366l-1.31-1.329m4.6-1.959c.4-.421,1.037-.738.818-1.47a1.073,1.073,0,0,0-.629-.626c-.728-.205-1.052.42-1.455.812l1.266,1.284m-2.48-.031-.859.809,1.283,1.245.822-.779-1.245-1.274" transform="translate(-230.825 -122.334)" fill="#12263f"/>
        <path id="Trazado_728197" data-name="Trazado 728197" d="M197.668,190.249H196a23.651,23.651,0,0,1,6.176-18.032H200.9v-1.662c1.181,0,2.314-.018,3.445.01a.66.66,0,0,1,.644.67c.03,1.117.011,2.236.011,3.385H203.36v-1.06l-.131-.028a21.9,21.9,0,0,0-5.562,16.716" transform="translate(-177.036 -154.091)" fill="#12263f"/>
        <path id="Trazado_728198" data-name="Trazado 728198" d="M129.35,156.444v1.041h-1.621c0-1.152-.021-2.287.012-3.421a.659.659,0,0,1,.676-.637c1.118-.024,2.237-.009,3.39-.009v1.632h-1.261c4.156,6.091,3.99,12-.516,17.883l-1.265-1.142a12,12,0,0,0,.584-15.346" transform="translate(-115.396 -138.608)" fill="#12263f"/>
        <path id="Trazado_728199" data-name="Trazado 728199" d="M138.688,102.14l-1.188-1.2.983-.867-.071-.122H128.255V98.265h10.288l-1.077-.96,1.38-1.27c.2.25.443.589.725.888.5.525,1.023,1.02,1.525,1.539a.793.793,0,0,1,.065,1.2c-.8.83-1.628,1.634-2.473,2.478" transform="translate(-115.878 -86.767)" fill="#12263f"/>
        <path id="Trazado_728200" data-name="Trazado 728200" d="M71.7,349.332a3.283,3.283,0,1,1-3.279,3.308,3.273,3.273,0,0,1,3.279-3.308m-.006,1.644a1.64,1.64,0,0,0,.035,3.279,1.639,1.639,0,1,0-.035-3.279" transform="translate(-61.82 -315.62)" fill="#12263f"/>
        <path id="Trazado_728201" data-name="Trazado 728201" d="M46.209,117.363a3.283,3.283,0,1,1,3.294-3.287,3.262,3.262,0,0,1-3.294,3.287m1.638-3.3a1.65,1.65,0,0,0-1.624-1.624,1.639,1.639,0,1,0-.009,3.279,1.633,1.633,0,0,0,1.633-1.655" transform="translate(-38.789 -100.104)" fill="#12263f"/>
        <path id="Trazado_728202" data-name="Trazado 728202" d="M177.225,395.018a3.286,3.286,0,1,1-3.3-3.3,3.289,3.289,0,0,1,3.3,3.3m-3.258-1.615a1.631,1.631,0,0,0-1.67,1.618,1.656,1.656,0,0,0,1.614,1.638,1.634,1.634,0,0,0,1.657-1.631,1.6,1.6,0,0,0-1.6-1.624" transform="translate(-154.185 -353.919)" fill="#e0e2e3"/>
        <path id="Trazado_728203" data-name="Trazado 728203" d="M287.959,105.366a3.282,3.282,0,1,1-3.274-3.326,3.3,3.3,0,0,1,3.274,3.326m-3.28-1.64a1.621,1.621,0,1,0,1.63,1.647,1.624,1.624,0,0,0-1.63-1.647" transform="translate(-254.239 -92.192)" fill="#12263f"/>
        <path id="Trazado_728204" data-name="Trazado 728204" d="M293.584,349.5l-1.2-1.213,1.985-1.822-1.978-1.852,1.184-1.175,1.827,1.889,1.835-1.95,1.163,1.188-1.894,1.794,1.919,1.885-1.174,1.151-1.776-1.9-1.892,2.006" transform="translate(-264.168 -310.238)" fill="#12263f"/>
        <path id="Trazado_728205" data-name="Trazado 728205" d="M172.833,28.745l1.2-1.158,1.745,1.813,1.879-1.914L178.87,28.8l-1.833,1.7,1.947,1.9-1.2,1.144-1.8-1.887-1.875,2.013-1.237-1.222,1.887-1.838-1.928-1.874" transform="translate(-156.154 -24.833)" fill="#12263f"/>
        <path id="Trazado_728206" data-name="Trazado 728206" d="M81.957,226.235l1.834-1.9L85,225.585l-1.838,1.723,1.955,1.838-1.294,1.187-1.786-1.865-1.812,2-1.273-1.288,1.925-1.787L78.9,225.53l1.316-1.157,1.741,1.862" transform="translate(-71.285 -202.683)" fill="#12263f"/>
        <path id="Trazado_728207" data-name="Trazado 728207" d="M349.688,454.508v-2.575h2.574l-2.574,2.575" transform="translate(-315.941 -408.319)" fill="#dee4f0"/>
        <path id="Trazado_728208" data-name="Trazado 728208" d="M283.206,195.059l1.31,1.329c-.109.117-.221.245-.341.366-3.107,3.109-6.232,6.2-9.305,9.343a1.892,1.892,0,0,1-1.82.516,1.916,1.916,0,0,1,.518-1.867c3.13-3.062,6.209-6.178,9.3-9.277.113-.113.2-.248.335-.41" transform="translate(-246.66 -176.235)" fill="#ffca28"/>
        <path id="Trazado_728209" data-name="Trazado 728209" d="M414.565,154.758l-1.266-1.284c.4-.391.727-1.017,1.455-.812a1.074,1.074,0,0,1,.629.626c.219.732-.419,1.049-.818,1.47" transform="translate(-373.414 -137.893)" fill="#6f88da"/>
        <path id="Trazado_728210" data-name="Trazado 728210" d="M392.673,174.438l1.245,1.274-.822.779-1.282-1.244.859-.809" transform="translate(-354.002 -157.604)" fill="#e8e8e8"/>
        <path id="Trazado_728211" data-name="Trazado 728211" d="M87.31,366.365a1.639,1.639,0,1,1,.035,3.279,1.639,1.639,0,0,1-.035-3.279" transform="translate(-77.433 -331.009)" fill="#e0e2e3"/>
        <path id="Trazado_728212" data-name="Trazado 728212" d="M63.24,129.413a1.633,1.633,0,0,1-1.633,1.655,1.639,1.639,0,1,1,1.633-1.655" transform="translate(-54.182 -115.457)" fill="#e0e2e3"/>
        <path id="Trazado_728213" data-name="Trazado 728213" d="M189.357,409.149a1.6,1.6,0,0,1,1.6,1.625A1.634,1.634,0,0,1,189.3,412.4a1.657,1.657,0,0,1-1.614-1.638,1.631,1.631,0,0,1,1.67-1.617" transform="translate(-169.574 -369.664)" fill="#12263f"/>
        <path id="Trazado_728214" data-name="Trazado 728214" d="M300.025,119.515a1.621,1.621,0,1,1-.007,3.242,1.621,1.621,0,1,1,.007-3.242" transform="translate(-269.585 -107.981)" fill="#e0e2e3"/>
      </g>
    </g>
  </g>
</svg>
