<svg xmlns="http://www.w3.org/2000/svg" xmlns:xlink="http://www.w3.org/1999/xlink" width="1328" height="487.955" viewBox="0 0 1328 487.955">
  <defs>
    <linearGradient id="linear-gradient" x1="0.5" x2="0.5" y2="1" gradientUnits="objectBoundingBox">
      <stop offset="0" stop-color="#6f88da"/>
      <stop offset="1" stop-color="#31313c" stop-opacity="0.702"/>
    </linearGradient>
  </defs>
  <path id="Trazado_730056" data-name="Trazado 730056" d="M7356,1833.713V1413.52h-.3v-67.763c-3.4,1.1-6.541,2.272-10.249,3.271-27.771,7.487-53.827,15.635-83.885,22.253-59.6,13.119-125.685,15.379-195.14,6.919-24.172-2.944-48.078-6.1-71.564-9.479-43.56-6.263-88.791-9.985-137.993-9.152-30.8.521-57.989,3.29-81.694,9.1-35.479,8.7-60.184,19.96-88.137,30.468-14.812,5.568-29.934,11.111-46.533,16.225-34.137,10.518-75.608,15.334-126.534,14.023-54.781-1.41-100.545-6.762-133.614-20.138-27.595-11.162-55.555-22.3-85.981-32.809-49.25-17.01-113.562-22.733-187.94-18.344-26.627,1.571-52.316,4.472-78.436,6.766v468.852Z" transform="translate(7355.999 1833.713) rotate(180)" opacity="0.055" fill="url(#linear-gradient)"/>
</svg>
