<svg id="Grupo_1015162" data-name="Grupo 1015162" xmlns="http://www.w3.org/2000/svg" xmlns:xlink="http://www.w3.org/1999/xlink" width="118.261" height="117.439" viewBox="0 0 118.261 117.439">
  <defs>
    <clipPath id="clip-path">
      <rect id="Rectángulo_352716" data-name="Rectángulo 352716" width="55.991" height="56.071" fill="none"/>
    </clipPath>
  </defs>
  <g id="Grupo_156356" data-name="Grupo 156356" transform="translate(0 47.68)">
    <g id="Grupo_156332" data-name="Grupo 156332" transform="translate(0 0)">
      <path id="Trazado_99257" data-name="Trazado 99257" d="M418.612,104.881a2.2,2.2,0,1,1-2.2-2.1A2.153,2.153,0,0,1,418.612,104.881Z" transform="translate(-414.214 -102.779)" fill="#12263f"/>
      <path id="Trazado_116526" data-name="Trazado 116526" d="M418.612,104.881a2.2,2.2,0,1,1-2.2-2.1A2.153,2.153,0,0,1,418.612,104.881Z" transform="translate(-364.418 -102.779)" fill="#12263f"/>
      <path id="Trazado_99258" data-name="Trazado 99258" d="M427.058,104.881a2.2,2.2,0,1,1-2.2-2.1A2.152,2.152,0,0,1,427.058,104.881Z" transform="translate(-412.701 -102.779)" fill="#12263f"/>
      <path id="Trazado_116527" data-name="Trazado 116527" d="M427.058,104.881a2.2,2.2,0,1,1-2.2-2.1A2.152,2.152,0,0,1,427.058,104.881Z" transform="translate(-362.905 -102.779)" fill="#12263f"/>
      <path id="Trazado_99259" data-name="Trazado 99259" d="M435.5,104.881a2.2,2.2,0,1,1-2.2-2.1A2.152,2.152,0,0,1,435.5,104.881Z" transform="translate(-411.188 -102.779)" fill="#12263f"/>
      <path id="Trazado_116531" data-name="Trazado 116531" d="M435.5,104.881a2.2,2.2,0,1,1-2.2-2.1A2.152,2.152,0,0,1,435.5,104.881Z" transform="translate(-361.392 -102.779)" fill="#12263f"/>
      <path id="Trazado_99260" data-name="Trazado 99260" d="M443.951,104.881a2.2,2.2,0,1,1-2.2-2.1A2.152,2.152,0,0,1,443.951,104.881Z" transform="translate(-409.676 -102.779)" fill="#12263f"/>
      <path id="Trazado_116532" data-name="Trazado 116532" d="M443.951,104.881a2.2,2.2,0,1,1-2.2-2.1A2.152,2.152,0,0,1,443.951,104.881Z" transform="translate(-359.879 -102.779)" fill="#12263f"/>
      <path id="Trazado_99261" data-name="Trazado 99261" d="M452.4,104.881a2.2,2.2,0,1,1-2.2-2.1A2.152,2.152,0,0,1,452.4,104.881Z" transform="translate(-408.162 -102.779)" fill="#12263f"/>
    </g>
    <g id="Grupo_156331" data-name="Grupo 156331" transform="translate(0 10.924)">
      <ellipse id="Elipse_3975" data-name="Elipse 3975" cx="2.199" cy="2.103" rx="2.199" ry="2.103" transform="translate(0 0.001)" fill="#12263f"/>
      <ellipse id="Elipse_4742" data-name="Elipse 4742" cx="2.199" cy="2.103" rx="2.199" ry="2.103" transform="translate(49.796 0.001)" fill="#12263f"/>
      <path id="Trazado_99268" data-name="Trazado 99268" d="M427.058,112.389a2.2,2.2,0,1,1-2.2-2.1A2.153,2.153,0,0,1,427.058,112.389Z" transform="translate(-412.701 -110.287)" fill="#12263f"/>
      <path id="Trazado_116528" data-name="Trazado 116528" d="M427.058,112.389a2.2,2.2,0,1,1-2.2-2.1A2.153,2.153,0,0,1,427.058,112.389Z" transform="translate(-362.904 -110.287)" fill="#12263f"/>
      <ellipse id="Elipse_3976" data-name="Elipse 3976" cx="2.199" cy="2.103" rx="2.199" ry="2.103" transform="translate(19.918 0.001)" fill="#12263f"/>
      <ellipse id="Elipse_4743" data-name="Elipse 4743" cx="2.199" cy="2.103" rx="2.199" ry="2.103" transform="translate(69.715 0.001)" fill="#12263f"/>
      <path id="Trazado_99269" data-name="Trazado 99269" d="M443.951,112.389a2.2,2.2,0,1,1-2.2-2.1A2.154,2.154,0,0,1,443.951,112.389Z" transform="translate(-409.676 -110.287)" fill="#12263f"/>
      <path id="Trazado_116533" data-name="Trazado 116533" d="M443.951,112.389a2.2,2.2,0,1,1-2.2-2.1A2.154,2.154,0,0,1,443.951,112.389Z" transform="translate(-359.879 -110.287)" fill="#12263f"/>
      <path id="Trazado_99270" data-name="Trazado 99270" d="M452.4,112.389a2.2,2.2,0,1,1-2.2-2.1A2.153,2.153,0,0,1,452.4,112.389Z" transform="translate(-408.162 -110.287)" fill="#12263f"/>
    </g>
    <g id="Grupo_156330" data-name="Grupo 156330" transform="translate(0 21.85)">
      <path id="Trazado_99274" data-name="Trazado 99274" d="M418.612,119.9a2.2,2.2,0,1,1-2.2-2.1A2.154,2.154,0,0,1,418.612,119.9Z" transform="translate(-414.214 -117.794)" fill="#12263f"/>
      <path id="Trazado_116529" data-name="Trazado 116529" d="M418.612,119.9a2.2,2.2,0,1,1-2.2-2.1A2.154,2.154,0,0,1,418.612,119.9Z" transform="translate(-364.418 -117.794)" fill="#12263f"/>
      <path id="Trazado_99275" data-name="Trazado 99275" d="M427.058,119.9a2.2,2.2,0,1,1-2.2-2.1A2.153,2.153,0,0,1,427.058,119.9Z" transform="translate(-412.701 -117.794)" fill="#12263f"/>
      <path id="Trazado_116530" data-name="Trazado 116530" d="M427.058,119.9a2.2,2.2,0,1,1-2.2-2.1A2.153,2.153,0,0,1,427.058,119.9Z" transform="translate(-362.905 -117.794)" fill="#12263f"/>
      <path id="Trazado_99276" data-name="Trazado 99276" d="M435.5,119.9a2.2,2.2,0,1,1-2.2-2.1A2.153,2.153,0,0,1,435.5,119.9Z" transform="translate(-411.188 -117.794)" fill="#12263f"/>
      <path id="Trazado_116534" data-name="Trazado 116534" d="M435.5,119.9a2.2,2.2,0,1,1-2.2-2.1A2.153,2.153,0,0,1,435.5,119.9Z" transform="translate(-361.392 -117.794)" fill="#12263f"/>
      <path id="Trazado_99277" data-name="Trazado 99277" d="M443.951,119.9a2.2,2.2,0,1,1-2.2-2.1A2.154,2.154,0,0,1,443.951,119.9Z" transform="translate(-409.676 -117.794)" fill="#12263f"/>
      <path id="Trazado_116535" data-name="Trazado 116535" d="M443.951,119.9a2.2,2.2,0,1,1-2.2-2.1A2.154,2.154,0,0,1,443.951,119.9Z" transform="translate(-359.879 -117.794)" fill="#12263f"/>
      <path id="Trazado_99278" data-name="Trazado 99278" d="M452.4,119.9a2.2,2.2,0,1,1-2.2-2.1A2.153,2.153,0,0,1,452.4,119.9Z" transform="translate(-408.162 -117.794)" fill="#12263f"/>
    </g>
    <g id="Grupo_156327" data-name="Grupo 156327" transform="translate(0 54.626)">
      <path id="Trazado_116550" data-name="Trazado 116550" d="M418.612,119.9a2.2,2.2,0,1,1-2.2-2.1A2.154,2.154,0,0,1,418.612,119.9Z" transform="translate(-414.214 -117.794)" fill="#12263f"/>
      <path id="Trazado_116551" data-name="Trazado 116551" d="M418.612,119.9a2.2,2.2,0,1,1-2.2-2.1A2.154,2.154,0,0,1,418.612,119.9Z" transform="translate(-364.418 -117.794)" fill="#12263f"/>
      <path id="Trazado_116552" data-name="Trazado 116552" d="M427.058,119.9a2.2,2.2,0,1,1-2.2-2.1A2.153,2.153,0,0,1,427.058,119.9Z" transform="translate(-412.701 -117.794)" fill="#12263f"/>
      <path id="Trazado_116553" data-name="Trazado 116553" d="M427.058,119.9a2.2,2.2,0,1,1-2.2-2.1A2.153,2.153,0,0,1,427.058,119.9Z" transform="translate(-362.905 -117.794)" fill="#12263f"/>
      <path id="Trazado_116554" data-name="Trazado 116554" d="M435.5,119.9a2.2,2.2,0,1,1-2.2-2.1A2.153,2.153,0,0,1,435.5,119.9Z" transform="translate(-411.188 -117.794)" fill="#12263f"/>
      <path id="Trazado_116555" data-name="Trazado 116555" d="M435.5,119.9a2.2,2.2,0,1,1-2.2-2.1A2.153,2.153,0,0,1,435.5,119.9Z" transform="translate(-361.392 -117.794)" fill="#12263f"/>
      <path id="Trazado_116556" data-name="Trazado 116556" d="M443.951,119.9a2.2,2.2,0,1,1-2.2-2.1A2.154,2.154,0,0,1,443.951,119.9Z" transform="translate(-409.676 -117.794)" fill="#12263f"/>
      <path id="Trazado_116557" data-name="Trazado 116557" d="M443.951,119.9a2.2,2.2,0,1,1-2.2-2.1A2.154,2.154,0,0,1,443.951,119.9Z" transform="translate(-359.879 -117.794)" fill="#12263f"/>
      <path id="Trazado_116558" data-name="Trazado 116558" d="M452.4,119.9a2.2,2.2,0,1,1-2.2-2.1A2.153,2.153,0,0,1,452.4,119.9Z" transform="translate(-408.162 -117.794)" fill="#12263f"/>
    </g>
    <g id="Grupo_156329" data-name="Grupo 156329" transform="translate(0 32.776)">
      <ellipse id="Elipse_3980" data-name="Elipse 3980" cx="2.199" cy="2.103" rx="2.199" ry="2.103" transform="translate(0 0.002)" fill="#12263f"/>
      <ellipse id="Elipse_4744" data-name="Elipse 4744" cx="2.199" cy="2.103" rx="2.199" ry="2.103" transform="translate(49.796 0.002)" fill="#12263f"/>
      <path id="Trazado_99285" data-name="Trazado 99285" d="M427.058,127.406a2.2,2.2,0,1,1-2.2-2.1A2.151,2.151,0,0,1,427.058,127.406Z" transform="translate(-412.701 -125.302)" fill="#12263f"/>
      <path id="Trazado_116536" data-name="Trazado 116536" d="M427.058,127.406a2.2,2.2,0,1,1-2.2-2.1A2.151,2.151,0,0,1,427.058,127.406Z" transform="translate(-362.904 -125.302)" fill="#12263f"/>
      <ellipse id="Elipse_3981" data-name="Elipse 3981" cx="2.199" cy="2.103" rx="2.199" ry="2.103" transform="translate(19.918 0.002)" fill="#12263f"/>
      <ellipse id="Elipse_4745" data-name="Elipse 4745" cx="2.199" cy="2.103" rx="2.199" ry="2.103" transform="translate(69.715 0.002)" fill="#12263f"/>
      <path id="Trazado_99286" data-name="Trazado 99286" d="M443.951,127.406a2.2,2.2,0,1,1-2.2-2.1A2.152,2.152,0,0,1,443.951,127.406Z" transform="translate(-409.676 -125.302)" fill="#12263f"/>
      <path id="Trazado_116537" data-name="Trazado 116537" d="M443.951,127.406a2.2,2.2,0,1,1-2.2-2.1A2.152,2.152,0,0,1,443.951,127.406Z" transform="translate(-359.879 -125.302)" fill="#12263f"/>
      <path id="Trazado_99287" data-name="Trazado 99287" d="M452.4,127.406a2.2,2.2,0,1,1-2.2-2.1A2.151,2.151,0,0,1,452.4,127.406Z" transform="translate(-408.162 -125.302)" fill="#12263f"/>
    </g>
    <g id="Grupo_156326" data-name="Grupo 156326" transform="translate(0 65.553)">
      <ellipse id="Elipse_4754" data-name="Elipse 4754" cx="2.199" cy="2.103" rx="2.199" ry="2.103" transform="translate(0 0.001)" fill="#12263f"/>
      <ellipse id="Elipse_4750" data-name="Elipse 4750" cx="2.199" cy="2.103" rx="2.199" ry="2.103" transform="translate(49.796 0.001)" fill="#12263f"/>
      <path id="Trazado_116548" data-name="Trazado 116548" d="M427.058,127.406a2.2,2.2,0,1,1-2.2-2.1A2.151,2.151,0,0,1,427.058,127.406Z" transform="translate(-412.701 -125.302)" fill="#12263f"/>
      <path id="Trazado_116542" data-name="Trazado 116542" d="M427.058,127.406a2.2,2.2,0,1,1-2.2-2.1A2.151,2.151,0,0,1,427.058,127.406Z" transform="translate(-362.904 -125.302)" fill="#12263f"/>
      <ellipse id="Elipse_4751" data-name="Elipse 4751" cx="2.199" cy="2.103" rx="2.199" ry="2.103" transform="translate(19.918 0.001)" fill="#12263f"/>
      <ellipse id="Elipse_4752" data-name="Elipse 4752" cx="2.199" cy="2.103" rx="2.199" ry="2.103" transform="translate(69.715 0.001)" fill="#12263f"/>
      <path id="Trazado_116543" data-name="Trazado 116543" d="M443.951,127.406a2.2,2.2,0,1,1-2.2-2.1A2.152,2.152,0,0,1,443.951,127.406Z" transform="translate(-409.676 -125.302)" fill="#12263f"/>
      <path id="Trazado_116544" data-name="Trazado 116544" d="M443.951,127.406a2.2,2.2,0,1,1-2.2-2.1A2.152,2.152,0,0,1,443.951,127.406Z" transform="translate(-359.879 -125.302)" fill="#12263f"/>
      <path id="Trazado_116545" data-name="Trazado 116545" d="M452.4,127.406a2.2,2.2,0,1,1-2.2-2.1A2.151,2.151,0,0,1,452.4,127.406Z" transform="translate(-408.162 -125.302)" fill="#12263f"/>
    </g>
    <g id="Grupo_156328" data-name="Grupo 156328" transform="translate(0 43.702)">
      <ellipse id="Elipse_3985" data-name="Elipse 3985" cx="2.199" cy="2.103" rx="2.199" ry="2.103" transform="translate(0 0.001)" fill="#12263f"/>
      <ellipse id="Elipse_4746" data-name="Elipse 4746" cx="2.199" cy="2.103" rx="2.199" ry="2.103" transform="translate(49.796 0.001)" fill="#12263f"/>
      <path id="Trazado_99291" data-name="Trazado 99291" d="M427.058,134.914a2.2,2.2,0,1,1-2.2-2.1A2.151,2.151,0,0,1,427.058,134.914Z" transform="translate(-412.701 -132.81)" fill="#12263f"/>
      <path id="Trazado_116538" data-name="Trazado 116538" d="M427.058,134.914a2.2,2.2,0,1,1-2.2-2.1A2.151,2.151,0,0,1,427.058,134.914Z" transform="translate(-362.904 -132.81)" fill="#12263f"/>
      <ellipse id="Elipse_3986" data-name="Elipse 3986" cx="2.199" cy="2.103" rx="2.199" ry="2.103" transform="translate(19.918 0.001)" fill="#12263f"/>
      <ellipse id="Elipse_4747" data-name="Elipse 4747" cx="2.199" cy="2.103" rx="2.199" ry="2.103" transform="translate(69.715 0.001)" fill="#12263f"/>
      <path id="Trazado_99292" data-name="Trazado 99292" d="M443.951,134.914a2.2,2.2,0,1,1-2.2-2.1A2.152,2.152,0,0,1,443.951,134.914Z" transform="translate(-409.676 -132.81)" fill="#12263f"/>
      <path id="Trazado_116539" data-name="Trazado 116539" d="M443.951,134.914a2.2,2.2,0,1,1-2.2-2.1A2.152,2.152,0,0,1,443.951,134.914Z" transform="translate(-359.879 -132.81)" fill="#12263f"/>
      <path id="Trazado_99293" data-name="Trazado 99293" d="M452.4,134.914a2.2,2.2,0,1,1-2.2-2.1A2.151,2.151,0,0,1,452.4,134.914Z" transform="translate(-408.162 -132.81)" fill="#12263f"/>
    </g>
  </g>
  <g id="Grupo_1015138" data-name="Grupo 1015138" transform="translate(12.576 0)">
    <circle id="Elipse_8447" data-name="Elipse 8447" cx="52.842" cy="52.842" r="52.842" transform="translate(0)" fill="#6f88da"/>
    <circle id="Elipse_8448" data-name="Elipse 8448" cx="44.273" cy="44.273" r="44.273" transform="translate(8.569 8.569)" fill="#fff"/>
    <g id="Grupo_1018775" data-name="Grupo 1018775" transform="translate(26.587 24.064)">
      <g id="Grupo_1018774" data-name="Grupo 1018774" clip-path="url(#clip-path)">
        <path id="Trazado_732954" data-name="Trazado 732954" d="M64.866,491.022q0,.048,0,.1h-34.9c0-.031,0-.063,0-.094.132-.006.264-.018.4-.018H64.527c.113,0,.226.011.339.017" transform="translate(-26.549 -435.047)" fill="#f5f5f5"/>
        <path id="Trazado_732955" data-name="Trazado 732955" d="M38.317,55.975c-.113-.006-.226-.017-.339-.017H3.811c-.132,0-.264.012-.4.018a3.26,3.26,0,0,1-3.2-2.369A2.137,2.137,0,0,1,.1,52.093a1.425,1.425,0,0,0,.009-.508q0-19.157-.01-38.313a1.987,1.987,0,0,1,.63-1.545Q6.259,6.245,11.746.719A2.226,2.226,0,0,1,13.45,0c8.09.021,16.181,0,24.271.029a3.791,3.791,0,0,1,2.466.663,3.575,3.575,0,0,1,1.4,2.961c0,4.87.01,9.739-.013,14.609a1.9,1.9,0,0,0,.457,1.327A13.579,13.579,0,0,1,44.5,23.9a15.6,15.6,0,0,1,.895,3.7,16.493,16.493,0,0,1,.065,2.875,12.4,12.4,0,0,1-1.047,4.656.454.454,0,0,0,.113.6c.627.615,1.233,1.252,1.869,1.857a2.044,2.044,0,0,1,.529,2.438c-.054.134-.041.16.069.253,1.44,1.226,2.892,2.439,4.295,3.706A44.4,44.4,0,0,1,54.8,47.153a4.7,4.7,0,0,1,1.156,2.769,5.064,5.064,0,0,1-.809,3.584,5.362,5.362,0,0,1-8.8.325c-1.06-1.289-2.2-2.512-3.295-3.77-.356-.409-.7-.83-1.026-1.263-.114-.152-.2-.3-.443-.3,0,1.326.019,2.65,0,3.973a3.477,3.477,0,0,1-3.262,3.5M19.179,37.309q0-1.082,0-2.164c.008-1.5.009-3.008.028-4.512,0-.269-.087-.566.14-.8a1.322,1.322,0,0,1,1.222-.512c1.28.021,2.561.007,3.841.007.984,0,.984,0,.929-1q0-1.024,0-2.048c.037-.44-.008-.908.519-1.134a3.181,3.181,0,0,1,1.253-.185c1.321-.015,2.643-.018,3.964,0,.374.006.483-.11.472-.478-.025-.83-.006-1.661-.008-2.492a1.431,1.431,0,0,1,.416-1.167,3.265,3.265,0,0,1,1.37-.208c.676.011,1.353-.007,2.03-.013,1,.006,2,.015,3,.019,1.2,0,1.589.385,1.589,1.572q0,8,0,15.99c.014.043.016.114.043.124.081.032.126-.017.133-.1.05-.3.437-.359.476-.667a12.975,12.975,0,0,0,2.683-8.084A12.645,12.645,0,0,0,42.1,23.94,15.24,15.24,0,0,0,40.5,21.21a13,13,0,0,0-5.145-4.116,11.9,11.9,0,0,0-1.843-.685,9.86,9.86,0,0,0-2.8-.563,13.613,13.613,0,0,0-4.013.211,10.543,10.543,0,0,0-3.575,1.348,4.458,4.458,0,0,0-1.509.881c-.4.326-.938.529-1.165,1.056-.713.27-1.049.922-1.487,1.47a12.642,12.642,0,0,0-2.14,3.527c-.061.019-.112.044-.084.124l-.575,1.817-.341,2.049q0,.685,0,1.37a8.872,8.872,0,0,0,.277,2.593,14.376,14.376,0,0,0,.977,2.966,20.008,20.008,0,0,0,1.306,2.251c.249.268.361.67.794.832Zm-5.546-8.98.223-2.049c.08-.244.179-.484.238-.733a14.367,14.367,0,0,1,1.957-4.585l.993-1.5L19,17.424c.531-.4,1.034-.854,1.6-1.206a15.947,15.947,0,0,1,10.223-2.581,21.62,21.62,0,0,1,4.531.953,17.129,17.129,0,0,1,3.59,2.037c.1.081.192.137.3.085.156-.073.086-.23.086-.349q.005-6.448,0-12.9a1.086,1.086,0,0,0-1.135-1.2c-.944-.031-1.891.007-2.836.015-.226-.011-.452-.031-.678-.031q-7.072,0-14.145,0-2.982,0-5.965,0c-.277,0-.5-.031-.493.391.029,1.968.024,3.938.031,5.906a13.464,13.464,0,0,1-.261,3.39,1.574,1.574,0,0,0-.222.308,3.444,3.444,0,0,1-2.863,1.772c-2.595-.046-5.191,0-7.786-.025-.524-.006-.645.137-.644.649q.023,17.28.013,34.56c0,.207.021.414.032.622-.011.795-.028,1.589-.03,2.384,0,1.244.269,1.508,1.529,1.508,8.6,0,17.2-.012,25.805.008,2.8.006,5.6-.116,8.4.079a.863.863,0,0,0,.615-.216,1.647,1.647,0,0,0,.639-1.363c0-1.554-.009-3.108.008-4.661,0-.351-.062-.518-.457-.478a1.12,1.12,0,0,1-.7-.3,18.191,18.191,0,0,1-2.137-2.02c-.2-.191-.382-.37-.686-.262a21.1,21.1,0,0,0-2.279.565,14.062,14.062,0,0,1-2.885.389c-.91-.019-1.834-.024-2.725-.116a14.681,14.681,0,0,1-4.741-1.41,1.425,1.425,0,0,1-.208-.069,17.118,17.118,0,0,1-6.159-5.29l-.779-1.255-1.027-2.277A20.473,20.473,0,0,1,13.516,29.7a6.909,6.909,0,0,1,.117-1.37m14-1.023q0,5.229,0,10.457c-.006,1.647,0,3.293-.022,4.94,0,.383.224.668.513.6a21,21,0,0,1,2.706-.132c.634-.066.692-.323.69-.852-.018-4.505-.01-9.01-.01-13.515,0-1.683,0-1.683-1.726-1.589l-2.045,0c-.07-.008-.108.02-.106.094m6.243-4.415c-.216.131-.107.341-.107.509q-.01,7.238,0,14.476c0,1.419,0,2.839.013,4.258,0,.11-.165.435.22.3a11.9,11.9,0,0,0,3.651-1.921c.139-.142.084-.322.084-.485q0-8.335,0-16.67c0-.155.09-.343-.1-.465l-1.71-.007H33.88m8.3,22.262c-.1.046-.2.108-.2.229s.117.11.2.133l3.316,3.894c.875,1.028,1.77,2.039,2.618,3.088a3.239,3.239,0,0,0,4.417.587,3.105,3.105,0,0,0,1.219-3.135,4.336,4.336,0,0,0-1.7-2.362c-1.875-1.625-3.764-3.234-5.631-4.868-1.052-.921-1.037-.938-1.96.161q-1.189,1.083-2.273,2.272M25.361,37.086h0c0-1.685-.012-3.37.009-5.054,0-.4-.117-.517-.513-.506-.927.026-1.856.032-2.782-.008-.512-.022-.681.117-.675.655.031,2.743.02,5.487.024,8.231,0,.128-.006.229.158.314a25.444,25.444,0,0,0,3.272,1.706c.425.147.521.1.517-.34-.015-1.666-.006-3.332-.006-5M11.835,3.97c-.171-.084-.218-.017-.27.035q-3.7,3.692-7.39,7.386c-.073.074-.212.138-.152.271.071.159.234.086.353.087,2.1,0,4.2.009,6.3,0a1.075,1.075,0,0,0,1.149-1.1c.02-2.232.008-4.465.008-6.676m31.528,33.8c-.24.025-.293.205-.382.343A15.521,15.521,0,0,1,38,43.006c-.3.184-.252.28-.031.48a15,15,0,0,1,1.081,1.083c.233.26.371.254.621,0,1.32-1.353,2.659-2.686,4-4.017a3.878,3.878,0,0,1,1.1-.954.237.237,0,0,0,.08-.414c-.423-.458-.872-.891-1.316-1.329a.541.541,0,0,0-.17-.085" transform="translate(0 0)" fill="#233d69"/>
        <path id="Trazado_732956" data-name="Trazado 732956" d="M31.675,47.156a20.473,20.473,0,0,0,1.045,5.333c-.182.2-.425.115-.64.115-2.281.007-4.562.012-6.843,0-.5,0-.736.177-.714.695.021.489.005.98.005,1.47-.01,1.251-.01,1.251,1.222,1.251l8.774,0a17.116,17.116,0,0,0,6.159,5.29,1.408,1.408,0,0,0,.208.069c-.158.156-.358.091-.54.092-.909.006-1.817,0-2.726,0H25.362c-.768,0-.832.067-.833.853,0,.435,0,.871,0,1.306-.01,1.25-.01,1.25,1.227,1.25l17.189.005a3.562,3.562,0,0,1-.326.216A19.419,19.419,0,0,1,33.7,67.267c-4.388.031-8.777.008-13.165.009-.011-.207-.032-.414-.032-.622q0-17.28-.013-34.56c0-.512.121-.655.644-.649,2.6.029,5.192-.021,7.786.025A3.444,3.444,0,0,0,31.788,29.7a1.578,1.578,0,0,1,.222-.308c.208.007.416.019.624.019h14.19c.132,0,.266.009.4,0,.453-.038.74-.222.719-.743-.023-.586,0-1.173-.005-1.76,0-.836-.067-.9-.906-.9H32.272c-.007-1.969,0-3.938-.031-5.906-.006-.422.216-.391.493-.391q2.982.006,5.965,0,7.072,0,14.145,0c.226,0,.452.02.678.031q0,6.155-.006,12.309a21.622,21.622,0,0,0-4.531-.953,15.947,15.947,0,0,0-10.223,2.581c-.564.351-1.067.8-1.6,1.206-3.972,0-7.945,0-11.917-.014-.548,0-.752.22-.722.749.025.434.007.87.008,1.305,0,.094,0,.189,0,.283,0,1.08,0,1.08,1.059,1.08q4,0,7.991,0c.214,0,.46-.09.633.132A14.367,14.367,0,0,0,32.254,43c-.059.249-.158.489-.238.733-2.26,0-4.52.01-6.78,0-.5,0-.735.181-.711.7.021.451.006.9.007,1.356,0,.113,0,.226,0,.339,0,1.014.007,1.024.994,1.024l6.155.005" transform="translate(-18.159 -17.457)" fill="#fff"/>
        <path id="Trazado_732957" data-name="Trazado 732957" d="M20.652,395.5c4.388,0,8.777.022,13.165-.009a19.417,19.417,0,0,0,8.915-2.159,3.562,3.562,0,0,0,.326-.216l9.659,0c.865,0,.914-.049.915-.888q0-1.023,0-2.046c.3-.109.485.071.685.262a18.212,18.212,0,0,0,2.137,2.02,1.121,1.121,0,0,0,.7.3c.4-.04.461.126.457.478-.017,1.553-.006,3.107-.008,4.661a1.646,1.646,0,0,1-.639,1.363.863.863,0,0,1-.615.216c-2.8-.2-5.6-.073-8.4-.079-8.6-.02-17.2-.007-25.805-.007-1.261,0-1.533-.264-1.529-1.508,0-.795.02-1.589.03-2.384" transform="translate(-18.272 -345.685)" fill="#f5f5f5"/>
        <path id="Trazado_732958" data-name="Trazado 732958" d="M157.647,182.638a1.431,1.431,0,0,0-.416,1.167c0,.831-.016,1.662.008,2.492.011.367-.1.484-.472.478-1.321-.021-2.643-.017-3.964,0a3.18,3.18,0,0,0-1.253.185c-.527.226-.482.694-.519,1.134h-9.175l.575-1.817.084-.124a12.642,12.642,0,0,1,2.14-3.527l12.993.016" transform="translate(-125.689 -161.809)" fill="#fff"/>
        <path id="Trazado_732959" data-name="Trazado 732959" d="M121.8,74.963h14.758c.838,0,.9.067.906.9,0,.587-.018,1.174.005,1.76.021.521-.267.7-.719.743-.132.011-.265,0-.4,0h-14.19c-.208,0-.416-.012-.624-.019a13.457,13.457,0,0,0,.261-3.39" transform="translate(-107.688 -66.42)" fill="#6f88da"/>
        <path id="Trazado_732960" data-name="Trazado 732960" d="M380.4,386.46a3.239,3.239,0,0,1-4.417-.587c-.848-1.049-1.743-2.06-2.618-3.088l-3.316-3.894q0-.181.007-.363,1.082-1.19,2.273-2.272a.6.6,0,0,1,.461.171q1.046.949,2.107,1.882c.848.746,1.713,1.473,2.55,2.23a22.863,22.863,0,0,1,2.167,2.072,4.313,4.313,0,0,1,.787,3.849" transform="translate(-327.877 -333.374)" fill="#f09f4a"/>
        <path id="Trazado_732961" data-name="Trazado 732961" d="M310.234,32.108q0-6.155.006-12.309c.945-.008,1.892-.047,2.836-.015a1.086,1.086,0,0,1,1.135,1.2q.014,6.448,0,12.9c0,.119.069.276-.086.349-.11.052-.2,0-.3-.085a17.126,17.126,0,0,0-3.59-2.037" transform="translate(-274.878 -17.518)" fill="#f5f5f5"/>
        <path id="Trazado_732962" data-name="Trazado 732962" d="M55.889,387.673c0-.435,0-.871,0-1.306,0-.786.065-.853.833-.853H68.987c.909,0,1.817,0,2.726,0,.182,0,.382.064.54-.092a14.677,14.677,0,0,0,4.741,1.41c.891.092,1.816.1,2.725.116a14.054,14.054,0,0,0,2.885-.389c.028.265-.134.4-.326.549a3.548,3.548,0,0,1-2.261.56q-12.064.022-24.128.009" transform="translate(-49.519 -341.493)" fill="#e2e2e2"/>
        <path id="Trazado_732963" data-name="Trazado 732963" d="M244.484,238.55c1.726-.094,1.726-.094,1.726,1.589,0,4.505-.008,9.01.011,13.515,0,.529-.056.785-.69.852a21.01,21.01,0,0,0-2.706.132c-.289.068-.517-.217-.513-.6.018-1.646.017-3.293.022-4.94a5.983,5.983,0,0,0,2.261-4.781c.078-1.923-.189-3.842-.111-5.767" transform="translate(-214.696 -211.335)" fill="#00d28b"/>
        <path id="Trazado_732964" data-name="Trazado 732964" d="M300.993,218.5a11.9,11.9,0,0,1-3.651,1.921c-.178-.145-.119-.347-.12-.529,0-1.306,0-2.612,0-3.918a5.66,5.66,0,0,0,2.144-4.436c.017-3.554-.061-7.109-.1-10.664l1.71.007q0,3.3,0,6.593.005,5.513.016,11.027" transform="translate(-263.342 -177.978)" fill="#efab0e"/>
        <path id="Trazado_732965" data-name="Trazado 732965" d="M191.708,282.11c0,1.666-.009,3.332.006,5,0,.439-.091.487-.517.34a25.434,25.434,0,0,1-3.272-1.706c-.164-.085-.158-.185-.158-.314,0-2.744.006-5.487-.024-8.231-.006-.538.163-.677.675-.655.926.04,1.855.033,2.782.008.4-.011.518.106.513.506-.02,1.685-.009,3.37-.009,5.054Z" transform="translate(-166.347 -245.024)" fill="#00caf3"/>
        <path id="Trazado_732966" data-name="Trazado 732966" d="M55.886,392.12q12.064,0,24.128-.009a3.548,3.548,0,0,0,2.261-.56c.192-.146.354-.284.326-.549a21.146,21.146,0,0,1,2.279-.565q0,1.023,0,2.046c0,.839-.051.887-.915.888l-9.659,0-17.189-.005c-1.237,0-1.237,0-1.227-1.25" transform="translate(-49.516 -345.94)" fill="#d9d9da"/>
        <path id="Trazado_732967" data-name="Trazado 732967" d="M42.993,34.523c0,2.211.012,4.444-.008,6.676a1.075,1.075,0,0,1-1.149,1.1c-2.1.012-4.2.007-6.3,0-.119,0-.282.073-.353-.086-.059-.133.079-.2.152-.271q3.693-3.7,7.39-7.386c.052-.052.1-.12.27-.035" transform="translate(-31.158 -30.553)" fill="#fff"/>
        <path id="Trazado_732968" data-name="Trazado 732968" d="M355.073,186.109a15.237,15.237,0,0,1,1.594,2.73,12.645,12.645,0,0,1,1.188,5.522,12.975,12.975,0,0,1-2.683,8.084c-.212-.179-.123-.423-.123-.638q-.008-6.971,0-13.943c0-.585.017-1.17.027-1.756" transform="translate(-314.569 -164.899)" fill="#fff"/>
        <path id="Trazado_732969" data-name="Trazado 732969" d="M299.327,200.866c.038,3.555.116,7.109.1,10.664a5.66,5.66,0,0,1-2.144,4.436q0-7.55,0-15.1h2.047" transform="translate(-263.4 -177.973)" fill="#ffb70b"/>
        <path id="Trazado_732970" data-name="Trazado 732970" d="M179.407,156.092l-12.993-.016c.438-.549.774-1.2,1.487-1.47a1.1,1.1,0,0,0,.544.123c3.511,0,7.023,0,10.534-.006a2.749,2.749,0,0,0,2.354-2.037c.5.075,1.093-.251,1.475.339q0,1.424,0,2.847c-.677.006-1.353.024-2.03.013a3.263,3.263,0,0,0-1.37.208" transform="translate(-147.448 -135.263)" fill="#d9d9da"/>
        <path id="Trazado_732971" data-name="Trazado 732971" d="M192.893,152.746a2.749,2.749,0,0,1-2.354,2.037c-3.512.01-7.023,0-10.534.006a1.094,1.094,0,0,1-.544-.123c.227-.527.761-.73,1.165-1.056a4.454,4.454,0,0,1,1.51-.88l10.757.016" transform="translate(-159.009 -135.324)" fill="#e2e2e2"/>
        <path id="Trazado_732972" data-name="Trazado 732972" d="M55.832,154.813c0-.435.017-.871-.008-1.305-.03-.528.174-.751.722-.749,3.972.015,7.945.012,11.917.014l-1.96,2.038Z" transform="translate(-49.459 -135.35)" fill="#e2e2e2"/>
        <path id="Trazado_732973" data-name="Trazado 732973" d="M244.65,238.784c-.078,1.925.189,3.844.111,5.767a5.983,5.983,0,0,1-2.261,4.781q0-5.229,0-10.457l.106-.094,2.045,0" transform="translate(-214.862 -211.568)" fill="#00e295"/>
        <path id="Trazado_732974" data-name="Trazado 732974" d="M310.248,153.5q0-1.424,0-2.847,0-.334,0-.667a13,13,0,0,1,5.145,4.116c-.009.585-.026,1.17-.027,1.756q0,6.971,0,13.943c0,.215-.089.459.123.638-.039.308-.426.367-.476.667l-.175-.023q0-8,0-15.99c0-1.187-.389-1.568-1.589-1.572-1,0-2-.012-3-.019" transform="translate(-274.89 -132.895)" fill="#f5f5f5"/>
        <path id="Trazado_732975" data-name="Trazado 732975" d="M139.2,230.6h9.175q0,1.024,0,2.048h-9.517l.341-2.049" transform="translate(-123.037 -204.319)" fill="#e2e2e2"/>
        <path id="Trazado_732976" data-name="Trazado 732976" d="M55.844,309.673c0-.49.016-.981-.005-1.47-.022-.518.213-.7.714-.695,2.281.013,4.562.008,6.843,0,.215,0,.457.089.64-.115l1.027,2.277-9.218,0" transform="translate(-49.474 -272.362)" fill="#e2e2e2"/>
        <path id="Trazado_732977" data-name="Trazado 732977" d="M398.122,379.951a4.313,4.313,0,0,0-.787-3.849,22.855,22.855,0,0,0-2.167-2.072c-.837-.757-1.7-1.484-2.55-2.23q-1.061-.933-2.107-1.882a.6.6,0,0,0-.461-.171c.923-1.1.908-1.082,1.96-.16,1.867,1.634,3.756,3.243,5.631,4.868a4.336,4.336,0,0,1,1.7,2.362,3.105,3.105,0,0,1-1.219,3.135" transform="translate(-345.598 -326.865)" fill="#e49747"/>
        <path id="Trazado_732978" data-name="Trazado 732978" d="M142.2,260.644c-.227.234-.137.532-.14.8-.019,1.5-.021,3.008-.028,4.512a9.354,9.354,0,0,0-2.1.113,14.369,14.369,0,0,1-.977-2.966,8.868,8.868,0,0,1-.277-2.593c1,0,2-.006,3.006,0,.181,0,.386-.06.519.136" transform="translate(-122.852 -230.811)" fill="#fff"/>
        <path id="Trazado_732979" data-name="Trazado 732979" d="M337.127,331.388a.542.542,0,0,1,.17.085c.444.438.893.871,1.316,1.329a.237.237,0,0,1-.08.414,3.878,3.878,0,0,0-1.1.954c-1.341,1.331-2.681,2.664-4,4.017-.251.257-.388.263-.621,0a15,15,0,0,0-1.081-1.083c-.221-.2-.27-.3.031-.48a15.521,15.521,0,0,0,4.985-4.9c.089-.138.142-.318.382-.343" transform="translate(-293.763 -293.621)" fill="#b0c0d2"/>
        <path id="Trazado_732980" data-name="Trazado 732980" d="M55.846,232.634c0-.452.014-.9-.007-1.356-.024-.515.209-.7.711-.7,2.26.012,4.52,0,6.78,0l-.224,2.049h-7.26" transform="translate(-49.474 -204.303)" fill="#e2e2e2"/>
        <path id="Trazado_732981" data-name="Trazado 732981" d="M215.16,139.894q0,.334,0,.667c-.382-.59-.975-.265-1.476-.339l-10.757-.016a10.543,10.543,0,0,1,3.575-1.348,13.619,13.619,0,0,1,4.013-.211,9.864,9.864,0,0,1,2.8.563,11.9,11.9,0,0,1,1.843.685" transform="translate(-179.801 -122.8)" fill="#fff"/>
        <path id="Trazado_732982" data-name="Trazado 732982" d="M55.877,170.77H66.549l-.993,1.5c-.173-.222-.419-.131-.633-.132q-4-.009-7.991,0c-1.063,0-1.063,0-1.059-1.08,0-.094,0-.189,0-.283" transform="translate(-49.505 -151.307)" fill="#d9d9da"/>
        <path id="Trazado_732983" data-name="Trazado 732983" d="M55.886,327.379l9.218,0,.779,1.255-8.775,0c-1.232,0-1.232,0-1.222-1.251" transform="translate(-49.516 -290.067)" fill="#d9d9da"/>
        <path id="Trazado_732984" data-name="Trazado 732984" d="M142.382,250.081c-.133-.2-.338-.136-.519-.136-1,0-2,0-3.006,0v-1.37h9.516c.056,1,.056,1-.929,1-1.28,0-2.561.014-3.841-.007a1.322,1.322,0,0,0-1.222.512" transform="translate(-123.032 -220.249)" fill="#d9d9da"/>
        <path id="Trazado_732985" data-name="Trazado 732985" d="M55.878,248.581h7.26a6.909,6.909,0,0,0-.117,1.37l-6.155-.005c-.986,0-1-.011-.993-1.024,0-.113,0-.226,0-.339" transform="translate(-49.506 -220.25)" fill="#d9d9da"/>
        <path id="Trazado_732986" data-name="Trazado 732986" d="M149.864,308.455a9.356,9.356,0,0,1,2.1-.113q0,1.082,0,2.164c-.267.059-.6-.142-.794.2a19.983,19.983,0,0,1-1.306-2.251" transform="translate(-132.785 -273.197)" fill="#e2e2e2"/>
        <path id="Trazado_732987" data-name="Trazado 732987" d="M296.236,200.865q0,7.55,0,15.1c0,1.306,0,2.612,0,3.918,0,.182-.058.385.12.529-.385.13-.219-.2-.22-.3-.014-1.419-.012-2.838-.013-4.258q0-7.238,0-14.476c0-.169-.109-.379.107-.51" transform="translate(-262.357 -177.973)" fill="#e49747"/>
        <path id="Trazado_732988" data-name="Trazado 732988" d="M330.244,218.554q-.008-5.513-.016-11.027,0-3.3,0-6.593c.185.122.1.31.1.465q.008,8.335,0,16.67c0,.163.056.343-.084.485" transform="translate(-292.592 -178.034)" fill="#e49747"/>
        <path id="Trazado_732989" data-name="Trazado 732989" d="M161.321,327.525c.2-.342.527-.142.794-.2v1.032c-.433-.162-.545-.564-.794-.832" transform="translate(-142.936 -290.016)" fill="#d9d9da"/>
        <path id="Trazado_732990" data-name="Trazado 732990" d="M368.518,396.2q0,.181-.007.363c-.081-.023-.2,0-.2-.133s.1-.183.2-.229" transform="translate(-326.338 -351.049)" fill="#e49747"/>
        <path id="Trazado_732991" data-name="Trazado 732991" d="M350.556,335.1l.175.023c-.006.084-.052.133-.133.1-.026-.01-.029-.081-.043-.124" transform="translate(-310.604 -296.908)" fill="#8795ae"/>
        <path id="Trazado_732992" data-name="Trazado 732992" d="M242.6,238.771l-.106.094c0-.073.036-.1.106-.094" transform="translate(-214.862 -211.558)" fill="#00d28b"/>
        <path id="Trazado_732993" data-name="Trazado 732993" d="M146.924,213.567l-.084.124c-.028-.08.023-.1.084-.124" transform="translate(-130.098 -189.228)" fill="#f5f5f5"/>
      </g>
    </g>
  </g>
</svg>
