<svg xmlns="http://www.w3.org/2000/svg" xmlns:xlink="http://www.w3.org/1999/xlink" width="133.145" height="117.96" viewBox="0 0 133.145 117.96">
  <defs>
    <clipPath id="clip-path">
      <rect id="Rectángulo_351069" data-name="Rectángulo 351069" width="21.827" height="27.042" fill="none"/>
    </clipPath>
  </defs>
  <g id="Grupo_1019310" data-name="Grupo 1019310" transform="translate(-1010.701 -117.085)">
    <g id="Grupo_1015138" data-name="Grupo 1015138" transform="translate(123.581 48.113)">
      <circle id="Elipse_8447" data-name="Elipse 8447" cx="25.966" cy="25.966" r="25.966" transform="translate(968.333 135)" fill="#f1f5fa"/>
      <circle id="Elipse_8448" data-name="Elipse 8448" cx="21.755" cy="21.755" r="21.755" transform="translate(972.544 139.211)" fill="#fff"/>
      <g id="Grupo_1014662" data-name="Grupo 1014662" transform="translate(983.385 147.444)">
        <g id="Grupo_1014661" data-name="Grupo 1014661" clip-path="url(#clip-path)">
          <path id="Trazado_728076" data-name="Trazado 728076" d="M0,25.141v-.423c.1-.062.05-.16.05-.239q0-9.32,0-18.641C.05,5.759.1,5.661,0,5.6V5.493a.488.488,0,0,1,.425-.331C.642,5.2.8,5.291.8,5.54c0,.018,0,.035,0,.053q0,8.632,0,17.264c0,.077-.02.16.043.226-.051.157.019.11.094.056a2.278,2.278,0,0,1,1.5-.376c.071,0,.16.041.215-.048.079-.092.043-.2.043-.3q0-10.66,0-21.32c0-.1.051-.213-.057-.293a2.288,2.288,0,0,0-1,.1A1.343,1.343,0,0,0,.833,2.112a.266.266,0,0,0-.04.2q0,.88,0,1.761a.418.418,0,0,1-.372.32A.353.353,0,0,1,.048,4.07q0-.954,0-1.908c0-.055.031-.126-.052-.155V1.9c.066-.2.119-.4.2-.591A2.124,2.124,0,0,1,2.207,0q9.329,0,18.659,0c.035,0,.07,0,.106,0a.877.877,0,0,1,.839.734q.016.368.016.737,0,10.348,0,20.7c0,1.214,0,2.429,0,3.643a2.31,2.31,0,0,1-.048.649c-.084.285-.33.423-.55.582H1.742c-.008-.014-.014-.04-.025-.041a2.11,2.11,0,0,1-1.379-.976A3.549,3.549,0,0,1,0,25.141M21.014,23.56a1.6,1.6,0,0,0-.944.006c0,.84,0,1.681,0,2.521,0,.052-.039.127.05.153a2.762,2.762,0,0,0,.905-.042.177.177,0,0,0,.044-.145q0-1.166,0-2.333c0-.06.008-.124-.056-.164l0,0m-.8-.8a1.894,1.894,0,0,0,.794-.049l.009.006c.076-.082.045-.184.045-.277q0-10.658,0-21.315c0-.093.032-.195-.043-.278a2.236,2.236,0,0,0-.8-.043c-.035,0-.07-.008-.1-.008q-8.248,0-16.5,0c-.059,0-.143-.049-.18.049,0,.035-.008.07-.008.105q0,10.8,0,21.6c0,.068-.051.161.054.206H4.645a.473.473,0,0,1,.33.389.037.037,0,0,0,0,.043.416.416,0,0,1-.271.319l-.06.032c-.849,0-1.7,0-2.546.018a1.227,1.227,0,0,0-1.149.792c-.053.049-.088.1,0,.145.1,0,.193.009.29.009H7.23a1.055,1.055,0,0,1,.237.006.392.392,0,0,1,.347.388.384.384,0,0,1-.364.4,1.918,1.918,0,0,1-.211,0H.907a1.267,1.267,0,0,0,1.213.951H18.243c.079,0,.158-.006.237-.009.823.045.823.045.8-.768a.16.16,0,0,1,0-.026c.015-.109-.022-.157-.142-.151-.218.011-.436.009-.654.012-.1,0-.193-.009-.289-.009q-4.5,0-9,0a.393.393,0,0,1-.4-.263c-.084-.178,0-.308.114-.442s.275-.091.414-.091q4.432-.006,8.865,0c.1,0,.193-.006.289-.01.843.052.848.045.8-.794-.006-.108-.026-.157-.145-.151-.217.011-.435.009-.653.013-.105,0-.211-.011-.316-.011H6.416c-.114,0-.228-.009-.342-.015-.026-.041-.042-.024-.056.009a.418.418,0,0,1-.271-.4c0-.167.119-.26.217-.373.128-.148.252.083.371-.012.105,0,.211.008.316.008H16.92q1.65,0,3.3-.006" fill="#12263f"/>
          <path id="Trazado_728077" data-name="Trazado 728077" d="M0,105.739c.1.062.05.16.05.239q0,9.32,0,18.641c0,.079.048.177-.05.239Z" transform="translate(0 -100.14)" fill="#878383"/>
          <path id="Trazado_728078" data-name="Trazado 728078" d="M.425,77.858A.488.488,0,0,0,0,78.189V76.763l.024,0,.024.006a.353.353,0,0,0,.374.322l0,.77" transform="translate(0 -72.696)" fill="#f8f2f2"/>
          <path id="Trazado_728079" data-name="Trazado 728079" d="M.048,39.974l-.024-.006-.024,0v-2.06c.083.029.052.1.052.155,0,.636,0,1.272,0,1.908" transform="translate(0 -35.904)" fill="#878383"/>
          <path id="Trazado_728080" data-name="Trazado 728080" d="M64.98,14.847c.037-.1.121-.049.18-.049q8.248,0,16.5,0c.035,0,.07.006.105.009q0,8.286,0,16.571,0,2.665,0,5.33c-.123,0-.246.006-.369.006q-6.592,0-13.184,0c-.11,0-.229-.038-.331.043-.119.1-.243-.136-.371.012-.1.113-.216.207-.217.373l-.68.006-.092,0a.473.473,0,0,0-.33-.389,6.6,6.6,0,0,0-1.153-.049c0-.123-.007-.246-.007-.369q0-10.582,0-21.163c0-.11.041-.229-.042-.33m7.494,14a4.238,4.238,0,0,0-1.011.043.813.813,0,0,0-.688.643A5.305,5.305,0,0,0,70.73,30.6a.265.265,0,0,1-.088.04.8.8,0,0,0-.764.838c.028.314.005.632.006.949a.743.743,0,0,0,.75.753q2.135,0,4.271,0c.685,0,1.37-.008,2.055-.012.034.012.044-.012.054-.036a.71.71,0,0,0,.633-.686,2.78,2.78,0,0,0,0-1.114.763.763,0,0,0-.448-.62c-.125-.066-.328,0-.383-.131a1.334,1.334,0,0,1-.014-.468c0-.114,0-.228,0-.341a.849.849,0,0,0-.739-.874,4.661,4.661,0,0,0-1-.048q0-3.882-.012-7.763c0-.162.079-.159.194-.159.845,0,1.69,0,2.534,0,.17,0,.209.026.136.2-.35.854-.669,1.72-1.029,2.569-.161.381-.206.851-.663,1.054-.027.012-.041.054-.061.082A1.693,1.693,0,0,0,76.018,26a1.2,1.2,0,0,0,1.113,1.047c.977.006,1.954,0,2.93,0a.873.873,0,0,0,.576-.189,1.266,1.266,0,0,0,.5-1.189,1.486,1.486,0,0,1,0-.4.648.648,0,0,0-.39-.652.416.416,0,0,1-.19-.225c-.514-1.3-1.035-2.588-1.545-3.884a.537.537,0,0,0-.57-.385c-1.056.01-2.112,0-3.168.008-.175,0-.238-.049-.213-.22a1.048,1.048,0,0,0,0-.185,1.26,1.26,0,0,0-1.032-1.322,1.193,1.193,0,0,0-1.229.41,1.525,1.525,0,0,0-.32,1.083c.007.183-.04.235-.229.234-1.038-.01-2.077,0-3.115,0-.382,0-.474.071-.615.428q-.75,1.9-1.511,3.791c-.032.079-.043.175-.149.226a.866.866,0,0,0-.471.637,2.114,2.114,0,0,0,.02.873,1.278,1.278,0,0,0,1.174.962c.9,0,1.8.011,2.693,0a1.185,1.185,0,0,0,1.14-.713,2.568,2.568,0,0,0,.085-1.263.458.458,0,0,0-.3-.395.493.493,0,0,1-.29-.337q-.423-1.054-.842-2.109c-.169-.426-.333-.854-.5-1.3h2.912q0,3.957,0,7.915Z" transform="translate(-61.539 -14.003)" fill="#dee4f0"/>
          <path id="Trazado_728081" data-name="Trazado 728081" d="M7.982,19.272l0-.77a.418.418,0,0,0,.372-.32.115.115,0,0,0,.049-.114q0-.923-.011-1.847a1.343,1.343,0,0,1,.805-1.212,2.288,2.288,0,0,1,1-.1c0,.114.006.229.006.343q0,10.615,0,21.23c0,.114.005.229.008.343-.055.089-.144.052-.215.048a2.278,2.278,0,0,0-1.5.376c-.075.054-.145.1-.094-.056,0-.035.008-.07.008-.1q0-8.61,0-17.22c0-.073.037-.16-.047-.217,0-.249-.155-.343-.371-.377" transform="translate(-7.557 -14.109)" fill="#6f88da"/>
          <path id="Trazado_728082" data-name="Trazado 728082" d="M21.291,437.035l.68-.006a.418.418,0,0,0,.271.4l.056-.009c.114.005.228.014.342.015H34.387c.105,0,.211.007.316.011q0,.466,0,.932c-.1,0-.193.01-.289.01q-4.432,0-8.865,0c-.14,0-.295-.051-.414.091s-.2.264-.114.442a.393.393,0,0,0,.4.263q4.5-.011,9,0c.1,0,.193.006.289.009v.934c-.079,0-.158.009-.237.009H18.344a1.267,1.267,0,0,1-1.213-.951h6.331a1.928,1.928,0,0,0,.211,0,.385.385,0,0,0,.364-.4.392.392,0,0,0-.347-.388,1.054,1.054,0,0,0-.237-.006h-5.99c-.1,0-.193-.006-.29-.009q0-.073,0-.145a1.227,1.227,0,0,1,1.149-.793c.848-.02,1.7-.013,2.546-.018.036.019.048-.006.06-.032a.416.416,0,0,0,.271-.319l.091-.041" transform="translate(-16.224 -413.888)" fill="#f8f2f2"/>
          <path id="Trazado_728083" data-name="Trazado 728083" d="M381.854,36.755q0-2.665,0-5.33,0-8.286,0-16.571a2.236,2.236,0,0,1,.8.043c0,.088-.008.176-.008.263q0,10.672,0,21.344c0,.088,0,.176.007.264l-.009-.006-.785.011Z" transform="translate(-361.635 -14.052)" fill="#c3cfe6"/>
          <path id="Trazado_728084" data-name="Trazado 728084" d="M380.845,447.539a2.762,2.762,0,0,1-.905.042q0-1.336,0-2.672l.9-.008,0,0,.012,2.641" transform="translate(-359.821 -421.341)" fill="#c3cfe6"/>
          <path id="Trazado_728085" data-name="Trazado 728085" d="M64.654,15.945c.084.1.042.22.042.33q0,10.582,0,21.163c0,.123,0,.246.007.369a.179.179,0,0,0,0,.049c-.1-.045-.054-.138-.054-.206q0-10.8,0-21.6c0-.035.005-.07.008-.105" transform="translate(-61.213 -15.101)" fill="#29538c"/>
          <path id="Trazado_728086" data-name="Trazado 728086" d="M49.751,36.975c0-.114-.008-.229-.008-.343q0-10.615,0-21.23c0-.114,0-.229-.006-.343.108.08.057.2.057.293q0,10.66,0,21.32c0,.1.037.212-.043.3" transform="translate(-47.102 -14.262)" fill="#594619"/>
          <path id="Trazado_728087" data-name="Trazado 728087" d="M396.9,37.813c0-.088-.007-.176-.007-.264q0-10.672,0-21.343c0-.088.005-.176.008-.263.074.083.043.185.043.278q0,10.658,0,21.315c0,.093.032.195-.045.277" transform="translate(-375.875 -15.099)" fill="#11213f"/>
          <path id="Trazado_728088" data-name="Trazado 728088" d="M14.921,104.624c.084.057.047.144.047.217q0,8.61,0,17.22c0,.035-.005.07-.008.1-.064-.066-.043-.149-.043-.226q0-8.632,0-17.264c0-.018,0-.035,0-.053" transform="translate(-14.125 -99.084)" fill="#403212"/>
          <path id="Trazado_728089" data-name="Trazado 728089" d="M349,478.662v-.934c.218,0,.436,0,.654-.012.12-.006.157.042.142.151a.164.164,0,0,0,0,.026c.027.813.027.813-.8.768" transform="translate(-330.52 -452.421)" fill="#dee4f0"/>
          <path id="Trazado_728090" data-name="Trazado 728090" d="M348.98,445.669q0-.466,0-.932c.218,0,.436,0,.653-.013.12-.006.139.042.145.151.048.839.043.847-.8.794" transform="translate(-330.502 -421.176)" fill="#dee4f0"/>
          <path id="Trazado_728091" data-name="Trazado 728091" d="M119.642,428.817c.1-.081.22-.043.331-.043q6.592,0,13.184,0c.123,0,.246,0,.369-.007l.009.016-.009.038q-1.65,0-3.3.006H119.958c-.105,0-.211-.005-.316-.008" transform="translate(-113.307 -406.063)" fill="#3c73b9"/>
          <path id="Trazado_728092" data-name="Trazado 728092" d="M378.9,445.02q0,1.336,0,2.672c-.089-.027-.05-.1-.05-.153,0-.84,0-1.681,0-2.521l.024,0Z" transform="translate(-358.783 -421.452)" fill="#3c73b9"/>
          <path id="Trazado_728093" data-name="Trazado 728093" d="M396.84,447.539l-.012-2.641c.063.039.056.1.056.164q0,1.166,0,2.333a.177.177,0,0,1-.044.145" transform="translate(-375.816 -421.341)" fill="#11213f"/>
          <path id="Trazado_728094" data-name="Trazado 728094" d="M14.983,39.879q.005.923.011,1.847a.115.115,0,0,1-.049.114q0-.88,0-1.761a.266.266,0,0,1,.04-.2" transform="translate(-14.15 -37.767)" fill="#403212"/>
          <path id="Trazado_728095" data-name="Trazado 728095" d="M65.877,428.842a.178.178,0,0,1,0-.049,6.6,6.6,0,0,1,1.153.049H65.877" transform="translate(-62.389 -406.087)" fill="#3c73b9"/>
          <path id="Trazado_728096" data-name="Trazado 728096" d="M379.089,443.735l-.024,0-.024,0a1.6,1.6,0,0,1,.944-.006l-.9.008" transform="translate(-358.971 -420.167)" fill="#11213f"/>
          <path id="Trazado_728097" data-name="Trazado 728097" d="M381.861,428.921l.009-.038.785-.011a1.9,1.9,0,0,1-.794.049" transform="translate(-361.642 -406.163)" fill="#29538c"/>
          <path id="Trazado_728098" data-name="Trazado 728098" d="M16.985,459.856q0,.073,0,.145c-.089-.048-.053-.1,0-.145" transform="translate(-16.035 -435.507)" fill="#dbcee6"/>
          <path id="Trazado_728099" data-name="Trazado 728099" d="M93.934,437.106l-.091.041a.037.037,0,0,1,0-.043l.092,0" transform="translate(-88.867 -413.96)" fill="#dbcee6"/>
          <path id="Trazado_728100" data-name="Trazado 728100" d="M87.781,443.939c-.012.026-.024.051-.06.032l.06-.032" transform="translate(-83.076 -420.433)" fill="#333232"/>
          <path id="Trazado_728101" data-name="Trazado 728101" d="M113.7,444.055l-.056.009c.014-.033.03-.051.056-.009" transform="translate(-107.629 -420.52)" fill="#333232"/>
          <path id="Trazado_728102" data-name="Trazado 728102" d="M101.385,97.409c-.685,0-1.37.011-2.055.012q-2.135,0-4.271,0a.743.743,0,0,1-.75-.753c0-.316.022-.635-.006-.949a.8.8,0,0,1,.764-.838.265.265,0,0,0,.088-.04,3.83,3.83,0,0,0,.044-1.062.813.813,0,0,1,.688-.643A3.693,3.693,0,0,0,96.9,93.1l0,0c.1-.051.051-.141.051-.211q0-3.749,0-7.5c0-.068.048-.158-.051-.206H93.982c.172.441.336.87.5,1.3q.419,1.056.842,2.109a.493.493,0,0,0,.29.337.458.458,0,0,1,.3.395,2.568,2.568,0,0,1-.085,1.263,1.184,1.184,0,0,1-1.14.713c-.9.014-1.8,0-2.693,0a1.278,1.278,0,0,1-1.174-.962,2.115,2.115,0,0,1-.02-.873.866.866,0,0,1,.471-.637c.106-.052.117-.147.149-.226q.762-1.893,1.511-3.791c.141-.356.234-.428.615-.428,1.038,0,2.077-.005,3.115,0,.189,0,.236-.051.229-.234a1.525,1.525,0,0,1,.32-1.083,1.193,1.193,0,0,1,1.229-.41,1.26,1.26,0,0,1,1.032,1.322,1.049,1.049,0,0,1,0,.185c-.025.17.038.221.213.219,1.056-.008,2.112,0,3.168-.008a.537.537,0,0,1,.57.385c.51,1.3,1.031,2.589,1.545,3.884a.415.415,0,0,0,.19.225.649.649,0,0,1,.39.652,1.485,1.485,0,0,0,0,.4,1.266,1.266,0,0,1-.5,1.189.872.872,0,0,1-.576.189c-.977,0-1.954.006-2.93,0a1.2,1.2,0,0,1-1.113-1.047,1.693,1.693,0,0,1,.146-1.168c.02-.028.034-.07.061-.082.457-.2.5-.672.663-1.054.359-.85.679-1.716,1.029-2.569.073-.179.035-.206-.136-.205-.845,0-1.69,0-2.534,0-.115,0-.194,0-.194.159q.012,3.882.012,7.763a3.225,3.225,0,0,0,1,.048.849.849,0,0,1,.739.874c0,.114,0,.228,0,.341a1.334,1.334,0,0,0,.014.468c.054.134.258.066.383.131a.763.763,0,0,1,.448.62q0,.557,0,1.114a.71.71,0,0,1-.633.686l-.054.036m-.9-1.738c-.018-.026-.037-.028-.057,0l-4.613.006c-.775,0-.771,0-.72.794.008.131.054.16.173.16q2.61-.008,5.219-.01l.777.008a1.446,1.446,0,0,0,.008-.948l-.785.005Zm-1.8-3.467a1.493,1.493,0,0,0-.943,0q0,.447,0,.894a1.467,1.467,0,0,0,.946-.006q0-.441,0-.883m-2.679,2.633c.02.014.039.041.059.041,1.407,0,2.814,0,4.221,0,.119,0,.141-.052.149-.158.061-.811.037-.837-.775-.789a.189.189,0,0,0-.026.005l-.1-.02a.7.7,0,0,0-.15-.034q-1.6,0-3.191,0c-.068,0-.143-.017-.193.053a5.776,5.776,0,0,0,.007.9M92.3,88.6c-.123.157-.015.164.106.164q.994,0,1.988,0c.046,0,.109.021.124-.056l-1.1-2.794-.073.012L92.3,88.6m11.834.106c-.306-.905-.679-1.785-1.057-2.662-.068-.157-.126-.048-.164.049-.141.358-.294.713-.431,1.072-.189.5-.422.974-.572,1.484-.1.168.055.111.11.111q1.006.006,2.012,0c.031,0,.121.058.1-.055m-6.39,2.643a1.456,1.456,0,0,0,.944,0q0-2.254,0-4.509c0-.888.007-1.775,0-2.663a.753.753,0,0,0-.18-.623.486.486,0,0,0-.556-.067c-.2.1-.2.317-.2.484-.009,2.461,0,4.922,0,7.383m-4.4-.843H94.37c.035,0,.07,0,.105,0,.547.017.718-.149.685-.681-.013-.207-.039-.281-.269-.278-1,.015-2,0-3.007.008-.364,0-.323-.08-.321.341,0,.439.178.608.617.609.387,0,.774,0,1.161,0M103,89.551c-.527,0-1.054,0-1.58,0-.065,0-.146-.033-.192.045a.612.612,0,0,0,.522.906c.755,0,1.51,0,2.265,0,.8,0,.758-.162.749-.758,0-.171-.056-.2-.21-.2-.518.009-1.036,0-1.554,0" transform="translate(-85.965 -78.252)" fill="#12263f"/>
          <path id="Trazado_728103" data-name="Trazado 728103" d="M206.4,130.841c.1.047.051.138.051.206q0,3.749,0,7.5c0,.07.046.161-.051.211q0-3.957,0-7.915" transform="translate(-195.475 -123.913)" fill="#3c73b9"/>
          <path id="Trazado_728104" data-name="Trazado 728104" d="M304.175,328.257q0-.557,0-1.114a2.78,2.78,0,0,1,0,1.114" transform="translate(-288.068 -309.821)" fill="#11213f"/>
          <path id="Trazado_728105" data-name="Trazado 728105" d="M173.517,293.313a3.832,3.832,0,0,1-.044,1.062,5.3,5.3,0,0,1,.044-1.062" transform="translate(-164.283 -277.782)" fill="#29538c"/>
          <path id="Trazado_728106" data-name="Trazado 728106" d="M188.42,280.189a3.7,3.7,0,0,1-1.011.043,4.239,4.239,0,0,1,1.011-.043" transform="translate(-177.486 -265.344)" fill="#29538c"/>
          <path id="Trazado_728107" data-name="Trazado 728107" d="M256.429,280.241a3.227,3.227,0,0,1-1-.048,4.661,4.661,0,0,1,1,.048" transform="translate(-241.908 -265.353)" fill="#29538c"/>
          <path id="Trazado_728108" data-name="Trazado 728108" d="M291.228,361.169l.054-.036c-.01.024-.02.048-.054.036" transform="translate(-275.808 -342.011)" fill="#181818"/>
          <path id="Trazado_728109" data-name="Trazado 728109" d="M222.355,105.585c0-2.461-.007-4.922,0-7.382,0-.167,0-.38.2-.484a.486.486,0,0,1,.556.067.752.752,0,0,1,.18.623c.011.888.005,1.775,0,2.663q0,2.254,0,4.509l-.944,0" transform="translate(-210.578 -92.489)" fill="#ffca28"/>
          <path id="Trazado_728110" data-name="Trazado 728110" d="M177.53,329.9q-2.61,0-5.219.01c-.119,0-.165-.029-.173-.16-.052-.794-.055-.794.72-.794l4.613-.006.057,0,0,.014q0,.468,0,.935" transform="translate(-163.005 -311.534)" fill="#ffca28"/>
          <path id="Trazado_728111" data-name="Trazado 728111" d="M107.475,214.245c-.387,0-.774,0-1.161,0-.44,0-.616-.171-.617-.609,0-.421-.043-.34.321-.341,1,0,2,.007,3.007-.008.23,0,.256.071.269.278.033.532-.138.7-.685.681-.035,0-.07,0-.106,0h-1.029" transform="translate(-100.099 -201.993)" fill="#ffca28"/>
          <path id="Trazado_728112" data-name="Trazado 728112" d="M301.078,148.334c.151-.51.383-.989.572-1.484.138-.36.29-.714.431-1.072.039-.1.1-.207.164-.049.378.877.75,1.756,1.057,2.662l-2.01,0c-.076,0-.16.018-.215-.06" transform="translate(-285.136 -137.937)" fill="#dee4f0"/>
          <path id="Trazado_728113" data-name="Trazado 728113" d="M288.688,213.31c.518,0,1.036.006,1.554,0,.154,0,.207.028.21.2.009.6.055.762-.749.758-.755,0-1.51,0-2.265,0a.612.612,0,0,1-.522-.906c.046-.078.127-.044.192-.045.527,0,1.054,0,1.58,0" transform="translate(-271.649 -202.01)" fill="#ffca28"/>
          <path id="Trazado_728114" data-name="Trazado 728114" d="M119.594,147.353l1.049-2.675.073-.012,1.1,2.794c-.664,0-1.327,0-1.991,0-.09,0-.2.033-.227-.11" transform="translate(-113.262 -137.006)" fill="#dee4f0"/>
          <path id="Trazado_728115" data-name="Trazado 728115" d="M192.788,295.9l.1.02c0,.211-.009.422.007.632s-.055.271-.265.269c-1.123-.009-2.247,0-3.37,0a5.772,5.772,0,0,1-.007-.9l.58,0,2.954-.016" transform="translate(-179.219 -280.236)" fill="#e8e8e8"/>
          <path id="Trazado_728116" data-name="Trazado 728116" d="M189.637,296.827c1.123,0,2.247-.006,3.37,0,.21,0,.282-.062.265-.269s-.006-.421-.007-.632a.181.181,0,0,1,.026-.005c.812-.048.836-.022.775.789-.008.106-.03.158-.149.158-1.407,0-2.814,0-4.221,0-.02,0-.039-.026-.059-.041" transform="translate(-179.596 -280.241)" fill="#e8e8e8"/>
          <path id="Trazado_728117" data-name="Trazado 728117" d="M222.38,264.3q0-.447,0-.894l.943,0q0,.441,0,.883a5.968,5.968,0,0,1-.946.006" transform="translate(-210.605 -249.46)" fill="#ffcf38"/>
          <path id="Trazado_728118" data-name="Trazado 728118" d="M274.326,330.087q0-.467,0-.935l.786-.005a5.245,5.245,0,0,1-.008.948l-.778-.008" transform="translate(-259.801 -311.719)" fill="#ffca28"/>
          <path id="Trazado_728119" data-name="Trazado 728119" d="M193.04,295.253l-2.954.016-.58,0c.05-.071.125-.053.193-.053q1.6,0,3.191,0a.7.7,0,0,1,.15.034" transform="translate(-179.472 -279.585)" fill="#403212"/>
          <path id="Trazado_728120" data-name="Trazado 728120" d="M300.5,196.363c.055.078.139.06.215.06l2.01,0c.018.112-.072.054-.1.055q-1.006.006-2.012,0c-.055,0-.208.057-.11-.111" transform="translate(-284.562 -185.966)" fill="#3c73b9"/>
          <path id="Trazado_728121" data-name="Trazado 728121" d="M118.626,195.415c.024.143.137.11.227.11.664,0,1.327,0,1.991,0-.015.077-.077.056-.124.056q-.994,0-1.988,0c-.121,0-.229-.007-.106-.164" transform="translate(-112.294 -185.068)" fill="#3c73b9"/>
          <path id="Trazado_728122" data-name="Trazado 728122" d="M223.363,262.09l-.943,0a1.493,1.493,0,0,1,.943,0" transform="translate(-210.643 -248.138)" fill="#594619"/>
          <path id="Trazado_728123" data-name="Trazado 728123" d="M289.01,330.1a5.245,5.245,0,0,0,.008-.948,1.446,1.446,0,0,1-.008.948" transform="translate(-273.707 -311.719)" fill="#594619"/>
          <path id="Trazado_728124" data-name="Trazado 728124" d="M222.41,247.241l.944,0a1.456,1.456,0,0,1-.944,0" transform="translate(-210.633 -234.145)" fill="#594619"/>
          <path id="Trazado_728125" data-name="Trazado 728125" d="M222.38,280.174a5.972,5.972,0,0,0,.946-.006,1.467,1.467,0,0,1-.946.006" transform="translate(-210.605 -265.333)" fill="#594619"/>
          <path id="Trazado_728126" data-name="Trazado 728126" d="M273.258,328.621l-.057,0c.02-.026.039-.024.057,0" transform="translate(-258.735 -311.202)" fill="#403212"/>
        </g>
      </g>
    </g>
    <g id="Grupo_1015145" data-name="Grupo 1015145" transform="translate(1038.221 117.085) rotate(25)">
      <g id="Grupo_80184" data-name="Grupo 80184" transform="translate(0 0)">
        <path id="Trazado_151717" data-name="Trazado 151717" d="M0,65.117S6.051,50.109,7.683,34.569a115.116,115.116,0,0,0,0-26.386A221.531,221.531,0,0,0,30.759,4.8,171.718,171.718,0,0,0,47.692,0s.08,15.3-1.129,24.551C44,44.164,39.6,53.124,39.6,53.124s-4.156,3.751-17.026,7.266A171.692,171.692,0,0,1,0,65.117" transform="translate(0 0)" fill="#f2f0f0"/>
        <path id="Trazado_151718" data-name="Trazado 151718" d="M37.429,25.364A.282.282,0,0,1,37.4,24.8c.065-.007,6.537-.764,11.637-1.876s10.453-2.891,10.507-2.908a.282.282,0,1,1,.178.535c-.054.018-5.436,1.805-10.565,2.924s-11.626,1.878-11.692,1.886l-.033,0" transform="translate(-18.805 -10.126)" fill="#31313c"/>
        <path id="Trazado_151719" data-name="Trazado 151719" d="M28.155,53.354a.282.282,0,0,1-.034-.562c.094-.012,9.469-1.175,14.57-2.288s13.332-3.6,13.414-3.629a.282.282,0,0,1,.164.54c-.083.025-8.333,2.522-13.458,3.64s-14.527,2.285-14.622,2.3l-.035,0" transform="translate(-14.11 -23.723)" fill="#31313c"/>
        <path id="Trazado_151720" data-name="Trazado 151720" d="M26.8,65.069a.282.282,0,0,1-.034-.561c.094-.012,9.469-1.175,14.57-2.288s13.332-3.6,13.414-3.628a.282.282,0,0,1,.164.54c-.083.025-8.332,2.522-13.458,3.64s-14.527,2.284-14.621,2.3H26.8" transform="translate(-13.423 -29.654)" fill="#31313c"/>
        <path id="Trazado_151721" data-name="Trazado 151721" d="M25.618,77.071a.282.282,0,0,1-.034-.562c.094-.011,9.469-1.174,14.57-2.287s13.332-3.6,13.414-3.629a.282.282,0,0,1,.164.54c-.083.025-8.333,2.522-13.458,3.64s-14.527,2.285-14.621,2.3a.223.223,0,0,1-.036,0" transform="translate(-12.826 -35.729)" fill="#31313c"/>
        <path id="Trazado_151722" data-name="Trazado 151722" d="M23.947,92.8a.282.282,0,0,1-.034-.562c.094-.012,9.469-1.175,14.57-2.288a.282.282,0,0,1,.12.551c-5.127,1.119-14.527,2.285-14.621,2.3l-.035,0" transform="translate(-11.98 -45.531)" fill="#31313c"/>
      </g>
    </g>
  </g>
</svg>
