<svg xmlns="http://www.w3.org/2000/svg" xmlns:xlink="http://www.w3.org/1999/xlink" width="119.974" height="154.638" viewBox="0 0 119.974 154.638">
  <defs>
    <clipPath id="clip-path">
      <rect id="Rect치ngulo_351070" data-name="Rect치ngulo 351070" width="34.877" height="34.882" fill="none"/>
    </clipPath>
    <clipPath id="clip-path-2">
      <rect id="Rect치ngulo_34868" data-name="Rect치ngulo 34868" width="58.517" height="46.53" fill="none"/>
    </clipPath>
  </defs>
  <g id="Grupo_1019309" data-name="Grupo 1019309" transform="translate(-869.026 -172.079)">
    <g id="Grupo_1015139" data-name="Grupo 1015139" transform="translate(-53.333 37.079)">
      <circle id="Elipse_8447" data-name="Elipse 8447" cx="37" cy="37" r="37" transform="translate(968.333 135)" fill="#f1f5fa" opacity="0.71"/>
      <circle id="Elipse_8448" data-name="Elipse 8448" cx="31" cy="31" r="31" transform="translate(974.333 141)" fill="#fff"/>
      <g id="Grupo_1014665" data-name="Grupo 1014665" transform="translate(991.141 154.559)">
        <g id="Grupo_1014664" data-name="Grupo 1014664" clip-path="url(#clip-path)">
          <path id="Trazado_728127" data-name="Trazado 728127" d="M21.943,0a.89.89,0,0,0,.339.531c1.34,1.357,2.717,2.677,4.04,4.053a1.455,1.455,0,0,1,.42,1.132q-.008,5.553,0,11.105c0,.6,0,.6-.58.628-.582-.03-.582-.03-.582-.628q0-5.339.006-10.677c0-.264-.051-.346-.331-.34-.92.02-1.84-.007-2.76.01a1.792,1.792,0,0,1-1.57-1.551c.024-.919-.009-1.84.012-2.76.007-.294-.085-.349-.359-.348-2.748.01-5.5.006-8.244.006-3.135,0-6.271-.006-9.406,0A1.667,1.667,0,0,0,1.166,2.883q-.006,14.6,0,29.2A1.766,1.766,0,0,0,2.8,33.716q8.753-.009,17.505,0c.6,0,.6,0,.628.582-.03.58-.03.58-.628.58L2.57,34.871a2.333,2.333,0,0,1-1.263-.448l-.084-.056a2.361,2.361,0,0,1-1.2-2C-.006,22.455,0,12.548,0,2.64a2.959,2.959,0,0,1,.159-.823C.3,1.8.29,1.694.289,1.593A2.275,2.275,0,0,1,1.222.51L1.307.453A6.934,6.934,0,0,1,2.325,0H2.47a.175.175,0,0,0,.291,0Zm.148,2c0,.758,0,1.431,0,2.1a.484.484,0,0,0,.432.532c.714.035,1.43.012,2.191.012-.072-.08-.1-.116-.134-.149L22.091,2" transform="translate(0)" fill="#12263f"/>
          <path id="Trazado_728128" data-name="Trazado 728128" d="M262.878,255.189l1.6.012a.661.661,0,0,1,.732.709c.031.4.089.8.155,1.2.014.082.043.221.2.2a.051.051,0,0,1,.034.01c.665.519,1.139.078,1.632-.315.17-.135.305-.334.555-.35a.871.871,0,0,1,.8.325,9.209,9.209,0,0,0,1.394,1.359.688.688,0,0,1,.08.845c-.265.375-.534.75-.826,1.1a.239.239,0,0,0-.025.307,3.73,3.73,0,0,1,.277.647.256.256,0,0,0,.247.2,12.334,12.334,0,0,0,1.233.146,1.074,1.074,0,0,1,.64.37v2.761c-.168.1-.25.322-.457.357-.372.063-.747.117-1.122.149-.31.027-.562.082-.618.457a1.223,1.223,0,0,1-.2.412.219.219,0,0,0,.031.3c.281.347.54.712.8,1.076a.622.622,0,0,1-.038.842c-.507.535-1.027,1.059-1.566,1.562a.6.6,0,0,1-.83.1,4,4,0,0,1-.59-.454.984.984,0,0,0-1.372-.206.456.456,0,0,0-.291.41,8.463,8.463,0,0,1-.151,1.232.588.588,0,0,1-.615.517c-.774-.01-1.548-.015-2.322,0a.577.577,0,0,1-.526-.36,1.419,1.419,0,0,1-.1-.444,2.82,2.82,0,0,0-.145-.945c.036-.2.02-.343-.238-.383a1.631,1.631,0,0,1-.514-.212.3.3,0,0,0-.385.03c-.312.25-.639.481-.959.72-.423.278-.6.289-.873.018q-.825-.811-1.637-1.636a.586.586,0,0,1-.029-.83,6.575,6.575,0,0,1,.615-.814c.33-.315.244-.588.024-.89-.031-.253-.057-.509-.425-.425a5.777,5.777,0,0,0-.9-.161c-.508-.078-.824-.145-.835-.63-.018-.787,0-1.574-.005-2.361a.524.524,0,0,1,.42-.551,3.714,3.714,0,0,1,1.085-.145c.611.045.625-.444.819-.787.156-.276-.027-.43-.181-.617-.187-.227-.339-.482-.512-.72-.352-.484-.339-.676.08-1.094l1.259-1.258a.775.775,0,0,1,1.258-.069c.23.185.468.362.709.534a1.4,1.4,0,0,0,1.207-.233,2.318,2.318,0,0,0,.226-1.075c-.02-.669.209-1.025.825-.947a2.293,2.293,0,0,0,.362-.009m-3.886,2.787-.085.058a3.533,3.533,0,0,0-.752.721.187.187,0,0,0,.014.279c.248.289.461.609.7.908a.6.6,0,0,1,.077.734,5.931,5.931,0,0,0-.547,1.315.6.6,0,0,1-.514.481c-.3.048-.607.107-.912.139-.487.05-.488.042-.488.521,0,.23,0,.46,0,.69,0,.139.04.248.2.242.387-.015.752.133,1.132.143a.571.571,0,0,1,.57.451,7.032,7.032,0,0,0,.563,1.347.592.592,0,0,1-.08.732c-.1.119-.194.243-.29.365-.533.678-.533.679.087,1.3a1.266,1.266,0,0,1,.153.155c.12.172.244.132.382.026.3-.231.61-.457.914-.687a.57.57,0,0,1,.673-.045,6.73,6.73,0,0,0,1.377.571.555.555,0,0,1,.425.478c.053.4.1.8.142,1.2.017.181.117.215.268.214.3,0,.605,0,.908,0,.114,0,.2,0,.213-.162.029-.355.087-.708.141-1.06.052-.333.166-.633.537-.723a5.88,5.88,0,0,0,1.278-.526.667.667,0,0,1,.773.081c.3.237.616.454.911.7.1.085.165.117.266.01.258-.272.66-.5.744-.816.074-.276-.363-.54-.537-.835a1.348,1.348,0,0,0-.148-.2.752.752,0,0,1-.055-.96,4.723,4.723,0,0,0,.457-1.12.57.57,0,0,1,.5-.494c.368-.037.735-.094,1.1-.144.233-.032.391-.109.35-.405a4.557,4.557,0,0,1,0-.762c0-.146-.031-.2-.2-.219-.355-.04-.7-.117-1.062-.148a.694.694,0,0,1-.687-.528,5.286,5.286,0,0,0-.515-1.249.669.669,0,0,1,.05-.776c.226-.292.442-.592.666-.886.113-.149.157-.264-.034-.409a4.326,4.326,0,0,1-.568-.56c-.123-.136-.2-.192-.371-.036-.273.248-.589.448-.882.675a.66.66,0,0,1-.774.068,5.33,5.33,0,0,0-1.21-.5.7.7,0,0,1-.559-.578c-.071-.4-.133-.8-.178-1.2-.015-.137-.048-.191-.19-.188-.339.007-.678,0-1.017,0-.112,0-.171.022-.183.157-.036.414-.095.827-.138,1.241a.552.552,0,0,1-.41.492,7.317,7.317,0,0,0-1.411.582.557.557,0,0,1-.642-.039c-.3-.218-.591-.443-.888-.663-.077-.057-.161-.1-.246-.157" transform="translate(-236.719 -236.6)" fill="#12263f"/>
          <path id="Trazado_728129" data-name="Trazado 728129" d="M34.207,0a.175.175,0,0,1-.291,0Z" transform="translate(-31.446 0.001)" fill="#0a0a0a"/>
          <path id="Trazado_728130" data-name="Trazado 728130" d="M39.724,48.8a16.028,16.028,0,0,1-3.973.218c-.03-.582-.03-.582-.628-.582q-8.753,0-17.505,0A1.766,1.766,0,0,1,15.976,46.8q0-14.6,0-29.2a1.667,1.667,0,0,1,1.759-1.717c3.135-.009,6.271,0,9.406,0,2.748,0,5.5,0,8.244-.006.274,0,.366.054.359.348-.021.92.012,1.84-.012,2.76a1.792,1.792,0,0,0,1.57,1.551c.92-.017,1.84.01,2.76-.01.28-.006.331.076.331.34q-.014,5.339-.006,10.677c0,.6,0,.6.582.628q0,.569,0,1.138a2.3,2.3,0,0,1-.362.009c-.616-.078-.845.278-.825.947a2.318,2.318,0,0,1-.226,1.076,1.4,1.4,0,0,1-1.207.233c-.241-.172-.478-.348-.709-.534a.774.774,0,0,0-1.257.069l-1.259,1.258c-.419.419-.432.61-.08,1.095.173.238.325.493.512.72.154.187.337.341.181.617-.195.343-.208.832-.819.787a3.711,3.711,0,0,0-1.085.145.524.524,0,0,0-.42.551c0,.787-.013,1.574.005,2.361.011.485.326.552.835.63a5.756,5.756,0,0,1,.9.161c-.076.36.2.368.425.425.22.3.305.575-.024.89a6.578,6.578,0,0,0-.615.814.586.586,0,0,0,.029.83q.811.826,1.637,1.636c.275.27.45.26.873-.019.033.214.237.294.348.447.226.31.44.3.746.064a2.663,2.663,0,0,1,1-.666,2.821,2.821,0,0,1,.145.945M26.284,20.963l0,0-.431.167c-.055,0-.125-.04-.131.062-.057.14-.185.143-.307.16-.046-.009-.068,0-.049.053-.023.058-.009.139-.1.159-.085,0-.115.065-.149.126a2.944,2.944,0,0,0-.578.6.536.536,0,0,0-.2.031c-.034.02,0,.084.051.1l-.148.284c-.078.036-.251-.054-.2.152l-.095.431,0,0c-.089.013-.2.007-.14.153.035.167-.083.3-.108.449,0,.106-.236.125-.1.278a2.872,2.872,0,0,0-.071.8q0,.182,0,.363a4.217,4.217,0,0,0,1.139,2.914c.132.15.17.413.435.433a.224.224,0,0,0,.156.218,4.964,4.964,0,0,1,.377.8c-.015.051.018.068.058.08a.761.761,0,0,0,.022.249c.144.315.05.436-.29.4-.131-.015-.267.012-.4-.005-.276-.038-.364.053-.357.345.02.819.006.838.817.812.321-.01.363.1.363.383a3.451,3.451,0,0,0,.06,1.233l.063.07a.879.879,0,0,0,.517.514c.036.058.066.123.15.122l.944.024c.085.424.239.566.648.568.711,0,1.422,0,2.132,0,.52,0,.707-.194.708-.725q0-1.084,0-2.168c.183-.042.379.038.555-.049a3.6,3.6,0,0,0-.017-1.11.457.457,0,0,0-.174-.026.608.608,0,0,1,.138-.4,15.027,15.027,0,0,1,1.242-1.478l.079.072c.211.129.43.247.632.389.254.178.449.172.584-.134.033-.075.064-.152.1-.225.253-.473.254-.472-.2-.738-.477-.282-.477-.282-.835.137l-.077-.082a4.436,4.436,0,0,0,.216-2.334,2.714,2.714,0,0,0-.638-1.445,4.779,4.779,0,0,0-1.965-2.858,4.377,4.377,0,0,0-2.627-.762h-.145a7.144,7.144,0,0,0-1.526.289c-.118-.037-.156.021-.154.128M25.261,39.715h6.174c.818,0,.8,0,.823-.821.008-.3-.087-.348-.359-.347q-6.374.013-12.748.006c-.859,0-.847,0-.859.858,0,.263.076.312.322.311,2.215-.01,4.431-.006,6.646-.006m.013,3.488H19.1c-.8,0-.785,0-.808.8-.009.308.078.37.375.369q6.374-.016,12.748-.007c.841,0,.827,0,.844-.837.006-.277-.072-.334-.338-.332-2.215.012-4.431.007-6.646.007m1.136-1.163h5.084c.757,0,.736,0,.767-.77.014-.35-.109-.4-.419-.4-3.45.011-6.9.007-10.35.007-.879,0-.867,0-.873.88,0,.254.087.288.308.287,1.828-.008,3.656,0,5.484,0m-2.878-5.813H19.1c-.8,0-.786,0-.809.8-.009.3.073.372.374.371,3.087-.012,6.174-.008,9.26-.008.842,0,.828,0,.845-.835.005-.274-.067-.336-.337-.334-1.634.014-3.268.007-4.9.007m7.524,1.163h.29c.956,0,.953,0,.908-.948-.007-.138-.013-.221-.19-.219-.653.01-1.306.005-1.959,0-.109,0-.186.009-.181.151.012.324-.084.7.054.955.1.179.514.039.787.057.1.006.193,0,.29,0M23.387,21.857a.34.34,0,0,0-.176-.218,1.348,1.348,0,0,1-.3-.176c-.274-.305-.475-.274-.752.033-.185.2-.168.452-.275.666-.077.154.233.161.345.266.032.031.05.084.087.1.173.082.474.254.507.214a7.514,7.514,0,0,0,.563-.887m2.36-2.034c-.18-.308-.356-.612-.536-.912-.015-.025-.072-.053-.089-.043-.3.17-.712.279-.878.54s.3.5.354.816c.005.03.1.231.262.158a4.709,4.709,0,0,0,.545-.245,2.263,2.263,0,0,0,.342-.314m5.736.562c.125.009.174-.086.227-.16a3.809,3.809,0,0,0,.219-.361c.136-.246.287-.455-.114-.661a5.361,5.361,0,0,1-.568-.3c-.109-.074-.127-.02-.174.068-.131.249-.282.488-.418.734-.033.06-.069.185-.053.194.291.17.589.326.881.483m3.025,1.827c-.047-.089-.065-.119-.079-.152-.387-.873-.512-.915-1.316-.437-.01.006-.023.008-.033.014a.2.2,0,0,0-.077.334c.147.225.281.459.406.7.039.074.047.13.144.073.283-.164.568-.325.853-.486a.844.844,0,0,1,.1-.045M22.521,29.1c.247-.133.549-.29.843-.459.048-.027.033-.111,0-.166-.163-.273-.329-.543-.488-.818-.038-.066-.069-.087-.136-.045-.29.177-.667.293-.843.549-.114.166.224.451.34.693a.334.334,0,0,1,.054.13c0,.128.076.13.23.118m11.474-3.941c0,.605,0,.605.594.605.569,0,.569,0,.569-.557,0-.605,0-.605-.594-.605-.569,0-.569,0-.569.557m-12.788-.011c0,.616,0,.616.619.616.544,0,.544,0,.544-.546,0-.616,0-.616-.619-.616-.544,0-.544,0-.544.546M19.463,41.464c0-.587,0-.587-.576-.587s-.587,0-.587.576,0,.587.576.587.587,0,.587-.576m9.3-22.642c0-.615,0-.615-.621-.615-.542,0-.542,0-.542.548,0,.615,0,.615.621.615.542,0,.542,0,.542-.548" transform="translate(-14.812 -14.719)" fill="#e0e2e3"/>
          <path id="Trazado_728131" data-name="Trazado 728131" d="M303.275,27.392l2.49,2.5c.033.033.062.069.134.149-.761,0-1.477.023-2.191-.012a.484.484,0,0,1-.432-.532c-.005-.672,0-1.345,0-2.1" transform="translate(-281.184 -25.397)" fill="#adafb2"/>
          <path id="Trazado_728132" data-name="Trazado 728132" d="M2.054,22.1c-.038-.122.04-.176.13-.223,0,.1.015.208-.13.223" transform="translate(-1.895 -20.28)" fill="#0a0a0a"/>
          <path id="Trazado_728133" data-name="Trazado 728133" d="M16.778,6.2c.016-.038.03-.078.085-.057l-.085.057" transform="translate(-15.556 -5.689)" fill="#0a0a0a"/>
          <path id="Trazado_728134" data-name="Trazado 728134" d="M16.866,471.885c-.055.021-.069-.019-.084-.056l.084.056" transform="translate(-15.56 -437.462)" fill="#0a0a0a"/>
          <path id="Trazado_728135" data-name="Trazado 728135" d="M273.837,272.918c.085.054.169.1.246.157.3.219.59.445.888.663a.557.557,0,0,0,.642.039,7.317,7.317,0,0,1,1.411-.582.552.552,0,0,0,.41-.492c.043-.414.1-.826.138-1.241.012-.135.071-.158.183-.157.339,0,.678.006,1.017,0,.142,0,.174.051.19.188.045.4.107.8.178,1.2a.7.7,0,0,0,.559.578,5.321,5.321,0,0,1,1.209.5.661.661,0,0,0,.774-.068c.292-.227.609-.427.882-.675.172-.156.248-.1.371.036a4.34,4.34,0,0,0,.568.56c.19.145.147.26.034.409-.224.294-.44.593-.666.886a.669.669,0,0,0-.05.776,5.288,5.288,0,0,1,.516,1.249.694.694,0,0,0,.687.528c.359.031.708.108,1.062.148.165.019.2.073.2.219a4.57,4.57,0,0,0,0,.762c.04.3-.117.373-.35.405-.367.051-.734.107-1.1.144a.57.57,0,0,0-.5.494,4.724,4.724,0,0,1-.457,1.12.752.752,0,0,0,.055.96,1.348,1.348,0,0,1,.148.2c.174.295.61.559.537.835-.084.315-.486.544-.744.816-.1.107-.163.074-.266-.01-.3-.242-.611-.46-.911-.7a.667.667,0,0,0-.773-.081,5.879,5.879,0,0,1-1.278.526c-.372.09-.486.39-.537.723-.055.352-.112.705-.141,1.06-.014.166-.1.163-.213.162-.3,0-.605,0-.908,0-.151,0-.251-.032-.268-.213-.038-.4-.089-.8-.142-1.2a.555.555,0,0,0-.425-.478,6.721,6.721,0,0,1-1.377-.572.57.57,0,0,0-.673.045c-.3.23-.611.456-.914.687-.138.106-.263.145-.383-.026a1.261,1.261,0,0,0-.152-.155c-.62-.62-.62-.62-.087-1.3.1-.122.19-.246.29-.365a.592.592,0,0,0,.08-.732,7.03,7.03,0,0,1-.563-1.347.571.571,0,0,0-.57-.451c-.38-.011-.746-.158-1.132-.143-.158.006-.2-.1-.2-.242,0-.23,0-.46,0-.69,0-.48,0-.471.488-.521.306-.031.608-.091.912-.139a.6.6,0,0,0,.514-.481,5.929,5.929,0,0,1,.547-1.315.6.6,0,0,0-.077-.734c-.238-.3-.451-.619-.7-.908A.187.187,0,0,1,273,273.7a3.53,3.53,0,0,1,.752-.721l.085-.058m4.414,8.85a3.486,3.486,0,1,0,.051-6.971,3.486,3.486,0,0,0-.051,6.971m-2.814.272a1.645,1.645,0,0,0-.116-.162c-.2-.206-.412-.406-.611-.616-.094-.1-.151-.057-.238.013-.747.606-.746.74-.025,1.391.138.125.212.105.317-.017a2.985,2.985,0,0,1,.281-.281c.125-.112.258-.216.393-.329m2.865-8.409c.582,0,.582,0,.583-.407,0-.755,0-.755-.417-.755-.746,0-.746,0-.746.462,0,.7,0,.7.58.7m-4.649,4.671c0-.6,0-.6-.424-.6-.738,0-.738,0-.738.433,0,.729,0,.729.442.729.72,0,.72,0,.72-.56m9.864.56c.6,0,.6,0,.6-.572,0-.591,0-.591-.581-.591s-.581,0-.581.59c0,.572,0,.572.563.572m-8.959-3.5c.262-.191.42-.459.69-.608.151-.083.167-.185.025-.336-.674-.722-.714-.723-1.366.019-.1.119-.11.185,0,.291.22.2.429.421.646.636m3.76,8.737c.567,0,.567,0,.567-.532,0-.63,0-.63-.614-.63-.548,0-.548,0-.548.55,0,.612,0,.612.6.612m3.653-1.324c.044-.038.089-.073.13-.112.163-.161.315-.335.49-.482s.208-.248.014-.434c-.617-.592-.6-.594-1.219.013-.185.181-.188.291.006.449.158.129.292.287.438.432.043.042.087.083.142.134m.035-9c-.072.066-.114.1-.154.14-.111.11-.221.221-.332.331-.355.355-.355.355.013.708.437.42.437.42.868,0,.377-.365.376-.363,0-.741-.135-.137-.258-.285-.4-.44" transform="translate(-251.564 -251.542)" fill="#e8e8e8"/>
          <path id="Trazado_728136" data-name="Trazado 728136" d="M313.324,446.606a2.665,2.665,0,0,0-1,.666c-.306.241-.519.246-.746-.064-.111-.152-.315-.233-.348-.447.321-.239.647-.47.959-.72a.3.3,0,0,1,.386-.03,1.633,1.633,0,0,0,.514.212c.258.04.274.185.238.383" transform="translate(-288.558 -413.472)" fill="#cfced1"/>
          <path id="Trazado_728137" data-name="Trazado 728137" d="M279.563,394.413c-.227-.057-.5-.065-.425-.425.368-.085.394.172.425.425" transform="translate(-258.794 -365.276)" fill="#cfced1"/>
          <path id="Trazado_728138" data-name="Trazado 728138" d="M120.408,82.1l.148-.284a.127.127,0,0,0,.145-.133,2.941,2.941,0,0,1,.578-.6c.187.121.129-.048.149-.126.087-.02.072-.1.1-.159l.049-.053c.121-.017.249-.021.307-.16l.131.07c.2-.02.4-.034.43-.3l0,0c.091.006.147-.032.154-.128a7.14,7.14,0,0,1,1.526-.289c.007.047.013.1.073.1s.065-.056.072-.1a4.377,4.377,0,0,1,2.627.762,4.779,4.779,0,0,1,1.965,2.858,4.616,4.616,0,0,1-.017,2.08,5.255,5.255,0,0,1-.817,1.767c-.217.315-.563.519-.724.877-.108,0-.2.013-.2.154-.1.246-.186.5-.3.737-.259.536-.2.636.376.635.144,0,.288-.007.432-.01a.457.457,0,0,1,.174.026,3.6,3.6,0,0,1,.017,1.11c-.175.087-.371.008-.555.05-.582-.031-.582-.031-.582.527,0,.169,0,.337,0,.506a1.215,1.215,0,0,1-1.283,1.284c-.541-.015-1.083,0-1.625.008l-.944-.024c-.019-.079.037-.249-.15-.122a.878.878,0,0,1-.517-.514c.043-.025.087-.061.044-.107s-.082-.006-.108.037a3.45,3.45,0,0,1-.06-1.233c0-.282-.041-.393-.363-.383-.811.026-.8.007-.817-.812-.007-.291.081-.382.357-.345.13.018.266-.009.4.005.34.038.434-.083.29-.4a.762.762,0,0,1-.022-.249l-.058-.08a4.958,4.958,0,0,0-.377-.8c0-.112,0-.221-.156-.218-.265-.02-.3-.283-.435-.433a4.217,4.217,0,0,1-1.139-2.914c.127.005.206-.032.207-.181s-.078-.188-.206-.182a2.875,2.875,0,0,1,.071-.8c.175-.042.133-.161.1-.278.025-.152.143-.282.108-.449a.129.129,0,0,0,.14-.153l0,0c.263-.03.278-.233.3-.431q0-.076,0-.152m5.74-.5L125.5,81.3c-.02-.1-.052-.17-.148-.052a4.825,4.825,0,0,0-1.7-.089,3.46,3.46,0,0,0-2.805,3.673c.015.157-.076.342-.021.474a6.462,6.462,0,0,0,1.4,2.157,2.685,2.685,0,0,1,.73,1.4c-.114.1-.036.129.061.147a4.2,4.2,0,0,1,.077.487c.011.243.117.324.361.317q.852-.024,1.7,0c.247.007.384-.022.348-.324a1.2,1.2,0,0,1,.083-.523,4.615,4.615,0,0,1,1.419-2.141c.157,0,.158-.107.155-.219a3.655,3.655,0,0,0,.141-3.844c.119-.121.021-.132-.073-.145a6.869,6.869,0,0,0-.94-.941c-.013-.094-.024-.191-.145-.074m-1.806,10.53h.29c.907,0,.907,0,.863-.926a.208.208,0,0,1,0-.036c.022-.163-.058-.2-.209-.2-.641.006-1.282.005-1.924,0-.135,0-.181.041-.2.183-.1.982-.108.981.849.981h.327" transform="translate(-110.964 -74.117)" fill="#12263f"/>
          <path id="Trazado_728139" data-name="Trazado 728139" d="M54.749,328.283c-2.215,0-4.431,0-6.646.006-.247,0-.326-.048-.322-.311.012-.857,0-.858.859-.858q6.374,0,12.748-.006c.273,0,.367.052.359.347-.021.821-.006.821-.823.821H54.749" transform="translate(-44.3 -303.287)" fill="#12263f"/>
          <path id="Trazado_728140" data-name="Trazado 728140" d="M54.74,390.955c2.215,0,4.431.005,6.646-.007.266,0,.344.055.338.332-.017.837,0,.837-.844.837q-6.374,0-12.748.007c-.3,0-.384-.062-.375-.369.024-.8.007-.8.808-.8Z" transform="translate(-44.279 -362.472)" fill="#12263f"/>
          <path id="Trazado_728141" data-name="Trazado 728141" d="M85.493,360.2c-1.828,0-3.656,0-5.484,0-.221,0-.31-.033-.308-.287.006-.88-.006-.88.873-.88,3.45,0,6.9,0,10.35-.007.31,0,.433.048.419.4-.031.769-.009.77-.767.77H85.493" transform="translate(-73.896 -332.876)" fill="#12263f"/>
          <path id="Trazado_728142" data-name="Trazado 728142" d="M53,295.186c1.634,0,3.268.007,4.9-.007.27,0,.342.06.337.334-.017.835,0,.835-.845.835-3.087,0-6.174,0-9.26.008-.3,0-.382-.066-.374-.371.023-.8.007-.8.809-.8Z" transform="translate(-44.281 -273.679)" fill="#12263f"/>
          <path id="Trazado_728143" data-name="Trazado 728143" d="M215.98,134.392c.161-.358.506-.562.724-.877a5.257,5.257,0,0,0,.817-1.767,4.617,4.617,0,0,0,.017-2.08,2.714,2.714,0,0,1,.638,1.445,4.435,4.435,0,0,1-.216,2.334,1.436,1.436,0,0,0-.291.58,15.028,15.028,0,0,0-1.242,1.478.608.608,0,0,0-.138.4c-.144,0-.288.01-.432.01-.58,0-.635-.1-.376-.635.115-.238.2-.491.3-.737a.177.177,0,0,0,.2-.154" transform="translate(-199.649 -120.223)" fill="#cfced1"/>
          <path id="Trazado_728144" data-name="Trazado 728144" d="M175.557,233.788c.542,0,1.084-.023,1.625-.008a1.215,1.215,0,0,0,1.283-1.284c0-.168,0-.337,0-.506,0-.558,0-.558.582-.527q0,1.084,0,2.168c0,.532-.188.724-.708.726-.711,0-1.422,0-2.132,0-.409,0-.563-.144-.648-.568" transform="translate(-162.77 -214.594)" fill="#cfced1"/>
          <path id="Trazado_728145" data-name="Trazado 728145" d="M208.332,296.39c-.1,0-.194.005-.29,0-.273-.018-.689.122-.787-.057-.138-.253-.042-.631-.054-.955-.005-.141.072-.151.181-.151.653,0,1.306.007,1.959,0,.177,0,.183.08.19.218.045.948.048.948-.908.948Z" transform="translate(-192.089 -273.72)" fill="#12263f"/>
          <path id="Trazado_728146" data-name="Trazado 728146" d="M98.449,90.266a7.526,7.526,0,0,1-.563.887c-.033.04-.333-.133-.507-.214-.037-.017-.055-.071-.087-.1-.112-.106-.422-.112-.345-.266.107-.214.09-.462.275-.666.277-.307.478-.338.752-.033a1.351,1.351,0,0,0,.3.176.34.34,0,0,1,.176.218" transform="translate(-89.874 -83.128)" fill="#12263f"/>
          <path id="Trazado_728147" data-name="Trazado 728147" d="M130.525,57.891a2.259,2.259,0,0,1-.342.314,4.71,4.71,0,0,1-.545.245c-.163.072-.257-.129-.262-.158-.056-.315-.52-.556-.354-.816s.574-.37.878-.54c.017-.01.074.019.089.043.18.3.356.6.536.912" transform="translate(-119.592 -52.786)" fill="#12263f"/>
          <path id="Trazado_728148" data-name="Trazado 728148" d="M217.6,58.515c-.292-.157-.59-.313-.881-.483-.016-.009.02-.134.053-.194.136-.246.287-.485.418-.734.047-.089.064-.142.174-.068a5.374,5.374,0,0,0,.568.3c.4.205.25.414.114.661a3.816,3.816,0,0,1-.219.361c-.053.075-.1.17-.228.16" transform="translate(-200.934 -52.849)" fill="#12263f"/>
          <path id="Trazado_728149" data-name="Trazado 728149" d="M250.521,91.505a.86.86,0,0,0-.1.045c-.285.161-.57.321-.853.486-.1.056-.1,0-.144-.073-.125-.238-.259-.472-.406-.7a.2.2,0,0,1,.077-.334c.01-.006.023-.008.033-.014.8-.478.929-.437,1.316.437.014.032.033.063.079.152" transform="translate(-230.826 -84.012)" fill="#12263f"/>
          <path id="Trazado_728150" data-name="Trazado 728150" d="M97.6,178.2c-.154.012-.232.01-.23-.118a.336.336,0,0,0-.054-.13c-.116-.242-.453-.527-.34-.693.175-.255.552-.372.842-.549.068-.041.1-.02.137.045.159.275.325.545.488.818.033.055.047.139,0,.166-.294.169-.6.326-.843.459" transform="translate(-89.888 -163.823)" fill="#12263f"/>
          <path id="Trazado_728151" data-name="Trazado 728151" d="M248.758,178.423c.359-.419.359-.419.835-.137.449.265.449.265.2.738-.039.073-.07.149-.1.225-.135.307-.33.313-.584.134-.2-.142-.421-.26-.632-.389.061-.208.268-.342.289-.571" transform="translate(-230.371 -165.118)" fill="#12263f"/>
          <path id="Trazado_728152" data-name="Trazado 728152" d="M263.354,136.223c0-.557,0-.557.569-.557.594,0,.594,0,.594.605,0,.557,0,.557-.569.557-.594,0-.594,0-.594-.605" transform="translate(-244.172 -125.784)" fill="#12263f"/>
          <path id="Trazado_728153" data-name="Trazado 728153" d="M87.784,136.213c0-.546,0-.546.544-.546.619,0,.619,0,.619.616,0,.546,0,.546-.544.546-.619,0-.619,0-.619-.616" transform="translate(-81.39 -125.785)" fill="#12263f"/>
          <path id="Trazado_728154" data-name="Trazado 728154" d="M49.045,359.7c0,.576,0,.576-.587.576s-.576,0-.576-.587,0-.576.587-.576.576,0,.576.587" transform="translate(-44.394 -332.96)" fill="#12263f"/>
          <path id="Trazado_728155" data-name="Trazado 728155" d="M176.732,48.5c0,.548,0,.548-.542.548-.621,0-.621,0-.621-.615,0-.548,0-.548.542-.548.621,0,.621,0,.621.615" transform="translate(-162.781 -44.394)" fill="#12263f"/>
          <path id="Trazado_728156" data-name="Trazado 728156" d="M247.752,181.632c-.021.228-.227.363-.289.571l-.079-.072a1.437,1.437,0,0,1,.291-.58l.077.082" transform="translate(-229.366 -168.326)" fill="#dee0e1"/>
          <path id="Trazado_728157" data-name="Trazado 728157" d="M125.883,111.728c-.02.2-.035.4-.3.431l.095-.431h.2" transform="translate(-116.438 -103.59)" fill="#12263f"/>
          <path id="Trazado_728158" data-name="Trazado 728158" d="M119.878,140.646c.127-.006.206.034.206.182s-.08.187-.207.181q0-.182,0-.363" transform="translate(-111.145 -130.401)" fill="#12263f"/>
          <path id="Trazado_728159" data-name="Trazado 728159" d="M152.061,85.675c-.029.264-.232.278-.43.3v-.132l.431-.167" transform="translate(-140.585 -79.435)" fill="#12263f"/>
          <path id="Trazado_728160" data-name="Trazado 728160" d="M120.42,125.869c.035.116.077.235-.1.278-.138-.153.1-.172.1-.278" transform="translate(-111.518 -116.701)" fill="#12263f"/>
          <path id="Trazado_728161" data-name="Trazado 728161" d="M126.976,109.792h-.2c-.05-.206.123-.116.2-.152q0,.076,0,.152" transform="translate(-117.53 -101.654)" fill="#12263f"/>
          <path id="Trazado_728162" data-name="Trazado 728162" d="M131,103.911a.127.127,0,0,1-.145.133c-.055-.017-.085-.082-.051-.1a.536.536,0,0,1,.2-.031" transform="translate(-121.26 -96.342)" fill="#12263f"/>
          <path id="Trazado_728163" data-name="Trazado 728163" d="M160.546,260.932c.186-.127.131.044.15.122-.084,0-.114-.064-.15-.122" transform="translate(-148.852 -241.884)" fill="#050605"/>
          <path id="Trazado_728164" data-name="Trazado 728164" d="M141.485,191.592c.158,0,.159.106.156.218a.224.224,0,0,1-.156-.218" transform="translate(-131.179 -177.637)" fill="#12263f"/>
          <path id="Trazado_728165" data-name="Trazado 728165" d="M123.634,117.6a.129.129,0,0,1-.14.153c-.058-.146.051-.141.14-.153" transform="translate(-114.484 -109.033)" fill="#12263f"/>
          <path id="Trazado_728166" data-name="Trazado 728166" d="M141.754,93.931c-.019.078.039.247-.149.126.034-.06.064-.125.149-.126" transform="translate(-131.291 -87.089)" fill="#12263f"/>
          <path id="Trazado_728167" data-name="Trazado 728167" d="M152.581,252.755c.026-.043.064-.084.108-.037s0,.082-.044.107l-.063-.07" transform="translate(-141.467 -234.291)" fill="#050605"/>
          <path id="Trazado_728168" data-name="Trazado 728168" d="M157.648,83.816c-.007.1-.063.134-.154.128,0-.107.037-.165.154-.128" transform="translate(-146.022 -77.7)" fill="#0a0a0a"/>
          <path id="Trazado_728169" data-name="Trazado 728169" d="M180.7,79.97c-.007.047-.013.1-.072.1s-.066-.055-.073-.1h.145" transform="translate(-167.405 -74.145)" fill="#050605"/>
          <path id="Trazado_728170" data-name="Trazado 728170" d="M149.968,87.846v.132l-.131-.07c.005-.1.075-.066.131-.062" transform="translate(-138.923 -81.439)" fill="#0a0a0a"/>
          <path id="Trazado_728171" data-name="Trazado 728171" d="M148.756,205.507l.058.08c-.04-.012-.073-.029-.058-.08" transform="translate(-137.918 -190.538)" fill="#050605"/>
          <path id="Trazado_728172" data-name="Trazado 728172" d="M144.917,90.976l-.049.053c-.019-.05,0-.063.049-.053" transform="translate(-134.31 -84.346)" fill="#0a0a0a"/>
          <path id="Trazado_728173" data-name="Trazado 728173" d="M322.461,326.223a3.486,3.486,0,0,1,.051-6.971,3.486,3.486,0,1,1-.051,6.971m-.008-1.163a2.323,2.323,0,1,0,.022-4.644,2.291,2.291,0,0,0-2.291,2.331,2.319,2.319,0,0,0,2.269,2.313" transform="translate(-295.775 -295.997)" fill="#12263f"/>
          <path id="Trazado_728174" data-name="Trazado 728174" d="M308.291,408.065c-.135.113-.268.217-.393.329a2.99,2.99,0,0,0-.281.281c-.1.123-.179.142-.317.017-.721-.651-.722-.786.025-1.391.087-.07.144-.112.238-.014.2.209.408.41.611.616a1.642,1.642,0,0,1,.116.162" transform="translate(-284.418 -377.567)" fill="#12263f"/>
          <path id="Trazado_728175" data-name="Trazado 728175" d="M359.7,288.458c-.58,0-.58,0-.58-.7,0-.462,0-.462.746-.462.417,0,.417,0,.417.755,0,.407,0,.407-.583.407" transform="translate(-332.962 -266.369)" fill="#12263f"/>
          <path id="Trazado_728176" data-name="Trazado 728176" d="M288.459,359.721c0,.561,0,.561-.72.56-.443,0-.443,0-.442-.729,0-.434,0-.434.738-.433.424,0,.424,0,.424.6" transform="translate(-266.37 -332.961)" fill="#12263f"/>
          <path id="Trazado_728177" data-name="Trazado 728177" d="M431.507,360.282c-.563,0-.563,0-.563-.572,0-.59,0-.59.581-.59s.581,0,.581.591c0,.572,0,.572-.6.572" transform="translate(-399.555 -332.962)" fill="#12263f"/>
          <path id="Trazado_728178" data-name="Trazado 728178" d="M306.387,308.061c-.217-.215-.426-.431-.646-.636-.114-.106-.109-.172,0-.291.652-.742.692-.74,1.366-.019.141.151.125.253-.026.336-.27.149-.428.417-.69.609" transform="translate(-283.393 -284.246)" fill="#12263f"/>
          <path id="Trazado_728179" data-name="Trazado 728179" d="M359.716,432.105c-.6,0-.6,0-.6-.612,0-.55,0-.55.548-.55.614,0,.614,0,.614.63,0,.532,0,.532-.567.532" transform="translate(-332.962 -399.554)" fill="#12263f"/>
          <path id="Trazado_728180" data-name="Trazado 728180" d="M408.228,409.987c-.054-.051-.1-.092-.142-.134-.145-.145-.279-.3-.437-.432-.195-.159-.191-.269-.006-.449.62-.607.6-.605,1.219-.013.194.186.167.283-.014.434s-.327.321-.49.482c-.04.04-.086.074-.13.112" transform="translate(-377.821 -378.76)" fill="#12263f"/>
          <path id="Trazado_728181" data-name="Trazado 728181" d="M408.388,305.1c.14.156.264.3.4.44.372.378.374.376,0,.741-.432.418-.432.418-.868,0-.368-.354-.368-.354-.013-.708.111-.11.221-.221.332-.331.039-.039.081-.075.154-.14" transform="translate(-377.947 -282.879)" fill="#12263f"/>
          <path id="Trazado_728182" data-name="Trazado 728182" d="M141.32,101.72a4.615,4.615,0,0,0-1.419,2.141,1.2,1.2,0,0,0-.083.523c.036.3-.1.331-.348.324q-.852-.023-1.7,0c-.244.007-.35-.074-.361-.317a4.217,4.217,0,0,0-.077-.487c.009-.061,0-.116-.061-.147a2.683,2.683,0,0,0-.73-1.4,6.463,6.463,0,0,1-1.4-2.157c-.054-.132.036-.317.021-.474a3.461,3.461,0,0,1,2.805-3.673,4.825,4.825,0,0,1,1.7.089c.027.081.088.065.148.052l.652.308c.02.08.089.065.145.074a6.861,6.861,0,0,1,.94.941c.009.056-.006.125.073.145a3.655,3.655,0,0,1-.141,3.844.226.226,0,0,0-.155.219m-.955-2.028c.04-.138.031-.233-.156-.223a4.547,4.547,0,0,1-.578,0,.444.444,0,0,0-.523.284c-.182.394-.813.419-.944.03-.125-.368-.346-.311-.6-.312-.157,0-.314.009-.47,0s-.213.049-.195.206a1.711,1.711,0,0,0,.564,1.1c.015.039.033.074.085.063.5.176.563.56.515,1.02a7.789,7.789,0,0,0,0,.8c0,.908,0,.9.9.888.2,0,.27-.049.265-.259-.013-.629.005-1.258-.01-1.887a.4.4,0,0,1,.261-.43,1.492,1.492,0,0,0,.836-1.2c.033-.014.067-.027.05-.074" transform="translate(-125.274 -89.008)" fill="#ffc400"/>
          <path id="Trazado_728183" data-name="Trazado 728183" d="M168.125,232.563H167.8c-.957,0-.953,0-.849-.981.015-.142.061-.184.2-.183.641,0,1.283.005,1.924,0,.152,0,.232.04.21.2a.207.207,0,0,0,0,.036c.043.926.043.926-.863.926Z" transform="translate(-154.746 -214.543)" fill="#f36a10"/>
          <path id="Trazado_728184" data-name="Trazado 728184" d="M220.3,171.729a.226.226,0,0,1,.155-.219c0,.112,0,.221-.155.219" transform="translate(-204.256 -159.017)" fill="#12263f"/>
          <path id="Trazado_728185" data-name="Trazado 728185" d="M221.693,194.515a.177.177,0,0,1-.2.154c0-.141.089-.157.2-.154" transform="translate(-205.362 -180.347)" fill="#12263f"/>
          <path id="Trazado_728186" data-name="Trazado 728186" d="M163.924,202.485c.065.03.069.086.061.147-.1-.017-.175-.042-.061-.147" transform="translate(-151.932 -187.736)" fill="#12263f"/>
          <path id="Trazado_728187" data-name="Trazado 728187" d="M223.429,116.892c-.08-.021-.064-.089-.073-.145.095.013.192.025.073.145" transform="translate(-207.087 -108.243)" fill="#050605"/>
          <path id="Trazado_728188" data-name="Trazado 728188" d="M208.6,102.206c-.057-.008-.125.007-.145-.074.121-.118.132-.021.145.074" transform="translate(-193.275 -94.643)" fill="#12263f"/>
          <path id="Trazado_728189" data-name="Trazado 728189" d="M197.62,97.136c-.06.013-.121.028-.148-.052.1-.117.129-.05.148.052" transform="translate(-183.088 -89.955)" fill="#12263f"/>
          <path id="Trazado_728190" data-name="Trazado 728190" d="M337.4,339.889a2.319,2.319,0,0,1-2.269-2.313,2.291,2.291,0,0,1,2.291-2.331,2.323,2.323,0,1,1-.022,4.644" transform="translate(-310.717 -310.826)" fill="#6f88da"/>
          <path id="Trazado_728191" data-name="Trazado 728191" d="M160.186,144.871a1.711,1.711,0,0,1-.564-1.1c-.018-.158.034-.218.195-.206s.313,0,.47,0c.25,0,.471-.057.6.312.131.389.762.364.944-.03a.444.444,0,0,1,.523-.284,4.549,4.549,0,0,0,.578,0c.186-.01.2.084.156.223l-.05.074a1.492,1.492,0,0,1-.836,1.2.4.4,0,0,0-.261.43c.015.629,0,1.258.01,1.887,0,.21-.066.256-.265.259-.9.013-.9.02-.9-.888a7.767,7.767,0,0,1,0-.8c.048-.459-.018-.844-.515-1.02l-.085-.062" transform="translate(-147.992 -133.102)" fill="#12263f"/>
          <path id="Trazado_728192" data-name="Trazado 728192" d="M167.4,161.578l.085.063c-.052.011-.07-.024-.085-.062" transform="translate(-155.211 -149.809)" fill="#0e0c07"/>
          <path id="Trazado_728193" data-name="Trazado 728193" d="M206.513,146.75l.05-.074c.017.048-.017.06-.05.074" transform="translate(-191.471 -135.992)" fill="#0e0c07"/>
        </g>
      </g>
    </g>
    <g id="Grupo_1015146" data-name="Grupo 1015146" transform="matrix(0.978, -0.208, 0.208, 0.978, 969.026, 268.204)">
      <g id="Grupo_80178" data-name="Grupo 80178" transform="translate(-100.518 -8.075)" clip-path="url(#clip-path-2)">
        <path id="Trazado_151703" data-name="Trazado 151703" d="M14.807,4.985,2.524,5.028A2.532,2.532,0,0,0,0,7.57L.114,40.488a3.935,3.935,0,0,0,3.948,3.922l43.072-.15a2.381,2.381,0,0,0,2.373-2.389L49.4,11.212a2.06,2.06,0,0,0-2.068-2.054l-25.124.087Z" transform="translate(0 2.115)" fill="#c99905"/>
        <path id="Trazado_151704" data-name="Trazado 151704" d="M49.493,37.227l-.074-21.293L.032,16.1.106,37.4a2.379,2.379,0,0,0,2.389,2.371l44.626-.154a2.38,2.38,0,0,0,2.373-2.389" transform="translate(0.014 6.761)" fill="#ffca28"/>
        <path id="Trazado_151705" data-name="Trazado 151705" d="M1.957,16.38l.006,1.547L45.7,17.774,45.7,16.229a4.627,4.627,0,0,0-4.643-4.612l-34.488.12a4.626,4.626,0,0,0-4.61,4.643" transform="translate(0.83 4.929)" fill="#fff"/>
        <path id="Trazado_151706" data-name="Trazado 151706" d="M30.634,14.15l.01,2.97-1.919.007-.01-2.97a.959.959,0,1,1,1.919-.007" transform="translate(12.183 5.598)" fill="#f0e8e0"/>
        <path id="Trazado_151707" data-name="Trazado 151707" d="M27.594,14.16l.01,2.97-1.919.007-.01-2.97a.959.959,0,0,1,1.919-.007" transform="translate(10.894 5.602)" fill="#f0e8e0"/>
        <path id="Trazado_151708" data-name="Trazado 151708" d="M24.555,14.171l.01,2.97-1.919.007-.01-2.97a.959.959,0,0,1,1.919-.007" transform="translate(9.604 5.607)" fill="#f0e8e0"/>
        <path id="Trazado_151709" data-name="Trazado 151709" d="M21.515,14.181l.01,2.97-1.919.007-.01-2.97a.959.959,0,1,1,1.919-.007" transform="translate(8.314 5.611)" fill="#f0e8e0"/>
        <path id="Trazado_151710" data-name="Trazado 151710" d="M18.475,14.192l.01,2.97-1.919.007-.01-2.97a.959.959,0,0,1,1.919-.007" transform="translate(7.024 5.616)" fill="#f0e8e0"/>
        <path id="Trazado_151711" data-name="Trazado 151711" d="M15.436,14.2l.01,2.97-1.919.007-.01-2.97a.959.959,0,0,1,1.919-.007" transform="translate(5.735 5.62)" fill="#f0e8e0"/>
        <path id="Trazado_151712" data-name="Trazado 151712" d="M12.4,14.213l.01,2.97-1.919.007-.01-2.97a.959.959,0,0,1,1.919-.007" transform="translate(4.445 5.625)" fill="#f0e8e0"/>
        <path id="Trazado_151713" data-name="Trazado 151713" d="M9.356,14.223l.01,2.97L7.447,17.2l-.01-2.97a.959.959,0,0,1,1.919-.007" transform="translate(3.155 5.629)" fill="#f0e8e0"/>
        <path id="Trazado_151714" data-name="Trazado 151714" d="M6.316,14.234l.01,2.97-1.919.007-.01-2.97a.959.959,0,1,1,1.919-.007" transform="translate(1.866 5.634)" fill="#f0e8e0"/>
        <path id="Trazado_151715" data-name="Trazado 151715" d="M47.716,11.129A11.129,11.129,0,1,1,36.586,0,11.129,11.129,0,0,1,47.716,11.129" transform="translate(10.801 0)" fill="#12263f"/>
        <path id="Trazado_151716" data-name="Trazado 151716" d="M32.805,14.677h0a1.08,1.08,0,0,1-.763-.316l-2.728-2.728a1.08,1.08,0,0,1,1.527-1.527l1.964,1.964,7.653-7.653a1.08,1.08,0,1,1,1.527,1.527l-8.416,8.416a1.08,1.08,0,0,1-.763.316" transform="translate(12.303 1.74)" fill="#fff"/>
      </g>
    </g>
  </g>
</svg>
