<svg xmlns="http://www.w3.org/2000/svg" xmlns:xlink="http://www.w3.org/1999/xlink" width="1321" height="506.835" viewBox="0 0 1321 506.835">
  <defs>
    <clipPath id="clip-path">
      <path id="Rectangle_652" data-name="Rectangle 652" d="M1299.213,0H20.787C9.307,0,0,8.4,0,18.772V488.063c0,10.367,9.307,18.772,20.787,18.772H1299.213c11.48,0,20.787-8.4,20.787-18.772V18.772C1320,8.4,1310.693,0,1299.213,0Z" transform="translate(140.333 70)" fill="#9ac7dd"/>
    </clipPath>
  </defs>
  <g id="Grupo_1019307" data-name="Grupo 1019307" transform="translate(-140.333 -70.722)">
    <path id="Rectangle_652-2" data-name="Rectangle 652" d="M1299.213,0H20.787C9.307,0,0,8.4,0,18.772V488.063c0,10.367,9.307,18.772,20.787,18.772H1299.213c11.48,0,20.787-8.4,20.787-18.772V18.772C1320,8.4,1310.693,0,1299.213,0Z" transform="translate(140.333 70.722)" fill="#f2f2f2"/>
    <g id="Enmascarar_grupo_1012277" data-name="Enmascarar grupo 1012277" transform="translate(1 0.722)" clip-path="url(#clip-path)">
      <g id="Grupo_1015126" data-name="Grupo 1015126" transform="translate(-70.025 -29)">
        <path id="Trazado_729808" data-name="Trazado 729808" d="M1215.925,505.971c-193.557,322.4-695.42,752.834-1109.445,504.266C-265.278,787.045-587.433,258.448-393.876-63.949c107.839-179.621,269.028-202.085,426.8-49.5C158.329,7.84,266.841,278.913,450.2,388.994,693.6,535.129,977.955,289.058,1135.286,250.06,1245.568,222.724,1295.689,373.113,1215.925,505.971Z" transform="translate(1357.499 803.158) rotate(-155)" fill="#219cd5" opacity="0.15" style="mix-blend-mode: multiply;isolation: isolate"/>
        <path id="Trazado_729809" data-name="Trazado 729809" d="M196.55,560.829c17.715,34.453,50.7,57.088,87.588,67.785,43.738,12.681,85.825,5.917,129.709-.815,40.462-6.207,85.463-7.935,119.6,18.361C586.441,686.975,591.5,766.048,640.023,811.8a134.313,134.313,0,0,0,89.685,36.187c36.474.4,82.632-15.474,101.287-49.128,18.113-32.68-.244-65.219,6.188-98.674,12.581-65.428,102.934-61.539,146.59-94.017,20.86-15.517,34.9-38.67,44.514-62.826,10.673-26.808,16.486-56.673,9.261-84.61-11.968-46.276-56.921-63.6-100.7-65.259-32.533-1.236-64.873,7.137-94.75,20.072-26.422,11.44-51.276,26.449-78.3,36.385-66.738,24.539-132.48-6.775-190.061-40.442C499.82,366.275,423.478,324.61,335.1,339.479c-67.531,11.361-137.616,52.9-150.87,125.118-5.606,30.548-3.007,62.946,9.88,91.2Q195.279,558.356,196.55,560.829Z" transform="matrix(0.891, 0.454, -0.454, 0.891, -33.019, -186.356)" fill="#afafaf" style="mix-blend-mode: overlay;isolation: isolate"/>
        <path id="Trazado_729810" data-name="Trazado 729810" d="M199.607,606.221c21.3,41.421,60.95,68.635,105.3,81.5,52.585,15.246,103.185,7.114,155.945-.979,48.646-7.462,102.749-9.54,143.794,22.075,63.709,49.071,69.794,144.137,128.128,199.146A161.48,161.48,0,0,0,840.6,951.465c43.851.482,99.346-18.6,121.774-59.064,21.777-39.29-.293-78.411,7.439-118.632,15.125-78.661,123.754-73.987,176.24-113.033,25.08-18.656,41.956-46.492,53.517-75.533,12.832-32.23,19.821-68.136,11.135-101.723-14.389-55.636-68.434-76.46-121.068-78.459-39.113-1.486-78,8.58-113.914,24.132-31.766,13.754-61.647,31.8-94.137,43.744-80.236,29.5-159.276-8.145-228.5-48.622-88.868-51.959-180.651-102.051-286.9-84.174-81.19,13.659-165.45,63.6-181.385,150.425-6.739,36.727-3.615,75.678,11.878,109.652Q198.079,603.248,199.607,606.221Z" transform="translate(806.253 -227.954) rotate(8)" fill="#bebfbd" opacity="0.572" style="mix-blend-mode: overlay;isolation: isolate"/>
        <path id="Trazado_729811" data-name="Trazado 729811" d="M196.763,563.992c17.964,34.938,51.411,57.893,88.823,68.741,44.354,12.86,87.035,6,131.538-.826,41.032-6.294,86.668-8.047,121.289,18.62C592.15,691.917,597.283,772.1,646.487,818.5a136.207,136.207,0,0,0,90.949,36.7c36.988.407,83.8-15.693,102.715-49.82,18.368-33.141-.247-66.139,6.275-100.065,12.758-66.35,104.385-62.407,148.657-95.342,21.154-15.736,35.39-39.215,45.141-63.711,10.824-27.186,16.719-57.472,9.392-85.8-12.137-46.929-57.723-64.493-102.12-66.179-32.991-1.253-65.788,7.238-96.086,20.355-26.794,11.6-52,26.822-79.4,36.9-67.679,24.885-134.347-6.87-192.74-41.012-74.96-43.827-152.377-86.079-242-71-68.483,11.521-139.555,53.648-153,126.882-5.685,30.978-3.049,63.834,10.019,92.49Q195.474,561.484,196.763,563.992Z" transform="translate(1925.378 1051.219) rotate(176)" fill="#d9dbd7" opacity="0.19"/>
        <path id="Trazado_729812" data-name="Trazado 729812" d="M198.787,594.044c20.336,39.552,58.2,65.537,100.551,77.818,50.211,14.558,98.528,6.793,148.907-.935,46.45-7.125,98.112-9.11,137.3,21.078,60.834,46.856,66.644,137.633,122.346,190.159a154.193,154.193,0,0,0,102.959,41.543c41.872.46,94.862-17.765,116.279-56.4,20.794-37.517-.28-74.872,7.1-113.278,14.443-75.112,118.169-70.648,168.287-107.932,23.948-17.814,40.063-44.394,51.1-72.124,12.253-30.775,18.927-65.061,10.632-97.132-13.74-53.125-65.345-73.009-115.6-74.918-37.348-1.419-74.475,8.193-108.773,23.043-30.332,13.133-58.865,30.364-89.889,41.77-76.615,28.17-152.088-7.778-218.191-46.427-84.858-49.614-172.5-97.446-273.953-80.375-77.526,13.043-157.983,60.733-173.2,143.636-6.435,35.069-3.452,72.263,11.342,104.7Q197.328,591.205,198.787,594.044Z" transform="matrix(0.891, 0.454, -0.454, 0.891, -91.492, -263.959)" fill="none" stroke="#d9dbd7" stroke-width="7" opacity="0.928" style="mix-blend-mode: overlay;isolation: isolate"/>
        <path id="Trazado_729813" data-name="Trazado 729813" d="M1331.791,556.038c-207,344.794-743.731,805.134-1186.519,539.3-397.584-238.7-742.12-804.016-535.116-1148.81C-274.514-245.574-102.127-269.6,66.6-106.411,200.723,23.3,316.773,313.207,512.866,430.935c260.318,156.287,564.422-106.879,732.684-148.586C1363.493,253.114,1417.1,413.951,1331.791,556.038Z" transform="translate(1346.979 883.11) rotate(-155)" fill="#6f88da" opacity="0.15" style="mix-blend-mode: multiply;isolation: isolate"/>
        <path id="Trazado_729814" data-name="Trazado 729814" d="M1366.373,570.982c-211.017,351.479-758.15,820.743-1209.523,549.753C-248.442,877.41-599.658,301.131-388.641-50.348c117.566-195.824,293.3-220.314,465.3-53.963,136.72,132.228,255.02,427.754,454.915,547.764C796.936,602.77,1106.936,334.5,1278.46,291.986,1398.69,262.185,1453.332,426.14,1366.373,570.982Z" transform="translate(1425.325 911.954) rotate(-155)" fill="none" stroke="#12263f" stroke-width="3" opacity="0.15" style="mix-blend-mode: multiply;isolation: isolate"/>
      </g>
      <g id="Grupo_1015134" data-name="Grupo 1015134" transform="translate(-212.353 458.571)" opacity="0.164">
        <g id="Grupo_1015133" data-name="Grupo 1015133" opacity="0.554">
          <g id="Grupo_1015128" data-name="Grupo 1015128" transform="translate(272.993 -391.172)" opacity="0.25">
            <g id="Grupo_1015127" data-name="Grupo 1015127">
              <path id="Trazado_729815" data-name="Trazado 729815" d="M523.975-392.367c-24.994,4.356-45.4,24.668-54.142,48.485-2.41,6.57-4.064,13.515-3.835,20.509.47,14.456,8.728,27.29,15.143,40.252,4.089,8.263,7.482,17.353,7.676,26.674.074,3.559.006,8.687-1.8,11.89-1.855,3.3-5.939,4.1-8.75,6.335-6.686,5.319-3.789,16.82-9.277,23.368-2.638,3.149-6.75,4.568-10.651,5.853-9.842,3.239-19.962,6.656-27.775,13.459-10.175,8.859-13.707,24.794-9.919,37.457a106.467,106.467,0,0,0,7.359,18.26c3.316,6.436,7.324,12.625,9.2,19.617,2.652,9.866.734,20.62-3.994,29.675C419.152-63.6,381.228-52.572,353.051-59.349c-5.252-1.262-10.352-3.078-15.531-4.61-10.653-3.149-21.743-5.1-32.846-4.7s-22.235,3.217-31.681,9.061" transform="translate(-272.993 392.367)" fill="none" stroke="#000" stroke-miterlimit="10" stroke-width="1" stroke-dasharray="1.283 1.924 1.283 1.924"/>
              <path id="Trazado_729816" data-name="Trazado 729816" d="M556.344-144.464c-13.4-1.74-26.554-6.321-37.532-14.2s-19.68-19.164-23.494-32.128c-3.261-11.084-3.172-23.608-10.055-32.888-5.9-7.963-16.351-11.959-26.225-11.051s-19.03,6.337-25.488,13.86c-6,6.992-9.836,15.67-16.069,22.458a42.56,42.56,0,0,1-41.233,12.126" transform="translate(-213.361 483.333)" fill="none" stroke="#000" stroke-miterlimit="10" stroke-width="1" stroke-dasharray="1.283 1.924 1.283 1.924"/>
              <path id="Trazado_729817" data-name="Trazado 729817" d="M402.357-209.2c10.767,8.165,22.071,17.044,26.632,29.763,2.155,6.009,2.63,12.488,2.652,18.872.069,19.962-4.608,40.844-17.886,55.751-5.176,5.81-11.682,10.8-14.627,18.007-2.194,5.368-2.136,11.372-1.653,17.152.694,8.31,2.379,16.965,7.687,23.4,5.565,6.745,14.289,10.066,20.572,16.149,10.883,10.535,12.2,29.444,2.89,41.389" transform="translate(-201.26 498.152)" fill="none" stroke="#000" stroke-miterlimit="10" stroke-width="1" stroke-dasharray="1.283 1.924 1.283 1.924"/>
              <path id="Trazado_729818" data-name="Trazado 729818" d="M418.606-245.856a47.81,47.81,0,0,1-26.048-13.62c-7.064-7.227-11.7-16.58-18.966-23.6-11.816-11.421-29.717-15.291-45.838-12.108s-30.487,12.757-41.675,24.792" transform="translate(-265.436 447.872)" fill="none" stroke="#000" stroke-miterlimit="10" stroke-width="1" stroke-dasharray="1.283 1.924 1.283 1.924"/>
              <path id="Trazado_729819" data-name="Trazado 729819" d="M409.713-300.446c5.3,4.343,13.4,2.9,19.246-.678s10.442-8.911,16.2-12.623a35.713,35.713,0,0,1,27.5-4.606c15.554,3.814,27.537,17.878,43.443,19.744,6.133.721,12.346-.48,18.246-2.306,10.137-3.136,19.982-8.389,26.428-16.818" transform="translate(-194.034 434.54)" fill="none" stroke="#000" stroke-miterlimit="10" stroke-width="1" stroke-dasharray="1.283 1.924 1.283 1.924"/>
              <path id="Trazado_729820" data-name="Trazado 729820" d="M460.539-193.861c-5.742,13.12-7.02,28.921-.129,41.476,1.661,3.026,3.748,5.8,5.521,8.757a75.248,75.248,0,0,1,4.614,9.364c4.078,9.618,7.261,20.423,4.149,30.4-2.974,9.528-11.333,16.958-12.978,26.8C460-66.787,466.009-56.971,471.759-48.281" transform="translate(-167.462 507.009)" fill="none" stroke="#000" stroke-miterlimit="10" stroke-width="1" stroke-dasharray="1.283 1.924 1.283 1.924"/>
              <path id="Trazado_729821" data-name="Trazado 729821" d="M368.055-182.112a67.409,67.409,0,0,1-11.421,62.5c-3.726,4.594-8.05,8.664-12.068,13.007C334.195-95.4,325.757-82.132,321.762-67.4s-3.278,31.014,3.622,44.633" transform="translate(-246.235 513.794)" fill="none" stroke="#000" stroke-miterlimit="10" stroke-width="1" stroke-dasharray="1.283 1.924 1.283 1.924"/>
            </g>
            <path id="Trazado_729822" data-name="Trazado 729822" d="M437.1-359.887c-15.917,14.027-23.682,38.746-13.467,57.34,8.519,15.509,28.832,25.957,30.263,45.239.328,4.422-.421,9.107-3.111,12.633-4.625,6.064-13.944,7.558-17.558,14.273-2.4,4.461-1.533,9.953-2.884,14.835-1.544,5.581-5.946,10.024-10.987,12.868-12.205,6.884-25.22,9.732-34.806,21.106-6.678,7.924-9.926,19.68-5.08,28.839,3.281,6.2,9.883,10.722,11.166,17.621.424,2.28.215,4.662.831,6.9,1.44,5.223,7.329,8.358,12.729,7.9s10.194-3.791,13.772-7.861,6.173-8.888,9.115-13.439c9.7-15,19.5-27.809,38.5-27.886a35.763,35.763,0,0,1,10.962,1.338c13.174,4.179,22.773,25.138,24.283,37.87.3,2.537.1,5.106.278,7.656.894,13.007,12.484,24.131,25.458,25.434s26.089-6.662,31.834-18.367c2.794-5.693,4-12.057,6.738-17.774,3.28-6.837,8.691-12.6,11.163-19.766,1.016-2.95,1.508-6.07,2.685-8.96,2.526-6.2,7.9-10.705,13.108-14.917,7.643-6.187,15.5-12.5,20.543-20.943,7.231-12.117,7.728-27.111,6-41.115s-5.468-27.777-5.982-41.879c-.847-23.193,6.881-47.63-2.3-68.947-8.851-20.561-38.107-40.765-61.113-38.173-9.438,1.063-17.962,6.105-27.521,7.254-14.8,1.779-29.691.3-44.455,2.978C462.7-375.186,448.337-369.786,437.1-359.887Z" transform="translate(-212.838 394.723)" fill="none" stroke="#000" stroke-miterlimit="10" stroke-width="1"/>
            <path id="Trazado_729823" data-name="Trazado 729823" d="M317.258-122.781c-12.633,11.085-19.064,26.7-20.606,43.522-1.431,15.61-6.555,33.361,1.32,48.219C306.229-15.465,325.134-9.958,342.2-8.857c17.927,1.155,35.881-.885,53.778-2.458,30.872-2.71,62.028-4.024,92.774-.054C516.055-7.842,543.719-.175,570.677-5.9c10.061-2.138,20.61-6.917,25.127-16.512,1.986-4.22,2.6-8.973,3.19-13.631,3.125-24.721,9.856-51.725-9.519-71.485-9.225-9.41-21.768-14.2-33.155-20.55s-22.645-15.657-25.292-28.812c-3.092-15.37,6.471-31.765,1.581-46.622a24.156,24.156,0,0,0-15.812-15.51,23.032,23.032,0,0,0-21.24,4.789c-7.883,6.883-10.976,18.754-19.675,24.477-10.674,7.023-26.408,2.491-35.742,11.342-6.533,6.2-7.23,16.518-11.39,24.633-3.665,7.146-9.981,12.432-16.644,16.619-6.031,3.791-12.7,6.9-19.746,7.134-8.4.271-16.348-3.545-24.537-5.5A57.5,57.5,0,0,0,317.258-122.781Z" transform="translate(-261.039 491.982)" fill="none" stroke="#000" stroke-miterlimit="10" stroke-width="1"/>
            <path id="Trazado_729824" data-name="Trazado 729824" d="M442.594-342.077c-1.595,11.844,3.5,23.551,9.561,33.852s13.289,20.154,16.678,31.615,1.977,25.382-7.132,33.118c-8.137,6.911-20.481,7.451-28.1,14.933-10.35,10.169-8.919,30.128-21.935,36.542-3.106,1.53-6.686,2.011-9.642,3.816a17.683,17.683,0,0,0-5.911,6.592,31.7,31.7,0,0,0,1.447,32.76c4.158,6.056,10.38,10.519,14.243,16.766,7.14,11.546,4.326,27.663-4.974,37.554s-23.852,13.825-37.319,12.1c-13.669-1.749-27.741-8.692-40.563-3.641-2.366.932-4.684,2.275-7.225,2.259a12.291,12.291,0,0,1-6.081-2.16,49.355,49.355,0,0,1-23.392-43.008c.456-13.915,6.818-26.835,11.134-40.072a140.726,140.726,0,0,0,.226-85.855c-5.113-15.971-13.046-30.864-19.662-46.273-5.215-12.144-9.67-24.885-10.121-38.1s3.568-27.064,13.177-36.139c14.117-13.333,36.1-13.347,55.207-9.875s38.528,9.61,57.55,5.7c10.106-2.076,19.419-6.891,29.261-9.986s21.031-4.321,30.107.587c9.383,5.075,11.237,15.611,3.054,22.186C452.777-359.235,444.458-355.894,442.594-342.077Z" transform="translate(-272.53 392.417)" fill="none" stroke="#000" stroke-miterlimit="10" stroke-width="1"/>
            <path id="Trazado_729825" data-name="Trazado 729825" d="M559.957-376c-13.093-1.751-26.151,2.538-39.285,3.944-22.841,2.444-47.939-3.431-67.545,8.541-16.184,9.883-23.952,31.65-17.681,49.547,4.3,12.265,13.972,21.79,20.476,33.043s9.151,26.985.027,36.24c-4.355,4.419-10.9,6.783-13.8,12.272-2.713,5.141-1.369,11.464-2.8,17.1-2.887,11.364-15.565,16.711-26.567,20.767s-23.522,10.432-25.04,22.06a23.8,23.8,0,0,0,1.237,10.225c.94,2.953,2.343,5.96,4.931,7.664,3.974,2.614,9.506,1.248,13.246-1.691s6.223-7.141,9.1-10.931c9.6-12.647,24.849-21.238,40.727-21.38s31.869,8.8,38.794,23.09c5.625,11.6,5.995,26.737,16.394,34.363,9.631,7.063,24.266,3.5,32.178-5.447,11.3-12.773,10.8-32.383,20.129-46.66,9.692-14.835,29.047-22.473,35.444-39,7.646-19.755-6.943-41.009-7.321-62.189-.207-11.513,3.83-22.636,5.565-34.019C602.176-344.771,588.2-372.228,559.957-376Z" transform="translate(-206.806 401.578)" fill="none" stroke="#000" stroke-miterlimit="10" stroke-width="1"/>
            <path id="Trazado_729826" data-name="Trazado 729826" d="M359.516-375.758c-8.553-1.877-17.081-4.215-25.832-4.545a57.221,57.221,0,0,0-31.61,8.2c-7.329,4.447-13.888,11.019-15.916,19.348-3.139,12.895,5.042,25.456,11.614,36.985,25.8,45.265,30.6,101.958,12.77,150.915-3.1,8.519-6.9,17.023-7.272,26.081s3.676,19.058,12.074,22.478c7.02,2.857,14.949.508,22.529.533,9.866.032,19.262,4.146,29.06,5.3s21.538-2.032,25.008-11.267c3.182-8.468-2.081-17.752-8.26-24.358s-13.747-12.544-16.657-21.109a23.363,23.363,0,0,1,7.211-25c4.933-4,11.32-5.785,16.51-9.448a27.468,27.468,0,0,0,11.3-19.091c1.033-9.115-2.336-19.388,2.912-26.909,7.536-10.8,26.726-7.044,34.205-17.883,3.267-4.736,3.215-11.118,1.456-16.6s-5.013-10.325-7.9-15.3c-5.8-9.994-10.3-20.959-11.346-32.467a48.276,48.276,0,0,1,7.507-30.853c4.692-7.384,7.656-13.748-2.336-18.867-9.815-5.028-18.861,3.116-28.264,5.394C385.556-371.134,372.11-372.994,359.516-375.758Z" transform="translate(-265.789 398.805)" fill="none" stroke="#000" stroke-miterlimit="10" stroke-width="1"/>
            <path id="Trazado_729827" data-name="Trazado 729827" d="M546.561-115.541c-13.182-5.939-27.768-12.395-33.989-25.865-7.3-15.8-.1-34.362-.036-51.891.013-3.78-.432-7.855-2.851-10.674-5.259-6.129-15.315-1.972-20.464,4.255s-8.785,14.456-16,17.79c-10.992,5.076-26.758-2.953-34.4,6.7-4.335,5.476-3.026,13.485-4.024,20.5-1.966,13.8-13.789,24.428-26.719,28.115s-26.728,1.606-39.719-1.833c-8.112-2.147-16.406-4.838-24.69-3.594-17.7,2.66-28.61,22.309-30.926,40.758-1.3,10.393-.7,21.256,3.321,30.866S327.812-42.586,337.5-39.718c5.788,1.713,11.926,1.489,17.93,1.077,21.642-1.484,43.189-5.241,64.872-4.717,26.184.634,51.817,7.484,77.759,11.222,15.995,2.3,32.571,3.382,48.042-1.429s29.76-16.513,34.212-32.659C587.106-90.853,565.41-107.049,546.561-115.541Z" transform="translate(-250.397 499.433)" fill="none" stroke="#000" stroke-miterlimit="10" stroke-width="1"/>
            <path id="Trazado_729828" data-name="Trazado 729828" d="M350.116-370.825c-9.5-1.947-19.277-3.564-28.854-2.048s-19.049,6.673-23.489,15.292c-5.908,11.467-1.606,25.55,4.668,36.821s14.578,21.852,17.055,34.511c1.251,6.391,1.041,13,2.5,19.355,1.2,5.209,3.117,8.807,2.538,14.326-1.322,12.573,3.489,26.277,14.086,33.174s26.889,4.7,33.426-6.119c6.913-11.44,2.011-28.211,11.276-37.846,8.825-9.178,29.165-5.2,30.492-22,.592-7.518-5.206-13.78-9.774-19.781-4.939-6.49-8.878-13.958-10-22.036-1.077-7.757.705-15.953,5.774-22.036,4.5-5.4,10.312-9.766,3.142-16.293-6.312-5.744-14.917-1.655-22.36-1.312C370.268-366.347,360.16-368.768,350.116-370.825Z" transform="translate(-260.305 403.28)" fill="none" stroke="#000" stroke-miterlimit="10" stroke-width="1"/>
            <path id="Trazado_729829" data-name="Trazado 729829" d="M380.634-345.829c4.127-5.237,7.3-11.418-.8-15.179-9.333-4.332-21.8-.448-31.8-1.907-8.839-1.29-17.493-5.2-26.349-4.038-9.558,1.251-18.047,9.268-19.088,18.851-.62,5.7,1.2,11.377,3.49,16.63,4.573,10.5,11.055,20.053,16.321,30.228s9.377,21.4,8.61,32.827c-.331,4.939-1.568,9.789-1.827,14.731s.611,10.237,3.9,13.936a13.2,13.2,0,0,0,15.9,2.608c6.249-3.568,8.317-11.459,9.538-18.55s2.576-14.942,8.225-19.4c4.412-3.48,10.374-3.99,15.78-5.52s11.161-5.17,11.541-10.774c.364-5.4-4.318-9.576-8.009-13.529-5.118-5.479-9.028-12.246-10.314-19.632S375.993-339.941,380.634-345.829Z" transform="translate(-255.967 406.921)" fill="none" stroke="#000" stroke-miterlimit="10" stroke-width="1"/>
            <path id="Trazado_729830" data-name="Trazado 729830" d="M330.109-359.74c-4.775-1.156-10.117-2.537-14.344-.032-5.155,3.057-5.835,10.546-3.562,16.091s6.67,9.9,10.019,14.87c7.328,10.871,9.456,24.376,10.437,37.449q.906,12.087.715,24.223c-.028,1.775-.04,3.671.931,5.154,1.708,2.608,5.856,2.582,8.266.607s3.382-5.22,3.721-8.317.175-6.264.9-9.295a16.57,16.57,0,0,1,12.265-12.049c5.286-1.166,11.906-.1,15.122-4.455,2.552-3.456,1.182-8.511-1.454-11.9s-6.326-5.835-9.039-9.167a21.5,21.5,0,0,1-4.259-17.179c.931-5.143,7.055-10.538,5.3-15.778C361.808-359.434,338.112-357.8,330.109-359.74Z" transform="translate(-251.063 410.38)" fill="none" stroke="#000" stroke-miterlimit="10" stroke-width="1"/>
            <path id="Trazado_729831" data-name="Trazado 729831" d="M348.258-339.513c1.079-1.578,2.548-2.956,3.1-4.786.847-2.827-.871-5.939-3.349-7.544s-5.534-2.005-8.482-2.153-5.952-.087-8.784-.923c-1.311-.386-2.57-.962-3.914-1.221a8.012,8.012,0,0,0-7.853,2.942,6.9,6.9,0,0,0,.106,8.221c2.467,2.989,7.011,3.084,10.276,5.173a9.6,9.6,0,0,1,4.308,8.542c-.219,3.27-2.134,6.318-1.953,9.591.484,8.806,12.39,9.012,15.311,1.525C349.518-326.543,343.746-332.917,348.258-339.513Z" transform="translate(-247.192 413.207)" fill="none" stroke="#000" stroke-miterlimit="10" stroke-width="1"/>
            <path id="Trazado_729832" data-name="Trazado 729832" d="M341.471-328.268c-1.41.506-2.664,1.388-4.083,1.874-1.745.6-3.764.615-5.187,1.789-1.5,1.235-1.858,3.376-1.855,5.316s.254,3.948-.412,5.772c-.379,1.038-1.052,2.021-1.01,3.125a3.164,3.164,0,0,0,3.34,2.728,5.49,5.49,0,0,0,3.967-2.4,24.238,24.238,0,0,0,2.226-4.237,6.258,6.258,0,0,1,1.825-2.524,5.5,5.5,0,0,1,2.944-.852c4.471-.238,13.287,4.122,13.037-4.229C356.063-328.57,346.363-330.023,341.471-328.268Z" transform="translate(-240.692 428.991)" fill="none" stroke="#000" stroke-miterlimit="10" stroke-width="1"/>
            <path id="Trazado_729833" data-name="Trazado 729833" d="M345.564-259.1c.967,5.2-1.63,10.3-3.368,15.3-3.745,10.767-2.8,24.434,6.247,31.363,2.492,1.909,5.428,3.176,7.916,5.088s4.592,4.791,4.327,7.918a8.226,8.226,0,0,1-2.619,5.061c-4.255,4.141-10.954,4.411-16.8,3.382s-11.618-3.1-17.544-2.713c-2.507.162-5.005.767-7.506.517-5.146-.513-9.46-4.786-10.849-9.768s-.17-10.438,2.445-14.9c2.248-3.833,5.474-7.059,7.427-11.052,5.416-11.074-2.235-25.307,4.247-35.684C325.623-274.41,343.5-270.219,345.564-259.1Z" transform="translate(-254.631 462.976)" fill="none" stroke="#000" stroke-miterlimit="10" stroke-width="1"/>
            <path id="Trazado_729834" data-name="Trazado 729834" d="M317.821-240.514a1.869,1.869,0,0,0,.409,1.467,1.819,1.819,0,0,0,1.374.361c6.348-.361,8.1-10.722,10.708-14.966,2.576-4.193,2.879-6.659-2.235-9.258-3.141-1.6-8.224-2.283-9.97,1.521-1.585,3.453,2.218,7.373,2.357,10.773C320.61-247.023,317.989-244.056,317.821-240.514Z" transform="translate(-247.162 466.394)" fill="none" stroke="#000" stroke-miterlimit="10" stroke-width="1"/>
            <path id="Trazado_729835" data-name="Trazado 729835" d="M326.673-235.225a13.215,13.215,0,0,0-1.9-5.017c-1.077-1.447-3.023-2.418-4.714-1.794-1.754.648-2.565,2.669-2.854,4.515s-.285,3.819-1.24,5.427c-1.137,1.917-3.52,3.1-3.964,5.282-.527,2.574,2.071,4.808,4.636,5.379,4.769,1.06,8.624.732,13.169,2.586,1.746.713,13.133,5.5,14.231,1.413a5.5,5.5,0,0,0-1.936-5.28C336.172-228.027,328.982-225.355,326.673-235.225Z" transform="translate(-250.505 479.076)" fill="none" stroke="#000" stroke-miterlimit="10" stroke-width="1"/>
            <path id="Trazado_729836" data-name="Trazado 729836" d="M531.36-369.322c-14.673-.555-29.165,3.381-43.844,3.759-13.72.353-27.9-2.347-40.9,2.049-14.639,4.95-25.832,20.483-23.179,35.707,1.866,10.707,9.6,19.255,15.28,28.52a81.127,81.127,0,0,1,10.508,27.152c1.675,8.792,1.565,18.8-4.3,25.564-2.816,3.247-6.375,5.815-9.484,8.758a13.187,13.187,0,0,0-2.94,3.521c-2.647,5.327,2.486,12.3-.48,17.457-1.126,1.958-3.188,3.149-5.135,4.294-3.677,2.164-8.113,7.179-4.928,11.626,3.636,5.073,13.762,1.514,18.509.727,16.118-2.669,33.481,5.55,41.636,19.7,2.71,4.706,4.45,9.915,7.074,14.669s6.409,9.225,11.571,10.915c7.265,2.376,15.4-1.519,20.257-7.421s7.151-13.442,9.328-20.768,4.464-14.87,9.315-20.776c9.167-11.166,26.332-15.125,32.046-28.394,2.786-6.471,2.134-13.945.208-20.724s-5.047-13.16-7.182-19.875a59.4,59.4,0,0,1-2.557-26.073c2.117-15.177,12.458-33.429,6.66-48.94C563.54-362.006,545.08-368.8,531.36-369.322Z" transform="translate(-187.593 405.645)" fill="none" stroke="#000" stroke-miterlimit="10" stroke-width="1"/>
            <path id="Trazado_729837" data-name="Trazado 729837" d="M400.278-248.61a13.461,13.461,0,0,0-4.368,5.054c-.871,2.076-.655,4.759,1.054,6.225,1.652,1.418,4.217,1.3,6.137.27a14.95,14.95,0,0,0,4.628-4.526c2.414-3.234,4.759-6.813,7.941-9.363,1.849-1.483,8.044-3.144,7.821-5.127C422.673-263.374,402.532-250.393,400.278-248.61Z" transform="translate(-202.294 469.803)" fill="none" stroke="#000" stroke-miterlimit="10" stroke-width="1"/>
            <path id="Trazado_729838" data-name="Trazado 729838" d="M549.293-297.429c1.6-8.047,4.886-15.655,7-23.582s3-16.6-.162-24.164c-4.144-9.916-14.6-16.05-25.195-17.884s-21.435-.069-32.025,1.76-21.39,3.734-32.022,2.164c-6.282-.926-12.532-3.059-18.829-2.257-9.9,1.26-18.075,10.694-17.911,20.675.133,8.039,4.919,15.24,10.232,21.273s11.412,11.551,15.168,18.659c3.433,6.495,4.674,13.892,5.752,21.158.857,5.774,1.641,11.645.855,17.43s-3.336,11.563-8.017,15.051c-2.948,2.2-6.532,3.355-9.694,5.233s-6.081,4.894-6.168,8.569c-.107,4.633,4.106,9.837,1.046,13.317-1.828,2.079-6,3.325-4.934,5.883a3.5,3.5,0,0,0,2.185,1.688c8.225,3.016,17.753-1.768,26.017,1.137,3.819,1.342,6.921,4.207,9.459,7.361,5.266,6.544,8.542,14.526,13.953,20.951s14.272,11.238,22.115,8.235c4.709-1.8,8.067-6.078,10.262-10.618,3.439-7.112,4.546-15.081,6.51-22.732s5.108-15.469,11.368-20.287c9.4-7.234,27.332-10.905,21.219-26.42C551.713-269.467,546.019-280.931,549.293-297.429Z" transform="translate(-182.232 408.845)" fill="none" stroke="#000" stroke-miterlimit="10" stroke-width="1"/>
            <path id="Trazado_729839" data-name="Trazado 729839" d="M499.854-355.388c-9.771,2.226-19.784,4.917-29.676,3.316-5.324-.863-10.418-2.952-15.785-3.494s-11.465.9-14.359,5.45c-2.862,4.5-1.628,10.607,1.283,15.075s7.225,7.795,11.016,11.543c13.56,13.406,20.5,32.6,21.3,51.658.232,5.531-.057,11.257-2.425,16.261-2.955,6.245-8.893,10.686-15.315,13.231-4.7,1.86-10.8,4.174-10.749,9.227.047,4.449,5.236,7.018,9.678,7.231s9.124-.817,13.207.951c7.482,3.243,8.533,13.488,14.048,19.5,5.414,5.9,15.529,6.627,21.734,1.57,6.064-4.944,7.613-13.393,9.208-21.054,1.224-5.875,3.423-15.357,9.37-18.433,6.045-3.127,13.881-.633,17.766-8.138,2.941-5.682-.082-12.45-2.458-18.392-4.556-11.4-7.282-25.762-2.8-37.641,1.809-4.8,6.073-8.539,8.388-13.3,2.953-6.078,4.774-12.86,2.109-19.391C537.535-359.488,517.049-359.3,499.854-355.388Z" transform="translate(-177.46 412.511)" fill="none" stroke="#000" stroke-miterlimit="10" stroke-width="1"/>
            <path id="Trazado_729840" data-name="Trazado 729840" d="M497.855-307.464a11.919,11.919,0,0,1,1.475-1.757c3.881-3.8,9.864-4.212,14.78-6.52,8.979-4.218,15.2-14.938,13.108-24.832a15.468,15.468,0,0,0-7.886-10.584c-4.2-2.059-9.194-.156-13.4,1.223-9.063,2.972-17.869,7.427-27.4,7.826a38.347,38.347,0,0,1-11.746-1.357c-3.286-.912-6.34-2.8-9.855-2.657a7.642,7.642,0,0,0-6.059,3.108c-3.586,5.382,3.319,9.945,7.14,12.292,7.4,4.545,14.128,11.292,15.688,19.837.719,3.941.295,7.985.169,11.989-.2,6.239.473,14.493,8.18,15.837,3.726.648,7.384-1.947,9.3-5.207s2.505-7.1,3.311-10.8A23.556,23.556,0,0,1,497.855-307.464Z" transform="translate(-170.839 415.643)" fill="none" stroke="#000" stroke-miterlimit="10" stroke-width="1"/>
            <path id="Trazado_729841" data-name="Trazado 729841" d="M513.764-292.1c1.546,4.775,3.228,10.263.614,14.548-2.36,3.866-7.269,5.129-11.082,7.574a18.938,18.938,0,0,0-7.94,10.754c-1.008,3.619-.909,7.466-1.806,11.115s-3.221,7.367-6.891,8.175c-3.608.8-7.165-1.459-9.889-3.955s-5.285-5.449-8.81-6.559c-2.677-.844-5.827-.593-7.978-2.4-2.41-2.022-2.423-5.884-.972-8.676s4-4.807,6.356-6.9,4.669-4.505,5.36-7.575c.764-3.4-.582-7.135.768-10.344,1.874-4.453,7.61-5.42,12.4-6.029a8.68,8.68,0,0,0,4.206-1.322,7.184,7.184,0,0,0,1.86-2.335c4.255-7.686,3.109-18.478,9.989-23.939,5.965-4.736,10.525,2.231,10.811,7.765C511.128-305.091,511.526-299.019,513.764-292.1Z" transform="translate(-166.133 433.274)" fill="none" stroke="#000" stroke-miterlimit="10" stroke-width="1"/>
            <path id="Trazado_729842" data-name="Trazado 729842" d="M493.973-319.478a38.762,38.762,0,0,0,11.087-4.766,22.118,22.118,0,0,0,7.708-7.544A16.546,16.546,0,0,0,514.727-342c-.563-3.849-3.171-5.739-7.007-6.187-4.714-.551-9.378,1.227-13.644,3.3s-8.451,4.518-13.106,5.442c-4.2.833-8.536.38-12.819.3-2.112-.038-4.774.415-5.319,2.456-.618,2.309,2.417,4.665,3.871,6.162,2.15,2.215,4.553,3.941,6.384,6.492,1.371,1.91,2.516,4.155,2.339,6.5-.162,2.164-1.42,4.078-2.011,6.165a7.442,7.442,0,0,0,.446,5.61,4.83,4.83,0,0,0,4.794,2.527,5.3,5.3,0,0,0,3.841-3.6c1.06-2.982-.084-6.5,2.033-9.134,1.716-2.134,4.739-2.533,7.425-3.067Q492.97-319.222,493.973-319.478Z" transform="translate(-163.405 417.826)" fill="none" stroke="#000" stroke-miterlimit="10" stroke-width="1"/>
            <path id="Trazado_729843" data-name="Trazado 729843" d="M497.786-344.6c-2.71-.136-5.229,1.3-7.49,2.8s-4.557,3.16-7.242,3.556a32.959,32.959,0,0,0-3.4.387,5.644,5.644,0,0,0-3.928,3.764,5.641,5.641,0,0,0,1.188,5.308c1.554,1.724,4.018,2.3,6.337,2.407a21.8,21.8,0,0,0,15.677-5.889c1.767-1.658,4.4-4.357,4.463-6.947C503.451-341.974,500.381-344.47,497.786-344.6Z" transform="translate(-156.043 419.95)" fill="none" stroke="#000" stroke-miterlimit="10" stroke-width="1"/>
            <path id="Trazado_729844" data-name="Trazado 729844" d="M473.1-316.687a3.29,3.29,0,0,0-1.57-.393,3.473,3.473,0,0,0-2.352,1.259,5.5,5.5,0,0,0-1.308,4.939c.871,3.392,5.457,4.717,7.739,1.811C477.432-311.394,475.448-315.516,473.1-316.687Z" transform="translate(-160.535 435.846)" fill="none" stroke="#000" stroke-miterlimit="10" stroke-width="1"/>
            <path id="Trazado_729845" data-name="Trazado 729845" d="M500.633-298.94c.035,3.881,3.032,7.632,1.858,11.33-1.1,3.474-5.157,4.811-8.282,6.684a18.481,18.481,0,0,0-8.615,12.663c-.469,2.835-.423,6.111-2.568,8.023-1.47,1.311-3.575,1.568-5.54,1.7a17.717,17.717,0,0,1-7.026-.547,6.858,6.858,0,0,1-4.687-4.886c-.5-2.769,1.286-5.4,3.123-7.533s3.928-4.359,4.195-7.162c.245-2.576-1.128-5.228-.342-7.694.846-2.653,3.818-3.955,6.537-4.554s5.688-.9,7.793-2.721c2-1.727,2.772-4.474,3.084-7.1.494-4.139.314-12.811,6.684-12.114C503.63-312.1,500.595-303.1,500.633-298.94Z" transform="translate(-161.708 438.271)" fill="none" stroke="#000" stroke-miterlimit="10" stroke-width="1"/>
            <path id="Trazado_729846" data-name="Trazado 729846" d="M480.2-287.611a13.193,13.193,0,0,0-.76,5.129,13.587,13.587,0,0,1-1.412,6.122,6.218,6.218,0,0,1-5.034,3.37,3.452,3.452,0,0,1-1.861-.445c-1.65-.994-1.754-3.387-1.153-5.218A10.729,10.729,0,0,1,472.7-283a11.541,11.541,0,0,0,2.463-2.631,13.364,13.364,0,0,0,.83-3.709A8.671,8.671,0,0,1,479.1-294.4c1.683-1.32,5.835-2.013,5.687,1.251C484.7-291.093,481.083-289.5,480.2-287.611Z" transform="translate(-159.423 448.309)" fill="none" stroke="#000" stroke-miterlimit="10" stroke-width="1"/>
            <path id="Trazado_729847" data-name="Trazado 729847" d="M522.767-116.058c-9.528-4.217-18.855-10.464-23.488-20.1-7.653-15.908-.306-34.784.3-52.563a9.348,9.348,0,0,0-.765-4.857c-1.918-3.478-7.181-3.032-10.106-.421s-4.365,6.542-6.488,9.888a25.289,25.289,0,0,1-16.6,11.306c-5.146.929-10.863.292-15.146,3.4-5.477,3.972-6.01,11.959-7.733,18.67-3.138,12.216-11.877,22.461-22.6,28.414s-23.261,7.845-35.368,6.747c-16.985-1.54-34.116-8.691-50.6-4.161-4.969,1.365-9.845,3.933-12.86,8.263-3.357,4.826-3.961,11.11-4.079,17.066-.147,7.381.486,15.349,5.037,21.014,4.766,5.93,12.644,7.881,20.009,8.9,23.936,3.3,48.2.374,72.328-.427a410.7,410.7,0,0,1,57.223,2.092c20.719,2.21,41.405,6,62.217,5.171,13.3-.532,41.738-8.2,35.436-28.274C563.573-104.772,537.809-109.4,522.767-116.058Z" transform="translate(-247.452 505.733)" fill="none" stroke="#000" stroke-miterlimit="10" stroke-width="1"/>
            <path id="Trazado_729848" data-name="Trazado 729848" d="M503.316-117.8c-11.215-6.57-21.02-17.684-21.989-31.036-.481-6.624,1.234-13.2,3.284-19.49,1.134-3.477,2.243-7.739-.112-10.473-2.455-2.847-7.056-1.907-10.063.295s-5.351,5.4-8.689,7.007c-3.184,1.529-7.064,1.492-9.8,3.77-4.466,3.715-3.335,10.89-4.45,16.723-3.18,16.625-25.862,27.189-39.553,32.248a96.807,96.807,0,0,1-53.8,4.061c-5.354-1.161-10.686-2.791-16.155-2.759S330.7-115.4,327.6-110.716c-4.127,6.241-1.955,15.318,3.2,20.667,7.487,7.766,17.985,8.676,27.81,9.654,12.444,1.238,24.041.38,36.493-.694,17.3-1.492,34.39.749,51.549.486,17.531-.27,36.386-.541,53.67,2.743,10.093,1.917,20.117,5.509,30.341,4.614,11.521-1.008,29.448-14.54,16.37-26.323-5.414-4.878-13.977-6.353-20.607-8.571C518.515-110.784,510.585-113.543,503.316-117.8Z" transform="translate(-242.706 514.681)" fill="none" stroke="#000" stroke-miterlimit="10" stroke-width="1"/>
            <path id="Trazado_729849" data-name="Trazado 729849" d="M498.826-98.571a10.008,10.008,0,0,0-4.371-3.518c-10.651-5.315-23.2-5.58-34.081-10.418-16.495-7.339-27.318-25.781-25.682-43.76.224-2.451.655-4.934.222-7.359s-1.97-4.851-4.354-5.469c-3.426-.888-6.711,2.4-7.507,5.845s.035,7.039.145,10.576a26.121,26.121,0,0,1-6.651,18.116c-4.182,4.627-9.874,7.578-14.625,11.618s-8.758,10.019-7.583,16.144c.964,5.031,5.24,8.848,9.889,11,8.449,3.911,18.164,3.445,27.474,3.548a204.211,204.211,0,0,1,43.773,5.288c5.1,1.178,9.194,2.6,14.325,1.107C494.748-87.3,502.5-92.365,498.826-98.571Z" transform="translate(-203.033 521.226)" fill="none" stroke="#000" stroke-miterlimit="10" stroke-width="1"/>
            <path id="Trazado_729850" data-name="Trazado 729850" d="M419.931-127.825c-5.083-4.387-12.352-5.316-19.03-4.617s-13.134,2.808-19.785,3.74a56.833,56.833,0,0,1-23.149-1.557c-4.234-1.188-8.5-2.888-12.874-2.426s-8.831,4.122-8.228,8.478c.5,3.568,3.967,5.867,7.206,7.444a74.589,74.589,0,0,0,35.867,7.414c8.26-.377,16.8-2.095,24.612.625,5.943,2.07,13.813,5.512,18.673-.868C427.188-114.8,424.441-123.932,419.931-127.825Z" transform="translate(-236.137 542.294)" fill="none" stroke="#000" stroke-miterlimit="10" stroke-width="1"/>
            <path id="Trazado_729851" data-name="Trazado 729851" d="M435.814-128.177c-1.737-2.644-2.9-5.677-4.971-8.066a13.63,13.63,0,0,0-11.625-4.529,13.63,13.63,0,0,0-10.317,7.017,10.191,10.191,0,0,1-1.507,2.466c-1.18,1.2-3.194,1.63-3.816,3.194-.576,1.448.421,3.068,1.645,4.035,3.049,2.406,7.3,2.442,11.17,2.073s7.9-1.013,11.535.371c2.123.809,3.933,2.257,5.928,3.348a19.318,19.318,0,0,0,11.41,2.213c1.314-.155,2.765-.552,3.415-1.7C450.8-121.5,437.879-125.037,435.814-128.177Z" transform="translate(-197.673 537.623)" fill="none" stroke="#000" stroke-miterlimit="10" stroke-width="1"/>
            <path id="Trazado_729852" data-name="Trazado 729852" d="M374.047-124.4a5.371,5.371,0,0,0-2.273,2.631c-.83,2.56,1.585,5.048,4.043,6.146,4.379,1.955,25.226,3.373,21.841-6.144C395.113-128.915,378.724-127.54,374.047-124.4Z" transform="translate(-216.041 545.648)" fill="none" stroke="#000" stroke-miterlimit="10" stroke-width="1"/>
          </g>
          <g id="Grupo_1015130" data-name="Grupo 1015130" transform="translate(996.09 -394.436)" opacity="0.25">
            <g id="Grupo_1015129" data-name="Grupo 1015129">
              <path id="Trazado_729853" data-name="Trazado 729853" d="M982.349-394.436c-24.994,4.356-45.4,24.668-54.142,48.485-2.411,6.57-4.062,13.515-3.835,20.509.472,14.456,8.729,27.29,15.143,40.252,4.09,8.265,7.484,17.353,7.678,26.674.073,3.559,0,8.687-1.8,11.89-1.855,3.3-5.939,4.1-8.749,6.337-6.687,5.318-3.791,16.818-9.277,23.368-2.638,3.147-6.752,4.567-10.653,5.851-9.842,3.239-19.962,6.656-27.776,13.459-10.174,8.861-13.706,24.794-9.919,37.457a106.477,106.477,0,0,0,7.359,18.26c3.316,6.436,7.324,12.625,9.2,19.617,2.65,9.866.734,20.62-4,29.675C877.527-65.671,839.6-54.641,811.424-61.416c-5.252-1.264-10.352-3.079-15.531-4.61-10.653-3.149-21.743-5.1-32.844-4.7s-22.237,3.217-31.681,9.061" transform="translate(-731.368 394.436)" fill="none" stroke="#000" stroke-miterlimit="10" stroke-width="1" stroke-dasharray="1.283 1.924 1.283 1.924"/>
              <path id="Trazado_729854" data-name="Trazado 729854" d="M1014.718-146.533c-13.4-1.74-26.554-6.321-37.532-14.2s-19.68-19.164-23.494-32.128c-3.261-11.084-3.171-23.608-10.053-32.888-5.906-7.963-16.353-11.959-26.225-11.051s-19.031,6.337-25.49,13.86c-6,6.992-9.836,15.67-16.069,22.458a42.559,42.559,0,0,1-41.233,12.126" transform="translate(-671.736 485.402)" fill="none" stroke="#000" stroke-miterlimit="10" stroke-width="1" stroke-dasharray="1.283 1.924 1.283 1.924"/>
              <path id="Trazado_729855" data-name="Trazado 729855" d="M860.73-211.266C871.5-203.1,882.8-194.222,887.362-181.5c2.155,6.009,2.63,12.488,2.652,18.872.071,19.964-4.608,40.844-17.886,55.751-5.176,5.812-11.682,10.8-14.627,18.007-2.193,5.368-2.136,11.372-1.653,17.152.694,8.31,2.379,16.965,7.687,23.4,5.565,6.744,14.289,10.065,20.573,16.148C894.991-21.64,896.311-2.73,887,9.215" transform="translate(-659.636 500.221)" fill="none" stroke="#000" stroke-miterlimit="10" stroke-width="1" stroke-dasharray="1.283 1.924 1.283 1.924"/>
              <path id="Trazado_729856" data-name="Trazado 729856" d="M876.981-247.925a47.805,47.805,0,0,1-26.048-13.62c-7.064-7.227-11.7-16.58-18.968-23.6-11.816-11.42-29.717-15.291-45.838-12.108S755.64-284.5,744.452-272.463" transform="translate(-723.812 449.941)" fill="none" stroke="#000" stroke-miterlimit="10" stroke-width="1" stroke-dasharray="1.283 1.924 1.283 1.924"/>
              <path id="Trazado_729857" data-name="Trazado 729857" d="M868.087-302.515c5.3,4.343,13.4,2.9,19.247-.678s10.44-8.91,16.2-12.623a35.715,35.715,0,0,1,27.5-4.606c15.554,3.816,27.537,17.878,43.443,19.744,6.133.721,12.346-.48,18.246-2.3,10.139-3.138,19.982-8.389,26.428-16.82" transform="translate(-652.41 436.609)" fill="none" stroke="#000" stroke-miterlimit="10" stroke-width="1" stroke-dasharray="1.283 1.924 1.283 1.924"/>
              <path id="Trazado_729858" data-name="Trazado 729858" d="M918.913-195.93c-5.742,13.12-7.02,28.921-.129,41.478,1.661,3.024,3.748,5.794,5.521,8.755a75.391,75.391,0,0,1,4.614,9.364c4.078,9.62,7.261,20.423,4.149,30.4-2.974,9.528-11.333,16.958-12.978,26.8-1.718,10.278,4.292,20.093,10.044,28.783" transform="translate(-625.838 509.078)" fill="none" stroke="#000" stroke-miterlimit="10" stroke-width="1" stroke-dasharray="1.283 1.924 1.283 1.924"/>
              <path id="Trazado_729859" data-name="Trazado 729859" d="M826.429-184.181a67.408,67.408,0,0,1-11.42,62.5c-3.728,4.594-8.052,8.665-12.07,13.007-10.369,11.205-18.809,24.474-22.8,39.208s-3.278,31.014,3.622,44.633" transform="translate(-704.611 515.863)" fill="none" stroke="#000" stroke-miterlimit="10" stroke-width="1" stroke-dasharray="1.283 1.924 1.283 1.924"/>
            </g>
            <path id="Trazado_729860" data-name="Trazado 729860" d="M895.478-361.956c-15.917,14.027-23.68,38.746-13.467,57.341,8.519,15.509,28.833,25.957,30.263,45.237.328,4.422-.419,9.107-3.109,12.633-4.625,6.064-13.945,7.56-17.558,14.273-2.4,4.461-1.533,9.953-2.885,14.835-1.543,5.581-5.944,10.024-10.988,12.868-12.2,6.884-25.22,9.732-34.806,21.106-6.678,7.924-9.926,19.68-5.08,28.839,3.283,6.2,9.883,10.722,11.166,17.621.424,2.28.214,4.662.831,6.9,1.44,5.223,7.329,8.358,12.729,7.9s10.194-3.791,13.772-7.861,6.173-8.888,9.115-13.439c9.7-15,19.5-27.807,38.5-27.886a35.757,35.757,0,0,1,10.962,1.338c13.174,4.179,22.773,25.138,24.283,37.87.3,2.537.1,5.106.278,7.656.895,13.007,12.486,24.131,25.458,25.434s26.091-6.662,31.834-18.367c2.794-5.693,4-12.057,6.739-17.774,3.279-6.837,8.689-12.6,11.161-19.766,1.016-2.95,1.508-6.07,2.685-8.96,2.526-6.2,7.9-10.705,13.108-14.917,7.643-6.187,15.5-12.5,20.542-20.943,7.231-12.117,7.73-27.11,6-41.115s-5.468-27.777-5.982-41.878c-.847-23.193,6.881-47.63-2.3-68.947-8.852-20.56-38.105-40.765-61.112-38.173-9.44,1.063-17.963,6.105-27.523,7.255-14.8,1.778-29.691.3-44.455,2.977C921.071-377.255,906.711-371.855,895.478-361.956Z" transform="translate(-671.214 396.792)" fill="none" stroke="#000" stroke-miterlimit="10" stroke-width="1"/>
            <path id="Trazado_729861" data-name="Trazado 729861" d="M775.631-124.85c-12.631,11.087-19.063,26.7-20.606,43.522-1.431,15.611-6.553,33.361,1.32,48.219,8.257,15.576,27.163,21.082,44.227,22.183,17.925,1.155,35.879-.885,53.778-2.456,30.87-2.712,62.028-4.026,92.772-.055,27.305,3.526,54.969,11.193,81.927,5.465,10.061-2.138,20.612-6.917,25.127-16.512,1.986-4.22,2.6-8.973,3.191-13.631,3.124-24.72,9.855-51.725-9.52-71.485-9.225-9.41-21.767-14.2-33.153-20.55s-22.647-15.655-25.294-28.812c-3.092-15.37,6.473-31.765,1.581-46.621A24.155,24.155,0,0,0,975.171-221.1a23.029,23.029,0,0,0-21.238,4.789c-7.884,6.883-10.978,18.754-19.676,24.477-10.674,7.025-26.408,2.491-35.742,11.342-6.533,6.2-7.23,16.518-11.39,24.633-3.665,7.146-9.979,12.432-16.644,16.619-6.031,3.791-12.7,6.906-19.744,7.134-8.4.271-16.349-3.543-24.538-5.5A57.5,57.5,0,0,0,775.631-124.85Z" transform="translate(-719.415 494.051)" fill="none" stroke="#000" stroke-miterlimit="10" stroke-width="1"/>
            <path id="Trazado_729862" data-name="Trazado 729862" d="M900.97-344.146c-1.6,11.844,3.5,23.551,9.56,33.852s13.291,20.154,16.678,31.615,1.978,25.382-7.132,33.118c-8.137,6.911-20.481,7.451-28.1,14.933-10.35,10.169-8.918,30.128-21.936,36.542-3.106,1.53-6.686,2.011-9.64,3.816a17.674,17.674,0,0,0-5.913,6.592,31.7,31.7,0,0,0,1.448,32.76c4.157,6.056,10.379,10.519,14.242,16.766,7.141,11.546,4.326,27.663-4.974,37.555s-23.852,13.825-37.32,12.1c-13.669-1.749-27.741-8.692-40.563-3.641-2.365.932-4.684,2.276-7.225,2.259a12.29,12.29,0,0,1-6.081-2.16,49.355,49.355,0,0,1-23.391-43.008c.456-13.915,6.818-26.835,11.134-40.072a140.727,140.727,0,0,0,.227-85.855c-5.114-15.969-13.048-30.864-19.664-46.272-5.215-12.145-9.67-24.887-10.121-38.1s3.57-27.064,13.177-36.141c14.117-13.333,36.1-13.346,55.207-9.875s38.528,9.61,57.55,5.7c10.106-2.076,19.421-6.891,29.262-9.986s21.033-4.321,30.107.587c9.385,5.076,11.238,15.611,3.054,22.186C911.151-361.3,902.831-357.963,900.97-344.146Z" transform="translate(-730.905 394.486)" fill="none" stroke="#000" stroke-miterlimit="10" stroke-width="1"/>
            <path id="Trazado_729863" data-name="Trazado 729863" d="M1018.331-378.074c-13.092-1.751-26.151,2.54-39.285,3.944-22.841,2.445-47.939-3.431-67.545,8.541-16.182,9.883-23.952,31.65-17.681,49.547,4.3,12.265,13.972,21.792,20.476,33.043s9.151,26.985.027,36.24c-4.356,4.419-10.9,6.783-13.8,12.272-2.713,5.141-1.369,11.464-2.8,17.1-2.887,11.364-15.565,16.711-26.566,20.766s-23.524,10.432-25.042,22.06a23.818,23.818,0,0,0,1.237,10.225c.94,2.953,2.343,5.96,4.931,7.664,3.974,2.616,9.506,1.248,13.246-1.691s6.223-7.141,9.1-10.931c9.6-12.647,24.849-21.238,40.727-21.38s31.869,8.8,38.794,23.09c5.627,11.6,5.995,26.737,16.4,34.363,9.629,7.063,24.264,3.5,32.178-5.447,11.3-12.773,10.8-32.383,20.128-46.66,9.692-14.835,29.047-22.473,35.444-39,7.646-19.755-6.943-41.009-7.321-62.189-.205-11.513,3.83-22.636,5.565-34.019C1060.55-346.84,1046.573-374.3,1018.331-378.074Z" transform="translate(-665.182 403.647)" fill="none" stroke="#000" stroke-miterlimit="10" stroke-width="1"/>
            <path id="Trazado_729864" data-name="Trazado 729864" d="M817.89-377.827c-8.553-1.877-17.081-4.215-25.832-4.545a57.22,57.22,0,0,0-31.61,8.2c-7.329,4.447-13.888,11.019-15.916,19.35-3.138,12.893,5.042,25.456,11.614,36.985,25.8,45.264,30.6,101.957,12.77,150.914-3.1,8.519-6.9,17.023-7.273,26.081s3.677,19.06,12.074,22.478c7.02,2.858,14.949.508,22.529.533,9.866.032,19.262,4.146,29.06,5.3s21.54-2.032,25.009-11.267c3.182-8.467-2.081-17.752-8.258-24.358S828.308-160.7,825.4-169.266a23.363,23.363,0,0,1,7.211-25c4.931-4,11.319-5.785,16.509-9.448a27.477,27.477,0,0,0,11.3-19.091c1.032-9.115-2.338-19.386,2.911-26.909,7.536-10.8,26.728-7.044,34.205-17.883,3.267-4.736,3.215-11.117,1.456-16.6s-5.013-10.325-7.9-15.3c-5.8-9.994-10.3-20.959-11.347-32.467a48.267,48.267,0,0,1,7.509-30.853c4.691-7.384,7.656-13.748-2.336-18.867-9.817-5.028-18.862,3.116-28.266,5.394C843.93-373.2,830.483-375.063,817.89-377.827Z" transform="translate(-724.165 400.874)" fill="none" stroke="#000" stroke-miterlimit="10" stroke-width="1"/>
            <path id="Trazado_729865" data-name="Trazado 729865" d="M1004.934-117.61c-13.182-5.939-27.768-12.395-33.988-25.865-7.3-15.8-.1-34.362-.038-51.891.013-3.78-.431-7.854-2.851-10.674-5.258-6.129-15.313-1.972-20.462,4.255s-8.787,14.456-16,17.79c-10.992,5.076-26.76-2.952-34.406,6.706-4.335,5.474-3.026,13.483-4.024,20.5-1.964,13.8-13.789,24.428-26.717,28.115s-26.729,1.606-39.72-1.833c-8.11-2.147-16.4-4.838-24.688-3.594-17.7,2.66-28.612,22.309-30.927,40.758-1.3,10.393-.7,21.256,3.322,30.866s11.753,17.823,21.443,20.691c5.786,1.713,11.924,1.491,17.928,1.077,21.642-1.484,43.19-5.241,64.873-4.717,26.185.634,51.817,7.484,77.761,11.222,15.993,2.3,32.57,3.382,48.04-1.429s29.76-16.513,34.212-32.659C1045.482-92.922,1023.784-109.118,1004.934-117.61Z" transform="translate(-708.772 501.502)" fill="none" stroke="#000" stroke-miterlimit="10" stroke-width="1"/>
            <path id="Trazado_729866" data-name="Trazado 729866" d="M808.492-372.894c-9.5-1.947-19.277-3.564-28.856-2.048s-19.049,6.673-23.489,15.293c-5.908,11.467-1.606,25.55,4.668,36.821s14.578,21.852,17.056,34.512c1.251,6.392,1.04,13,2.5,19.355,1.2,5.209,3.119,8.807,2.538,14.326-1.32,12.573,3.491,26.278,14.086,33.174s26.889,4.7,33.426-6.118c6.913-11.442,2.011-28.212,11.276-37.848,8.825-9.178,29.165-5.2,30.492-22,.593-7.519-5.206-13.78-9.773-19.781-4.941-6.49-8.878-13.958-10-22.036-1.079-7.757.7-15.953,5.772-22.036,4.5-5.4,10.314-9.766,3.142-16.293-6.312-5.744-14.917-1.653-22.358-1.312C828.643-368.416,818.536-370.837,808.492-372.894Z" transform="translate(-718.68 405.349)" fill="none" stroke="#000" stroke-miterlimit="10" stroke-width="1"/>
            <path id="Trazado_729867" data-name="Trazado 729867" d="M839.008-347.9c4.127-5.237,7.3-11.418-.8-15.179-9.334-4.332-21.8-.448-31.8-1.907-8.839-1.29-17.493-5.2-26.351-4.038-9.558,1.253-18.045,9.268-19.088,18.851-.618,5.7,1.2,11.377,3.49,16.63,4.573,10.5,11.057,20.053,16.323,30.228s9.377,21.4,8.609,32.827c-.331,4.939-1.568,9.789-1.827,14.731s.61,10.237,3.9,13.936a13.194,13.194,0,0,0,15.9,2.608c6.247-3.568,8.315-11.459,9.538-18.55s2.575-14.942,8.225-19.4c4.411-3.48,10.372-3.99,15.778-5.52s11.162-5.168,11.541-10.774c.364-5.4-4.318-9.576-8.009-13.529-5.118-5.479-9.028-12.246-10.314-19.632S834.367-342.009,839.008-347.9Z" transform="translate(-714.343 408.99)" fill="none" stroke="#000" stroke-miterlimit="10" stroke-width="1"/>
            <path id="Trazado_729868" data-name="Trazado 729868" d="M788.484-361.809c-4.775-1.156-10.118-2.537-14.344-.03-5.155,3.056-5.837,10.544-3.564,16.089s6.67,9.9,10.019,14.87c7.328,10.871,9.457,24.376,10.437,37.449q.906,12.087.715,24.224c-.027,1.773-.039,3.669.932,5.152,1.707,2.608,5.854,2.582,8.265.607s3.382-5.218,3.721-8.317.175-6.264.9-9.295a16.575,16.575,0,0,1,12.265-12.049c5.286-1.166,11.906-.1,15.122-4.455,2.552-3.456,1.182-8.511-1.454-11.9s-6.326-5.835-9.039-9.167a21.5,21.5,0,0,1-4.259-17.179c.932-5.143,7.056-10.538,5.3-15.778C820.182-361.5,796.486-359.87,788.484-361.809Z" transform="translate(-709.438 412.449)" fill="none" stroke="#000" stroke-miterlimit="10" stroke-width="1"/>
            <path id="Trazado_729869" data-name="Trazado 729869" d="M806.631-341.582c1.079-1.578,2.548-2.956,3.1-4.786.847-2.827-.871-5.939-3.349-7.544s-5.534-2.005-8.482-2.152-5.952-.088-8.784-.924c-1.311-.386-2.57-.962-3.912-1.221a8.02,8.02,0,0,0-7.854,2.942,6.9,6.9,0,0,0,.107,8.22c2.466,2.989,7.01,3.084,10.274,5.173a9.6,9.6,0,0,1,4.308,8.542c-.219,3.27-2.133,6.32-1.953,9.591.484,8.806,12.39,9.012,15.313,1.526C807.892-328.612,802.12-334.987,806.631-341.582Z" transform="translate(-705.567 415.276)" fill="none" stroke="#000" stroke-miterlimit="10" stroke-width="1"/>
            <path id="Trazado_729870" data-name="Trazado 729870" d="M799.845-330.337c-1.41.506-2.664,1.388-4.083,1.874-1.745.6-3.764.615-5.187,1.789-1.5,1.235-1.857,3.376-1.855,5.316s.254,3.949-.412,5.772c-.379,1.038-1.051,2.021-1.01,3.125a3.164,3.164,0,0,0,3.341,2.728,5.487,5.487,0,0,0,3.966-2.4,24.141,24.141,0,0,0,2.226-4.237,6.271,6.271,0,0,1,1.825-2.524,5.5,5.5,0,0,1,2.945-.852c4.469-.238,13.286,4.122,13.035-4.229C814.437-330.639,804.737-332.092,799.845-330.337Z" transform="translate(-699.068 431.06)" fill="none" stroke="#000" stroke-miterlimit="10" stroke-width="1"/>
            <path id="Trazado_729871" data-name="Trazado 729871" d="M803.938-261.165c.967,5.2-1.628,10.3-3.368,15.3-3.745,10.767-2.8,24.434,6.249,31.363,2.492,1.909,5.427,3.176,7.916,5.088s4.591,4.791,4.326,7.918a8.225,8.225,0,0,1-2.617,5.061c-4.256,4.141-10.956,4.411-16.8,3.382s-11.62-3.1-17.545-2.712c-2.507.161-5.005.765-7.506.516-5.146-.513-9.46-4.786-10.849-9.768s-.17-10.438,2.447-14.9c2.246-3.833,5.474-7.059,7.425-11.052,5.416-11.074-2.235-25.307,4.247-35.682C784-276.479,801.87-272.288,803.938-261.165Z" transform="translate(-713.007 465.045)" fill="none" stroke="#000" stroke-miterlimit="10" stroke-width="1"/>
            <path id="Trazado_729872" data-name="Trazado 729872" d="M776.195-242.583a1.864,1.864,0,0,0,.41,1.467,1.813,1.813,0,0,0,1.372.361c6.348-.361,8.1-10.722,10.708-14.966,2.578-4.193,2.879-6.659-2.234-9.258-3.142-1.6-8.225-2.283-9.971,1.521-1.586,3.453,2.218,7.375,2.357,10.773C778.985-249.092,776.363-246.125,776.195-242.583Z" transform="translate(-705.537 468.463)" fill="none" stroke="#000" stroke-miterlimit="10" stroke-width="1"/>
            <path id="Trazado_729873" data-name="Trazado 729873" d="M785.046-237.294a13.239,13.239,0,0,0-1.9-5.017c-1.078-1.447-3.022-2.417-4.715-1.794-1.754.648-2.564,2.669-2.852,4.516s-.287,3.818-1.241,5.425c-1.138,1.917-3.518,3.1-3.964,5.282-.525,2.574,2.071,4.808,4.636,5.379,4.769,1.062,8.624.732,13.169,2.586,1.748.713,13.133,5.5,14.231,1.413a5.5,5.5,0,0,0-1.936-5.28C794.546-230.1,787.356-227.424,785.046-237.294Z" transform="translate(-708.88 481.145)" fill="none" stroke="#000" stroke-miterlimit="10" stroke-width="1"/>
            <path id="Trazado_729874" data-name="Trazado 729874" d="M989.734-371.391c-14.673-.555-29.165,3.381-43.844,3.759-13.718.353-27.9-2.347-40.9,2.049-14.639,4.95-25.832,20.484-23.179,35.707,1.866,10.707,9.6,19.257,15.28,28.52A81.063,81.063,0,0,1,907.6-274.2c1.675,8.792,1.565,18.8-4.3,25.564-2.816,3.246-6.373,5.815-9.484,8.76a13.2,13.2,0,0,0-2.939,3.52c-2.649,5.327,2.486,12.3-.48,17.457-1.126,1.958-3.19,3.149-5.136,4.294-3.677,2.166-8.112,7.179-4.927,11.626,3.635,5.073,13.761,1.514,18.508.727,16.117-2.669,33.481,5.55,41.635,19.7,2.712,4.706,4.45,9.915,7.074,14.669s6.41,9.225,11.571,10.915c7.265,2.376,15.4-1.519,20.257-7.421s7.151-13.442,9.329-20.768,4.464-14.87,9.314-20.776c9.167-11.166,26.332-15.125,32.046-28.394,2.786-6.471,2.134-13.945.208-20.724s-5.045-13.16-7.182-19.875A59.4,59.4,0,0,1,1020.536-301c2.117-15.177,12.458-33.429,6.662-48.939C1021.913-364.075,1003.453-370.872,989.734-371.391Z" transform="translate(-645.968 407.714)" fill="none" stroke="#000" stroke-miterlimit="10" stroke-width="1"/>
            <path id="Trazado_729875" data-name="Trazado 729875" d="M858.652-250.679a13.475,13.475,0,0,0-4.368,5.054c-.871,2.076-.655,4.759,1.054,6.225,1.652,1.418,4.217,1.3,6.136.27a14.948,14.948,0,0,0,4.629-4.526c2.414-3.234,4.761-6.812,7.941-9.363,1.85-1.483,8.044-3.144,7.821-5.127C881.046-265.443,860.906-252.462,858.652-250.679Z" transform="translate(-660.67 471.872)" fill="none" stroke="#000" stroke-miterlimit="10" stroke-width="1"/>
            <path id="Trazado_729876" data-name="Trazado 729876" d="M1007.667-299.5c1.6-8.047,4.887-15.655,7-23.582s3-16.594-.163-24.164c-4.144-9.916-14.6-16.048-25.195-17.884s-21.435-.069-32.024,1.76-21.391,3.734-32.024,2.166c-6.28-.928-12.532-3.06-18.829-2.259-9.9,1.26-18.075,10.7-17.911,20.675.132,8.039,4.92,15.24,10.232,21.273s11.413,11.551,15.168,18.659c3.433,6.495,4.676,13.892,5.753,21.158.855,5.774,1.639,11.645.854,17.43s-3.337,11.563-8.017,15.051c-2.948,2.2-6.533,3.355-9.694,5.233s-6.081,4.893-6.167,8.569c-.109,4.635,4.1,9.837,1.044,13.317-1.828,2.079-6,3.325-4.935,5.883a3.5,3.5,0,0,0,2.187,1.69c8.224,3.015,17.752-1.77,26.017,1.136,3.818,1.342,6.919,4.209,9.457,7.362,5.266,6.542,8.542,14.524,13.953,20.95s14.272,11.238,22.115,8.235c4.709-1.8,8.067-6.078,10.262-10.617,3.439-7.113,4.547-15.083,6.512-22.734s5.106-15.469,11.366-20.287c9.4-7.234,27.332-10.905,21.219-26.42C1010.087-271.536,1004.393-283,1007.667-299.5Z" transform="translate(-640.607 410.914)" fill="none" stroke="#000" stroke-miterlimit="10" stroke-width="1"/>
            <path id="Trazado_729877" data-name="Trazado 729877" d="M958.228-357.457c-9.771,2.226-19.784,4.917-29.677,3.316-5.324-.863-10.418-2.952-15.785-3.494s-11.464.9-14.359,5.45c-2.862,4.5-1.628,10.607,1.284,15.075s7.224,7.795,11.014,11.543c13.562,13.406,20.5,32.6,21.3,51.658.234,5.531-.055,11.259-2.425,16.263-2.955,6.244-8.893,10.685-15.315,13.229-4.7,1.86-10.8,4.174-10.749,9.227.047,4.449,5.236,7.018,9.678,7.231s9.126-.817,13.207.953c7.482,3.242,8.533,13.488,14.048,19.493,5.414,5.9,15.531,6.627,21.734,1.57,6.064-4.942,7.615-13.393,9.208-21.054,1.224-5.873,3.423-15.357,9.372-18.433,6.043-3.127,13.879-.633,17.764-8.138,2.942-5.682-.082-12.45-2.456-18.392-4.557-11.4-7.283-25.763-2.8-37.641,1.809-4.8,6.073-8.539,8.388-13.3,2.953-6.077,4.774-12.86,2.109-19.391C995.908-361.557,975.423-361.374,958.228-357.457Z" transform="translate(-635.836 414.58)" fill="none" stroke="#000" stroke-miterlimit="10" stroke-width="1"/>
            <path id="Trazado_729878" data-name="Trazado 729878" d="M956.229-309.533a12.005,12.005,0,0,1,1.475-1.757c3.882-3.8,9.866-4.21,14.78-6.52,8.981-4.218,15.2-14.938,13.108-24.832a15.471,15.471,0,0,0-7.886-10.584c-4.2-2.059-9.194-.156-13.4,1.223-9.061,2.972-17.869,7.427-27.4,7.826a38.354,38.354,0,0,1-11.746-1.355c-3.286-.913-6.34-2.806-9.855-2.658a7.644,7.644,0,0,0-6.059,3.108c-3.586,5.383,3.319,9.945,7.141,12.292,7.4,4.545,14.127,11.292,15.687,19.837.721,3.941.295,7.985.169,11.989-.2,6.239.473,14.493,8.179,15.837,3.726.65,7.384-1.945,9.3-5.207s2.505-7.1,3.311-10.795A23.578,23.578,0,0,1,956.229-309.533Z" transform="translate(-629.214 417.712)" fill="none" stroke="#000" stroke-miterlimit="10" stroke-width="1"/>
            <path id="Trazado_729879" data-name="Trazado 729879" d="M972.14-294.169c1.544,4.775,3.228,10.263.612,14.548-2.358,3.866-7.267,5.129-11.082,7.574a18.938,18.938,0,0,0-7.94,10.754c-1.006,3.619-.908,7.466-1.806,11.117s-3.222,7.365-6.891,8.173c-3.608.8-7.165-1.459-9.89-3.955s-5.285-5.449-8.809-6.559c-2.679-.842-5.829-.593-7.979-2.4-2.41-2.022-2.423-5.884-.972-8.675s4.005-4.808,6.356-6.9,4.67-4.505,5.36-7.575c.765-3.4-.582-7.135.768-10.344,1.874-4.452,7.61-5.42,12.4-6.029a8.679,8.679,0,0,0,4.206-1.322,7.183,7.183,0,0,0,1.86-2.335c4.255-7.686,3.109-18.476,9.989-23.939,5.966-4.736,10.525,2.231,10.811,7.765C969.5-307.16,969.9-301.088,972.14-294.169Z" transform="translate(-624.509 435.343)" fill="none" stroke="#000" stroke-miterlimit="10" stroke-width="1"/>
            <path id="Trazado_729880" data-name="Trazado 729880" d="M952.348-321.547a38.794,38.794,0,0,0,11.085-4.764,22.122,22.122,0,0,0,7.708-7.545,16.532,16.532,0,0,0,1.959-10.208c-.563-3.848-3.171-5.737-7.007-6.187-4.714-.551-9.377,1.229-13.644,3.306S944-342.429,939.343-341.5c-4.2.833-8.534.38-12.819.3-2.112-.038-4.774.415-5.319,2.456-.618,2.309,2.417,4.665,3.871,6.162,2.15,2.215,4.553,3.941,6.384,6.492,1.371,1.91,2.516,4.155,2.341,6.5-.164,2.164-1.421,4.078-2.013,6.165a7.442,7.442,0,0,0,.447,5.61,4.833,4.833,0,0,0,4.794,2.529,5.308,5.308,0,0,0,3.843-3.6c1.058-2.982-.085-6.5,2.032-9.132,1.716-2.136,4.739-2.535,7.426-3.068Q951.344-321.291,952.348-321.547Z" transform="translate(-621.78 419.895)" fill="none" stroke="#000" stroke-miterlimit="10" stroke-width="1"/>
            <path id="Trazado_729881" data-name="Trazado 729881" d="M956.16-346.667c-2.71-.136-5.229,1.3-7.49,2.8s-4.557,3.16-7.242,3.556a32.954,32.954,0,0,0-3.4.387,5.644,5.644,0,0,0-3.928,3.764,5.641,5.641,0,0,0,1.188,5.308c1.554,1.726,4.02,2.3,6.338,2.407a21.8,21.8,0,0,0,15.676-5.889c1.767-1.656,4.4-4.357,4.463-6.947C961.825-344.043,958.755-346.539,956.16-346.667Z" transform="translate(-614.418 422.019)" fill="none" stroke="#000" stroke-miterlimit="10" stroke-width="1"/>
            <path id="Trazado_729882" data-name="Trazado 729882" d="M931.471-318.756a3.3,3.3,0,0,0-1.569-.393,3.464,3.464,0,0,0-2.351,1.26,5.482,5.482,0,0,0-1.308,4.938c.869,3.392,5.455,4.717,7.738,1.811C935.806-313.463,933.822-317.585,931.471-318.756Z" transform="translate(-618.91 437.915)" fill="none" stroke="#000" stroke-miterlimit="10" stroke-width="1"/>
            <path id="Trazado_729883" data-name="Trazado 729883" d="M959.007-301.009c.035,3.881,3.032,7.632,1.858,11.331-1.1,3.472-5.157,4.81-8.282,6.682a18.481,18.481,0,0,0-8.615,12.663c-.469,2.835-.423,6.113-2.567,8.023-1.47,1.311-3.576,1.568-5.542,1.7a17.715,17.715,0,0,1-7.026-.546,6.863,6.863,0,0,1-4.687-4.887c-.5-2.769,1.286-5.4,3.123-7.533s3.928-4.359,4.195-7.162c.245-2.576-1.128-5.228-.342-7.694.846-2.653,3.818-3.955,6.537-4.554s5.688-.9,7.795-2.721c2-1.727,2.77-4.474,3.083-7.1.494-4.139.314-12.811,6.684-12.114C962-314.168,958.969-305.172,959.007-301.009Z" transform="translate(-620.084 440.34)" fill="none" stroke="#000" stroke-miterlimit="10" stroke-width="1"/>
            <path id="Trazado_729884" data-name="Trazado 729884" d="M938.575-289.68a13.224,13.224,0,0,0-.762,5.129,13.581,13.581,0,0,1-1.412,6.122,6.217,6.217,0,0,1-5.034,3.37,3.456,3.456,0,0,1-1.862-.445c-1.65-.994-1.753-3.387-1.153-5.218a10.741,10.741,0,0,1,2.717-4.348,11.575,11.575,0,0,0,2.464-2.631,13.361,13.361,0,0,0,.828-3.709,8.67,8.67,0,0,1,3.116-5.061c1.683-1.32,5.837-2.013,5.687,1.251C943.071-293.162,939.458-291.567,938.575-289.68Z" transform="translate(-617.798 450.378)" fill="none" stroke="#000" stroke-miterlimit="10" stroke-width="1"/>
            <path id="Trazado_729885" data-name="Trazado 729885" d="M981.141-118.127c-9.528-4.217-18.855-10.464-23.488-20.1-7.653-15.908-.306-34.784.3-52.563a9.363,9.363,0,0,0-.763-4.857c-1.918-3.478-7.182-3.032-10.107-.421s-4.365,6.542-6.487,9.888A25.292,25.292,0,0,1,924-174.872c-5.146.929-10.861.292-15.146,3.4-5.475,3.972-6.009,11.959-7.733,18.67-3.138,12.216-11.877,22.461-22.6,28.414s-23.259,7.847-35.368,6.747c-16.984-1.54-34.114-8.691-50.6-4.162-4.969,1.366-9.845,3.933-12.858,8.265-3.357,4.824-3.963,11.109-4.081,17.064-.147,7.381.486,15.351,5.039,21.014,4.766,5.93,12.644,7.881,20.009,8.9,23.934,3.3,48.195.375,72.328-.427A410.72,410.72,0,0,1,930.21-64.9c20.718,2.212,41.405,6,62.216,5.173,13.3-.533,41.74-8.2,35.436-28.276C1021.947-106.841,996.185-111.47,981.141-118.127Z" transform="translate(-705.827 507.802)" fill="none" stroke="#000" stroke-miterlimit="10" stroke-width="1"/>
            <path id="Trazado_729886" data-name="Trazado 729886" d="M961.69-119.871c-11.214-6.57-21.02-17.684-21.989-31.036-.481-6.624,1.234-13.2,3.284-19.49,1.134-3.477,2.243-7.738-.112-10.473-2.455-2.847-7.056-1.907-10.062.295s-5.353,5.4-8.689,7.007c-3.183,1.529-7.064,1.492-9.8,3.77-4.464,3.715-3.335,10.89-4.45,16.723-3.18,16.626-25.862,27.189-39.553,32.248a96.806,96.806,0,0,1-53.8,4.061c-5.354-1.161-10.686-2.791-16.156-2.759s-11.286,2.052-14.385,6.741c-4.127,6.241-1.955,15.318,3.2,20.667,7.487,7.766,17.985,8.676,27.81,9.654,12.444,1.238,24.042.38,36.494-.694,17.3-1.492,34.388.749,51.547.486,17.531-.27,36.387-.541,53.67,2.743,10.095,1.917,20.117,5.51,30.342,4.614,11.519-1.008,29.446-14.54,16.368-26.323-5.414-4.878-13.977-6.353-20.606-8.571C976.891-112.853,968.961-115.612,961.69-119.871Z" transform="translate(-701.081 516.75)" fill="none" stroke="#000" stroke-miterlimit="10" stroke-width="1"/>
            <path id="Trazado_729887" data-name="Trazado 729887" d="M957.2-100.64a10.009,10.009,0,0,0-4.371-3.518c-10.651-5.315-23.2-5.58-34.079-10.418-16.495-7.339-27.319-25.781-25.682-43.76.222-2.451.653-4.934.221-7.359s-1.97-4.851-4.354-5.469c-3.426-.888-6.709,2.4-7.507,5.846s.036,7.037.147,10.574a26.122,26.122,0,0,1-6.652,18.116c-4.182,4.627-9.874,7.578-14.625,11.618s-8.758,10.019-7.583,16.144c.965,5.031,5.24,8.848,9.889,11,8.449,3.911,18.164,3.447,27.474,3.548a204.2,204.2,0,0,1,43.773,5.288c5.1,1.178,9.194,2.6,14.326,1.107C953.124-89.364,960.874-94.434,957.2-100.64Z" transform="translate(-661.408 523.295)" fill="none" stroke="#000" stroke-miterlimit="10" stroke-width="1"/>
            <path id="Trazado_729888" data-name="Trazado 729888" d="M878.3-129.894c-5.083-4.387-12.35-5.316-19.03-4.617s-13.134,2.808-19.784,3.74a56.813,56.813,0,0,1-23.15-1.557c-4.234-1.188-8.5-2.888-12.874-2.426s-8.831,4.122-8.227,8.478c.494,3.568,3.966,5.868,7.2,7.444a74.6,74.6,0,0,0,35.867,7.414c8.26-.377,16.805-2.095,24.612.625,5.943,2.07,13.814,5.512,18.673-.866C885.561-116.865,882.815-126,878.3-129.894Z" transform="translate(-694.512 544.363)" fill="none" stroke="#000" stroke-miterlimit="10" stroke-width="1"/>
            <path id="Trazado_729889" data-name="Trazado 729889" d="M894.189-130.246c-1.738-2.644-2.9-5.676-4.971-8.066a13.635,13.635,0,0,0-11.626-4.529,13.633,13.633,0,0,0-10.317,7.017,10.188,10.188,0,0,1-1.506,2.466c-1.18,1.2-3.193,1.63-3.815,3.194-.576,1.45.421,3.068,1.644,4.035,3.049,2.406,7.3,2.442,11.172,2.073s7.9-1.013,11.533.371c2.123.811,3.934,2.257,5.928,3.348a19.309,19.309,0,0,0,11.412,2.213c1.313-.155,2.764-.552,3.415-1.7C909.174-123.569,896.254-127.1,894.189-130.246Z" transform="translate(-656.048 539.692)" fill="none" stroke="#000" stroke-miterlimit="10" stroke-width="1"/>
            <path id="Trazado_729890" data-name="Trazado 729890" d="M832.421-126.466a5.382,5.382,0,0,0-2.272,2.631c-.831,2.56,1.584,5.048,4.043,6.146,4.378,1.955,25.225,3.373,21.839-6.144C853.487-130.984,837.1-129.609,832.421-126.466Z" transform="translate(-674.416 547.717)" fill="none" stroke="#000" stroke-miterlimit="10" stroke-width="1"/>
          </g>
          <g id="Grupo_1015132" data-name="Grupo 1015132" transform="translate(1345.083 -394.436)" opacity="0.25">
            <g id="Grupo_1015131" data-name="Grupo 1015131" transform="translate(39.885)">
              <path id="Trazado_729891" data-name="Trazado 729891" d="M1051.262,51.127c25-4.356,45.4-24.666,54.142-48.485,2.411-6.57,4.064-13.515,3.837-20.509-.472-14.455-8.729-27.288-15.144-40.252-4.089-8.263-7.482-17.353-7.677-26.674-.074-3.557,0-8.687,1.8-11.888,1.855-3.3,5.939-4.1,8.749-6.337,6.687-5.319,3.789-16.82,9.277-23.368,2.637-3.149,6.75-4.568,10.651-5.851,9.842-3.24,19.962-6.657,27.777-13.461,10.173-8.859,13.706-24.792,9.919-37.455a106.509,106.509,0,0,0-7.359-18.261c-3.316-6.436-7.326-12.625-9.2-19.616-2.652-9.864-.734-20.62,3.994-29.675,14.064-26.931,51.989-37.96,80.167-31.184,5.251,1.262,10.35,3.078,15.531,4.61,10.653,3.149,21.743,5.1,32.844,4.7s22.237-3.215,31.681-9.061" transform="translate(-935.5 458.309)" fill="none" stroke="#000" stroke-miterlimit="10" stroke-width="1" stroke-dasharray="1.283 1.924 1.283 1.924"/>
              <path id="Trazado_729892" data-name="Trazado 729892" d="M992.943-286.313c13.4,1.74,26.553,6.321,37.532,14.2s19.68,19.165,23.494,32.128c3.26,11.085,3.171,23.608,10.053,32.888,5.906,7.963,16.352,11.959,26.225,11.051s19.031-6.337,25.489-13.859c6-6.993,9.836-15.671,16.069-22.459a42.559,42.559,0,0,1,41.233-12.126" transform="translate(-969.181 456.879)" fill="none" stroke="#000" stroke-miterlimit="10" stroke-width="1" stroke-dasharray="1.283 1.924 1.283 1.924"/>
              <path id="Trazado_729893" data-name="Trazado 729893" d="M1094.775-173.955c-10.765-8.164-22.071-17.044-26.631-29.763-2.154-6.009-2.628-12.488-2.652-18.87-.07-19.964,4.608-40.845,17.886-55.751,5.177-5.812,11.683-10.8,14.627-18.009,2.195-5.367,2.136-11.372,1.653-17.151-.693-8.312-2.377-16.965-7.686-23.4-5.566-6.746-14.291-10.066-20.573-16.148-10.884-10.536-12.2-29.446-2.892-41.391" transform="translate(-929.127 394.436)" fill="none" stroke="#000" stroke-miterlimit="10" stroke-width="1" stroke-dasharray="1.283 1.924 1.283 1.924"/>
              <path id="Trazado_729894" data-name="Trazado 729894" d="M1113.266-199.561a47.821,47.821,0,0,1,26.048,13.62c7.064,7.227,11.7,16.58,18.967,23.6,11.816,11.421,29.717,15.291,45.84,12.107s30.487-12.756,41.675-24.792" transform="translate(-899.691 506.981)" fill="none" stroke="#000" stroke-miterlimit="10" stroke-width="1" stroke-dasharray="1.283 1.924 1.283 1.924"/>
              <path id="Trazado_729895" data-name="Trazado 729895" d="M1128.945-155.523c-5.3-4.343-13.4-2.9-19.246.678s-10.44,8.911-16.2,12.623a35.718,35.718,0,0,1-27.5,4.606c-15.553-3.814-27.537-17.878-43.442-19.744-6.133-.719-12.347.48-18.247,2.306-10.137,3.136-19.981,8.389-26.428,16.818" transform="translate(-977.88 530.864)" fill="none" stroke="#000" stroke-miterlimit="10" stroke-width="1" stroke-dasharray="1.283 1.924 1.283 1.924"/>
              <path id="Trazado_729896" data-name="Trazado 729896" d="M1030.218-216.712c5.744-13.12,7.02-28.921.129-41.476-1.66-3.026-3.747-5.8-5.52-8.755a75.3,75.3,0,0,1-4.616-9.366c-4.078-9.618-7.261-20.423-4.149-30.4,2.974-9.528,11.334-16.958,12.98-26.8,1.718-10.278-4.294-20.093-10.044-28.782" transform="translate(-956.551 413)" fill="none" stroke="#000" stroke-miterlimit="10" stroke-width="1" stroke-dasharray="1.283 1.924 1.283 1.924"/>
              <path id="Trazado_729897" data-name="Trazado 729897" d="M1134.324-223.421a67.4,67.4,0,0,1,11.42-62.5c3.728-4.6,8.05-8.665,12.07-13.008,10.369-11.205,18.807-24.472,22.8-39.208s3.28-31.014-3.62-44.631" transform="translate(-889.398 401.175)" fill="none" stroke="#000" stroke-miterlimit="10" stroke-width="1" stroke-dasharray="1.283 1.924 1.283 1.924"/>
            </g>
            <path id="Trazado_729898" data-name="Trazado 729898" d="M1134.962,2.627c15.916-14.027,23.68-38.746,13.466-57.34-8.519-15.509-28.831-25.957-30.263-45.239-.328-4.422.421-9.107,3.111-12.633,4.625-6.062,13.944-7.558,17.558-14.273,2.4-4.461,1.533-9.953,2.885-14.835,1.543-5.58,5.944-10.024,10.987-12.868,12.2-6.884,25.22-9.732,34.806-21.106,6.678-7.924,9.926-19.678,5.08-28.839-3.283-6.2-9.885-10.722-11.167-17.621-.423-2.28-.213-4.662-.83-6.9-1.442-5.223-7.329-8.356-12.729-7.9s-10.194,3.791-13.773,7.861-6.172,8.888-9.114,13.439c-9.7,15-19.5,27.809-38.5,27.886a35.707,35.707,0,0,1-10.962-1.338c-13.176-4.179-22.775-25.138-24.284-37.868-.3-2.538-.1-5.108-.276-7.656-.894-13.008-12.486-24.133-25.458-25.436s-26.091,6.663-31.834,18.367c-2.794,5.693-4,12.057-6.739,17.774-3.28,6.837-8.689,12.6-11.161,19.766-1.017,2.95-1.508,6.072-2.687,8.96-2.524,6.2-7.9,10.705-13.107,14.917-7.641,6.187-15.5,12.5-20.543,20.943-7.231,12.117-7.728,27.111-6,41.115s5.469,27.777,5.984,41.88c.845,23.191-6.881,47.629,2.3,68.946,8.851,20.561,38.105,40.765,61.112,38.173,9.44-1.063,17.962-6.105,27.523-7.253,14.8-1.779,29.691-.3,44.455-2.978C1109.367,17.926,1123.729,12.526,1134.962,2.627Z" transform="translate(-952.596 471.972)" fill="none" stroke="#000" stroke-miterlimit="10" stroke-width="1"/>
            <path id="Trazado_729899" data-name="Trazado 729899" d="M1279.226-262c12.631-11.085,19.063-26.7,20.606-43.522,1.431-15.61,6.553-33.361-1.322-48.219-8.255-15.575-27.162-21.082-44.226-22.181-17.927-1.156-35.879.885-53.778,2.456-30.87,2.71-62.028,4.024-92.774.054-27.305-3.524-54.967-11.193-81.926-5.465-10.061,2.138-20.612,6.917-25.128,16.512-1.986,4.22-2.6,8.973-3.19,13.631-3.123,24.721-9.855,51.725,9.519,71.485,9.225,9.41,21.768,14.2,33.155,20.55s22.647,15.657,25.292,28.812c3.094,15.371-6.471,31.765-1.579,46.622a24.153,24.153,0,0,0,15.811,15.51,23.03,23.03,0,0,0,21.238-4.789c7.885-6.881,10.978-18.752,19.675-24.477,10.675-7.023,26.409-2.489,35.744-11.342,6.532-6.2,7.228-16.517,11.39-24.631,3.663-7.146,9.98-12.434,16.645-16.621,6.031-3.789,12.7-6.9,19.744-7.134,8.4-.271,16.349,3.545,24.537,5.5A57.508,57.508,0,0,0,1279.226-262Z" transform="translate(-928.813 402.233)" fill="none" stroke="#000" stroke-miterlimit="10" stroke-width="1"/>
            <path id="Trazado_729900" data-name="Trazado 729900" d="M1112.778-8.212c1.6-11.844-3.5-23.551-9.56-33.852s-13.291-20.154-16.678-31.615-1.978-25.382,7.132-33.119c8.137-6.91,20.481-7.451,28.1-14.931,10.35-10.17,8.918-30.129,21.934-36.542,3.108-1.532,6.687-2.013,9.642-3.818a17.682,17.682,0,0,0,5.911-6.592,31.693,31.693,0,0,0-1.447-32.76c-4.157-6.056-10.379-10.517-14.242-16.764-7.141-11.547-4.325-27.663,4.974-37.556s23.852-13.825,37.32-12.1c13.669,1.749,27.741,8.694,40.563,3.641,2.365-.932,4.682-2.275,7.225-2.259a12.3,12.3,0,0,1,6.081,2.16,49.359,49.359,0,0,1,23.392,43.01c-.456,13.915-6.818,26.835-11.134,40.072a140.709,140.709,0,0,0-.227,85.853c5.113,15.971,13.048,30.864,19.664,46.273,5.214,12.144,9.67,24.885,10.121,38.1s-3.57,27.064-13.179,36.139c-14.116,13.333-36.1,13.347-55.205,9.875s-38.529-9.61-57.55-5.7c-10.105,2.074-19.421,6.891-29.261,9.986s-21.033,4.319-30.107-.588c-9.385-5.075-11.238-15.61-3.054-22.186C1102.6,8.946,1110.916,5.605,1112.778-8.212Z" transform="translate(-876.213 467.308)" fill="none" stroke="#000" stroke-miterlimit="10" stroke-width="1"/>
            <path id="Trazado_729901" data-name="Trazado 729901" d="M1001.94,3.294c13.092,1.751,26.151-2.538,39.283-3.944,22.842-2.444,47.941,3.431,67.545-8.541,16.184-9.883,23.951-31.65,17.682-49.545-4.3-12.267-13.974-21.792-20.478-33.044s-9.151-26.985-.027-36.24c4.357-4.419,10.9-6.783,13.8-12.27,2.712-5.141,1.369-11.464,2.8-17.1,2.885-11.364,15.564-16.711,26.566-20.767s23.524-10.432,25.042-22.058a23.833,23.833,0,0,0-1.237-10.227c-.94-2.953-2.344-5.96-4.933-7.662-3.972-2.616-9.5-1.249-13.245,1.69s-6.223,7.143-9.1,10.931c-9.6,12.647-24.85,21.238-40.727,21.38s-31.869-8.8-38.8-23.089c-5.625-11.606-5.993-26.737-16.394-34.365-9.629-7.061-24.265-3.494-32.178,5.449-11.3,12.772-10.8,32.382-20.128,46.66-9.694,14.833-29.047,22.472-35.444,39-7.646,19.755,6.943,41.009,7.321,62.191.205,11.513-3.832,22.636-5.566,34.019C959.72-27.939,973.7-.482,1001.94,3.294Z" transform="translate(-948.459 480.568)" fill="none" stroke="#000" stroke-miterlimit="10" stroke-width="1"/>
            <path id="Trazado_729902" data-name="Trazado 729902" d="M1181.076,11.094c8.552,1.877,17.081,4.217,25.83,4.545a57.2,57.2,0,0,0,31.61-8.2c7.331-4.447,13.888-11.019,15.917-19.348,3.138-12.895-5.042-25.456-11.614-36.985-25.805-45.264-30.6-101.958-12.772-150.915,3.1-8.519,6.9-17.021,7.274-26.081s-3.677-19.058-12.074-22.477c-7.02-2.858-14.95-.51-22.53-.533-9.864-.033-19.26-4.147-29.058-5.3s-21.539,2.032-25.01,11.267c-3.182,8.468,2.082,17.752,8.26,24.359s13.748,12.544,16.657,21.11a23.361,23.361,0,0,1-7.211,25c-4.933,4-11.32,5.785-16.509,9.448a27.47,27.47,0,0,0-11.3,19.091c-1.032,9.115,2.338,19.388-2.912,26.911-7.534,10.8-26.726,7.042-34.2,17.881-3.269,4.736-3.215,11.118-1.456,16.6s5.013,10.325,7.9,15.3c5.8,9.994,10.3,20.959,11.345,32.467a48.266,48.266,0,0,1-7.507,30.853c-4.692,7.384-7.656,13.748,2.336,18.867,9.817,5.029,18.861-3.116,28.266-5.394C1155.036,6.47,1168.481,8.33,1181.076,11.094Z" transform="translate(-868.172 475.294)" fill="none" stroke="#000" stroke-miterlimit="10" stroke-width="1"/>
            <path id="Trazado_729903" data-name="Trazado 729903" d="M1035.446-283.6c13.182,5.939,27.767,12.395,33.988,25.865,7.3,15.8.1,34.362.038,51.891-.013,3.78.431,7.854,2.851,10.675,5.258,6.127,15.313,1.972,20.462-4.256s8.787-14.456,16-17.79c10.992-5.077,26.76,2.953,34.406-6.7,4.335-5.476,3.024-13.485,4.024-20.5,1.964-13.8,13.789-24.428,26.717-28.115s26.728-1.606,39.72,1.833c8.11,2.147,16.4,4.84,24.688,3.594,17.7-2.66,28.611-22.309,30.927-40.758,1.3-10.393.7-21.254-3.322-30.866s-11.754-17.823-21.443-20.691c-5.786-1.713-11.924-1.489-17.928-1.077-21.642,1.484-43.189,5.241-64.874,4.717-26.184-.633-51.815-7.484-77.759-11.221-15.995-2.3-32.571-3.384-48.04,1.429s-29.76,16.512-34.212,32.659C994.9-308.291,1016.6-292.094,1035.446-283.6Z" transform="translate(-924.979 409.147)" fill="none" stroke="#000" stroke-miterlimit="10" stroke-width="1"/>
            <path id="Trazado_729904" data-name="Trazado 729904" d="M1176.763-35.191c9.5,1.947,19.277,3.565,28.854,2.048s19.049-6.673,23.491-15.293c5.908-11.467,1.606-25.55-4.669-36.821s-14.576-21.85-17.055-34.51c-1.251-6.392-1.041-13-2.5-19.356-1.2-5.209-3.119-8.807-2.538-14.325,1.32-12.571-3.491-26.277-14.086-33.174s-26.889-4.7-33.426,6.119c-6.914,11.44-2.011,28.211-11.276,37.846-8.825,9.178-29.167,5.2-30.492,22-.593,7.518,5.206,13.778,9.773,19.781,4.941,6.49,8.878,13.956,10,22.035,1.079,7.757-.705,15.953-5.772,22.036-4.5,5.4-10.314,9.768-3.142,16.293,6.312,5.744,14.915,1.655,22.358,1.313C1156.612-39.67,1166.719-37.248,1176.763-35.191Z" transform="translate(-859.945 512.172)" fill="none" stroke="#000" stroke-miterlimit="10" stroke-width="1"/>
            <path id="Trazado_729905" data-name="Trazado 729905" d="M1136.262-69.859c-4.128,5.237-7.3,11.42.8,15.179,9.334,4.332,21.8.45,31.8,1.907,8.839,1.292,17.493,5.2,26.351,4.038,9.558-1.251,18.045-9.268,19.088-18.851.618-5.7-1.2-11.376-3.491-16.63-4.571-10.5-11.055-20.053-16.321-30.228s-9.377-21.4-8.609-32.827c.332-4.939,1.568-9.787,1.827-14.731s-.611-10.237-3.9-13.936a13.194,13.194,0,0,0-15.9-2.608c-6.249,3.57-8.317,11.459-9.538,18.55s-2.575,14.942-8.225,19.4c-4.411,3.48-10.372,3.99-15.779,5.52s-11.162,5.17-11.541,10.774c-.366,5.4,4.316,9.576,8.009,13.529,5.118,5.479,9.028,12.248,10.314,19.634S1140.9-75.746,1136.262-69.859Z" transform="translate(-854.298 518.201)" fill="none" stroke="#000" stroke-miterlimit="10" stroke-width="1"/>
            <path id="Trazado_729906" data-name="Trazado 729906" d="M1177.03-67.073c4.775,1.158,10.118,2.537,14.344.032,5.155-3.056,5.837-10.546,3.562-16.091s-6.668-9.9-10.017-14.87c-7.328-10.871-9.457-24.376-10.437-37.449q-.906-12.087-.716-24.223c.028-1.773.041-3.671-.931-5.154-1.707-2.608-5.854-2.582-8.265-.607s-3.384,5.22-3.721,8.318-.177,6.263-.9,9.295a16.568,16.568,0,0,1-12.264,12.048c-5.286,1.166-11.907.1-15.122,4.455-2.552,3.456-1.183,8.511,1.454,11.9s6.326,5.835,9.039,9.167a21.5,21.5,0,0,1,4.259,17.181c-.932,5.141-7.056,10.536-5.3,15.778C1145.332-67.379,1169.028-69.012,1177.03-67.073Z" transform="translate(-849.447 525.868)" fill="none" stroke="#000" stroke-miterlimit="10" stroke-width="1"/>
            <path id="Trazado_729907" data-name="Trazado 729907" d="M1147.51-109.163c-1.079,1.578-2.549,2.956-3.1,4.786-.847,2.828.871,5.939,3.347,7.544s5.536,2.007,8.484,2.153,5.952.088,8.782.923c1.313.386,2.571.962,3.914,1.221a8.014,8.014,0,0,0,7.854-2.942,6.9,6.9,0,0,0-.107-8.22c-2.466-2.989-7.011-3.082-10.274-5.173a9.586,9.586,0,0,1-4.308-8.542c.219-3.269,2.133-6.318,1.953-9.59-.484-8.807-12.39-9.014-15.313-1.525C1146.249-122.133,1152.021-115.759,1147.51-109.163Z" transform="translate(-841.944 544.905)" fill="none" stroke="#000" stroke-miterlimit="10" stroke-width="1"/>
            <path id="Trazado_729908" data-name="Trazado 729908" d="M1151.9-127.807c1.41-.506,2.664-1.388,4.083-1.874,1.745-.6,3.764-.615,5.187-1.789,1.5-1.235,1.857-3.374,1.855-5.316s-.254-3.949.412-5.772c.377-1.038,1.051-2.021,1.01-3.124a3.165,3.165,0,0,0-3.341-2.729,5.489,5.489,0,0,0-3.966,2.4,24.079,24.079,0,0,0-2.226,4.236,6.26,6.26,0,0,1-1.827,2.524,5.494,5.494,0,0,1-2.944.852c-4.469.238-13.286-4.122-13.035,4.229C1137.3-127.5,1147-126.051,1151.9-127.807Z" transform="translate(-846.042 536.519)" fill="none" stroke="#000" stroke-miterlimit="10" stroke-width="1"/>
            <path id="Trazado_729909" data-name="Trazado 729909" d="M1158.264-175.624c-.967-5.2,1.628-10.3,3.366-15.3,3.747-10.765,2.8-24.434-6.247-31.363-2.492-1.909-5.427-3.174-7.916-5.088s-4.591-4.789-4.327-7.918a8.232,8.232,0,0,1,2.619-5.061c4.256-4.141,10.954-4.411,16.8-3.382s11.62,3.1,17.544,2.713c2.508-.162,5.007-.765,7.508-.517,5.144.513,9.459,4.786,10.849,9.768s.17,10.438-2.447,14.9c-2.248,3.832-5.474,7.058-7.425,11.051-5.416,11.074,2.235,25.307-4.247,35.684C1178.2-160.309,1160.332-164.5,1158.264-175.624Z" transform="translate(-842.566 481.179)" fill="none" stroke="#000" stroke-miterlimit="10" stroke-width="1"/>
            <path id="Trazado_729910" data-name="Trazado 729910" d="M1170.808-214.017a1.87,1.87,0,0,0-.41-1.467,1.808,1.808,0,0,0-1.372-.36c-6.348.36-8.1,10.722-10.708,14.964-2.578,4.193-2.879,6.659,2.234,9.258,3.141,1.6,8.225,2.283,9.972-1.521,1.586-3.453-2.218-7.373-2.358-10.771C1168.017-207.508,1170.639-210.474,1170.808-214.017Z" transform="translate(-834.835 497.573)" fill="none" stroke="#000" stroke-miterlimit="10" stroke-width="1"/>
            <path id="Trazado_729911" data-name="Trazado 729911" d="M1168.485-218.97a13.249,13.249,0,0,0,1.9,5.018c1.077,1.445,3.022,2.417,4.715,1.792,1.753-.647,2.563-2.668,2.852-4.515s.287-3.819,1.241-5.427c1.138-1.917,3.518-3.1,3.964-5.282.525-2.573-2.071-4.808-4.636-5.379-4.769-1.06-8.624-.732-13.171-2.586-1.746-.713-13.133-5.5-14.229-1.413a5.491,5.491,0,0,0,1.935,5.28C1158.986-226.168,1166.175-228.839,1168.485-218.97Z" transform="translate(-838.023 484.555)" fill="none" stroke="#000" stroke-miterlimit="10" stroke-width="1"/>
            <path id="Trazado_729912" data-name="Trazado 729912" d="M1007.9-15.769c14.673.555,29.165-3.379,43.843-3.759,13.72-.353,27.9,2.349,40.9-2.048,14.64-4.952,25.83-20.484,23.177-35.709-1.865-10.707-9.6-19.255-15.278-28.52a81.079,81.079,0,0,1-10.51-27.152c-1.674-8.792-1.563-18.8,4.3-25.564,2.816-3.247,6.373-5.813,9.484-8.758a13.19,13.19,0,0,0,2.939-3.521c2.649-5.326-2.486-12.3.48-17.455,1.126-1.958,3.19-3.149,5.136-4.3,3.677-2.164,8.111-7.179,4.927-11.625-3.635-5.075-13.761-1.514-18.509-.729-16.116,2.669-33.481-5.548-41.635-19.7-2.71-4.706-4.449-9.915-7.072-14.669s-6.409-9.225-11.571-10.913c-7.265-2.377-15.4,1.518-20.259,7.419s-7.149,13.442-9.328,20.77-4.464,14.868-9.315,20.776c-9.167,11.164-26.332,15.124-32.044,28.392-2.787,6.473-2.136,13.945-.21,20.724s5.047,13.16,7.182,19.875A59.384,59.384,0,0,1,977.1-86.162c-2.117,15.177-12.458,33.429-6.662,48.941C975.718-23.085,994.178-16.288,1007.9-15.769Z" transform="translate(-945.035 488.882)" fill="none" stroke="#000" stroke-miterlimit="10" stroke-width="1"/>
            <path id="Trazado_729913" data-name="Trazado 729913" d="M1093.359-207.2a13.481,13.481,0,0,0,4.366-5.054c.871-2.076.655-4.761-1.052-6.226-1.652-1.418-4.218-1.3-6.137-.27a14.975,14.975,0,0,0-4.63,4.526c-2.414,3.234-4.759,6.813-7.94,9.363-1.851,1.484-8.044,3.144-7.821,5.127C1070.965-192.438,1091.105-205.42,1093.359-207.2Z" transform="translate(-884.712 495.446)" fill="none" stroke="#000" stroke-miterlimit="10" stroke-width="1"/>
            <path id="Trazado_729914" data-name="Trazado 729914" d="M981.131-96.89c-1.6,8.049-4.886,15.657-7,23.582s-3,16.6.162,24.166c4.144,9.915,14.606,16.048,25.195,17.883s21.435.071,32.025-1.761,21.391-3.734,32.024-2.164c6.28.926,12.53,3.06,18.829,2.257,9.9-1.26,18.075-10.694,17.91-20.675-.131-8.037-4.919-15.239-10.232-21.273s-11.412-11.551-15.168-18.659c-3.431-6.493-4.674-13.89-5.752-21.156-.857-5.775-1.639-11.647-.853-17.432s3.336-11.562,8.017-15.05c2.948-2.2,6.533-3.357,9.694-5.234s6.081-4.893,6.167-8.569c.109-4.633-4.1-9.836-1.044-13.317,1.827-2.079,6-3.325,4.933-5.883a3.494,3.494,0,0,0-2.185-1.688c-8.224-3.015-17.753,1.77-26.016-1.137-3.818-1.342-6.921-4.207-9.457-7.361-5.266-6.544-8.544-14.526-13.953-20.949s-14.272-11.24-22.115-8.236c-4.709,1.8-8.068,6.078-10.263,10.618-3.437,7.111-4.545,15.081-6.51,22.732s-5.107,15.469-11.368,20.287c-9.4,7.234-27.331,10.905-21.219,26.42C978.712-124.852,984.4-113.386,981.131-96.89Z" transform="translate(-941.562 494.91)" fill="none" stroke="#000" stroke-miterlimit="10" stroke-width="1"/>
            <path id="Trazado_729915" data-name="Trazado 729915" d="M1023.139-51.012c9.773-2.226,19.785-4.917,29.678-3.316,5.324.863,10.418,2.952,15.785,3.494s11.464-.9,14.359-5.45c2.86-4.5,1.628-10.607-1.284-15.073s-7.223-7.795-11.016-11.544c-13.561-13.406-20.5-32.6-21.3-51.656-.233-5.532.055-11.259,2.423-16.263,2.956-6.245,8.893-10.686,15.316-13.229,4.7-1.861,10.8-4.176,10.748-9.229-.046-4.447-5.234-7.018-9.678-7.231s-9.125.817-13.206-.951c-7.484-3.243-8.533-13.488-14.049-19.5-5.412-5.9-15.529-6.627-21.734-1.57-6.064,4.944-7.613,13.395-9.208,21.054-1.223,5.875-3.423,15.357-9.371,18.433-6.043,3.127-13.879.633-17.764,8.138-2.942,5.682.081,12.45,2.456,18.392,4.557,11.4,7.283,25.763,2.8,37.641-1.811,4.8-6.075,8.539-8.389,13.3-2.953,6.077-4.774,12.858-2.109,19.389C985.46-46.912,1005.946-47.095,1023.139-51.012Z" transform="translate(-938.903 503.324)" fill="none" stroke="#000" stroke-miterlimit="10" stroke-width="1"/>
            <path id="Trazado_729916" data-name="Trazado 729916" d="M1013.962-131.106a11.914,11.914,0,0,1-1.474,1.757c-3.882,3.8-9.866,4.212-14.78,6.52C988.727-118.61,982.51-107.891,984.6-98a15.467,15.467,0,0,0,7.886,10.584c4.2,2.059,9.194.158,13.4-1.221,9.061-2.974,17.867-7.429,27.4-7.828a38.354,38.354,0,0,1,11.746,1.357c3.286.912,6.339,2.8,9.855,2.657a7.639,7.639,0,0,0,6.058-3.108c3.586-5.383-3.318-9.945-7.14-12.292-7.4-4.545-14.128-11.292-15.688-19.837-.719-3.941-.293-7.985-.167-11.989.2-6.239-.473-14.493-8.181-15.837-3.725-.648-7.383,1.947-9.3,5.209s-2.507,7.1-3.313,10.795A23.527,23.527,0,0,1,1013.962-131.106Z" transform="translate(-934.348 532.363)" fill="none" stroke="#000" stroke-miterlimit="10" stroke-width="1"/>
            <path id="Trazado_729917" data-name="Trazado 729917" d="M990.719-141.836c-1.544-4.775-3.227-10.263-.614-14.548,2.36-3.867,7.269-5.129,11.082-7.574a18.933,18.933,0,0,0,7.94-10.752c1.008-3.62.91-7.468,1.808-11.117s3.22-7.367,6.891-8.175c3.608-.8,7.165,1.459,9.889,3.955s5.285,5.449,8.809,6.559c2.677.844,5.829.595,7.979,2.4,2.409,2.022,2.423,5.884.97,8.675s-4,4.808-6.356,6.9-4.668,4.507-5.359,7.575c-.765,3.4.58,7.135-.77,10.344-1.873,4.453-7.61,5.42-12.4,6.029a8.664,8.664,0,0,0-4.206,1.324,7.179,7.179,0,0,0-1.862,2.335c-4.253,7.686-3.109,18.476-9.989,23.937-5.965,4.736-10.524-2.231-10.809-7.763C993.357-128.845,992.958-134.915,990.719-141.836Z" transform="translate(-931.72 510.098)" fill="none" stroke="#000" stroke-miterlimit="10" stroke-width="1"/>
            <path id="Trazado_729918" data-name="Trazado 729918" d="M1008.465-127.875a38.734,38.734,0,0,0-11.085,4.766,22.123,22.123,0,0,0-7.709,7.544,16.555,16.555,0,0,0-1.959,10.208c.565,3.849,3.172,5.739,7.009,6.187,4.714.551,9.377-1.227,13.644-3.3s8.451-4.518,13.1-5.441c4.2-.835,8.536-.382,12.819-.3,2.112.038,4.775-.415,5.321-2.456.617-2.309-2.418-4.663-3.871-6.162-2.152-2.215-4.553-3.941-6.384-6.491-1.371-1.91-2.518-4.155-2.341-6.5.162-2.163,1.42-4.078,2.013-6.165a7.442,7.442,0,0,0-.448-5.61,4.832,4.832,0,0,0-4.792-2.527,5.306,5.306,0,0,0-3.843,3.6c-1.058,2.982.084,6.5-2.033,9.134-1.715,2.134-4.737,2.535-7.424,3.067Q1009.469-128.131,1008.465-127.875Z" transform="translate(-932.404 538.963)" fill="none" stroke="#000" stroke-miterlimit="10" stroke-width="1"/>
            <path id="Trazado_729919" data-name="Trazado 729919" d="M995.78-112.586c2.71.134,5.228-1.306,7.488-2.806s4.559-3.158,7.242-3.556a33.432,33.432,0,0,0,3.4-.385,5.654,5.654,0,0,0,3.928-3.764,5.653,5.653,0,0,0-1.188-5.31c-1.554-1.724-4.019-2.3-6.338-2.407a21.8,21.8,0,0,0-15.676,5.889c-1.767,1.658-4.4,4.357-4.463,6.947C990.114-115.211,993.185-112.716,995.78-112.586Z" transform="translate(-930.892 546.672)" fill="none" stroke="#000" stroke-miterlimit="10" stroke-width="1"/>
            <path id="Trazado_729920" data-name="Trazado 729920" d="M1013.405-143.663a3.307,3.307,0,0,0,1.57.391,3.473,3.473,0,0,0,2.352-1.259,5.493,5.493,0,0,0,1.308-4.939c-.869-3.392-5.457-4.717-7.738-1.811C1009.072-148.957,1011.055-144.835,1013.405-143.663Z" transform="translate(-919.338 533.94)" fill="none" stroke="#000" stroke-miterlimit="10" stroke-width="1"/>
            <path id="Trazado_729921" data-name="Trazado 729921" d="M996.3-144.994c-.036-3.881-3.032-7.632-1.86-11.331,1.1-3.474,5.157-4.811,8.284-6.684a18.487,18.487,0,0,0,8.615-12.663c.468-2.835.421-6.111,2.567-8.023,1.47-1.311,3.576-1.568,5.54-1.7a17.725,17.725,0,0,1,7.028.547,6.858,6.858,0,0,1,4.685,4.886c.507,2.77-1.284,5.4-3.123,7.534s-3.928,4.359-4.193,7.16c-.246,2.576,1.128,5.229.341,7.7-.845,2.652-3.816,3.955-6.536,4.553s-5.688.9-7.795,2.721c-2,1.727-2.772,4.474-3.084,7.1-.494,4.139-.312,12.811-6.682,12.114C993.3-131.836,996.334-140.833,996.3-144.994Z" transform="translate(-928.59 515.1)" fill="none" stroke="#000" stroke-miterlimit="10" stroke-width="1"/>
            <path id="Trazado_729922" data-name="Trazado 729922" d="M1008.7-168.015a13.205,13.205,0,0,0,.76-5.13,13.6,13.6,0,0,1,1.412-6.121,6.225,6.225,0,0,1,5.034-3.371,3.466,3.466,0,0,1,1.862.445c1.65.994,1.754,3.388,1.155,5.218a10.733,10.733,0,0,1-2.718,4.348,11.606,11.606,0,0,0-2.463,2.631,13.355,13.355,0,0,0-.828,3.71,8.67,8.67,0,0,1-3.116,5.059c-1.683,1.322-5.837,2.013-5.688-1.249C1004.205-164.535,1007.817-166.13,1008.7-168.015Z" transform="translate(-922.848 516.754)" fill="none" stroke="#000" stroke-miterlimit="10" stroke-width="1"/>
            <path id="Trazado_729923" data-name="Trazado 729923" d="M1053.271-297.1c9.527,4.217,18.853,10.462,23.488,20.1,7.652,15.909.306,34.784-.3,52.563a9.362,9.362,0,0,0,.764,4.857c1.918,3.478,7.182,3.034,10.107.421s4.363-6.542,6.487-9.888a25.3,25.3,0,0,1,16.6-11.306c5.146-.929,10.861-.292,15.146-3.4,5.476-3.972,6.009-11.959,7.733-18.67,3.138-12.216,11.875-22.461,22.6-28.414s23.259-7.845,35.368-6.747c16.984,1.54,34.114,8.691,50.6,4.162,4.971-1.365,9.847-3.933,12.86-8.263,3.357-4.826,3.963-11.111,4.081-17.064.145-7.381-.487-15.351-5.039-21.016-4.766-5.93-12.644-7.88-20.009-8.9-23.934-3.3-48.2-.374-72.328.427a410.482,410.482,0,0,1-57.223-2.092c-20.718-2.21-41.405-6-62.218-5.171-13.3.532-41.738,8.2-35.436,28.275C1012.464-308.382,1038.228-303.752,1053.271-297.1Z" transform="translate(-921.956 416.857)" fill="none" stroke="#000" stroke-miterlimit="10" stroke-width="1"/>
            <path id="Trazado_729924" data-name="Trazado 729924" d="M1062.84-306.722c11.216,6.57,21.022,17.686,21.991,31.038.481,6.622-1.234,13.2-3.284,19.49-1.134,3.477-2.243,7.738.112,10.472,2.453,2.847,7.056,1.907,10.061-.3s5.351-5.4,8.689-7.007c3.183-1.529,7.064-1.492,9.8-3.77,4.464-3.715,3.335-10.89,4.45-16.722,3.18-16.625,25.86-27.19,39.552-32.249a96.814,96.814,0,0,1,53.8-4.061c5.354,1.161,10.686,2.791,16.155,2.759s11.284-2.052,14.384-6.739c4.128-6.242,1.956-15.319-3.2-20.669-7.489-7.766-17.985-8.675-27.81-9.653-12.443-1.24-24.043-.382-36.494.693-17.3,1.492-34.39-.749-51.547-.486-17.531.27-36.387.541-53.67-2.742-10.094-1.918-20.116-5.51-30.342-4.616-11.519,1.008-29.446,14.54-16.368,26.324,5.412,4.878,13.977,6.353,20.606,8.569C1047.64-313.741,1055.571-310.98,1062.84-306.722Z" transform="translate(-916.82 419.279)" fill="none" stroke="#000" stroke-miterlimit="10" stroke-width="1"/>
            <path id="Trazado_729925" data-name="Trazado 729925" d="M1023.207-334.534a10,10,0,0,0,4.37,3.518c10.653,5.316,23.2,5.58,34.081,10.42,16.495,7.337,27.318,25.78,25.682,43.759-.222,2.453-.653,4.935-.221,7.359s1.969,4.851,4.354,5.469c3.426.89,6.709-2.4,7.506-5.845s-.035-7.037-.145-10.576a26.109,26.109,0,0,1,6.653-18.115c4.182-4.627,9.874-7.578,14.625-11.618s8.758-10.02,7.583-16.144c-.966-5.031-5.241-8.85-9.89-11-8.451-3.911-18.164-3.445-27.474-3.546a204.3,204.3,0,0,1-43.773-5.289c-5.1-1.178-9.2-2.6-14.327-1.107C1027.284-345.81,1019.532-340.74,1023.207-334.534Z" transform="translate(-912.37 421.315)" fill="none" stroke="#000" stroke-miterlimit="10" stroke-width="1"/>
            <path id="Trazado_729926" data-name="Trazado 729926" d="M1095.759-326.217c5.083,4.387,12.35,5.316,19.03,4.617s13.135-2.808,19.784-3.739a56.812,56.812,0,0,1,23.15,1.555c4.234,1.188,8.5,2.888,12.872,2.426s8.831-4.12,8.229-8.478c-.494-3.568-3.966-5.867-7.2-7.444a74.6,74.6,0,0,0-35.867-7.413c-8.26.375-16.805,2.095-24.614-.625-5.941-2.071-13.813-5.513-18.672.866C1088.5-339.246,1091.249-330.11,1095.759-326.217Z" transform="translate(-872.922 421.184)" fill="none" stroke="#000" stroke-miterlimit="10" stroke-width="1"/>
            <path id="Trazado_729927" data-name="Trazado 729927" d="M1064.2-326.568c1.739,2.644,2.9,5.677,4.971,8.066a13.636,13.636,0,0,0,11.626,4.531,13.635,13.635,0,0,0,10.317-7.018,10.135,10.135,0,0,1,1.506-2.466c1.178-1.2,3.193-1.63,3.815-3.194.576-1.448-.422-3.068-1.646-4.034-3.048-2.407-7.3-2.444-11.17-2.074s-7.9,1.013-11.533-.371c-2.123-.809-3.934-2.257-5.928-3.346a19.3,19.3,0,0,0-11.412-2.213c-1.313.153-2.764.551-3.415,1.7C1049.212-333.243,1062.134-329.707,1064.2-326.568Z" transform="translate(-895.711 426.558)" fill="none" stroke="#000" stroke-miterlimit="10" stroke-width="1"/>
            <path id="Trazado_729928" data-name="Trazado 729928" d="M1118.98-334.8a5.377,5.377,0,0,0,2.272-2.631c.831-2.56-1.584-5.048-4.043-6.146-4.379-1.955-25.225-3.373-21.839,6.144C1097.912-330.282,1114.3-331.656,1118.98-334.8Z" transform="translate(-870.355 422.985)" fill="none" stroke="#000" stroke-miterlimit="10" stroke-width="1"/>
          </g>
        </g>
      </g>
    </g>
  </g>
</svg>
