<svg xmlns="http://www.w3.org/2000/svg" xmlns:xlink="http://www.w3.org/1999/xlink" width="130.479" height="214.263" viewBox="0 0 130.479 214.263">
  <defs>
    <clipPath id="clip-path">
      <rect id="Rectángulo_351068" data-name="Rectángulo 351068" width="36.452" height="32.923" fill="#12263f"/>
    </clipPath>
    <clipPath id="clip-path-2">
      <rect id="Rectángulo_34871" data-name="Rectángulo 34871" width="67.526" height="33.679" fill="none"/>
    </clipPath>
    <clipPath id="clip-path-3">
      <rect id="Rectángulo_34870" data-name="Rectángulo 34870" width="51.243" height="59.495" fill="none"/>
    </clipPath>
  </defs>
  <g id="Grupo_1019311" data-name="Grupo 1019311" transform="translate(-1184.521 -139.624)">
    <g id="Grupo_1015137" data-name="Grupo 1015137" transform="translate(261.667 48.726)">
      <circle id="Elipse_8447" data-name="Elipse 8447" cx="37" cy="37" r="37" transform="translate(968.333 135)" fill="#f1f5fa" opacity="0.71"/>
      <circle id="Elipse_8448" data-name="Elipse 8448" cx="31" cy="31" r="31" transform="translate(974.333 141)" fill="#fff"/>
      <g id="Grupo_1014658" data-name="Grupo 1014658" transform="translate(987.107 155.287)">
        <g id="Grupo_1014658-2" data-name="Grupo 1014658" clip-path="url(#clip-path)">
          <path id="Trazado_728067" data-name="Trazado 728067" d="M36.452,9.354a.9.9,0,0,1-.867.424c-1.756-.014-3.512-.006-5.268-.006H29.9v.45q0,8.79,0,17.581A4.951,4.951,0,0,1,26,32.79a7.735,7.735,0,0,1-1.729.127q-9.611.012-19.221,0A5.032,5.032,0,0,1,0,27.885q0-1.335,0-2.669c0-.574.2-.773.762-.774q1.993,0,3.987,0h.427c0-.2,0-.365,0-.528q.074-10,.141-20A3.744,3.744,0,0,1,6.783.79,3.332,3.332,0,0,1,8.847.033q3.809-.015,7.617-.01C21.721.021,26.977.067,32.233,0a4.043,4.043,0,0,1,4.173,3.253c0,.019.03.034.046.05ZM6.389,24.441H20.211c.721,0,.9.18.9.9.006.961-.016,1.923.024,2.882a3.783,3.783,0,0,0,7.555-.335c.007-3.2,0-6.406,0-9.609q0-7.1,0-14.2a3.814,3.814,0,0,1,.524-2.035c.163-.267.342-.524.529-.809-.09-.009-.146-.02-.2-.02q-10.216,0-20.432.01a2.836,2.836,0,0,0-1.164.248A2.452,2.452,0,0,0,6.514,3.886q-.068,10.124-.15,20.249c0,.092.014.184.025.306m13.536,1.22H1.231a20.451,20.451,0,0,0,.022,2.824,3.691,3.691,0,0,0,3.8,3.238q8.132.018,16.264,0a1.633,1.633,0,0,0,.216-.023c-.352-.5-.737-.962-1.037-1.477a4.738,4.738,0,0,1-.577-2.531c.014-.672,0-1.345,0-2.034m15.31-17.1c0-1.7.054-3.374-.018-5.04a2.575,2.575,0,0,0-2.423-2.29,2.689,2.689,0,0,0-2.9,2.723c-.012,1.445,0,2.89,0,4.336a2.652,2.652,0,0,0,.027.271Z" transform="translate(0 0)" fill="#12263f"/>
          <path id="Trazado_728068" data-name="Trazado 728068" d="M89.244,40.28c-.01-.122-.025-.214-.025-.306q.075-10.124.15-20.249A2.452,2.452,0,0,1,90.8,17.314a2.837,2.837,0,0,1,1.164-.248q10.216-.022,20.432-.01c.057,0,.114.011.2.02-.187.284-.366.541-.529.809a3.813,3.813,0,0,0-.524,2.035q.007,7.1,0,14.2c0,3.2,0,6.406,0,9.609a3.782,3.782,0,0,1-7.555.335c-.041-.959-.019-1.921-.024-2.882,0-.722-.183-.9-.9-.9H89.244Zm16.075-15.327h-.035c0-.723-.01-1.447,0-2.17a.694.694,0,0,0-.437-.7q-2.185-1.069-4.365-2.147a.852.852,0,0,0-.811,0q-2.18,1.078-4.366,2.145a.7.7,0,0,0-.429.7c.011,1.364-.016,2.728.011,4.091a4.226,4.226,0,0,0,1.7,3.406c.969.74,2,1.4,3.009,2.086a.659.659,0,0,0,.965,0c.93-.634,1.862-1.267,2.786-1.91a4.187,4.187,0,0,0,1.838-2.885,24.928,24.928,0,0,0,.125-2.622m-5.008,10.4h6.832c.577,0,.872-.208.87-.607s-.278-.587-.876-.587H93.544a2.415,2.415,0,0,0-.355.01.541.541,0,0,0-.5.51.529.529,0,0,0,.409.619,1.836,1.836,0,0,0,.491.052q3.363,0,6.726,0m-.014,2.721h6.833c.6,0,.877-.186.884-.587s-.285-.613-.9-.613q-6.78,0-13.559,0a.87.87,0,0,0-.481.062,1.066,1.066,0,0,0-.382.53.48.48,0,0,0,.385.559,1.37,1.37,0,0,0,.42.044q3.4,0,6.8,0" transform="translate(-82.855 -15.838)" fill="#dee4f0"/>
          <path id="Trazado_728069" data-name="Trazado 728069" d="M35.4,359.738c0,.689.011,1.362,0,2.034a4.737,4.737,0,0,0,.577,2.531c.3.515.685.981,1.037,1.477a1.639,1.639,0,0,1-.216.023q-8.132,0-16.263,0a3.691,3.691,0,0,1-3.8-3.238,20.428,20.428,0,0,1-.022-2.823Z" transform="translate(-15.477 -334.077)" fill="#c3cfe6"/>
          <path id="Trazado_728070" data-name="Trazado 728070" d="M424.386,24.548h-5.312a2.665,2.665,0,0,1-.027-.271c0-1.445-.011-2.891,0-4.336a2.689,2.689,0,0,1,2.9-2.723,2.575,2.575,0,0,1,2.423,2.29c.072,1.665.018,3.336.018,5.04" transform="translate(-389.151 -15.986)" fill="#c3cfe6"/>
          <path id="Trazado_728071" data-name="Trazado 728071" d="M179,61.1a24.92,24.92,0,0,1-.125,2.622,4.187,4.187,0,0,1-1.838,2.885c-.924.643-1.856,1.275-2.786,1.91a.659.659,0,0,1-.964,0c-1.007-.69-2.04-1.345-3.009-2.086a4.226,4.226,0,0,1-1.7-3.406c-.027-1.363,0-2.728-.011-4.091a.7.7,0,0,1,.429-.7q2.186-1.067,4.366-2.145a.852.852,0,0,1,.811,0q2.179,1.08,4.365,2.147a.694.694,0,0,1,.437.7c-.015.723,0,1.447,0,2.17H179m-9.239.226c0,.545-.011,1.091,0,1.636a3.2,3.2,0,0,0,1.4,2.657c.781.557,1.581,1.087,2.367,1.637a.315.315,0,0,0,.433.013c.812-.574,1.651-1.111,2.456-1.7a3.093,3.093,0,0,0,1.339-2.507c.032-1.208.015-2.418,0-3.627a.469.469,0,0,0-.213-.344q-1.787-.909-3.593-1.778a.5.5,0,0,0-.385,0c-1.193.575-2.377,1.17-3.57,1.746a.384.384,0,0,0-.244.413c.01.616,0,1.233,0,1.849" transform="translate(-156.533 -51.981)" fill="#12263f"/>
          <path id="Trazado_728072" data-name="Trazado 728072" d="M145.352,257.972q-3.363,0-6.726,0a1.839,1.839,0,0,1-.491-.052.529.529,0,0,1-.409-.619.541.541,0,0,1,.5-.51,2.4,2.4,0,0,1,.355-.01h13.594c.6,0,.874.186.876.587s-.293.607-.87.607h-6.832" transform="translate(-127.896 -238.459)" fill="#12263f"/>
          <path id="Trazado_728073" data-name="Trazado 728073" d="M145.349,296.061q-3.4,0-6.8,0a1.372,1.372,0,0,1-.42-.044.48.48,0,0,1-.385-.559,1.066,1.066,0,0,1,.382-.53.869.869,0,0,1,.481-.062q6.78,0,13.559,0c.612,0,.9.2.9.613s-.286.587-.884.587h-6.833" transform="translate(-127.907 -273.827)" fill="#12263f"/>
          <path id="Trazado_728074" data-name="Trazado 728074" d="M185.343,78.241c0-.616.007-1.233,0-1.849a.384.384,0,0,1,.244-.413c1.193-.577,2.376-1.171,3.57-1.747a.5.5,0,0,1,.386,0q1.8.872,3.593,1.778a.469.469,0,0,1,.213.344c.015,1.209.031,2.419,0,3.627A3.093,3.093,0,0,1,192,82.487c-.8.585-1.644,1.122-2.456,1.7a.315.315,0,0,1-.433-.013c-.786-.55-1.586-1.08-2.367-1.637a3.2,3.2,0,0,1-1.4-2.657c-.013-.545,0-1.09,0-1.636m3.414,1.36c-.243-.258-.447-.489-.666-.7-.33-.325-.673-.347-.935-.075a.618.618,0,0,0,.086.912c.312.324.632.641.951.96.446.446.712.443,1.169-.012q1.007-1,2.01-2.012a1.6,1.6,0,0,0,.247-.3.58.58,0,0,0-.781-.8,1.714,1.714,0,0,0-.324.273c-.57.567-1.137,1.138-1.757,1.76" transform="translate(-172.118 -68.9)" fill="#ffca28"/>
          <path id="Trazado_728075" data-name="Trazado 728075" d="M210.278,122.42c.62-.622,1.186-1.192,1.757-1.76a1.714,1.714,0,0,1,.324-.273.58.58,0,0,1,.781.8,1.6,1.6,0,0,1-.248.3q-1,1.009-2.01,2.012c-.456.455-.722.457-1.169.012-.319-.318-.639-.635-.951-.96a.618.618,0,0,1-.086-.912c.262-.272.6-.25.935.075.219.215.422.446.666.7" transform="translate(-193.64 -111.719)" fill="#12263f"/>
        </g>
      </g>
    </g>
    <g id="Grupo_1015140" data-name="Grupo 1015140" transform="translate(1195.486 139.624) rotate(19)">
      <path id="Trazado_151728" data-name="Trazado 151728" d="M0,0,67.526,5.733,61.318,14.32,59.9,29.914,50.73,27.366l-4.592,6.313Z" transform="translate(0 0)" fill="#afafaf"/>
      <path id="Trazado_151729" data-name="Trazado 151729" d="M7.215,29.691l9.174,2.547L17.8,16.645Z" transform="translate(43.516 -2.325)" fill="#361524"/>
      <g id="Grupo_80186" data-name="Grupo 80186" transform="translate(0 0)">
        <g id="Grupo_80185" data-name="Grupo 80185" clip-path="url(#clip-path-2)">
          <path id="Trazado_151730" data-name="Trazado 151730" d="M66.482,14.837a.492.492,0,0,0,.112-.97L7.818.2A.492.492,0,1,0,7.6,1.16L66.371,14.825a.494.494,0,0,0,.111.013" transform="translate(-5.654 -0.027)" fill="#361524"/>
        </g>
      </g>
    </g>
    <g id="Grupo_1015142" data-name="Grupo 1015142" transform="translate(1263.757 294.392)">
      <g id="Grupo_80182" data-name="Grupo 80182" transform="translate(0 0)" clip-path="url(#clip-path-3)">
        <path id="Trazado_151723" data-name="Trazado 151723" d="M19.163,73.363l8.975,10.317S19.41,93.259,14.5,88.592a9.222,9.222,0,0,1-.978-2.756c-.6-5.127,1.469-14.684,1.469-14.684Z" transform="translate(15.42 -30.378)" fill="#08101a"/>
        <path id="Trazado_151724" data-name="Trazado 151724" d="M1.181,23.089,4.1,26.646l.458.57L17.5,43.034l.445.556,3.858,4.71.491.6,7.618,9.307a.105.105,0,0,0-.006-.026c-.1-.308-.963-3.557,2.384-9.1a15.512,15.512,0,0,1,4.074-4.054c5.823-4.29,14.875-7.86,14.875-7.86S43.56,28.859,33.931,17.685C27.388,10.1,20.484,0,20.484,0S10.266,5.567,5.845,9.989c-2.987,2.987-8.188,7.283-4.664,13.1" transform="translate(0 0)" fill="#31313c"/>
        <path id="Trazado_151725" data-name="Trazado 151725" d="M22.14,73.381l.491.6a19.053,19.053,0,0,1,2.07-4.65c3.131-4.984,8.639-7.873,13.965-9.93.393-.151.223-.786-.17-.636C33,60.89,27.36,63.864,24.137,69a18.956,18.956,0,0,0-2,4.382" transform="translate(-0.332 -25.081)" fill="#fff"/>
        <path id="Trazado_151726" data-name="Trazado 151726" d="M31.178,64.21l.445.557A28.815,28.815,0,0,1,46.833,50.258c.387-.157.216-.793-.177-.636A29.542,29.542,0,0,0,31.178,64.21" transform="translate(-13.675 -21.176)" fill="#fff"/>
        <path id="Trazado_151727" data-name="Trazado 151727" d="M53.681,34.772l.458.57A28.825,28.825,0,0,1,69.853,19.694c.38-.164.21-.793-.176-.636a29.561,29.561,0,0,0-16,15.714" transform="translate(-49.585 -8.126)" fill="#fff"/>
      </g>
    </g>
  </g>
</svg>
