<svg xmlns="http://www.w3.org/2000/svg" xmlns:xlink="http://www.w3.org/1999/xlink" width="1600" height="220" viewBox="0 0 1600 220">
  <defs>
    <clipPath id="clip-path">
      <rect id="Rectángulo_344499" data-name="Rectángulo 344499" width="1600" height="220" transform="translate(0 32)" fill="#fff"/>
    </clipPath>
    <clipPath id="clip-path-2">
      <path id="Rectangle_652" data-name="Rectangle 652" d="M1605.59,0H25.689C11.5,0,0,10.386,0,23.2V603.157c0,12.812,11.5,23.2,25.689,23.2h1579.9c14.188,0,25.689-10.386,25.689-23.2V23.2C1631.28,10.386,1619.778,0,1605.59,0Z" transform="translate(0 0)" fill="#9ac7dd"/>
    </clipPath>
  </defs>
  <g id="Grupo_930212" data-name="Grupo 930212" transform="translate(0 -70)">
    <g id="Enmascarar_grupo_87" data-name="Enmascarar grupo 87" transform="translate(0 38)" clip-path="url(#clip-path)">
      <path id="Rectangle_652-2" data-name="Rectangle 652" d="M1605.59,0H25.689C11.5,0,0,10.386,0,23.2V603.157c0,12.812,11.5,23.2,25.689,23.2h1579.9c14.188,0,25.689-10.386,25.689-23.2V23.2C1631.28,10.386,1619.778,0,1605.59,0Z" transform="translate(0 12)" fill="#f2f2f2"/>
      <g id="Enmascarar_grupo_1012277" data-name="Enmascarar grupo 1012277" transform="translate(1.236 12)" clip-path="url(#clip-path-2)">
        <g id="Grupo_1015126" data-name="Grupo 1015126" transform="translate(-691.496 -1076.894)">
          <path id="Trazado_729808" data-name="Trazado 729808" d="M2061.148,890.661c-239.2,398.424-859.412,930.366-1371.073,623.181-459.425-275.825-857.55-929.074-618.349-1327.5C205-35.635,404.2-63.4,599.171,125.172,754.152,275.062,888.253,610.059,1114.846,746.1c300.808,180.6,652.214-123.5,846.647-171.7C2097.781,540.619,2159.722,726.473,2061.148,890.661Z" transform="translate(2503.162 2423.641) rotate(-155)" fill="#219cd5" opacity="0.15" style="mix-blend-mode: multiply;isolation: isolate"/>
          <path id="Trazado_729809" data-name="Trazado 729809" d="M18.674,277.344c21.892,42.577,62.651,70.55,108.243,83.77,54.052,15.671,106.064,7.313,160.3-1.007,50-7.67,105.617-9.806,147.807,22.691,65.487,50.44,71.742,148.16,131.7,204.7A165.986,165.986,0,0,0,677.56,632.223c45.075.5,102.118-19.124,125.173-60.713,22.385-40.386-.3-80.6,7.647-121.943,15.547-80.857,127.208-76.052,181.159-116.188,25.779-19.176,43.127-47.79,55.011-77.641,13.19-33.129,20.374-70.038,11.446-104.562C1043.2,93.988,987.651,72.583,933.548,70.528c-40.2-1.527-80.172,8.82-117.094,24.805C783.8,109.471,753.086,128.02,719.69,140.3c-82.476,30.325-163.721-8.372-234.88-49.979C393.46,36.911,299.117-14.58,189.9,3.8,106.445,17.837,19.833,69.175,3.453,158.42c-6.928,37.752-3.716,77.79,12.21,112.713Q17.1,274.288,18.674,277.344Z" transform="matrix(0.891, 0.454, -0.454, 0.891, 401.771, 1196.467)" fill="#afafaf" style="mix-blend-mode: overlay;isolation: isolate"/>
          <path id="Trazado_729810" data-name="Trazado 729810" d="M22.452,333.44c26.32,51.189,75.324,84.82,130.136,100.714,64.985,18.841,127.517,8.792,192.719-1.21,60.117-9.222,126.98-11.79,177.7,27.28,78.732,60.642,86.253,178.128,158.343,246.109A199.56,199.56,0,0,0,814.605,760.1c54.192.6,122.773-22.992,150.49-72.993,26.912-48.555-.362-96.9,9.193-146.607,18.692-97.211,152.937-91.434,217.8-139.689,30.994-23.055,51.85-57.456,66.138-93.345,15.858-39.83,24.495-84.2,13.76-125.711-17.782-68.756-84.572-94.49-149.618-96.961-48.337-1.836-96.388,10.6-140.778,29.822-39.257,17-76.185,39.3-116.336,54.06-99.158,36.459-196.836-10.066-282.388-60.087C473.043,44.376,359.617-17.529,228.311,4.564c-100.336,16.88-204.466,78.6-224.159,185.9-8.329,45.387-4.468,93.524,14.68,135.51Q20.563,329.766,22.452,333.44Z" transform="translate(1592.098 1115.736) rotate(8)" fill="#bebfbd" opacity="0.572" style="mix-blend-mode: overlay;isolation: isolate"/>
          <path id="Trazado_729811" data-name="Trazado 729811" d="M18.938,281.253C41.138,324.43,82.472,352.8,128.706,366.2c54.814,15.892,107.559,7.416,162.557-1.021,50.708-7.778,107.106-9.945,149.891,23.011,66.41,51.151,72.753,150.249,133.56,207.59a168.326,168.326,0,0,0,112.4,45.352c45.711.5,103.558-19.393,126.937-61.568,22.7-40.956-.306-81.735,7.755-123.662,15.766-82,129-77.124,183.713-117.826,26.143-19.447,43.735-48.463,55.786-78.735,13.376-33.6,20.661-71.025,11.607-106.036-15-58-71.335-79.7-126.2-81.786-40.771-1.549-81.3,8.944-118.744,25.155-33.113,14.337-64.261,33.148-98.129,45.6-83.638,30.753-166.029-8.49-238.191-50.683C399.007,37.431,303.333-14.785,192.578,3.85,107.945,18.088,20.113,70.15,3.5,160.653c-7.025,38.284-3.769,78.887,12.382,114.3Q17.345,278.154,18.938,281.253Z" transform="translate(2558.268 1854.579) rotate(176)" fill="#d9dbd7" opacity="0.19"/>
          <path id="Trazado_729812" data-name="Trazado 729812" d="M21.438,318.392c25.132,48.879,71.924,80.992,124.263,96.168,62.052,17.991,121.763,8.4,184.022-1.156,57.4-8.805,121.249-11.258,169.684,26.049,75.179,57.906,82.36,170.089,151.2,235A190.553,190.553,0,0,0,777.842,725.8c51.747.569,117.233-21.954,143.7-69.7,25.7-46.364-.346-92.528,8.779-139.991,17.848-92.824,146.036-87.308,207.972-133.384,29.595-22.015,49.51-54.863,63.153-89.132,15.142-38.033,23.39-80.4,13.139-120.038-16.98-65.653-80.755-90.226-142.866-92.585-46.155-1.753-92.038,10.125-134.424,28.477-37.485,16.23-72.746,37.525-111.086,51.62-94.683,34.814-187.953-9.612-269.644-57.376C451.695,42.374,343.388-16.738,218.008,4.358,122.2,20.477,22.769,79.413,3.965,181.867-3.988,225.206-.3,271.17,17.982,311.261Q19.635,314.884,21.438,318.392Z" transform="matrix(0.891, 0.454, -0.454, 0.891, 329.509, 1100.564)" fill="none" stroke="#d9dbd7" stroke-width="7" opacity="0.928" style="mix-blend-mode: overlay;isolation: isolate"/>
          <path id="Trazado_729813" data-name="Trazado 729813" d="M2204.337,952.536c-255.819,426.1-919.116,995-1466.322,666.474C246.674,1324.023-179.109,625.392,76.71,199.289,219.237-38.111,432.276-67.8,640.8,133.868c165.748,160.3,309.164,518.572,551.5,664.063C1514,991.073,1889.819,665.848,2097.76,614.306,2243.516,578.176,2309.759,776.942,2204.337,952.536Z" transform="translate(2490.161 2522.447) rotate(-155)" fill="#6f88da" opacity="0.15" style="mix-blend-mode: multiply;isolation: isolate"/>
          <path id="Trazado_729814" data-name="Trazado 729814" d="M2247.074,971c-260.779,434.364-936.936,1014.289-1494.75,679.4C251.457,1349.692-182.582,637.516,78.2,203.153c145.29-242,362.46-272.268,575.022-66.689C822.18,299.874,968.378,665.09,1215.411,813.4c327.943,196.887,711.047-134.643,923.019-187.185C2287.012,589.386,2354.54,792,2247.074,971Z" transform="translate(2586.983 2558.094) rotate(-155)" fill="none" stroke="#12263f" stroke-width="3" opacity="0.15" style="mix-blend-mode: multiply;isolation: isolate"/>
        </g>
        <g id="Grupo_1015134" data-name="Grupo 1015134" transform="translate(-98.485 -7.247)" opacity="0.164">
          <g id="Grupo_1015133" data-name="Grupo 1015133" transform="translate(0 0)" opacity="0.554">
            <g id="Grupo_1015128" data-name="Grupo 1015128" transform="translate(0 4.033)" opacity="0.25">
              <g id="Grupo_1015127" data-name="Grupo 1015127">
                <path id="Trazado_729815" data-name="Trazado 729815" d="M583.161-392.367c-30.888,5.383-56.109,30.485-66.91,59.919-2.979,8.12-5.022,16.7-4.739,25.346.581,17.866,10.787,33.725,18.714,49.744,5.053,10.212,9.247,21.445,9.486,32.965.092,4.4.008,10.736-2.219,14.694-2.293,4.076-7.34,5.067-10.814,7.829-8.262,6.574-4.683,20.786-11.465,28.878-3.26,3.891-8.342,5.646-13.163,7.233-12.163,4-24.669,8.225-34.325,16.633-12.574,10.949-16.939,30.641-12.259,46.29a131.57,131.57,0,0,0,9.095,22.566c4.1,7.954,9.052,15.6,11.374,24.242,3.277,12.192.907,25.482-4.936,36.673-17.38,33.282-64.247,46.914-99.069,38.538-6.49-1.56-12.793-3.8-19.193-5.7-13.165-3.891-26.87-6.3-40.591-5.81s-27.479,3.975-39.152,11.2" transform="translate(-272.993 392.367)" fill="none" stroke="#000" stroke-miterlimit="10" stroke-width="1" stroke-dasharray="1.283 1.924 1.283 1.924"/>
                <path id="Trazado_729816" data-name="Trazado 729816" d="M598.814-123.147C582.253-125.3,566-130.959,552.431-140.7s-24.32-23.683-29.034-39.7c-4.03-13.7-3.92-29.175-12.426-40.644-7.3-9.841-20.207-14.779-32.409-13.656s-23.517,7.831-31.5,17.129c-7.418,8.64-12.155,19.365-19.858,27.754a52.6,52.6,0,0,1-50.957,14.986" transform="translate(-174.949 541.928)" fill="none" stroke="#000" stroke-miterlimit="10" stroke-width="1" stroke-dasharray="1.283 1.924 1.283 1.924"/>
                <path id="Trazado_729817" data-name="Trazado 729817" d="M403.572-209.2c13.306,10.091,27.276,21.063,32.912,36.782,2.663,7.426,3.25,15.432,3.277,23.322.086,24.669-5.695,50.475-22.1,68.9-6.4,7.18-14.436,13.35-18.076,22.254-2.712,6.634-2.64,14.054-2.043,21.2.858,10.27,2.94,20.965,9.5,28.913C413.917.506,424.7,4.61,432.463,12.127c13.45,13.019,15.081,36.388,3.572,51.15" transform="translate(-155.054 566.293)" fill="none" stroke="#000" stroke-miterlimit="10" stroke-width="1" stroke-dasharray="1.283 1.924 1.283 1.924"/>
                <path id="Trazado_729818" data-name="Trazado 729818" d="M449.858-233.97A59.085,59.085,0,0,1,417.667-250.8c-8.73-8.931-14.46-20.49-23.439-29.169-14.6-14.115-36.725-18.9-56.648-14.963s-37.677,15.766-51.5,30.639" transform="translate(-260.568 483.625)" fill="none" stroke="#000" stroke-miterlimit="10" stroke-width="1" stroke-dasharray="1.283 1.924 1.283 1.924"/>
                <path id="Trazado_729819" data-name="Trazado 729819" d="M409.713-295.99c6.552,5.367,16.561,3.585,23.784-.838s12.9-11.013,20.024-15.6a44.134,44.134,0,0,1,33.984-5.693c19.222,4.714,34.031,22.094,53.688,24.4,7.58.891,15.257-.593,22.548-2.85,12.528-3.876,24.695-10.368,32.661-20.784" transform="translate(-143.173 461.706)" fill="none" stroke="#000" stroke-miterlimit="10" stroke-width="1" stroke-dasharray="1.283 1.924 1.283 1.924"/>
                <path id="Trazado_729820" data-name="Trazado 729820" d="M461.675-193.861c-7.1,16.214-8.676,35.741-.16,51.257,2.053,3.739,4.632,7.163,6.823,10.822a93,93,0,0,1,5.7,11.572c5.04,11.886,8.974,25.239,5.127,37.564-3.675,11.775-14.005,20.957-16.039,33.124-2.123,12.7,5.3,24.831,12.411,35.571" transform="translate(-99.485 580.855)" fill="none" stroke="#000" stroke-miterlimit="10" stroke-width="1" stroke-dasharray="1.283 1.924 1.283 1.924"/>
                <path id="Trazado_729821" data-name="Trazado 729821" d="M379.546-182.112c8.59,25.913,3.084,56.037-14.115,77.238-4.6,5.677-9.948,10.707-14.914,16.074-12.816,13.848-23.244,30.245-28.18,48.454s-4.051,38.328,4.476,55.158" transform="translate(-229 592.011)" fill="none" stroke="#000" stroke-miterlimit="10" stroke-width="1" stroke-dasharray="1.283 1.924 1.283 1.924"/>
              </g>
              <path id="Trazado_729822" data-name="Trazado 729822" d="M451.241-353.19c-19.671,17.335-29.266,47.882-16.643,70.862,10.527,19.166,35.632,32.078,37.4,55.907.405,5.465-.521,11.255-3.845,15.612-5.716,7.494-17.232,9.34-21.7,17.639-2.965,5.513-1.895,12.3-3.564,18.333-1.909,6.9-7.348,12.387-13.578,15.9-15.084,8.508-31.167,12.027-43.014,26.083-8.252,9.793-12.266,24.32-6.277,35.639,4.055,7.666,12.214,13.251,13.8,21.776.524,2.817.265,5.761,1.027,8.523,1.78,6.455,9.058,10.329,15.731,9.769s12.6-4.685,17.019-9.714,7.628-10.984,11.264-16.608c11.984-18.534,24.092-34.366,47.576-34.462a44.2,44.2,0,0,1,13.547,1.653c16.281,5.164,28.143,31.066,30.009,46.8.372,3.135.127,6.311.343,9.461,1.105,16.074,15.429,29.822,31.462,31.432s32.241-8.233,39.341-22.7c3.453-7.036,4.938-14.9,8.326-21.965,4.053-8.449,10.74-15.569,13.8-24.428,1.255-3.646,1.864-7.5,3.318-11.073,3.121-7.662,9.769-13.23,16.2-18.435,9.446-7.646,19.16-15.446,25.387-25.882,8.937-14.974,9.551-33.5,7.416-50.811s-6.757-34.327-7.392-51.754c-1.047-28.662,8.5-58.862-2.837-85.206-10.939-25.41-47.093-50.378-75.525-47.175-11.664,1.314-22.2,7.545-34.012,8.964-18.291,2.2-36.692.368-54.938,3.681C482.87-372.1,465.124-365.423,451.241-353.19Z" transform="translate(-174.09 396.241)" fill="none" stroke="#000" stroke-miterlimit="10" stroke-width="1"/>
              <path id="Trazado_729823" data-name="Trazado 729823" d="M322.815-99.883c-15.612,13.7-23.56,33-25.465,53.786-1.768,19.291-8.1,41.229,1.632,59.589,10.2,19.248,33.567,26.054,54.655,27.414,22.154,1.427,44.342-1.094,66.46-3.037,38.152-3.349,76.656-4.973,114.652-.066C568.493,42.16,602.68,51.635,636,44.556c12.434-2.642,25.471-8.549,31.052-20.406,2.454-5.215,3.215-11.089,3.942-16.846,3.862-30.551,12.181-63.923-11.764-88.343-11.4-11.629-26.9-17.55-40.973-25.4S590.267-125.784,587-142.041c-3.821-18.994,8-39.256,1.953-57.616a29.852,29.852,0,0,0-19.54-19.168,28.464,28.464,0,0,0-26.248,5.919c-9.742,8.506-13.565,23.176-24.315,30.249-13.191,8.679-32.635,3.078-44.17,14.017-8.073,7.658-8.935,20.413-14.076,30.442-4.529,8.831-12.335,15.364-20.57,20.538-7.453,4.685-15.7,8.533-24.4,8.816-10.375.335-20.2-4.381-30.323-6.792C363.648-120.8,339.8-114.787,322.815-99.883Z" transform="translate(-253.34 556.149)" fill="none" stroke="#000" stroke-miterlimit="10" stroke-width="1"/>
              <path id="Trazado_729824" data-name="Trazado 729824" d="M482.4-330.238c-1.971,14.637,4.328,29.1,11.816,41.835s16.423,24.907,20.61,39.071,2.443,31.368-8.814,40.928c-10.056,8.541-25.311,9.208-34.721,18.454-12.791,12.567-11.023,37.232-27.108,45.159-3.839,1.891-8.262,2.486-11.916,4.716a21.853,21.853,0,0,0-7.3,8.147,39.171,39.171,0,0,0,1.788,40.486c5.139,7.484,12.828,13,17.6,20.72,8.824,14.269,5.346,34.187-6.147,46.411S408.73-7.226,392.086-9.357c-16.893-2.162-34.283-10.742-50.128-4.5-2.924,1.152-5.788,2.811-8.929,2.792-2.692-.018-5.209-1.281-7.515-2.669a60.994,60.994,0,0,1-28.908-53.15c.563-17.2,8.426-33.163,13.76-49.522a173.911,173.911,0,0,0,.279-106.1c-6.318-19.737-16.123-38.142-24.3-57.185C279.9-294.7,274.4-310.446,273.838-326.771s4.41-33.446,16.284-44.662c17.446-16.477,44.615-16.495,68.226-12.2s47.613,11.876,71.121,7.049c12.489-2.566,24-8.516,36.162-12.341s25.991-5.34,37.207.725c11.6,6.272,13.886,19.293,3.774,27.418C494.984-351.443,484.7-347.314,482.4-330.238Z" transform="translate(-272.231 392.449)" fill="none" stroke="#000" stroke-miterlimit="10" stroke-width="1"/>
              <path id="Trazado_729825" data-name="Trazado 729825" d="M600.6-375.907c-16.181-2.164-32.317,3.137-48.549,4.874-28.227,3.02-59.244-4.24-83.473,10.555-20,12.214-29.6,39.114-21.85,61.231,5.31,15.158,17.267,26.929,25.3,40.835s11.309,33.349.033,44.786c-5.383,5.461-13.473,8.383-17.052,15.165-3.353,6.353-1.692,14.167-3.46,21.129-3.568,14.044-19.236,20.651-32.832,25.664s-29.069,12.892-30.945,27.262a29.411,29.411,0,0,0,1.528,12.637c1.162,3.65,2.9,7.365,6.094,9.471,4.911,3.23,11.748,1.542,16.37-2.09s7.691-8.826,11.245-13.508c11.865-15.629,30.709-26.247,50.331-26.422s39.384,10.878,47.943,28.535c6.952,14.341,7.408,33.043,20.26,42.467,11.9,8.728,29.988,4.32,39.767-6.732,13.968-15.785,13.346-40.02,24.876-57.663,11.978-18.333,35.9-27.773,43.8-48.2,9.449-24.414-8.58-50.68-9.048-76.854-.255-14.228,4.733-27.974,6.878-42.042C652.777-337.308,635.5-371.24,600.6-375.907Z" transform="translate(-164.172 407.511)" fill="none" stroke="#000" stroke-miterlimit="10" stroke-width="1"/>
              <path id="Trazado_729826" data-name="Trazado 729826" d="M376.979-374.47c-10.57-2.32-21.109-5.209-31.924-5.617a70.714,70.714,0,0,0-39.065,10.136c-9.057,5.5-17.164,13.617-19.669,23.911-3.88,15.935,6.231,31.46,14.352,45.707,31.888,55.94,37.817,126,15.781,186.5-3.835,10.527-8.523,21.037-8.987,32.232s4.542,23.552,14.922,27.779c8.675,3.531,18.474.628,27.841.659,12.192.039,23.8,5.123,35.912,6.547s26.617-2.511,30.906-13.924c3.932-10.465-2.571-21.938-10.208-30.1s-16.988-15.5-20.585-26.087a28.872,28.872,0,0,1,8.911-30.892c6.1-4.946,13.99-7.149,20.4-11.676a33.946,33.946,0,0,0,13.965-23.593c1.277-11.264-2.887-23.96,3.6-33.255,9.313-13.346,33.029-8.7,42.272-22.1,4.038-5.852,3.973-13.74,1.8-20.509s-6.2-12.76-9.767-18.908c-7.172-12.35-12.727-25.9-14.021-40.123a59.66,59.66,0,0,1,9.278-38.129c5.8-9.126,9.461-16.99-2.887-23.316-12.13-6.213-23.309,3.85-34.93,6.665C409.16-368.756,392.542-371.054,376.979-374.47Z" transform="translate(-261.149 402.952)" fill="none" stroke="#000" stroke-miterlimit="10" stroke-width="1"/>
              <path id="Trazado_729827" data-name="Trazado 729827" d="M601.846-93.979c-16.29-7.34-34.316-15.317-42-31.965-9.017-19.527-.121-42.465-.045-64.128.016-4.671-.534-9.707-3.523-13.191-6.5-7.574-18.926-2.437-25.289,5.258s-10.857,17.865-19.776,21.985c-13.584,6.274-33.068-3.65-42.517,8.286-5.357,6.767-3.739,16.665-4.973,25.336-2.429,17.049-17.041,30.188-33.019,34.745s-33.031,1.985-49.085-2.265c-10.025-2.653-20.275-5.979-30.512-4.441-21.876,3.287-35.357,27.57-38.219,50.37-1.612,12.843-.862,26.268,4.1,38.145s14.526,22.026,26.5,25.57c7.153,2.117,14.738,1.84,22.158,1.332,26.746-1.835,53.374-6.476,80.171-5.829,32.358.784,64.036,9.249,96.1,13.869,19.766,2.846,40.252,4.18,59.371-1.766s36.778-20.408,42.279-40.361C651.953-63.468,625.141-83.484,601.846-93.979Z" transform="translate(-235.841 568.399)" fill="none" stroke="#000" stroke-miterlimit="10" stroke-width="1"/>
              <path id="Trazado_729828" data-name="Trazado 729828" d="M363.122-370.2c-11.738-2.406-23.823-4.4-35.659-2.53s-23.541,8.246-29.028,18.9c-7.3,14.171-1.985,31.575,5.769,45.5s18.016,27,21.076,42.65c1.546,7.9,1.287,16.066,3.092,23.919,1.48,6.437,3.852,10.884,3.137,17.7-1.634,15.538,4.312,32.473,17.407,41s33.23,5.81,41.309-7.562c8.543-14.138,2.486-34.863,13.935-46.771,10.906-11.342,36.043-6.424,37.682-27.192.731-9.291-6.433-17.029-12.079-24.445-6.1-8.02-10.972-17.249-12.36-27.233-1.332-9.586.871-19.716,7.135-27.233,5.564-6.675,12.744-12.07,3.883-20.135-7.8-7.1-18.435-2.045-27.633-1.622C388.026-364.667,375.535-367.659,363.122-370.2Z" transform="translate(-252.132 410.309)" fill="none" stroke="#000" stroke-miterlimit="10" stroke-width="1"/>
              <path id="Trazado_729829" data-name="Trazado 729829" d="M399.066-340.8c5.1-6.472,9.017-14.111-.994-18.758-11.533-5.353-26.945-.554-39.295-2.357-10.923-1.595-21.618-6.424-32.563-4.991-11.812,1.546-22.3,11.453-23.589,23.3-.766,7.04,1.486,14.06,4.312,20.552,5.652,12.98,13.662,24.782,20.17,37.357s11.588,26.442,10.64,40.568c-.409,6.1-1.938,12.1-2.258,18.2s.754,12.651,4.817,17.222a16.306,16.306,0,0,0,19.651,3.223c7.722-4.41,10.278-14.161,11.787-22.924s3.184-18.466,10.165-23.973c5.453-4.3,12.82-4.93,19.5-6.821s13.793-6.389,14.263-13.315c.45-6.669-5.336-11.834-9.9-16.719C399.452-297,394.619-305.368,393.03-314.5S393.331-333.521,399.066-340.8Z" transform="translate(-245 416.296)" fill="none" stroke="#000" stroke-miterlimit="10" stroke-width="1"/>
              <path id="Trazado_729830" data-name="Trazado 729830" d="M334.623-359.4c-5.9-1.429-12.5-3.135-17.727-.039-6.371,3.778-7.211,13.033-4.4,19.885s8.243,12.233,12.381,18.376c9.056,13.434,11.685,30.124,12.9,46.28q1.12,14.937.883,29.935c-.035,2.193-.049,4.536,1.15,6.369,2.111,3.223,7.237,3.191,10.216.751s4.18-6.451,4.6-10.278.216-7.742,1.113-11.487A20.478,20.478,0,0,1,370.892-274.5c6.533-1.441,14.713-.125,18.688-5.505,3.154-4.271,1.46-10.518-1.8-14.709s-7.818-7.211-11.171-11.329a26.564,26.564,0,0,1-5.264-21.23c1.15-6.355,8.718-13.023,6.55-19.5C373.8-359.023,344.513-357.005,334.623-359.4Z" transform="translate(-236.936 421.983)" fill="none" stroke="#000" stroke-miterlimit="10" stroke-width="1"/>
              <path id="Trazado_729831" data-name="Trazado 729831" d="M355.471-335.559c1.333-1.95,3.148-3.653,3.827-5.915,1.047-3.494-1.076-7.34-4.139-9.323s-6.839-2.478-10.483-2.661-7.356-.107-10.855-1.14c-1.62-.478-3.176-1.189-4.837-1.509a9.9,9.9,0,0,0-9.7,3.636,8.53,8.53,0,0,0,.131,10.159c3.049,3.694,8.664,3.811,12.7,6.392a11.859,11.859,0,0,1,5.324,10.557c-.271,4.041-2.638,7.808-2.414,11.853.6,10.882,15.312,11.138,18.922,1.885C357.029-319.53,349.9-327.408,355.471-335.559Z" transform="translate(-230.573 426.631)" fill="none" stroke="#000" stroke-miterlimit="10" stroke-width="1"/>
              <path id="Trazado_729832" data-name="Trazado 729832" d="M344.43-328.106c-1.743.626-3.293,1.716-5.045,2.316-2.156.739-4.652.76-6.41,2.211-1.852,1.527-2.3,4.172-2.293,6.57s.314,4.88-.509,7.133c-.468,1.283-1.3,2.5-1.248,3.862.076,1.973,2.154,3.457,4.127,3.371a6.784,6.784,0,0,0,4.9-2.969,29.954,29.954,0,0,0,2.751-5.236,7.734,7.734,0,0,1,2.256-3.119,6.8,6.8,0,0,1,3.638-1.053c5.525-.294,16.421,5.094,16.111-5.227C362.463-328.48,350.475-330.276,344.43-328.106Z" transform="translate(-219.886 452.582)" fill="none" stroke="#000" stroke-miterlimit="10" stroke-width="1"/>
              <path id="Trazado_729833" data-name="Trazado 729833" d="M355.18-256.5c1.2,6.428-2.014,12.73-4.162,18.9-4.628,13.306-3.464,30.2,7.72,38.759,3.08,2.359,6.708,3.924,9.783,6.287s5.675,5.921,5.347,9.785a10.166,10.166,0,0,1-3.236,6.254c-5.258,5.118-13.538,5.451-20.764,4.18s-14.358-3.827-21.681-3.353c-3.1.2-6.186.947-9.276.639-6.359-.634-11.691-5.915-13.407-12.072s-.211-12.9,3.022-18.411c2.778-4.737,6.765-8.724,9.178-13.658,6.693-13.686-2.762-31.274,5.248-44.1C330.536-275.425,352.625-270.245,355.18-256.5Z" transform="translate(-242.804 508.459)" fill="none" stroke="#000" stroke-miterlimit="10" stroke-width="1"/>
              <path id="Trazado_729834" data-name="Trazado 729834" d="M317.844-234.932a2.31,2.31,0,0,0,.5,1.813,2.248,2.248,0,0,0,1.7.446c7.845-.446,10.011-13.251,13.233-18.5,3.184-5.182,3.558-8.229-2.762-11.442-3.882-1.973-10.163-2.821-12.321,1.879-1.959,4.268,2.741,9.112,2.913,13.313C321.291-242.976,318.053-239.309,317.844-234.932Z" transform="translate(-230.523 514.077)" fill="none" stroke="#000" stroke-miterlimit="10" stroke-width="1"/>
              <path id="Trazado_729835" data-name="Trazado 729835" d="M330.149-233.574a16.331,16.331,0,0,0-2.349-6.2c-1.332-1.788-3.735-2.989-5.825-2.217-2.168.8-3.17,3.3-3.527,5.58s-.353,4.72-1.532,6.706c-1.406,2.369-4.349,3.829-4.9,6.527-.651,3.182,2.56,5.942,5.73,6.648,5.893,1.31,10.658.9,16.275,3.2,2.158.881,16.23,6.792,17.587,1.747.632-2.355-.577-4.9-2.392-6.525C341.889-224.678,333-221.376,330.149-233.574Z" transform="translate(-236.02 534.928)" fill="none" stroke="#000" stroke-miterlimit="10" stroke-width="1"/>
              <path id="Trazado_729836" data-name="Trazado 729836" d="M557.416-369.31c-18.133-.686-36.043,4.178-54.183,4.646-16.955.437-34.479-2.9-50.545,2.532C434.6-356.014,420.764-336.819,424.043-318c2.306,13.231,11.861,23.8,18.883,35.246A100.26,100.26,0,0,1,455.912-249.2c2.07,10.865,1.934,23.237-5.312,31.592-3.48,4.012-7.878,7.186-11.721,10.824a16.3,16.3,0,0,0-3.634,4.351c-3.271,6.584,3.072,15.2-.593,21.574-1.392,2.419-3.94,3.891-6.346,5.307-4.544,2.675-10.026,8.872-6.09,14.368,4.494,6.27,17.008,1.872,22.874.9,19.918-3.3,41.377,6.858,51.454,24.352,3.349,5.815,5.5,12.253,8.742,18.129s7.921,11.4,14.3,13.489c8.978,2.936,19.031-1.877,25.034-9.171s8.837-16.612,11.527-25.666,5.517-18.376,11.512-25.675c11.329-13.8,32.542-18.692,39.6-35.09,3.443-8,2.638-17.234.257-25.611s-6.237-16.263-8.876-24.562a73.412,73.412,0,0,1-3.16-32.222c2.616-18.756,15.4-41.313,8.231-60.48C597.185-360.268,574.371-368.668,557.416-369.31Z" transform="translate(-132.582 414.198)" fill="none" stroke="#000" stroke-miterlimit="10" stroke-width="1"/>
              <path id="Trazado_729837" data-name="Trazado 729837" d="M401.426-246.329c-2.183,1.725-4.322,3.681-5.4,6.246s-.809,5.882,1.3,7.693c2.041,1.753,5.211,1.6,7.584.333s4.112-3.437,5.72-5.593c2.983-4,5.882-8.42,9.814-11.57,2.285-1.833,9.941-3.885,9.666-6.336C429.1-264.575,404.212-248.532,401.426-246.329Z" transform="translate(-156.754 519.682)" fill="none" stroke="#000" stroke-miterlimit="10" stroke-width="1"/>
              <path id="Trazado_729838" data-name="Trazado 729838" d="M577.389-281.769c1.975-9.944,6.038-19.347,8.656-29.143s3.71-20.509-.2-29.863c-5.121-12.255-18.049-19.835-31.136-22.1s-26.49-.086-39.577,2.176-26.434,4.615-39.573,2.675c-7.763-1.144-15.487-3.78-23.27-2.79-12.237,1.558-22.338,13.216-22.135,25.551.164,9.935,6.079,18.834,12.645,26.289s14.1,14.274,18.745,23.059c4.242,8.026,5.776,17.168,7.108,26.147,1.059,7.135,2.027,14.391,1.057,21.54s-4.123,14.29-9.908,18.6c-3.644,2.714-8.073,4.147-11.98,6.467s-7.515,6.048-7.623,10.59c-.133,5.726,5.075,12.157,1.293,16.458-2.26,2.569-7.412,4.11-6.1,7.27a4.323,4.323,0,0,0,2.7,2.086c10.165,3.728,21.94-2.185,32.152,1.406,4.72,1.659,8.553,5.2,11.689,9.1,6.508,8.087,10.557,17.951,17.244,25.892s17.637,13.888,27.33,10.177c5.819-2.228,9.97-7.512,12.682-13.122,4.25-8.789,5.619-18.638,8.046-28.093s6.313-19.117,14.048-25.071c11.619-8.941,33.778-13.477,26.223-32.651C580.379-247.214,573.343-261.381,577.389-281.769Z" transform="translate(-123.768 419.459)" fill="none" stroke="#000" stroke-miterlimit="10" stroke-width="1"/>
              <path id="Trazado_729839" data-name="Trazado 729839" d="M514.343-354.893c-12.075,2.751-24.449,6.077-36.675,4.1-6.58-1.066-12.875-3.648-19.507-4.318s-14.169,1.111-17.745,6.736c-3.536,5.56-2.012,13.109,1.585,18.63s8.929,9.633,13.614,14.265c16.758,16.567,25.33,40.293,26.323,63.839.287,6.835-.07,13.912-3,20.1-3.651,7.718-10.99,13.206-18.926,16.351-5.808,2.3-13.349,5.158-13.284,11.4.059,5.5,6.47,8.673,11.96,8.937s11.276-1.01,16.321,1.176c9.247,4.008,10.545,16.668,17.361,24.092,6.691,7.287,19.191,8.19,26.859,1.94,7.494-6.11,9.408-16.552,11.379-26.018,1.513-7.26,4.23-18.979,11.58-22.78,7.471-3.864,17.154-.782,21.956-10.058,3.634-7.022-.1-15.386-3.037-22.73-5.63-14.087-9-31.838-3.462-46.518,2.236-5.929,7.506-10.553,10.366-16.436,3.65-7.512,5.9-15.893,2.607-23.964C560.91-359.959,535.593-359.733,514.343-354.893Z" transform="translate(-115.923 425.487)" fill="none" stroke="#000" stroke-miterlimit="10" stroke-width="1"/>
              <path id="Trazado_729840" data-name="Trazado 729840" d="M509.169-296.947a14.725,14.725,0,0,1,1.823-2.172c4.8-4.691,12.19-5.205,18.265-8.057,11.1-5.213,18.782-18.46,16.2-30.688a19.116,19.116,0,0,0-9.746-13.079c-5.194-2.544-11.362-.193-16.555,1.511-11.2,3.673-22.082,9.178-33.858,9.672a47.39,47.39,0,0,1-14.516-1.677c-4.061-1.127-7.835-3.466-12.179-3.283a9.444,9.444,0,0,0-7.488,3.841c-4.431,6.652,4.1,12.29,8.824,15.191,9.149,5.617,17.46,13.955,19.388,24.515.889,4.87.365,9.868.208,14.816-.244,7.71.585,17.91,10.108,19.571,4.6.8,9.126-2.406,11.491-6.435s3.1-8.775,4.092-13.343C506.018-290.2,507.083-293.927,509.169-296.947Z" transform="translate(-105.037 430.636)" fill="none" stroke="#000" stroke-miterlimit="10" stroke-width="1"/>
              <path id="Trazado_729841" data-name="Trazado 729841" d="M526.909-285.159c1.911,5.9,3.989,12.684.758,17.979-2.917,4.778-8.983,6.338-13.7,9.36a23.4,23.4,0,0,0-9.812,13.29c-1.246,4.472-1.123,9.227-2.232,13.736s-3.981,9.1-8.516,10.1c-4.459.983-8.855-1.8-12.222-4.887s-6.531-6.734-10.888-8.106c-3.308-1.043-7.2-.733-9.859-2.963-2.979-2.5-2.994-7.272-1.2-10.722s4.948-5.94,7.855-8.523,5.771-5.568,6.625-9.362c.944-4.2-.719-8.818.949-12.783,2.316-5.5,9.4-6.7,15.327-7.451a10.726,10.726,0,0,0,5.2-1.634,8.878,8.878,0,0,0,2.3-2.885c5.258-9.5,3.843-22.835,12.344-29.584,7.371-5.852,13.007,2.757,13.36,9.6C523.651-301.213,524.142-293.71,526.909-285.159Z" transform="translate(-97.3 459.625)" fill="none" stroke="#000" stroke-miterlimit="10" stroke-width="1"/>
              <path id="Trazado_729842" data-name="Trazado 729842" d="M501.336-312.685a47.9,47.9,0,0,0,13.7-5.89,27.334,27.334,0,0,0,9.525-9.323,20.448,20.448,0,0,0,2.421-12.615c-.7-4.757-3.919-7.092-8.66-7.646-5.825-.68-11.59,1.517-16.861,4.084s-10.444,5.584-16.2,6.726c-5.193,1.029-10.549.47-15.842.372-2.61-.047-5.9.513-6.574,3.035-.764,2.854,2.987,5.765,4.784,7.615,2.657,2.737,5.626,4.87,7.89,8.022,1.694,2.361,3.109,5.135,2.891,8.032-.2,2.675-1.755,5.04-2.486,7.619a9.2,9.2,0,0,0,.552,6.932,5.969,5.969,0,0,0,5.924,3.123,6.551,6.551,0,0,0,4.747-4.445c1.31-3.685-.1-8.03,2.513-11.288,2.121-2.638,5.856-3.131,9.176-3.79Q500.1-312.369,501.336-312.685Z" transform="translate(-92.814 434.225)" fill="none" stroke="#000" stroke-miterlimit="10" stroke-width="1"/>
              <path id="Trazado_729843" data-name="Trazado 729843" d="M503.043-344.6c-3.349-.168-6.463,1.612-9.256,3.466s-5.632,3.9-8.95,4.394a40.732,40.732,0,0,0-4.205.478,6.975,6.975,0,0,0-4.854,4.652,6.971,6.971,0,0,0,1.468,6.56c1.92,2.131,4.965,2.844,7.831,2.975a26.942,26.942,0,0,0,19.374-7.278c2.184-2.049,5.441-5.385,5.515-8.586C510.043-341.353,506.25-344.438,503.043-344.6Z" transform="translate(-80.71 437.717)" fill="none" stroke="#000" stroke-miterlimit="10" stroke-width="1"/>
              <path id="Trazado_729844" data-name="Trazado 729844" d="M474.366-316.594a4.065,4.065,0,0,0-1.94-.485,4.292,4.292,0,0,0-2.907,1.556,6.792,6.792,0,0,0-1.616,6.1c1.076,4.192,6.744,5.829,9.565,2.238C479.723-310.053,477.271-315.147,474.366-316.594Z" transform="translate(-88.096 463.853)" fill="none" stroke="#000" stroke-miterlimit="10" stroke-width="1"/>
              <path id="Trazado_729845" data-name="Trazado 729845" d="M508.874-295.652c.043,4.8,3.747,9.432,2.3,14-1.361,4.293-6.373,5.946-10.235,8.26a22.84,22.84,0,0,0-10.646,15.649c-.579,3.5-.522,7.552-3.174,9.915-1.817,1.62-4.418,1.938-6.847,2.105a21.9,21.9,0,0,1-8.683-.676c-2.762-.955-5.268-3.162-5.792-6.038-.624-3.421,1.589-6.675,3.86-9.309s4.854-5.387,5.184-8.851c.3-3.184-1.394-6.461-.423-9.508,1.045-3.279,4.718-4.888,8.079-5.628s7.03-1.109,9.631-3.363c2.468-2.135,3.425-5.529,3.811-8.769.61-5.115.388-15.832,8.26-14.97C512.578-311.915,508.827-300.8,508.874-295.652Z" transform="translate(-90.025 467.84)" fill="none" stroke="#000" stroke-miterlimit="10" stroke-width="1"/>
              <path id="Trazado_729846" data-name="Trazado 729846" d="M482.689-285.75c-.912,1.948-.854,4.188-.94,6.338A16.791,16.791,0,0,1,480-271.846a7.684,7.684,0,0,1-6.221,4.164,4.266,4.266,0,0,1-2.3-.55c-2.039-1.228-2.168-4.186-1.425-6.449a13.259,13.259,0,0,1,3.357-5.373,14.262,14.262,0,0,0,3.043-3.252c.735-1.392.715-3.041,1.025-4.583a10.715,10.715,0,0,1,3.85-6.254c2.08-1.632,7.211-2.488,7.028,1.546C488.247-290.053,483.781-288.082,482.689-285.75Z" transform="translate(-86.268 484.343)" fill="none" stroke="#000" stroke-miterlimit="10" stroke-width="1"/>
              <path id="Trazado_729847" data-name="Trazado 729847" d="M571.24-97.19c-11.775-5.211-23.3-12.931-29.027-24.837-9.457-19.659-.378-42.987.372-64.958a11.552,11.552,0,0,0-.946-6c-2.371-4.3-8.874-3.747-12.489-.521s-5.394,8.085-8.018,12.22a31.253,31.253,0,0,1-20.515,13.972c-6.359,1.148-13.424.361-18.717,4.2-6.769,4.909-7.428,14.779-9.557,23.073-3.878,15.1-14.678,27.757-27.929,35.115s-28.746,9.7-43.708,8.338c-20.991-1.9-42.161-10.74-62.531-5.143-6.141,1.686-12.167,4.86-15.892,10.212-4.149,5.964-4.9,13.731-5.042,21.09-.181,9.122.6,18.969,6.225,25.97,5.89,7.328,15.625,9.74,24.728,10.993,29.58,4.076,59.562.462,89.384-.528A507.555,507.555,0,0,1,508.3-31.411c25.605,2.731,51.169,7.42,76.889,6.391,16.435-.657,51.581-10.13,43.792-34.941C621.668-83.243,589.829-88.963,571.24-97.19Z" transform="translate(-231 578.757)" fill="none" stroke="#000" stroke-miterlimit="10" stroke-width="1"/>
              <path id="Trazado_729848" data-name="Trazado 729848" d="M545.263-103c-13.859-8.12-25.977-21.854-27.174-38.355-.595-8.186,1.524-16.314,4.059-24.086,1.4-4.3,2.772-9.564-.138-12.943-3.034-3.519-8.72-2.357-12.436.365s-6.613,6.679-10.738,8.66c-3.934,1.889-8.73,1.844-12.112,4.659-5.519,4.591-4.121,13.458-5.5,20.667-3.93,20.546-31.961,33.6-48.881,39.852a119.636,119.636,0,0,1-66.491,5.018c-6.617-1.435-13.206-3.449-19.965-3.41s-13.947,2.536-17.778,8.33c-5.1,7.712-2.416,18.93,3.958,25.541,9.253,9.6,22.227,10.722,34.368,11.931,15.378,1.53,29.711.47,45.1-.858,21.38-1.844,42.5.926,63.7.6,21.665-.333,44.966-.669,66.327,3.39,12.473,2.369,24.86,6.808,37.5,5.7C593.3-49.18,615.452-65.9,599.29-80.464c-6.691-6.028-17.273-7.851-25.467-10.592C564.047-94.325,554.246-97.735,545.263-103Z" transform="translate(-223.197 593.47)" fill="none" stroke="#000" stroke-miterlimit="10" stroke-width="1"/>
              <path id="Trazado_729849" data-name="Trazado 729849" d="M523.515-81.906c-1.2-2.018-3.3-3.3-5.4-4.347-13.163-6.568-28.676-6.9-42.118-12.875-20.384-9.069-33.76-31.861-31.738-54.08.277-3.03.809-6.1.275-9.095s-2.435-5.995-5.381-6.759c-4.234-1.1-8.293,2.961-9.278,7.223s.043,8.7.179,13.07a32.28,32.28,0,0,1-8.219,22.388c-5.168,5.718-12.2,9.366-18.074,14.358s-10.824,12.381-9.371,19.951c1.191,6.217,6.476,10.935,12.222,13.594,10.442,4.833,22.447,4.258,33.953,4.384a252.368,252.368,0,0,1,54.1,6.535c6.3,1.456,11.362,3.217,17.7,1.369C518.475-67.971,528.055-74.236,523.515-81.906Z" transform="translate(-157.968 604.23)" fill="none" stroke="#000" stroke-miterlimit="10" stroke-width="1"/>
              <path id="Trazado_729850" data-name="Trazado 729850" d="M439.533-126.661c-6.281-5.422-15.265-6.57-23.517-5.706s-16.232,3.47-24.451,4.622a70.235,70.235,0,0,1-28.607-1.924c-5.233-1.468-10.506-3.57-15.91-3s-10.913,5.094-10.169,10.477c.612,4.41,4.9,7.25,8.905,9.2a92.178,92.178,0,0,0,44.325,9.163c10.208-.466,20.766-2.589,30.417.772,7.344,2.558,17.07,6.812,23.077-1.072C448.5-110.56,445.106-121.849,439.533-126.661Z" transform="translate(-212.397 638.869)" fill="none" stroke="#000" stroke-miterlimit="10" stroke-width="1"/>
              <path id="Trazado_729851" data-name="Trazado 729851" d="M443.455-125.187c-2.146-3.267-3.579-7.016-6.143-9.968a16.845,16.845,0,0,0-14.366-5.6,16.844,16.844,0,0,0-12.75,8.672,12.594,12.594,0,0,1-1.862,3.047c-1.458,1.486-3.948,2.014-4.716,3.948-.712,1.79.52,3.792,2.033,4.987,3.768,2.973,9.026,3.018,13.8,2.562s9.769-1.252,14.255.458c2.624,1,4.86,2.79,7.326,4.137a23.874,23.874,0,0,0,14.1,2.735c1.624-.191,3.417-.682,4.221-2.105C461.976-116.939,446.007-121.308,443.455-125.187Z" transform="translate(-149.156 631.188)" fill="none" stroke="#000" stroke-miterlimit="10" stroke-width="1"/>
              <path id="Trazado_729852" data-name="Trazado 729852" d="M374.622-123.794a6.638,6.638,0,0,0-2.809,3.252c-1.025,3.164,1.959,6.238,5,7.6,5.412,2.415,31.175,4.168,26.991-7.593C400.657-129.378,380.4-127.678,374.622-123.794Z" transform="translate(-179.356 644.383)" fill="none" stroke="#000" stroke-miterlimit="10" stroke-width="1"/>
            </g>
            <g id="Grupo_1015130" data-name="Grupo 1015130" transform="translate(893.616)" opacity="0.25">
              <g id="Grupo_1015129" data-name="Grupo 1015129">
                <path id="Trazado_729853" data-name="Trazado 729853" d="M1041.534-394.436c-30.888,5.383-56.109,30.485-66.91,59.919-2.979,8.12-5.02,16.7-4.74,25.346.583,17.866,10.787,33.725,18.714,49.744,5.055,10.214,9.249,21.445,9.488,32.965.09,4.4.006,10.736-2.22,14.694-2.293,4.076-7.34,5.067-10.812,7.831-8.264,6.572-4.685,20.784-11.465,28.878-3.26,3.889-8.344,5.644-13.165,7.231-12.163,4-24.669,8.225-34.326,16.633-12.573,10.951-16.937,30.641-12.259,46.29a131.58,131.58,0,0,0,9.094,22.566c4.1,7.954,9.052,15.6,11.375,24.242,3.275,12.192.907,25.482-4.938,36.673-17.378,33.282-64.247,46.914-99.069,38.54-6.49-1.562-12.793-3.806-19.193-5.7-13.165-3.891-26.87-6.3-40.589-5.812s-27.481,3.975-39.153,11.2" transform="translate(-731.368 394.436)" fill="none" stroke="#000" stroke-miterlimit="10" stroke-width="1" stroke-dasharray="1.283 1.924 1.283 1.924"/>
                <path id="Trazado_729854" data-name="Trazado 729854" d="M1057.188-125.216c-16.561-2.15-32.816-7.812-46.383-17.548s-24.32-23.683-29.034-39.7c-4.03-13.7-3.918-29.175-12.424-40.644-7.3-9.841-20.209-14.779-32.409-13.656s-23.519,7.831-31.5,17.129c-7.418,8.64-12.155,19.365-19.858,27.754A52.6,52.6,0,0,1,834.622-176.9" transform="translate(-633.325 543.997)" fill="none" stroke="#000" stroke-miterlimit="10" stroke-width="1" stroke-dasharray="1.283 1.924 1.283 1.924"/>
                <path id="Trazado_729855" data-name="Trazado 729855" d="M861.946-211.266c13.305,10.091,27.278,21.063,32.912,36.782,2.663,7.426,3.25,15.432,3.277,23.322.088,24.671-5.694,50.475-22.1,68.9-6.4,7.182-14.436,13.35-18.076,22.254-2.71,6.634-2.64,14.054-2.043,21.2.858,10.27,2.94,20.965,9.5,28.915,6.878,8.334,17.659,12.438,25.424,19.955,13.45,13.019,15.082,36.388,3.574,51.15" transform="translate(-613.43 568.362)" fill="none" stroke="#000" stroke-miterlimit="10" stroke-width="1" stroke-dasharray="1.283 1.924 1.283 1.924"/>
                <path id="Trazado_729856" data-name="Trazado 729856" d="M908.234-236.039a59.078,59.078,0,0,1-32.191-16.832c-8.73-8.931-14.46-20.49-23.441-29.169-14.6-14.113-36.725-18.9-56.647-14.963s-37.677,15.766-51.5,30.639" transform="translate(-718.944 485.694)" fill="none" stroke="#000" stroke-miterlimit="10" stroke-width="1" stroke-dasharray="1.283 1.924 1.283 1.924"/>
                <path id="Trazado_729857" data-name="Trazado 729857" d="M868.087-298.059c6.552,5.367,16.561,3.585,23.786-.838s12.9-11.011,20.022-15.6a44.136,44.136,0,0,1,33.984-5.693c19.222,4.716,34.031,22.094,53.688,24.4,7.58.891,15.257-.593,22.548-2.848,12.53-3.878,24.695-10.368,32.661-20.786" transform="translate(-601.549 463.775)" fill="none" stroke="#000" stroke-miterlimit="10" stroke-width="1" stroke-dasharray="1.283 1.924 1.283 1.924"/>
                <path id="Trazado_729858" data-name="Trazado 729858" d="M920.049-195.93c-7.1,16.214-8.676,35.741-.16,51.259,2.053,3.737,4.632,7.161,6.823,10.82a93.166,93.166,0,0,1,5.7,11.572c5.04,11.888,8.974,25.239,5.127,37.564C933.867-72.94,923.537-63.758,921.5-51.591c-2.123,12.7,5.3,24.831,12.413,35.571" transform="translate(-557.861 582.924)" fill="none" stroke="#000" stroke-miterlimit="10" stroke-width="1" stroke-dasharray="1.283 1.924 1.283 1.924"/>
                <path id="Trazado_729859" data-name="Trazado 729859" d="M837.92-184.181c8.59,25.913,3.086,56.037-14.113,77.238-4.607,5.677-9.95,10.709-14.916,16.074-12.814,13.848-23.244,30.245-28.18,48.454s-4.051,38.328,4.476,55.158" transform="translate(-687.375 594.08)" fill="none" stroke="#000" stroke-miterlimit="10" stroke-width="1" stroke-dasharray="1.283 1.924 1.283 1.924"/>
              </g>
              <path id="Trazado_729860" data-name="Trazado 729860" d="M909.615-355.259c-19.671,17.335-29.264,47.882-16.643,70.863,10.528,19.166,35.632,32.078,37.4,55.9.406,5.465-.518,11.255-3.843,15.612-5.716,7.494-17.234,9.342-21.7,17.639-2.967,5.513-1.895,12.3-3.566,18.333-1.907,6.9-7.346,12.387-13.579,15.9-15.082,8.508-31.167,12.027-43.014,26.083-8.252,9.792-12.266,24.32-6.277,35.639,4.057,7.666,12.214,13.251,13.8,21.776.524,2.817.265,5.761,1.027,8.523,1.78,6.455,9.058,10.329,15.731,9.769s12.6-4.685,17.019-9.715,7.629-10.984,11.265-16.608C909.22-104.068,921.33-119.9,944.812-120a44.189,44.189,0,0,1,13.547,1.653c16.28,5.164,28.143,31.066,30.009,46.8.372,3.135.127,6.311.343,9.461,1.105,16.074,15.431,29.822,31.461,31.432s32.243-8.233,39.342-22.7c3.453-7.036,4.938-14.9,8.328-21.965,4.053-8.449,10.738-15.569,13.793-24.428,1.256-3.646,1.864-7.5,3.318-11.073,3.121-7.662,9.769-13.23,16.2-18.435,9.445-7.646,19.16-15.446,25.387-25.882,8.937-14.974,9.553-33.5,7.416-50.811s-6.757-34.327-7.393-51.754c-1.047-28.662,8.5-58.862-2.837-85.206-10.939-25.408-47.091-50.378-75.523-47.175-11.666,1.314-22.2,7.545-34.014,8.966-18.291,2.2-36.692.367-54.938,3.679C941.245-374.165,923.5-367.492,909.615-355.259Z" transform="translate(-632.466 398.31)" fill="none" stroke="#000" stroke-miterlimit="10" stroke-width="1"/>
              <path id="Trazado_729861" data-name="Trazado 729861" d="M781.189-101.952c-15.61,13.7-23.558,33-25.465,53.786-1.768,19.293-8.1,41.229,1.632,59.589,10.2,19.25,33.569,26.054,54.657,27.414,22.153,1.427,44.34-1.094,66.46-3.035,38.15-3.351,76.656-4.975,114.65-.068,33.745,4.357,67.931,13.832,101.247,6.753,12.434-2.642,25.473-8.549,31.052-20.406,2.455-5.215,3.217-11.089,3.944-16.846,3.86-30.549,12.179-63.923-11.765-88.343-11.4-11.629-26.9-17.55-40.971-25.4s-27.987-19.347-31.259-35.606c-3.821-18.994,8-39.256,1.954-57.614a29.851,29.851,0,0,0-19.54-19.17,28.46,28.46,0,0,0-26.246,5.919c-9.744,8.506-13.567,23.176-24.316,30.249-13.191,8.681-32.635,3.078-44.171,14.017-8.073,7.658-8.935,20.413-14.076,30.442-4.529,8.831-12.333,15.364-20.569,20.538-7.453,4.685-15.7,8.535-24.4,8.816-10.377.335-20.2-4.379-30.325-6.792C822.023-122.868,798.171-116.856,781.189-101.952Z" transform="translate(-711.715 558.218)" fill="none" stroke="#000" stroke-miterlimit="10" stroke-width="1"/>
              <path id="Trazado_729862" data-name="Trazado 729862" d="M940.776-332.307c-1.973,14.637,4.326,29.1,11.814,41.835s16.425,24.907,20.61,39.071,2.445,31.368-8.814,40.928c-10.056,8.541-25.311,9.208-34.721,18.454-12.791,12.567-11.021,37.232-27.108,45.159-3.839,1.891-8.262,2.486-11.913,4.716A21.841,21.841,0,0,0,883.337-134a39.172,39.172,0,0,0,1.789,40.486c5.137,7.484,12.826,13,17.6,20.72,8.825,14.269,5.346,34.187-6.147,46.411S867.1-9.295,850.46-11.426c-16.893-2.162-34.282-10.742-50.128-4.5-2.922,1.152-5.788,2.813-8.929,2.792-2.692-.018-5.209-1.281-7.515-2.669a60.993,60.993,0,0,1-28.908-53.15c.563-17.2,8.426-33.163,13.76-49.522a173.913,173.913,0,0,0,.281-106.1c-6.32-19.735-16.125-38.143-24.3-57.184-6.445-15.009-11.951-30.756-12.508-47.079s4.412-33.446,16.284-44.664c17.446-16.477,44.615-16.493,68.226-12.2s47.614,11.877,71.121,7.05c12.489-2.566,24-8.516,36.162-12.341s25.993-5.34,37.207.725c11.6,6.274,13.888,19.293,3.774,27.418C953.358-353.512,943.077-349.383,940.776-332.307Z" transform="translate(-730.607 394.518)" fill="none" stroke="#000" stroke-miterlimit="10" stroke-width="1"/>
              <path id="Trazado_729863" data-name="Trazado 729863" d="M1058.976-377.976c-16.179-2.164-32.318,3.139-48.549,4.874-28.227,3.022-59.244-4.24-83.473,10.555-20,12.214-29.6,39.113-21.85,61.231,5.311,15.158,17.267,26.931,25.305,40.835s11.309,33.349.033,44.787c-5.383,5.461-13.473,8.383-17.052,15.165-3.353,6.353-1.692,14.167-3.46,21.129-3.568,14.044-19.236,20.651-32.83,25.664s-29.072,12.892-30.947,27.262a29.434,29.434,0,0,0,1.528,12.637c1.162,3.649,2.9,7.365,6.094,9.471,4.911,3.232,11.748,1.542,16.37-2.09s7.691-8.826,11.245-13.508c11.867-15.629,30.709-26.247,50.331-26.422s39.385,10.878,47.943,28.535c6.954,14.341,7.408,33.043,20.262,42.467,11.9,8.728,29.986,4.32,39.766-6.732,13.967-15.785,13.347-40.02,24.874-57.663,11.978-18.333,35.9-27.773,43.8-48.2,9.45-24.414-8.58-50.68-9.047-76.854-.253-14.228,4.733-27.974,6.878-42.042C1111.151-339.377,1093.878-373.309,1058.976-377.976Z" transform="translate(-622.548 409.58)" fill="none" stroke="#000" stroke-miterlimit="10" stroke-width="1"/>
              <path id="Trazado_729864" data-name="Trazado 729864" d="M835.352-376.539c-10.57-2.32-21.109-5.209-31.924-5.617a70.714,70.714,0,0,0-39.065,10.136c-9.057,5.5-17.164,13.617-19.669,23.913-3.878,15.934,6.231,31.46,14.353,45.707,31.888,55.938,37.817,126,15.781,186.5-3.833,10.527-8.523,21.037-8.988,32.232s4.544,23.554,14.922,27.779c8.675,3.533,18.474.628,27.841.659,12.193.039,23.8,5.123,35.912,6.547s26.619-2.511,30.906-13.924c3.932-10.463-2.572-21.938-10.206-30.1s-16.99-15.5-20.585-26.087a28.872,28.872,0,0,1,8.911-30.892c6.094-4.946,13.988-7.149,20.4-11.676a33.956,33.956,0,0,0,13.967-23.593c1.275-11.264-2.889-23.958,3.6-33.255,9.313-13.347,33.031-8.7,42.272-22.1,4.038-5.852,3.973-13.738,1.8-20.509s-6.2-12.76-9.765-18.909c-7.172-12.35-12.726-25.9-14.023-40.123a59.65,59.65,0,0,1,9.28-38.129c5.8-9.126,9.461-16.99-2.887-23.316-12.132-6.213-23.31,3.85-34.932,6.665C867.533-370.825,850.915-373.123,835.352-376.539Z" transform="translate(-719.525 405.021)" fill="none" stroke="#000" stroke-miterlimit="10" stroke-width="1"/>
              <path id="Trazado_729865" data-name="Trazado 729865" d="M1060.22-96.048c-16.29-7.34-34.316-15.317-42-31.965-9.019-19.526-.123-42.465-.047-64.128.016-4.671-.532-9.707-3.523-13.191-6.5-7.574-18.924-2.437-25.287,5.258s-10.859,17.865-19.776,21.985c-13.584,6.274-33.07-3.648-42.519,8.287-5.357,6.765-3.739,16.663-4.973,25.334-2.427,17.049-17.041,30.188-33.017,34.745s-33.033,1.985-49.087-2.265c-10.022-2.653-20.273-5.979-30.51-4.441-21.876,3.287-35.359,27.57-38.221,50.37-1.612,12.843-.86,26.268,4.106,38.145s14.524,22.026,26.5,25.57C809.013-.226,816.6-.5,824.018-1.012c26.746-1.835,53.375-6.476,80.171-5.829,32.36.784,64.036,9.249,96.1,13.869,19.764,2.848,40.25,4.18,59.369-1.766s36.778-20.408,42.28-40.361C1110.329-65.537,1083.515-85.553,1060.22-96.048Z" transform="translate(-694.217 570.468)" fill="none" stroke="#000" stroke-miterlimit="10" stroke-width="1"/>
              <path id="Trazado_729866" data-name="Trazado 729866" d="M821.5-372.27c-11.74-2.406-23.823-4.4-35.661-2.531s-23.541,8.247-29.029,18.9c-7.3,14.171-1.985,31.575,5.769,45.5s18.016,27,21.078,42.65c1.546,7.9,1.285,16.066,3.09,23.919,1.48,6.437,3.854,10.884,3.137,17.7-1.632,15.538,4.314,32.475,17.408,41s33.23,5.812,41.308-7.56c8.543-14.14,2.486-34.865,13.935-46.773,10.906-11.342,36.043-6.424,37.682-27.192.733-9.292-6.433-17.029-12.077-24.445-6.106-8.02-10.972-17.249-12.36-27.233-1.334-9.586.87-19.716,7.133-27.233,5.564-6.675,12.746-12.069,3.884-20.135-7.8-7.1-18.435-2.043-27.631-1.622C846.4-366.736,833.911-369.728,821.5-372.27Z" transform="translate(-710.508 412.378)" fill="none" stroke="#000" stroke-miterlimit="10" stroke-width="1"/>
              <path id="Trazado_729867" data-name="Trazado 729867" d="M857.44-342.866c5.1-6.472,9.018-14.111-.992-18.758-11.535-5.353-26.947-.554-39.295-2.357-10.923-1.595-21.618-6.424-32.565-4.991-11.812,1.548-22.3,11.453-23.589,23.3-.764,7.04,1.485,14.06,4.312,20.552,5.652,12.98,13.664,24.782,20.172,37.357s11.588,26.442,10.639,40.568c-.409,6.1-1.938,12.1-2.258,18.2s.754,12.651,4.819,17.222a16.305,16.305,0,0,0,19.651,3.223c7.72-4.41,10.276-14.161,11.787-22.925s3.182-18.466,10.165-23.973c5.451-4.3,12.818-4.93,19.5-6.821s13.795-6.387,14.263-13.315c.45-6.669-5.336-11.834-9.9-16.719-6.324-6.771-11.157-15.134-12.746-24.262S851.7-335.588,857.44-342.866Z" transform="translate(-703.376 418.365)" fill="none" stroke="#000" stroke-miterlimit="10" stroke-width="1"/>
              <path id="Trazado_729868" data-name="Trazado 729868" d="M793-361.47c-5.9-1.429-12.5-3.135-17.727-.037-6.371,3.776-7.213,13.031-4.4,19.883s8.243,12.235,12.381,18.376c9.056,13.434,11.687,30.124,12.9,46.28q1.12,14.937.883,29.937c-.033,2.191-.049,4.535,1.152,6.367,2.109,3.223,7.234,3.191,10.214.751s4.18-6.449,4.6-10.278.216-7.742,1.113-11.487a20.483,20.483,0,0,1,15.157-14.891c6.533-1.441,14.713-.125,18.688-5.505,3.154-4.271,1.46-10.518-1.8-14.709s-7.818-7.211-11.171-11.329a26.565,26.565,0,0,1-5.264-21.23c1.152-6.355,8.72-13.023,6.55-19.5C832.171-361.092,802.887-359.074,793-361.47Z" transform="translate(-695.312 424.052)" fill="none" stroke="#000" stroke-miterlimit="10" stroke-width="1"/>
              <path id="Trazado_729869" data-name="Trazado 729869" d="M813.845-337.628c1.334-1.95,3.149-3.653,3.827-5.915,1.047-3.494-1.076-7.34-4.139-9.323s-6.839-2.478-10.483-2.659-7.356-.109-10.855-1.142c-1.62-.478-3.176-1.189-4.835-1.509a9.911,9.911,0,0,0-9.707,3.636,8.527,8.527,0,0,0,.133,10.159c3.047,3.694,8.664,3.811,12.7,6.393a11.859,11.859,0,0,1,5.324,10.557c-.271,4.041-2.636,7.81-2.413,11.853.6,10.882,15.311,11.138,18.924,1.885C815.4-321.6,808.269-329.477,813.845-337.628Z" transform="translate(-688.948 428.7)" fill="none" stroke="#000" stroke-miterlimit="10" stroke-width="1"/>
              <path id="Trazado_729870" data-name="Trazado 729870" d="M802.8-330.175c-1.743.626-3.293,1.716-5.045,2.316-2.156.741-4.652.76-6.41,2.211-1.85,1.527-2.295,4.172-2.293,6.57s.314,4.88-.509,7.133c-.468,1.283-1.3,2.5-1.248,3.862.076,1.973,2.154,3.457,4.129,3.371a6.781,6.781,0,0,0,4.9-2.969,29.84,29.84,0,0,0,2.751-5.236,7.75,7.75,0,0,1,2.256-3.119,6.8,6.8,0,0,1,3.64-1.053c5.523-.294,16.419,5.094,16.109-5.227C820.837-330.549,808.849-332.345,802.8-330.175Z" transform="translate(-678.262 454.651)" fill="none" stroke="#000" stroke-miterlimit="10" stroke-width="1"/>
              <path id="Trazado_729871" data-name="Trazado 729871" d="M813.554-258.568c1.195,6.428-2.012,12.73-4.162,18.9-4.628,13.306-3.464,30.2,7.722,38.759,3.08,2.359,6.706,3.924,9.783,6.287s5.673,5.921,5.346,9.785a10.164,10.164,0,0,1-3.234,6.254c-5.26,5.118-13.539,5.451-20.764,4.18s-14.36-3.827-21.683-3.351c-3.1.2-6.186.946-9.276.637-6.359-.634-11.691-5.915-13.407-12.072s-.211-12.9,3.024-18.411c2.776-4.737,6.765-8.724,9.176-13.658,6.693-13.686-2.763-31.274,5.248-44.1C788.912-277.495,811-272.315,813.554-258.568Z" transform="translate(-701.179 510.528)" fill="none" stroke="#000" stroke-miterlimit="10" stroke-width="1"/>
              <path id="Trazado_729872" data-name="Trazado 729872" d="M776.218-237a2.3,2.3,0,0,0,.507,1.813,2.241,2.241,0,0,0,1.7.447c7.845-.447,10.011-13.251,13.233-18.5,3.185-5.182,3.558-8.229-2.761-11.442-3.883-1.973-10.165-2.821-12.323,1.879-1.959,4.268,2.741,9.114,2.913,13.313C779.667-245.045,776.427-241.378,776.218-237Z" transform="translate(-688.899 516.146)" fill="none" stroke="#000" stroke-miterlimit="10" stroke-width="1"/>
              <path id="Trazado_729873" data-name="Trazado 729873" d="M788.523-235.643a16.361,16.361,0,0,0-2.347-6.2c-1.332-1.788-3.735-2.987-5.827-2.217-2.168.8-3.168,3.3-3.525,5.582s-.355,4.718-1.534,6.7c-1.406,2.369-4.347,3.829-4.9,6.527-.649,3.182,2.56,5.942,5.73,6.648,5.893,1.312,10.658.9,16.275,3.2,2.16.881,16.23,6.792,17.587,1.747.632-2.355-.575-4.9-2.392-6.525C800.263-226.747,791.377-223.445,788.523-235.643Z" transform="translate(-694.395 536.998)" fill="none" stroke="#000" stroke-miterlimit="10" stroke-width="1"/>
              <path id="Trazado_729874" data-name="Trazado 729874" d="M1015.79-371.379c-18.133-.686-36.043,4.178-54.183,4.646-16.953.437-34.479-2.9-50.545,2.532-18.092,6.118-31.924,25.315-28.645,44.128,2.306,13.232,11.861,23.8,18.883,35.246a100.177,100.177,0,0,1,12.986,33.555c2.07,10.865,1.934,23.237-5.312,31.592-3.48,4.012-7.876,7.186-11.72,10.826a16.315,16.315,0,0,0-3.632,4.349c-3.273,6.584,3.073,15.2-.593,21.573-1.392,2.419-3.942,3.891-6.348,5.307-4.544,2.677-10.025,8.872-6.088,14.368,4.492,6.27,17.006,1.872,22.872.9,19.918-3.3,41.377,6.858,51.454,24.352,3.351,5.815,5.5,12.253,8.742,18.129s7.921,11.4,14.3,13.489c8.978,2.936,19.031-1.877,25.034-9.171s8.837-16.612,11.53-25.666,5.517-18.376,11.51-25.675c11.329-13.8,32.542-18.692,39.6-35.09,3.443-8,2.638-17.234.257-25.611s-6.234-16.263-8.876-24.562a73.412,73.412,0,0,1-3.16-32.222c2.616-18.756,15.4-41.313,8.233-60.48C1055.558-362.337,1032.745-370.737,1015.79-371.379Z" transform="translate(-590.957 416.267)" fill="none" stroke="#000" stroke-miterlimit="10" stroke-width="1"/>
              <path id="Trazado_729875" data-name="Trazado 729875" d="M859.8-248.4c-2.183,1.725-4.32,3.681-5.4,6.246s-.809,5.882,1.3,7.693c2.041,1.753,5.211,1.6,7.584.333s4.112-3.437,5.72-5.593c2.983-4,5.884-8.418,9.814-11.57,2.287-1.833,9.941-3.885,9.666-6.336C887.475-266.644,862.586-250.6,859.8-248.4Z" transform="translate(-615.13 521.751)" fill="none" stroke="#000" stroke-miterlimit="10" stroke-width="1"/>
              <path id="Trazado_729876" data-name="Trazado 729876" d="M1035.763-283.838c1.975-9.945,6.04-19.347,8.656-29.144s3.71-20.507-.2-29.863c-5.121-12.255-18.049-19.833-31.136-22.1s-26.49-.086-39.576,2.176-26.436,4.615-39.575,2.677c-7.761-1.146-15.487-3.782-23.27-2.792-12.237,1.558-22.338,13.218-22.135,25.551.164,9.935,6.081,18.834,12.645,26.289s14.1,14.275,18.745,23.059c4.242,8.026,5.779,17.168,7.11,26.147,1.057,7.135,2.026,14.391,1.055,21.54s-4.123,14.29-9.908,18.6c-3.644,2.714-8.073,4.147-11.98,6.467s-7.515,6.047-7.621,10.59c-.135,5.728,5.073,12.157,1.291,16.458-2.259,2.569-7.41,4.11-6.1,7.27a4.331,4.331,0,0,0,2.7,2.088c10.163,3.726,21.938-2.187,32.152,1.4,4.718,1.659,8.551,5.2,11.687,9.1,6.508,8.085,10.557,17.949,17.244,25.89s17.638,13.888,27.331,10.177c5.819-2.228,9.97-7.512,12.682-13.12,4.25-8.79,5.619-18.639,8.048-28.095s6.311-19.117,14.046-25.071c11.619-8.941,33.778-13.477,26.223-32.651C1038.753-249.283,1031.717-263.45,1035.763-283.838Z" transform="translate(-582.144 421.528)" fill="none" stroke="#000" stroke-miterlimit="10" stroke-width="1"/>
              <path id="Trazado_729877" data-name="Trazado 729877" d="M972.717-356.962c-12.076,2.751-24.449,6.077-36.675,4.1-6.58-1.066-12.875-3.648-19.507-4.318s-14.167,1.111-17.745,6.736c-3.536,5.56-2.012,13.109,1.587,18.63s8.927,9.633,13.612,14.265c16.76,16.567,25.33,40.293,26.323,63.839.289,6.835-.068,13.914-3,20.1-3.651,7.716-10.99,13.2-18.926,16.349-5.806,2.3-13.348,5.158-13.284,11.4.058,5.5,6.47,8.673,11.96,8.937s11.278-1.01,16.322,1.177c9.246,4.006,10.545,16.669,17.361,24.09,6.691,7.287,19.193,8.19,26.859,1.94,7.494-6.108,9.41-16.551,11.379-26.018,1.513-7.258,4.231-18.979,11.582-22.78,7.469-3.864,17.152-.782,21.954-10.058,3.636-7.022-.1-15.386-3.035-22.73-5.632-14.087-9-31.838-3.464-46.518,2.236-5.929,7.506-10.553,10.366-16.437,3.649-7.51,5.9-15.893,2.606-23.964C1019.284-362.028,993.967-361.8,972.717-356.962Z" transform="translate(-574.299 427.556)" fill="none" stroke="#000" stroke-miterlimit="10" stroke-width="1"/>
              <path id="Trazado_729878" data-name="Trazado 729878" d="M967.543-299.016a14.838,14.838,0,0,1,1.823-2.172c4.8-4.691,12.192-5.2,18.265-8.057,11.1-5.213,18.782-18.46,16.2-30.688a19.119,19.119,0,0,0-9.746-13.079c-5.194-2.544-11.362-.193-16.556,1.511-11.2,3.673-22.082,9.178-33.857,9.672a47.4,47.4,0,0,1-14.516-1.675c-4.061-1.129-7.835-3.468-12.179-3.285a9.447,9.447,0,0,0-7.488,3.841c-4.431,6.652,4.1,12.29,8.826,15.191,9.147,5.617,17.458,13.955,19.386,24.515.891,4.87.364,9.869.209,14.816-.244,7.71.585,17.91,10.108,19.571,4.6.8,9.126-2.4,11.49-6.435s3.1-8.775,4.092-13.341C964.392-292.265,965.459-296,967.543-299.016Z" transform="translate(-563.413 432.705)" fill="none" stroke="#000" stroke-miterlimit="10" stroke-width="1"/>
              <path id="Trazado_729879" data-name="Trazado 729879" d="M985.284-287.228c1.909,5.9,3.989,12.684.756,17.979-2.914,4.778-8.981,6.338-13.7,9.36a23.4,23.4,0,0,0-9.812,13.29c-1.244,4.472-1.123,9.227-2.232,13.738s-3.981,9.1-8.516,10.1c-4.459.984-8.855-1.8-12.222-4.887s-6.531-6.734-10.886-8.106c-3.31-1.041-7.2-.733-9.861-2.963-2.979-2.5-2.994-7.272-1.2-10.72s4.95-5.942,7.855-8.525,5.771-5.568,6.625-9.362c.946-4.2-.719-8.818.949-12.783,2.316-5.5,9.4-6.7,15.327-7.451a10.726,10.726,0,0,0,5.2-1.634,8.877,8.877,0,0,0,2.3-2.885c5.258-9.5,3.843-22.833,12.344-29.584,7.373-5.852,13.007,2.757,13.36,9.6C982.025-303.282,982.518-295.779,985.284-287.228Z" transform="translate(-555.676 461.694)" fill="none" stroke="#000" stroke-miterlimit="10" stroke-width="1"/>
              <path id="Trazado_729880" data-name="Trazado 729880" d="M959.712-314.754a47.941,47.941,0,0,0,13.7-5.888,27.338,27.338,0,0,0,9.525-9.325,20.431,20.431,0,0,0,2.421-12.615c-.7-4.755-3.918-7.09-8.66-7.646-5.825-.68-11.588,1.519-16.861,4.086s-10.444,5.582-16.2,6.724c-5.194,1.029-10.547.47-15.842.372-2.61-.047-5.9.513-6.574,3.035-.764,2.854,2.987,5.765,4.784,7.615,2.657,2.737,5.626,4.87,7.89,8.022,1.694,2.361,3.109,5.135,2.893,8.032-.2,2.675-1.756,5.04-2.488,7.619a9.2,9.2,0,0,0,.552,6.932,5.972,5.972,0,0,0,5.924,3.125,6.56,6.56,0,0,0,4.749-4.447c1.308-3.685-.105-8.03,2.511-11.286,2.121-2.64,5.856-3.133,9.177-3.792Q958.471-314.438,959.712-314.754Z" transform="translate(-551.19 436.294)" fill="none" stroke="#000" stroke-miterlimit="10" stroke-width="1"/>
              <path id="Trazado_729881" data-name="Trazado 729881" d="M961.417-346.665c-3.349-.168-6.463,1.612-9.256,3.466s-5.632,3.9-8.95,4.394a40.726,40.726,0,0,0-4.2.478,6.975,6.975,0,0,0-4.854,4.652,6.971,6.971,0,0,0,1.468,6.56c1.92,2.133,4.967,2.844,7.833,2.975a26.941,26.941,0,0,0,19.373-7.278c2.183-2.047,5.441-5.385,5.515-8.586C968.417-343.422,964.624-346.507,961.417-346.665Z" transform="translate(-539.086 439.786)" fill="none" stroke="#000" stroke-miterlimit="10" stroke-width="1"/>
              <path id="Trazado_729882" data-name="Trazado 729882" d="M932.739-318.663a4.081,4.081,0,0,0-1.94-.485,4.281,4.281,0,0,0-2.9,1.558,6.775,6.775,0,0,0-1.616,6.1c1.074,4.191,6.741,5.829,9.563,2.238C938.1-312.122,935.644-317.216,932.739-318.663Z" transform="translate(-546.471 465.922)" fill="none" stroke="#000" stroke-miterlimit="10" stroke-width="1"/>
              <path id="Trazado_729883" data-name="Trazado 729883" d="M967.248-297.721c.043,4.8,3.747,9.432,2.3,14-1.361,4.291-6.373,5.944-10.235,8.258a22.839,22.839,0,0,0-10.646,15.649c-.579,3.5-.522,7.554-3.172,9.915-1.817,1.62-4.42,1.938-6.849,2.105a21.893,21.893,0,0,1-8.683-.674c-2.762-.957-5.266-3.162-5.792-6.04-.624-3.421,1.589-6.675,3.86-9.309s4.855-5.387,5.184-8.851c.3-3.184-1.394-6.461-.423-9.508,1.045-3.279,4.718-4.888,8.079-5.628s7.03-1.109,9.633-3.363c2.466-2.135,3.423-5.529,3.809-8.769.61-5.116.388-15.832,8.26-14.97C970.952-313.984,967.2-302.866,967.248-297.721Z" transform="translate(-548.401 469.909)" fill="none" stroke="#000" stroke-miterlimit="10" stroke-width="1"/>
              <path id="Trazado_729884" data-name="Trazado 729884" d="M941.065-287.819c-.912,1.948-.854,4.188-.942,6.338a16.782,16.782,0,0,1-1.745,7.566,7.684,7.684,0,0,1-6.221,4.164,4.272,4.272,0,0,1-2.3-.55c-2.039-1.228-2.166-4.186-1.425-6.449a13.275,13.275,0,0,1,3.357-5.373,14.3,14.3,0,0,0,3.045-3.252c.735-1.392.714-3.041,1.024-4.583a10.714,10.714,0,0,1,3.85-6.254c2.08-1.632,7.213-2.488,7.028,1.546C946.621-292.122,942.156-290.151,941.065-287.819Z" transform="translate(-544.643 486.412)" fill="none" stroke="#000" stroke-miterlimit="10" stroke-width="1"/>
              <path id="Trazado_729885" data-name="Trazado 729885" d="M1029.614-99.259c-11.775-5.211-23.3-12.931-29.027-24.837-9.457-19.659-.378-42.987.372-64.958a11.571,11.571,0,0,0-.943-6c-2.371-4.3-8.876-3.747-12.491-.521s-5.395,8.085-8.017,12.22a31.257,31.257,0,0,1-20.517,13.972c-6.359,1.148-13.423.361-18.718,4.2-6.767,4.909-7.426,14.779-9.557,23.073-3.878,15.1-14.678,27.757-27.929,35.115s-28.744,9.7-43.708,8.338c-20.989-1.9-42.159-10.74-62.531-5.143-6.141,1.688-12.167,4.86-15.891,10.214-4.149,5.962-4.9,13.729-5.043,21.088-.181,9.122.6,18.971,6.227,25.97,5.89,7.328,15.626,9.74,24.728,10.993,29.578,4.076,59.56.464,89.384-.528a507.576,507.576,0,0,1,70.717,2.585c25.6,2.733,51.169,7.42,76.888,6.392,16.434-.659,51.582-10.132,43.792-34.943C1080.042-85.312,1048.2-91.032,1029.614-99.259Z" transform="translate(-689.376 580.826)" fill="none" stroke="#000" stroke-miterlimit="10" stroke-width="1"/>
              <path id="Trazado_729886" data-name="Trazado 729886" d="M1003.637-105.068c-13.859-8.12-25.977-21.854-27.174-38.355-.595-8.186,1.524-16.314,4.059-24.086,1.4-4.3,2.772-9.562-.138-12.943-3.033-3.519-8.72-2.357-12.434.365s-6.615,6.679-10.738,8.66c-3.934,1.889-8.73,1.844-12.114,4.659-5.517,4.591-4.121,13.458-5.5,20.667-3.93,20.546-31.961,33.6-48.881,39.852a119.635,119.635,0,0,1-66.491,5.018c-6.617-1.435-13.206-3.449-19.965-3.41s-13.947,2.536-17.778,8.33c-5.1,7.712-2.415,18.93,3.958,25.541,9.252,9.6,22.227,10.722,34.368,11.931,15.378,1.53,29.711.47,45.1-.858,21.379-1.844,42.5.926,63.7.6,21.665-.333,44.968-.669,66.327,3.39,12.475,2.369,24.86,6.81,37.5,5.7,14.236-1.246,36.39-17.969,20.228-32.53-6.691-6.028-17.273-7.851-25.465-10.592C1022.423-96.394,1012.622-99.8,1003.637-105.068Z" transform="translate(-681.572 595.539)" fill="none" stroke="#000" stroke-miterlimit="10" stroke-width="1"/>
              <path id="Trazado_729887" data-name="Trazado 729887" d="M981.889-83.975c-1.2-2.018-3.3-3.3-5.4-4.347-13.163-6.568-28.674-6.9-42.116-12.875-20.384-9.069-33.762-31.861-31.738-54.08.275-3.03.807-6.1.273-9.095s-2.435-5.995-5.381-6.759c-4.234-1.1-8.292,2.961-9.278,7.225s.045,8.7.181,13.068a32.282,32.282,0,0,1-8.221,22.388c-5.168,5.718-12.2,9.366-18.074,14.358s-10.824,12.381-9.371,19.951c1.193,6.217,6.476,10.935,12.222,13.594,10.442,4.833,22.447,4.26,33.953,4.384a252.352,252.352,0,0,1,54.1,6.535c6.3,1.456,11.362,3.217,17.7,1.369C976.851-70.04,986.429-76.305,981.889-83.975Z" transform="translate(-616.344 606.299)" fill="none" stroke="#000" stroke-miterlimit="10" stroke-width="1"/>
              <path id="Trazado_729888" data-name="Trazado 729888" d="M897.906-128.73c-6.281-5.422-15.263-6.57-23.517-5.706s-16.232,3.47-24.449,4.622a70.211,70.211,0,0,1-28.609-1.924c-5.233-1.468-10.506-3.57-15.91-3s-10.913,5.094-10.167,10.477c.61,4.41,4.9,7.252,8.9,9.2a92.187,92.187,0,0,0,44.325,9.163c10.208-.466,20.768-2.589,30.417.772,7.344,2.558,17.072,6.812,23.076-1.07C906.874-112.629,903.479-123.918,897.906-128.73Z" transform="translate(-670.772 640.938)" fill="none" stroke="#000" stroke-miterlimit="10" stroke-width="1"/>
              <path id="Trazado_729889" data-name="Trazado 729889" d="M901.83-127.256c-2.148-3.267-3.581-7.014-6.143-9.968a16.85,16.85,0,0,0-14.368-5.6,16.847,16.847,0,0,0-12.75,8.672,12.592,12.592,0,0,1-1.862,3.047c-1.458,1.486-3.946,2.014-4.714,3.948-.711,1.792.52,3.792,2.031,4.987,3.768,2.973,9.026,3.018,13.807,2.562s9.767-1.252,14.253.458c2.624,1,4.862,2.79,7.327,4.137a23.862,23.862,0,0,0,14.1,2.735c1.622-.191,3.416-.682,4.221-2.105C920.349-119.006,904.382-123.375,901.83-127.256Z" transform="translate(-607.531 633.257)" fill="none" stroke="#000" stroke-miterlimit="10" stroke-width="1"/>
              <path id="Trazado_729890" data-name="Trazado 729890" d="M833-125.863a6.651,6.651,0,0,0-2.807,3.252c-1.027,3.164,1.957,6.238,5,7.6,5.41,2.415,31.173,4.168,26.989-7.593C859.03-131.447,838.778-129.747,833-125.863Z" transform="translate(-637.731 646.452)" fill="none" stroke="#000" stroke-miterlimit="10" stroke-width="1"/>
            </g>
            <g id="Grupo_1015132" data-name="Grupo 1015132" transform="translate(1324.908)" opacity="0.25">
              <g id="Grupo_1015131" data-name="Grupo 1015131" transform="translate(49.291)">
                <path id="Trazado_729891" data-name="Trazado 729891" d="M1051.262,130.118c30.891-5.383,56.109-30.483,66.91-59.919,2.979-8.12,5.022-16.7,4.741-25.346-.583-17.864-10.787-33.723-18.716-49.744-5.053-10.212-9.247-21.445-9.487-32.965-.091-4.4-.005-10.736,2.221-14.692,2.293-4.078,7.34-5.069,10.812-7.831,8.264-6.574,4.683-20.786,11.465-28.878,3.259-3.891,8.342-5.646,13.163-7.231,12.163-4,24.67-8.227,34.327-16.635,12.572-10.949,16.938-30.639,12.259-46.288a131.622,131.622,0,0,0-9.095-22.568c-4.1-7.954-9.054-15.6-11.375-24.242-3.277-12.19-.906-25.482,4.936-36.673,17.38-33.282,64.249-46.912,99.072-38.538,6.49,1.56,12.791,3.8,19.193,5.7,13.166,3.891,26.87,6.3,40.589,5.81s27.481-3.973,39.152-11.2" transform="translate(-908.202 499.452)" fill="none" stroke="#000" stroke-miterlimit="10" stroke-width="1" stroke-dasharray="1.283 1.924 1.283 1.924"/>
                <path id="Trazado_729892" data-name="Trazado 729892" d="M992.943-286.313c16.559,2.15,32.815,7.812,46.383,17.548s24.32,23.685,29.035,39.7c4.029,13.7,3.918,29.175,12.424,40.644,7.3,9.841,20.209,14.779,32.409,13.656s23.519-7.831,31.5-17.127c7.418-8.642,12.155-19.367,19.858-27.755a52.6,52.6,0,0,1,50.957-14.986" transform="translate(-963.577 497.102)" fill="none" stroke="#000" stroke-miterlimit="10" stroke-width="1" stroke-dasharray="1.283 1.924 1.283 1.924"/>
                <path id="Trazado_729893" data-name="Trazado 729893" d="M1102.433-121.962c-13.3-10.089-27.276-21.063-32.912-36.782-2.662-7.426-3.248-15.432-3.277-23.32-.086-24.671,5.695-50.477,22.1-68.9,6.4-7.182,14.438-13.352,18.076-22.256,2.712-6.632,2.64-14.054,2.043-21.2-.856-10.272-2.938-20.965-9.5-28.915-6.878-8.336-17.661-12.44-25.424-19.955-13.45-13.021-15.081-36.39-3.573-51.152" transform="translate(-897.723 394.436)" fill="none" stroke="#000" stroke-miterlimit="10" stroke-width="1" stroke-dasharray="1.283 1.924 1.283 1.924"/>
                <path id="Trazado_729894" data-name="Trazado 729894" d="M1113.266-199.561a59.1,59.1,0,0,1,32.191,16.832c8.73,8.931,14.46,20.49,23.439,29.169,14.6,14.115,36.725,18.9,56.649,14.963s37.677-15.764,51.5-30.639" transform="translate(-849.327 579.476)" fill="none" stroke="#000" stroke-miterlimit="10" stroke-width="1" stroke-dasharray="1.283 1.924 1.283 1.924"/>
                <path id="Trazado_729895" data-name="Trazado 729895" d="M1164.569-154.89c-6.55-5.367-16.561-3.583-23.784.838s-12.9,11.013-20.022,15.6a44.141,44.141,0,0,1-33.986,5.693c-19.22-4.714-34.031-22.094-53.686-24.4-7.58-.889-15.259.593-22.55,2.85-12.528,3.876-24.693,10.368-32.661,20.784" transform="translate(-977.88 618.744)" fill="none" stroke="#000" stroke-miterlimit="10" stroke-width="1" stroke-dasharray="1.283 1.924 1.283 1.924"/>
                <path id="Trazado_729896" data-name="Trazado 729896" d="M1033.852-182.382c7.1-16.214,8.675-35.741.16-51.257-2.051-3.739-4.63-7.163-6.821-10.82a93.042,93.042,0,0,1-5.7-11.574c-5.04-11.886-8.974-25.239-5.127-37.564,3.675-11.775,14.007-20.957,16.041-33.124,2.123-12.7-5.306-24.831-12.413-35.569" transform="translate(-942.813 424.959)" fill="none" stroke="#000" stroke-miterlimit="10" stroke-width="1" stroke-dasharray="1.283 1.924 1.283 1.924"/>
                <path id="Trazado_729897" data-name="Trazado 729897" d="M1135.087-185.845c-8.59-25.913-3.086-56.037,14.113-77.237,4.607-5.679,9.948-10.709,14.916-16.076,12.814-13.848,23.243-30.243,28.179-48.454s4.053-38.328-4.474-55.156" transform="translate(-832.402 405.516)" fill="none" stroke="#000" stroke-miterlimit="10" stroke-width="1" stroke-dasharray="1.283 1.924 1.283 1.924"/>
              </g>
              <path id="Trazado_729898" data-name="Trazado 729898" d="M1177.967,64.6c19.669-17.335,29.264-47.882,16.641-70.862-10.527-19.166-35.63-32.078-37.4-55.907-.406-5.465.52-11.255,3.844-15.612,5.716-7.492,17.232-9.34,21.7-17.639,2.967-5.513,1.9-12.3,3.566-18.333,1.906-6.9,7.346-12.387,13.578-15.9,15.081-8.508,31.167-12.027,43.014-26.083,8.252-9.792,12.266-24.318,6.277-35.639-4.057-7.664-12.216-13.251-13.8-21.776-.523-2.817-.263-5.761-1.026-8.523-1.782-6.455-9.057-10.327-15.731-9.769s-12.6,4.685-17.021,9.715-7.627,10.984-11.263,16.608c-11.984,18.534-24.094,34.366-47.576,34.462a44.128,44.128,0,0,1-13.547-1.653c-16.282-5.164-28.145-31.066-30.011-46.8-.37-3.137-.125-6.313-.341-9.461-1.105-16.076-15.431-29.824-31.461-31.434s-32.243,8.235-39.342,22.7c-3.453,7.036-4.938,14.9-8.328,21.965-4.053,8.449-10.738,15.569-13.793,24.428-1.257,3.646-1.864,7.5-3.32,11.073-3.119,7.662-9.769,13.23-16.2,18.435-9.443,7.646-19.158,15.448-25.387,25.882-8.937,14.974-9.551,33.5-7.416,50.811s6.759,34.327,7.395,51.756c1.045,28.66-8.5,58.86,2.836,85.2,10.939,25.41,47.091,50.378,75.523,47.175,11.666-1.314,22.2-7.545,34.013-8.964,18.291-2.2,36.692-.368,54.938-3.681C1146.336,83.508,1164.085,76.835,1177.967,64.6Z" transform="translate(-952.596 521.917)" fill="none" stroke="#000" stroke-miterlimit="10" stroke-width="1"/>
              <path id="Trazado_729899" data-name="Trazado 729899" d="M1346.54-233.951c15.61-13.7,23.558-33,25.465-53.786,1.768-19.291,8.1-41.229-1.634-59.589-10.2-19.248-33.567-26.053-54.655-27.412-22.154-1.429-44.34,1.094-66.459,3.035-38.15,3.349-76.656,4.973-114.652.066-33.745-4.355-67.929-13.832-101.245-6.753-12.434,2.642-25.472,8.549-31.054,20.406-2.454,5.215-3.215,11.089-3.942,16.846-3.86,30.551-12.179,63.923,11.763,88.343,11.4,11.629,26.9,17.55,40.974,25.4s27.987,19.349,31.257,35.606c3.823,19-8,39.256-1.951,57.616a29.848,29.848,0,0,0,19.54,19.168,28.46,28.46,0,0,0,26.247-5.919c9.744-8.5,13.567-23.174,24.315-30.249,13.192-8.679,32.637-3.076,44.172-14.017,8.073-7.658,8.933-20.412,14.075-30.44,4.527-8.831,12.333-15.366,20.57-20.54,7.453-4.683,15.7-8.533,24.4-8.816,10.377-.335,20.2,4.381,30.323,6.792C1305.7-213.035,1329.555-219.047,1346.54-233.951Z" transform="translate(-913.493 407.255)" fill="none" stroke="#000" stroke-miterlimit="10" stroke-width="1"/>
              <path id="Trazado_729900" data-name="Trazado 729900" d="M1119.362,53.111c1.973-14.637-4.326-29.1-11.814-41.835s-16.425-24.907-20.611-39.071-2.444-31.368,8.814-40.928c10.056-8.539,25.311-9.208,34.721-18.452,12.791-12.569,11.021-37.234,27.106-45.159,3.84-1.893,8.264-2.488,11.915-4.718a21.853,21.853,0,0,0,7.3-8.147,39.167,39.167,0,0,0-1.788-40.486c-5.137-7.484-12.826-13-17.6-20.718-8.826-14.271-5.345-34.187,6.147-46.412s29.477-17.086,46.12-14.955c16.892,2.162,34.282,10.744,50.128,4.5,2.922-1.152,5.786-2.811,8.929-2.792,2.69.018,5.209,1.281,7.515,2.669a61,61,0,0,1,28.908,53.152c-.564,17.2-8.426,33.163-13.76,49.522a173.89,173.89,0,0,0-.281,106.1c6.318,19.737,16.125,38.143,24.3,57.186,6.443,15.007,11.951,30.754,12.508,47.079s-4.412,33.446-16.286,44.662c-17.444,16.477-44.613,16.495-68.224,12.2S1195.8,94.634,1172.3,99.463c-12.489,2.564-24,8.516-36.162,12.341s-25.993,5.338-37.207-.727c-11.6-6.272-13.889-19.291-3.774-27.418C1106.78,74.316,1117.061,70.187,1119.362,53.111Z" transform="translate(-827.011 514.248)" fill="none" stroke="#000" stroke-miterlimit="10" stroke-width="1"/>
              <path id="Trazado_729901" data-name="Trazado 729901" d="M1011.886,61.916c16.179,2.164,32.317-3.137,48.547-4.874,28.229-3.02,59.246,4.24,83.473-10.555,20-12.214,29.6-39.113,21.852-61.229-5.311-15.16-17.269-26.931-25.307-40.837s-11.309-33.349-.033-44.787c5.384-5.461,13.475-8.383,17.055-15.163,3.351-6.354,1.692-14.167,3.46-21.131,3.566-14.044,19.234-20.651,32.83-25.664s29.071-12.892,30.947-27.26a29.454,29.454,0,0,0-1.528-12.639c-1.162-3.65-2.9-7.365-6.1-9.469-4.909-3.232-11.746-1.544-16.369,2.088s-7.691,8.828-11.245,13.508c-11.866,15.629-30.71,26.247-50.331,26.422s-39.384-10.876-47.945-28.533c-6.952-14.343-7.406-33.043-20.26-42.469-11.9-8.726-29.988-4.318-39.767,6.734-13.966,15.783-13.346,40.018-24.874,57.663-11.98,18.331-35.9,27.771-43.8,48.194-9.45,24.414,8.58,50.68,9.048,76.856C971.8-37,966.807-23.253,964.665-9.185,959.711,23.318,976.982,57.249,1011.886,61.916Z" transform="translate(-945.794 536.05)" fill="none" stroke="#000" stroke-miterlimit="10" stroke-width="1"/>
              <path id="Trazado_729902" data-name="Trazado 729902" d="M1200.483,73.708c10.569,2.32,21.109,5.211,31.922,5.617a70.693,70.693,0,0,0,39.064-10.136c9.06-5.5,17.164-13.617,19.671-23.911,3.878-15.935-6.23-31.46-14.352-45.707-31.891-55.938-37.819-126-15.784-186.5,3.835-10.527,8.526-21.035,8.989-32.232s-4.544-23.552-14.922-27.777c-8.675-3.533-18.476-.63-27.843-.659-12.191-.041-23.8-5.125-35.911-6.548s-26.619,2.511-30.908,13.924c-3.932,10.465,2.573,21.938,10.208,30.1s16.99,15.5,20.585,26.089a28.87,28.87,0,0,1-8.911,30.89c-6.1,4.946-13.99,7.149-20.4,11.676a33.948,33.948,0,0,0-13.966,23.593c-1.275,11.264,2.889,23.96-3.6,33.257-9.311,13.345-33.029,8.7-42.27,22.1-4.039,5.852-3.973,13.74-1.8,20.509s6.2,12.76,9.766,18.908c7.172,12.35,12.726,25.9,14.021,40.123a59.648,59.648,0,0,1-9.278,38.129c-5.8,9.126-9.461,16.99,2.887,23.316,12.132,6.215,23.309-3.85,34.932-6.665C1168.3,67.994,1184.918,70.293,1200.483,73.708Z" transform="translate(-813.791 527.379)" fill="none" stroke="#000" stroke-miterlimit="10" stroke-width="1"/>
              <path id="Trazado_729903" data-name="Trazado 729903" d="M1043.706-263.473c16.29,7.34,34.316,15.317,42,31.964,9.018,19.526.123,42.465.047,64.128-.016,4.671.532,9.707,3.523,13.193,6.5,7.572,18.924,2.437,25.287-5.26s10.859-17.866,19.776-21.985c13.584-6.274,33.07,3.65,42.519-8.285,5.357-6.767,3.737-16.665,4.973-25.336,2.427-17.049,17.041-30.189,33.017-34.745s33.031-1.985,49.087,2.265c10.022,2.653,20.273,5.981,30.51,4.441,21.875-3.287,35.359-27.57,38.22-50.37,1.61-12.844.86-26.266-4.106-38.145s-14.526-22.026-26.5-25.57c-7.151-2.117-14.736-1.84-22.156-1.332-26.746,1.835-53.374,6.476-80.172,5.829-32.359-.782-64.034-9.249-96.1-13.867-19.766-2.848-40.252-4.182-59.369,1.766s-36.778,20.406-42.28,40.361C993.6-293.983,1020.411-273.967,1043.706-263.473Z" transform="translate(-907.189 418.622)" fill="none" stroke="#000" stroke-miterlimit="10" stroke-width="1"/>
              <path id="Trazado_729904" data-name="Trazado 729904" d="M1191.794,1.451c11.74,2.406,23.823,4.406,35.659,2.53s23.541-8.247,29.03-18.9c7.3-14.171,1.985-31.575-5.77-45.5s-18.014-27-21.077-42.648c-1.546-7.9-1.287-16.068-3.09-23.921-1.48-6.437-3.854-10.884-3.137-17.7,1.632-15.536-4.314-32.473-17.407-41s-33.23-5.81-41.309,7.562c-8.545,14.138-2.485,34.863-13.935,46.771-10.906,11.342-36.045,6.424-37.682,27.194-.733,9.291,6.433,17.027,12.077,24.445,6.106,8.02,10.972,17.248,12.36,27.231,1.333,9.586-.871,19.716-7.133,27.233-5.564,6.677-12.746,12.071-3.883,20.135,7.8,7.1,18.433,2.045,27.631,1.622C1166.891-4.084,1179.382-1.092,1191.794,1.451Z" transform="translate(-800.265 588.012)" fill="none" stroke="#000" stroke-miterlimit="10" stroke-width="1"/>
              <path id="Trazado_729905" data-name="Trazado 729905" d="M1139.436-43.854c-5.1,6.472-9.019,14.113.992,18.758,11.536,5.353,26.945.556,39.295,2.357,10.923,1.6,21.618,6.424,32.565,4.991,11.812-1.546,22.3-11.453,23.589-23.3.764-7.04-1.487-14.058-4.315-20.552-5.649-12.98-13.662-24.782-20.17-37.357s-11.588-26.441-10.639-40.568c.41-6.1,1.938-12.095,2.258-18.2s-.755-12.651-4.819-17.222a16.305,16.305,0,0,0-19.651-3.223c-7.722,4.412-10.278,14.161-11.787,22.925s-3.182,18.466-10.165,23.973c-5.451,4.3-12.818,4.93-19.5,6.821s-13.795,6.389-14.263,13.315c-.452,6.669,5.334,11.834,9.9,16.719,6.324,6.771,11.157,15.136,12.746,24.264S1145.17-51.13,1139.436-43.854Z" transform="translate(-790.98 597.924)" fill="none" stroke="#000" stroke-miterlimit="10" stroke-width="1"/>
              <path id="Trazado_729906" data-name="Trazado 729906" d="M1187.836-43.542c5.9,1.431,12.5,3.135,17.727.039,6.371-3.776,7.213-13.033,4.4-19.885s-8.241-12.233-12.38-18.376c-9.055-13.434-11.687-30.124-12.9-46.28q-1.12-14.937-.885-29.935c.035-2.191.051-4.537-1.15-6.369-2.11-3.223-7.235-3.191-10.214-.751s-4.182,6.451-4.6,10.28-.219,7.74-1.115,11.487a20.475,20.475,0,0,1-15.156,14.889c-6.533,1.441-14.715.125-18.688,5.505-3.154,4.271-1.462,10.518,1.8,14.709s7.817,7.211,11.171,11.329a26.568,26.568,0,0,1,5.264,21.232c-1.152,6.354-8.72,13.021-6.55,19.5C1148.664-43.92,1177.948-45.938,1187.836-43.542Z" transform="translate(-783.003 610.53)" fill="none" stroke="#000" stroke-miterlimit="10" stroke-width="1"/>
              <path id="Trazado_729907" data-name="Trazado 729907" d="M1148.292-103.331c-1.334,1.95-3.151,3.653-3.827,5.915-1.047,3.5,1.076,7.34,4.137,9.323s6.841,2.48,10.485,2.661,7.356.109,10.853,1.14c1.622.478,3.178,1.189,4.837,1.509a9.9,9.9,0,0,0,9.707-3.636,8.53,8.53,0,0,0-.132-10.159c-3.047-3.694-8.664-3.809-12.7-6.393a11.846,11.846,0,0,1-5.324-10.557c.271-4.039,2.636-7.808,2.414-11.851-.6-10.884-15.312-11.14-18.924-1.885C1146.734-119.36,1153.867-111.482,1148.292-103.331Z" transform="translate(-770.668 641.828)" fill="none" stroke="#000" stroke-miterlimit="10" stroke-width="1"/>
              <path id="Trazado_729908" data-name="Trazado 729908" d="M1155.385-122.947c1.743-.626,3.293-1.716,5.045-2.316,2.156-.739,4.651-.76,6.41-2.211,1.85-1.526,2.295-4.17,2.293-6.57s-.314-4.88.509-7.133c.466-1.283,1.3-2.5,1.248-3.86-.076-1.975-2.156-3.458-4.129-3.373a6.784,6.784,0,0,0-4.9,2.971,29.755,29.755,0,0,0-2.751,5.234,7.735,7.735,0,0,1-2.257,3.119,6.789,6.789,0,0,1-3.638,1.053c-5.523.294-16.419-5.094-16.109,5.227C1137.352-122.573,1149.337-120.778,1155.385-122.947Z" transform="translate(-777.406 628.042)" fill="none" stroke="#000" stroke-miterlimit="10" stroke-width="1"/>
              <path id="Trazado_729909" data-name="Trazado 729909" d="M1161.836-159.443c-1.2-6.428,2.012-12.728,4.16-18.9,4.63-13.3,3.464-30.2-7.72-38.759-3.08-2.359-6.706-3.922-9.783-6.287s-5.673-5.919-5.348-9.785a10.174,10.174,0,0,1,3.236-6.254c5.26-5.118,13.537-5.451,20.764-4.18s14.36,3.827,21.681,3.353c3.1-.2,6.188-.945,9.278-.639,6.357.634,11.689,5.915,13.407,12.072s.211,12.9-3.024,18.413c-2.778,4.735-6.765,8.722-9.176,13.656-6.693,13.686,2.762,31.274-5.248,44.1C1186.478-140.517,1164.391-145.7,1161.836-159.443Z" transform="translate(-771.69 537.054)" fill="none" stroke="#000" stroke-miterlimit="10" stroke-width="1"/>
              <path id="Trazado_729910" data-name="Trazado 729910" d="M1174.181-213.584a2.311,2.311,0,0,0-.507-1.813,2.234,2.234,0,0,0-1.7-.444c-7.845.444-10.011,13.251-13.233,18.493-3.185,5.182-3.558,8.229,2.76,11.442,3.882,1.973,10.165,2.821,12.323-1.879,1.959-4.268-2.741-9.112-2.914-13.311C1170.732-205.541,1173.972-209.206,1174.181-213.584Z" transform="translate(-758.98 564.009)" fill="none" stroke="#000" stroke-miterlimit="10" stroke-width="1"/>
              <path id="Trazado_729911" data-name="Trazado 729911" d="M1172.611-214.39a16.373,16.373,0,0,0,2.349,6.2c1.331,1.786,3.735,2.987,5.827,2.215,2.166-.8,3.168-3.3,3.525-5.58s.355-4.72,1.534-6.706c1.406-2.369,4.348-3.829,4.9-6.527.649-3.18-2.56-5.942-5.729-6.648-5.894-1.31-10.658-.9-16.277-3.2-2.158-.881-16.23-6.792-17.585-1.747-.634,2.357.575,4.9,2.392,6.525C1160.873-223.285,1169.757-226.586,1172.611-214.39Z" transform="translate(-764.221 542.605)" fill="none" stroke="#000" stroke-miterlimit="10" stroke-width="1"/>
              <path id="Trazado_729912" data-name="Trazado 729912" d="M1017.853,34.963c18.133.686,36.043-4.176,54.181-4.646,16.955-.437,34.481,2.9,50.547-2.53,18.092-6.12,31.922-25.315,28.643-44.13-2.3-13.231-11.859-23.8-18.881-35.246a100.2,100.2,0,0,1-12.988-33.555c-2.069-10.865-1.932-23.236,5.314-31.592,3.48-4.012,7.876-7.184,11.721-10.824a16.3,16.3,0,0,0,3.632-4.351c3.273-6.582-3.073-15.2.593-21.572,1.392-2.419,3.942-3.891,6.348-5.309,4.544-2.675,10.024-8.872,6.088-14.366-4.492-6.272-17.006-1.872-22.874-.9-19.917,3.3-41.377-6.856-51.454-24.352-3.349-5.815-5.5-12.253-8.74-18.129s-7.921-11.4-14.3-13.487c-8.978-2.938-19.031,1.875-25.036,9.169s-8.835,16.612-11.528,25.668-5.517,18.374-11.512,25.675c-11.329,13.8-32.542,18.69-39.6,35.088-3.445,8-2.64,17.234-.259,25.611s6.237,16.263,8.876,24.562a73.388,73.388,0,0,1,3.162,32.222c-2.616,18.756-15.4,41.312-8.233,60.482C978.083,25.921,1000.9,34.322,1017.853,34.963Z" transform="translate(-940.165 549.719)" fill="none" stroke="#000" stroke-miterlimit="10" stroke-width="1"/>
              <path id="Trazado_729913" data-name="Trazado 729913" d="M1098.835-204.292c2.182-1.727,4.32-3.681,5.4-6.246s.809-5.884-1.3-7.695c-2.041-1.753-5.213-1.6-7.584-.333s-4.111,3.437-5.722,5.593c-2.983,4-5.882,8.42-9.812,11.571-2.287,1.834-9.941,3.885-9.666,6.336C1071.159-186.049,1096.049-202.091,1098.835-204.292Z" transform="translate(-840.985 560.511)" fill="none" stroke="#000" stroke-miterlimit="10" stroke-width="1"/>
              <path id="Trazado_729914" data-name="Trazado 729914" d="M983.354-67.75C981.381-57.8,977.316-48.4,974.7-38.607s-3.708,20.509.2,29.865c5.121,12.253,18.051,19.833,31.136,22.1s26.49.088,39.578-2.176,26.436-4.615,39.575-2.675c7.761,1.144,15.485,3.782,23.269,2.79,12.237-1.558,22.338-13.216,22.133-25.551-.162-9.933-6.079-18.832-12.645-26.289s-14.1-14.274-18.745-23.059c-4.24-8.024-5.777-17.166-7.108-26.145-1.059-7.137-2.026-14.393-1.055-21.542s4.123-14.288,9.907-18.6c3.644-2.716,8.073-4.149,11.98-6.469s7.515-6.047,7.621-10.59c.134-5.726-5.073-12.155-1.29-16.458,2.257-2.569,7.41-4.11,6.1-7.27a4.318,4.318,0,0,0-2.7-2.086c-10.163-3.726-21.94,2.187-32.151-1.406-4.718-1.659-8.553-5.2-11.687-9.1-6.508-8.087-10.559-17.951-17.244-25.89s-17.637-13.89-27.331-10.178c-5.819,2.23-9.97,7.511-12.684,13.122-4.248,8.788-5.617,18.638-8.046,28.093S1007.2-159,999.461-153.044c-11.617,8.941-33.776,13.477-26.223,32.651C980.365-102.306,987.4-88.136,983.354-67.75Z" transform="translate(-934.454 559.63)" fill="none" stroke="#000" stroke-miterlimit="10" stroke-width="1"/>
              <path id="Trazado_729915" data-name="Trazado 729915" d="M1034.183-14.488c12.078-2.751,24.451-6.077,36.677-4.1,6.58,1.066,12.875,3.648,19.507,4.318s14.167-1.111,17.745-6.736c3.534-5.56,2.012-13.109-1.587-18.628s-8.927-9.633-13.613-14.267c-16.758-16.567-25.329-40.293-26.321-63.837-.288-6.837.068-13.914,2.995-20.1,3.653-7.718,10.99-13.206,18.928-16.349,5.805-2.3,13.348-5.16,13.282-11.4-.057-5.5-6.469-8.674-11.96-8.937s-11.276,1.01-16.32-1.176c-9.249-4.008-10.545-16.669-17.363-24.092-6.689-7.287-19.191-8.19-26.859-1.94-7.494,6.11-9.408,16.553-11.379,26.018-1.511,7.26-4.231,18.979-11.58,22.78-7.469,3.864-17.152.782-21.954,10.058-3.636,7.022.1,15.386,3.035,22.73,5.632,14.087,9,31.838,3.464,46.518-2.238,5.929-7.507,10.553-10.368,16.438-3.65,7.51-5.9,15.891-2.607,23.962C987.618-9.421,1012.935-9.647,1034.183-14.488Z" transform="translate(-930.083 573.463)" fill="none" stroke="#000" stroke-miterlimit="10" stroke-width="1"/>
              <path id="Trazado_729916" data-name="Trazado 729916" d="M1020.981-125.327a14.726,14.726,0,0,1-1.821,2.172c-4.8,4.691-12.192,5.205-18.265,8.057-11.1,5.213-18.782,18.46-16.2,30.688a19.115,19.115,0,0,0,9.745,13.079c5.194,2.544,11.362.195,16.556-1.509,11.2-3.675,22.08-9.18,33.857-9.674a47.4,47.4,0,0,1,14.516,1.677c4.061,1.127,7.834,3.466,12.179,3.283a9.441,9.441,0,0,0,7.486-3.841c4.431-6.652-4.1-12.29-8.824-15.191-9.149-5.617-17.46-13.955-19.388-24.515-.889-4.87-.362-9.869-.207-14.816.244-7.71-.585-17.91-10.11-19.571-4.6-.8-9.124,2.406-11.489,6.437s-3.1,8.775-4.094,13.341C1024.134-132.078,1023.067-128.346,1020.981-125.327Z" transform="translate(-922.593 621.207)" fill="none" stroke="#000" stroke-miterlimit="10" stroke-width="1"/>
              <path id="Trazado_729917" data-name="Trazado 729917" d="M991.185-129.5c-1.908-5.9-3.989-12.684-.758-17.979,2.917-4.778,8.983-6.338,13.7-9.36a23.4,23.4,0,0,0,9.812-13.288c1.246-4.474,1.125-9.229,2.234-13.738s3.979-9.1,8.516-10.1c4.459-.983,8.855,1.8,12.222,4.887s6.531,6.734,10.886,8.106c3.308,1.043,7.2.735,9.861,2.965,2.977,2.5,2.995,7.272,1.2,10.72s-4.948,5.942-7.855,8.523-5.769,5.57-6.623,9.362c-.946,4.2.717,8.818-.951,12.783-2.314,5.5-9.4,6.7-15.325,7.451a10.707,10.707,0,0,0-5.2,1.636,8.871,8.871,0,0,0-2.3,2.885c-5.256,9.5-3.843,22.833-12.344,29.582-7.371,5.852-13.005-2.757-13.358-9.594C994.445-113.442,993.951-120.944,991.185-129.5Z" transform="translate(-918.273 584.601)" fill="none" stroke="#000" stroke-miterlimit="10" stroke-width="1"/>
              <path id="Trazado_729918" data-name="Trazado 729918" d="M1013.395-124.029a47.869,47.869,0,0,0-13.7,5.89,27.34,27.34,0,0,0-9.527,9.323A20.459,20.459,0,0,0,987.747-96.2c.7,4.757,3.92,7.092,8.662,7.646,5.825.68,11.588-1.517,16.861-4.084s10.444-5.583,16.195-6.724c5.194-1.031,10.549-.472,15.842-.374,2.61.047,5.9-.513,6.576-3.035.762-2.854-2.989-5.763-4.784-7.615-2.659-2.737-5.626-4.87-7.89-8.022-1.694-2.361-3.111-5.135-2.893-8.032.2-2.673,1.755-5.04,2.488-7.619a9.2,9.2,0,0,0-.554-6.933,5.971,5.971,0,0,0-5.923-3.123,6.557,6.557,0,0,0-4.749,4.445c-1.308,3.685.1,8.03-2.513,11.288-2.119,2.638-5.854,3.133-9.174,3.79Q1014.635-124.346,1013.395-124.029Z" transform="translate(-919.397 632.06)" fill="none" stroke="#000" stroke-miterlimit="10" stroke-width="1"/>
              <path id="Trazado_729919" data-name="Trazado 729919" d="M997.1-108.283c3.349.166,6.461-1.614,9.254-3.468s5.634-3.9,8.95-4.394a41.313,41.313,0,0,0,4.207-.476,6.987,6.987,0,0,0,4.855-4.652,6.986,6.986,0,0,0-1.468-6.562c-1.92-2.131-4.967-2.844-7.833-2.975a26.938,26.938,0,0,0-19.372,7.278c-2.183,2.049-5.441,5.385-5.515,8.586C990.1-111.527,993.894-108.443,997.1-108.283Z" transform="translate(-916.912 644.733)" fill="none" stroke="#000" stroke-miterlimit="10" stroke-width="1"/>
              <path id="Trazado_729920" data-name="Trazado 729920" d="M1014.165-141.49a4.086,4.086,0,0,0,1.94.483,4.292,4.292,0,0,0,2.907-1.556,6.789,6.789,0,0,0,1.616-6.1c-1.074-4.192-6.744-5.829-9.563-2.238C1008.81-148.032,1011.26-142.938,1014.165-141.49Z" transform="translate(-897.915 623.802)" fill="none" stroke="#000" stroke-miterlimit="10" stroke-width="1"/>
              <path id="Trazado_729921" data-name="Trazado 729921" d="M996.8-135.442c-.045-4.8-3.747-9.432-2.3-14,1.363-4.293,6.373-5.946,10.237-8.26a22.846,22.846,0,0,0,10.646-15.649c.579-3.5.521-7.552,3.172-9.915,1.817-1.62,4.419-1.938,6.847-2.106a21.905,21.905,0,0,1,8.685.676c2.762.957,5.266,3.162,5.79,6.038.626,3.423-1.587,6.675-3.86,9.311s-4.854,5.387-5.182,8.849c-.3,3.184,1.394,6.463.421,9.51-1.045,3.277-4.716,4.888-8.077,5.626s-7.03,1.111-9.633,3.363c-2.466,2.135-3.425,5.529-3.811,8.769-.61,5.116-.386,15.832-8.258,14.97C993.095-119.181,996.846-130.3,996.8-135.442Z" transform="translate(-913.126 592.825)" fill="none" stroke="#000" stroke-miterlimit="10" stroke-width="1"/>
              <path id="Trazado_729922" data-name="Trazado 729922" d="M1009.784-164.566c.912-1.949.854-4.19.94-6.34a16.8,16.8,0,0,1,1.745-7.564,7.693,7.693,0,0,1,6.221-4.166,4.284,4.284,0,0,1,2.3.55c2.039,1.228,2.168,4.188,1.427,6.449a13.262,13.262,0,0,1-3.359,5.373,14.343,14.343,0,0,0-3.043,3.252c-.735,1.392-.714,3.041-1.024,4.585a10.714,10.714,0,0,1-3.85,6.252c-2.08,1.634-7.213,2.488-7.03-1.544C1004.228-160.266,1008.693-162.237,1009.784-164.566Z" transform="translate(-903.686 595.545)" fill="none" stroke="#000" stroke-miterlimit="10" stroke-width="1"/>
              <path id="Trazado_729923" data-name="Trazado 729923" d="M1064.5-283.3c11.773,5.211,23.3,12.929,29.027,24.835,9.457,19.661.378,42.987-.372,64.958a11.569,11.569,0,0,0,.944,6c2.37,4.3,8.876,3.749,12.491.521s5.392-8.085,8.016-12.22a31.264,31.264,0,0,1,20.517-13.972c6.359-1.148,13.423-.361,18.717-4.2,6.767-4.909,7.426-14.779,9.557-23.073,3.878-15.1,14.676-27.757,27.929-35.115s28.744-9.7,43.709-8.338c20.989,1.9,42.159,10.74,62.529,5.143,6.143-1.686,12.169-4.86,15.892-10.212,4.149-5.964,4.9-13.731,5.044-21.088.179-9.122-.6-18.971-6.227-25.972-5.89-7.328-15.626-9.738-24.728-10.993-29.578-4.076-59.562-.462-89.384.528a507.282,507.282,0,0,1-70.717-2.585c-25.6-2.731-51.17-7.42-76.89-6.391-16.434.657-51.58,10.132-43.792,34.943C1014.071-297.245,1045.91-291.523,1064.5-283.3Z" transform="translate(-902.219 431.3)" fill="none" stroke="#000" stroke-miterlimit="10" stroke-width="1"/>
              <path id="Trazado_729924" data-name="Trazado 729924" d="M1074.229-296.182c13.861,8.12,25.979,21.856,27.177,38.357.595,8.184-1.525,16.312-4.059,24.086-1.4,4.3-2.772,9.562.138,12.941,3.031,3.519,8.72,2.357,12.434-.365s6.613-6.677,10.738-8.66c3.934-1.889,8.73-1.844,12.114-4.659,5.517-4.591,4.121-13.458,5.5-20.665,3.93-20.546,31.958-33.6,48.879-39.854a119.644,119.644,0,0,1,66.493-5.018c6.617,1.435,13.206,3.449,19.965,3.41s13.945-2.536,17.776-8.328c5.1-7.714,2.417-18.932-3.956-25.543-9.254-9.6-22.227-10.721-34.368-11.929-15.378-1.532-29.713-.472-45.1.856-21.381,1.844-42.5-.926-63.7-.6-21.665.333-44.968.669-66.327-3.388-12.475-2.371-24.86-6.81-37.5-5.7-14.235,1.246-36.39,17.969-20.228,32.532,6.688,6.028,17.273,7.851,25.465,10.59C1055.445-304.855,1065.246-301.444,1074.229-296.182Z" transform="translate(-893.775 435.281)" fill="none" stroke="#000" stroke-miterlimit="10" stroke-width="1"/>
              <path id="Trazado_729925" data-name="Trazado 729925" d="M1023.433-331.383c1.193,2.018,3.3,3.3,5.4,4.347,13.165,6.57,28.676,6.9,42.118,12.877,20.384,9.067,33.76,31.859,31.738,54.078-.275,3.032-.807,6.1-.273,9.095s2.433,5.995,5.381,6.759c4.234,1.1,8.292-2.961,9.276-7.223s-.043-8.7-.179-13.07a32.265,32.265,0,0,1,8.221-22.386c5.168-5.718,12.2-9.366,18.074-14.358s10.824-12.383,9.372-19.951c-1.193-6.217-6.477-10.937-12.222-13.6-10.444-4.833-22.447-4.258-33.953-4.383a252.472,252.472,0,0,1-54.1-6.537c-6.3-1.456-11.364-3.215-17.706-1.369C1028.471-345.318,1018.89-339.052,1023.433-331.383Z" transform="translate(-886.458 438.629)" fill="none" stroke="#000" stroke-miterlimit="10" stroke-width="1"/>
              <path id="Trazado_729926" data-name="Trazado 729926" d="M1096.986-321.051c6.281,5.422,15.263,6.57,23.517,5.706s16.232-3.47,24.449-4.62a70.21,70.21,0,0,1,28.609,1.922c5.233,1.468,10.5,3.57,15.908,3s10.914-5.092,10.169-10.477c-.61-4.41-4.9-7.25-8.9-9.2a92.186,92.186,0,0,0-44.324-9.161c-10.208.464-20.769,2.589-30.419-.772-7.342-2.56-17.07-6.814-23.075,1.07C1088.016-337.153,1091.412-325.863,1096.986-321.051Z" transform="translate(-821.6 438.413)" fill="none" stroke="#000" stroke-miterlimit="10" stroke-width="1"/>
              <path id="Trazado_729927" data-name="Trazado 729927" d="M1067.289-323.68c2.148,3.267,3.581,7.016,6.143,9.968a16.852,16.852,0,0,0,14.368,5.6,16.85,16.85,0,0,0,12.75-8.673,12.528,12.528,0,0,1,1.862-3.047c1.456-1.486,3.946-2.014,4.714-3.948.711-1.79-.521-3.792-2.034-4.985-3.767-2.975-9.025-3.02-13.8-2.564s-9.767,1.252-14.253-.458c-2.624-1-4.862-2.79-7.326-4.135a23.847,23.847,0,0,0-14.1-2.735c-1.622.189-3.416.68-4.221,2.1C1048.768-331.928,1064.737-327.559,1067.289-323.68Z" transform="translate(-859.068 447.249)" fill="none" stroke="#000" stroke-miterlimit="10" stroke-width="1"/>
              <path id="Trazado_729928" data-name="Trazado 729928" d="M1124.635-332.394a6.645,6.645,0,0,0,2.807-3.252c1.027-3.164-1.958-6.239-5-7.6-5.412-2.416-31.173-4.168-26.989,7.593C1098.6-326.81,1118.853-328.508,1124.635-332.394Z" transform="translate(-817.38 441.374)" fill="none" stroke="#000" stroke-miterlimit="10" stroke-width="1"/>
            </g>
          </g>
        </g>
      </g>
    </g>
  </g>
</svg>
