<svg id="Grupo_1018760" data-name="Grupo 1018760" xmlns="http://www.w3.org/2000/svg" xmlns:xlink="http://www.w3.org/1999/xlink" width="118.261" height="117.439" viewBox="0 0 118.261 117.439">
  <defs>
    <clipPath id="clip-path">
      <rect id="Rect치ngulo_352567" data-name="Rect치ngulo 352567" width="54.029" height="53.899" fill="none"/>
    </clipPath>
  </defs>
  <g id="Grupo_156356" data-name="Grupo 156356" transform="translate(0 47.68)">
    <g id="Grupo_156332" data-name="Grupo 156332" transform="translate(0 0)">
      <path id="Trazado_99257" data-name="Trazado 99257" d="M418.612,104.881a2.2,2.2,0,1,1-2.2-2.1A2.153,2.153,0,0,1,418.612,104.881Z" transform="translate(-414.214 -102.779)" fill="#12263f"/>
      <path id="Trazado_116526" data-name="Trazado 116526" d="M418.612,104.881a2.2,2.2,0,1,1-2.2-2.1A2.153,2.153,0,0,1,418.612,104.881Z" transform="translate(-364.418 -102.779)" fill="#12263f"/>
      <path id="Trazado_99258" data-name="Trazado 99258" d="M427.058,104.881a2.2,2.2,0,1,1-2.2-2.1A2.152,2.152,0,0,1,427.058,104.881Z" transform="translate(-412.701 -102.779)" fill="#12263f"/>
      <path id="Trazado_116527" data-name="Trazado 116527" d="M427.058,104.881a2.2,2.2,0,1,1-2.2-2.1A2.152,2.152,0,0,1,427.058,104.881Z" transform="translate(-362.905 -102.779)" fill="#12263f"/>
      <path id="Trazado_99259" data-name="Trazado 99259" d="M435.5,104.881a2.2,2.2,0,1,1-2.2-2.1A2.152,2.152,0,0,1,435.5,104.881Z" transform="translate(-411.188 -102.779)" fill="#12263f"/>
      <path id="Trazado_116531" data-name="Trazado 116531" d="M435.5,104.881a2.2,2.2,0,1,1-2.2-2.1A2.152,2.152,0,0,1,435.5,104.881Z" transform="translate(-361.392 -102.779)" fill="#12263f"/>
      <path id="Trazado_99260" data-name="Trazado 99260" d="M443.951,104.881a2.2,2.2,0,1,1-2.2-2.1A2.152,2.152,0,0,1,443.951,104.881Z" transform="translate(-409.676 -102.779)" fill="#12263f"/>
      <path id="Trazado_116532" data-name="Trazado 116532" d="M443.951,104.881a2.2,2.2,0,1,1-2.2-2.1A2.152,2.152,0,0,1,443.951,104.881Z" transform="translate(-359.879 -102.779)" fill="#12263f"/>
      <path id="Trazado_99261" data-name="Trazado 99261" d="M452.4,104.881a2.2,2.2,0,1,1-2.2-2.1A2.152,2.152,0,0,1,452.4,104.881Z" transform="translate(-408.162 -102.779)" fill="#12263f"/>
    </g>
    <g id="Grupo_156331" data-name="Grupo 156331" transform="translate(0 10.924)">
      <ellipse id="Elipse_3975" data-name="Elipse 3975" cx="2.199" cy="2.103" rx="2.199" ry="2.103" transform="translate(0 0.001)" fill="#12263f"/>
      <ellipse id="Elipse_4742" data-name="Elipse 4742" cx="2.199" cy="2.103" rx="2.199" ry="2.103" transform="translate(49.796 0.001)" fill="#12263f"/>
      <path id="Trazado_99268" data-name="Trazado 99268" d="M427.058,112.389a2.2,2.2,0,1,1-2.2-2.1A2.153,2.153,0,0,1,427.058,112.389Z" transform="translate(-412.701 -110.287)" fill="#12263f"/>
      <path id="Trazado_116528" data-name="Trazado 116528" d="M427.058,112.389a2.2,2.2,0,1,1-2.2-2.1A2.153,2.153,0,0,1,427.058,112.389Z" transform="translate(-362.904 -110.287)" fill="#12263f"/>
      <ellipse id="Elipse_3976" data-name="Elipse 3976" cx="2.199" cy="2.103" rx="2.199" ry="2.103" transform="translate(19.918 0.001)" fill="#12263f"/>
      <ellipse id="Elipse_4743" data-name="Elipse 4743" cx="2.199" cy="2.103" rx="2.199" ry="2.103" transform="translate(69.715 0.001)" fill="#12263f"/>
      <path id="Trazado_99269" data-name="Trazado 99269" d="M443.951,112.389a2.2,2.2,0,1,1-2.2-2.1A2.154,2.154,0,0,1,443.951,112.389Z" transform="translate(-409.676 -110.287)" fill="#12263f"/>
      <path id="Trazado_116533" data-name="Trazado 116533" d="M443.951,112.389a2.2,2.2,0,1,1-2.2-2.1A2.154,2.154,0,0,1,443.951,112.389Z" transform="translate(-359.879 -110.287)" fill="#12263f"/>
      <path id="Trazado_99270" data-name="Trazado 99270" d="M452.4,112.389a2.2,2.2,0,1,1-2.2-2.1A2.153,2.153,0,0,1,452.4,112.389Z" transform="translate(-408.162 -110.287)" fill="#12263f"/>
    </g>
    <g id="Grupo_156330" data-name="Grupo 156330" transform="translate(0 21.85)">
      <path id="Trazado_99274" data-name="Trazado 99274" d="M418.612,119.9a2.2,2.2,0,1,1-2.2-2.1A2.154,2.154,0,0,1,418.612,119.9Z" transform="translate(-414.214 -117.794)" fill="#12263f"/>
      <path id="Trazado_116529" data-name="Trazado 116529" d="M418.612,119.9a2.2,2.2,0,1,1-2.2-2.1A2.154,2.154,0,0,1,418.612,119.9Z" transform="translate(-364.418 -117.794)" fill="#12263f"/>
      <path id="Trazado_99275" data-name="Trazado 99275" d="M427.058,119.9a2.2,2.2,0,1,1-2.2-2.1A2.153,2.153,0,0,1,427.058,119.9Z" transform="translate(-412.701 -117.794)" fill="#12263f"/>
      <path id="Trazado_116530" data-name="Trazado 116530" d="M427.058,119.9a2.2,2.2,0,1,1-2.2-2.1A2.153,2.153,0,0,1,427.058,119.9Z" transform="translate(-362.905 -117.794)" fill="#12263f"/>
      <path id="Trazado_99276" data-name="Trazado 99276" d="M435.5,119.9a2.2,2.2,0,1,1-2.2-2.1A2.153,2.153,0,0,1,435.5,119.9Z" transform="translate(-411.188 -117.794)" fill="#12263f"/>
      <path id="Trazado_116534" data-name="Trazado 116534" d="M435.5,119.9a2.2,2.2,0,1,1-2.2-2.1A2.153,2.153,0,0,1,435.5,119.9Z" transform="translate(-361.392 -117.794)" fill="#12263f"/>
      <path id="Trazado_99277" data-name="Trazado 99277" d="M443.951,119.9a2.2,2.2,0,1,1-2.2-2.1A2.154,2.154,0,0,1,443.951,119.9Z" transform="translate(-409.676 -117.794)" fill="#12263f"/>
      <path id="Trazado_116535" data-name="Trazado 116535" d="M443.951,119.9a2.2,2.2,0,1,1-2.2-2.1A2.154,2.154,0,0,1,443.951,119.9Z" transform="translate(-359.879 -117.794)" fill="#12263f"/>
      <path id="Trazado_99278" data-name="Trazado 99278" d="M452.4,119.9a2.2,2.2,0,1,1-2.2-2.1A2.153,2.153,0,0,1,452.4,119.9Z" transform="translate(-408.162 -117.794)" fill="#12263f"/>
    </g>
    <g id="Grupo_156327" data-name="Grupo 156327" transform="translate(0 54.626)">
      <path id="Trazado_116550" data-name="Trazado 116550" d="M418.612,119.9a2.2,2.2,0,1,1-2.2-2.1A2.154,2.154,0,0,1,418.612,119.9Z" transform="translate(-414.214 -117.794)" fill="#12263f"/>
      <path id="Trazado_116551" data-name="Trazado 116551" d="M418.612,119.9a2.2,2.2,0,1,1-2.2-2.1A2.154,2.154,0,0,1,418.612,119.9Z" transform="translate(-364.418 -117.794)" fill="#12263f"/>
      <path id="Trazado_116552" data-name="Trazado 116552" d="M427.058,119.9a2.2,2.2,0,1,1-2.2-2.1A2.153,2.153,0,0,1,427.058,119.9Z" transform="translate(-412.701 -117.794)" fill="#12263f"/>
      <path id="Trazado_116553" data-name="Trazado 116553" d="M427.058,119.9a2.2,2.2,0,1,1-2.2-2.1A2.153,2.153,0,0,1,427.058,119.9Z" transform="translate(-362.905 -117.794)" fill="#12263f"/>
      <path id="Trazado_116554" data-name="Trazado 116554" d="M435.5,119.9a2.2,2.2,0,1,1-2.2-2.1A2.153,2.153,0,0,1,435.5,119.9Z" transform="translate(-411.188 -117.794)" fill="#12263f"/>
      <path id="Trazado_116555" data-name="Trazado 116555" d="M435.5,119.9a2.2,2.2,0,1,1-2.2-2.1A2.153,2.153,0,0,1,435.5,119.9Z" transform="translate(-361.392 -117.794)" fill="#12263f"/>
      <path id="Trazado_116556" data-name="Trazado 116556" d="M443.951,119.9a2.2,2.2,0,1,1-2.2-2.1A2.154,2.154,0,0,1,443.951,119.9Z" transform="translate(-409.676 -117.794)" fill="#12263f"/>
      <path id="Trazado_116557" data-name="Trazado 116557" d="M443.951,119.9a2.2,2.2,0,1,1-2.2-2.1A2.154,2.154,0,0,1,443.951,119.9Z" transform="translate(-359.879 -117.794)" fill="#12263f"/>
      <path id="Trazado_116558" data-name="Trazado 116558" d="M452.4,119.9a2.2,2.2,0,1,1-2.2-2.1A2.153,2.153,0,0,1,452.4,119.9Z" transform="translate(-408.162 -117.794)" fill="#12263f"/>
    </g>
    <g id="Grupo_156329" data-name="Grupo 156329" transform="translate(0 32.776)">
      <ellipse id="Elipse_3980" data-name="Elipse 3980" cx="2.199" cy="2.103" rx="2.199" ry="2.103" transform="translate(0 0.002)" fill="#12263f"/>
      <ellipse id="Elipse_4744" data-name="Elipse 4744" cx="2.199" cy="2.103" rx="2.199" ry="2.103" transform="translate(49.796 0.002)" fill="#12263f"/>
      <path id="Trazado_99285" data-name="Trazado 99285" d="M427.058,127.406a2.2,2.2,0,1,1-2.2-2.1A2.151,2.151,0,0,1,427.058,127.406Z" transform="translate(-412.701 -125.302)" fill="#12263f"/>
      <path id="Trazado_116536" data-name="Trazado 116536" d="M427.058,127.406a2.2,2.2,0,1,1-2.2-2.1A2.151,2.151,0,0,1,427.058,127.406Z" transform="translate(-362.904 -125.302)" fill="#12263f"/>
      <ellipse id="Elipse_3981" data-name="Elipse 3981" cx="2.199" cy="2.103" rx="2.199" ry="2.103" transform="translate(19.918 0.002)" fill="#12263f"/>
      <ellipse id="Elipse_4745" data-name="Elipse 4745" cx="2.199" cy="2.103" rx="2.199" ry="2.103" transform="translate(69.715 0.002)" fill="#12263f"/>
      <path id="Trazado_99286" data-name="Trazado 99286" d="M443.951,127.406a2.2,2.2,0,1,1-2.2-2.1A2.152,2.152,0,0,1,443.951,127.406Z" transform="translate(-409.676 -125.302)" fill="#12263f"/>
      <path id="Trazado_116537" data-name="Trazado 116537" d="M443.951,127.406a2.2,2.2,0,1,1-2.2-2.1A2.152,2.152,0,0,1,443.951,127.406Z" transform="translate(-359.879 -125.302)" fill="#12263f"/>
      <path id="Trazado_99287" data-name="Trazado 99287" d="M452.4,127.406a2.2,2.2,0,1,1-2.2-2.1A2.151,2.151,0,0,1,452.4,127.406Z" transform="translate(-408.162 -125.302)" fill="#12263f"/>
    </g>
    <g id="Grupo_156326" data-name="Grupo 156326" transform="translate(0 65.553)">
      <ellipse id="Elipse_4754" data-name="Elipse 4754" cx="2.199" cy="2.103" rx="2.199" ry="2.103" transform="translate(0 0.001)" fill="#12263f"/>
      <ellipse id="Elipse_4750" data-name="Elipse 4750" cx="2.199" cy="2.103" rx="2.199" ry="2.103" transform="translate(49.796 0.001)" fill="#12263f"/>
      <path id="Trazado_116548" data-name="Trazado 116548" d="M427.058,127.406a2.2,2.2,0,1,1-2.2-2.1A2.151,2.151,0,0,1,427.058,127.406Z" transform="translate(-412.701 -125.302)" fill="#12263f"/>
      <path id="Trazado_116542" data-name="Trazado 116542" d="M427.058,127.406a2.2,2.2,0,1,1-2.2-2.1A2.151,2.151,0,0,1,427.058,127.406Z" transform="translate(-362.904 -125.302)" fill="#12263f"/>
      <ellipse id="Elipse_4751" data-name="Elipse 4751" cx="2.199" cy="2.103" rx="2.199" ry="2.103" transform="translate(19.918 0.001)" fill="#12263f"/>
      <ellipse id="Elipse_4752" data-name="Elipse 4752" cx="2.199" cy="2.103" rx="2.199" ry="2.103" transform="translate(69.715 0.001)" fill="#12263f"/>
      <path id="Trazado_116543" data-name="Trazado 116543" d="M443.951,127.406a2.2,2.2,0,1,1-2.2-2.1A2.152,2.152,0,0,1,443.951,127.406Z" transform="translate(-409.676 -125.302)" fill="#12263f"/>
      <path id="Trazado_116544" data-name="Trazado 116544" d="M443.951,127.406a2.2,2.2,0,1,1-2.2-2.1A2.152,2.152,0,0,1,443.951,127.406Z" transform="translate(-359.879 -125.302)" fill="#12263f"/>
      <path id="Trazado_116545" data-name="Trazado 116545" d="M452.4,127.406a2.2,2.2,0,1,1-2.2-2.1A2.151,2.151,0,0,1,452.4,127.406Z" transform="translate(-408.162 -125.302)" fill="#12263f"/>
    </g>
    <g id="Grupo_156328" data-name="Grupo 156328" transform="translate(0 43.702)">
      <ellipse id="Elipse_3985" data-name="Elipse 3985" cx="2.199" cy="2.103" rx="2.199" ry="2.103" transform="translate(0 0.001)" fill="#12263f"/>
      <ellipse id="Elipse_4746" data-name="Elipse 4746" cx="2.199" cy="2.103" rx="2.199" ry="2.103" transform="translate(49.796 0.001)" fill="#12263f"/>
      <path id="Trazado_99291" data-name="Trazado 99291" d="M427.058,134.914a2.2,2.2,0,1,1-2.2-2.1A2.151,2.151,0,0,1,427.058,134.914Z" transform="translate(-412.701 -132.81)" fill="#12263f"/>
      <path id="Trazado_116538" data-name="Trazado 116538" d="M427.058,134.914a2.2,2.2,0,1,1-2.2-2.1A2.151,2.151,0,0,1,427.058,134.914Z" transform="translate(-362.904 -132.81)" fill="#12263f"/>
      <ellipse id="Elipse_3986" data-name="Elipse 3986" cx="2.199" cy="2.103" rx="2.199" ry="2.103" transform="translate(19.918 0.001)" fill="#12263f"/>
      <ellipse id="Elipse_4747" data-name="Elipse 4747" cx="2.199" cy="2.103" rx="2.199" ry="2.103" transform="translate(69.715 0.001)" fill="#12263f"/>
      <path id="Trazado_99292" data-name="Trazado 99292" d="M443.951,134.914a2.2,2.2,0,1,1-2.2-2.1A2.152,2.152,0,0,1,443.951,134.914Z" transform="translate(-409.676 -132.81)" fill="#12263f"/>
      <path id="Trazado_116539" data-name="Trazado 116539" d="M443.951,134.914a2.2,2.2,0,1,1-2.2-2.1A2.152,2.152,0,0,1,443.951,134.914Z" transform="translate(-359.879 -132.81)" fill="#12263f"/>
      <path id="Trazado_99293" data-name="Trazado 99293" d="M452.4,134.914a2.2,2.2,0,1,1-2.2-2.1A2.151,2.151,0,0,1,452.4,134.914Z" transform="translate(-408.162 -132.81)" fill="#12263f"/>
    </g>
  </g>
  <g id="Grupo_1015138" data-name="Grupo 1015138" transform="translate(12.576 0)">
    <circle id="Elipse_8447" data-name="Elipse 8447" cx="52.842" cy="52.842" r="52.842" transform="translate(0)" fill="#6f88da"/>
    <circle id="Elipse_8448" data-name="Elipse 8448" cx="44.273" cy="44.273" r="44.273" transform="translate(8.569 8.569)" fill="#fff"/>
    <g id="Grupo_1018558" data-name="Grupo 1018558" transform="translate(27.087 23.861)">
      <g id="Grupo_1018558-2" data-name="Grupo 1018558" clip-path="url(#clip-path)">
        <path id="Trazado_731877" data-name="Trazado 731877" d="M21.555,53.913c-.321-.085-.644-.165-.962-.257A4.507,4.507,0,0,1,17.344,48.5c.142-1,.336-1.991.552-2.976a6.451,6.451,0,0,1,3.318-4.385c1.729-.954,3.55-1.744,5.342-2.582,1.252-.586,2.526-1.122,3.78-1.7a2.8,2.8,0,0,0,.576-.477,2.159,2.159,0,0,1,.374-.329c1.3-.66,2.6-1.308,3.934-1.974a1.816,1.816,0,0,0-.619-1.929,7.775,7.775,0,0,1-2.093-3.017.546.546,0,0,0-.614-.4,4.3,4.3,0,0,1-4.108-2.242,4.39,4.39,0,0,1,.091-4.642,1.658,1.658,0,0,0,.189-.786,24,24,0,0,1,.435-5.691A14.286,14.286,0,0,1,40.954,4.6c.889-.083,1.791-.007,2.685-.053a.914.914,0,0,0,.6-.343A9.644,9.644,0,0,1,52.67.019a9.9,9.9,0,0,1,9.452,10.929A9.641,9.641,0,0,1,59.6,16.456c-.754.828-1.516,1.649-2.259,2.456.55,1.035.438,1.392-.529,1.8v1.71c.467.142.891.373.869.968-.019.538-.371.785-.889.9,0,.355,0,.708,0,1.061a2.332,2.332,0,0,1-1.435,2.273c-.289.13-.4.283-.364.585.017.129-.007.262,0,.392.152,1.819-1.091,3.207-3.463,2.767a.627.627,0,0,0-.757.261,3.354,3.354,0,0,1-.414.457c-.806.824-.806.823-.73,1.988,1.068.529,2.149,1.031,3.2,1.6a11.58,11.58,0,0,1,1.263.947,2.366,2.366,0,0,0,.437.238c2.487,1.119,4.978,2.227,7.46,3.356A10.092,10.092,0,0,1,65.545,42.7,5.847,5.847,0,0,1,66.9,45.31c.233,1.077.474,2.157.619,3.248A4.509,4.509,0,0,1,63.617,53.8a1.882,1.882,0,0,0-.307.109H21.555M38.773,43.3c-.329.409-.551.683-.771.959-.724.912-1.221.9-1.931-.043-1.393-1.854-2.791-3.7-4.165-5.572a.521.521,0,0,0-.775-.2c-2.1.967-4.229,1.889-6.331,2.862a27.863,27.863,0,0,0-2.93,1.518,4.884,4.884,0,0,0-2.316,3.427c-.131.736-.277,1.469-.406,2.206A2.851,2.851,0,0,0,22.143,52.1c5.18.035,10.36.011,15.54.021.33,0,.442-.112.5-.432.455-2.329.94-4.652,1.389-6.983a1.026,1.026,0,0,0-.183-.635,7.119,7.119,0,0,0-.62-.767M47.8,20.76c-.95-.383-1.06-.736-.573-1.876L44.986,16.5a18.018,18.018,0,0,1-5.547,2.373c-1.957.433-3.947.715-5.963,1.071a58.219,58.219,0,0,0,.038,6.039,7.672,7.672,0,0,0,5.658,6.886,12.3,12.3,0,0,0,5.171.254,7.665,7.665,0,0,0,5.11-2.739.987.987,0,0,0,.24-.587c0-.52-.085-1.039-.088-1.559a.556.556,0,0,0-.375-.588,2.351,2.351,0,0,1-1.43-2.279V24.349c-.509-.163-.9-.425-.881-1.012.013-.557.383-.81.864-.955.006-.111.015-.2.015-.3,0-.43,0-.86,0-1.327m5.461-3.625c0,.355.023.713-.006,1.066-.036.448.112.592.587.635a1.945,1.945,0,0,0,2.08-1.035,19.771,19.771,0,0,1,2.329-2.646A7.881,7.881,0,0,0,57.956,4.2a7.678,7.678,0,0,0-6.583-2.287,8.062,8.062,0,0,0-7.158,7.6,8.148,8.148,0,0,0,2.52,6.2,10.619,10.619,0,0,1,1.817,2.049,1.928,1.928,0,0,0,2.288,1.074c.418-.067.538-.188.526-.583-.022-.71.026-1.424-.022-2.132A1.449,1.449,0,0,0,51,15.294c-.62-.673-1.3-1.293-1.944-1.943A.954.954,0,1,1,50.376,12c.544.513,1.085,1.03,1.609,1.564.236.24.409.247.648,0,.524-.534,1.065-1.051,1.608-1.565A.977.977,0,1,1,55.6,13.376a16.679,16.679,0,0,1-1.289,1.248,2.324,2.324,0,0,0-1.049,2.51M60.392,52.1c.9,0,1.706.045,2.506-.009a2.838,2.838,0,0,0,2.814-3.6c-.129-.755-.282-1.507-.417-2.261a4.958,4.958,0,0,0-2.233-3.361,13.33,13.33,0,0,0-1.8-1.019c-2.5-1.145-5.009-2.25-7.5-3.4-.392-.18-.575-.1-.815.23C51.531,40.6,50.1,42.5,48.671,44.393c-.535.71-1.133.709-1.7.014-.266-.328-.533-.654-.865-1.062a9.855,9.855,0,0,0-.714.811.725.725,0,0,0-.114.5q.692,3.55,1.422,7.092c.027.132.17.34.265.343.87.027,1.741.016,2.647.016,0-.881,0-1.683,0-2.486.005-.781.315-1.1,1.08-1.1q4.292-.006,8.584,0c.8,0,1.105.313,1.11,1.13,0,.8,0,1.6,0,2.451M37.1,34.117a1.621,1.621,0,0,0,.724,1.907,8.792,8.792,0,0,1,1.628,1.367A3.575,3.575,0,0,0,42.805,38.6c.219-.034.455.031.67-.014a1.786,1.786,0,0,0,.747-.279c1.018-.821,2.008-1.675,3.012-2.514a1.215,1.215,0,0,0,.457-1.606A14.911,14.911,0,0,1,37.1,34.117M31.687,21.573a2.613,2.613,0,0,0-2.489,1.59A2.557,2.557,0,0,0,29.6,26a2.422,2.422,0,0,0,2.087.926Zm17.948.848h5.337V20.694H49.635Zm-.023,1.86c0,.4,0,.753,0,1.105a.594.594,0,0,0,.615.657c1.4.018,2.8.029,4.2-.02.2-.007.491-.338.55-.568A4.906,4.906,0,0,0,55,24.281Zm-19.7-4.209c.877-.173.872-.173.879-.984A13.373,13.373,0,0,1,35.945,8.295c.095-.077.181-.164.345-.314-3.88,1.841-6.956,6.894-6.377,12.091m11.31,25.943-.66,3.321c1.185-.325,2.255-.615,3.321-.921a.311.311,0,0,0,.175-.243c-.124-.7-.271-1.393-.421-2.138-1.176,1-1.269,1-2.414-.019M57.017,50.36c-1.7,0-3.4.009-5.094-.007-.377,0-.472.143-.476.5-.015,1.131.016,1.167,1.155.972.092-.016.185-.025.277-.041a10.7,10.7,0,0,0,4.138-1.421M37.126,9.884a2.05,2.05,0,0,0-1.779,1.486c-.207.722.227,1.2.955,1.049a2.249,2.249,0,0,0,1.575-1.669.688.688,0,0,0-.751-.865M44.1,40.769a1.966,1.966,0,0,0-.554-.28,3.87,3.87,0,0,0-1.06,0,1.3,1.3,0,0,0-.7.342c-.38.408-.684.886-1.043,1.315a.411.411,0,0,0,.022.664c.217.212.389.308.665.1.77-.588,1.556-1.156,2.33-1.74a2.9,2.9,0,0,0,.345-.4m7.289-12.89c.118.579-.284,1.257.319,1.622a1.362,1.362,0,0,0,1.2,0c.587-.371.207-1.043.306-1.621ZM33.385,37.674l2.164-1.09.016-.179c-.215-.067-.477-.248-.638-.182-.631.258-1.23.594-1.879.92l.336.531M39.134,9.406c-.2-.138-.331-.278-.375-.254a4.623,4.623,0,0,0-.551.4c.087.094.215.283.254.266a5.287,5.287,0,0,0,.672-.414" transform="translate(-15.343 -0.014)"/>
        <path id="Trazado_731878" data-name="Trazado 731878" d="M453.011,177.817c-.147,1.089-.221,2.193-.458,3.262-.339,1.527-.779,3.033-1.215,4.536-.193.665-.645.889-1.182.692-.52-.19-.7-.651-.467-1.3a25.2,25.2,0,0,0,.158-16.869c-.066-.194-.143-.385-.2-.582a.876.876,0,0,1,.5-1.152.857.857,0,0,1,1.155.586,34.911,34.911,0,0,1,1.005,3.436c.277,1.312.4,2.655.6,3.984.024.164.066.324.1.486Z" transform="translate(-398.983 -147.619)"/>
        <path id="Trazado_731879" data-name="Trazado 731879" d="M40.954,3.52A15.556,15.556,0,0,1,40.243,5.2a1.245,1.245,0,0,0,.187,1.639c.64.729,1.183,1.542,1.779,2.311a.915.915,0,0,1-1.069,1.475c-2.138-.839-4.28-1.665-6.419-2.5-.7-.275-.961-.662-.668-1.354a5.858,5.858,0,0,0-.314-5.3,1.352,1.352,0,0,1-.13-.806A.823.823,0,0,1,34.788.084q2.806,1.34,5.58,2.745c.244.124.387.448.585.691M38.662,7.609a4.7,4.7,0,0,0-.321-.44,1.358,1.358,0,0,1-.232-1.736,6.727,6.727,0,0,0,.436-1.028c.043-.128.026-.386-.052-.43C37.748,3.551,36.983,3.16,36.3,2.8a11.031,11.031,0,0,1,.113,1.9,13,13,0,0,1-.5,1.951l2.752.96" transform="translate(-29.813 0.001)"/>
        <path id="Trazado_731880" data-name="Trazado 731880" d="M.159,176.324a27.21,27.21,0,0,1,1.68-9.335.884.884,0,1,1,1.673.55c-.04.144-.1.282-.137.426-.415,1.76-.948,3.5-1.214,5.286a23.69,23.69,0,0,0,1.12,11.171c.06.177.126.352.185.529.229.69.055,1.159-.492,1.336s-.949-.059-1.167-.734a24.921,24.921,0,0,1-.933-3.168c-.36-2-.59-4.024-.874-6.037l.159-.023" transform="translate(0 -147.587)"/>
        <path id="Trazado_731881" data-name="Trazado 731881" d="M41.281,204.536A23.455,23.455,0,0,1,42,198.984c.12-.477.344-.836.891-.851.647-.018.976.513.835,1.273-.2,1.083-.43,2.164-.557,3.257a19.308,19.308,0,0,0,.523,6.957c.123.491.2.977-.346,1.281a.868.868,0,0,1-1.314-.651,22.323,22.323,0,0,1-.745-5.715" transform="translate(-36.634 -175.831)"/>
        <path id="Trazado_731882" data-name="Trazado 731882" d="M420.553,204.586a23.047,23.047,0,0,1-.743,5.549,1.373,1.373,0,0,1-.585.8.917.917,0,0,1-.86-.137,1.275,1.275,0,0,1-.275-.937c.148-1.147.422-2.278.558-3.425a19.488,19.488,0,0,0-.5-6.846c-.026-.109-.061-.216-.078-.327a.869.869,0,0,1,.618-1.092.835.835,0,0,1,1.076.705c.246,1.169.466,2.345.639,3.526.105.719.1,1.454.149,2.182" transform="translate(-370.997 -175.839)"/>
        <path id="Trazado_731883" data-name="Trazado 731883" d="M81,234.951c.042-.586.07-1.165.127-1.741a.85.85,0,0,1,.884-.825.872.872,0,0,1,.87.91c.008,1.12.01,2.239,0,3.359a.862.862,0,0,1-.842.878.834.834,0,0,1-.905-.8c-.061-.594-.088-1.192-.129-1.784" transform="translate(-71.885 -206.228)"/>
        <path id="Trazado_731884" data-name="Trazado 731884" d="M385.484,235c-.041.569-.069,1.129-.124,1.687a.846.846,0,0,1-.925.838.878.878,0,0,1-.831-.948q0-1.624,0-3.247a.888.888,0,0,1,.83-.95.853.853,0,0,1,.928.837c.056.6.085,1.193.126,1.783" transform="translate(-340.423 -206.223)"/>
        <path id="Trazado_731885" data-name="Trazado 731885" d="M52.9,345.545a7.121,7.121,0,0,1,.62.767,1.026,1.026,0,0,1,.183.635c-.45,2.33-.934,4.653-1.389,6.983-.063.32-.175.433-.5.432-5.18-.01-10.36.014-15.54-.021a2.851,2.851,0,0,1-2.993-3.644c.128-.737.275-1.47.406-2.206A4.883,4.883,0,0,1,36,345.064a27.826,27.826,0,0,1,2.93-1.518c2.1-.972,4.226-1.9,6.33-2.862a.522.522,0,0,1,.775.2c1.374,1.868,2.772,3.718,4.165,5.573.711.947,1.207.955,1.931.043.219-.276.442-.551.771-.959" transform="translate(-29.475 -302.255)" fill="#d2e1f1"/>
        <path id="Trazado_731886" data-name="Trazado 731886" d="M174.9,150.76c0,.467,0,.9,0,1.327,0,.093-.009.185-.015.3-.481.145-.851.4-.864.955-.014.587.372.849.881,1.012v1.026a2.351,2.351,0,0,0,1.43,2.279.556.556,0,0,1,.375.588c0,.52.09,1.04.088,1.559a.988.988,0,0,1-.24.587,7.664,7.664,0,0,1-5.11,2.738,12.3,12.3,0,0,1-5.171-.254,7.672,7.672,0,0,1-5.658-6.886,58.22,58.22,0,0,1-.038-6.039c2.016-.355,4.006-.638,5.963-1.071a18.017,18.017,0,0,0,5.547-2.373l2.24,2.379c-.487,1.14-.377,1.493.573,1.876" transform="translate(-142.441 -130.014)" fill="#fff"/>
        <path id="Trazado_731887" data-name="Trazado 731887" d="M265.505,31.74a2.325,2.325,0,0,1,1.049-2.51,16.64,16.64,0,0,0,1.289-1.248.977.977,0,1,0-1.357-1.376c-.543.514-1.085,1.031-1.608,1.565-.239.244-.412.236-.648,0-.524-.533-1.065-1.05-1.609-1.564a.954.954,0,1,0-1.319,1.353c.646.65,1.323,1.27,1.944,1.943a1.449,1.449,0,0,1,.343.828c.048.708,0,1.421.022,2.132.012.395-.109.516-.526.583a1.928,1.928,0,0,1-2.288-1.074,10.616,10.616,0,0,0-1.817-2.049,8.148,8.148,0,0,1-2.52-6.2,8.062,8.062,0,0,1,7.158-7.6,7.678,7.678,0,0,1,6.583,2.287A7.881,7.881,0,0,1,270.5,29.76a19.77,19.77,0,0,0-2.329,2.646,1.944,1.944,0,0,1-2.08,1.035c-.475-.043-.623-.187-.587-.635.028-.353.006-.71.006-1.066m-1.579-13.575a6.131,6.131,0,0,0-4.8,3.063.9.9,0,0,0,.245,1.323.886.886,0,0,0,1.315-.269A4.66,4.66,0,0,1,264.7,20.02a.794.794,0,0,0,.792-.791c.081-.72-.32-1.074-1.565-1.064m-4.733,5.389a.932.932,0,1,0,.906.928.907.907,0,0,0-.906-.928" transform="translate(-227.588 -14.62)" fill="#ffca28"/>
        <path id="Trazado_731888" data-name="Trazado 731888" d="M281.026,354.448c0-.851,0-1.651,0-2.451,0-.817-.309-1.129-1.11-1.13q-4.292,0-8.584,0c-.765,0-1.075.321-1.08,1.1-.006.8,0,1.6,0,2.486-.905,0-1.777.011-2.647-.016-.094,0-.238-.211-.265-.343q-.728-3.542-1.422-7.092a.726.726,0,0,1,.114-.5,9.835,9.835,0,0,1,.714-.811c.332.407.6.734.865,1.062.563.7,1.161.7,1.7-.014,1.429-1.9,2.86-3.794,4.269-5.707.24-.326.423-.41.815-.23,2.5,1.146,5.009,2.25,7.5,3.4a13.312,13.312,0,0,1,1.8,1.019,4.958,4.958,0,0,1,2.233,3.361c.136.754.289,1.505.417,2.261a2.838,2.838,0,0,1-2.814,3.6c-.8.054-1.606.009-2.506.009" transform="translate(-235.976 -302.359)" fill="#d2e1f1"/>
        <path id="Trazado_731889" data-name="Trazado 731889" d="M192.85,302.974a14.911,14.911,0,0,0,10.586.071,1.216,1.216,0,0,1-.457,1.606c-1,.839-1.994,1.693-3.012,2.514a1.788,1.788,0,0,1-.747.279c-.215.045-.451-.02-.67.014a3.575,3.575,0,0,1-3.348-1.211,8.782,8.782,0,0,0-1.628-1.367,1.621,1.621,0,0,1-.724-1.907" transform="translate(-171.088 -268.871)" fill="#fff"/>
        <path id="Trazado_731890" data-name="Trazado 731890" d="M123.55,191.53v5.351a2.422,2.422,0,0,1-2.087-.926,2.557,2.557,0,0,1-.4-2.835,2.613,2.613,0,0,1,2.489-1.59" transform="translate(-107.206 -169.971)" fill="#fff"/>
        <rect id="Rect치ngulo_352566" data-name="Rect치ngulo 352566" width="5.337" height="1.727" transform="translate(34.292 20.68)" fill="#4adbd1"/>
        <path id="Trazado_731891" data-name="Trazado 731891" d="M304.443,215.589h5.387a4.907,4.907,0,0,1-.025,1.174c-.059.23-.352.561-.55.568-1.4.05-2.8.038-4.2.02a.594.594,0,0,1-.615-.657c-.006-.352,0-.7,0-1.105" transform="translate(-270.173 -191.322)" fill="#6f88da"/>
        <path id="Trazado_731892" data-name="Trazado 731892" d="M128.893,82.865c-.579-5.2,2.5-10.25,6.377-12.091-.164.15-.25.238-.345.314a13.373,13.373,0,0,0-5.153,10.793c-.007.811,0,.812-.879.984" transform="translate(-114.322 -62.808)" fill="#fff"/>
        <path id="Trazado_731893" data-name="Trazado 731893" d="M224.72,408.675c1.145,1.019,1.239,1.019,2.414.019.15.745.3,1.44.421,2.138a.31.31,0,0,1-.174.243c-1.066.306-2.136.6-3.321.921l.66-3.321" transform="translate(-198.84 -362.675)" fill="#fff"/>
        <path id="Trazado_731894" data-name="Trazado 731894" d="M326.313,447.234a10.7,10.7,0,0,1-4.138,1.421c-.092.016-.185.025-.277.041-1.14.195-1.17.159-1.155-.973,0-.353.1-.5.476-.5,1.7.015,3.4.007,5.094.007" transform="translate(-284.639 -396.888)" fill="#fff"/>
        <path id="Trazado_731895" data-name="Trazado 731895" d="M179.09,87.689a.688.688,0,0,1,.751.865,2.249,2.249,0,0,1-1.575,1.669c-.728.15-1.163-.327-.955-1.049a2.05,2.05,0,0,1,1.779-1.486" transform="translate(-157.307 -77.819)" fill="#fff"/>
        <path id="Trazado_731896" data-name="Trazado 731896" d="M227.772,359.583a2.892,2.892,0,0,1-.345.4c-.774.584-1.559,1.152-2.33,1.74-.276.211-.448.115-.665-.1a.411.411,0,0,1-.022-.664c.359-.429.663-.906,1.043-1.315a1.3,1.3,0,0,1,.7-.342,3.866,3.866,0,0,1,1.06,0,1.966,1.966,0,0,1,.554.28" transform="translate(-199.011 -318.828)" fill="#fff"/>
        <path id="Trazado_731897" data-name="Trazado 731897" d="M320.09,247.563h1.82c-.1.578.281,1.25-.306,1.621a1.362,1.362,0,0,1-1.2,0c-.6-.365-.2-1.044-.319-1.622" transform="translate(-284.039 -219.697)" fill="#727997"/>
        <path id="Trazado_731898" data-name="Trazado 731898" d="M157.634,323.029l-.336-.531c.648-.326,1.248-.661,1.879-.919.161-.066.423.115.638.182-.006.06-.011.119-.017.179l-2.165,1.09" transform="translate(-139.593 -285.369)" fill="#fff"/>
        <path id="Trazado_731899" data-name="Trazado 731899" d="M204.066,81.417a5.285,5.285,0,0,1-.672.414c-.039.017-.167-.172-.254-.266a4.623,4.623,0,0,1,.551-.4c.044-.024.177.116.375.254" transform="translate(-180.275 -72.025)" fill="#fff"/>
        <path id="Trazado_731900" data-name="Trazado 731900" d="M56.92,29.693l-2.752-.96a13,13,0,0,0,.5-1.951,11.031,11.031,0,0,0-.113-1.9c.682.36,1.447.751,2.193,1.175.078.044.1.3.052.43a6.727,6.727,0,0,1-.436,1.028,1.358,1.358,0,0,0,.232,1.736,4.7,4.7,0,0,1,.321.44" transform="translate(-48.071 -22.083)" fill="#ffca28"/>
        <path id="Trazado_731901" data-name="Trazado 731901" d="M283.55,31.5c1.245-.01,1.646.344,1.565,1.064a.794.794,0,0,1-.792.791,4.66,4.66,0,0,0-4.011,2.263.886.886,0,0,1-1.316.269.9.9,0,0,1-.246-1.323,6.132,6.132,0,0,1,4.8-3.063" transform="translate(-247.212 -27.954)"/>
        <path id="Trazado_731902" data-name="Trazado 731902" d="M273.247,79.381a.932.932,0,1,1-.956.935.9.9,0,0,1,.956-.935" transform="translate(-241.642 -70.446)"/>
      </g>
    </g>
  </g>
</svg>
