<svg id="Grupo_1019278" data-name="Grupo 1019278" xmlns="http://www.w3.org/2000/svg" xmlns:xlink="http://www.w3.org/1999/xlink" width="40.117" height="41.132" viewBox="0 0 40.117 41.132">
  <defs>
    <clipPath id="clip-path">
      <rect id="Rectángulo_352917" data-name="Rectángulo 352917" width="40.117" height="41.132" fill="none"/>
    </clipPath>
  </defs>
  <g id="Grupo_1019278-2" data-name="Grupo 1019278" clip-path="url(#clip-path)">
    <path id="Trazado_735612" data-name="Trazado 735612" d="M67.748,253.729q0,.057,0,.114h-.081v-.114h.081" transform="translate(-56.728 -212.712)" fill="#eeedef"/>
    <path id="Trazado_735613" data-name="Trazado 735613" d="M67.252,253.73c0,.038,0,.076,0,.114h-.08q0-.057,0-.114h.08" transform="translate(-56.313 -212.713)" fill="#fff"/>
    <path id="Trazado_735614" data-name="Trazado 735614" d="M66.751,253.732v.114h-.08q0-.056,0-.111l.081,0" transform="translate(-55.892 -212.714)" fill="#eeedef"/>
    <path id="Trazado_735615" data-name="Trazado 735615" d="M36.756,41.018l-.081,0a.9.9,0,0,1-.713-.99q0-.141,0-.281c.007-.247,0-.252-.26-.27a4.622,4.622,0,0,1-1.128-.2A5.206,5.206,0,0,1,33,38.516a6.7,6.7,0,0,1-1.05-1.058,4.91,4.91,0,0,1-.93-1.96,5,5,0,0,1-.133-1.26q0-9.906,0-19.812c0-.436.043-.5.389-.631l.079.009c.089.119.275.137.3.337a3.426,3.426,0,0,1,.033.354c0,.5-.005,1.006-.006,1.508,0,.046-.035.113.048.131.065.014.072-.045.1-.082a4.573,4.573,0,0,1,.814-.936,5.2,5.2,0,0,1,1.106-.746,5.018,5.018,0,0,1,1.66-.49c.133-.017.228-.047.227-.228-.007-1.824,0-3.648,0-5.472,0-.429-.005-.858,0-1.288,0-.1,0-.189-.149-.166a4.335,4.335,0,0,0-1.8.666,4.277,4.277,0,0,0-1.993,3.48c-.013.264-.081.481-.367.561-.342-.062-.43-.19-.429-.6,0-1.456,0-2.911,0-4.367,0-.483,0-.966.012-1.448A5.18,5.18,0,0,1,34.7.178,5.817,5.817,0,0,1,36.269,0h16q3.662,0,7.324,0a1.446,1.446,0,0,1,1.158.462,1.545,1.545,0,0,1,.3,1.112q0,2.969,0,5.937,0,15.224,0,30.449a1.575,1.575,0,0,1-.233.942,1.291,1.291,0,0,1-1.042.565c-.361.02-.724.006-1.086.006l-16.661,0c-.04,0-.08.007-.119.01s-.043.019-.027.049a4.6,4.6,0,0,1-.043.853.95.95,0,0,1-.791.636,1.144,1.144,0,0,1-.825-.354c-.4-.362-.8-.714-1.2-1.076-.075-.069-.118-.071-.194,0-.28.254-.565.5-.85.749q-.323.281-.65.557a.6.6,0,0,1-.413.122h-.161m5.138-2.695c0,.039,0,.079-.012.118-.032.175.022.26.217.239.163-.017.328-.008.492-.011.328,0,.657.008.985.008q7.131,0,14.261,0c.147,0,.195-.026.191-.184-.009-.442-.009-.886.014-1.327.01-.195-.05-.226-.227-.226q-5.079.007-10.158,0c-.081,0-.161,0-.241,0a.37.37,0,0,1-.358-.373c-.016-.22.075-.332.3-.39a1.645,1.645,0,0,1,.414-.04h9.876c.087,0,.175-.007.261,0,.111.011.135-.037.13-.138-.017-.387-.028-.775-.039-1.162,0-.055-.013-.092-.075-.092-.022-.02-.04-.017-.053.01-.02,0-.04,0-.06,0q-6.357,0-12.713,0c-.838,0-1.676.008-2.514.012l-.579-.012c-.083,0-.118.032-.118.12A8.945,8.945,0,0,1,41.865,36c-.015.118.037.149.146.144.193-.008.387-.006.58-.009l1.166.007a2.56,2.56,0,0,1,.554.037.386.386,0,0,1,.274.48c-.06.166-.161.28-.506.287-.5.01-.992.006-1.488.008-.193,0-.386,0-.578-.008-.112-.006-.154.031-.142.145.04.378.017.758.022,1.137-.032.015-.089,0-.09.049s.058.034.089.049m-6.016-3.569c-.022-.021-.039-.016-.054.008a6.312,6.312,0,0,0-.638.007c-.167,0-.335-.012-.5-.008a.5.5,0,0,1-.466-.242A.357.357,0,0,1,34.4,34a2.161,2.161,0,0,1,.731-.056q11.266,0,22.533,0a.87.87,0,0,0,.339-.016c.041,0,.045-.019.017-.047q0-.577,0-1.154c0-.063.025-.136-.054-.176,0-.033-.008-.068-.05-.06-.015,0-.023.037-.035.057-.033,0-.067.007-.1.007l-19.4,0c-.4,0-.791,0-1.186.005a.464.464,0,0,1-.4-.335.416.416,0,0,1,.272-.432,1.507,1.507,0,0,1,.533-.053H57.036c.282,0,.563,0,.845,0,.07,0,.16.022.15-.1a.036.036,0,0,0-.008-.054l-.012-.475.027-.163c.079-.064.072-.121-.012-.173a4.1,4.1,0,0,1,.011-.522c.027-.19-.031-.234-.218-.234q-10.853.007-21.7.006a4.8,4.8,0,0,0-1.1.122,4.21,4.21,0,0,0-2.62,1.858,4.04,4.04,0,0,0-.581,1.36,4.587,4.587,0,0,0-.089,1.59,4.529,4.529,0,0,0,.293,1.073,4.147,4.147,0,0,0,1.716,1.988,3.893,3.893,0,0,0,1.494.588,1.48,1.48,0,0,0,.49.07c.087-.008.2.068.259-.069.018-.022.017-.041-.009-.056q0-1.8-.006-3.606c0-.07.049-.17-.081-.188m.914.022-.015.031c-.026.337.04.676-.016,1.013,0,.073.008.146.008.22q0,1.984,0,3.967a.151.151,0,0,0,.025.158c0,.029-.058.075.024.086s.111-.034.156-.075c.319-.283.652-.551.953-.852.193-.193.42-.344.6-.545a.505.505,0,0,1,.8-.005c.2.188.393.373.6.546.31.254.593.542.891.812.054.049.1.137.2.095s.074-.132.075-.207q0-1.156,0-2.311c0-.63-.008-1.259-.012-1.889,0-.267,0-.535.007-.8.011-.251-.005-.287-.256-.27-.461.03-.922-.009-1.383,0-.835.01-1.671.009-2.506.012a.077.077,0,0,0-.108,0l-.051.022m23.448,3.418c.005-.059.016-.119.016-.178q0-3.719,0-7.437,0-.261,0-.523c0-.116-.047-.147-.147-.083a1.953,1.953,0,0,1-.277.045q-.442.009-.884,0c-.1,0-.123.031-.138.133a4.7,4.7,0,0,0,.034.667q-.006,3.608,0,7.216c0,.187-.009.374-.014.561,0,0-.009.011-.008.013a.168.168,0,0,0,.017.023c.021.014.042.039.063.039.255,0,.51,0,.765,0a.533.533,0,0,0,.575-.482M31.773,8.175A5.342,5.342,0,0,1,33.33,6.686a4.911,4.911,0,0,1,2.034-.733c.187-.022.3-.089.268-.312a3.209,3.209,0,0,1,0-.462c0-1.381,0-2.761,0-4.141,0-.182-.065-.224-.218-.195-.194.037-.39.069-.58.122a4.3,4.3,0,0,0-3.135,4c-.012,1.065,0,2.131-.005,3.2-.008.035,0,.068.039.067.014,0,.027-.035.041-.055M36.473.8c-.027-.028-.032-.012-.032.016,0,.047-.006.094-.006.141q0,7.375,0,14.75,0,6.6,0,13.2c0,.35-.049.312.3.312H59.491a.478.478,0,0,1,.2.007c.081.042.135,0,.2-.022.344-.132.362-.421.362-.728q0-13.4,0-26.8a2.692,2.692,0,0,0-.02-.361A.481.481,0,0,0,59.9.849a2.037,2.037,0,0,0-.49-.056Q47.941.8,36.473.8m-.837,17.444h-.01c0-1.126,0-2.253,0-3.379,0-.164-.064-.2-.2-.177a5.834,5.834,0,0,0-.825.191A4.308,4.308,0,0,0,32.676,16.2a4.145,4.145,0,0,0-.989,2.684c-.011.489.007.978.007,1.467,0,1.193,0,2.386,0,3.58,0,.047-.037.115.032.14.041.015.067-.032.089-.066a4.957,4.957,0,0,1,1.643-1.528,4.878,4.878,0,0,1,1.983-.662c.161-.016.2-.065.2-.217-.005-1.119,0-2.239,0-3.358M31.695,31.556c.167-.21.285-.385.429-.536a5.708,5.708,0,0,1,2.068-1.441,6.756,6.756,0,0,1,1.263-.324c.1-.018.181-.051.18-.2-.007-1.67,0-3.339,0-5.009,0-.429,0-.858,0-1.287,0-.116-.033-.154-.147-.145a3.384,3.384,0,0,0-.664.124,4.091,4.091,0,0,0-1.755.969,6.093,6.093,0,0,0-.846,1.1,3.981,3.981,0,0,0-.462,1.138A3.781,3.781,0,0,0,31.687,27c.024,1.267.009,2.535.008,3.8v.753" transform="translate(-25.896)" fill="#090b0b"/>
    <path id="Trazado_735616" data-name="Trazado 735616" d="M33.321,46.3c.286-.08.354-.3.367-.561a4.277,4.277,0,0,1,1.993-3.48,4.333,4.333,0,0,1,1.8-.666c.147-.023.149.061.148.166,0,.429,0,.858.005,1.288,0,1.824,0,3.648,0,5.472,0,.181-.094.211-.227.228a5.014,5.014,0,0,0-1.66.49,5.2,5.2,0,0,0-1.106.746,4.588,4.588,0,0,0-.814.936c-.024.037-.031.1-.1.082-.083-.017-.048-.085-.048-.131,0-.5.008-1.006.006-1.508a3.383,3.383,0,0,0-.033-.354c-.021-.2-.208-.218-.3-.337,0-.044.015-.1-.04-.122q0-.336,0-.671c.1-.073.258-.068.318-.212a.4.4,0,0,0-.357-.573,3.544,3.544,0,0,0,0-.543c.011-.084-.016-.173.038-.25" transform="translate(-27.898 -34.866)" fill="#9fa0a0"/>
    <path id="Trazado_735617" data-name="Trazado 735617" d="M2.376,101.193c0,.184-.14.233-.251.264a.945.945,0,0,0-.65.727c-.021.067-.035.137-.059.2a.246.246,0,0,1-.273.184c-.129-.011-.163-.12-.2-.217s-.051-.188-.08-.281a.964.964,0,0,0-.6-.611.451.451,0,0,1-.2-.12.225.225,0,0,1,.085-.365c.112-.064.241-.089.35-.161a.94.94,0,0,0,.355-.488c.041-.114.078-.23.115-.345a.213.213,0,0,1,.215-.158.216.216,0,0,1,.221.148c.046.113.075.234.115.349a.876.876,0,0,0,.6.617c.127.036.266.089.261.255m-1.169.406a.134.134,0,0,0,.035-.028,1.363,1.363,0,0,1,.285-.327c.035-.029.024-.071-.014-.1a.879.879,0,0,1-.248-.283c-.038-.064-.071-.073-.116,0a.954.954,0,0,1-.278.3c-.046.03-.057.051,0,.091a1.334,1.334,0,0,1,.3.315c.011.016.016.035.042.031" transform="translate(1.764 -81.645)" fill="#090b0b"/>
    <path id="Trazado_735618" data-name="Trazado 735618" d="M223.932,103.063a.312.312,0,0,1-.3-.272,1.323,1.323,0,0,0-.282-.69,1.622,1.622,0,0,0-.247-.193c-.139-.1-.305-.135-.434-.237-.211-.168-.2-.341.036-.484.113-.068.245-.1.365-.161a1.126,1.126,0,0,0,.537-.783,1.8,1.8,0,0,1,.084-.264.226.226,0,0,1,.225-.154.266.266,0,0,1,.262.165l.179.5a1.035,1.035,0,0,0,.721.669c.2.06.24.113.242.313,0,.137-.055.2-.241.26a1.091,1.091,0,0,0-.773.773c-.038.135-.084.268-.131.4a.218.218,0,0,1-.248.159m.443-1.6a.217.217,0,0,0-.035-.049,1.522,1.522,0,0,1-.363-.4c-.043-.065-.068-.011-.086.019a1.25,1.25,0,0,1-.346.376c-.053.038-.05.057,0,.1a1.072,1.072,0,0,1,.321.325c.052.091.1.1.157.005a1.2,1.2,0,0,1,.3-.329.611.611,0,0,0,.05-.045" transform="translate(-186.55 -97.479)" fill="#090b0b"/>
    <path id="Trazado_735619" data-name="Trazado 735619" d="M31.307,75.636a.4.4,0,0,1,.357.573c-.06.144-.214.139-.318.212a.423.423,0,0,1-.4-.542.4.4,0,0,1,.362-.242" transform="translate(-25.923 -63.409)" fill="#090b0b"/>
    <path id="Trazado_735620" data-name="Trazado 735620" d="M33.356,84.641c.055.027.038.078.04.122l-.079-.009c0-.041-.008-.087.038-.113" transform="translate(-27.932 -70.958)" fill="#f5d8ca"/>
    <path id="Trazado_735621" data-name="Trazado 735621" d="M98.841,244.284c-.015-.03,0-.045.027-.049l-.027.049" transform="translate(-82.857 -204.753)" fill="#5b5c5b"/>
    <path id="Trazado_735622" data-name="Trazado 735622" d="M65.2,4.913q11.468,0,22.937,0a2.022,2.022,0,0,1,.49.056.481.481,0,0,1,.332.463,2.665,2.665,0,0,1,.019.361q0,13.4,0,26.8c0,.307-.018.6-.362.728-.064.025-.118.064-.2.022a.478.478,0,0,0-.2-.007H65.458c-.353,0-.3.037-.3-.312q0-6.6,0-13.2,0-7.375,0-14.75c0-.047,0-.094.006-.141a.032.032,0,0,0,.032-.016M80.575,9.435a1.961,1.961,0,0,0-.607-.5c.129-.387-.109-.563-.4-.706a6.174,6.174,0,0,0-2.61-.608,5.137,5.137,0,0,0-2.023.386,5.742,5.742,0,0,0-3.623,4.915s-.011.008-.01.011a.16.16,0,0,0,.007.028,2.38,2.38,0,0,0-.015.612l-.006.077a.3.3,0,0,1-.272.081,1.483,1.483,0,0,0-.588.068,1.651,1.651,0,0,0-1.1,1.03,1.394,1.394,0,0,0-.051.783,1.589,1.589,0,0,0,1.335,1.293.293.293,0,0,1,.233.15c.26.455.53.9.792,1.359a2.3,2.3,0,0,0,1.495,1.239,4.449,4.449,0,0,0,.892.075c.168.005.165.043.122.167-.074.217-.212.4-.273.628-.054.2-.226.383-.26.556a4.395,4.395,0,0,1-.263.695c-.217.587-.5,1.149-.729,1.731-.162.418-.332.834-.5,1.248-.721,1.749-1.457,3.491-2.189,5.236a.46.46,0,0,0,.23.63c.12.061.357-.06.475-.243.025-.038.053-.075.079-.113.041.007.083.021.12-.012l.767-.011c.012.016.024.016.035,0h.126c.012.016.023.016.035,0h.126c.012.016.023.016.035,0h.126c.012.016.024.016.035,0h.126c.012.017.024.016.035,0H72.4c.012.017.024.016.035,0h.126c.012.017.024.016.035,0h.126c.012.017.024.016.035,0h.126c.012.017.024.016.035,0h.126c.012.017.024.016.035,0h.126c.012.017.024.016.035,0h.126q.018.025.035,0h.126q.018.025.035,0h.126c.012.017.024.016.035,0h.126c.012.016.024.016.035,0h.126c.012.017.024.016.035,0h.126q.018.025.035,0h.126c.012.016.024.016.035,0h.126c.012.017.024.016.035,0h.126c.012.017.024.016.035,0h.126c.012.017.024.016.035,0h.126q.018.025.035,0h.126c.012.017.024.016.035,0H75.3c.012.017.024.016.035,0h.126c.012.017.024.016.035,0h.126c.012.017.024.016.035,0h.126c.012.017.024.016.035,0h.126c.012.017.024.016.035,0H76.1c.012.017.024.016.035,0h.126c.012.017.024.016.035,0h.126c.012.017.024.016.035,0h.126c.012.017.024.016.035,0h.126c.012.017.024.016.035,0h.126c.012.017.024.016.035,0h.126c.012.017.024.016.035,0h.126c.012.017.024.016.035,0h.126c.012.017.024.016.035,0h.126c.012.017.024.016.035,0h.126c.012.017.024.016.035,0h.126c.012.017.024.016.035,0h.126c.012.017.024.016.035,0H78.2c.012.017.024.016.035,0h.126c.012.017.024.016.035,0h.126c.012.017.024.016.035,0h.126c.012.017.024.016.035,0h.126c.012.017.024.016.035,0H79c.012.017.024.016.035,0h.126c.012.017.024.016.035,0h.126c.012.017.024.016.035,0h.126c.012.017.024.016.035,0h.126c.012.017.024.016.035,0h.126c.012.017.024.016.035,0h.126c.012.017.024.016.035,0h.126c.012.017.024.016.035,0h.126c.012.017.024.016.035,0h.126c.012.017.024.016.035,0h.126c.012.017.024.016.035,0h.126c.012.017.024.016.035,0h.126c.012.017.024.016.035,0h.126c.012.017.024.016.035,0h.126c.012.017.024.016.035,0h.126c.012.017.024.016.035,0h.126c.012.017.024.016.035,0h.126c.012.017.024.016.035,0H81.9c.012.017.024.016.035,0h.126c.012.017.024.016.035,0h.125c.012.017.024.016.036,0h.125c.012.016.024.016.036,0h.125c.012.016.024.016.036,0H82.7c.012.016.023.016.035,0h.288a.044.044,0,0,0,.075,0l.287.018c.055.076.105.156.165.227a.35.35,0,0,0,.475.081.338.338,0,0,0,.18-.419,5.46,5.46,0,0,0-.333-.859c-.17-.376-.3-.768-.469-1.145-.29-.649-.552-1.31-.826-1.966q-.395-.948-.788-1.9-.414-1-.827-2c-.114-.276-.234-.55-.349-.825-.235-.564-.468-1.129-.714-1.724.228,0,.427.008.625,0a2.063,2.063,0,0,0,1.405-.578A5.287,5.287,0,0,0,82.7,18.03c.137-.228.271-.458.4-.691a.829.829,0,0,1,.611-.495,1.256,1.256,0,0,0,.776-.472,1.6,1.6,0,0,0,.35-1.229,1.532,1.532,0,0,0-.668-1.114,2.134,2.134,0,0,0-1.3-.3c-.158,0-.207-.046-.21-.206,0-.292,0-.583-.026-.877a5.688,5.688,0,0,0-.449-1.663.525.525,0,0,0-.573-.363.538.538,0,0,1-.152-.178,2.062,2.062,0,0,0-.331-.421c.012-.1.115-.143.126-.242A.364.364,0,0,0,81.1,9.4a.444.444,0,0,0-.522.037m6.719,8.629h0q0,2.445,0,4.89,0,3.4,0,6.8a.826.826,0,0,0,.133.5.357.357,0,0,0,.539.011.989.989,0,0,0,.169-.593q-.007-11.55,0-23.1a2.449,2.449,0,0,0-.033-.42c-.042-.243-.124-.333-.337-.351a.349.349,0,0,0-.423.28,1.038,1.038,0,0,0-.043.357q0,5.815,0,11.63M88.1,31.8a1.02,1.02,0,0,0-.028-.327c-.042-.112-.06-.23-.226-.235-.186-.005-.377-.017-.471.178a.954.954,0,0,0,.008.849.324.324,0,0,0,.366.21.413.413,0,0,0,.348-.363c.008-.086,0-.174,0-.311" transform="translate(-54.619 -4.115)" fill="#6f88da"/>
    <path id="Trazado_735623" data-name="Trazado 735623" d="M62.124,192.435l.012.475a.033.033,0,0,0,.008.054c.01.123-.081.1-.15.1-.282,0-.563,0-.845,0H41.713a1.506,1.506,0,0,0-.533.053.416.416,0,0,0-.272.432.464.464,0,0,0,.4.335c.4,0,.791-.006,1.186-.006l19.395,0c.033,0,.067,0,.1-.007l.085,0c.079.04.054.113.054.176q0,.577,0,1.154l-.016.047a.87.87,0,0,1-.339.016q-11.266,0-22.533,0a2.156,2.156,0,0,0-.731.056.357.357,0,0,0-.185.515.5.5,0,0,0,.467.243c.167,0,.334,0,.5.007a1.771,1.771,0,0,1,.043.627c-.006,1.069,0,2.137-.005,3.206a3.889,3.889,0,0,1-1.494-.588,4.145,4.145,0,0,1-1.716-1.988,4.526,4.526,0,0,1-.293-1.073,4.583,4.583,0,0,1,.089-1.59.168.168,0,0,0,.2-.058c.111-.115.156-.265.253-.384a5.465,5.465,0,0,1,.917-.887,4.291,4.291,0,0,1,2.674-.923q10.85-.012,21.7-.005a1.915,1.915,0,0,0,.455,0" transform="translate(-30.009 -161.324)" fill="#f5d8ca"/>
    <path id="Trazado_735624" data-name="Trazado 735624" d="M103.255,214.977c.838,0,1.676-.012,2.514-.012q6.356,0,12.713,0c.02,0,.04,0,.06,0l.053-.01c.062,0,.073.038.075.092.011.387.022.775.039,1.163,0,.1-.019.149-.13.138-.086-.009-.174,0-.261,0H108.44a1.647,1.647,0,0,0-.414.04c-.226.058-.318.17-.3.39a.37.37,0,0,0,.358.373c.08.007.161,0,.241,0q5.079,0,10.158,0c.176,0,.237.031.227.226-.023.441-.023.885-.014,1.327,0,.158-.045.184-.191.184q-7.131-.006-14.261,0c-.328,0-.657-.005-.985-.008a.947.947,0,0,0,.033-.255,13.276,13.276,0,0,1-.034-1.461c.5,0,.992,0,1.487-.008.346-.007.446-.121.506-.287a.386.386,0,0,0-.274-.48,2.557,2.557,0,0,0-.554-.037l-1.166-.007q0-.681,0-1.362m3.258,1.409a.368.368,0,0,0-.4.351.538.538,0,0,0,.386.451c.117.01.376-.277.376-.418a.377.377,0,0,0-.364-.384" transform="translate(-86.561 -180.205)" fill="#f5d8ca"/>
    <path id="Trazado_735625" data-name="Trazado 735625" d="M62.788,186.786a1.915,1.915,0,0,1-.455,0q-10.85,0-21.7.005a4.291,4.291,0,0,0-2.674.923,5.465,5.465,0,0,0-.917.887c-.1.119-.142.269-.253.384a.168.168,0,0,1-.2.058,4.034,4.034,0,0,1,.581-1.36,4.21,4.21,0,0,1,2.62-1.858,4.8,4.8,0,0,1,1.1-.122q10.853,0,21.7-.006c.188,0,.245.044.218.234a4.125,4.125,0,0,0-.011.522.147.147,0,0,0,.012.173l-.027.163" transform="translate(-30.673 -155.675)" fill="#d1b0a2"/>
    <path id="Trazado_735626" data-name="Trazado 735626" d="M39.741,94.367c0,1.119,0,2.239,0,3.358,0,.151-.038.2-.2.217a4.877,4.877,0,0,0-1.983.662,4.959,4.959,0,0,0-1.643,1.528c-.023.034-.048.081-.089.066-.069-.025-.032-.093-.032-.14,0-1.193,0-2.386,0-3.579,0-.489-.018-.979-.007-1.467a4.145,4.145,0,0,1,.989-2.684A4.3,4.3,0,0,1,38.713,91a5.831,5.831,0,0,1,.825-.191c.134-.025.2.013.2.178-.008,1.126,0,2.252,0,3.379Z" transform="translate(-30.002 -76.125)" fill="#9fa0a0"/>
    <path id="Trazado_735627" data-name="Trazado 735627" d="M35.8,148.826v-.753c0-1.267.016-2.535-.008-3.8a3.782,3.782,0,0,1,.072-1.051,3.981,3.981,0,0,1,.462-1.138,6.093,6.093,0,0,1,.846-1.1,4.092,4.092,0,0,1,1.755-.969,3.384,3.384,0,0,1,.664-.124c.113-.009.148.029.147.145-.006.429,0,.858,0,1.287,0,1.67,0,3.34,0,5.009,0,.149-.077.181-.18.2a6.757,6.757,0,0,0-1.263.324,5.708,5.708,0,0,0-2.068,1.441c-.144.151-.262.326-.429.536" transform="translate(-30.005 -117.27)" fill="#9fa0a0"/>
    <path id="Trazado_735628" data-name="Trazado 735628" d="M35.852,12.489c0-1.065-.006-2.131.005-3.2a4.3,4.3,0,0,1,3.135-4c.19-.053.386-.085.58-.122.154-.029.219.013.218.195-.008,1.381,0,2.761,0,4.142a3.209,3.209,0,0,0,0,.462c.033.223-.081.29-.268.312a4.909,4.909,0,0,0-2.034.733A5.342,5.342,0,0,0,35.932,12.5l-.08-.013" transform="translate(-30.055 -4.327)" fill="#9fa0a0"/>
    <path id="Trazado_735629" data-name="Trazado 735629" d="M67.214,225.548q0-1.983,0-3.967c0-.073-.005-.146-.008-.22.139-.014.277-.039.416-.04q1.753,0,3.506,0c.136,0,.271.025.407.039,0,.63.01,1.259.012,1.889q0,1.156,0,2.311c0,.075.028.165-.074.207s-.144-.046-.2-.095c-.3-.27-.581-.557-.891-.812-.211-.173-.409-.359-.6-.546a.505.505,0,0,0-.8.005c-.185.2-.411.352-.6.545-.3.3-.634.569-.953.852-.045.04-.086.083-.156.075s-.019-.057-.024-.086c0-.054.015-.11-.025-.158" transform="translate(-56.34 -185.542)" fill="#4adbd1"/>
    <path id="Trazado_735630" data-name="Trazado 735630" d="M203.568,194.041c0-.187.014-.374.014-.561q0-3.608,0-7.216a4.707,4.707,0,0,1-.034-.667c.014-.1.034-.135.138-.133q.442.008.884,0a1.941,1.941,0,0,0,.276-.045c.164.013.112.14.112.228q0,3.867,0,7.733c0,.086.011.173.017.259a.533.533,0,0,1-.575.482c-.255,0-.51,0-.765,0-.021,0-.042-.025-.063-.039a.032.032,0,0,0-.009-.036" transform="translate(-170.637 -155.442)" fill="#6f88da"/>
    <path id="Trazado_735631" data-name="Trazado 735631" d="M71.533,215.994c-.135-.014-.271-.038-.407-.039q-1.753,0-3.506,0c-.139,0-.277.026-.415.04.056-.337-.01-.676.016-1.013a.035.035,0,0,0,.015-.031l.051-.022.108,0c.835,0,1.671,0,2.506-.012.461-.006.921.033,1.383,0,.251-.016.267.02.256.27-.012.267-.006.535-.008.8" transform="translate(-56.341 -180.174)" fill="#3daca4"/>
    <path id="Trazado_735632" data-name="Trazado 735632" d="M57.5,218.833c0-1.069,0-2.138.005-3.206a1.767,1.767,0,0,0-.043-.627,6.366,6.366,0,0,1,.638-.007l.054-.008c.13.018.081.118.081.188q.005,1.8.006,3.606l.009.056c-.055.136-.172.061-.259.069a1.476,1.476,0,0,1-.49-.07" transform="translate(-48.176 -180.23)" fill="#d1b0a2"/>
    <path id="Trazado_735633" data-name="Trazado 735633" d="M99.533,228.536A13.315,13.315,0,0,0,99.567,230a.948.948,0,0,1-.033.255c-.164,0-.33-.006-.492.011-.2.021-.249-.064-.217-.239.007-.039.008-.079.012-.118s0-.065,0-.1c-.005-.379.018-.759-.022-1.137-.012-.114.029-.15.142-.145.192.009.385.006.578.008" transform="translate(-82.838 -191.584)" fill="#d1b0a2"/>
    <path id="Trazado_735634" data-name="Trazado 735634" d="M99.5,215.033q0,.681,0,1.362c-.193,0-.387,0-.58.008-.109,0-.161-.026-.146-.144a8.911,8.911,0,0,0,.027-1.119c0-.087.035-.122.118-.12l.579.012" transform="translate(-82.802 -180.261)" fill="#d1b0a2"/>
    <path id="Trazado_735635" data-name="Trazado 735635" d="M211.759,193.466c-.006-.086-.017-.173-.017-.259q0-3.867,0-7.733c0-.089.052-.215-.112-.228.1-.064.148-.034.148.082q0,.261,0,.523,0,3.719,0,7.437c0,.059-.01.119-.016.178" transform="translate(-177.416 -155.271)" fill="#2d9e4b"/>
    <path id="Trazado_735636" data-name="Trazado 735636" d="M198.643,190.541a.147.147,0,0,1-.012-.173c.084.052.091.11.012.173" transform="translate(-166.502 -159.594)" fill="#5b5c5b"/>
    <path id="Trazado_735637" data-name="Trazado 735637" d="M98.5,236.459c0,.033,0,.065,0,.1-.032-.015-.089,0-.089-.049s.058-.034.09-.049" transform="translate(-82.5 -198.234)" fill="#5b5c5b"/>
    <path id="Trazado_735638" data-name="Trazado 735638" d="M67.213,247.476c.04.048.025.1.025.158a.151.151,0,0,1-.025-.158" transform="translate(-56.338 -207.47)" fill="#b4331d"/>
    <path id="Trazado_735639" data-name="Trazado 735639" d="M35.843,50.491l.08.013c-.014.019-.027.054-.041.055-.041,0-.047-.032-.039-.067" transform="translate(-30.046 -42.329)" fill="#5b5c5b"/>
    <path id="Trazado_735640" data-name="Trazado 735640" d="M197.937,201.038l-.085,0c.011-.02.02-.054.035-.057.042-.008.048.028.05.06" transform="translate(-165.868 -168.487)" fill="#232626"/>
    <path id="Trazado_735641" data-name="Trazado 735641" d="M67.822,214.878l-.108,0a.077.077,0,0,1,.108,0" transform="translate(-56.767 -180.122)" fill="#232626"/>
    <path id="Trazado_735642" data-name="Trazado 735642" d="M65.259,4.862a.032.032,0,0,1-.032.016c0-.028,0-.043.032-.016" transform="translate(-54.682 -4.064)" fill="#232626"/>
    <path id="Trazado_735643" data-name="Trazado 735643" d="M198.684,195.441a.033.033,0,0,1-.008-.054.036.036,0,0,1,.008.054" transform="translate(-166.549 -163.801)" fill="#5b5c5b"/>
    <path id="Trazado_735644" data-name="Trazado 735644" d="M198.621,209.629l.017-.047c.029.028.024.044-.017.047" transform="translate(-166.512 -175.701)" fill="#5b5c5b"/>
    <path id="Trazado_735645" data-name="Trazado 735645" d="M61.467,214.915l-.054.008c.014-.025.032-.029.054-.008" transform="translate(-51.485 -180.161)" fill="#5b5c5b"/>
    <path id="Trazado_735646" data-name="Trazado 735646" d="M197.884,214.885l-.053.01c.013-.028.031-.031.053-.01" transform="translate(-165.85 -180.136)" fill="#5b5c5b"/>
    <path id="Trazado_735647" data-name="Trazado 735647" d="M67.319,215.123a.035.035,0,0,1-.015.031l.015-.031" transform="translate(-56.424 -180.347)" fill="#232626"/>
    <path id="Trazado_735648" data-name="Trazado 735648" d="M62.295,238.51l-.009-.056c.026.015.027.034.009.056" transform="translate(-52.217 -199.906)" fill="#5b5c5b"/>
    <path id="Trazado_735649" data-name="Trazado 735649" d="M203.667,238.767a.032.032,0,0,1,.009.036.168.168,0,0,1-.017-.023s.005-.008.008-.013" transform="translate(-170.736 -200.168)" fill="#232626"/>
    <path id="Trazado_735650" data-name="Trazado 735650" d="M9.337,111.27c-.026,0-.031-.015-.042-.031a1.334,1.334,0,0,0-.3-.315c-.053-.039-.042-.061,0-.091a.954.954,0,0,0,.278-.3c.045-.07.078-.06.116,0a.879.879,0,0,0,.248.283c.039.027.049.068.014.1a1.363,1.363,0,0,0-.285.327.134.134,0,0,1-.035.028" transform="translate(-6.366 -91.316)" fill="#ffca28"/>
    <path id="Trazado_735651" data-name="Trazado 735651" d="M232.4,110.909a.608.608,0,0,1-.05.045,1.2,1.2,0,0,0-.3.329c-.059.091-.105.086-.157-.005a1.072,1.072,0,0,0-.321-.325c-.052-.038-.056-.058,0-.1a1.25,1.25,0,0,0,.346-.376c.018-.03.042-.084.086-.019a1.522,1.522,0,0,0,.363.4.218.218,0,0,1,.035.049" transform="translate(-194.572 -106.926)" fill="#ffca28"/>
    <path id="Trazado_735652" data-name="Trazado 735652" d="M105.735,107.082h-.126a.028.028,0,0,0-.035,0h-.126a.028.028,0,0,0-.035,0h-.126a.028.028,0,0,0-.035,0h-.126a.028.028,0,0,0-.035,0h-.126a.028.028,0,0,0-.035,0H104.8a.028.028,0,0,0-.035,0h-.126a.028.028,0,0,0-.035,0h-.126a.028.028,0,0,0-.035,0h-.126a.028.028,0,0,0-.035,0h-.126a.028.028,0,0,0-.035,0H104a.028.028,0,0,0-.035,0h-.126a.028.028,0,0,0-.035,0h-.126a.028.028,0,0,0-.035,0h-.126a.028.028,0,0,0-.035,0h-.126a.028.028,0,0,0-.035,0h-.126a.028.028,0,0,0-.035,0h-.126a.027.027,0,0,0-.035,0h-.126a.028.028,0,0,0-.035,0h-.126a.027.027,0,0,0-.035,0h-.126a.028.028,0,0,0-.035,0h-.126a.028.028,0,0,0-.035,0h-.126a.028.028,0,0,0-.035,0h-.126a.028.028,0,0,0-.035,0h-.126a.028.028,0,0,0-.035,0h-.126a.028.028,0,0,0-.035,0h-.126a.028.028,0,0,0-.035,0h-.126a.028.028,0,0,0-.035,0h-.126a.028.028,0,0,0-.035,0H101.1a.028.028,0,0,0-.035,0h-.126a.028.028,0,0,0-.035,0h-.126a.027.027,0,0,0-.035,0h-.126a.027.027,0,0,0-.035,0h-.126a.028.028,0,0,0-.035,0l-.767.011-.114-.028a.2.2,0,0,1,.032-.151c.367-.773.672-1.571,1-2.36l1.124-2.708c.322-.776.642-1.553.975-2.324.4-.925.78-1.858,1.158-2.792a.221.221,0,0,1,.238-.161l3.661,0a.134.134,0,0,1,.147.091,7.639,7.639,0,0,1,.3.726c.154.413.339.814.511,1.218.306.72.6,1.445.906,2.165.158.374.288.762.465,1.126.152.312.247.645.4.958s.244.681.408,1c.209.408.348.843.532,1.26.16.364.334.726.461,1.105a6.634,6.634,0,0,1,.356.881l-.287-.018h-.363a.028.028,0,0,0-.035,0H111.4a.029.029,0,0,0-.036,0h-.125a.029.029,0,0,0-.036,0h-.125a.028.028,0,0,0-.036,0h-.125a.028.028,0,0,0-.035,0h-.126a.028.028,0,0,0-.035,0H110.6a.028.028,0,0,0-.035,0h-.126a.028.028,0,0,0-.035,0h-.126a.028.028,0,0,0-.035,0h-.126a.028.028,0,0,0-.035,0h-.126a.028.028,0,0,0-.035,0h-.126a.028.028,0,0,0-.035,0h-.126a.028.028,0,0,0-.035,0h-.126a.028.028,0,0,0-.035,0h-.126a.028.028,0,0,0-.035,0h-.126a.028.028,0,0,0-.035,0h-.126a.028.028,0,0,0-.035,0h-.126a.028.028,0,0,0-.035,0h-.126a.028.028,0,0,0-.035,0h-.126a.028.028,0,0,0-.035,0h-.126a.028.028,0,0,0-.035,0h-.126a.028.028,0,0,0-.035,0h-.126a.028.028,0,0,0-.035,0h-.126a.028.028,0,0,0-.035,0H107.7a.028.028,0,0,0-.035,0h-.126a.028.028,0,0,0-.035,0h-.126a.028.028,0,0,0-.035,0h-.126a.028.028,0,0,0-.035,0h-.126a.028.028,0,0,0-.035,0H106.9a.028.028,0,0,0-.035,0h-.126a.028.028,0,0,0-.035,0h-.126a.028.028,0,0,0-.035,0h-.126a.028.028,0,0,0-.035,0h-.126a.028.028,0,0,0-.035,0h-.126a.028.028,0,0,0-.035,0h-.126a.028.028,0,0,0-.035,0h-.126a.028.028,0,0,0-.035,0m3.095-2.957a.559.559,0,0,0-.08-.383.387.387,0,0,0-.346-.163.345.345,0,0,0-.32.243.685.685,0,0,0,.1.724.419.419,0,0,0,.467.011.391.391,0,0,0,.178-.433m-4.867-2.077c0-.04,0-.081,0-.121-.005-.171-.049-.328-.24-.365-.3-.057-.445.026-.528.255a.8.8,0,0,0-.035.353.38.38,0,0,0,.363.374c.351-.016.44-.116.44-.5m1.647-2.464c0,.075.005.122.008.169a.382.382,0,0,0,.331.4.407.407,0,0,0,.435-.345.716.716,0,0,0-.007-.366c-.026-.146-.086-.273-.248-.3-.283-.04-.433.024-.5.212a.846.846,0,0,0-.022.229" transform="translate(-83.445 -80.955)" fill="#ffca28"/>
    <path id="Trazado_735653" data-name="Trazado 735653" d="M104.594,44.317a6.609,6.609,0,0,0-.356-.881c-.127-.379-.3-.741-.461-1.105-.183-.417-.323-.852-.532-1.26-.163-.319-.252-.676-.408-1s-.246-.645-.4-.958c-.177-.365-.307-.752-.465-1.127-.305-.72-.6-1.445-.906-2.165-.172-.4-.357-.806-.511-1.219a7.681,7.681,0,0,0-.3-.726.134.134,0,0,0-.147-.091l-3.661,0a.222.222,0,0,0-.238.161c-.377.934-.758,1.867-1.157,2.792-.333.771-.654,1.548-.976,2.324l-1.123,2.708c-.327.789-.633,1.588-1,2.36a.2.2,0,0,0-.032.151l-.006.041c-.026.037-.054.074-.079.112-.118.183-.355.305-.475.243a.46.46,0,0,1-.23-.63c.732-1.744,1.468-3.487,2.189-5.236.171-.414.34-.83.5-1.248.226-.583.512-1.144.729-1.732a4.393,4.393,0,0,0,.263-.695c.034-.173.206-.357.26-.556.061-.225.2-.411.273-.628.042-.124.045-.162-.122-.167a4.473,4.473,0,0,1-.892-.075,2.3,2.3,0,0,1-1.495-1.239c-.262-.454-.532-.9-.792-1.359a.293.293,0,0,0-.233-.151,1.588,1.588,0,0,1-1.335-1.293,1.394,1.394,0,0,1,.051-.783,1.652,1.652,0,0,1,1.1-1.03,1.489,1.489,0,0,1,.588-.068.3.3,0,0,0,.272-.081c.03-.023.039-.049.006-.077a2.381,2.381,0,0,1,.015-.612l0-.039a5.742,5.742,0,0,1,3.623-4.915,5.135,5.135,0,0,1,2.023-.386,6.17,6.17,0,0,1,2.61.609c.3.143.533.319.4.706a.291.291,0,0,0-.09.033.444.444,0,0,1-.542.042,4.288,4.288,0,0,0-.6-.267,5.321,5.321,0,0,0-2.34-.288,4.688,4.688,0,0,0-2.044.716,4.91,4.91,0,0,0-1.632,1.7,4.44,4.44,0,0,0-.635,2.453c0,.03,0,.06,0,.089.012.128-.089.309.178.305q1.106-.015,2.212,0c.161,0,.221-.034.215-.208-.013-.422-.008-.845,0-1.267a2.273,2.273,0,0,1,1.056-1.932,2.152,2.152,0,0,1,1.745-.292,2.293,2.293,0,0,1,1.751,1.94,11.692,11.692,0,0,1,.039,1.3c.01.46.005.461.465.458q.986,0,1.971-.012c.05,0,.135.038.135-.066a8.72,8.72,0,0,0-.009-.945,4.683,4.683,0,0,0-.4-1.429.479.479,0,0,1,.165-.639.525.525,0,0,1,.573.363,5.693,5.693,0,0,1,.449,1.663c.029.294.021.585.026.877,0,.16.052.209.21.206a2.134,2.134,0,0,1,1.3.3,1.532,1.532,0,0,1,.668,1.114,1.594,1.594,0,0,1-.35,1.228,1.256,1.256,0,0,1-.776.472.829.829,0,0,0-.611.495c-.128.233-.262.463-.4.691a5.293,5.293,0,0,1-.763,1.119,2.062,2.062,0,0,1-1.405.578c-.2.01-.4,0-.625,0,.246.594.479,1.159.714,1.724.115.276.234.55.349.825q.415,1,.827,2,.393.948.788,1.9c.273.656.536,1.317.826,1.966.168.378.3.77.469,1.145a5.46,5.46,0,0,1,.333.859.338.338,0,0,1-.18.419.35.35,0,0,1-.475-.081c-.06-.072-.11-.151-.165-.227M99.7,27.6c0-.161-.015-.322-.005-.482a4.865,4.865,0,0,0-.013-.883,1.527,1.527,0,0,0-1.252-1.406,1.484,1.484,0,0,0-1.725,1.306c-.023.509,0,1.019-.008,1.529,0,.091.021.132.122.131q1.348-.007,2.7,0c.117,0,.175-.048.185-.161a.019.019,0,0,0,0-.031m4.771,1a.73.73,0,0,0-.336-.028q-3.975,0-7.95,0c-.058,0-.121-.021-.171.03l-.2,0c-.038-.057-.1-.035-.146-.035q-1.733,0-3.465.006A.407.407,0,0,0,92,28.6a.831.831,0,0,0-.728,1.006.946.946,0,0,0,.77.567q6.207-.008,12.413,0h.08a.789.789,0,0,0-.056-1.573m-6.2,2.378H96.6c-.084,0-.171-.007-.139.123.137.55.208,1.116.4,1.655a.3.3,0,0,0,.334.24c.7-.012,1.394-.008,2.092-.008.289,0,.3-.015.389-.291.161-.518.225-1.058.372-1.578.041-.145-.019-.143-.126-.142-.55,0-1.1,0-1.649,0M100.4,33c.509-.045.994.026,1.481-.048a1.212,1.212,0,0,0,.863-.477c.3-.426.547-.889.816-1.336.055-.091.061-.163-.084-.163q-1.237,0-2.474,0a.128.128,0,0,0-.15.117c-.151.624-.247,1.261-.452,1.907m-7.517-2.025c.034.154.14.234.2.341.21.371.413.747.65,1.1a1.171,1.171,0,0,0,.857.538c.454.058.908,0,1.36.036.132.009.135-.074.111-.149a14.1,14.1,0,0,1-.387-1.717c-.026-.135-.083-.152-.2-.152-.71,0-1.42,0-2.13,0h-.464" transform="translate(-75.824 -18.176)" fill="#090b0b"/>
    <path id="Trazado_735654" data-name="Trazado 735654" d="M108.038,31.557a4.442,4.442,0,0,1,.635-2.453,4.908,4.908,0,0,1,1.632-1.7,4.691,4.691,0,0,1,2.044-.716,5.32,5.32,0,0,1,2.34.288,4.287,4.287,0,0,1,.6.267.444.444,0,0,0,.542-.041.29.29,0,0,1,.09-.034,1.957,1.957,0,0,1,.607.5.388.388,0,0,0-.057.441.323.323,0,0,0,.338.2,1.228,1.228,0,0,0,.271-.045,2.062,2.062,0,0,1,.331.421.54.54,0,0,0,.152.178.479.479,0,0,0-.165.64,4.688,4.688,0,0,1,.4,1.429,8.718,8.718,0,0,1,.008.945c0,.1-.085.065-.135.065q-.985.009-1.971.012c-.46,0-.455,0-.465-.458a11.7,11.7,0,0,0-.039-1.3,2.294,2.294,0,0,0-1.751-1.94,2.153,2.153,0,0,0-1.745.292,2.272,2.272,0,0,0-1.056,1.932c0,.423-.01.845,0,1.267.005.174-.054.209-.215.208q-1.106-.01-2.213,0c-.267,0-.166-.177-.178-.305.019-.012.052-.021.055-.036.008-.039-.023-.051-.057-.053" transform="translate(-90.567 -22.348)" fill="#eeedef"/>
    <path id="Trazado_735655" data-name="Trazado 735655" d="M202.114,22.664q0-5.815,0-11.63a1.038,1.038,0,0,1,.043-.357.349.349,0,0,1,.423-.28c.213.019.295.108.337.351a2.449,2.449,0,0,1,.033.42q0,11.55,0,23.1a.989.989,0,0,1-.169.593.357.357,0,0,1-.539-.011.827.827,0,0,1-.133-.5q0-3.4,0-6.8,0-2.445,0-4.89Z" transform="translate(-169.439 -8.713)" fill="#afdff8"/>
    <path id="Trazado_735656" data-name="Trazado 735656" d="M202.834,168.325c0,.137.007.225,0,.311a.413.413,0,0,1-.348.363.324.324,0,0,1-.366-.21.954.954,0,0,1-.008-.849c.093-.195.284-.183.471-.178.165,0,.183.123.226.235a1.021,1.021,0,0,1,.028.327" transform="translate(-169.357 -140.641)" fill="#afdff8"/>
    <path id="Trazado_735657" data-name="Trazado 735657" d="M160.6,32.96a1.239,1.239,0,0,1-.271.045.323.323,0,0,1-.338-.2.388.388,0,0,1,.057-.441.444.444,0,0,1,.522-.037.364.364,0,0,1,.157.386c-.011.1-.114.146-.126.242" transform="translate(-134.091 -27.049)" fill="#090b0b"/>
    <path id="Trazado_735658" data-name="Trazado 735658" d="M99.536,161.549l.006-.041.114.028c-.037.033-.079.019-.12.012" transform="translate(-83.445 -135.399)" fill="#9fa0a0"/>
    <path id="Trazado_735659" data-name="Trazado 735659" d="M103.084,58.5c.033.028.024.054-.006.077,0-.026,0-.051.006-.077" transform="translate(-86.415 -49.047)" fill="#232626"/>
    <path id="Trazado_735660" data-name="Trazado 735660" d="M175.731,161.6h.075a.044.044,0,0,1-.075,0" transform="translate(-147.323 -135.474)" fill="#9fa0a0"/>
    <path id="Trazado_735661" data-name="Trazado 735661" d="M112.99,161.586a.028.028,0,0,1,.035,0c-.012.017-.023.017-.035,0" transform="translate(-94.724 -135.459)" fill="#9fa0a0"/>
    <path id="Trazado_735662" data-name="Trazado 735662" d="M134.9,161.586a.028.028,0,0,1,.035,0c-.012.017-.023.017-.035,0" transform="translate(-113.091 -135.459)" fill="#9fa0a0"/>
    <path id="Trazado_735663" data-name="Trazado 735663" d="M126.931,161.586a.028.028,0,0,1,.035,0c-.012.017-.023.017-.035,0" transform="translate(-106.412 -135.459)" fill="#9fa0a0"/>
    <path id="Trazado_735664" data-name="Trazado 735664" d="M127.927,161.585a.028.028,0,0,1,.035,0c-.011.017-.023.017-.035,0" transform="translate(-107.247 -135.458)" fill="#9fa0a0"/>
    <path id="Trazado_735665" data-name="Trazado 735665" d="M128.923,161.586a.028.028,0,0,1,.035,0c-.012.017-.023.017-.035,0" transform="translate(-108.082 -135.459)" fill="#9fa0a0"/>
    <path id="Trazado_735666" data-name="Trazado 735666" d="M129.919,161.586a.028.028,0,0,1,.035,0c-.012.017-.023.017-.035,0" transform="translate(-108.917 -135.459)" fill="#9fa0a0"/>
    <path id="Trazado_735667" data-name="Trazado 735667" d="M130.915,161.586a.028.028,0,0,1,.035,0c-.012.017-.023.017-.035,0" transform="translate(-109.752 -135.459)" fill="#9fa0a0"/>
    <path id="Trazado_735668" data-name="Trazado 735668" d="M131.91,161.586a.028.028,0,0,1,.035,0c-.012.017-.023.017-.035,0" transform="translate(-110.586 -135.459)" fill="#9fa0a0"/>
    <path id="Trazado_735669" data-name="Trazado 735669" d="M132.906,161.586a.028.028,0,0,1,.035,0c-.012.017-.023.017-.035,0" transform="translate(-111.421 -135.459)" fill="#9fa0a0"/>
    <path id="Trazado_735670" data-name="Trazado 735670" d="M124.94,161.586a.028.028,0,0,1,.035,0c-.012.017-.023.017-.035,0" transform="translate(-104.742 -135.459)" fill="#9fa0a0"/>
    <path id="Trazado_735671" data-name="Trazado 735671" d="M112,161.586a.028.028,0,0,1,.035,0c-.012.017-.023.017-.035,0" transform="translate(-93.89 -135.459)" fill="#9fa0a0"/>
    <path id="Trazado_735672" data-name="Trazado 735672" d="M136.889,161.586a.028.028,0,0,1,.035,0c-.012.017-.023.017-.035,0" transform="translate(-114.76 -135.459)" fill="#9fa0a0"/>
    <path id="Trazado_735673" data-name="Trazado 735673" d="M137.885,161.586a.028.028,0,0,1,.035,0c-.012.017-.023.017-.035,0" transform="translate(-115.595 -135.459)" fill="#9fa0a0"/>
    <path id="Trazado_735674" data-name="Trazado 735674" d="M138.881,161.586a.028.028,0,0,1,.035,0c-.012.017-.023.017-.035,0" transform="translate(-116.43 -135.459)" fill="#9fa0a0"/>
    <path id="Trazado_735675" data-name="Trazado 735675" d="M139.876,161.586a.028.028,0,0,1,.035,0c-.012.017-.023.017-.035,0" transform="translate(-117.264 -135.459)" fill="#9fa0a0"/>
    <path id="Trazado_735676" data-name="Trazado 735676" d="M140.872,161.586a.028.028,0,0,1,.035,0c-.012.017-.023.017-.035,0" transform="translate(-118.099 -135.459)" fill="#9fa0a0"/>
    <path id="Trazado_735677" data-name="Trazado 735677" d="M141.868,161.586a.028.028,0,0,1,.035,0c-.012.017-.023.017-.035,0" transform="translate(-118.934 -135.459)" fill="#9fa0a0"/>
    <path id="Trazado_735678" data-name="Trazado 735678" d="M142.864,161.586a.028.028,0,0,1,.035,0c-.012.017-.023.017-.035,0" transform="translate(-119.769 -135.459)" fill="#9fa0a0"/>
    <path id="Trazado_735679" data-name="Trazado 735679" d="M143.86,161.586a.028.028,0,0,1,.035,0c-.012.017-.023.017-.035,0" transform="translate(-120.604 -135.459)" fill="#9fa0a0"/>
    <path id="Trazado_735680" data-name="Trazado 735680" d="M144.855,161.586a.028.028,0,0,1,.035,0c-.012.017-.023.017-.035,0" transform="translate(-121.438 -135.459)" fill="#9fa0a0"/>
    <path id="Trazado_735681" data-name="Trazado 735681" d="M145.851,161.586a.028.028,0,0,1,.035,0c-.012.017-.023.017-.035,0" transform="translate(-122.273 -135.459)" fill="#9fa0a0"/>
    <path id="Trazado_735682" data-name="Trazado 735682" d="M146.847,161.586a.028.028,0,0,1,.035,0c-.012.017-.023.017-.035,0" transform="translate(-123.108 -135.459)" fill="#9fa0a0"/>
    <path id="Trazado_735683" data-name="Trazado 735683" d="M147.843,161.586a.028.028,0,0,1,.035,0c-.012.017-.023.017-.035,0" transform="translate(-123.943 -135.459)" fill="#9fa0a0"/>
    <path id="Trazado_735684" data-name="Trazado 735684" d="M148.839,161.586a.028.028,0,0,1,.035,0c-.012.017-.023.017-.035,0" transform="translate(-124.778 -135.459)" fill="#9fa0a0"/>
    <path id="Trazado_735685" data-name="Trazado 735685" d="M149.834,161.586a.028.028,0,0,1,.035,0c-.012.017-.023.017-.035,0" transform="translate(-125.612 -135.459)" fill="#9fa0a0"/>
    <path id="Trazado_735686" data-name="Trazado 735686" d="M150.83,161.586a.028.028,0,0,1,.035,0c-.012.017-.023.017-.035,0" transform="translate(-126.447 -135.459)" fill="#9fa0a0"/>
    <path id="Trazado_735687" data-name="Trazado 735687" d="M151.826,161.586a.028.028,0,0,1,.035,0c-.012.017-.023.017-.035,0" transform="translate(-127.282 -135.459)" fill="#9fa0a0"/>
    <path id="Trazado_735688" data-name="Trazado 735688" d="M152.822,161.586a.028.028,0,0,1,.035,0c-.012.017-.023.017-.035,0" transform="translate(-128.117 -135.459)" fill="#9fa0a0"/>
    <path id="Trazado_735689" data-name="Trazado 735689" d="M153.817,161.586a.028.028,0,0,1,.035,0c-.012.017-.023.017-.035,0" transform="translate(-128.951 -135.459)" fill="#9fa0a0"/>
    <path id="Trazado_735690" data-name="Trazado 735690" d="M154.813,161.586a.028.028,0,0,1,.035,0c-.012.017-.023.017-.035,0" transform="translate(-129.786 -135.459)" fill="#9fa0a0"/>
    <path id="Trazado_735691" data-name="Trazado 735691" d="M155.809,161.586a.028.028,0,0,1,.035,0c-.012.017-.023.017-.035,0" transform="translate(-130.621 -135.459)" fill="#9fa0a0"/>
    <path id="Trazado_735692" data-name="Trazado 735692" d="M156.8,161.586a.028.028,0,0,1,.035,0c-.012.017-.023.017-.035,0" transform="translate(-131.456 -135.459)" fill="#9fa0a0"/>
    <path id="Trazado_735693" data-name="Trazado 735693" d="M157.8,161.586a.028.028,0,0,1,.035,0c-.012.017-.023.017-.035,0" transform="translate(-132.291 -135.459)" fill="#9fa0a0"/>
    <path id="Trazado_735694" data-name="Trazado 735694" d="M158.8,161.586a.028.028,0,0,1,.035,0c-.012.017-.023.017-.035,0" transform="translate(-133.125 -135.459)" fill="#9fa0a0"/>
    <path id="Trazado_735695" data-name="Trazado 735695" d="M159.792,161.585a.028.028,0,0,1,.035,0q-.017.025-.035,0" transform="translate(-133.96 -135.458)" fill="#9fa0a0"/>
    <path id="Trazado_735696" data-name="Trazado 735696" d="M160.788,161.586a.028.028,0,0,1,.035,0c-.012.017-.023.017-.035,0" transform="translate(-134.795 -135.459)" fill="#9fa0a0"/>
    <path id="Trazado_735697" data-name="Trazado 735697" d="M161.784,161.586a.028.028,0,0,1,.035,0c-.012.017-.023.017-.035,0" transform="translate(-135.63 -135.459)" fill="#9fa0a0"/>
    <path id="Trazado_735698" data-name="Trazado 735698" d="M162.779,161.586a.028.028,0,0,1,.035,0c-.012.017-.023.017-.035,0" transform="translate(-136.464 -135.459)" fill="#9fa0a0"/>
    <path id="Trazado_735699" data-name="Trazado 735699" d="M163.775,161.586a.028.028,0,0,1,.035,0c-.012.017-.023.017-.035,0" transform="translate(-137.299 -135.459)" fill="#9fa0a0"/>
    <path id="Trazado_735700" data-name="Trazado 735700" d="M164.771,161.586a.028.028,0,0,1,.035,0c-.012.017-.023.017-.035,0" transform="translate(-138.134 -135.459)" fill="#9fa0a0"/>
    <path id="Trazado_735701" data-name="Trazado 735701" d="M165.767,161.586a.028.028,0,0,1,.035,0c-.012.017-.023.017-.035,0" transform="translate(-138.969 -135.459)" fill="#9fa0a0"/>
    <path id="Trazado_735702" data-name="Trazado 735702" d="M166.763,161.586a.028.028,0,0,1,.035,0c-.012.017-.023.017-.035,0" transform="translate(-139.804 -135.459)" fill="#9fa0a0"/>
    <path id="Trazado_735703" data-name="Trazado 735703" d="M167.758,161.586a.028.028,0,0,1,.035,0c-.012.017-.023.017-.035,0" transform="translate(-140.639 -135.459)" fill="#9fa0a0"/>
    <path id="Trazado_735704" data-name="Trazado 735704" d="M168.754,161.585a.028.028,0,0,1,.035,0c-.011.017-.023.017-.035,0" transform="translate(-141.474 -135.458)" fill="#9fa0a0"/>
    <path id="Trazado_735705" data-name="Trazado 735705" d="M169.749,161.585a.028.028,0,0,1,.035,0c-.012.017-.023.017-.035,0" transform="translate(-142.308 -135.458)" fill="#9fa0a0"/>
    <path id="Trazado_735706" data-name="Trazado 735706" d="M170.745,161.585a.028.028,0,0,1,.036,0c-.012.017-.023.017-.036,0" transform="translate(-143.143 -135.458)" fill="#9fa0a0"/>
    <path id="Trazado_735707" data-name="Trazado 735707" d="M171.74,161.582a.029.029,0,0,1,.036,0c-.011.017-.023.017-.036,0" transform="translate(-143.977 -135.455)" fill="#9fa0a0"/>
    <path id="Trazado_735708" data-name="Trazado 735708" d="M172.736,161.579a.029.029,0,0,1,.036,0c-.012.016-.024.017-.036,0" transform="translate(-144.812 -135.453)" fill="#9fa0a0"/>
    <path id="Trazado_735709" data-name="Trazado 735709" d="M173.733,161.577a.028.028,0,0,1,.035,0c-.011.016-.023.016-.035,0" transform="translate(-145.648 -135.452)" fill="#9fa0a0"/>
    <path id="Trazado_735710" data-name="Trazado 735710" d="M123.944,161.586a.028.028,0,0,1,.035,0c-.012.017-.023.017-.035,0" transform="translate(-103.907 -135.459)" fill="#9fa0a0"/>
    <path id="Trazado_735711" data-name="Trazado 735711" d="M111,161.586a.028.028,0,0,1,.035,0c-.012.017-.023.017-.035,0" transform="translate(-93.055 -135.459)" fill="#9fa0a0"/>
    <path id="Trazado_735712" data-name="Trazado 735712" d="M110,161.585a.028.028,0,0,1,.035,0c-.011.017-.023.017-.035,0" transform="translate(-92.22 -135.458)" fill="#9fa0a0"/>
    <path id="Trazado_735713" data-name="Trazado 735713" d="M109.007,161.585a.028.028,0,0,1,.035,0c-.011.017-.023.017-.035,0" transform="translate(-91.385 -135.458)" fill="#9fa0a0"/>
    <path id="Trazado_735714" data-name="Trazado 735714" d="M108.011,161.584a.028.028,0,0,1,.035,0c-.012.017-.023.017-.035,0" transform="translate(-90.55 -135.457)" fill="#9fa0a0"/>
    <path id="Trazado_735715" data-name="Trazado 735715" d="M107.016,161.583a.028.028,0,0,1,.035,0c-.012.017-.023.017-.035,0" transform="translate(-89.716 -135.456)" fill="#9fa0a0"/>
    <path id="Trazado_735716" data-name="Trazado 735716" d="M106.021,161.581a.027.027,0,0,1,.035,0c-.011.017-.023.017-.035,0" transform="translate(-88.882 -135.455)" fill="#9fa0a0"/>
    <path id="Trazado_735717" data-name="Trazado 735717" d="M105.023,161.584a.028.028,0,0,1,.036,0c-.012.017-.024.017-.036,0" transform="translate(-88.045 -135.457)" fill="#9fa0a0"/>
    <path id="Trazado_735718" data-name="Trazado 735718" d="M122.948,161.586a.028.028,0,0,1,.035,0c-.012.017-.023.017-.035,0" transform="translate(-103.072 -135.459)" fill="#9fa0a0"/>
    <path id="Trazado_735719" data-name="Trazado 735719" d="M121.952,161.585a.028.028,0,0,1,.035,0c-.011.017-.023.017-.035,0" transform="translate(-102.237 -135.458)" fill="#9fa0a0"/>
    <path id="Trazado_735720" data-name="Trazado 735720" d="M120.957,161.583a.027.027,0,0,1,.035,0c-.012.017-.023.017-.035,0" transform="translate(-101.403 -135.456)" fill="#9fa0a0"/>
    <path id="Trazado_735721" data-name="Trazado 735721" d="M119.96,161.585a.028.028,0,0,1,.035,0c-.012.017-.023.017-.035,0" transform="translate(-100.568 -135.458)" fill="#9fa0a0"/>
    <path id="Trazado_735722" data-name="Trazado 735722" d="M118.965,161.585a.028.028,0,0,1,.035,0c-.012.017-.023.017-.035,0" transform="translate(-99.733 -135.458)" fill="#9fa0a0"/>
    <path id="Trazado_735723" data-name="Trazado 735723" d="M117.969,161.585a.027.027,0,0,1,.035,0c-.011.017-.023.017-.035,0" transform="translate(-98.898 -135.458)" fill="#9fa0a0"/>
    <path id="Trazado_735724" data-name="Trazado 735724" d="M103.176,54.474c0,.013,0,.026,0,.04a.149.149,0,0,1-.007-.028s.007-.007.01-.011" transform="translate(-86.488 -45.668)" fill="#232626"/>
    <path id="Trazado_735725" data-name="Trazado 735725" d="M116.973,161.585a.028.028,0,0,1,.036,0c-.012.017-.023.017-.036,0" transform="translate(-98.063 -135.458)" fill="#9fa0a0"/>
    <path id="Trazado_735726" data-name="Trazado 735726" d="M115.978,161.585a.028.028,0,0,1,.035,0c-.011.017-.023.017-.035,0" transform="translate(-97.229 -135.458)" fill="#9fa0a0"/>
    <path id="Trazado_735727" data-name="Trazado 735727" d="M114.982,161.586a.028.028,0,0,1,.035,0c-.012.017-.023.017-.035,0" transform="translate(-96.394 -135.459)" fill="#9fa0a0"/>
    <path id="Trazado_735728" data-name="Trazado 735728" d="M113.986,161.586a.028.028,0,0,1,.035,0c-.012.017-.023.017-.035,0" transform="translate(-95.559 -135.459)" fill="#9fa0a0"/>
    <path id="Trazado_735729" data-name="Trazado 735729" d="M135.893,161.586a.028.028,0,0,1,.035,0c-.012.017-.023.017-.035,0" transform="translate(-113.925 -135.459)" fill="#9fa0a0"/>
    <path id="Trazado_735730" data-name="Trazado 735730" d="M133.9,161.586a.028.028,0,0,1,.035,0c-.012.017-.023.017-.035,0" transform="translate(-112.256 -135.459)" fill="#9fa0a0"/>
    <path id="Trazado_735731" data-name="Trazado 735731" d="M125.936,161.585a.028.028,0,0,1,.035,0c-.011.017-.023.017-.035,0" transform="translate(-105.577 -135.458)" fill="#9fa0a0"/>
    <path id="Trazado_735732" data-name="Trazado 735732" d="M121.356,223.812a.377.377,0,0,1,.364.384c0,.141-.259.429-.376.418a.538.538,0,0,1-.386-.451.368.368,0,0,1,.4-.351" transform="translate(-101.404 -187.631)" fill="#090b0b"/>
    <path id="Trazado_735733" data-name="Trazado 735733" d="M152.875,140.494a.391.391,0,0,1-.178.433.419.419,0,0,1-.467-.011.686.686,0,0,1-.1-.725.345.345,0,0,1,.32-.243.387.387,0,0,1,.346.163.56.56,0,0,1,.08.384" transform="translate(-127.49 -117.323)" fill="#090b0b"/>
    <path id="Trazado_735734" data-name="Trazado 735734" d="M122.73,127.875c0,.381-.088.48-.44.5a.38.38,0,0,1-.363-.374.8.8,0,0,1,.035-.353c.083-.229.227-.312.528-.255.19.036.235.194.24.365,0,.04,0,.08,0,.121" transform="translate(-102.213 -106.782)" fill="#090b0b"/>
    <path id="Trazado_735735" data-name="Trazado 735735" d="M137.106,112.9a.846.846,0,0,1,.022-.229c.065-.188.215-.252.5-.212.162.023.221.149.248.3a.716.716,0,0,1,.007.366.407.407,0,0,1-.435.345.382.382,0,0,1-.331-.4c0-.047,0-.094-.008-.169" transform="translate(-114.942 -94.27)" fill="#090b0b"/>
    <path id="Trazado_735736" data-name="Trazado 735736" d="M99.908,64.443l.2,0,4.5,0,3.957,0a.789.789,0,0,1,.056,1.573h-.081q-6.207,0-12.413,0a.947.947,0,0,1-.77-.567.831.831,0,0,1,.728-1.006l3.827,0m7.285,1.22c.174-.045.379-.018.474-.224a.386.386,0,0,0-.138-.535.655.655,0,0,0-.766.145.315.315,0,0,0-.017.355.591.591,0,0,0,.447.26m-4.883-.009c.29,0,.516-.153.533-.355.025-.307-.231-.51-.575-.44-.136.027-.3.03-.372.188a.315.315,0,0,0-.023.337c.107.153.224.3.437.27m-4.827.006a.721.721,0,0,0,.379-.153.31.31,0,0,0,.1-.345c-.041-.115-.073-.257-.229-.273a1.166,1.166,0,0,0-.467-.006.389.389,0,0,0-.3.287.345.345,0,0,0,.158.366.851.851,0,0,0,.359.125m7.278-.005a.561.561,0,0,0,.522-.3.4.4,0,0,0-.152-.425c-.1-.092-.235-.057-.342-.065a.433.433,0,0,0-.456.164.366.366,0,0,0,.014.416.567.567,0,0,0,.414.206m-4.836-.8a.6.6,0,0,0-.34.069.344.344,0,0,0-.173.436.541.541,0,0,0,.855.153.35.35,0,0,0-.085-.6,1.371,1.371,0,0,0-.257-.058" transform="translate(-79.909 -54.025)" fill="#4adbd1"/>
    <path id="Trazado_735737" data-name="Trazado 735737" d="M132.13,43.813c-.01.113-.068.161-.185.161q-1.348,0-2.7,0c-.1,0-.123-.041-.122-.131,0-.51-.016-1.02.008-1.529a1.484,1.484,0,0,1,1.725-1.306,1.527,1.527,0,0,1,1.252,1.406,4.867,4.867,0,0,1,.013.883c-.01.16,0,.321.005.482a.02.02,0,0,0,0,.031m-1.23-1.388a.431.431,0,0,0,.4.427.439.439,0,0,0,.408-.436.449.449,0,0,0-.409-.44.44.44,0,0,0-.4.45m-.6-.015c0-.313-.087-.406-.375-.4a.372.372,0,0,0-.389.421.407.407,0,0,0,.383.426c.262,0,.384-.14.382-.443" transform="translate(-108.249 -34.363)" fill="#2d9e4b"/>
    <path id="Trazado_735738" data-name="Trazado 735738" d="M129.461,79.15c.55,0,1.1,0,1.649,0,.108,0,.168,0,.126.142-.148.52-.211,1.06-.372,1.578-.086.276-.1.291-.389.291-.7,0-1.394,0-2.092.008a.3.3,0,0,1-.334-.24c-.189-.539-.259-1.1-.4-1.655-.032-.13.055-.124.139-.123h1.669" transform="translate(-107.011 -66.353)" fill="#9fa0a0"/>
    <path id="Trazado_735739" data-name="Trazado 735739" d="M152,81.179c.2-.646.3-1.283.452-1.907a.129.129,0,0,1,.15-.118q1.237,0,2.474,0c.146,0,.14.072.084.163-.269.447-.513.91-.816,1.336a1.211,1.211,0,0,1-.863.476c-.486.074-.972,0-1.481.048" transform="translate(-127.431 -66.358)" fill="#9fa0a0"/>
    <path id="Trazado_735740" data-name="Trazado 735740" d="M105.5,79.146h.464c.71,0,1.42,0,2.13,0,.114,0,.172.016.2.152a14.1,14.1,0,0,0,.387,1.717c.024.076.022.159-.111.149-.452-.032-.906.022-1.36-.036a1.171,1.171,0,0,1-.857-.538c-.237-.354-.439-.73-.65-1.1-.061-.107-.167-.187-.2-.341" transform="translate(-88.448 -66.35)" fill="#9fa0a0"/>
    <path id="Trazado_735741" data-name="Trazado 735741" d="M133.376,64.269l-3.957,0-4.5,0c.049-.052.113-.03.171-.03q3.975,0,7.95,0a.732.732,0,0,1,.336.028" transform="translate(-104.725 -53.851)" fill="#b4331d"/>
    <path id="Trazado_735742" data-name="Trazado 735742" d="M103.865,64.243l-3.827,0a.406.406,0,0,1,.215-.031l3.465-.007c.05,0,.108-.022.146.035" transform="translate(-83.866 -53.825)" fill="#b4331d"/>
    <path id="Trazado_735743" data-name="Trazado 735743" d="M108.073,56.97c.034,0,.065.014.057.053,0,.015-.036.024-.055.036,0-.03,0-.06,0-.089" transform="translate(-90.602 -47.76)" fill="#9fa0a0"/>
    <path id="Trazado_735744" data-name="Trazado 735744" d="M147.684,58.3a.02.02,0,0,1,0-.031.019.019,0,0,1,0,.031" transform="translate(-123.803 -48.848)" fill="#232626"/>
    <path id="Trazado_735745" data-name="Trazado 735745" d="M166.208,67.735a.591.591,0,0,1-.447-.26.315.315,0,0,1,.017-.355.655.655,0,0,1,.766-.145.386.386,0,0,1,.138.535c-.1.206-.3.179-.474.224" transform="translate(-138.925 -56.097)" fill="#090b0b"/>
    <path id="Trazado_735746" data-name="Trazado 735746" d="M136.089,67.741c-.214.032-.33-.117-.437-.27a.315.315,0,0,1,.023-.337c.076-.157.236-.16.373-.188.344-.069.6.134.575.44-.016.2-.242.355-.533.355" transform="translate(-113.688 -56.112)" fill="#090b0b"/>
    <path id="Trazado_735747" data-name="Trazado 735747" d="M105.986,67.82a.851.851,0,0,1-.359-.125.345.345,0,0,1-.158-.366.39.39,0,0,1,.3-.287,1.166,1.166,0,0,1,.467.007c.156.016.188.158.229.273a.31.31,0,0,1-.1.345.722.722,0,0,1-.379.153" transform="translate(-88.412 -56.185)" fill="#090b0b"/>
    <path id="Trazado_735748" data-name="Trazado 735748" d="M151.216,67.838a.567.567,0,0,1-.414-.206.366.366,0,0,1-.014-.416.433.433,0,0,1,.456-.164c.107.008.237-.027.342.065a.4.4,0,0,1,.152.425.561.561,0,0,1-.522.3" transform="translate(-126.364 -56.209)" fill="#090b0b"/>
    <path id="Trazado_735749" data-name="Trazado 735749" d="M121.013,66.968a1.371,1.371,0,0,1,.257.058.35.35,0,0,1,.085.6.541.541,0,0,1-.855-.153.344.344,0,0,1,.173-.436.6.6,0,0,1,.34-.069" transform="translate(-100.997 -56.142)" fill="#090b0b"/>
    <path id="Trazado_735750" data-name="Trazado 735750" d="M140.114,47.541a.44.44,0,0,1,.4-.45.449.449,0,0,1,.409.44.439.439,0,0,1-.408.436.431.431,0,0,1-.4-.427" transform="translate(-117.463 -39.478)" fill="#090b0b"/>
    <path id="Trazado_735751" data-name="Trazado 735751" d="M132.413,47.686c0,.3-.12.445-.382.443a.407.407,0,0,1-.383-.426.372.372,0,0,1,.389-.421c.288,0,.374.091.375.4" transform="translate(-110.366 -39.638)" fill="#090b0b"/>
  </g>
</svg>
