<svg xmlns="http://www.w3.org/2000/svg" xmlns:xlink="http://www.w3.org/1999/xlink" width="359.18" height="330.283" viewBox="0 0 359.18 330.283">
  <defs>
    <clipPath id="clip-path">
      <rect id="Rectángulo_352865" data-name="Rectángulo 352865" width="105.866" height="54.008" fill="#12263f"/>
    </clipPath>
    <clipPath id="clip-path-2">
      <rect id="Rectángulo_347427" data-name="Rectángulo 347427" width="359.18" height="300.531" fill="none"/>
    </clipPath>
    <filter id="Rectángulo_348377" x="-9" y="35.29" width="220.664" height="59.93" filterUnits="userSpaceOnUse">
      <feOffset dy="3" input="SourceAlpha"/>
      <feGaussianBlur stdDeviation="3" result="blur"/>
      <feFlood flood-opacity="0.161"/>
      <feComposite operator="in" in2="blur"/>
      <feComposite in="SourceGraphic"/>
    </filter>
    <clipPath id="clip-path-3">
      <rect id="Rectángulo_60203" data-name="Rectángulo 60203" width="20.146" height="42.606" fill="none"/>
    </clipPath>
    <clipPath id="clip-path-4">
      <rect id="Rectángulo_60217" data-name="Rectángulo 60217" width="9.218" height="7.272" fill="none"/>
    </clipPath>
    <clipPath id="clip-path-5">
      <rect id="Rectángulo_60218" data-name="Rectángulo 60218" width="0.018" height="0.129" fill="none"/>
    </clipPath>
    <clipPath id="clip-path-6">
      <rect id="Rectángulo_60219" data-name="Rectángulo 60219" width="0.099" height="0.014" fill="none"/>
    </clipPath>
    <clipPath id="clip-path-7">
      <rect id="Rectángulo_60220" data-name="Rectángulo 60220" width="18.074" height="13.031" fill="none"/>
    </clipPath>
    <clipPath id="clip-path-8">
      <rect id="Rectángulo_60222" data-name="Rectángulo 60222" width="20.627" height="22.113" fill="none"/>
    </clipPath>
    <clipPath id="clip-path-9">
      <rect id="Rectángulo_60223" data-name="Rectángulo 60223" width="25.619" height="29.277" fill="none"/>
    </clipPath>
  </defs>
  <g id="Grupo_1019444" data-name="Grupo 1019444" transform="translate(-253 7588.699)">
    <g id="Grupo_1019217" data-name="Grupo 1019217">
      <g id="Grupo_1019216" data-name="Grupo 1019216" transform="translate(187.658 -7517.533)">
        <path id="Trazado_145969" data-name="Trazado 145969" d="M55.835,0A55.835,55.835,0,1,1,0,55.835,55.835,55.835,0,0,1,55.835,0Z" transform="translate(80 -71.166)" fill="#ffca28" opacity="0.444" style="mix-blend-mode: multiply;isolation: isolate"/>
        <path id="Trazado_145971" data-name="Trazado 145971" d="M6.372,0A6.372,6.372,0,1,1,0,6.372,6.372,6.372,0,0,1,6.372,0Z" transform="translate(322.175 -10.331)" fill="#31313c" opacity="0.444" style="mix-blend-mode: multiply;isolation: isolate"/>
        <g id="Grupo_80270" data-name="Grupo 80270" transform="translate(254.038 124.887)">
          <path id="Trazado_145968" data-name="Trazado 145968" d="M62.679,0A62.679,62.679,0,1,1,0,62.679,62.679,62.679,0,0,1,62.679,0Z" transform="translate(0)" fill="#31313c" opacity="0.444" style="mix-blend-mode: multiply;isolation: isolate"/>
          <g id="Grupo_78276" data-name="Grupo 78276" transform="translate(24.472 25.912)">
            <g id="Grupo_53306" data-name="Grupo 53306">
              <path id="Trazado_99200" data-name="Trazado 99200" d="M415.916,51.038a.852.852,0,1,1-.852-.814A.833.833,0,0,1,415.916,51.038Z" transform="translate(-414.214 -50.224)" fill="#fff"/>
              <path id="Trazado_99201" data-name="Trazado 99201" d="M424.362,51.038a.852.852,0,1,1-.851-.814A.833.833,0,0,1,424.362,51.038Z" transform="translate(-415 -50.224)" fill="#fff"/>
              <path id="Trazado_99202" data-name="Trazado 99202" d="M432.808,51.038a.852.852,0,1,1-.851-.814A.833.833,0,0,1,432.808,51.038Z" transform="translate(-415.787 -50.224)" fill="#fff"/>
              <path id="Trazado_99203" data-name="Trazado 99203" d="M441.255,51.038a.852.852,0,1,1-.852-.814A.833.833,0,0,1,441.255,51.038Z" transform="translate(-416.573 -50.224)" fill="#fff"/>
              <path id="Trazado_99204" data-name="Trazado 99204" d="M449.7,51.038a.852.852,0,1,1-.851-.814A.833.833,0,0,1,449.7,51.038Z" transform="translate(-417.359 -50.224)" fill="#fff"/>
              <path id="Trazado_99205" data-name="Trazado 99205" d="M458.147,51.038a.852.852,0,1,1-.851-.814A.833.833,0,0,1,458.147,51.038Z" transform="translate(-418.146 -50.224)" fill="#fff"/>
              <path id="Trazado_99206" data-name="Trazado 99206" d="M466.594,51.038a.852.852,0,1,1-.852-.814A.834.834,0,0,1,466.594,51.038Z" transform="translate(-418.932 -50.224)" fill="#fff"/>
              <path id="Trazado_99207" data-name="Trazado 99207" d="M475.04,51.038a.852.852,0,1,1-.851-.814A.833.833,0,0,1,475.04,51.038Z" transform="translate(-419.718 -50.224)" fill="#fff"/>
              <path id="Trazado_99208" data-name="Trazado 99208" d="M483.486,51.038a.852.852,0,1,1-.851-.814A.833.833,0,0,1,483.486,51.038Z" transform="translate(-420.504 -50.224)" fill="#fff"/>
              <path id="Trazado_99209" data-name="Trazado 99209" d="M491.933,51.038a.852.852,0,1,1-.852-.814A.834.834,0,0,1,491.933,51.038Z" transform="translate(-421.291 -50.224)" fill="#fff"/>
              <path id="Trazado_99210" data-name="Trazado 99210" d="M500.379,51.038a.852.852,0,1,1-.852-.814A.833.833,0,0,1,500.379,51.038Z" transform="translate(-422.077 -50.224)" fill="#fff"/>
            </g>
            <g id="Grupo_53307" data-name="Grupo 53307" transform="translate(0 6.512)">
              <path id="Trazado_99211" data-name="Trazado 99211" d="M415.916,58.546a.852.852,0,1,1-.852-.814A.833.833,0,0,1,415.916,58.546Z" transform="translate(-414.214 -57.732)" fill="#fff"/>
              <path id="Trazado_99212" data-name="Trazado 99212" d="M424.362,58.546a.852.852,0,1,1-.851-.814A.833.833,0,0,1,424.362,58.546Z" transform="translate(-415 -57.732)" fill="#fff"/>
              <path id="Trazado_99213" data-name="Trazado 99213" d="M432.808,58.546a.852.852,0,1,1-.851-.814A.833.833,0,0,1,432.808,58.546Z" transform="translate(-415.787 -57.732)" fill="#fff"/>
              <path id="Trazado_99214" data-name="Trazado 99214" d="M441.255,58.546a.852.852,0,1,1-.852-.814A.833.833,0,0,1,441.255,58.546Z" transform="translate(-416.573 -57.732)" fill="#fff"/>
              <path id="Trazado_99215" data-name="Trazado 99215" d="M449.7,58.546a.852.852,0,1,1-.851-.814A.833.833,0,0,1,449.7,58.546Z" transform="translate(-417.359 -57.732)" fill="#fff"/>
              <path id="Trazado_99216" data-name="Trazado 99216" d="M458.147,58.546a.852.852,0,1,1-.851-.814A.833.833,0,0,1,458.147,58.546Z" transform="translate(-418.146 -57.732)" fill="#fff"/>
              <path id="Trazado_99217" data-name="Trazado 99217" d="M466.594,58.546a.852.852,0,1,1-.852-.814A.834.834,0,0,1,466.594,58.546Z" transform="translate(-418.932 -57.732)" fill="#fff"/>
              <path id="Trazado_99218" data-name="Trazado 99218" d="M475.04,58.546a.852.852,0,1,1-.851-.814A.833.833,0,0,1,475.04,58.546Z" transform="translate(-419.718 -57.732)" fill="#fff"/>
              <path id="Trazado_99219" data-name="Trazado 99219" d="M483.486,58.546a.852.852,0,1,1-.851-.814A.833.833,0,0,1,483.486,58.546Z" transform="translate(-420.504 -57.732)" fill="#fff"/>
              <path id="Trazado_99220" data-name="Trazado 99220" d="M491.933,58.546a.852.852,0,1,1-.852-.814A.834.834,0,0,1,491.933,58.546Z" transform="translate(-421.291 -57.732)" fill="#fff"/>
              <path id="Trazado_99221" data-name="Trazado 99221" d="M500.379,58.546a.852.852,0,1,1-.852-.814A.833.833,0,0,1,500.379,58.546Z" transform="translate(-422.077 -57.732)" fill="#fff"/>
            </g>
            <g id="Grupo_53308" data-name="Grupo 53308" transform="translate(0 13.023)">
              <ellipse id="Elipse_3955" data-name="Elipse 3955" cx="0.851" cy="0.814" rx="0.851" ry="0.814" fill="#fff"/>
              <path id="Trazado_99222" data-name="Trazado 99222" d="M424.362,66.054a.852.852,0,1,1-.851-.814A.833.833,0,0,1,424.362,66.054Z" transform="translate(-415 -65.24)" fill="#fff"/>
              <ellipse id="Elipse_3956" data-name="Elipse 3956" cx="0.851" cy="0.814" rx="0.851" ry="0.814" transform="translate(15.32)" fill="#fff"/>
              <path id="Trazado_99223" data-name="Trazado 99223" d="M441.255,66.054a.852.852,0,1,1-.852-.814A.834.834,0,0,1,441.255,66.054Z" transform="translate(-416.573 -65.24)" fill="#fff"/>
              <path id="Trazado_99224" data-name="Trazado 99224" d="M449.7,66.054a.852.852,0,1,1-.851-.814A.834.834,0,0,1,449.7,66.054Z" transform="translate(-417.359 -65.24)" fill="#fff"/>
              <ellipse id="Elipse_3957" data-name="Elipse 3957" cx="0.851" cy="0.814" rx="0.851" ry="0.814" transform="translate(38.3)" fill="#fff"/>
              <path id="Trazado_99225" data-name="Trazado 99225" d="M466.594,66.054a.852.852,0,1,1-.852-.814A.834.834,0,0,1,466.594,66.054Z" transform="translate(-418.932 -65.24)" fill="#fff"/>
              <ellipse id="Elipse_3958" data-name="Elipse 3958" cx="0.851" cy="0.814" rx="0.851" ry="0.814" transform="translate(53.62)" fill="#fff"/>
              <ellipse id="Elipse_3959" data-name="Elipse 3959" cx="0.851" cy="0.814" rx="0.851" ry="0.814" transform="translate(61.28)" fill="#fff"/>
              <path id="Trazado_99226" data-name="Trazado 99226" d="M491.933,66.054a.852.852,0,1,1-.852-.814A.834.834,0,0,1,491.933,66.054Z" transform="translate(-421.291 -65.24)" fill="#fff"/>
              <path id="Trazado_99227" data-name="Trazado 99227" d="M500.379,66.054a.852.852,0,1,1-.852-.814A.834.834,0,0,1,500.379,66.054Z" transform="translate(-422.077 -65.24)" fill="#fff"/>
            </g>
            <g id="Grupo_53309" data-name="Grupo 53309" transform="translate(0 19.534)">
              <ellipse id="Elipse_3960" data-name="Elipse 3960" cx="0.851" cy="0.814" rx="0.851" ry="0.814" transform="translate(0 0)" fill="#fff"/>
              <path id="Trazado_99228" data-name="Trazado 99228" d="M424.362,73.561a.852.852,0,1,1-.851-.814A.833.833,0,0,1,424.362,73.561Z" transform="translate(-415 -72.747)" fill="#fff"/>
              <ellipse id="Elipse_3961" data-name="Elipse 3961" cx="0.851" cy="0.814" rx="0.851" ry="0.814" transform="translate(15.32 0)" fill="#fff"/>
              <path id="Trazado_99229" data-name="Trazado 99229" d="M441.255,73.561a.852.852,0,1,1-.852-.814A.833.833,0,0,1,441.255,73.561Z" transform="translate(-416.573 -72.747)" fill="#fff"/>
              <path id="Trazado_99230" data-name="Trazado 99230" d="M449.7,73.561a.852.852,0,1,1-.851-.814A.833.833,0,0,1,449.7,73.561Z" transform="translate(-417.359 -72.747)" fill="#fff"/>
              <ellipse id="Elipse_3962" data-name="Elipse 3962" cx="0.851" cy="0.814" rx="0.851" ry="0.814" transform="translate(38.3 0)" fill="#fff"/>
              <path id="Trazado_99231" data-name="Trazado 99231" d="M466.594,73.561a.852.852,0,1,1-.852-.814A.834.834,0,0,1,466.594,73.561Z" transform="translate(-418.932 -72.747)" fill="#fff"/>
              <ellipse id="Elipse_3963" data-name="Elipse 3963" cx="0.851" cy="0.814" rx="0.851" ry="0.814" transform="translate(53.62 0)" fill="#fff"/>
              <ellipse id="Elipse_3964" data-name="Elipse 3964" cx="0.851" cy="0.814" rx="0.851" ry="0.814" transform="translate(61.28 0)" fill="#fff"/>
              <path id="Trazado_99232" data-name="Trazado 99232" d="M491.933,73.561a.852.852,0,1,1-.852-.814A.834.834,0,0,1,491.933,73.561Z" transform="translate(-421.291 -72.747)" fill="#fff"/>
              <path id="Trazado_99233" data-name="Trazado 99233" d="M500.379,73.561a.852.852,0,1,1-.852-.814A.833.833,0,0,1,500.379,73.561Z" transform="translate(-422.077 -72.747)" fill="#fff"/>
            </g>
            <g id="Grupo_53310" data-name="Grupo 53310" transform="translate(0 26.046)">
              <path id="Trazado_99234" data-name="Trazado 99234" d="M415.916,81.069a.852.852,0,1,1-.852-.814A.833.833,0,0,1,415.916,81.069Z" transform="translate(-414.214 -80.255)" fill="#fff"/>
              <path id="Trazado_99235" data-name="Trazado 99235" d="M424.362,81.069a.852.852,0,1,1-.851-.814A.833.833,0,0,1,424.362,81.069Z" transform="translate(-415 -80.255)" fill="#fff"/>
              <path id="Trazado_99236" data-name="Trazado 99236" d="M432.808,81.069a.852.852,0,1,1-.851-.814A.833.833,0,0,1,432.808,81.069Z" transform="translate(-415.787 -80.255)" fill="#fff"/>
              <path id="Trazado_99237" data-name="Trazado 99237" d="M441.255,81.069a.852.852,0,1,1-.852-.814A.833.833,0,0,1,441.255,81.069Z" transform="translate(-416.573 -80.255)" fill="#fff"/>
              <path id="Trazado_99238" data-name="Trazado 99238" d="M449.7,81.069a.852.852,0,1,1-.851-.814A.833.833,0,0,1,449.7,81.069Z" transform="translate(-417.359 -80.255)" fill="#fff"/>
              <path id="Trazado_99239" data-name="Trazado 99239" d="M458.147,81.069a.852.852,0,1,1-.851-.814A.833.833,0,0,1,458.147,81.069Z" transform="translate(-418.146 -80.255)" fill="#fff"/>
              <path id="Trazado_99240" data-name="Trazado 99240" d="M466.594,81.069a.852.852,0,1,1-.852-.814A.834.834,0,0,1,466.594,81.069Z" transform="translate(-418.932 -80.255)" fill="#fff"/>
              <path id="Trazado_99241" data-name="Trazado 99241" d="M475.04,81.069a.852.852,0,1,1-.851-.814A.833.833,0,0,1,475.04,81.069Z" transform="translate(-419.718 -80.255)" fill="#fff"/>
              <path id="Trazado_99242" data-name="Trazado 99242" d="M483.486,81.069a.852.852,0,1,1-.851-.814A.833.833,0,0,1,483.486,81.069Z" transform="translate(-420.504 -80.255)" fill="#fff"/>
              <path id="Trazado_99243" data-name="Trazado 99243" d="M491.933,81.069a.852.852,0,1,1-.852-.814A.834.834,0,0,1,491.933,81.069Z" transform="translate(-421.291 -80.255)" fill="#fff"/>
              <path id="Trazado_99244" data-name="Trazado 99244" d="M500.379,81.069a.852.852,0,1,1-.852-.814A.833.833,0,0,1,500.379,81.069Z" transform="translate(-422.077 -80.255)" fill="#fff"/>
            </g>
            <g id="Grupo_53311" data-name="Grupo 53311" transform="translate(0 32.557)">
              <ellipse id="Elipse_3965" data-name="Elipse 3965" cx="0.851" cy="0.814" rx="0.851" ry="0.814" transform="translate(0 0)" fill="#fff"/>
              <path id="Trazado_99245" data-name="Trazado 99245" d="M424.362,88.577a.852.852,0,1,1-.851-.814A.833.833,0,0,1,424.362,88.577Z" transform="translate(-415 -87.763)" fill="#fff"/>
              <ellipse id="Elipse_3966" data-name="Elipse 3966" cx="0.851" cy="0.814" rx="0.851" ry="0.814" transform="translate(15.32 0)" fill="#fff"/>
              <path id="Trazado_99246" data-name="Trazado 99246" d="M441.255,88.577a.852.852,0,1,1-.852-.814A.833.833,0,0,1,441.255,88.577Z" transform="translate(-416.573 -87.763)" fill="#fff"/>
              <path id="Trazado_99247" data-name="Trazado 99247" d="M449.7,88.577a.852.852,0,1,1-.851-.814A.833.833,0,0,1,449.7,88.577Z" transform="translate(-417.359 -87.763)" fill="#fff"/>
              <ellipse id="Elipse_3967" data-name="Elipse 3967" cx="0.851" cy="0.814" rx="0.851" ry="0.814" transform="translate(38.3 0)" fill="#fff"/>
              <path id="Trazado_99248" data-name="Trazado 99248" d="M466.594,88.577a.852.852,0,1,1-.852-.814A.834.834,0,0,1,466.594,88.577Z" transform="translate(-418.932 -87.763)" fill="#fff"/>
              <ellipse id="Elipse_3968" data-name="Elipse 3968" cx="0.851" cy="0.814" rx="0.851" ry="0.814" transform="translate(53.62 0)" fill="#fff"/>
              <ellipse id="Elipse_3969" data-name="Elipse 3969" cx="0.851" cy="0.814" rx="0.851" ry="0.814" transform="translate(61.28 0)" fill="#fff"/>
              <path id="Trazado_99249" data-name="Trazado 99249" d="M491.933,88.577a.852.852,0,1,1-.852-.814A.834.834,0,0,1,491.933,88.577Z" transform="translate(-421.291 -87.763)" fill="#fff"/>
              <path id="Trazado_99250" data-name="Trazado 99250" d="M500.379,88.577a.852.852,0,1,1-.852-.814A.833.833,0,0,1,500.379,88.577Z" transform="translate(-422.077 -87.763)" fill="#fff"/>
            </g>
            <g id="Grupo_53312" data-name="Grupo 53312" transform="translate(0 39.069)">
              <ellipse id="Elipse_3970" data-name="Elipse 3970" cx="0.851" cy="0.814" rx="0.851" ry="0.814" fill="#fff"/>
              <path id="Trazado_99251" data-name="Trazado 99251" d="M424.362,96.085a.852.852,0,1,1-.851-.814A.833.833,0,0,1,424.362,96.085Z" transform="translate(-415 -95.271)" fill="#fff"/>
              <ellipse id="Elipse_3971" data-name="Elipse 3971" cx="0.851" cy="0.814" rx="0.851" ry="0.814" transform="translate(15.32)" fill="#fff"/>
              <path id="Trazado_99252" data-name="Trazado 99252" d="M441.255,96.085a.852.852,0,1,1-.852-.814A.833.833,0,0,1,441.255,96.085Z" transform="translate(-416.573 -95.271)" fill="#fff"/>
              <path id="Trazado_99253" data-name="Trazado 99253" d="M449.7,96.085a.852.852,0,1,1-.851-.814A.833.833,0,0,1,449.7,96.085Z" transform="translate(-417.359 -95.271)" fill="#fff"/>
              <ellipse id="Elipse_3972" data-name="Elipse 3972" cx="0.851" cy="0.814" rx="0.851" ry="0.814" transform="translate(38.3)" fill="#fff"/>
              <path id="Trazado_99254" data-name="Trazado 99254" d="M466.594,96.085a.852.852,0,1,1-.852-.814A.834.834,0,0,1,466.594,96.085Z" transform="translate(-418.932 -95.271)" fill="#fff"/>
              <ellipse id="Elipse_3973" data-name="Elipse 3973" cx="0.851" cy="0.814" rx="0.851" ry="0.814" transform="translate(53.62)" fill="#fff"/>
              <ellipse id="Elipse_3974" data-name="Elipse 3974" cx="0.851" cy="0.814" rx="0.851" ry="0.814" transform="translate(61.28)" fill="#fff"/>
              <path id="Trazado_99255" data-name="Trazado 99255" d="M491.933,96.085a.852.852,0,1,1-.852-.814A.834.834,0,0,1,491.933,96.085Z" transform="translate(-421.291 -95.271)" fill="#fff"/>
              <path id="Trazado_99256" data-name="Trazado 99256" d="M500.379,96.085a.852.852,0,1,1-.852-.814A.833.833,0,0,1,500.379,96.085Z" transform="translate(-422.077 -95.271)" fill="#fff"/>
            </g>
            <g id="Grupo_53313" data-name="Grupo 53313" transform="translate(0 45.58)">
              <path id="Trazado_99257" data-name="Trazado 99257" d="M415.916,103.593a.852.852,0,1,1-.852-.813A.833.833,0,0,1,415.916,103.593Z" transform="translate(-414.214 -102.779)" fill="#fff"/>
              <path id="Trazado_99258" data-name="Trazado 99258" d="M424.362,103.593a.852.852,0,1,1-.851-.813A.833.833,0,0,1,424.362,103.593Z" transform="translate(-415 -102.779)" fill="#fff"/>
              <path id="Trazado_99259" data-name="Trazado 99259" d="M432.808,103.593a.852.852,0,1,1-.851-.813A.833.833,0,0,1,432.808,103.593Z" transform="translate(-415.787 -102.779)" fill="#fff"/>
              <path id="Trazado_99260" data-name="Trazado 99260" d="M441.255,103.593a.852.852,0,1,1-.852-.813A.833.833,0,0,1,441.255,103.593Z" transform="translate(-416.573 -102.779)" fill="#fff"/>
              <path id="Trazado_99261" data-name="Trazado 99261" d="M449.7,103.593a.852.852,0,1,1-.851-.813A.833.833,0,0,1,449.7,103.593Z" transform="translate(-417.359 -102.779)" fill="#fff"/>
              <path id="Trazado_99262" data-name="Trazado 99262" d="M458.147,103.593a.852.852,0,1,1-.851-.813A.833.833,0,0,1,458.147,103.593Z" transform="translate(-418.146 -102.779)" fill="#fff"/>
              <path id="Trazado_99263" data-name="Trazado 99263" d="M466.594,103.593a.852.852,0,1,1-.852-.813A.834.834,0,0,1,466.594,103.593Z" transform="translate(-418.932 -102.779)" fill="#fff"/>
              <path id="Trazado_99264" data-name="Trazado 99264" d="M475.04,103.593a.852.852,0,1,1-.851-.813A.833.833,0,0,1,475.04,103.593Z" transform="translate(-419.718 -102.779)" fill="#fff"/>
              <path id="Trazado_99265" data-name="Trazado 99265" d="M483.486,103.593a.852.852,0,1,1-.851-.813A.833.833,0,0,1,483.486,103.593Z" transform="translate(-420.504 -102.779)" fill="#fff"/>
              <path id="Trazado_99266" data-name="Trazado 99266" d="M491.933,103.593a.852.852,0,1,1-.852-.813A.834.834,0,0,1,491.933,103.593Z" transform="translate(-421.291 -102.779)" fill="#fff"/>
              <path id="Trazado_99267" data-name="Trazado 99267" d="M500.379,103.593a.852.852,0,1,1-.852-.813A.833.833,0,0,1,500.379,103.593Z" transform="translate(-422.077 -102.779)" fill="#fff"/>
            </g>
            <g id="Grupo_53314" data-name="Grupo 53314" transform="translate(0 52.092)">
              <ellipse id="Elipse_3975" data-name="Elipse 3975" cx="0.851" cy="0.814" rx="0.851" ry="0.814" fill="#fff"/>
              <path id="Trazado_99268" data-name="Trazado 99268" d="M424.362,111.1a.852.852,0,1,1-.851-.814A.833.833,0,0,1,424.362,111.1Z" transform="translate(-415 -110.287)" fill="#fff"/>
              <ellipse id="Elipse_3976" data-name="Elipse 3976" cx="0.851" cy="0.814" rx="0.851" ry="0.814" transform="translate(15.32)" fill="#fff"/>
              <path id="Trazado_99269" data-name="Trazado 99269" d="M441.255,111.1a.852.852,0,1,1-.852-.814A.834.834,0,0,1,441.255,111.1Z" transform="translate(-416.573 -110.287)" fill="#fff"/>
              <path id="Trazado_99270" data-name="Trazado 99270" d="M449.7,111.1a.852.852,0,1,1-.851-.814A.834.834,0,0,1,449.7,111.1Z" transform="translate(-417.359 -110.287)" fill="#fff"/>
              <ellipse id="Elipse_3977" data-name="Elipse 3977" cx="0.851" cy="0.814" rx="0.851" ry="0.814" transform="translate(38.3)" fill="#fff"/>
              <path id="Trazado_99271" data-name="Trazado 99271" d="M466.594,111.1a.852.852,0,1,1-.852-.814A.834.834,0,0,1,466.594,111.1Z" transform="translate(-418.932 -110.287)" fill="#fff"/>
              <ellipse id="Elipse_3978" data-name="Elipse 3978" cx="0.851" cy="0.814" rx="0.851" ry="0.814" transform="translate(53.62)" fill="#fff"/>
              <ellipse id="Elipse_3979" data-name="Elipse 3979" cx="0.851" cy="0.814" rx="0.851" ry="0.814" transform="translate(61.28)" fill="#fff"/>
              <path id="Trazado_99272" data-name="Trazado 99272" d="M491.933,111.1a.852.852,0,1,1-.852-.814A.834.834,0,0,1,491.933,111.1Z" transform="translate(-421.291 -110.287)" fill="#fff"/>
              <path id="Trazado_99273" data-name="Trazado 99273" d="M500.379,111.1a.852.852,0,1,1-.852-.814A.834.834,0,0,1,500.379,111.1Z" transform="translate(-422.077 -110.287)" fill="#fff"/>
            </g>
            <g id="Grupo_53315" data-name="Grupo 53315" transform="translate(0 58.603)">
              <path id="Trazado_99274" data-name="Trazado 99274" d="M415.916,118.608a.852.852,0,1,1-.852-.814A.834.834,0,0,1,415.916,118.608Z" transform="translate(-414.214 -117.794)" fill="#fff"/>
              <path id="Trazado_99275" data-name="Trazado 99275" d="M424.362,118.608a.852.852,0,1,1-.851-.814A.833.833,0,0,1,424.362,118.608Z" transform="translate(-415 -117.794)" fill="#fff"/>
              <path id="Trazado_99276" data-name="Trazado 99276" d="M432.808,118.608a.852.852,0,1,1-.851-.814A.833.833,0,0,1,432.808,118.608Z" transform="translate(-415.787 -117.794)" fill="#fff"/>
              <path id="Trazado_99277" data-name="Trazado 99277" d="M441.255,118.608a.852.852,0,1,1-.852-.814A.834.834,0,0,1,441.255,118.608Z" transform="translate(-416.573 -117.794)" fill="#fff"/>
              <path id="Trazado_99278" data-name="Trazado 99278" d="M449.7,118.608a.852.852,0,1,1-.851-.814A.834.834,0,0,1,449.7,118.608Z" transform="translate(-417.359 -117.794)" fill="#fff"/>
              <path id="Trazado_99279" data-name="Trazado 99279" d="M458.147,118.608a.852.852,0,1,1-.851-.814A.833.833,0,0,1,458.147,118.608Z" transform="translate(-418.146 -117.794)" fill="#fff"/>
              <path id="Trazado_99280" data-name="Trazado 99280" d="M466.594,118.608a.852.852,0,1,1-.852-.814A.834.834,0,0,1,466.594,118.608Z" transform="translate(-418.932 -117.794)" fill="#fff"/>
              <path id="Trazado_99281" data-name="Trazado 99281" d="M475.04,118.608a.852.852,0,1,1-.851-.814A.834.834,0,0,1,475.04,118.608Z" transform="translate(-419.718 -117.794)" fill="#fff"/>
              <path id="Trazado_99282" data-name="Trazado 99282" d="M483.486,118.608a.852.852,0,1,1-.851-.814A.834.834,0,0,1,483.486,118.608Z" transform="translate(-420.504 -117.794)" fill="#fff"/>
              <path id="Trazado_99283" data-name="Trazado 99283" d="M491.933,118.608a.852.852,0,1,1-.852-.814A.834.834,0,0,1,491.933,118.608Z" transform="translate(-421.291 -117.794)" fill="#fff"/>
              <path id="Trazado_99284" data-name="Trazado 99284" d="M500.379,118.608a.852.852,0,1,1-.852-.814A.834.834,0,0,1,500.379,118.608Z" transform="translate(-422.077 -117.794)" fill="#fff"/>
            </g>
            <g id="Grupo_53316" data-name="Grupo 53316" transform="translate(0 65.114)">
              <ellipse id="Elipse_3980" data-name="Elipse 3980" cx="0.851" cy="0.814" rx="0.851" ry="0.814" transform="translate(0 0)" fill="#fff"/>
              <path id="Trazado_99285" data-name="Trazado 99285" d="M424.362,126.116a.852.852,0,1,1-.851-.814A.833.833,0,0,1,424.362,126.116Z" transform="translate(-415 -125.302)" fill="#fff"/>
              <ellipse id="Elipse_3981" data-name="Elipse 3981" cx="0.851" cy="0.814" rx="0.851" ry="0.814" transform="translate(15.32 0)" fill="#fff"/>
              <path id="Trazado_99286" data-name="Trazado 99286" d="M441.255,126.116a.852.852,0,1,1-.852-.814A.833.833,0,0,1,441.255,126.116Z" transform="translate(-416.573 -125.302)" fill="#fff"/>
              <path id="Trazado_99287" data-name="Trazado 99287" d="M449.7,126.116a.852.852,0,1,1-.851-.814A.833.833,0,0,1,449.7,126.116Z" transform="translate(-417.359 -125.302)" fill="#fff"/>
              <ellipse id="Elipse_3982" data-name="Elipse 3982" cx="0.851" cy="0.814" rx="0.851" ry="0.814" transform="translate(38.3 0)" fill="#fff"/>
              <path id="Trazado_99288" data-name="Trazado 99288" d="M466.594,126.116a.852.852,0,1,1-.852-.814A.834.834,0,0,1,466.594,126.116Z" transform="translate(-418.932 -125.302)" fill="#fff"/>
              <ellipse id="Elipse_3983" data-name="Elipse 3983" cx="0.851" cy="0.814" rx="0.851" ry="0.814" transform="translate(53.62 0)" fill="#fff"/>
              <ellipse id="Elipse_3984" data-name="Elipse 3984" cx="0.851" cy="0.814" rx="0.851" ry="0.814" transform="translate(61.28 0)" fill="#fff"/>
              <path id="Trazado_99289" data-name="Trazado 99289" d="M491.933,126.116a.852.852,0,1,1-.852-.814A.834.834,0,0,1,491.933,126.116Z" transform="translate(-421.291 -125.302)" fill="#fff"/>
              <path id="Trazado_99290" data-name="Trazado 99290" d="M500.379,126.116a.852.852,0,1,1-.852-.814A.833.833,0,0,1,500.379,126.116Z" transform="translate(-422.077 -125.302)" fill="#fff"/>
            </g>
            <g id="Grupo_53317" data-name="Grupo 53317" transform="translate(0 71.627)">
              <ellipse id="Elipse_3985" data-name="Elipse 3985" cx="0.851" cy="0.814" rx="0.851" ry="0.814" transform="translate(0 0)" fill="#fff"/>
              <path id="Trazado_99291" data-name="Trazado 99291" d="M424.362,133.624a.852.852,0,1,1-.851-.814A.833.833,0,0,1,424.362,133.624Z" transform="translate(-415 -132.81)" fill="#fff"/>
              <ellipse id="Elipse_3986" data-name="Elipse 3986" cx="0.851" cy="0.814" rx="0.851" ry="0.814" transform="translate(15.32 0)" fill="#fff"/>
              <path id="Trazado_99292" data-name="Trazado 99292" d="M441.255,133.624a.852.852,0,1,1-.852-.814A.833.833,0,0,1,441.255,133.624Z" transform="translate(-416.573 -132.81)" fill="#fff"/>
              <path id="Trazado_99293" data-name="Trazado 99293" d="M449.7,133.624a.852.852,0,1,1-.851-.814A.833.833,0,0,1,449.7,133.624Z" transform="translate(-417.359 -132.81)" fill="#fff"/>
              <ellipse id="Elipse_3987" data-name="Elipse 3987" cx="0.851" cy="0.814" rx="0.851" ry="0.814" transform="translate(38.3 0)" fill="#fff"/>
              <path id="Trazado_99294" data-name="Trazado 99294" d="M466.594,133.624a.852.852,0,1,1-.852-.814A.834.834,0,0,1,466.594,133.624Z" transform="translate(-418.932 -132.81)" fill="#fff"/>
              <ellipse id="Elipse_3988" data-name="Elipse 3988" cx="0.851" cy="0.814" rx="0.851" ry="0.814" transform="translate(53.62 0)" fill="#fff"/>
              <ellipse id="Elipse_3989" data-name="Elipse 3989" cx="0.851" cy="0.814" rx="0.851" ry="0.814" transform="translate(61.28 0)" fill="#fff"/>
              <path id="Trazado_99295" data-name="Trazado 99295" d="M491.933,133.624a.852.852,0,1,1-.852-.814A.834.834,0,0,1,491.933,133.624Z" transform="translate(-421.291 -132.81)" fill="#fff"/>
              <path id="Trazado_99296" data-name="Trazado 99296" d="M500.379,133.624a.852.852,0,1,1-.852-.814A.833.833,0,0,1,500.379,133.624Z" transform="translate(-422.077 -132.81)" fill="#fff"/>
            </g>
          </g>
        </g>
        <line id="Línea_138" data-name="Línea 138" y2="118.993" transform="translate(93.67 -45.358)" fill="none" stroke="#31313c" stroke-linecap="round" stroke-width="4" stroke-dasharray="8"/>
      </g>
      <g id="Enmascarar_grupo_1018596" data-name="Enmascarar grupo 1018596" transform="translate(437.739 -7580.637)" clip-path="url(#clip-path)">
        <path id="Trazado_151731" data-name="Trazado 151731" d="M50.406,79.589A29.183,29.183,0,1,1,79.589,50.406,29.216,29.216,0,0,1,50.406,79.589m0,21.224A50.406,50.406,0,1,0,0,50.406,50.406,50.406,0,0,0,50.406,100.813Z" transform="translate(2.187 3.602)" fill="#4adbd1"/>
      </g>
    </g>
    <g id="Grupo_1019221" data-name="Grupo 1019221" transform="translate(49 -11261.154)">
      <g id="Grupo_1008581" data-name="Grupo 1008581" transform="translate(204 3686)">
        <rect id="Rectángulo_347163" data-name="Rectángulo 347163" width="359.18" height="316.738" transform="translate(0 0)" fill="none"/>
        <g id="Grupo_1008567" data-name="Grupo 1008567" transform="translate(0 15.764)">
          <g id="Grupo_1008566" data-name="Grupo 1008566" clip-path="url(#clip-path-2)">
            <path id="Trazado_715924" data-name="Trazado 715924" d="M.607,420.834a.607.607,0,1,0,0,1.214H352.926a.607.607,0,1,0,0-1.214Z" transform="translate(0 -121.517)" fill="#ccc"/>
            <path id="Trazado_715925" data-name="Trazado 715925" d="M435.308,363.554c10.664-33.114-9.334-49.654-35.087-63.083,1.986,19.814,2.195,39.405,35.087,63.083" transform="translate(-115.565 -86.762)" fill="#f2f2f2"/>
            <path id="Trazado_715926" data-name="Trazado 715926" d="M448.66,375.474c-5.563-11.179-5.827-25.316-1.489-33.72a62.24,62.24,0,0,0,1.489,33.72" transform="translate(-128.256 -98.683)" fill="#e6e6e6"/>
            <path id="Trazado_715927" data-name="Trazado 715927" d="M438.036,368.4c-6.063-26.254-17.576-37.718-28.369-51.138,11.936,16.495,22.708,33.249,28.369,51.138" transform="translate(-118.293 -91.611)" fill="#e6e6e6"/>
            <path id="Trazado_715928" data-name="Trazado 715928" d="M448.217,360.379c-11.986-37.219,10.49-55.809,39.436-70.9-2.232,22.269-2.467,44.289-39.436,70.9" transform="translate(-128.473 -83.588)" fill="#f2f2f2"/>
            <path id="Trazado_715929" data-name="Trazado 715929" d="M449.553,365.83c6.815-29.508,19.755-42.393,31.884-57.477-13.416,18.539-25.522,37.37-31.884,57.477" transform="translate(-129.81 -89.038)" fill="#e6e6e6"/>
            <path id="Trazado_715930" data-name="Trazado 715930" d="M425.943,375.274a2.222,2.222,0,0,0-.537,4.378V401.22a6.472,6.472,0,0,0,6.487,6.487h22.343a6.472,6.472,0,0,0,6.487-6.487V379.652a2.222,2.222,0,0,0-.537-4.378Z" transform="translate(-122.351 -108.362)" fill="#e6e6e6"/>
            <rect id="Rectángulo_347420" data-name="Rectángulo 347420" width="84.702" height="29.233" transform="translate(60.499 237.267)" fill="#f9f9f9"/>
            <rect id="Rectángulo_347421" data-name="Rectángulo 347421" width="84.702" height="29.233" transform="translate(60.499 268.311)" fill="#f9f9f9"/>
            <path id="Trazado_715931" data-name="Trazado 715931" d="M254.549,333.593a2.527,2.527,0,0,0-2.533,2.533V362.1a2.56,2.56,0,0,0,.068.586H85.06v1.929H254.25a2.6,2.6,0,0,0,.3.018h12.874a2.527,2.527,0,0,0,2.533-2.533V336.126a2.527,2.527,0,0,0-2.533-2.533Z" transform="translate(-24.561 -96.326)" fill="#ececec"/>
            <rect id="Rectángulo_347422" data-name="Rectángulo 347422" width="84.702" height="29.233" transform="translate(145.2 237.267)" fill="#f9f9f9"/>
            <path id="Trazado_715932" data-name="Trazado 715932" d="M117.167,339.59H156.2v-6h-39.03Zm60.07,56.069h1.794V333.593h-1.794Zm24.63-56.069H240.9v-6h-39.03Zm-84.7,31.044H156.2v-6h-39.03Zm84.7,0H240.9v-6h-39.03Z" transform="translate(-33.832 -96.326)" fill="#e6e6e6"/>
            <path id="Trazado_715933" data-name="Trazado 715933" d="M254.549,377.24a2.527,2.527,0,0,0-2.533,2.533v25.978a2.524,2.524,0,0,0,.068.582H85.06v1.929H254.217a2.544,2.544,0,0,0,.332.022h12.874a2.527,2.527,0,0,0,2.533-2.533V379.773a2.527,2.527,0,0,0-2.533-2.533Z" transform="translate(-24.561 -108.929)" fill="#ececec"/>
            <rect id="Rectángulo_347423" data-name="Rectángulo 347423" width="84.702" height="29.233" transform="translate(145.2 268.311)" fill="#f9f9f9"/>
            <rect id="Rectángulo_347424" data-name="Rectángulo 347424" width="173.411" height="212.037" transform="translate(10.071)" fill="#e6e6e6"/>
            <rect id="Rectángulo_347425" data-name="Rectángulo 347425" width="173.14" height="177.6" transform="translate(23.52 48.448)" fill="#f9f9f9"/>
            <path id="Trazado_715934" data-name="Trazado 715934" d="M32.96,67.743a.266.266,0,0,0-.266.266v177.6a.267.267,0,0,0,.266.266H206.1a.266.266,0,0,0,.266-.266V68.009a.266.266,0,0,0-.266-.266Zm.266.531H205.834V245.343H33.226Z" transform="translate(-9.44 -19.561)" fill="#b3b3b3"/>
            <rect id="Rectángulo_347426" data-name="Rectángulo 347426" width="173.682" height="34.707" transform="translate(23.248 14.011)" fill="#3076b6"/>
            <path id="Trazado_715935" data-name="Trazado 715935" d="M68.516,96.6a.267.267,0,0,0-.266.266v13.79a.267.267,0,0,0,.266.266h13.79a.267.267,0,0,0,.266-.266V96.864a.267.267,0,0,0-.266-.266Zm.266.532H82.04v13.258H68.782Z" transform="translate(-19.707 -27.893)" fill="#483737"/>
            <path id="Trazado_715936" data-name="Trazado 715936" d="M113.475,97.541H204.4V96.4H113.475Zm0,6.731H204.4v-1.137H113.475Zm0,6.731H204.4v-1.137H113.475Z" transform="translate(-32.766 -27.837)" fill="#483737"/>
            <path id="Trazado_715937" data-name="Trazado 715937" d="M80.79,100.515a.8.8,0,0,0-.622.292l-5.322,6.5L71.932,104.6a.8.8,0,0,0-1.086,1.169l3.536,3.286a.8.8,0,0,0,1.16-.078l5.861-7.157a.8.8,0,0,0-.612-1.3" transform="translate(-20.383 -29.024)" fill="#ffa031"/>
            <path id="Trazado_715938" data-name="Trazado 715938" d="M68.516,154.133a.266.266,0,0,0-.266.265v13.79a.266.266,0,0,0,.266.266h13.79a.267.267,0,0,0,.266-.266V154.4a.266.266,0,0,0-.266-.265Zm.266.531H82.04v13.258H68.782Z" transform="translate(-19.707 -44.506)" fill="#483737"/>
            <path id="Trazado_715939" data-name="Trazado 715939" d="M113.475,155.075H204.4v-1.137H113.475Zm0,6.731H204.4v-1.137H113.475Zm0,6.731H204.4V167.4H113.475Z" transform="translate(-32.766 -44.45)" fill="#483737"/>
            <path id="Trazado_715940" data-name="Trazado 715940" d="M80.79,158.049a.8.8,0,0,0-.622.292l-5.322,6.5-2.914-2.708a.8.8,0,0,0-1.086,1.169l3.536,3.286a.8.8,0,0,0,1.16-.078l5.861-7.157a.8.8,0,0,0-.612-1.3" transform="translate(-20.383 -45.637)" fill="#ffa031"/>
            <path id="Trazado_715941" data-name="Trazado 715941" d="M68.516,211.667a.266.266,0,0,0-.266.266v13.79a.266.266,0,0,0,.266.265h13.79a.266.266,0,0,0,.266-.265v-13.79a.267.267,0,0,0-.266-.266Zm.266.531H82.04v13.258H68.782Z" transform="translate(-19.707 -61.12)" fill="#483737"/>
            <path id="Trazado_715942" data-name="Trazado 715942" d="M113.475,212.61H204.4v-1.137H113.475Zm0,6.73H204.4V218.2H113.475Zm0,6.731H204.4v-1.137H113.475Z" transform="translate(-32.766 -61.064)" fill="#483737"/>
            <path id="Trazado_715943" data-name="Trazado 715943" d="M80.79,215.583a.8.8,0,0,0-.622.292l-5.322,6.5-2.914-2.708a.8.8,0,0,0-1.086,1.169l3.536,3.286a.8.8,0,0,0,1.16-.078l5.861-7.157a.8.8,0,0,0-.612-1.3" transform="translate(-20.383 -62.25)" fill="#ffa031"/>
            <path id="Trazado_715944" data-name="Trazado 715944" d="M68.516,269.2a.266.266,0,0,0-.266.266v13.79a.266.266,0,0,0,.266.266h13.79a.267.267,0,0,0,.266-.266v-13.79a.267.267,0,0,0-.266-.266Zm.266.531H82.04v13.259H68.782Z" transform="translate(-19.707 -77.733)" fill="#483737"/>
            <path id="Trazado_715945" data-name="Trazado 715945" d="M113.475,270.144H204.4v-1.137H113.475Zm0,6.73H204.4v-1.137H113.475Zm0,6.731H204.4v-1.137H113.475Z" transform="translate(-32.766 -77.677)" fill="#483737"/>
            <path id="Trazado_715946" data-name="Trazado 715946" d="M80.79,273.118a.8.8,0,0,0-.622.292l-5.322,6.5L71.932,277.2a.8.8,0,0,0-1.086,1.169l3.536,3.286a.8.8,0,0,0,1.16-.078L81.4,274.42a.8.8,0,0,0-.612-1.3" transform="translate(-20.383 -78.864)" fill="#ffa031"/>
            <path id="Trazado_715947" data-name="Trazado 715947" d="M348.007,344.42l-64.147,1.065a110.071,110.071,0,0,0-23.415,53.58H373.384C369,379.721,361.464,359.5,348.007,344.42" transform="translate(-75.204 -99.452)" fill="#241c1c"/>
            <path id="Trazado_715948" data-name="Trazado 715948" d="M327.64,372.189l.4.861c-6.186-.683-15.9.22-23.26-.574,6.617-.44,15.726-.35,22.858-.287" transform="translate(-88.007 -107.456)" fill="#483737"/>
            <path id="Trazado_715949" data-name="Trazado 715949" d="M338.372,372.158c10.4-1.491,21.233-1.413,31.2-4.5-7.739,3.931-20.632,3.567-30.971,5.332Z" transform="translate(-97.706 -106.163)" fill="#483737"/>
            <path id="Trazado_715950" data-name="Trazado 715950" d="M318.386,22.275c-47.139-3.78-41.943,36.7-46.335,55.52-1.519,6.508-10.856,14.167-6.489,28.647.8,2.665,6.5,5.664,11.987,5.327-.957-4.828.4-7.75,2.473-10.083-.866,4.195-1.017,8.784.952,12.557,11.162,3.425,49.589,3.753,64.878-1.142,2-3.312,1.449-8.11.059-11.225,3.136,2.915,3.1,5.83,4.3,8.745,2.482.027,8.228-2.008,9.014-5.785,1.2-5.785-.385-11.48-4.3-17.22-2.562-3.752,1.373-7.447.538-11.839-1.386-7.294-6.96-12.686-8.744-28.118C345.126,33.9,334.834,22.97,318.386,22.275" transform="translate(-76.349 -6.36)" fill="#241c1c"/>
            <path id="Trazado_715951" data-name="Trazado 715951" d="M314.167,134.808H336.7l3.671,18.766c-1.448,9.643-8.481,17.63-13.738,17.588-4.58-.036-12.677-12.388-15.786-17.588Z" transform="translate(-89.759 -38.926)" fill="#ffb380"/>
            <path id="Trazado_715952" data-name="Trazado 715952" d="M295.632,54.054V94.185a22.214,22.214,0,0,0,22.262,22.262h6.294a22.214,22.214,0,0,0,22.263-22.262V54.054H295.632Z" transform="translate(-85.365 -15.608)" fill="#ffb380"/>
            <path id="Trazado_715953" data-name="Trazado 715953" d="M366.717,97.593a7.487,7.487,0,1,0,0-14.81Z" transform="translate(-105.891 -23.88)" fill="#ffb380"/>
            <path id="Trazado_715954" data-name="Trazado 715954" d="M293.491,97.593a7.487,7.487,0,1,1,0-14.81Z" transform="translate(-82.268 -23.88)" fill="#ffb380"/>
            <path id="Trazado_715955" data-name="Trazado 715955" d="M314.556,139.3c8.218,2.529,16.2,2.831,23.856,0-8.879,4.856-16.567,3.47-23.856,0" transform="translate(-90.829 -40.223)" fill="#f95"/>
            <path id="Trazado_715956" data-name="Trazado 715956" d="M284.812,77.817c-.025-4.9,6.846-8.266,8.64-.721,2.963-18.532,26.966-9.6,34.172-25.852,6.718,11.835,11.865,12.877,14.843,25.852,1.86-6.6,8.08-4.562,9.021.721,3.815-16.01-1.962-27.6-12.026-34.978H301.254c-12.879,3.065-18.226,18.679-16.443,34.978" transform="translate(-82.144 -12.37)" fill="#241c1c"/>
            <path id="Trazado_715957" data-name="Trazado 715957" d="M314.422,30.774q-.44,0-.876.016c-8.148.23-15.462,2.628-21.437,8.659-6.829,6.892-11.9,18.511-14.534,37.025-.8,5.629-4.158,10.939-6.772,16.429s-4.481,11.176-2.235,17.532a.125.125,0,0,0,.064.072.128.128,0,0,0,.1.006.126.126,0,0,0,.077-.161c-2.216-6.27-.381-11.869,2.225-17.34s5.984-10.8,6.795-16.5c2.624-18.485,7.689-30.049,14.462-36.885s15.261-8.962,24.79-8.553a.126.126,0,0,0,.131-.121.126.126,0,0,0-.12-.131q-1.346-.058-2.665-.047m6.691.212h-.007a.126.126,0,0,0,0,.25c7.615.716,12.441,3.442,15.906,8.43s5.557,12.255,7.633,22.033c2.013,9.484,7.439,16.325,6.181,27.833-1.285,6.3.481,12.211,4.59,17.783a.126.126,0,0,0,.082.05.129.129,0,0,0,.094-.023.126.126,0,0,0,.026-.176c-4.082-5.534-5.819-11.359-4.544-17.594a.031.031,0,0,0,0-.011c1.268-11.6-4.186-18.5-6.186-27.914-2.078-9.787-4.17-17.081-7.672-22.124s-8.424-7.816-16.088-8.536h-.011m-3.654,5.732h-.009c-12.361,1.067-19.457,5.965-23.926,12.026s-6.319,13.275-8.241,18.977a.125.125,0,0,0,.006.1.127.127,0,0,0,.073.063.13.13,0,0,0,.1-.007.124.124,0,0,0,.063-.073c1.926-5.717,3.772-12.9,8.2-18.908s11.441-10.862,23.746-11.924a.127.127,0,0,0,.115-.136.126.126,0,0,0-.129-.116m5.522.381a.126.126,0,0,0-.1.2.124.124,0,0,0,.08.052c5.748,1.055,9.839,5.513,12.874,11.289s5,12.859,6.5,19.113a.126.126,0,0,0,.152.093.125.125,0,0,0,.092-.152c-1.5-6.26-3.472-13.359-6.526-19.171S328.853,38.175,323,37.1l-.021,0m-6,4.691h-.008a.127.127,0,0,0-.115.092,14.6,14.6,0,0,1-4.659,7.724,21.142,21.142,0,0,1-6.81,3.371c-5.018,1.718-10.745,3.294-15.554,10.258a.126.126,0,0,0,.208.144c4.766-6.9,10.4-8.442,15.428-10.164a21.353,21.353,0,0,0,6.888-3.414,14.884,14.884,0,0,0,4.743-7.851.126.126,0,0,0-.087-.155.132.132,0,0,0-.034,0m6.278.73a.126.126,0,0,0-.118.163.123.123,0,0,0,.061.075c8.211,4.356,10.322,13.828,14.407,21.731a.127.127,0,0,0,.169.054.129.129,0,0,0,.063-.074.125.125,0,0,0-.009-.1c-4.064-7.861-6.184-17.42-14.512-21.838a.13.13,0,0,0-.061-.015M282.677,83.227h0a.126.126,0,0,0-.124.105c-.9,5.58-3.987,9.684-6.428,13.916s-4.226,8.606-2.447,14.66a.123.123,0,0,0,.06.075.126.126,0,0,0,.1.011.128.128,0,0,0,.075-.06.126.126,0,0,0,.01-.1c-1.756-5.98-.006-10.251,2.425-14.464s5.549-8.351,6.458-14a.126.126,0,0,0-.1-.144h-.021m61.478,1.48a.126.126,0,0,0-.122.119,55.768,55.768,0,0,0,1.618,15.105.126.126,0,0,0,.153.09.125.125,0,0,0,.091-.152,55.532,55.532,0,0,1-1.611-15.029.126.126,0,0,0-.118-.133h-.011M338.238,94.8a.122.122,0,0,0-.028,0,.126.126,0,0,0-.078.056.125.125,0,0,0-.016.1c1.617,6.961,3.048,13.912.809,21.19a.125.125,0,0,0,.009.1.123.123,0,0,0,.075.061.126.126,0,0,0,.157-.082c2.261-7.35.813-14.357-.805-21.322a.126.126,0,0,0-.123-.1m-50.179,1.479h0a.126.126,0,0,0-.119.085c-4.184,11.878-.535,20.138-.535,20.138a.126.126,0,1,0,.23-.1s-3.615-8.152.542-19.952a.127.127,0,0,0-.077-.161.137.137,0,0,0-.041-.008" transform="translate(-77.26 -8.886)" fill="#483737"/>
            <path id="Trazado_715958" data-name="Trazado 715958" d="M310,90.6a3.035,3.035,0,1,1,3.035,3.035A3.035,3.035,0,0,1,310,90.6" transform="translate(-89.514 -25.285)" fill="#241c1c"/>
            <path id="Trazado_715959" data-name="Trazado 715959" d="M312.365,81.063a14.169,14.169,0,0,0-5.054.568.755.755,0,0,0,.441,1.444,15.312,15.312,0,0,1,8.893.307.755.755,0,1,0,.417-1.451,21.815,21.815,0,0,0-4.7-.867" transform="translate(-88.583 -23.399)" fill="#241c1c"/>
            <path id="Trazado_715960" data-name="Trazado 715960" d="M349.374,90.6a3.035,3.035,0,1,0-3.035,3.035,3.035,3.035,0,0,0,3.035-3.035" transform="translate(-99.13 -25.285)" fill="#241c1c"/>
            <path id="Trazado_715961" data-name="Trazado 715961" d="M345.323,81.063a21.816,21.816,0,0,0-4.7.867.755.755,0,1,0,.417,1.451,15.312,15.312,0,0,1,8.893-.307.755.755,0,1,0,.441-1.444,14.169,14.169,0,0,0-5.054-.568" transform="translate(-98.199 -23.399)" fill="#241c1c"/>
            <path id="Trazado_715962" data-name="Trazado 715962" d="M328.871,89.079a.519.519,0,0,0-.12.011.53.53,0,0,0-.415.625,12.147,12.147,0,0,1-1.3,7.514,8.167,8.167,0,0,0-.993,2.778,3.373,3.373,0,0,0,.472,2.4,3.477,3.477,0,0,0,2.275,1.344,10.724,10.724,0,0,0,3.94-.119.531.531,0,1,0-.189-1.046,9.827,9.827,0,0,1-3.543.122,2.38,2.38,0,0,1-1.607-.9,2.3,2.3,0,0,1-.294-1.656,7.22,7.22,0,0,1,.871-2.408,13.239,13.239,0,0,0,1.406-8.235.531.531,0,0,0-.507-.425" transform="translate(-94.135 -25.722)" fill="#f95"/>
            <path id="Trazado_715963" data-name="Trazado 715963" d="M322.6,115.314c2.176,7.726,9.27,7.822,12.007,0a15.864,15.864,0,0,1-12.007,0" transform="translate(-93.153 -33.297)" fill="#f55"/>
            <path id="Trazado_715964" data-name="Trazado 715964" d="M322.6,115.314a12.451,12.451,0,0,0,.645,1.779c2.03,1.905,8.133,1.708,10.509.166a13.3,13.3,0,0,0,.853-1.945,15.864,15.864,0,0,1-12.007,0" transform="translate(-93.153 -33.297)" fill="#fff"/>
            <path id="Trazado_715965" data-name="Trazado 715965" d="M280.9,158.8c-14.622,3.057-36.781,8.384-51.911,13.653-3.371-.361-3.4,7.982-3.576,15.3a15.234,15.234,0,0,1-1.572,6.481c-3.13,7.11-5.117,18.337-7.327,28.8-2.6,2.753-1.993,5.285-1.275,7.809a5.211,5.211,0,0,1-.735,4.781c-3.015,5.124-2.482,11.383-3.49,17.148-2.441,2.658-1.142,4.159-.122,5.192-4.065,3.64-.844,5.675-1.582,10.223-2.845,2.5-4.568,5.482-2.465,10.878.147,8.528,7.419,15.711,16.923,13.8,5.465,3.541,18.988-4.5,22.2-11.875-4.736,20.411-9.871,40.123-15.692,58.636-.7,2.516-.63,4.026.64,5.844h31.115c9.049-15.375,18.128-35.392,20.747-49.777,8.45,1.56,16.949,2.484,25.7.109l.725.64c7.748-1.314,11.995-.655,18.9-3.122,1.509,15.257,8.116,35.828,16.362,52.149H374.4c-.05-.217-.107-.441-.178-.689-8.627-30.07-25.05-61.859-23.389-89.375l9.064,15.03c-.05,6.475,3.186,7.184,6.253,8.777,6.682,5.415,12.125,15.693,22.675,4.519,4.584-4.855,3.054-9.9,4.361-14.568.6-2.56,2.842-9.883-1.26-15.157-.314-8.64-2.878-17.163-8.8-20.5l-17.2-38.008c1.925-3.792,1.462-22.142-4.056-22.8-15.857-6.318-35.69-9.509-52.1-13.9-3.647,7.3-7.64,12.541-14.428,15.738A32.863,32.863,0,0,1,280.9,158.8" transform="translate(-59.458 -45.853)" fill="#6f88da"/>
            <path id="Trazado_715966" data-name="Trazado 715966" d="M309.115,158.8c-16.816,33.761,11.229,96.089,1.88,136.892,2.271.42,4.546.792,6.827,1.068,2.193.26,4.331.423,6.4.474A43.6,43.6,0,0,0,336.7,295.8l.724.641c7.749-1.314,12-.656,18.906-3.122-15.748-36.159,4.863-107.378-18.335-134.52-3.647,7.3-7.64,12.541-14.428,15.739A32.867,32.867,0,0,1,309.115,158.8" transform="translate(-87.672 -45.853)" fill="#fff"/>
            <path id="Trazado_715967" data-name="Trazado 715967" d="M289.908,164.6a172.845,172.845,0,0,0-5.966,19.734l5.736,4.819-5.593,3.556c2.522,35.534,20.9,79.484,20.949,104.652-.859-23.061-19.243-68.754-21.9-105.033l5.433-3.251-5.591-4.4a120.834,120.834,0,0,1,6.93-20.078" transform="translate(-81.711 -47.53)" fill="#2f4249"/>
            <path id="Trazado_715968" data-name="Trazado 715968" d="M368.123,164.683c3.644,6.383,8.017,13.187,10.738,20.9l-5.879,4.905,7.751,3.3c-4.235,33.159-7.357,65.441-5.783,101.222-.145-31.377,2.458-67.247,6.948-101.705l-7.77-2.89,5.59-4.625a95.972,95.972,0,0,0-11.6-21.111" transform="translate(-106.297 -47.553)" fill="#2f4249"/>
            <path id="Trazado_715969" data-name="Trazado 715969" d="M238.359,177.992c6.386,22.817,9.289,48.526,17.275,68.234-7.543-22.42-9.977-48.557-17.275-68.234" transform="translate(-68.827 -51.396)" fill="#2f4249"/>
            <path id="Trazado_715970" data-name="Trazado 715970" d="M420.708,178.342c5.42,10.807-6.512,56.058-11.037,82.7,3.8-29.624,14.62-68.937,11.037-82.7" transform="translate(-118.294 -51.497)" fill="#2f4249"/>
            <path id="Trazado_715971" data-name="Trazado 715971" d="M431.843,267.8c-1.567,1.5-2.373,8.972-1.364,11.367a4.026,4.026,0,0,0,1.308,1.408,67.255,67.255,0,0,0,.056-12.775" transform="translate(-124.173 -77.329)" fill="#2f4249"/>
            <path id="Trazado_715972" data-name="Trazado 715972" d="M455.4,264.072c1.588,1.556,3.345,2.934,3.843,5.631-1.615-.207-.333,4.8-.264,7.626-1.193-4.418-2.54-8.478-3.579-13.257" transform="translate(-131.499 -76.252)" fill="#2f4249"/>
            <path id="Trazado_715973" data-name="Trazado 715973" d="M460.806,271.989l1.718,8.757c1.265,8,1.006,13.761.006,18.421a70.6,70.6,0,0,0-.75-18.337Z" transform="translate(-133.059 -78.538)" fill="#2f4249"/>
            <path id="Trazado_715974" data-name="Trazado 715974" d="M467.446,292.654c.962,3.243,1.465,6.108,1.129,8.282.835-1.994.328-4.837-1.129-8.282" transform="translate(-134.977 -84.505)" fill="#2f4249"/>
            <path id="Trazado_715975" data-name="Trazado 715975" d="M430.791,266.115c-4.552,5.711-2.593,17.209-1.924,27.56,0-9.641-1.79-20.482,1.924-27.56" transform="translate(-123.549 -76.842)" fill="#2f4249"/>
            <path id="Trazado_715976" data-name="Trazado 715976" d="M429.056,304.863c-.588,7.473,4.792,12.123,10.842,14.284-4.3-.032-13.7-5.462-10.842-14.284" transform="translate(-123.738 -88.03)" fill="#2f4249"/>
            <path id="Trazado_715977" data-name="Trazado 715977" d="M429.324,322.5c-2.244-2.519-4.5-6.595-2.089-13.78-3.126,5.442-4.34,10.46,2.089,13.78" transform="translate(-122.63 -89.143)" fill="#2f4249"/>
            <path id="Trazado_715978" data-name="Trazado 715978" d="M422.415,312.771a13.5,13.5,0,0,1,3.5-7.343,29.145,29.145,0,0,0-3.5,7.343" transform="translate(-121.974 -88.193)" fill="#2f4249"/>
            <path id="Trazado_715979" data-name="Trazado 715979" d="M429.674,314.219a39.976,39.976,0,0,0,8.433,13.079c-3.828-2.664-6.669-6.973-8.433-13.079" transform="translate(-124.07 -90.732)" fill="#2f4249"/>
            <path id="Trazado_715980" data-name="Trazado 715980" d="M432.9,325.109a22.04,22.04,0,0,1-3.958-13.309c.245,4.7,2.255,8.969,3.958,13.309" transform="translate(-123.859 -90.033)" fill="#2f4249"/>
            <path id="Trazado_715981" data-name="Trazado 715981" d="M411.257,280.129a27.48,27.48,0,0,0,7.1-1.866c-3.033,6.545-3.7,13.818-2.515,21.661L409.672,289.9Z" transform="translate(-118.294 -80.349)" fill="#2f4249"/>
            <path id="Trazado_715982" data-name="Trazado 715982" d="M415.521,260.924c3.388-.042,10.237-1.326,9.924.172-.455,2.182-6.8,3.038-10.612,3.9Z" transform="translate(-119.784 -75.183)" fill="#2f4249"/>
            <path id="Trazado_715983" data-name="Trazado 715983" d="M422.012,266.651c3.145-.449,6.293-.891,8.318-3.729a40.921,40.921,0,0,1-8.318,3.729" transform="translate(-121.857 -75.92)" fill="#2f4249"/>
            <path id="Trazado_715984" data-name="Trazado 715984" d="M437,164.4a2.808,2.808,0,0,0-2.551,1.95c-1.644,5.2-.884,10.507-.334,15.808-1.2,5.332.654,10.218-1.778,10.154-1.035-2.6-2.583-6.327-3.871-7.974-1.355-1.962-4.8.266-8.728,1.065a3.481,3.481,0,0,0-1.742.829c-2.033,1.652-5.191,3.339-4.475,4.473-.746.089-1.492,1.176-2.238,3.786-2.329,1.445-4.073,3.1-2.7,5.909a29.976,29.976,0,0,1,3.894,6.943,13.429,13.429,0,0,0,1.54,3.315c2.547,4.386,5.014,9.851,8.449,13.319,3.42,9.727,3.5,18.531,2.984,26.744,2.318,3.167,19.125,7.242,19.87-2.171-2.01-8.39-6.063-17.652-3.975-25.718,4.706-8.611,6.894-16.024,7.058-22.473,1.4-5.338,5.145-12.51,5.629-14.014.216-2.3-2.45-2.567-3.428-1.405-2.505,2.352-3.654,6.271-6.224,9.035.773-7.523.916-15.361,2.8-22.33-.176-2.356-3.541-2.362-4.489-.531-1.336,3.256-1.716,6.393-2.51,9.58-1.092-5.018-1.994-9.461-1.437-14.851A1.535,1.535,0,0,0,437,164.4m-15.519,26,1.734.051a16.515,16.515,0,0,0,2.266,3.413,13.331,13.331,0,0,1,.029,5.479c-.9,2.592-3.149,3.846-6.311,3.327-1.536-.253-2.213-2.669-3.1-4.5a10.319,10.319,0,0,0-.258-5.45,10.929,10.929,0,0,0,5.637-2.317" transform="translate(-117.84 -47.469)" fill="#ffb380"/>
            <path id="Trazado_715985" data-name="Trazado 715985" d="M412.533,205.334c-.277.881.039,1.391.555,1.548.575.176,1.06-.353,1.319-1.2a19.219,19.219,0,0,0-.333-3.732,8.693,8.693,0,0,0-1.541,3.38" transform="translate(-119.091 -58.315)" fill="#fff"/>
            <path id="Trazado_715986" data-name="Trazado 715986" d="M415.551,199.781a2.051,2.051,0,0,0,1.77.847,3.7,3.7,0,0,0,2.826-2.036c.226-.56-.373-1.289-1.391-1.2a5.054,5.054,0,0,0-3.2,2.394" transform="translate(-119.992 -56.994)" fill="#fff"/>
            <path id="Trazado_715987" data-name="Trazado 715987" d="M193.98,272.467a1.537,1.537,0,0,1,.882-2.81l42.045,1.05a8.08,8.08,0,0,1,4.3,1.3l46.486,34.885c1.315.956-.114,2.467-1.481,2.434l-42.126-1.217Z" transform="translate(-55.82 -77.864)" fill="#483737"/>
            <path id="Trazado_715988" data-name="Trazado 715988" d="M194.861,269.657a1.51,1.51,0,0,0-1.462,2.03l43.873,1.332a5.32,5.32,0,0,1,3.164,1.055l46.354,35.175c1.139-.311,2.031-1.539.9-2.359L241.207,272a8.077,8.077,0,0,0-4.3-1.3Z" transform="translate(-55.82 -77.864)" fill="#241c1c"/>
            <path id="Trazado_715989" data-name="Trazado 715989" d="M345.768,352.318l-10.258,1.3c-2.312,5.07-.836,11.124.836,15.335a257.547,257.547,0,0,0-3.814,32.394h.983c.629-10.938,2.236-21.333,3.78-32.239-1.7-5.329-3.166-10.863-1.041-14.915Z" transform="translate(-96.02 -101.733)" fill="#483737"/>
            <path id="Trazado_715990" data-name="Trazado 715990" d="M207.226,322.336c1.506-12.423,9.036-13.241,14.8-13.682-6.6,1-12.727,4.578-14.8,13.682" transform="translate(-59.837 -89.125)" fill="#2f4249"/>
            <path id="Trazado_715991" data-name="Trazado 715991" d="M210.692,311.089c7.8-4.25,16.795-3.5,23.933.122-4.795-3.609-16.254-6.373-23.933-.122" transform="translate(-60.838 -88.756)" fill="#2f4249"/>
            <path id="Trazado_715992" data-name="Trazado 715992" d="M210.247,320.511c-.644,4.845.323,9.738.918,14.729a13.549,13.549,0,0,1-3.011-5.435c.035-3.351.463-6.551,2.094-9.293" transform="translate(-60.105 -92.549)" fill="#2f4249"/>
            <path id="Trazado_715993" data-name="Trazado 715993" d="M227.514,329.7c-1.7,6-.085,10.379,2.289,12.506-3.046-3.618-2.943-8.925-2.289-12.506" transform="translate(-65.491 -95.203)" fill="#2f4249"/>
            <path id="Trazado_715994" data-name="Trazado 715994" d="M226.543,337.821c.119,2.649.317,6.01-1.308,6.965,2.516-.166,1.464-4.351,1.308-6.965" transform="translate(-65.037 -97.547)" fill="#2f4249"/>
            <path id="Trazado_715995" data-name="Trazado 715995" d="M212.48,297.639c2.733-.989,6.682,1.247,9.877,2.089-3.123-1.646-7.047-3.514-10.952-3.529a5.5,5.5,0,0,0,1.075,1.44" transform="translate(-61.044 -85.528)" fill="#2f4249"/>
            <path id="Trazado_715996" data-name="Trazado 715996" d="M216.224,303.128a41.556,41.556,0,0,1,17.483,3.651,64.614,64.614,0,0,0-17.483-3.651" transform="translate(-62.435 -87.529)" fill="#2f4249"/>
            <path id="Trazado_715997" data-name="Trazado 715997" d="M229.633,338.815c3.58,10.029,17.645-.713,21.093-6-4.886,5.179-17.477,8.388-21.093,6" transform="translate(-66.307 -96.1)" fill="#2f4249"/>
            <path id="Trazado_715998" data-name="Trazado 715998" d="M239.564,304.07c-4.92.735-9.109,3.871-11.763,12.048l.811.689c-.627,2.777-.727,4.916.492,7.524a2.408,2.408,0,0,0,2.309,1.156c13.907.4,17.827-5.666,21.9-10.911,4.056-2.213,8.612-2.723,13.021-3.732a12.584,12.584,0,0,0,5.882-1.42c2.785-.667,5.891.263,8.167-.339a1.441,1.441,0,0,0,.721-.406,26.3,26.3,0,0,0,4.221-6.117,2.3,2.3,0,0,0,0-2.287,47.848,47.848,0,0,1-1.844-6.143c-.048-.189-.088-.3-.284-.363a2.024,2.024,0,0,0-1.062.016c-.7-1.393-1.944-1.665-3.083-2.149-.487-4.043-2.643-3.331-4.878-4.245a22.312,22.312,0,0,0-1.916-4.294c-.635-.654-2.329-.918-3.123,1.5-.594,1.808-.466,3.637.03,6.317-1.047,1.456-1.57,3.41-2.423,4.583a15.548,15.548,0,0,1-7.913.368c2.464-2.286,1.825-7.71-1.478-7.454-2.226.594-5.694,2.94-7.728,3.082-5.917.4-7.549,4.383-7.545,9.736a8.148,8.148,0,0,1-2.515,2.839" transform="translate(-65.778 -81.615)" fill="#ffb380"/>
            <path id="Trazado_715999" data-name="Trazado 715999" d="M439.321,203.428a.149.149,0,0,0-.055.014,15.189,15.189,0,0,1-6.789,1.534.154.154,0,0,0-.108.044.149.149,0,0,0-.045.107.152.152,0,0,0,.15.153,15.514,15.514,0,0,0,6.922-1.564.151.151,0,0,0-.075-.288" transform="translate(-124.835 -58.74)" fill="#f95"/>
            <path id="Trazado_716000" data-name="Trazado 716000" d="M433.476,197.016a.15.15,0,0,0-.134.084,4.709,4.709,0,0,1-4.068,2.613.152.152,0,1,0,.032.3,5.049,5.049,0,0,0,4.307-2.78.152.152,0,0,0-.068-.2.148.148,0,0,0-.07-.016" transform="translate(-123.915 -56.889)" fill="#f95"/>
            <path id="Trazado_716001" data-name="Trazado 716001" d="M452.355,187.095a.151.151,0,0,0-.142.123c-.822,4.212-2.639,8.969-1.629,12.315a.152.152,0,1,0,.29-.087c-.957-3.17.807-7.918,1.636-12.169a.15.15,0,0,0-.023-.114.147.147,0,0,0-.133-.067" transform="translate(-130.022 -54.024)" fill="#f95"/>
            <path id="Trazado_716002" data-name="Trazado 716002" d="M458.653,205.766a.151.151,0,0,0-.145.119c-.118.532-.134,1.061-.232,1.56a2.589,2.589,0,0,1-.7,1.407.152.152,0,0,0,.217.213,2.926,2.926,0,0,0,.785-1.56c.1-.532.12-1.058.23-1.553a.151.151,0,0,0-.021-.115.149.149,0,0,0-.1-.067.147.147,0,0,0-.036,0" transform="translate(-132.113 -59.416)" fill="#f95"/>
            <path id="Trazado_716003" data-name="Trazado 716003" d="M417.8,211.654a.151.151,0,0,0-.145.119,2.936,2.936,0,0,1-1.149,1.814,4.965,4.965,0,0,1-2.392.821.152.152,0,0,0-.1.056.155.155,0,0,0-.032.112.153.153,0,0,0,.169.134,5.245,5.245,0,0,0,2.537-.878,3.264,3.264,0,0,0,1.265-1.994.152.152,0,0,0-.116-.181.148.148,0,0,0-.036,0" transform="translate(-119.537 -61.116)" fill="#f95"/>
            <path id="Trazado_716004" data-name="Trazado 716004" d="M423.27,218.45a.151.151,0,0,0-.145.119,9.7,9.7,0,0,1-2.373,3.868,11.3,11.3,0,0,0-2.615,4.443.152.152,0,0,0,.225.168.155.155,0,0,0,.07-.094,11.013,11.013,0,0,1,2.554-4.322,9.91,9.91,0,0,0,2.437-4,.152.152,0,0,0-.115-.181.158.158,0,0,0-.036,0" transform="translate(-120.737 -63.078)" fill="#f95"/>
            <path id="Trazado_716005" data-name="Trazado 716005" d="M415.66,201.169a.151.151,0,0,0-.127.066.148.148,0,0,0-.023.113.151.151,0,0,0,.063.1c.859.589,1.513,1.521,2.331,2.013a.152.152,0,1,0,.156-.26c-.73-.439-1.4-1.372-2.316-2a.144.144,0,0,0-.085-.027" transform="translate(-119.979 -58.088)" fill="#f95"/>
            <path id="Trazado_716006" data-name="Trazado 716006" d="M288.58,289.1a.123.123,0,0,0-.039.009.151.151,0,0,0-.093.193,9.4,9.4,0,0,1,.876,3.914c-.437,3.642-1.94,7.017-2.871,9.539a2.288,2.288,0,0,1-1.168,1.033,14.913,14.913,0,0,1-2.293.868,43.448,43.448,0,0,0-5.179,1.7.151.151,0,0,0-.078.086.146.146,0,0,0,.006.116.148.148,0,0,0,.086.078.152.152,0,0,0,.116-.006,44.258,44.258,0,0,1,5.139-1.681,15.106,15.106,0,0,0,2.342-.888,2.508,2.508,0,0,0,1.314-1.2c.925-2.5,2.443-5.905,2.888-9.608a9.464,9.464,0,0,0-.89-4.049.152.152,0,0,0-.154-.1" transform="translate(-80.194 -83.48)" fill="#f95"/>
            <path id="Trazado_716007" data-name="Trazado 716007" d="M296.2,295.073a.152.152,0,0,0-.145.159,88.684,88.684,0,0,1-.146,9.117v0a6.885,6.885,0,0,1-.18,1.112,1.994,1.994,0,0,1-.639.9c-1.857,1.677-5.282,2.841-7.822,4.287a.152.152,0,1,0,.15.264c2.5-1.423,5.935-2.573,7.876-4.326h0a2.34,2.34,0,0,0,.723-1.031,6.842,6.842,0,0,0,.193-1.174v-.009a89.008,89.008,0,0,0,.146-9.154.152.152,0,0,0-.158-.145" transform="translate(-82.926 -85.203)" fill="#f95"/>
            <path id="Trazado_716008" data-name="Trazado 716008" d="M300.074,298.1l-.021,0a.153.153,0,0,0-.118.179,27.989,27.989,0,0,1-.631,11.1h0a2.426,2.426,0,0,1-1.315,1.585c-2.539,1.556-5.214,1.973-7.91,2.454a.152.152,0,1,0,.053.3c2.691-.481,5.416-.9,8.015-2.494a2.817,2.817,0,0,0,1.446-1.75l0-.008a28.081,28.081,0,0,0,.637-11.251.152.152,0,0,0-.158-.121" transform="translate(-83.725 -86.076)" fill="#f95"/>
            <path id="Trazado_716009" data-name="Trazado 716009" d="M266.541,301.02a.153.153,0,0,0-.073.021c-2.538,1.476-5.244,1.681-7.881,2.593a20.143,20.143,0,0,0-4,2.284.152.152,0,0,0-.052.208.152.152,0,0,0,.208.052,20.24,20.24,0,0,1,3.938-2.258c2.589-.9,5.327-1.1,7.935-2.617a.152.152,0,0,0-.08-.283" transform="translate(-73.493 -86.92)" fill="#f95"/>
            <path id="Trazado_716010" data-name="Trazado 716010" d="M268.12,291.757a11.137,11.137,0,0,0,.459,3.872c-.475.649-1.145,1.138-1.821.775-.526-.282-.776-2.561-.531-3.127a3.5,3.5,0,0,1,1.893-1.52" transform="translate(-76.846 -84.246)" fill="#fff"/>
            <path id="Trazado_716011" data-name="Trazado 716011" d="M289.645,283.174a1.083,1.083,0,0,0-1.563.142,4.021,4.021,0,0,0,1.907,3.914,1.036,1.036,0,0,0,1.339-.3,19.282,19.282,0,0,0-1.683-3.752" transform="translate(-83.163 -81.691)" fill="#fff"/>
            <path id="Trazado_716012" data-name="Trazado 716012" d="M305.476,298.451c-.309-.145-.693-.043-1.138.368a28.329,28.329,0,0,0,.609,3.306c.373.814,1.419.542,1.358-.162Z" transform="translate(-87.879 -86.161)" fill="#fff"/>
            <path id="Trazado_716013" data-name="Trazado 716013" d="M337.525,362.845a2.409,2.409,0,1,1,2.41,2.41,2.41,2.41,0,0,1-2.41-2.41" transform="translate(-97.461 -104.077)" fill="#fff"/>
            <path id="Trazado_716014" data-name="Trazado 716014" d="M346.305,376.3c-2.425,6.565-5.07,16.519-4.6,26.325a115.024,115.024,0,0,1,4.6-26.325" transform="translate(-98.652 -108.658)" fill="#483737"/>
            <path id="Trazado_716015" data-name="Trazado 716015" d="M46.053,254.586c-.7,8.972.107,17.083,7.588,21.4a71.385,71.385,0,0,1,.174,13.478c-2.853-9.275-9.5-12.664-19.678-10.581,5.238,7.32,11.082,13.009,19.593,11.494a66.415,66.415,0,0,1-4.154,17.01c-2.75-9.721-9.462-13.3-19.852-11.171,5.269,7.364,11.15,13.075,19.741,11.467-.5,1.323-1.014,2.62-1.536,3.9-1.785,4.393-3.634,8.633-5.039,13.242-2.813-9.45-9.487-12.914-19.748-10.814,5.228,7.307,11.058,12.987,19.542,11.5a52.817,52.817,0,0,0-1.674,22.322.25.25,0,0,0,.1.166.251.251,0,0,0,.351-.044.251.251,0,0,0,.051-.185,55.135,55.135,0,0,1-.186-13.036c7.759,3.708,14.9-.184,21.907-5.8-9.226-4.754-16.539-3.3-21.793,4.844A63.664,63.664,0,0,1,45.8,318.137c7.851,3.9,15.068-.009,22.144-5.681-9.254-4.769-16.583-3.287-21.84,4.918.746-1.86,1.521-3.711,2.287-5.6a97.173,97.173,0,0,0,3.968-11.337c8.245,3.087,15.022-1.577,21.468-7.983-9.819-3.8-17-1.454-21.342,7.509a62.171,62.171,0,0,0,2.048-14.706c8.771.166,13.618-6.463,17.581-14.623-10.247-.337-16.209,4-17.566,13.367a77.508,77.508,0,0,0-.43-8.236c4.058-9.139,1.2-16.15-8.068-21.183" transform="translate(-6.683 -73.513)" fill="#241c1c"/>
            <path id="Trazado_716016" data-name="Trazado 716016" d="M25.274,272.681c.605,7.736-.092,14.731-6.543,18.456a61.591,61.591,0,0,0-.15,11.623c2.459-8,8.192-10.921,16.968-9.125-4.517,6.313-9.556,11.219-16.894,9.912a57.3,57.3,0,0,0,3.582,14.668c2.371-8.382,8.158-11.467,17.118-9.633-4.543,6.35-9.615,11.275-17.023,9.888.43,1.141.874,2.259,1.324,3.365,1.54,3.789,3.134,7.445,4.346,11.419,2.425-8.149,8.18-11.137,17.028-9.325-4.508,6.3-9.535,11.2-16.85,9.92A45.559,45.559,0,0,1,29.622,353.1a.218.218,0,0,1-.083.144.216.216,0,0,1-.3-.038.224.224,0,0,1-.043-.159,47.523,47.523,0,0,0,.161-11.241c-6.691,3.2-12.851-.158-18.891-5,7.956-4.1,14.261-2.842,18.793,4.176a54.853,54.853,0,0,0-3.767-13.5c-6.77,3.366-12.994-.007-19.095-4.9,7.98-4.112,14.3-2.834,18.832,4.241-.643-1.6-1.311-3.2-1.972-4.826a83.809,83.809,0,0,1-3.421-9.775c-7.11,2.661-12.954-1.361-18.512-6.885,8.467-3.277,14.66-1.254,18.4,6.476a53.626,53.626,0,0,1-1.765-12.682c-7.563.144-11.743-5.573-15.161-12.61,8.837-.291,13.977,3.452,15.147,11.526a66.986,66.986,0,0,1,.372-7.1c-3.5-7.881-1.038-13.926,6.957-18.266" transform="translate(-0.382 -78.738)" fill="#241c1c"/>
            <path id="Trazado_716017" data-name="Trazado 716017" d="M21.1,373.245H49.19c2.931,0,5.761,2.4,5.291,5.291l-3.776,23.226c-.471,2.893-2.36,5.291-5.292,5.291H24.654c-2.932,0-4.848-2.394-5.291-5.291l-3.554-23.226c-.444-2.9,2.36-5.291,5.291-5.291" transform="translate(-4.551 -107.776)" fill="#ffa031"/>
            <g transform="matrix(1, 0, 0, 1, 0, -29.31)" filter="url(#Rectángulo_348377)">
              <rect id="Rectángulo_348377-2" data-name="Rectángulo 348377" width="202.664" height="41.93" rx="5" transform="translate(0 41.29)" fill="#fff"/>
            </g>
            <text id="COMPETENCIAS_TRANSVERSALES" data-name="COMPETENCIAS TRANSVERSALES" transform="translate(99 39.39)" fill="#12263f" font-size="12" font-family="Roboto-Black, Roboto" font-weight="800"><tspan x="-96.17" y="0">COMPETENCIAS TRANSVERSALES</tspan></text>
          </g>
        </g>
      </g>
      <path id="Trazado_718076" data-name="Trazado 718076" d="M133.217,51.578h9.3a.3.3,0,1,0,0-.595h-9.3a.3.3,0,0,0,0,.595" transform="translate(351.65 3688.011)" fill="#1a2e35"/>
      <path id="Trazado_718077" data-name="Trazado 718077" d="M133.217,54.42h9.3a.3.3,0,1,0,0-.595h-9.3a.3.3,0,0,0,0,.595" transform="translate(351.65 3686.709)" fill="#1a2e35"/>
      <path id="Trazado_718078" data-name="Trazado 718078" d="M133.217,57.456h4.271a.3.3,0,1,0,0-.595h-4.271a.3.3,0,1,0,0,.595" transform="translate(356.684 3685.317)" fill="#1a2e35"/>
      <g id="Grupo_1019222" data-name="Grupo 1019222" transform="translate(-189.382 10850.154)">
        <path id="Trazado_735523" data-name="Trazado 735523" d="M308.786,55.408a15.4,15.4,0,0,1,1.746-5.888,10.552,10.552,0,0,1,1.921-2.658c.827-.807,1.839-1.451,2.752-2.185a13.781,13.781,0,0,0,5.163-8.959c.321-2.671.78-5.622.053-8.232a27.663,27.663,0,0,0-6.044-8.929c-3.317-2.661-8.237-4.3-12.706-4.837a22.108,22.108,0,0,0-12.987,2.336,17.233,17.233,0,0,0-8.929,12.488,18.2,18.2,0,0,0,4.591,14.288c1.454,1.676,3.184,3.159,4.632,4.84a20.566,20.566,0,0,1,4.235,7.8,35.22,35.22,0,0,0,5.627.277l4.772-.018a30.313,30.313,0,0,0,5.174-.321" transform="translate(414.601 -7136.816)" fill="#f4a338"/>
        <path id="Trazado_735524" data-name="Trazado 735524" d="M310.893,66.053a101.043,101.043,0,0,1-17.189-.018c-.322,4.206-.633,6.773.664,10.834a7.9,7.9,0,0,0,3.849,4.988c2.46,1.171,5.489.592,8.195-.051a8.089,8.089,0,0,0,2.959-1.132c1.7-1.255,1.793-3.467,1.755-5.406-.074-3.771-.148-5.808-.233-9.214" transform="translate(413.422 -7147.118)" fill="#373f51"/>
        <g id="Grupo_1019222-2" data-name="Grupo 1019222" transform="translate(693.588 -7106.685)" opacity="0.129">
          <g id="Grupo_183298" data-name="Grupo 183298">
            <g id="Grupo_183297" data-name="Grupo 183297" clip-path="url(#clip-path-3)">
              <path id="Trazado_238086" data-name="Trazado 238086" d="M307.537,34.444a1.133,1.133,0,0,1,1.617.166c.237.494.156.253.264.967.012.092.025.185.039.278.068.285.291,1.23.373,1.444q-.211-.416.016.036a18.3,18.3,0,0,0,1.954,3.854,11.909,11.909,0,0,0,1.651,2.408c1.094,1.3,4.1,3.751,5.838,5.872.507.6,1.627,1.973,1.785,2.209l.012.014a15.323,15.323,0,0,1,1.8,2.249c.962,1.641.877,1.614,1.488,2.8a6.7,6.7,0,0,1,.877,2.622,1.2,1.2,0,0,1-.037.182,1.933,1.933,0,0,1,.263,1.714c-.548,1.607-.542,3.471-.406,6.422.159,3.063-.052,1.888.863,4.654a6.29,6.29,0,0,0,.911,1.819,2.267,2.267,0,0,1,.468.979,1.451,1.451,0,0,1-1.032,1.652,4.285,4.285,0,0,1-.5-.295c-.712-.487-1.41-.987-2.139-1.456-.364-.233-.728-.467-1.088-.706a15.256,15.256,0,0,1-1.318-3.43c-.493-2.508-.623-2.987-1.116-5.748a13.8,13.8,0,0,1-.01-3.612,3.741,3.741,0,0,1,.735-2.236l0,0,.481.055q.417.046.835.08a22.077,22.077,0,0,0-4.384-8.073c-1.432-1.51-3.028-2.9-4.544-4.343a20.158,20.158,0,0,1-3.7-4.337c-.54-1.113-.45-1.006-.8-1.811-.057-.13.029.039.079.14-.2-.4-.387-.8-.566-1.2a7.749,7.749,0,0,1-.577-1.941.176.176,0,0,1-.01-.031c-.273-1.3-.812-2.68-.115-3.39" transform="translate(-307.194 -34.18)"/>
            </g>
          </g>
        </g>
        <path id="Trazado_735525" data-name="Trazado 735525" d="M301.559,83.1a15.711,15.711,0,0,0,2.108-.145c1.715-.234,5.846-1.107,7.174-4.14a8.4,8.4,0,0,0,.5-3.373c.009-1.9.02-3.37.029-4.838.01-1.5.02-3,.031-4.938a.413.413,0,0,0-.131-.305.4.4,0,0,0-.31-.1,165.347,165.347,0,0,1-17.463.236.4.4,0,0,0-.434.371,32.048,32.048,0,0,0,.618,10.817,8.232,8.232,0,0,0,1.746,4.259c1.612,1.762,4.163,2.159,6.137,2.159m9.034-16.986c-.009,1.724-.019,3.1-.028,4.485-.009,1.468-.02,2.942-.029,4.84a7.633,7.633,0,0,1-.426,3.042c-.807,1.843-3.255,3.212-6.548,3.663s-6.13-.207-7.555-1.763a7.428,7.428,0,0,1-1.542-3.849,31.2,31.2,0,0,1-.643-10.191c3.375.217,13.113.086,16.772-.226" transform="translate(413.602 -7146.966)"/>
        <path id="Trazado_735526" data-name="Trazado 735526" d="M293.344,55.927a.4.4,0,0,0,.075-.007.41.41,0,0,0,.32-.478c-.757-4.158-3.945-7.461-7.028-10.657-2.864-2.966-5.823-6.032-6.744-9.721a20.681,20.681,0,0,1,1.269-10.937,14.247,14.247,0,0,1,5.373-6.8c4.328-2.757,11.781-4.73,17.658-3.168,5.59,1.487,10.158,4.275,12.862,7.849a15.664,15.664,0,0,1,3.023,11.5,20.275,20.275,0,0,1-5.366,11c-.416.457-.861.912-1.291,1.353A25.324,25.324,0,0,0,310.9,48.8a11.424,11.424,0,0,0-2.163,6.381.4.4,0,1,0,.8.018,10.577,10.577,0,0,1,2.008-5.917,24.894,24.894,0,0,1,2.513-2.844c.436-.445.887-.906,1.313-1.373a21.093,21.093,0,0,0,5.574-11.452,16.5,16.5,0,0,0-3.183-12.107c-2.813-3.717-7.534-6.609-13.3-8.14-6.092-1.621-13.809.416-18.282,3.265a15.052,15.052,0,0,0-5.687,7.173,21.662,21.662,0,0,0-1.307,11.46c.975,3.9,4.012,7.051,6.949,10.094,3,3.107,6.1,6.319,6.812,10.231a.4.4,0,0,0,.393.335" transform="translate(414.875 -7136.666)"/>
        <path id="Trazado_735527" data-name="Trazado 735527" d="M296.682,58.6h0a.406.406,0,0,0,.4-.415v-.067c-.039-3.948-.24-8.072-.592-12.26a20.2,20.2,0,0,0-.895-5.04,6.774,6.774,0,0,0,3.347-1.967c.141-.156.274-.318.4-.488q.263.454.551.9c1.082,1.654,2.266,2.509,3.621,2.615a4.064,4.064,0,0,0,1.227-.105,31.95,31.95,0,0,0-.854,3.3A55.536,55.536,0,0,0,302.716,58a.4.4,0,1,0,.8-.023,54.677,54.677,0,0,1,1.153-12.742,28.533,28.533,0,0,1,1.022-3.764c.192-.073.379-.15.559-.227,1.954-.832,4.118-1.932,5.34-3.782a1.822,1.822,0,0,0,.16-2.214,1.96,1.96,0,0,0-2.061-.477,3.8,3.8,0,0,0-1.566,1.073,14.372,14.372,0,0,0-3.05,4.981,3.849,3.849,0,0,1-1.5.23c-1.093-.086-2.079-.822-3.014-2.254q-.386-.592-.722-1.2a10.417,10.417,0,0,0,1.2-4.476,7.114,7.114,0,0,0-1.186-5,1.285,1.285,0,0,0-1.3-.581,1.231,1.231,0,0,0-.682.53,6.1,6.1,0,0,0-.619,4.736,17.86,17.86,0,0,0,1.662,4.759,6.244,6.244,0,0,1-.558.724,5.962,5.962,0,0,1-3.061,1.757c-.03-.063-.058-.128-.089-.191a10.829,10.829,0,0,0-4.2-4.552,1.975,1.975,0,0,0-1.247-.363,1.147,1.147,0,0,0-.929.652,2.323,2.323,0,0,0,.211,2.006,6.526,6.526,0,0,0,3.575,3.152,5.275,5.275,0,0,0,2.18.2,18.7,18.7,0,0,1,.9,4.968c.352,4.167.549,8.271.589,12.2v.068a.406.406,0,0,0,.4.405M310.37,35.489a1,1,0,0,1,.764.284c.3.371-.044.985-.207,1.231-1.076,1.628-3.116,2.679-4.823,3.415a13.123,13.123,0,0,1,2.588-4,3.085,3.085,0,0,1,1.231-.866,1.5,1.5,0,0,1,.445-.068m-15.912,4.678a4.458,4.458,0,0,1-1.608-.2,5.746,5.746,0,0,1-3.123-2.79,1.505,1.505,0,0,1-.181-1.224.343.343,0,0,1,.3-.2,1.3,1.3,0,0,1,.745.256,10.018,10.018,0,0,1,3.863,4.153m4.328-11.832c.143,0,.322.16.441.308a6.136,6.136,0,0,1,1.009,4.423,10.151,10.151,0,0,1-.851,3.652,17.032,17.032,0,0,1-1.351-4.068,5.141,5.141,0,0,1,.485-4.1c.091-.13.159-.2.224-.211a.163.163,0,0,1,.043-.006" transform="translate(416.223 -7139.556)"/>
        <path id="Trazado_735528" data-name="Trazado 735528" d="M341.02,18.532a.4.4,0,0,0,.357-.223.415.415,0,0,0-.163-.547l-5-2.822a.773.773,0,0,0-.918-.027.456.456,0,0,0-.175.407c.039.379.042.4,5.727,3.171a.388.388,0,0,0,.172.04" transform="translate(350.377 -7137.056)"/>
        <path id="Trazado_735529" data-name="Trazado 735529" d="M291.93,6.242A.4.4,0,0,0,292.294,6l2.44-5.422a.413.413,0,0,0-.2-.543.4.4,0,0,0-.532.2l-2.44,5.422a.414.414,0,0,0,.2.544.39.39,0,0,0,.167.038" transform="translate(431.269 -7134.154)"/>
        <path id="Trazado_735530" data-name="Trazado 735530" d="M266.664,22.271a.378.378,0,0,0,.079-.008l5.489-1.12a.825.825,0,0,0,.689-.514.454.454,0,0,0-.108-.444c-.236-.244-.368-.378-6.254,1.281a.411.411,0,0,0-.284.489.4.4,0,0,0,.39.316" transform="translate(472.951 -7138.088)"/>
        <path id="Trazado_735531" data-name="Trazado 735531" d="M270.529,48.217a.4.4,0,0,0,.369-.251.413.413,0,0,0-.214-.537l-5.693-2.459a.4.4,0,0,0-.525.219.413.413,0,0,0,.213.537l5.694,2.459a.4.4,0,0,0,.156.032" transform="translate(476.395 -7142.977)"/>
        <path id="Trazado_735532" data-name="Trazado 735532" d="M318.383,6.18a.4.4,0,0,0,.149-.03.412.412,0,0,0,.222-.533L316.747.483a.4.4,0,0,0-.521-.228A.414.414,0,0,0,316,.788l2.008,5.135a.4.4,0,0,0,.372.258" transform="translate(388.054 -7134.199)"/>
        <path id="Trazado_735533" data-name="Trazado 735533" d="M337.572,43.351a.4.4,0,0,0,.145-.027l5.531-2.169a.411.411,0,0,0,.23-.529.4.4,0,0,0-.516-.236l-5.533,2.168a.412.412,0,0,0-.23.53.4.4,0,0,0,.373.264" transform="translate(346.681 -7142.078)"/>
      </g>
    </g>
    <g id="Grupo_1019236" data-name="Grupo 1019236" transform="translate(-525.658 -292.754)">
      <path id="Trazado_735564" data-name="Trazado 735564" d="M19.023,136.956h.023a16.107,16.107,0,0,0,3.011-.476.382.382,0,0,0,.27-.463.371.371,0,0,0-.453-.277,15.314,15.314,0,0,1-2.874.455.382.382,0,0,0,.023.762m-2.975-.1a.375.375,0,0,0,.369-.334.379.379,0,0,0-.324-.426,15.327,15.327,0,0,1-2.839-.641.37.37,0,0,0-.469.246.383.383,0,0,0,.241.48,16.038,16.038,0,0,0,2.976.672.315.315,0,0,0,.046,0m8.725-1.389a.369.369,0,0,0,.156-.035,16.376,16.376,0,0,0,2.633-1.568.387.387,0,0,0,.088-.532.368.368,0,0,0-.52-.089,15.721,15.721,0,0,1-2.514,1.5.384.384,0,0,0-.181.506.371.371,0,0,0,.338.221m-14.37-.465a.371.371,0,0,0,.328-.2.386.386,0,0,0-.15-.517,15.881,15.881,0,0,1-2.417-1.656.367.367,0,0,0-.525.055.388.388,0,0,0,.055.536,16.48,16.48,0,0,0,2.532,1.734.367.367,0,0,0,.178.046m19.2-3.057a.368.368,0,0,0,.268-.116,17.057,17.057,0,0,0,1.908-2.429.387.387,0,0,0-.1-.529.368.368,0,0,0-.516.108,16.446,16.446,0,0,1-1.823,2.32.388.388,0,0,0,.009.539.365.365,0,0,0,.26.107m-23.8-.767a.363.363,0,0,0,.241-.091.388.388,0,0,0,.042-.538,16.31,16.31,0,0,1-1.68-2.432.369.369,0,0,0-.51-.139.386.386,0,0,0-.136.521,17.118,17.118,0,0,0,1.757,2.546.371.371,0,0,0,.284.134M32.881,126.9a.374.374,0,0,0,.344-.232,17.423,17.423,0,0,0,.935-2.965.382.382,0,0,0-.283-.455.371.371,0,0,0-.444.289,16.631,16.631,0,0,1-.894,2.833.385.385,0,0,0,.2.5.362.362,0,0,0,.146.031M2.83,125.93a.367.367,0,0,0,.125-.022.384.384,0,0,0,.227-.487,16.611,16.611,0,0,1-.72-2.885.375.375,0,0,0-.428-.316.381.381,0,0,0-.309.437,17.433,17.433,0,0,0,.754,3.019.372.372,0,0,0,.351.254m31.353-4.953a.375.375,0,0,0,.371-.366c.01-.235.015-.47.015-.707a17.78,17.78,0,0,0-.272-3.1.374.374,0,0,0-.433-.307.383.383,0,0,0-.3.444,16.868,16.868,0,0,1,.261,2.966c0,.226-.005.452-.013.676a.378.378,0,0,0,.357.4h.015m-32.3-1.037a.378.378,0,0,0,.374-.374,16.887,16.887,0,0,1,.319-2.959.381.381,0,0,0-.292-.449.374.374,0,0,0-.439.3,17.749,17.749,0,0,0-.333,3.1.377.377,0,0,0,.365.389Zm31.246-5.623a.351.351,0,0,0,.132-.025.384.384,0,0,0,.218-.491,17.339,17.339,0,0,0-1.335-2.8.369.369,0,0,0-.512-.129.387.387,0,0,0-.126.524,16.53,16.53,0,0,1,1.276,2.677.372.372,0,0,0,.348.246M3.07,113.994a.371.371,0,0,0,.345-.239,16.593,16.593,0,0,1,1.329-2.648.387.387,0,0,0-.116-.527.367.367,0,0,0-.514.117,17.307,17.307,0,0,0-1.39,2.772.384.384,0,0,0,.207.5.362.362,0,0,0,.139.028m26.991-4.868a.369.369,0,0,0,.247-.1.387.387,0,0,0,.031-.538,16.892,16.892,0,0,0-2.224-2.13.367.367,0,0,0-.523.067.386.386,0,0,0,.065.535A16.139,16.139,0,0,1,29.781,109a.37.37,0,0,0,.279.128m-23.814-.255a.367.367,0,0,0,.273-.123,16.09,16.09,0,0,1,2.165-1.989.387.387,0,0,0,.076-.534.367.367,0,0,0-.521-.078,16.759,16.759,0,0,0-2.266,2.083.387.387,0,0,0,.02.539.367.367,0,0,0,.254.1M25.378,105.4a.373.373,0,0,0,.332-.206.386.386,0,0,0-.16-.514,16.18,16.18,0,0,0-2.826-1.165.371.371,0,0,0-.463.257.382.382,0,0,0,.251.474,15.4,15.4,0,0,1,2.7,1.112.362.362,0,0,0,.171.043M11,105.246a.365.365,0,0,0,.164-.038,15.461,15.461,0,0,1,2.72-1.054.383.383,0,0,0,.261-.469.372.372,0,0,0-.458-.267,16.218,16.218,0,0,0-2.85,1.1.385.385,0,0,0-.171.51.372.372,0,0,0,.335.214m8.695-1.576a.382.382,0,0,0,.037-.761,16.237,16.237,0,0,0-3.045-.033.379.379,0,0,0-.341.411.374.374,0,0,0,.4.349,15.672,15.672,0,0,1,2.909.031l.039,0" transform="translate(879.352 -7160.963)"/>
      <path id="Trazado_735565" data-name="Trazado 735565" d="M10.527,147.065A26.581,26.581,0,0,1,35.12,130.974c14.89,0,25.274,11.154,26.043,24.675,1.105,19.44-12.97,30.369-26.043,30.369a26.552,26.552,0,0,1-22.329-12.185c-4.868-7.64-4.917-19.957-2.265-26.768" transform="translate(847.392 -7168.061)" fill="#fff"/>
      <path id="Trazado_735566" data-name="Trazado 735566" d="M34.995,186.271a26.1,26.1,0,0,0,19.076-8.507c3.7-4.009,7.972-11.126,7.339-22.266a26.786,26.786,0,0,0-7.839-17.66,26.237,26.237,0,0,0-18.575-7.373A27.031,27.031,0,0,0,10.055,146.8c-2.733,7.018-2.631,19.381,2.3,27.117a27.046,27.046,0,0,0,22.641,12.358m0-55.044c14.073,0,24.869,10.226,25.67,24.315.618,10.868-3.54,17.8-7.137,21.7a25.361,25.361,0,0,1-18.534,8.268A26.3,26.3,0,0,1,12.978,173.5c-4.8-7.531-4.894-19.577-2.231-26.419a26.265,26.265,0,0,1,24.248-15.85" transform="translate(847.518 -7167.932)"/>
      <path id="Trazado_735567" data-name="Trazado 735567" d="M78.171,143.945q-4.506-4.113-9.38-7.776c2.766-.375,5.464-.577,8.164-.736-.686-2.772-1.2-5.516-1.706-8.26a116.366,116.366,0,0,1,9.267,7.327,35.1,35.1,0,0,1,.971,7.931c-2.153.749-4.994.871-7.316,1.513" transform="translate(779.24 -7167.103)" fill="#fff"/>
      <path id="Trazado_735568" data-name="Trazado 735568" d="M78.034,144.2a.361.361,0,0,0,.1-.013,31.089,31.089,0,0,1,3.3-.648,24.407,24.407,0,0,0,4.037-.873.38.38,0,0,0,.252-.345,29.8,29.8,0,0,0-.772-6.944c-.069-.361-.139-.719-.2-1.075a.383.383,0,0,0-.127-.221,115.88,115.88,0,0,0-9.3-7.349.367.367,0,0,0-.414,0,.387.387,0,0,0-.162.39c.476,2.559.966,5.2,1.6,7.834-2.3.14-4.971.337-7.742.712a.377.377,0,0,0-.312.284.385.385,0,0,0,.14.4c3.222,2.422,6.369,5.03,9.352,7.753a.37.37,0,0,0,.249.1m6.952-2.174a26.316,26.316,0,0,1-3.668.761c-1.069.171-2.173.346-3.187.612-2.725-2.479-5.582-4.863-8.509-7.1,2.6-.319,5.087-.49,7.217-.615a.371.371,0,0,0,.279-.156.385.385,0,0,0,.061-.319c-.607-2.45-1.083-4.918-1.531-7.324,2.78,1.986,5.237,4,8.39,6.691.058.313.12.628.181.946a30.284,30.284,0,0,1,.768,6.5" transform="translate(779.376 -7166.974)"/>
      <path id="Trazado_735569" data-name="Trazado 735569" d="M33.311,143.948a18.585,18.585,0,0,1,13.02,1.837,18.389,18.389,0,0,1,8.413,10.044,24.229,24.229,0,0,1,1.092,8.756,15.225,15.225,0,0,1-5.427,10.793,20.178,20.178,0,0,1-11.973,5.083,17.711,17.711,0,0,1-15.383-7.5,18.865,18.865,0,0,1-2.067-17.016c2.053-5.575,6.59-10.686,12.325-12" transform="translate(844.661 -7171.217)" fill="#fff"/>
      <path id="Trazado_735570" data-name="Trazado 735570" d="M37.233,180.751q.548,0,1.1-.037a20.456,20.456,0,0,0,12.182-5.166,15.6,15.6,0,0,0,5.565-11.075,24.343,24.343,0,0,0-1.113-8.9A18.675,18.675,0,0,0,33.1,143.449c-5.365,1.23-10.308,6.034-12.592,12.238a19.216,19.216,0,0,0,2.112,17.371,18.126,18.126,0,0,0,14.616,7.693m0-37a18.216,18.216,0,0,1,8.785,2.245,18.028,18.028,0,0,1,8.239,9.834,23.589,23.589,0,0,1,1.072,8.616,14.812,14.812,0,0,1-5.289,10.511,19.762,19.762,0,0,1-11.763,5,17.309,17.309,0,0,1-15.055-7.337,18.428,18.428,0,0,1-2.022-16.66c2.2-5.97,6.931-10.588,12.057-11.763a17.808,17.808,0,0,1,3.975-.445" transform="translate(844.794 -7171.089)"/>
      <path id="Trazado_735571" data-name="Trazado 735571" d="M38.464,155.432a10.2,10.2,0,0,1,7.012.968,9.749,9.749,0,0,1,4.531,5.294,12.516,12.516,0,0,1,.588,4.616A7.967,7.967,0,0,1,47.672,172a10.984,10.984,0,0,1-6.448,2.679,9.611,9.611,0,0,1-8.285-3.951,9.767,9.767,0,0,1-1.113-8.97c1.105-2.938,3.549-5.632,6.638-6.326" transform="translate(841.603 -7174.167)" fill="#5573c6"/>
      <path id="Trazado_735572" data-name="Trazado 735572" d="M40.514,174.951c.2,0,.4-.006.6-.019a11.3,11.3,0,0,0,6.655-2.76,8.357,8.357,0,0,0,3.064-5.973,12.78,12.78,0,0,0-.61-4.759,10.144,10.144,0,0,0-4.708-5.5,10.58,10.58,0,0,0-7.266-1,10.323,10.323,0,0,0-6.906,6.561,10.134,10.134,0,0,0,1.159,9.331,10,10,0,0,0,8.011,4.128m0-19.505a9.811,9.811,0,0,1,4.651,1.164,9.38,9.38,0,0,1,4.355,5.086,12.011,12.011,0,0,1,.567,4.472,7.563,7.563,0,0,1-2.782,5.4,10.6,10.6,0,0,1-6.241,2.6,9.216,9.216,0,0,1-7.959-3.795,9.353,9.353,0,0,1-1.067-8.609,9.56,9.56,0,0,1,6.369-6.09,9.628,9.628,0,0,1,2.106-.231" transform="translate(841.738 -7174.039)"/>
      <path id="Trazado_735573" data-name="Trazado 735573" d="M76.433,158.635a.368.368,0,0,0,.279-.128.387.387,0,0,0-.031-.538c-9.957-9.07-20.443-17.78-31.165-25.886a.367.367,0,0,0-.521.08.386.386,0,0,0,.078.533c10.7,8.093,21.171,16.788,31.112,25.843a.364.364,0,0,0,.248.1" transform="translate(805.383 -7168.321)"/>
      <path id="Trazado_735574" data-name="Trazado 735574" d="M22.42,179.349a.124.124,0,0,0,.111-.07,71.665,71.665,0,0,0,3.632-8.767.128.128,0,0,0-.076-.162.124.124,0,0,0-.159.079,71.255,71.255,0,0,1-3.619,8.735.13.13,0,0,0,.055.171.127.127,0,0,0,.056.013" transform="translate(872.56 -7177.987)"/>
      <path id="Trazado_735575" data-name="Trazado 735575" d="M22.978,182.611a.123.123,0,0,0,.11-.068,130.427,130.427,0,0,0,8.07-19.306.129.129,0,0,0-.079-.161.124.124,0,0,0-.157.081,130.21,130.21,0,0,1-8.053,19.268.128.128,0,0,0,.052.171.115.115,0,0,0,.058.015" transform="translate(867.159 -7176.153)"/>
      <path id="Trazado_735576" data-name="Trazado 735576" d="M24.959,182.3a.124.124,0,0,0,.113-.076c3.245-7.468,6.3-15.14,9.068-22.805a.128.128,0,0,0-.073-.164.122.122,0,0,0-.159.075c-2.771,7.661-5.819,15.329-9.062,22.791a.127.127,0,0,0,.063.168.123.123,0,0,0,.05.011" transform="translate(862.727 -7175.188)"/>
      <path id="Trazado_735577" data-name="Trazado 735577" d="M26.716,160.789a.125.125,0,0,0,.113-.074c.844-1.888,1.622-3.834,2.313-5.787a.126.126,0,0,0-.075-.162.122.122,0,0,0-.159.076c-.689,1.945-1.465,3.886-2.306,5.767a.129.129,0,0,0,.061.169.127.127,0,0,0,.052.011" transform="translate(866.439 -7174.057)"/>
      <path id="Trazado_735578" data-name="Trazado 735578" d="M29.2,157.462a.124.124,0,0,0,.115-.078l2.178-5.308a.129.129,0,0,0-.067-.167.124.124,0,0,0-.163.068l-2.178,5.308a.129.129,0,0,0,.067.167.124.124,0,0,0,.048.01" transform="translate(862.279 -7173.336)"/>
      <path id="Trazado_735579" data-name="Trazado 735579" d="M31.952,154.213a.124.124,0,0,0,.115-.079l1.885-4.619a.127.127,0,0,0-.067-.166.123.123,0,0,0-.162.069l-1.886,4.619a.128.128,0,0,0,.067.166.118.118,0,0,0,.048.01" transform="translate(857.8 -7172.691)"/>
      <path id="Trazado_735580" data-name="Trazado 735580" d="M35.926,152.135a.125.125,0,0,0,.114-.076c.648-1.52,1.233-3.09,1.735-4.665a.127.127,0,0,0-.079-.16.124.124,0,0,0-.157.081c-.5,1.567-1.082,3.128-1.727,4.642a.126.126,0,0,0,.114.178" transform="translate(851.074 -7172.159)"/>
      <path id="Trazado_735581" data-name="Trazado 735581" d="M39.792,150.879a.124.124,0,0,0,.115-.078,38.621,38.621,0,0,0,1.54-4.534.126.126,0,0,0-.086-.156.123.123,0,0,0-.153.088,38.285,38.285,0,0,1-1.531,4.5.129.129,0,0,0,.067.167.123.123,0,0,0,.048.01" transform="translate(844.579 -7171.875)"/>
      <path id="Trazado_735582" data-name="Trazado 735582" d="M43.932,150.847a.124.124,0,0,0,.119-.091l1.421-4.977a.127.127,0,0,0-.084-.158.125.125,0,0,0-.154.086l-1.421,4.977a.127.127,0,0,0,.084.158.115.115,0,0,0,.035.005" transform="translate(837.526 -7171.752)"/>
      <path id="Trazado_735583" data-name="Trazado 735583" d="M47.714,152.5a.125.125,0,0,0,.118-.088l1.86-5.96a.126.126,0,0,0-.08-.159.124.124,0,0,0-.156.082l-1.86,5.959a.128.128,0,0,0,.08.16.134.134,0,0,0,.038.006" transform="translate(830.54 -7171.921)"/>
      <path id="Trazado_735584" data-name="Trazado 735584" d="M51.867,154.131a.124.124,0,0,0,.116-.082l2.514-6.84a.128.128,0,0,0-.073-.164.122.122,0,0,0-.159.074l-2.514,6.84a.128.128,0,0,0,.072.164.114.114,0,0,0,.044.008" transform="translate(822.697 -7172.111)"/>
      <path id="Trazado_735585" data-name="Trazado 735585" d="M37.857,189.149a.125.125,0,0,0,.109-.065,48.7,48.7,0,0,0,2.939-6.522.128.128,0,0,0-.072-.164.124.124,0,0,0-.16.075,48.41,48.41,0,0,1-2.924,6.487.126.126,0,0,0,.109.189" transform="translate(846.532 -7181.024)"/>
      <path id="Trazado_735586" data-name="Trazado 735586" d="M55.95,151.943a.124.124,0,0,0,.117-.085l.988-2.867a.127.127,0,0,0-.076-.162.123.123,0,0,0-.158.078l-.988,2.867a.127.127,0,0,0,.075.162.116.116,0,0,0,.042.008" transform="translate(817.156 -7172.56)"/>
      <path id="Trazado_735587" data-name="Trazado 735587" d="M59.787,169.576a.123.123,0,0,0,.113-.074c1.746-3.857,3.417-7.809,4.966-11.745a.128.128,0,0,0-.069-.165.123.123,0,0,0-.162.07c-1.548,3.933-3.216,7.88-4.961,11.734a.127.127,0,0,0,.061.168.115.115,0,0,0,.052.012" transform="translate(806.539 -7174.77)"/>
      <path id="Trazado_735588" data-name="Trazado 735588" d="M62.084,163.487a.125.125,0,0,0,.11-.067c1.3-2.481,2.513-5.051,3.605-7.639a.128.128,0,0,0-.065-.167.123.123,0,0,0-.163.066c-1.089,2.582-2.3,5.145-3.6,7.62a.129.129,0,0,0,.051.172.118.118,0,0,0,.058.015" transform="translate(803.925 -7174.271)"/>
      <path id="Trazado_735589" data-name="Trazado 735589" d="M57.315,173.763a.124.124,0,0,0,.114-.076l5.741-13.531a.129.129,0,0,0-.065-.168.123.123,0,0,0-.163.066L57.2,173.585a.126.126,0,0,0,.114.178" transform="translate(810.04 -7175.373)"/>
      <path id="Trazado_735590" data-name="Trazado 735590" d="M59.367,179.5a.124.124,0,0,0,.113-.074l2.888-6.443a.128.128,0,0,0-.061-.168.123.123,0,0,0-.164.063l-2.888,6.442a.128.128,0,0,0,.061.168.117.117,0,0,0,.052.012" transform="translate(809.342 -7178.606)"/>
      <path id="Trazado_735591" data-name="Trazado 735591" d="M57.4,182.314a.124.124,0,0,0,.113-.074l2.494-5.519a.129.129,0,0,0-.061-.169.124.124,0,0,0-.165.062l-2.493,5.519a.127.127,0,0,0,.061.168.117.117,0,0,0,.052.012" transform="translate(813.137 -7179.549)"/>
      <path id="Trazado_735592" data-name="Trazado 735592" d="M55.344,184.653a.124.124,0,0,0,.113-.074l2.1-4.659a.129.129,0,0,0-.061-.169.124.124,0,0,0-.165.062l-2.1,4.659a.128.128,0,0,0,.061.168.117.117,0,0,0,.052.012" transform="translate(817.089 -7180.356)"/>
      <path id="Trazado_735593" data-name="Trazado 735593" d="M52.511,186.568a.124.124,0,0,0,.113-.073l2.119-4.655a.128.128,0,0,0-.06-.169.124.124,0,0,0-.165.062L52.4,186.387a.128.128,0,0,0,.06.169.12.12,0,0,0,.053.012" transform="translate(821.978 -7180.84)"/>
      <g id="Grupo_1019230" data-name="Grupo 1019230" transform="translate(854.948 -7031.505)" opacity="0.129">
        <g id="Grupo_183331" data-name="Grupo 183331">
          <g id="Grupo_183330" data-name="Grupo 183330" clip-path="url(#clip-path-4)">
            <path id="Trazado_238177" data-name="Trazado 238177" d="M69.7,138.882c.447-.693,1.135-.479,1.653,0,.482.365.958.739,1.45,1.09,2.1,1.6,4.237,2.984,5.811,4.382a.835.835,0,0,1-1.065,1.241c-1.889-1.5-3.882-2.858-5.834-4.271-.517-.353-1.015-.735-1.534-1.087a.976.976,0,0,1-.481-1.351" transform="translate(-69.577 -138.438)"/>
          </g>
        </g>
      </g>
      <g id="Grupo_1019231" data-name="Grupo 1019231" transform="translate(874.303 -7010.361)" opacity="0.129">
        <g id="Grupo_183334" data-name="Grupo 183334">
          <g id="Grupo_183333" data-name="Grupo 183333" clip-path="url(#clip-path-5)">
            <path id="Trazado_238178" data-name="Trazado 238178" d="M55.7,166.838c-.029-.176-.019-.17,0,0" transform="translate(-55.686 -166.709)"/>
          </g>
        </g>
      </g>
      <g id="Grupo_1019232" data-name="Grupo 1019232" transform="translate(884.698 -7002.181)" opacity="0.129">
        <g id="Grupo_183337" data-name="Grupo 183337">
          <g id="Grupo_183336" data-name="Grupo 183336" clip-path="url(#clip-path-6)">
            <path id="Trazado_238179" data-name="Trazado 238179" d="M41.454,177.647l-.1.015a.665.665,0,0,1,.1-.015" transform="translate(-41.355 -177.647)"/>
          </g>
        </g>
      </g>
      <g id="Grupo_1019233" data-name="Grupo 1019233" transform="translate(872.347 -7012.125)" opacity="0.129">
        <g id="Grupo_183340" data-name="Grupo 183340">
          <g id="Grupo_183339" data-name="Grupo 183339" clip-path="url(#clip-path-7)">
            <path id="Trazado_238180" data-name="Trazado 238180" d="M33.663,166.141a2.585,2.585,0,0,1,.258-1.423.885.885,0,0,1,1.277-.166c.535.4.321,1.176.444,1.756l-.007-.064.012.07a11.087,11.087,0,0,0,.449,1.8,11.612,11.612,0,0,0,2.6,3.91,10.6,10.6,0,0,0,4.182,2.161,7.435,7.435,0,0,0,3.279.107l-.046.005a6.337,6.337,0,0,0,4.144-1.89.875.875,0,0,1,1.223,1.251,10.282,10.282,0,0,1-6.556,2.879,8.49,8.49,0,0,1-1.371-.052,1.413,1.413,0,0,1-.012.3c-.39.874-.879.561-1.434.479-.754-.162-.485-.1-1.369-.3a7.611,7.611,0,0,1-3.768-2.381,11.32,11.32,0,0,1-2.905-4.868,11.674,11.674,0,0,1-.4-3.574" transform="translate(-33.661 -164.351)"/>
          </g>
        </g>
      </g>
      <g id="Grupo_1019234" data-name="Grupo 1019234" transform="translate(864.676 -7012.503)" opacity="0.129">
        <g id="Grupo_183346" data-name="Grupo 183346">
          <g id="Grupo_183345" data-name="Grupo 183345" clip-path="url(#clip-path-8)">
            <path id="Trazado_238182" data-name="Trazado 238182" d="M40.724,166.32a11.726,11.726,0,0,1,.2-1.549,1.008,1.008,0,0,1,.45-.8.878.878,0,0,1,1.271,1,9.613,9.613,0,0,0,.007,3.539,29.24,29.24,0,0,0,1.344,4.226c.1.274.213.544.323.814.174.3.058.251.28.658a18.583,18.583,0,0,0,1.405,2.6,21.692,21.692,0,0,0,4.8,5c1.254.952,1.045.541,2.2,1.229l-.361-.215c.187.066.372.135.558.2a24.4,24.4,0,0,0,4.858,1.437c.062.007.118.016.151.023.058.006.116.013.174.018a12.612,12.612,0,0,0,1.541,0c.212-.01.423-.033.635-.053a.624.624,0,0,1,.428.075.652.652,0,0,1-.173,1.179q-.464.107-.935.176h.012l-.039.005-.085.013.039-.007a9.644,9.644,0,0,1-3.81-.316,35.692,35.692,0,0,1-3.7-1.105c-.194-.059.058,0,.13,0a6.063,6.063,0,0,1-1.469-.439,18.363,18.363,0,0,1-6.728-5.847,13.507,13.507,0,0,1-1.5-2.686,5.5,5.5,0,0,1-.527-1.472l.039.3a25.007,25.007,0,0,1-1.328-4.551c.012.09.024.182.036.272a12.254,12.254,0,0,1-.224-3.719" transform="translate(-40.662 -163.845)"/>
          </g>
        </g>
      </g>
      <g id="Grupo_1019235" data-name="Grupo 1019235" transform="translate(856.205 -7011.063)" opacity="0.129">
        <g id="Grupo_183349" data-name="Grupo 183349">
          <g id="Grupo_183348" data-name="Grupo 183348" clip-path="url(#clip-path-9)">
            <path id="Trazado_238183" data-name="Trazado 238183" d="M45.444,166.577a.827.827,0,0,1,.233-.574.8.8,0,0,1,1.355.574,15.654,15.654,0,0,0,.852,5.623,26.482,26.482,0,0,0,2.007,5.312c.716,1.36,1.337,2.776,2.1,4.109a34.283,34.283,0,0,0,3.371,4.6c2.332,2.422,4.048,4.129,6.661,5a28.366,28.366,0,0,0,7.688,2.365c.086.007.267.037.3.046l.377.054a.678.678,0,0,1,.454.2.69.69,0,0,1-.471,1.162,17.582,17.582,0,0,1-2.934-.321,27.125,27.125,0,0,1-5.049-1.55,21.854,21.854,0,0,1-3.32-1.347,16.893,16.893,0,0,1-3.891-3.083,19.42,19.42,0,0,1-1.774-1.834.664.664,0,0,1-1.1.27,24.228,24.228,0,0,1-4.238-6.417,20.508,20.508,0,0,1-1.293-3.507c-.057-.436-.311-.921-.092-1.34a.622.622,0,0,1,.171-.2,27.489,27.489,0,0,1-1.414-7.221c-.035-.639-.032-1.281,0-1.921" transform="translate(-45.422 -165.77)"/>
          </g>
        </g>
      </g>
    </g>
  </g>
</svg>
