<svg xmlns="http://www.w3.org/2000/svg" xmlns:xlink="http://www.w3.org/1999/xlink" width="1328" height="738.449" viewBox="0 0 1328 738.449">
  <defs>
    <linearGradient id="linear-gradient" x1="0.5" x2="0.5" y2="1" gradientUnits="objectBoundingBox">
      <stop offset="0" stop-color="#6f88da"/>
      <stop offset="1" stop-color="#31313c" stop-opacity="0.702"/>
    </linearGradient>
  </defs>
  <path id="Trazado_730056" data-name="Trazado 730056" d="M7356,2084.207V1505.8h-.3V1345.758c-3.4,2.587-6.541,5.366-10.249,7.727-27.771,17.682-53.827,36.927-83.885,52.557-59.6,30.986-125.685,36.322-195.14,16.343q-36.258-10.429-71.564-22.387c-43.56-14.792-88.791-23.583-137.993-21.615-30.8,1.23-57.989,7.77-81.694,21.491-35.479,20.537-60.184,47.143-88.137,71.96-14.812,13.151-29.934,26.243-46.533,38.322-34.137,24.842-75.608,36.217-126.534,33.121-54.781-3.331-100.545-15.97-133.614-47.564-27.595-26.363-55.555-52.67-85.981-77.49-49.25-40.176-113.562-53.692-187.94-43.326-26.627,3.709-52.316,10.562-78.436,15.98v693.33Z" transform="translate(7355.999 2084.207) rotate(180)" opacity="0.055" fill="url(#linear-gradient)"/>
</svg>
