<svg id="Grupo_1019296" data-name="Grupo 1019296" xmlns="http://www.w3.org/2000/svg" xmlns:xlink="http://www.w3.org/1999/xlink" width="76" height="73.376" viewBox="0 0 76 73.376">
  <defs>
    <clipPath id="clip-path">
      <rect id="Rectángulo_352923" data-name="Rectángulo 352923" width="76" height="73.375" fill="#12263f"/>
    </clipPath>
  </defs>
  <g id="Grupo_1019295" data-name="Grupo 1019295" clip-path="url(#clip-path)">
    <path id="Trazado_735814" data-name="Trazado 735814" d="M58.928,93.425c0-1.212.014-2.3-.021-3.377,0-.112-.293-.3-.453-.308-1.78-.034-3.561-.044-5.341-.047a3.67,3.67,0,0,1-3.6-2.038,3.532,3.532,0,0,1,2.99-5.192c.793-.052,1.592-.032,2.387-.033q8.548-.005,17.1,0a3.74,3.74,0,0,1,3.9,2.8,3.576,3.576,0,0,1-3,4.39c-1.647.126-3.306.073-4.96.1-.4.007-.8.03-1.193.014-.451-.018-.553.183-.547.61.022,1.588.01,3.176-.006,4.764-.027,2.69-2.537,5.262-5.534,5.562a21.041,21.041,0,0,1-2.135.065q-6.19-.012-12.381-.038a1.547,1.547,0,0,0-.262.085c.077.676.116,1.393.247,2.094.3,1.612.321,1.6,1.944,1.6a14.746,14.746,0,0,1,4.79.417,8.7,8.7,0,0,1,5.984,7.754,1.361,1.361,0,0,1-1.4,1.563c-.168.009-.336,0-.5,0H19.272a6.885,6.885,0,0,1-.879-.024,1.2,1.2,0,0,1-1.175-1.338,8.634,8.634,0,0,1,8.206-8.381c1.256-.024,2.514.025,3.771.017.167,0,.46-.12.481-.227.23-1.159.417-2.326.621-3.524-.621,0-1.138,0-1.655,0-4.169-.007-8.339.006-12.507-.028a6.14,6.14,0,0,1-6.316-5.8c-.128-1.453-.09-2.921-.124-4.382-.007-.269,0-.538,0-.836-1.714,0-3.382.01-5.049-.005a9.166,9.166,0,0,1-2-.123,3.624,3.624,0,0,1,.636-7.1c.271-.021.544-.022.816-.022q9.428,0,18.856,0a3.78,3.78,0,0,1,3.955,3.613,3.6,3.6,0,0,1-3.144,3.578c-1.962.123-3.935.1-5.9.087-.574,0-.782.135-.739.736a15.794,15.794,0,0,1-.017,2.255c-.044.6.179.741.748.739,4.106-.019,8.213-.038,12.319.017a2.789,2.789,0,0,0,2.519-1.109,6.856,6.856,0,0,1,10.6-.124.98.98,0,0,1,.233.292c.326.956,1.081.967,1.917.96,4.169-.033,8.338-.032,12.507-.043h.974m-2.592,18.342a6.282,6.282,0,0,0-6.541-4.985c-.754.018-1.508.038-2.262.038q-10.9,0-21.81-.006a6.2,6.2,0,0,0-5.766,3.911,8.573,8.573,0,0,0-.268,1.041Zm-18.4-7.375v.016c1.7,0,3.394,0,5.091,0,.79,0,.9-.146.751-.94-.147-.778-.307-1.554-.447-2.332-.335-1.866-.6-3.745-1.008-5.6a4.442,4.442,0,0,0-4.189-3.285,4.132,4.132,0,0,0-4.274,2.825A33.108,33.108,0,0,0,33,99.03c-.285,1.535-.475,3.088-.778,4.619-.112.568-.023.757.568.75,1.718-.021,3.436-.008,5.154-.008M63.827,89.706c-.742,0-1.39.013-2.037,0-.4-.011-.532.115-.52.546.037,1.4.032,2.8.014,4.2-.013,1-.394,1.375-1.307,1.375l-14.39-.013H44.9c.173.759.356,1.415.461,2.084.061.389.233.458.583.454,1.655-.02,3.309-.021,4.964-.019,2.954,0,5.907.024,8.861.018,2.25-.005,3.9-1.315,4.037-3.372.119-1.72.024-3.455.024-5.268m-49.111,0c-.674,0-1.26.031-1.839-.01-.509-.035-.7.108-.682.65.038,1.336.007,2.674.013,4.011a3.623,3.623,0,0,0,3.93,3.963c4.418.025,8.837.008,13.255,0,1.213,0,1.213-.024,1.444-1.2.036-.184.077-.367.108-.552.128-.755.127-.763-.646-.762q-7.036.01-14.071.027c-1.055,0-1.5-.416-1.511-1.46-.009-1.521,0-3.042,0-4.666m47.9-2.47v-.006h9.424c.167,0,.376.05.494-.03a2.6,2.6,0,0,0,.937-.8.879.879,0,0,0-.428-1.18,3.135,3.135,0,0,0-1.049-.354A14.351,14.351,0,0,0,70.3,84.82q-8.606.008-17.213.028c-.874,0-1.608.587-1.6,1.194,0,.667.72,1.187,1.647,1.2h9.487m-49.139.007v-.021q4.112,0,8.225,0a15.14,15.14,0,0,0,1.693-.051c.467-.053.906-.23.977-.8a1.17,1.17,0,0,0-.641-1.306,1.857,1.857,0,0,0-.658-.176c-.4-.037-.794-.044-1.191-.044q-8.413,0-16.826,0a12.833,12.833,0,0,0-1.442.053,1.4,1.4,0,0,0-1.158,1.294,1.171,1.171,0,0,0,1.166,1.019,5,5,0,0,0,.564.031q4.646,0,9.292,0" transform="translate(0 -40.831)" fill="#12263f"/>
    <path id="Trazado_735815" data-name="Trazado 735815" d="M116.706,25.233a13.76,13.76,0,0,1,1.8-.66,3.528,3.528,0,0,1,3.935,1.787,3.438,3.438,0,0,1-.753,4.343c-1.588,1.391-3.276,2.668-4.923,3.993-.473.38-.95.755-1.427,1.13a3.414,3.414,0,0,1-4.145.194c-.865-.583-1.673-1.254-2.494-1.9-1.231-.972-2.45-1.961-3.677-2.94a3.807,3.807,0,0,1-1.658-3.019,3.667,3.667,0,0,1,5.418-3.214c.215.119.433.233.733.394,0-1.252.018-2.416-.018-3.577a.756.756,0,0,0-.392-.534A11.165,11.165,0,0,1,102.09,11.6a9.977,9.977,0,0,1,1.631-6.26A10.621,10.621,0,0,1,111.634.132a10.961,10.961,0,0,1,5.451,21.076c-.156.062-.359.269-.363.413-.03,1.186-.017,2.372-.017,3.611m-4.794-1.01h-.006c0,1.128.005,2.257,0,3.384a1.383,1.383,0,0,1-.515,1.275c-.6.411-1.06.366-1.817-.223-.643-.5-1.273-1.02-1.929-1.5a1.062,1.062,0,0,0-1.561.153.968.968,0,0,0-.042,1.541,6.15,6.15,0,0,0,.825.766c.713.581,1.438,1.146,2.158,1.718,1.046.833,2.076,1.687,3.144,2.491a1.385,1.385,0,0,0,2.026-.085c.591-.5,1.213-.959,1.816-1.444,1.352-1.087,2.722-2.153,4.04-3.28a1.028,1.028,0,0,0,.159-1.6,1.05,1.05,0,0,0-1.642-.235c-.773.532-1.5,1.136-2.25,1.7a1.117,1.117,0,0,1-1.281.174,1.17,1.17,0,0,1-.657-1.174c.007-2.423,0-4.847.006-7.271a1.279,1.279,0,0,1,1.125-1.432,8.491,8.491,0,0,0,5.565-11.263A8.481,8.481,0,0,0,109.362,3.3a8.389,8.389,0,0,0-4.377,10.373,8.394,8.394,0,0,0,5.659,5.492,1.5,1.5,0,0,1,1.268,1.733q0,1.661,0,3.322" transform="translate(-50.553 -0.019)" fill="#12263f"/>
    <path id="Trazado_735816" data-name="Trazado 735816" d="M12.029,31.721a4.054,4.054,0,0,1-3.877-1.41,3.337,3.337,0,0,1-.775-2.449c.2-2.248,1.848-3.435,4.743-3.383,0-1,.015-1.994-.019-2.99,0-.13-.24-.3-.4-.371a10.854,10.854,0,0,1-6.461-7.525A10.885,10.885,0,0,1,11.623.889,11.059,11.059,0,0,1,26.345,7.606,10.956,10.956,0,0,1,20.254,21a.968.968,0,0,0-.727,1.158,15.34,15.34,0,0,1,.029,1.879c0,.326.126.433.447.439a8.214,8.214,0,0,1,1.621.107,3.584,3.584,0,0,1,2.75,3.937,3.657,3.657,0,0,1-3.584,3.211c-1.194,0-1.194,0-1.224,1.216a3.592,3.592,0,0,1-3.285,3.645,3.658,3.658,0,0,1-3.927-2.713,18.444,18.444,0,0,1-.324-2.155m2.651-8.663c0,.815,0,1.63,0,2.445a1.219,1.219,0,0,1-1.33,1.376c-.733.018-1.467-.017-2.2.014A1.284,1.284,0,0,0,9.776,28.21a1.3,1.3,0,0,0,1.434,1.1c.691.005,1.383,0,2.073.009a1.263,1.263,0,0,1,1.4,1.393c.021.835.066,1.669.093,2.5a.939.939,0,0,0,.721.914,1.216,1.216,0,0,0,1.6-1.173c.026-.751,0-1.5.008-2.257a1.29,1.29,0,0,1,1.409-1.389c.712,0,1.424,0,2.137,0a1.219,1.219,0,1,0-.007-2.421c-.754-.009-1.508.012-2.262,0a1.2,1.2,0,0,1-1.277-1.3c-.005-1.547,0-3.093,0-4.64,0-1.176.228-1.522,1.357-1.838a8.613,8.613,0,1,0-4.893.061,1.344,1.344,0,0,1,1.112,1.453c.008.815,0,1.63,0,2.445" transform="translate(-2.429 0)" fill="#12263f"/>
    <path id="Trazado_735817" data-name="Trazado 735817" d="M75.663,135.678H39.016a8.549,8.549,0,0,1,.268-1.041,6.2,6.2,0,0,1,5.766-3.911q10.905,0,21.81.006c.754,0,1.508-.02,2.262-.038a6.282,6.282,0,0,1,6.541,4.985" transform="translate(-19.328 -64.742)" fill="#afafaf"/>
    <path id="Trazado_735818" data-name="Trazado 735818" d="M69.527,114.036c-1.718,0-3.436-.014-5.154.008-.591.007-.681-.182-.568-.75.3-1.531.493-3.084.778-4.619a33.029,33.029,0,0,1,.867-3.952,4.132,4.132,0,0,1,4.274-2.824,4.441,4.441,0,0,1,4.189,3.285c.4,1.85.673,3.73,1.008,5.6.14.779.3,1.555.447,2.332.15.794.039.938-.75.94-1.7.005-3.395,0-5.092,0v-.015M68.381,106.7a1.263,1.263,0,0,0,1.266,1.26,1.241,1.241,0,1,0-.093-2.479,1.3,1.3,0,0,0-1.172,1.219" transform="translate(-31.587 -50.475)" fill="#ffca28"/>
    <path id="Trazado_735819" data-name="Trazado 735819" d="M107.9,96.852c0,1.814.094,3.548-.024,5.268-.142,2.057-1.787,3.367-4.038,3.371-2.954.007-5.907-.014-8.861-.018-1.655,0-3.31,0-4.964.018-.349,0-.521-.064-.582-.453-.1-.668-.288-1.324-.461-2.084h.691q7.195.006,14.39.012c.913,0,1.294-.378,1.306-1.374.018-1.4.024-2.8-.014-4.2-.012-.431.119-.557.521-.546.647.018,1.295,0,2.037,0" transform="translate(-44.075 -47.976)" fill="#ffca28"/>
    <path id="Trazado_735820" data-name="Trazado 735820" d="M26.686,96.845c0,1.623-.007,3.145,0,4.666.006,1.043.456,1.462,1.511,1.46q7.036-.017,14.071-.027c.774,0,.775.007.646.762-.031.185-.072.368-.108.553-.232,1.174-.232,1.194-1.444,1.2-4.418.012-8.837.029-13.255,0a3.622,3.622,0,0,1-3.93-3.962c-.006-1.337.025-2.675-.013-4.011-.016-.542.173-.686.682-.651.58.041,1.165.01,1.839.01" transform="translate(-11.971 -47.968)" fill="#ffca28"/>
    <path id="Trazado_735821" data-name="Trazado 735821" d="M113.157,89.589H103.67c-.927-.009-1.644-.529-1.647-1.2,0-.607.731-1.191,1.6-1.194q8.606-.029,17.213-.028a14.242,14.242,0,0,1,1.694.048,3.134,3.134,0,0,1,1.049.354.879.879,0,0,1,.429,1.18,2.6,2.6,0,0,1-.937.8c-.117.08-.326.03-.494.03q-4.713,0-9.424,0Z" transform="translate(-50.54 -43.182)" fill="#d2e1f1"/>
    <path id="Trazado_735822" data-name="Trazado 735822" d="M15.887,89.618q-4.646,0-9.292,0a5.005,5.005,0,0,1-.564-.031,1.171,1.171,0,0,1-1.166-1.019,1.4,1.4,0,0,1,1.158-1.294,12.831,12.831,0,0,1,1.442-.053q8.413-.007,16.826,0c.4,0,.8.007,1.191.044a1.856,1.856,0,0,1,.658.176,1.17,1.17,0,0,1,.641,1.306c-.072.574-.511.75-.977.8a15.138,15.138,0,0,1-1.693.051q-4.113.006-8.225,0v.021" transform="translate(-2.41 -43.204)" fill="#d2e1f1"/>
    <path id="Trazado_735823" data-name="Trazado 735823" d="M114.331,26.577q0-1.661,0-3.322a1.505,1.505,0,0,0-1.268-1.733A8.393,8.393,0,0,1,107.4,16.03a8.388,8.388,0,0,1,4.377-10.372,8.541,8.541,0,1,1,6.145,15.875,1.278,1.278,0,0,0-1.124,1.432c-.009,2.424,0,4.847-.006,7.271a1.169,1.169,0,0,0,.658,1.173,1.117,1.117,0,0,0,1.281-.174c.753-.563,1.476-1.167,2.25-1.7a1.05,1.05,0,0,1,1.642.235,1.028,1.028,0,0,1-.159,1.6c-1.318,1.127-2.688,2.193-4.04,3.28-.6.484-1.225.946-1.816,1.444a1.384,1.384,0,0,1-2.025.084c-1.068-.8-2.1-1.658-3.144-2.49-.72-.572-1.445-1.137-2.158-1.718a6.18,6.18,0,0,1-.825-.766.968.968,0,0,1,.042-1.541,1.062,1.062,0,0,1,1.561-.153c.656.482,1.286,1,1.929,1.5.757.589,1.221.634,1.817.223a1.383,1.383,0,0,0,.515-1.275c.008-1.128,0-2.257,0-3.385h.006M109.379,13.3a6.135,6.135,0,1,0,6.139-6.088,6.188,6.188,0,0,0-6.139,6.088" transform="translate(-52.972 -2.373)" fill="#4adbd1"/>
    <path id="Trazado_735824" data-name="Trazado 735824" d="M17.036,25.464c0-.815.006-1.63,0-2.445a1.343,1.343,0,0,0-1.111-1.453,8.528,8.528,0,1,1,4.892-.061c-1.129.316-1.356.663-1.357,1.838,0,1.547,0,3.093,0,4.64a1.2,1.2,0,0,0,1.277,1.3c.753.016,1.508-.005,2.262,0a1.219,1.219,0,1,1,.007,2.421c-.712.007-1.425,0-2.137,0A1.29,1.29,0,0,0,19.46,33.1c-.005.752.019,1.505-.008,2.257a1.216,1.216,0,0,1-1.6,1.173.94.94,0,0,1-.72-.914c-.027-.835-.073-1.668-.093-2.5a1.263,1.263,0,0,0-1.4-1.393c-.692-.013-1.383,0-2.074-.009a1.3,1.3,0,0,1-1.434-1.1A1.284,1.284,0,0,1,13.508,29.3c.732-.03,1.466,0,2.2-.014a1.219,1.219,0,0,0,1.33-1.376c0-.815,0-1.63,0-2.445m1.2-5.965a6.106,6.106,0,0,0,6.172-5.974A6.171,6.171,0,1,0,12.07,13.4a6.111,6.111,0,0,0,6.167,6.1" transform="translate(-4.785 -2.406)" fill="#6f88da"/>
    <path id="Trazado_735825" data-name="Trazado 735825" d="M72.914,110.215A1.3,1.3,0,0,1,74.086,109a1.241,1.241,0,1,1,.093,2.479,1.263,1.263,0,0,1-1.266-1.26" transform="translate(-36.12 -53.994)" fill="#12263f"/>
    <path id="Trazado_735826" data-name="Trazado 735826" d="M111.782,15.675a6.135,6.135,0,0,1,12.269-.062,6.135,6.135,0,1,1-12.269.062m6.13,3.757a3.641,3.641,0,0,0,3.731-3.648A3.843,3.843,0,0,0,117.773,12a3.677,3.677,0,0,0-3.567,3.63,3.628,3.628,0,0,0,3.705,3.8" transform="translate(-55.375 -4.749)" fill="#12263f"/>
    <path id="Trazado_735827" data-name="Trazado 735827" d="M20.6,21.833a6.11,6.11,0,0,1-6.167-6.1,6.171,6.171,0,1,1,12.34.124A6.106,6.106,0,0,1,20.6,21.833m0-2.432c1.89.212,3.775-1.758,3.781-3.642a3.768,3.768,0,1,0-7.534.046A3.76,3.76,0,0,0,20.6,19.4" transform="translate(-7.151 -4.739)" fill="#12263f"/>
  </g>
</svg>
