<svg xmlns="http://www.w3.org/2000/svg" xmlns:xlink="http://www.w3.org/1999/xlink" width="36.614" height="39.012" viewBox="0 0 36.614 39.012">
  <defs>
    <clipPath id="clip-path">
      <rect id="Rect치ngulo_352657" data-name="Rect치ngulo 352657" width="31.769" height="34.014" fill="none"/>
    </clipPath>
    <clipPath id="clip-path-2">
      <rect id="Rect치ngulo_351287" data-name="Rect치ngulo 351287" width="21.252" height="21.625" fill="none"/>
    </clipPath>
  </defs>
  <g id="Grupo_1019437" data-name="Grupo 1019437" transform="translate(-180 -1200.953)">
    <g id="Grupo_1018645" data-name="Grupo 1018645" transform="translate(180 1200.953)" clip-path="url(#clip-path)">
      <path id="Trazado_732596" data-name="Trazado 732596" d="M0,36.611v-.332c.021-.021.059-.04.061-.062A2.52,2.52,0,0,1,2.5,33.974c1.6-.035,3.2-.013,4.8-.01a.5.5,0,0,1,.543.517c-.031.36-.162.48-.555.483-1.08.008-2.16.012-3.24.017-.475,0-.952-.033-1.426-.006a1.593,1.593,0,0,0-1.475.969,2.32,2.32,0,0,0-.1,1.011q0,12.834,0,25.668a.626.626,0,0,1,0,.231,1.029,1.029,0,0,0,.151.966,1.481,1.481,0,0,0,1.329.891q11.784,0,23.567.01a1.828,1.828,0,0,0,1.573-.61,1.287,1.287,0,0,0,.369-.8c.026-1,0-2-.009-3.006,0-.515.018-.538.526-.715.388.141.483.277.484.727,0,.885.015,1.77,0,2.655a2.7,2.7,0,0,1-1.09,2.251,4.7,4.7,0,0,1-1.054.488H2.059c-.009-.054-.049-.055-.093-.068A2.7,2.7,0,0,1,.353,64.385a7.647,7.647,0,0,1-.353-1v-.4c.125-.077.063-.2.063-.3Q.068,49.8.063,36.912c0-.1.062-.223-.063-.3" transform="translate(0 -31.693)" fill="#030404"/>
      <path id="Trazado_732597" data-name="Trazado 732597" d="M41.456,78.257a1.828,1.828,0,0,1-1.573.61q-11.783-.024-23.567-.01a1.481,1.481,0,0,1-1.329-.891A1.029,1.029,0,0,1,14.835,77a.626.626,0,0,0,0-.231q0-12.834,0-25.668a2.32,2.32,0,0,1,.1-1.011,1.593,1.593,0,0,1,1.475-.969c.473-.028.95,0,1.426.006q0,.48,0,.96c-.475,0-.951,0-1.426.016-.4.012-.582.209-.583.615q-.006,1.561-.007,3.121c0,1.328,0,2.657,0,3.985,0,.443.1.548.491.583q0,.588,0,1.175c-.37.044-.486.16-.486.5q0,8.418-.007,16.836c0,.066.013.133.008.2-.043.5.175.74.683.743l2.323.01a1.112,1.112,0,0,0,.987.381q10.818.008,21.636,0" transform="translate(-13.784 -45.84)" fill="#958a97"/>
      <path id="Trazado_732598" data-name="Trazado 732598" d="M98.44,71.5q-10.818,0-21.636,0a1.112,1.112,0,0,1-.987-.381c.132,0,.265-.01.4-.01H96.955c.67,0,.846-.173.863-.844,0-.077,0-.155,0-.232V58.081q0-6.938,0-13.877c0-.668-.195-.86-.867-.86-1.46,0-2.921.012-4.38-.008a.555.555,0,0,0-.629.471l-.126-.012q0-.955,0-1.91l.123-.012a.381.381,0,0,0,.1.272c-.015.044,0,.056.045.05.145.178.347.162.545.162,1.483,0,2.966,0,4.448,0a1.613,1.613,0,0,1,1.715,1.516Q98.8,54.567,98.8,65.26c0,.383.125.532.527.605q0,.556,0,1.112c-.508.177-.528.2-.526.715.005,1,.035,2.005.009,3.006a1.287,1.287,0,0,1-.369.8" transform="translate(-70.768 -39.085)" fill="#a59da8"/>
      <path id="Trazado_732599" data-name="Trazado 732599" d="M60.848,43.328l0-.96c1.08-.005,2.16-.008,3.24-.017.393,0,.524-.123.555-.483l.19.012q0,.988,0,1.977l-.145,0c-.161-.437-.278-.519-.738-.52l-3.1-.012" transform="translate(-56.797 -39.081)" fill="#a59da8"/>
      <path id="Trazado_732600" data-name="Trazado 732600" d="M318.07,34.777a.381.381,0,0,1-.1-.272c.086-.406.212-.518.618-.518,1.46,0,2.92.02,4.379-.007a2.7,2.7,0,0,1,2.88,2.874c-.016,5.642-.006,11.283-.006,16.925q0,1.975,0,3.949a.7.7,0,0,1-.486.77c-.4-.074-.527-.223-.527-.606q0-10.693-.007-21.386a1.614,1.614,0,0,0-1.715-1.516c-1.483-.006-2.966,0-4.448,0-.2,0-.4.016-.545-.162l-.045-.05" transform="translate(-296.8 -31.717)" fill="#030404"/>
      <path id="Trazado_732601" data-name="Trazado 732601" d="M132.971,2.724a1.7,1.7,0,0,1,1.683-1.714.733.733,0,0,0,.592-.272A2.126,2.126,0,0,1,136.966,0c1.1,0,2.209-.007,3.314,0a2.2,2.2,0,0,1,1.8.791.674.674,0,0,0,.621.275,1.569,1.569,0,0,1,1.5,1.059c.074.211.025.458.155.661-.074.665,0,1.333-.038,2,.026.1-.108.11-.114.193a1.4,1.4,0,0,1-1.071,1.412,5.416,5.416,0,0,1-1.913.094.426.426,0,0,1-.379-.46l.026-.117.05-.134a.473.473,0,0,1,.5-.271c.284.013.569-.005.854,0,.572.02.885-.063,1.053-.739a8.9,8.9,0,0,0,0-2.042C143.212,2.2,143,2,142.455,2a1.209,1.209,0,0,1-1.006-.447A1.6,1.6,0,0,0,140.087,1c-.941.007-1.881,0-2.822,0a1.711,1.711,0,0,0-1.527.638,1.15,1.15,0,0,1-1,.424.651.651,0,0,0-.744.673,3.307,3.307,0,0,0-.042,1.007,3.819,3.819,0,0,0,.047,1.1.715.715,0,0,0,.779.665c1.432,0,2.864,0,4.3.007a.517.517,0,0,1,.6.461.059.059,0,0,0,0,.062.492.492,0,0,1-.551.472c-1.424,0-2.847-.014-4.271.005a1.824,1.824,0,0,1-1.281-.436A1.511,1.511,0,0,1,133,4.789q-.016-1.032-.031-2.065" transform="translate(-124.117 0.001)" fill="#030404"/>
      <path id="Trazado_732602" data-name="Trazado 732602" d="M121.452,40.919q.016,1.032.031,2.065l-.853,0,.007-.015q0-.988,0-1.977c.271-.038.554.052.816-.076" transform="translate(-112.598 -38.195)" fill="#958a97"/>
      <path id="Trazado_732603" data-name="Trazado 732603" d="M303.391,43.916c.035-.666-.036-1.333.038-2l.809.009q0,.955,0,1.91l.007.015c-.289-.046-.564.1-.853.064" transform="translate(-283.19 -39.127)" fill="#958a97"/>
      <path id="Trazado_732604" data-name="Trazado 732604" d="M49.7,64.319a.555.555,0,0,1,.629-.471c1.46.02,2.92.008,4.38.008.672,0,.867.191.867.86q0,6.938,0,13.877V90.544c0,.077,0,.155,0,.232-.017.671-.193.844-.863.844H33.97c-.132,0-.265.006-.4.01l-2.323-.01c-.508,0-.726-.242-.683-.743.006-.065-.008-.132-.008-.2q0-8.418.007-16.836c0-.342.116-.459.486-.5.309,0,.481.142.468.467l.039.081q0,8.159.005,16.318a2.139,2.139,0,0,1,0,.232c-.016.144.04.194.185.188.3-.013.6-.01.894-.014.132,0,.265.011.4.011H53.42c.376,0,.752,0,1.128-.007.053,0,.079-.019.029-.067,0-.133-.005-.265-.005-.4q0-11.586,0-23.173c0-.664,0-1.328.005-1.992.058-.038.023-.057-.015-.077l-.012.007c0-.045-.012-.071-.063-.053l-4.161-.009c-.416,0-.55-.117-.629-.535" transform="translate(-28.524 -59.597)" fill="#030404"/>
      <path id="Trazado_732605" data-name="Trazado 732605" d="M39.545,104.86c-.3,0-.6,0-.894.014-.146.006-.2-.044-.185-.188a2.157,2.157,0,0,0,0-.232q0-8.159-.005-16.318c.025-.045,0-.065-.039-.081.013-.325-.159-.465-.468-.467q0-.588,0-1.175c.275-.036.493-.13.468-.467.036-.016.064-.035.039-.081q0-2.24.006-4.481c0-.741.011-1.481.018-2.222l.065-.049.862,0q0,12.316,0,24.632a5.27,5.27,0,0,0,.13,1.111" transform="translate(-35.428 -73.845)" fill="#efe3df"/>
      <path id="Trazado_732606" data-name="Trazado 732606" d="M31.5,71.639c.025.337-.193.431-.468.467-.393-.035-.489-.139-.491-.583,0-1.328,0-2.657,0-3.985q0-1.561.007-3.121c0-.407.181-.6.583-.615.475-.014.951-.011,1.426-.016l3.1.012c.459,0,.577.084.738.52-.18.456-.212.476-.74.478l-3.17.015-.862,0c-.045-.014-.071,0-.065.05-.006.741-.016,1.481-.018,2.222q-.006,2.24-.006,4.481l-.039.08" transform="translate(-28.504 -59.539)" fill="#030404"/>
      <path id="Trazado_732607" data-name="Trazado 732607" d="M59.845,71.306l3.17-.015c.527,0,.56-.022.74-.478l.145,0-.007.015c.023.141.045.282.07.422a2.508,2.508,0,0,0,2.482,2.1q3.994,0,7.989,0a1.748,1.748,0,0,0,.363-.017,2.62,2.62,0,0,0,2.119-2.567l-.007-.015.126.012c.079.418.213.534.629.535l4.161.009.063.053.012-.007.015.077c0,.664-.005,1.328-.005,1.992q0,11.586,0,23.173c0,.133,0,.265.005.4l-.029.067c-.376,0-.752.007-1.128.007H60.375c-.132,0-.265-.007-.4-.011a5.271,5.271,0,0,1-.13-1.111q-.006-12.316,0-24.632M64.5,93.08c.033-.014.064-.03.045-.075a15.919,15.919,0,0,0-.042-2.078,1.13,1.13,0,0,0-.871-.977,11.438,11.438,0,0,0-2.305-.048,1.153,1.153,0,0,0-1.011.975c-.009.73-.014,1.461,0,2.192A1.114,1.114,0,0,0,61.4,94.129c.675.009,1.35.016,2.025,0A1.149,1.149,0,0,0,64.5,93.08m0-18.017c.041-.2-.089-.336-.2-.474q0-.027,0-.054a1.036,1.036,0,0,0-.666-.47,14.654,14.654,0,0,0-2.24-.046,1.138,1.138,0,0,0-1.076,1.13c-.005.663.026,1.328-.009,1.99a1.215,1.215,0,0,0,1.141,1.123c.662-.025,1.326,0,1.99-.006A1.148,1.148,0,0,0,64.5,77.2c.033-.014.064-.03.045-.075V75.139c.019-.046-.012-.061-.045-.076m.046,5.39c.019-.046-.012-.062-.046-.076a1.044,1.044,0,0,0-1.058-1.049c-.7-.048-1.416-.024-2.123,0a1.049,1.049,0,0,0-1,1.05q-.007,1,0,1.992a1.169,1.169,0,0,0,.992,1.2l.143-.014,1.914,0,.143.012c.07-.021.142-.037.21-.063a1.126,1.126,0,0,0,.786-.98c.032-.014.064-.03.044-.075q0-.995,0-1.989m2.068.323c.033,0,.066.006.1.006H79.853c.085,0,.179.025.252-.046.188-.078.391-.123.4-.4s-.041-.476-.329-.558c-.092-.091-.209-.054-.315-.054q-6.469,0-12.937,0c-.1,0-.222-.051-.309.056-.45.018-.587.126-.591.464a.546.546,0,0,0,.59.533M80.17,92.737c-.015-.031-.03-.062-.074-.043-.132,0-.265-.012-.4-.012H66.957c-.144,0-.289-.017-.431,0a.5.5,0,0,0-.506.553.493.493,0,0,0,.538.44q2.339.005,4.678.007H79.93c.239,0,.5-.023.553-.3s.059-.562-.313-.645M66.48,87.416a.422.422,0,0,0-.329.136c-.028.063-.289-.1-.135.14q0,.2,0,.4c-.09.1.032.1.067.137a.385.385,0,0,0,.4.186l.077-.013q3,0,6,.005,3.732,0,7.463-.007l.077.013a.529.529,0,0,0,.4-.574c-.01-.291-.2-.35-.4-.429-.107-.086-.234-.047-.351-.047q-6.464,0-12.928,0c-.115,0-.244-.049-.345.055M80.1,75.449c.044.019.06-.012.075-.043.369-.084.37-.376.314-.643s-.312-.3-.552-.3q-6.669,0-13.339.009c-.207,0-.405-.072-.5.268-.112.4.041.727.466.726l13.007-.007c.177,0,.353-.008.53-.012M66.687,77.812q3.27,0,6.54-.007,3.353,0,6.706,0c.24,0,.493-.028.551-.3s.054-.56-.313-.648c-.016-.034-.035-.062-.08-.041l-8.465-.009c-1.671,0-3.342,0-5.013-.017a.558.558,0,0,0-.549.274.49.49,0,0,0,.084.6c.007.038.022.067.069.054.113.117.265.06.4.089.02.034.042.059.071.008m-.469,12.616c-.047-.014-.062.015-.069.053a.512.512,0,0,0,.362.867q6.594-.016,13.189-.01c.132,0,.264-.01.4-.016.055.018.106.022.138-.04a.512.512,0,0,0,.244-.672c-.077-.259-.336-.272-.574-.272q-1.938,0-3.876,0l-9.275-.007c-.03-.052-.051-.027-.071.008-.152.044-.336-.079-.464.089M64.542,87.69c0-.595.006-1.189.012-1.784,0-.105-.028-.214.068-.307a5.5,5.5,0,0,1,.805-.775c.271-.169.149-.341.121-.513a.429.429,0,0,0-.381-.344.592.592,0,0,0-.6.3c-.3.4-.64.618-1.129.309l-.077.014-1.913,0c-.057-.03-.108-.032-.145.032a1.07,1.07,0,0,0-.989,1.043q0,1.079,0,2.158a1.037,1.037,0,0,0,.97.986c.719.014,1.438.02,2.157,0A1.09,1.09,0,0,0,64.5,87.766c.034-.014.065-.029.046-.075m8.715-1.659v0h2.423c1.427,0,2.855,0,4.282,0a.478.478,0,0,0,.531-.33c.128-.388-.134-.67-.629-.67H66.654c-.4,0-.629.179-.628.5,0,.34.2.5.626.5h6.606m.006-2.924h3.785c.963,0,1.926,0,2.889,0,.407,0,.606-.224.563-.606-.031-.278-.21-.389-.641-.389H66.844a1.936,1.936,0,0,0-.4.008c-.212.045-.412.116-.427.4a.526.526,0,0,0,.344.568.9.9,0,0,0,.326.024h6.574" transform="translate(-55.86 -66.034)" fill="#f6f4f4"/>
      <path id="Trazado_732608" data-name="Trazado 732608" d="M319.378,45.957l.045.05c-.04.006-.06-.006-.045-.05" transform="translate(-298.108 -42.897)" fill="#090909"/>
      <path id="Trazado_732609" data-name="Trazado 732609" d="M148.3,16.691a.651.651,0,0,1,.744-.674,1.15,1.15,0,0,0,1-.424,1.711,1.711,0,0,1,1.527-.638c.941,0,1.881.006,2.822,0a1.6,1.6,0,0,1,1.362.563,1.209,1.209,0,0,0,1.006.447c.549,0,.758.2.873.726q-.014.857-.028,1.714a2.382,2.382,0,0,1-1.156.211q-3.484-.013-6.967,0a2.381,2.381,0,0,1-1.156-.211l-.028-1.713" transform="translate(-138.429 -13.959)" fill="#ffca28"/>
      <path id="Trazado_732610" data-name="Trazado 732610" d="M133.652,70.84a2.62,2.62,0,0,1-2.119,2.567,1.748,1.748,0,0,1-.363.017q-3.994,0-7.989,0a2.508,2.508,0,0,1-2.482-2.1c-.025-.14-.046-.281-.07-.422l.853,0a1.511,1.511,0,0,0,.563,1.291,1.824,1.824,0,0,0,1.281.436c1.423-.02,2.847-.009,4.271-.005a.492.492,0,0,0,.551-.472l.117-.021,1.055.01a.426.426,0,0,0,.379.46,5.416,5.416,0,0,0,1.913-.094,1.4,1.4,0,0,0,1.071-1.412c.005-.083.14-.091.114-.193.289.038.564-.11.853-.064" transform="translate(-112.598 -66.115)" fill="#efe3df"/>
      <path id="Trazado_732611" data-name="Trazado 732611" d="M155.226,68.347l-1.055-.01-.118-.041a.516.516,0,0,0-.6-.461c-1.432,0-2.864,0-4.3-.007a.715.715,0,0,1-.779-.665l.023-.4a2.383,2.383,0,0,0,1.156.211q3.484-.013,6.967,0a2.384,2.384,0,0,0,1.156-.211l.028.328c-.168.676-.482.759-1.053.739-.284-.01-.57.009-.854,0a.473.473,0,0,0-.5.271c-.068.025-.06.079-.05.134l-.026.117" transform="translate(-138.502 -62.318)" fill="#ffca28"/>
      <path id="Trazado_732612" data-name="Trazado 732612" d="M147.491,42.753l-.023.4a3.821,3.821,0,0,1-.047-1.1,3.307,3.307,0,0,1,.042-1.007q.014.857.028,1.713" transform="translate(-137.589 -38.307)" fill="#30302f"/>
      <path id="Trazado_732613" data-name="Trazado 732613" d="M288.132,43.065l-.028-.328.028-1.714a8.9,8.9,0,0,1,0,2.042" transform="translate(-268.921 -38.292)" fill="#30302f"/>
      <path id="Trazado_732614" data-name="Trazado 732614" d="M251.469,86.924c-.01-.054-.018-.108.05-.134l-.05.134" transform="translate(-234.719 -81.011)" fill="#090909"/>
      <path id="Trazado_732615" data-name="Trazado 732615" d="M233.436,89.778l.118.041-.117.021a.059.059,0,0,1,0-.062" transform="translate(-217.885 -83.8)" fill="#ffe066"/>
      <path id="Trazado_732616" data-name="Trazado 732616" d="M44.983,213.418c.036.016.064.035.039.081l-.039-.081" transform="translate(-41.988 -199.208)" fill="#4f4e4e"/>
      <path id="Trazado_732617" data-name="Trazado 732617" d="M391.071,79.865l-.015-.077c.038.019.073.039.015.077" transform="translate(-365.019 -74.476)" fill="#4f4e4e"/>
      <path id="Trazado_732618" data-name="Trazado 732618" d="M389.99,79.066l-.063-.053c.051-.018.065.008.063.053" transform="translate(-363.965 -73.747)" fill="#bbb9b9"/>
      <path id="Trazado_732619" data-name="Trazado 732619" d="M390.846,464.932l.029-.067c.05.048.024.064-.029.067" transform="translate(-364.823 -433.913)" fill="#4f4e4e"/>
      <path id="Trazado_732620" data-name="Trazado 732620" d="M45.911,79.082c-.006-.052.02-.064.065-.05l-.065.05" transform="translate(-42.854 -73.765)" fill="#bbb9b9"/>
      <path id="Trazado_732621" data-name="Trazado 732621" d="M44.983,180.606l.039-.08c.025.045,0,.065-.039.08" transform="translate(-41.988 -168.506)" fill="#4f4e4e"/>
      <path id="Trazado_732622" data-name="Trazado 732622" d="M69.936,269.808c.489.309.826.088,1.129-.309a.592.592,0,0,1,.6-.3.429.429,0,0,1,.381.344c.029.171.15.344-.121.513a5.49,5.49,0,0,0-.805.775c-.1.093-.067.2-.068.307-.006.595-.008,1.189-.012,1.784l-.046.075a1.09,1.09,0,0,1-1.057,1.057c-.719.016-1.438.01-2.157,0a1.037,1.037,0,0,1-.97-.986q-.009-1.079,0-2.158a1.071,1.071,0,0,1,.989-1.043c.053.009.106.021.145-.032l1.913,0c.037.061.059.03.077-.014m-.269,1.048a.132.132,0,0,0,.024-.022.024.024,0,0,0,0-.019,8.717,8.717,0,0,0-1.752.029c-.18.01-.116.148-.128.246-.008.068.028.109.094.1.349-.053.561.164.788.373.069.064.181.155.3.011.213-.249.448-.479.674-.717m.13,2.211c.025.036.048.031.07,0,.038-.018.109-.035.11-.053.007-.319,0-.637,0-.956l-.085-.035c-.21.223-.412.453-.631.666a.467.467,0,0,1-.694.032c-.239-.2-.488-.379-.765-.592,0,.227.014.413,0,.6-.025.264.083.347.341.341.551-.013,1.1,0,1.654,0" transform="translate(-62.362 -251.26)" fill="#030404"/>
      <path id="Trazado_732623" data-name="Trazado 732623" d="M153.044,364.914l9.276.007q1.938,0,3.876,0c.238,0,.5.013.574.272a.512.512,0,0,1-.244.672c-.052-.007-.1-.015-.138.04-.132.006-.264.016-.4.016q-6.594,0-13.189.01a.512.512,0,0,1-.362-.867l.069-.053c.128-.168.312-.045.464-.089l.071-.008" transform="translate(-142.15 -340.617)" fill="#030404"/>
      <path id="Trazado_732624" data-name="Trazado 732624" d="M166.464,161.646c.367.088.371.38.313.648s-.311.3-.551.3q-3.353,0-6.706,0-3.27,0-6.54.007l-.071-.008c-.133-.029-.285.028-.4-.089l-.069-.054a.49.49,0,0,1-.084-.6.558.558,0,0,1,.549-.274c1.671.021,3.342.015,5.013.017l8.465.009.08.041" transform="translate(-142.153 -150.821)" fill="#030404"/>
      <path id="Trazado_732625" data-name="Trazado 732625" d="M159.906,286.377H153.3c-.43,0-.626-.16-.626-.5,0-.316.224-.5.628-.5h13.212c.495,0,.757.281.629.67a.478.478,0,0,1-.531.33c-1.427,0-2.855,0-4.282,0h-2.423Z" transform="translate(-142.509 -266.38)" fill="#030404"/>
      <path id="Trazado_732626" data-name="Trazado 732626" d="M159.816,242.349h-6.574a.9.9,0,0,1-.326-.024.526.526,0,0,1-.344-.568c.015-.281.215-.352.427-.4a1.942,1.942,0,0,1,.4-.008h13.015c.431,0,.61.111.641.389.042.383-.156.6-.563.606-.963,0-1.926,0-2.889,0h-3.785" transform="translate(-142.412 -225.276)" fill="#030404"/>
      <path id="Trazado_732627" data-name="Trazado 732627" d="M167.186,127.611c-.177,0-.353.012-.53.012l-13.007.007c-.426,0-.578-.331-.466-.727.1-.339.294-.267.5-.268q6.669-.006,13.339-.009c.24,0,.494.024.552.3s.056.559-.314.643l-.075.044" transform="translate(-142.95 -118.196)" fill="#030404"/>
      <path id="Trazado_732628" data-name="Trazado 732628" d="M166.508,322.01q-3.732,0-7.463.007-3,0-6-.005c-.036-.059-.056-.025-.077.013a.385.385,0,0,1-.4-.186c.107-.109.017-.121-.067-.137l0-.4a.125.125,0,0,0,.135-.14.422.422,0,0,1,.329-.136c.055,0,.11.009.165.009h13.23c.077,0,.153-.011.23-.017.2.079.391.137.4.429a.529.529,0,0,1-.4.574c-.019-.043-.04-.073-.077-.013" transform="translate(-142.343 -299.647)" fill="#030404"/>
      <path id="Trazado_732629" data-name="Trazado 732629" d="M166.732,400.147c.372.084.37.379.313.645s-.314.3-.553.3H157.8q-2.339,0-4.678-.007a.493.493,0,0,1-.538-.44.5.5,0,0,1,.506-.553c.142-.013.287,0,.431,0h12.742c.132,0,.265.008.4.012l.074.043" transform="translate(-142.422 -373.444)" fill="#030404"/>
      <path id="Trazado_732630" data-name="Trazado 732630" d="M166.744,206.394c.287.082.334.292.329.558s-.208.324-.4.4c-.066-.006-.131-.018-.2-.018q-6.512,0-13.023,0c-.092,0-.2-.045-.275.057a.546.546,0,0,1-.59-.533c0-.339.141-.446.591-.464l12.269.007c.431,0,.862-.007,1.292-.01" transform="translate(-142.431 -192.652)" fill="#030404"/>
      <path id="Trazado_732631" data-name="Trazado 732631" d="M67.781,203.507a1.169,1.169,0,0,1-.992-1.2q0-1,0-1.992a1.049,1.049,0,0,1,1-1.05c.707-.02,1.418-.043,2.123,0a1.044,1.044,0,0,1,1.059,1.049l.046.076q0,.995,0,1.989l-.044.075a1.126,1.126,0,0,1-.786.98c-.068.025-.14.042-.21.063-.042-.074-.09-.071-.143-.012l-1.914,0c-.054-.062-.1-.056-.143.014m2.2-1.112a6.272,6.272,0,0,0,.053-1.468c.007-.176.07-.369-.054-.536,0-.092-.053-.133-.139-.141-.022-.034-.045-.039-.07,0H68.052c-.024-.036-.047-.033-.07,0-.174.018-.2.131-.2.281,0,.575,0,1.151,0,1.726,0,.1-.026.209.128.215a4.035,4.035,0,0,0,1.133.043,2.067,2.067,0,0,0,.868-.049l.072-.07" transform="translate(-62.34 -185.98)" fill="#030404"/>
      <path id="Trazado_732632" data-name="Trazado 732632" d="M70.916,120.777v1.989l-.045.075A1.147,1.147,0,0,1,69.8,123.9c-.663,0-1.327-.018-1.989.007a1.215,1.215,0,0,1-1.141-1.123c.035-.662,0-1.327.009-1.99a1.139,1.139,0,0,1,1.076-1.13A14.661,14.661,0,0,1,70,119.7a1.036,1.036,0,0,1,.666.47l-.047.047.049.007c.114.138.243.269.2.474l.045.076m-1.038-.006a.231.231,0,0,0-.242-.129c-.574,0-1.149.007-1.723,0-.2,0-.238.1-.236.27.005.575.008,1.149,0,1.724,0,.2.073.272.272.269.552-.009,1.1,0,1.657,0,.117,0,.22-.007.273-.13a6.931,6.931,0,0,0,.055-1.53c.006-.154.073-.328-.055-.471" transform="translate(-62.234 -111.672)" fill="#030404"/>
      <path id="Trazado_732633" data-name="Trazado 732633" d="M70.925,361.151a1.149,1.149,0,0,1-1.072,1.048c-.675.017-1.35.01-2.025,0a1.114,1.114,0,0,1-1.086-1.062c-.017-.73-.011-1.461,0-2.192a1.153,1.153,0,0,1,1.011-.975,11.435,11.435,0,0,1,2.305.048,1.13,1.13,0,0,1,.871.978,15.917,15.917,0,0,1,.042,2.078l-.045.075m-.993-.07a1.241,1.241,0,0,0,.054-.7,4.2,4.2,0,0,0-.053-1.233c-.011-.182-.135-.194-.278-.194-.552,0-1.1.008-1.656,0-.2,0-.272.073-.269.271q.012.861,0,1.723c0,.2.073.272.272.268.552-.009,1.1,0,1.656,0,.116,0,.22-.006.274-.129" transform="translate(-62.289 -334.106)" fill="#030404"/>
      <path id="Trazado_732634" data-name="Trazado 732634" d="M173.124,320.213c-.077.006-.153.017-.23.017h-13.23c-.055,0-.11-.006-.165-.009.1-.1.23-.055.345-.055q6.464,0,12.928,0c.117,0,.244-.04.351.047" transform="translate(-148.879 -298.839)" fill="#8c8989"/>
      <path id="Trazado_732635" data-name="Trazado 732635" d="M175.033,205.478c-.431,0-.862.01-1.292.01l-12.269-.007c.086-.107.206-.056.309-.056q6.469,0,12.937,0c.106,0,.223-.037.315.054" transform="translate(-150.72 -191.736)" fill="#625d63"/>
      <path id="Trazado_732636" data-name="Trazado 732636" d="M161.458,220.471c.074-.1.183-.057.275-.057q6.512,0,13.023,0c.066,0,.131.012.2.018-.074.071-.167.046-.252.046H161.557c-.033,0-.066,0-.1-.006" transform="translate(-150.708 -205.729)" fill="#8c8989"/>
      <path id="Trazado_732637" data-name="Trazado 732637" d="M151.982,323.192a.125.125,0,0,1-.135.14c-.154-.238.107-.077.135-.14" transform="translate(-141.691 -301.673)" fill="#090909"/>
      <path id="Trazado_732638" data-name="Trazado 732638" d="M152.041,331.235c.084.016.174.029.067.137-.034-.04-.157-.037-.067-.137" transform="translate(-141.888 -309.181)" fill="#090909"/>
      <path id="Trazado_732639" data-name="Trazado 732639" d="M81.836,278.549c-.039.053-.092.041-.145.032.037-.064.088-.062.145-.032" transform="translate(-76.252 -259.983)" fill="#4f4e4e"/>
      <path id="Trazado_732640" data-name="Trazado 732640" d="M364.006,379.158c.034-.055.086-.047.138-.04-.032.062-.083.058-.138.04" transform="translate(-339.77 -353.871)" fill="#30302f"/>
      <path id="Trazado_732641" data-name="Trazado 732641" d="M81.716,262.439c.041-.07.089-.077.143-.014l-.143.014" transform="translate(-76.275 -244.912)" fill="#4f4e4e"/>
      <path id="Trazado_732642" data-name="Trazado 732642" d="M112.607,262.432c.053-.06.1-.062.143.012l-.143-.012" transform="translate(-105.109 -244.918)" fill="#4f4e4e"/>
      <path id="Trazado_732643" data-name="Trazado 732643" d="M129.709,166.7l.045-.075c.019.046-.012.061-.045.075" transform="translate(-121.073 -155.53)" fill="#30302f"/>
      <path id="Trazado_732644" data-name="Trazado 732644" d="M364.016,161.9l-.079-.041c.044-.022.064.006.079.041" transform="translate(-339.705 -151.071)" fill="#4f4e4e"/>
      <path id="Trazado_732645" data-name="Trazado 732645" d="M364,140.8l.075-.044c-.015.032-.03.062-.075.044" transform="translate(-339.76 -131.381)" fill="#30302f"/>
      <path id="Trazado_732646" data-name="Trazado 732646" d="M154.534,174.646l.069.054c-.047.013-.062-.015-.069-.054" transform="translate(-144.245 -163.018)" fill="#090909"/>
      <path id="Trazado_732647" data-name="Trazado 732647" d="M129.753,135.684l-.045-.076c.033.014.064.03.045.076" transform="translate(-121.072 -126.579)" fill="#30302f"/>
      <path id="Trazado_732648" data-name="Trazado 732648" d="M129.706,246.515l.044-.075c.02.045-.011.06-.044.075" transform="translate(-121.07 -230.031)" fill="#30302f"/>
      <path id="Trazado_732649" data-name="Trazado 732649" d="M129.711,325.333l.046-.075c.019.046-.012.061-.046.075" transform="translate(-121.075 -303.602)" fill="#30302f"/>
      <path id="Trazado_732650" data-name="Trazado 732650" d="M161.54,176.782l.071.008c-.03.052-.051.027-.071-.008" transform="translate(-150.784 -165.011)" fill="#a59da8"/>
      <path id="Trazado_732651" data-name="Trazado 732651" d="M159.514,335.475c.02-.037.041-.072.076-.013l-.076.013" transform="translate(-148.893 -313.097)" fill="#4f4e4e"/>
      <path id="Trazado_732652" data-name="Trazado 732652" d="M362.931,335.414c.037-.059.058-.03.077.013l-.077-.013" transform="translate(-338.766 -313.05)" fill="#4f4e4e"/>
      <path id="Trazado_732653" data-name="Trazado 732653" d="M125.978,127.735l-.049-.007.047-.047q0,.027,0,.054" transform="translate(-117.544 -119.18)" fill="#f3f0f1"/>
      <path id="Trazado_732654" data-name="Trazado 732654" d="M162.608,364.5l-.071.008c.02-.034.042-.059.071-.008" transform="translate(-151.715 -340.203)" fill="#a59da8"/>
      <path id="Trazado_732655" data-name="Trazado 732655" d="M154.607,366.322l-.069.053c.007-.038.022-.067.069-.053" transform="translate(-144.248 -341.928)" fill="#090909"/>
      <path id="Trazado_732656" data-name="Trazado 732656" d="M129.755,215.5l-.046-.076c.034.014.065.03.046.076" transform="translate(-121.073 -201.076)" fill="#30302f"/>
      <path id="Trazado_732657" data-name="Trazado 732657" d="M364.075,400.375l-.074-.043c.044-.019.059.012.074.043" transform="translate(-339.765 -373.671)" fill="#30302f"/>
      <path id="Trazado_732658" data-name="Trazado 732658" d="M129.709,405.148l.045-.075c.019.046-.012.061-.045.075" transform="translate(-121.073 -378.102)" fill="#30302f"/>
      <path id="Trazado_732659" data-name="Trazado 732659" d="M112.677,278.571c-.019.044-.04.074-.077.014l.077-.014" transform="translate(-105.103 -260.023)" fill="#4f4e4e"/>
      <path id="Trazado_732660" data-name="Trazado 732660" d="M83.659,312.837c-.551,0-1.1-.017-1.654,0-.258.006-.366-.077-.341-.341.017-.183,0-.369,0-.6.277.214.527.4.765.592a.467.467,0,0,0,.694-.032c.219-.213.421-.443.631-.666l.085.035c0,.319,0,.638,0,.956,0,.018-.071.035-.11.053l-.07,0" transform="translate(-76.223 -291.03)" fill="#d2e1f1"/>
      <path id="Trazado_732661" data-name="Trazado 732661" d="M83.608,294.149c-.226.238-.461.468-.674.717-.123.144-.235.053-.3-.011-.227-.209-.44-.426-.788-.373-.066.01-.1-.03-.094-.1.012-.1-.052-.235.128-.246l1.733.012" transform="translate(-76.302 -274.553)" fill="#d2e1f1"/>
      <path id="Trazado_732662" data-name="Trazado 732662" d="M85.424,293.316l-1.733-.012a8.714,8.714,0,0,1,1.752-.029.025.025,0,0,1,0,.019.132.132,0,0,1-.024.022" transform="translate(-78.119 -273.72)" fill="#8c8989"/>
      <path id="Trazado_732663" data-name="Trazado 732663" d="M111.677,327.482l.07,0c-.022.034-.045.039-.07,0" transform="translate(-104.241 -305.675)" fill="#30302f"/>
      <path id="Trazado_732664" data-name="Trazado 732664" d="M82.007,214.293H83.73l.07,0c.086.008.138.049.139.141q0,1,0,2l-.072.07-2,.006c-.153-.006-.127-.12-.128-.215,0-.575,0-1.151,0-1.726,0-.15.027-.263.2-.281l.07,0" transform="translate(-76.294 -200.025)" fill="#d2e1f1"/>
      <path id="Trazado_732665" data-name="Trazado 732665" d="M83.684,247.6l2-.006a2.066,2.066,0,0,1-.868.049,4.038,4.038,0,0,1-1.133-.043" transform="translate(-78.112 -231.11)" fill="#8c8989"/>
      <path id="Trazado_732666" data-name="Trazado 732666" d="M114.808,218.455q0-1,0-2c.124.167.061.36.054.536a6.272,6.272,0,0,1-.053,1.468" transform="translate(-107.163 -202.04)" fill="#a59da8"/>
      <path id="Trazado_732667" data-name="Trazado 732667" d="M84.819,213.936l-.07,0c.022-.034.046-.037.07,0" transform="translate(-79.106 -199.668)" fill="#30302f"/>
      <path id="Trazado_732668" data-name="Trazado 732668" d="M111.747,213.948l-.07,0c.025-.036.048-.031.07,0" transform="translate(-104.241 -199.677)" fill="#30302f"/>
      <path id="Trazado_732669" data-name="Trazado 732669" d="M83.918,136.84c-.053.123-.157.131-.273.13-.552,0-1.1-.007-1.657,0-.2,0-.276-.067-.272-.269.009-.574.006-1.149,0-1.724,0-.17.035-.272.236-.269.574.007,1.149,0,1.723,0a.231.231,0,0,1,.242.129q0,1,0,2" transform="translate(-76.275 -125.74)" fill="#d2e1f1"/>
      <path id="Trazado_732670" data-name="Trazado 732670" d="M114.8,138.657q0-1,0-2c.128.143.062.316.055.471a6.926,6.926,0,0,1-.055,1.531" transform="translate(-107.153 -127.557)" fill="#a59da8"/>
      <path id="Trazado_732671" data-name="Trazado 732671" d="M83.918,375.269c-.054.123-.158.13-.274.129-.552,0-1.1-.007-1.656,0-.2,0-.276-.066-.272-.268q.013-.861,0-1.723c0-.2.065-.275.269-.271.552.01,1.1.005,1.656,0,.144,0,.267.011.278.193q0,.968,0,1.936" transform="translate(-76.275 -348.293)" fill="#d2e1f1"/>
      <path id="Trazado_732672" data-name="Trazado 732672" d="M114.8,378.012q0-.968,0-1.936a4.2,4.2,0,0,1,.053,1.233,1.241,1.241,0,0,1-.054.7" transform="translate(-107.154 -351.036)" fill="#a59da8"/>
      <path id="Trazado_732673" data-name="Trazado 732673" d="M474.721,394.754c-.016-.005-.023-.016-.016-.031s.03-.011.045-.015c.032.042,0,.041-.029.046" transform="translate(-443.095 -368.427)" fill="#efe8e8"/>
      <path id="Trazado_732674" data-name="Trazado 732674" d="M463.984,435.943c-.007-.017,0-.021.017-.025l-.017.025" transform="translate(-433.089 -406.894)" fill="#f3ecec"/>
      <path id="Trazado_732675" data-name="Trazado 732675" d="M323.559,452.6l.019.025c-.013,0-.024-.008-.019-.025" transform="translate(-302.014 -422.462)" fill="#111"/>
      <path id="Trazado_732676" data-name="Trazado 732676" d="M310.448,421.783s0,.01,0,.014l-.019-.006.018-.009" transform="translate(-289.761 -393.7)" fill="#111"/>
      <path id="Trazado_732677" data-name="Trazado 732677" d="M360.908,488.287c.052,0,.091.011.1.072-.051,0-.071-.038-.1-.072" transform="translate(-336.878 -455.775)" fill="#5385c2"/>
      <path id="Trazado_732678" data-name="Trazado 732678" d="M345.072,473.745c.03,0,.042.02.041.049-.02-.011-.04-.022-.041-.049" transform="translate(-322.096 -442.202)" fill="#5385c2"/>
      <path id="Trazado_732679" data-name="Trazado 732679" d="M308.325,377.016a.04.04,0,0,1,0,.068q0-.034,0-.068" transform="translate(-287.796 -351.913)" fill="#5385c2"/>
      <path id="Trazado_732680" data-name="Trazado 732680" d="M344.367,351.359c-.012.019-.022.039-.048.041,0-.03.02-.042.048-.041" transform="translate(-321.393 -327.965)" fill="#080a0d"/>
      <path id="Trazado_732681" data-name="Trazado 732681" d="M346.421,350.617c-.016.031-.045.025-.072.024.015-.034.049-.013.072-.024" transform="translate(-323.288 -327.272)" fill="#86b5e1"/>
      <path id="Trazado_732682" data-name="Trazado 732682" d="M410.484,494.184c.007-.029.034-.017.051-.026a.049.049,0,0,1-.051.026" transform="translate(-383.153 -461.256)" fill="#080a0d"/>
      <path id="Trazado_732683" data-name="Trazado 732683" d="M343.277,471.443c.028,0,.015.023.017.037l-.017-.037" transform="translate(-320.421 -440.053)" fill="#080a0d"/>
      <path id="Trazado_732684" data-name="Trazado 732684" d="M411.527,493.491c.007-.029.034-.017.051-.026a.049.049,0,0,1-.051.026" transform="translate(-384.127 -460.609)" fill="#080a0d"/>
      <path id="Trazado_732685" data-name="Trazado 732685" d="M412.567,492.825c.007-.028.032-.018.049-.024-.01.022-.029.024-.049.024" transform="translate(-385.097 -459.989)" fill="#080a0d"/>
      <path id="Trazado_732686" data-name="Trazado 732686" d="M363.045,490.033c.02,0,.039.006.046.028-.018,0-.043,0-.046-.028" transform="translate(-338.873 -457.405)" fill="#5385c2"/>
      <path id="Trazado_732687" data-name="Trazado 732687" d="M356.467,484.881c.016,0,.038-.014.04.018l-.04-.018" transform="translate(-332.733 -452.594)" fill="#080a0d"/>
      <path id="Trazado_732688" data-name="Trazado 732688" d="M471.889,373.594l-.007-.045c.024.012.027.026.007.045" transform="translate(-440.463 -348.677)" fill="#08090a"/>
      <path id="Trazado_732689" data-name="Trazado 732689" d="M470.606,390.932v-.045c.02.014.02.029,0,.045" transform="translate(-439.271 -364.861)" fill="#111"/>
      <path id="Trazado_732690" data-name="Trazado 732690" d="M444.851,460.615c.007-.016,0-.038.024-.046a.044.044,0,0,1-.024.046" transform="translate(-415.232 -429.903)" fill="#080a0d"/>
      <path id="Trazado_732691" data-name="Trazado 732691" d="M338.458,354.138c0,.012-.01.022-.025.018l.025-.018" transform="translate(-315.899 -330.559)" fill="#080a0d"/>
      <path id="Trazado_732692" data-name="Trazado 732692" d="M343.612,352.087l-.026.018c0-.013.009-.023.026-.018" transform="translate(-320.71 -328.643)" fill="#86b5e1"/>
      <path id="Trazado_732693" data-name="Trazado 732693" d="M362.33,489.356l.025.021a.023.023,0,0,1-.025-.021" transform="translate(-338.205 -456.773)" fill="#5385c2"/>
      <path id="Trazado_732694" data-name="Trazado 732694" d="M362.715,489.683a.022.022,0,0,1,.022.024l-.022-.024" transform="translate(-338.565 -457.079)" fill="#5385c2"/>
      <path id="Trazado_732695" data-name="Trazado 732695" d="M413.98,474.543c.011-.025-.015-.078.048-.064,0,.034,0,.065-.048.064" transform="translate(-386.416 -442.885)" fill="#86b5e1"/>
      <path id="Trazado_732696" data-name="Trazado 732696" d="M333.294,429.724c.014.031.076.062,0,.092Z" transform="translate(-311.101 -401.112)" fill="#111"/>
      <path id="Trazado_732697" data-name="Trazado 732697" d="M447.325,372.078c-.027,0-.037-.021-.047-.041.05-.026.048.009.047.041" transform="translate(-417.497 -347.257)" fill="#86b5e1"/>
      <path id="Trazado_732698" data-name="Trazado 732698" d="M344.4,451.9c.034,0,.065,0,.063.048l-.063-.048" transform="translate(-321.465 -421.809)" fill="#111"/>
      <path id="Trazado_732699" data-name="Trazado 732699" d="M449.043,373.1c-.018,0-.04,0-.047-.024.025-.011.05-.021.047.024" transform="translate(-419.101 -348.226)" fill="#86b5e1"/>
      <path id="Trazado_732700" data-name="Trazado 732700" d="M435.912,449.861c0-.027.02-.038.042-.047a.04.04,0,0,1-.042.047" transform="translate(-406.888 -419.864)" fill="#86b5e1"/>
      <path id="Trazado_732701" data-name="Trazado 732701" d="M328.008,416.2a.041.041,0,0,1,.047.047l-.047-.047" transform="translate(-306.168 -388.485)" fill="#111"/>
      <path id="Trazado_732702" data-name="Trazado 732702" d="M325.225,405.8c.028,0,.059,0,.03.045l-.03-.045" transform="translate(-303.571 -378.778)" fill="#080a0d"/>
      <path id="Trazado_732703" data-name="Trazado 732703" d="M322.216,385.342c.019.015.019.03,0,.044v-.044" transform="translate(-300.761 -359.685)" fill="#080a0d"/>
      <path id="Trazado_732704" data-name="Trazado 732704" d="M403.224,483.16c.008-.027.029-.02.048-.016l-.048.016" transform="translate(-376.376 -450.972)" fill="#86b5e1"/>
      <path id="Trazado_732705" data-name="Trazado 732705" d="M405.289,481.727c.007-.027.031-.019.049-.024-.01.022-.029.024-.049.024" transform="translate(-378.304 -449.63)" fill="#86b5e1"/>
      <path id="Trazado_732706" data-name="Trazado 732706" d="M345.688,452.951a.043.043,0,0,1,.024.046c-.023-.008-.018-.03-.024-.046" transform="translate(-322.671 -422.792)" fill="#111"/>
      <path id="Trazado_732707" data-name="Trazado 732707" d="M449.72,373.573c-.016,0-.021-.005-.024-.018l.024.018" transform="translate(-419.754 -348.683)" fill="#86b5e1"/>
      <path id="Trazado_732708" data-name="Trazado 732708" d="M448.318,372.879c-.016,0-.022-.006-.025-.018l.025.018" transform="translate(-418.445 -348.035)" fill="#86b5e1"/>
      <path id="Trazado_732709" data-name="Trazado 732709" d="M433.488,367.672c-.007-.015,0-.02.015-.023l0,.023h-.01" transform="translate(-404.623 -343.17)" fill="#efe8e8"/>
      <path id="Trazado_732710" data-name="Trazado 732710" d="M458.047,381.552l.016-.024c.006.016-.005.019-.016.024" transform="translate(-427.549 -356.125)" fill="#080a0d"/>
      <path id="Trazado_732711" data-name="Trazado 732711" d="M398.047,480.284a.042.042,0,0,1-.049.048c0-.033.015-.05.049-.048" transform="translate(-371.498 -448.305)" fill="#0d0c0c"/>
      <path id="Trazado_732712" data-name="Trazado 732712" d="M404.4,476.15c0,.036-.013.041-.042.025,0-.033.025-.021.042-.025" transform="translate(-377.436 -444.447)" fill="#0d0c0c"/>
      <path id="Trazado_732713" data-name="Trazado 732713" d="M384.575,482.3c-.02,0-.04.01-.047-.019.021-.008.046-.024.047.019" transform="translate(-358.925 -450.159)" fill="#efe8e8"/>
      <path id="Trazado_732714" data-name="Trazado 732714" d="M443.79,375.62c.017-.032.034-.032.051,0h-.051" transform="translate(-414.241 -350.589)" fill="#efe8e8"/>
      <path id="Trazado_732715" data-name="Trazado 732715" d="M420.344,461.929c0,.009,0,.019,0,.028l-.017-.018.017-.01" transform="translate(-392.341 -431.173)" fill="#070808"/>
      <path id="Trazado_732716" data-name="Trazado 732716" d="M350.19,369.09c0-.013.009-.023.025-.018l-.025.018" transform="translate(-326.873 -344.497)" fill="#e4d4cd"/>
      <path id="Trazado_732717" data-name="Trazado 732717" d="M364.115,430.09a.02.02,0,0,1,0,.021l-.018-.016a.031.031,0,0,1,.018,0" transform="translate(-339.855 -401.454)" fill="#efe8e8"/>
      <path id="Trazado_732718" data-name="Trazado 732718" d="M357.5,459.6c.015,0,.021,0,.015.016l-.015-.016" transform="translate(-333.699 -429.002)" fill="#0d0c0c"/>
      <path id="Trazado_732719" data-name="Trazado 732719" d="M419.938,418.6c.006.014,0,.021-.014.026l.014-.026" transform="translate(-391.964 -390.731)" fill="#b43446"/>
      <path id="Trazado_732720" data-name="Trazado 732720" d="M419.919,413.387c.01.006.02.012.013.026l-.013-.026" transform="translate(-391.96 -385.863)" fill="#b43446"/>
    </g>
    <g id="Grupo_1018646" data-name="Grupo 1018646" transform="translate(195.362 1218.34)">
      <g id="Grupo_1014958" data-name="Grupo 1014958" clip-path="url(#clip-path-2)">
        <path id="Trazado_729011" data-name="Trazado 729011" d="M2.542,14.527a19.752,19.752,0,0,1-1.028-2.192,8.161,8.161,0,0,1-.452-1.306c-.017-.084-.17-.112-.087-.23,0-.009,0-.017,0-.026A16.941,16.941,0,0,1,.427,8.619a2.484,2.484,0,0,1-.1-.8c.012-.078-.056-.2-.075-.307a12.33,12.33,0,0,1-.206-2.1c0-.03-.009-.054-.042-.06V4.683A5.4,5.4,0,0,1,1.1,3.668,14.719,14.719,0,0,1,3.592,2.183a19.9,19.9,0,0,1,1.926-.821C6.162,1.117,6.825.918,7.494.738,7.936.619,8.377.474,8.822.362A16.08,16.08,0,0,1,10.547.007a2.339,2.339,0,0,1,.788.114c.8.18,1.609.361,2.4.588A25.6,25.6,0,0,1,17.308,2,13.754,13.754,0,0,1,20.22,3.716a10.018,10.018,0,0,1,.9.773.425.425,0,0,1,.132.313c.01.606-.073,1.205-.121,1.807a5.679,5.679,0,0,0-.087.864c-.029.007-.067-.009-.083.028s0,.048.03.057a8.894,8.894,0,0,1-.213,1.327,1.028,1.028,0,0,0-.042.388c.017.138-.092.262-.131.4-.085.3-.214.609-.264.9a7.779,7.779,0,0,1-.257.861c-.106.362-.262.709-.4,1.063-.023.007-.044.015-.031.046a14.111,14.111,0,0,1-.807,1.735,12.2,12.2,0,0,1-.977,1.631,17.282,17.282,0,0,1-1.716,2.06,15.362,15.362,0,0,1-3.681,2.817c-.566.312-1.157.569-1.742.841h-.253a12.436,12.436,0,0,0-1.13-.544A17.322,17.322,0,0,1,6.56,19.3,16.4,16.4,0,0,1,4.67,17.516a14.4,14.4,0,0,1-1.5-1.965c-.207-.32-.409-.642-.59-.978l-.034-.046M7.31,19.046l.041.044h0c0,.055.051.043.084.052.092.071.182.144.276.211a15.834,15.834,0,0,0,2.882,1.612.093.093,0,0,0,.107,0c.4-.235.842-.365,1.236-.606s.816-.443,1.194-.713a.09.09,0,0,0,.094-.048l.033-.037a.09.09,0,0,0,.094-.048l.033-.037c.037,0,.072,0,.091-.044a15.707,15.707,0,0,0,3.843-3.843.081.081,0,0,0,.044-.084,15.59,15.59,0,0,0,1.324-2.316,16.947,16.947,0,0,0,.787-1.939c.229-.711.449-1.423.613-2.154.149-.663.24-1.335.372-2,.036-.028.034-.055,0-.082-.044-.1.114-.13.073-.222-.095-.21.019-.418.021-.625a9.172,9.172,0,0,1,.075-1.183c.036-.034.031-.061-.013-.082-.244-.205-.469-.43-.72-.629a14.156,14.156,0,0,0-2.876-1.689,23.33,23.33,0,0,0-3.15-1.16A23.47,23.47,0,0,0,11.442.806a2.4,2.4,0,0,0-1.216-.1c-.33.1-.676.159-1.014.237s-.666.158-1,.235c-.254.058-.514.113-.755.193-.27.09-.543.179-.812.275a8.394,8.394,0,0,0-1.2.455c-.042.02-.1-.018-.132.044l-.159.046c-.052,0-.084.02-.088.075l-.043.016c-.029-.008-.04.01-.047.033a.1.1,0,0,0-.036.009A1.314,1.314,0,0,0,4.4,2.53l-.046.033a7.655,7.655,0,0,0-1.374.648A12.188,12.188,0,0,0,1.206,4.4c-.287.233-.667.434-.522.921,0,.041,0,.083,0,.124a3.563,3.563,0,0,0,.028.5A12.765,12.765,0,0,0,.9,7.7a16.159,16.159,0,0,0,.389,1.833,17.961,17.961,0,0,0,.665,2.157c.245.613.478,1.234.778,1.82a17.04,17.04,0,0,0,1.256,2.11,11.109,11.109,0,0,0,.957,1.208l.031.068.188.213c0,.049.04.068.076.089a17.953,17.953,0,0,0,1.313,1.273l.074.032a1.661,1.661,0,0,0,.432.348l.035.03c.045.061.081.135.175.131h0a.042.042,0,0,0,.046.039Z" transform="translate(0 0.001)" fill="#040505"/>
        <path id="Trazado_729012" data-name="Trazado 729012" d="M172.019,61.426c-.029-.009-.042-.029-.03-.057s.054-.021.083-.028c.058.076-.007.074-.053.084" transform="translate(-151.03 -53.868)" fill="#efe8e8"/>
        <path id="Trazado_729013" data-name="Trazado 729013" d="M161.269,102.6c-.013-.031.008-.039.031-.046l-.031.046" transform="translate(-141.616 -90.058)" fill="#f3ecec"/>
        <path id="Trazado_729014" data-name="Trazado 729014" d="M20.842,119.232l.034.046c-.024-.006-.043-.015-.034-.046" transform="translate(-18.3 -104.704)" fill="#111"/>
        <path id="Trazado_729015" data-name="Trazado 729015" d="M7.747,88.418c0,.009,0,.018,0,.026l-.035-.01.034-.016" transform="translate(-6.773 -77.645)" fill="#111"/>
        <path id="Trazado_729016" data-name="Trazado 729016" d="M34.9,11.815c-.132.665-.223,1.337-.372,2-.164.731-.384,1.443-.613,2.154a16.945,16.945,0,0,1-.787,1.939A15.6,15.6,0,0,1,31.8,20.224c-.042.014-.031.055-.044.084a15.706,15.706,0,0,1-3.843,3.843c-.032.011-.078-.007-.09.044l-.033.037c-.031.016-.081,0-.094.048l-.033.037c-.031.016-.081,0-.094.048-.379.27-.8.471-1.194.713s-.841.371-1.236.606a.093.093,0,0,1-.107,0,15.841,15.841,0,0,1-2.882-1.612c-.094-.068-.184-.141-.276-.211-.013-.041-.047-.049-.084-.052h0a.041.041,0,0,0-.041-.044h0l-.046-.039h0c-.008-.111-.079-.137-.175-.131l-.035-.03a.163.163,0,0,0-.056-.13q-.322-.361-.642-.724a15.032,15.032,0,0,1-2.056-3.07,19.18,19.18,0,0,1-1.413-3.619c-.155-.545-.3-1.092-.409-1.649-.1-.506-.2-1.009-.262-1.523a8.651,8.651,0,0,1-.166-2.507A3.509,3.509,0,0,1,17,8.969a5.387,5.387,0,0,1,1.655-1.439,3.3,3.3,0,0,0,.725-.481.093.093,0,0,1,.036-.009l.047-.034.043-.016c.048,0,.067-.04.088-.075l.159-.046c.049,0,.1.013.132-.044a8.39,8.39,0,0,1,1.2-.455c.269-.1.542-.185.812-.275.241-.08.5-.135.755-.193.333-.077.666-.158,1-.235s.684-.133,1.014-.237a2.406,2.406,0,0,1,1.216.1,23.472,23.472,0,0,1,2.423.611,23.317,23.317,0,0,1,3.15,1.16,14.156,14.156,0,0,1,2.876,1.689c.251.2.476.424.72.629l.013.082a9.193,9.193,0,0,0-.075,1.183c0,.207-.115.415-.021.625.041.092-.117.125-.073.222l0,.082M32.346,9.622h0c0-.081-.04-.064-.086-.043a.092.092,0,0,1-.039-.009l-.046-.034a.081.081,0,0,1-.037-.01c0-.059.005-.123-.086-.076a4.443,4.443,0,0,0-.557-.329c-.274-.158-.4-.136-.577.119-.123-.19-.348-.2-.523-.3L30.4,8.9a.346.346,0,0,0-.248-.4,29.851,29.851,0,0,0-3.112-1.04c-.24-.075-.488-.128-.733-.186a5.721,5.721,0,0,0-1.358-.232A4.293,4.293,0,0,0,24,7.23a27.483,27.483,0,0,0-3.216.954,15.683,15.683,0,0,0-3.7,1.867c-.143.1-.37.172-.325.434.033.189-.056.391.055.573v.081a7.4,7.4,0,0,0,.178,1.333c.058.359.147.714.189,1.077l.055.082c.059.4.263.773.284,1.185l.086.086a9.723,9.723,0,0,0,.561,1.563l0,.168c.018.1.128.131.165.23a11.424,11.424,0,0,0,.845,1.657,1.845,1.845,0,0,1,.343.647l.116.088.041.04c.012.03,0,.071.044.085.025.075.091.121.134.183A12.532,12.532,0,0,0,20.928,20.9a12.338,12.338,0,0,0,1.509,1.388,15.351,15.351,0,0,0,2.477,1.569.261.261,0,0,0,.254.021,14.158,14.158,0,0,0,1.514-.866l.087-.03.164-.137c.037,0,.072-.005.09-.045a11.211,11.211,0,0,0,.969-.76c.083,0,.09-.054.088-.116a2.007,2.007,0,0,0,.425-.325,16.278,16.278,0,0,0,1.3-1.388A9.662,9.662,0,0,0,30.666,19a.074.074,0,0,0,.076-.086,16.509,16.509,0,0,0,.96-1.791,17.533,17.533,0,0,0,.676-1.7c.146-.425.259-.859.391-1.286a12.784,12.784,0,0,0,.433-2.157c.057-.448.1-.9.162-1.344.019-.008.04-.015.029-.043a.361.361,0,0,0-.172-.414,3.346,3.346,0,0,0-.83-.524l-.044-.033" transform="translate(-14.437 -4.725)" fill="#6f88da"/>
        <path id="Trazado_729017" data-name="Trazado 729017" d="M9.638,19.081a3.3,3.3,0,0,1-.725.481A5.385,5.385,0,0,0,7.258,21a3.509,3.509,0,0,0-.512,1.381,8.65,8.65,0,0,0,.166,2.507c.062.514.164,1.017.262,1.523.108.557.254,1.1.409,1.649A19.174,19.174,0,0,0,9,31.679a15.033,15.033,0,0,0,2.056,3.07q.321.362.642.724a.163.163,0,0,1,.056.13,1.661,1.661,0,0,1-.432-.348c0-.059-.044-.032-.074-.032A17.952,17.952,0,0,1,9.931,33.95a.075.075,0,0,0-.076-.089l-.188-.213c0-.026.021-.064-.031-.068a11.109,11.109,0,0,1-.957-1.208,17.041,17.041,0,0,1-1.256-2.11c-.3-.586-.533-1.207-.778-1.82a17.961,17.961,0,0,1-.665-2.157,16.159,16.159,0,0,1-.389-1.833A12.765,12.765,0,0,1,5.406,22.7a3.563,3.563,0,0,1-.028-.5.074.074,0,0,0,0-.124c-.145-.487.235-.687.522-.921a12.188,12.188,0,0,1,1.773-1.186,7.655,7.655,0,0,1,1.374-.648c.029.008.039-.01.046-.033a1.314,1.314,0,0,1,.545-.206" transform="translate(-4.694 -16.756)" fill="#6f88da"/>
        <path id="Trazado_729018" data-name="Trazado 729018" d="M58.191,154.921c.1-.006.167.02.175.131-.094,0-.129-.07-.175-.131" transform="translate(-51.101 -136.044)" fill="#5385c2"/>
        <path id="Trazado_729019" data-name="Trazado 729019" d="M42.354,140.379c.056,0,.078.036.076.089-.036-.021-.073-.04-.076-.089" transform="translate(-37.193 -123.275)" fill="#5385c2"/>
        <path id="Trazado_729020" data-name="Trazado 729020" d="M5.608,43.65a.074.074,0,0,1,0,.124c0-.041,0-.083,0-.124" transform="translate(-4.925 -38.332)" fill="#5385c2"/>
        <path id="Trazado_729021" data-name="Trazado 729021" d="M41.69,17.993c-.021.035-.04.072-.088.075,0-.055.036-.076.088-.075" transform="translate(-36.533 -15.801)" fill="#080a0d"/>
        <path id="Trazado_729022" data-name="Trazado 729022" d="M43.764,17.252c-.03.057-.082.045-.132.044.028-.063.089-.024.132-.044" transform="translate(-38.316 -15.15)" fill="#86b5e1"/>
        <path id="Trazado_729023" data-name="Trazado 729023" d="M107.767,160.84c.013-.053.063-.031.094-.048a.09.09,0,0,1-.094.048" transform="translate(-94.636 -141.2)" fill="#080a0d"/>
        <path id="Trazado_729024" data-name="Trazado 729024" d="M40.56,138.078c.051,0,.028.042.031.068l-.031-.068" transform="translate(-35.618 -121.254)" fill="#080a0d"/>
        <path id="Trazado_729025" data-name="Trazado 729025" d="M108.809,160.148c.013-.052.063-.031.093-.048a.09.09,0,0,1-.093.048" transform="translate(-95.551 -140.593)" fill="#080a0d"/>
        <path id="Trazado_729026" data-name="Trazado 729026" d="M109.85,159.48c.012-.051.058-.033.09-.044-.018.039-.053.043-.09.044" transform="translate(-96.465 -140.01)" fill="#080a0d"/>
        <path id="Trazado_729027" data-name="Trazado 729027" d="M60.328,156.667c.037,0,.071.01.084.052-.033-.009-.079,0-.084-.052" transform="translate(-52.977 -137.578)" fill="#5385c2"/>
        <path id="Trazado_729028" data-name="Trazado 729028" d="M53.75,151.518c.029,0,.07-.026.074.032l-.074-.032" transform="translate(-47.201 -133.051)" fill="#080a0d"/>
        <path id="Trazado_729029" data-name="Trazado 729029" d="M169.178,40.265l-.013-.082c.044.021.049.048.013.082" transform="translate(-148.553 -35.287)" fill="#08090a"/>
        <path id="Trazado_729030" data-name="Trazado 729030" d="M167.89,57.6l0-.082c.036.026.037.053,0,.082" transform="translate(-147.432 -50.513)" fill="#111"/>
        <path id="Trazado_729031" data-name="Trazado 729031" d="M142.134,127.287c.013-.029,0-.07.044-.084a.081.081,0,0,1-.044.084" transform="translate(-124.816 -111.704)" fill="#080a0d"/>
        <path id="Trazado_729032" data-name="Trazado 729032" d="M35.762,20.773c-.007.023-.018.041-.046.033l.046-.033" transform="translate(-31.364 -18.242)" fill="#080a0d"/>
        <path id="Trazado_729033" data-name="Trazado 729033" d="M40.917,18.723l-.047.033c.007-.023.017-.041.047-.033" transform="translate(-35.89 -16.44)" fill="#86b5e1"/>
        <path id="Trazado_729034" data-name="Trazado 729034" d="M59.613,155.991l.046.039a.042.042,0,0,1-.046-.039" transform="translate(-52.35 -136.984)" fill="#5385c2"/>
        <path id="Trazado_729035" data-name="Trazado 729035" d="M60,156.317a.041.041,0,0,1,.041.044L60,156.317" transform="translate(-52.688 -137.271)" fill="#5385c2"/>
        <path id="Trazado_729036" data-name="Trazado 729036" d="M45.125,25.532c.175.1.4.108.523.3a.394.394,0,0,0,.255.446c.151.076.3.151.454.226h.093a4.189,4.189,0,0,0,.618.393c.168.106.378.193.416.47.021.152-.114.259-.058.365.1.189-.08.337-.032.527a1.057,1.057,0,0,1-.1.485c-.049.165-.03.335-.078.5-.187.661-.271,1.351-.511,2-.161.434-.252.889-.456,1.313-.168.349-.29.723-.482,1.061-.264.466-.435.976-.748,1.421a15.285,15.285,0,0,1-1.484,1.936L43.5,37l.031.033c-.066.058-.135.112-.2.173-.195.191-.378.395-.583.574-.367.319-.746.624-1.12.935-.03.008-.078-.015-.076.046l-.685.458c-.062,0-.091.027-.09.087a9.7,9.7,0,0,0-.907.468.163.163,0,0,1-.164-.006c-.163-.083-.323-.17-.484-.256,0-.078-.047-.049-.086-.034-.118-.082-.232-.168-.353-.244a14.549,14.549,0,0,1-1.812-1.346,8.941,8.941,0,0,1-.705-.7.314.314,0,0,0-.082-.228,14.689,14.689,0,0,1-1.716-2.986A20.992,20.992,0,0,1,33.4,30.676a5.181,5.181,0,0,1-.111-2.185,4.6,4.6,0,0,1,1.587-2.681c.037-.032.085-.053.08-.113h0L35,25.665a21.2,21.2,0,0,1,2.15-.766c.7-.224,1.423-.365,2.131-.556a1.785,1.785,0,0,1,.936-.021c.67.176,1.35.316,2.012.527.784.25,1.571.488,2.333.8.205.084.417.11.545-.117Zm-8.445,7.6c.071.058.056.156.154.224a.913.913,0,0,0,.627.11c.292-.017.338.08.326.342a6.809,6.809,0,0,0,.049,1.13.679.679,0,0,0,.473.61,5.26,5.26,0,0,0,1.532.2c.148,0,.3-.045.44.058.172-.167.4-.11.6-.15a1.45,1.45,0,0,0,.594-.2.882.882,0,0,0,.324-.73,7.905,7.905,0,0,1,.037-1.109c.023-.117.059-.156.173-.151.406.019.808-.048,1.214-.05a.752.752,0,0,0,.654-.4,1.97,1.97,0,0,0,.194-.96A9.424,9.424,0,0,0,44,30.145a.834.834,0,0,0-.715-.683c-.407.016-.809-.072-1.215-.043-.159.011-.207-.068-.234-.22a8.772,8.772,0,0,1-.037-1.109.777.777,0,0,0-.573-.806,5.978,5.978,0,0,0-1.105-.144,8.174,8.174,0,0,0-1.478.077.873.873,0,0,0-.828.859c0,.354-.013.712-.032,1.067-.007.138-.052.286-.241.274-.4-.027-.795.049-1.193.045a.709.709,0,0,0-.677.507,5.816,5.816,0,0,0-.131,2.166,3.18,3.18,0,0,1,.077.394c-.014.346.084.45.436.432.164.184.391.114.594.146l.033.03" transform="translate(-29.169 -21.313)" fill="#f3ecec"/>
        <path id="Trazado_729037" data-name="Trazado 729037" d="M31.057,32.386a15.277,15.277,0,0,0,1.484-1.936c.313-.446.484-.955.748-1.421.192-.338.314-.712.482-1.061.2-.423.295-.878.456-1.313.24-.647.324-1.337.511-2,.048-.169.028-.339.078-.5a1.058,1.058,0,0,0,.1-.485c-.047-.191.132-.338.032-.527-.057-.107.079-.213.058-.365-.038-.276-.248-.363-.416-.47a4.194,4.194,0,0,1-.618-.393c-.03-.06-.061-.06-.093,0-.151-.075-.3-.15-.454-.226a.394.394,0,0,1-.255-.446c.178-.255.3-.277.577-.119a4.452,4.452,0,0,1,.557.329c.018.038.038.073.086.075a.079.079,0,0,0,.037.01c.007.023.017.041.046.034a.094.094,0,0,0,.039.009c.014.045.054.036.086.043h0c.005.024.015.041.044.033a3.338,3.338,0,0,1,.83.524.361.361,0,0,1,.172.414l-.029.043c-.062.447-.1.9-.162,1.344a12.773,12.773,0,0,1-.432,2.157c-.131.428-.245.861-.391,1.287a17.486,17.486,0,0,1-.676,1.7A16.534,16.534,0,0,1,33,30.91c-.039.016-.074.037-.076.086a9.652,9.652,0,0,1-.859,1.211,16.241,16.241,0,0,1-1.3,1.388,2,2,0,0,1-.425.325c-.116-.027-.069.07-.088.116a11.23,11.23,0,0,1-.969.76c-.032.01-.077-.006-.09.044l-.164.137c-.035-.006-.072-.021-.087.03a14.138,14.138,0,0,1-1.514.866.261.261,0,0,1-.254-.021A15.355,15.355,0,0,1,24.7,34.284,12.347,12.347,0,0,1,23.186,32.9a12.549,12.549,0,0,1-1.078-1.336c-.043-.062-.109-.108-.133-.183a.078.078,0,0,0-.044-.085l-.041-.04c0-.084-.054-.09-.116-.088a1.846,1.846,0,0,0-.343-.647,11.43,11.43,0,0,1-.845-1.657c-.037-.1-.147-.129-.165-.23.142-.053.028-.111,0-.168a9.716,9.716,0,0,1-.561-1.563.074.074,0,0,0-.086-.086c-.022-.413-.225-.782-.284-1.185.053-.075,0-.076-.055-.082-.042-.363-.131-.718-.189-1.077a7.386,7.386,0,0,1-.178-1.333c.036-.027.036-.054,0-.082-.111-.182-.022-.384-.055-.573-.045-.262.182-.332.325-.434a15.685,15.685,0,0,1,3.7-1.867,27.516,27.516,0,0,1,3.216-.954,4.3,4.3,0,0,1,.949-.185,5.735,5.735,0,0,1,1.358.232c.245.058.493.111.733.186A29.814,29.814,0,0,1,32.411,20.5a.346.346,0,0,1,.248.4c-.023.005-.04.014-.027.042-.128.227-.34.2-.545.117-.763-.311-1.55-.549-2.333-.8-.662-.211-1.341-.351-2.012-.527a1.785,1.785,0,0,0-.936.021c-.709.191-1.431.332-2.132.556a21.237,21.237,0,0,0-2.15.766c-.029-.008-.04.01-.045.034h0a15.075,15.075,0,0,0-2.427,1.226c-.266.162-.473.3-.37.679a2.978,2.978,0,0,1,.039.586,4.651,4.651,0,0,0,.151.772c.16.676.287,1.36.488,2.028a16.2,16.2,0,0,0,1.93,4.3,9.569,9.569,0,0,0,1.08,1.41l.028.03c.085.193.275.3.394.459a8.94,8.94,0,0,0,.705.7,14.581,14.581,0,0,0,1.812,1.346c.121.076.236.162.353.244.013.052.05.041.086.034.161.086.322.173.484.256a.163.163,0,0,0,.164.006,9.707,9.707,0,0,1,.907-.467.076.076,0,0,0,.09-.087l.685-.458c.052.029.081.019.076-.046.374-.311.753-.615,1.12-.935.205-.179.388-.383.583-.573.062-.061.131-.116.2-.173v-.051" transform="translate(-16.695 -16.721)" fill="#040505"/>
        <path id="Trazado_729038" data-name="Trazado 729038" d="M111.263,141.232c.019-.046-.027-.143.088-.116,0,.062-.005.118-.088.116" transform="translate(-97.706 -123.917)" fill="#86b5e1"/>
        <path id="Trazado_729039" data-name="Trazado 729039" d="M30.577,96.359c.025.056.14.114,0,.168,0-.056,0-.112,0-.168" transform="translate(-26.849 -84.618)" fill="#111"/>
        <path id="Trazado_729040" data-name="Trazado 729040" d="M144.647,38.754c-.049,0-.068-.038-.086-.076.092-.047.087.017.086.076" transform="translate(-126.947 -33.951)" fill="#86b5e1"/>
        <path id="Trazado_729041" data-name="Trazado 729041" d="M41.679,118.532c.062,0,.119,0,.116.088l-.116-.088" transform="translate(-36.601 -104.09)" fill="#111"/>
        <path id="Trazado_729042" data-name="Trazado 729042" d="M146.365,39.761c-.032-.008-.073,0-.086-.043.046-.02.091-.038.086.043" transform="translate(-128.456 -34.864)" fill="#86b5e1"/>
        <path id="Trazado_729043" data-name="Trazado 729043" d="M133.2,116.535c0-.049.037-.069.076-.086a.074.074,0,0,1-.076.086" transform="translate(-116.966 -102.26)" fill="#86b5e1"/>
        <path id="Trazado_729044" data-name="Trazado 729044" d="M25.291,82.832a.074.074,0,0,1,.086.086l-.086-.086" transform="translate(-22.209 -72.739)" fill="#111"/>
        <path id="Trazado_729045" data-name="Trazado 729045" d="M22.508,72.432c.051.005.107.007.055.082l-.055-.082" transform="translate(-19.766 -63.607)" fill="#080a0d"/>
        <path id="Trazado_729046" data-name="Trazado 729046" d="M19.5,51.976c.035.028.034.055,0,.081v-.081" transform="translate(-17.122 -45.643)" fill="#080a0d"/>
        <path id="Trazado_729047" data-name="Trazado 729047" d="M100.507,149.812c.015-.05.053-.036.087-.03l-.087.03" transform="translate(-88.261 -131.526)" fill="#86b5e1"/>
        <path id="Trazado_729048" data-name="Trazado 729048" d="M102.572,148.382c.012-.05.058-.035.09-.045-.018.039-.053.044-.09.045" transform="translate(-90.074 -130.263)" fill="#86b5e1"/>
        <path id="Trazado_729049" data-name="Trazado 729049" d="M42.971,119.585a.078.078,0,0,1,.044.085c-.043-.014-.032-.055-.044-.085" transform="translate(-37.735 -105.014)" fill="#111"/>
        <path id="Trazado_729050" data-name="Trazado 729050" d="M147.023,40.223c-.029.008-.039-.009-.044-.033l.044.033" transform="translate(-129.07 -35.293)" fill="#86b5e1"/>
        <path id="Trazado_729051" data-name="Trazado 729051" d="M145.622,39.53c-.029.008-.039-.01-.046-.034l.046.034" transform="translate(-127.838 -34.684)" fill="#86b5e1"/>
        <path id="Trazado_729052" data-name="Trazado 729052" d="M130.773,34.325c-.014-.028,0-.037.027-.042l-.008.042h-.019" transform="translate(-114.835 -30.106)" fill="#efe8e8"/>
        <path id="Trazado_729053" data-name="Trazado 729053" d="M155.33,48.205l.029-.043c.011.029-.01.035-.029.043" transform="translate(-136.404 -42.294)" fill="#080a0d"/>
        <path id="Trazado_729054" data-name="Trazado 729054" d="M57.1,58.355c-.2-.032-.429.038-.594-.146a.323.323,0,0,0,.164-.406,3.8,3.8,0,0,1-.076-.98,7.41,7.41,0,0,1,.083-1.249c.024-.155.088-.253.273-.233.392.043.78-.064,1.173-.042a.425.425,0,0,0,.12-.024.824.824,0,0,0,.629-.907c0-.357.013-.713.043-1.068.007-.088.033-.14.13-.157.232-.04.465-.061.7-.091a6.1,6.1,0,0,1,1.634.074c.221.03.244.143.245.322a8.625,8.625,0,0,0,.035,1.153.86.86,0,0,0,.721.7c.413-.005.822.081,1.236.045a.162.162,0,0,1,.2.143,4.637,4.637,0,0,1,.09.825l.023.047a3.155,3.155,0,0,1,0,.589L63.9,57a3.331,3.331,0,0,1-.045.624c-.031.342-.094.433-.326.424-.4-.016-.8.053-1.195.045a.608.608,0,0,0-.379.147.971.971,0,0,0-.336.815c-.017.309-.005.619,0,.928,0,.134-.044.238-.184.261a9.143,9.143,0,0,1-1.139.131,7.008,7.008,0,0,1-1.038-.09c-.337-.037-.312-.057-.351-.388-.042-.35-.014-.7-.038-1.047a.764.764,0,0,0-.811-.757,1.4,1.4,0,0,1-.436-.031c-.268-.059-.392.028-.489.292a.057.057,0,0,0-.034.008" transform="translate(-49.624 -46.561)" fill="#4adbd1"/>
        <path id="Trazado_729055" data-name="Trazado 729055" d="M53.134,53.718c.1-.264.221-.351.489-.292a1.393,1.393,0,0,0,.436.031.764.764,0,0,1,.811.758c.024.348,0,.7.038,1.047.039.331.014.351.351.388a7.007,7.007,0,0,0,1.038.09,9.122,9.122,0,0,0,1.139-.131c.139-.023.185-.127.184-.261,0-.309-.014-.62,0-.928a.97.97,0,0,1,.336-.815.608.608,0,0,1,.379-.147c.4.008.794-.061,1.195-.045.232.009.295-.081.326-.424a3.342,3.342,0,0,0,.045-.624c.02-.01.036-.022.025-.048a3.143,3.143,0,0,0,0-.588c.013-.026,0-.037-.023-.047a4.636,4.636,0,0,0-.09-.825.162.162,0,0,0-.2-.143c-.414.036-.823-.05-1.236-.045a.86.86,0,0,1-.721-.7,8.585,8.585,0,0,1-.035-1.153c0-.18-.024-.292-.245-.322a6.1,6.1,0,0,0-1.634-.073c-.232.03-.466.051-.7.091-.1.017-.123.069-.13.157-.03.356-.048.711-.043,1.068a.824.824,0,0,1-.629.907.426.426,0,0,1-.12.024c-.392-.022-.781.084-1.173.042-.185-.02-.249.078-.273.233a7.41,7.41,0,0,0-.083,1.249,3.8,3.8,0,0,0,.076.98.324.324,0,0,1-.164.406c-.352.018-.449-.085-.435-.432a3.179,3.179,0,0,0-.077-.394,5.816,5.816,0,0,1,.131-2.166.709.709,0,0,1,.677-.507c.4,0,.794-.072,1.193-.045.189.013.234-.135.241-.274.019-.355.027-.713.032-1.067a.873.873,0,0,1,.828-.859,8.185,8.185,0,0,1,1.478-.077,5.988,5.988,0,0,1,1.105.144.777.777,0,0,1,.573.806,8.772,8.772,0,0,0,.037,1.109c.027.152.074.232.234.22.406-.029.808.059,1.215.043a.834.834,0,0,1,.715.682,9.424,9.424,0,0,1,.072,1.922,1.971,1.971,0,0,1-.194.96.752.752,0,0,1-.654.4c-.406,0-.809.068-1.214.05-.114-.005-.15.034-.173.151a7.906,7.906,0,0,0-.037,1.109.881.881,0,0,1-.324.73,1.45,1.45,0,0,1-.594.2c-.2.04-.429-.017-.6.15-.135-.1-.293-.055-.44-.058a5.264,5.264,0,0,1-1.532-.2.679.679,0,0,1-.473-.61,6.81,6.81,0,0,1-.049-1.131c.012-.262-.034-.359-.326-.342a.913.913,0,0,1-.627-.11c-.1-.068-.083-.166-.154-.224a.037.037,0,0,0,0-.038" transform="translate(-45.622 -41.932)" fill="#040505"/>
        <path id="Trazado_729056" data-name="Trazado 729056" d="M28.016,46.988a9.566,9.566,0,0,1-1.079-1.41,16.2,16.2,0,0,1-1.93-4.3c-.2-.669-.328-1.352-.488-2.028a4.656,4.656,0,0,1-.151-.772,2.97,2.97,0,0,0-.039-.586c-.1-.375.1-.517.37-.679a15.086,15.086,0,0,1,2.427-1.226c0,.06-.043.08-.08.113a4.6,4.6,0,0,0-1.587,2.681,5.181,5.181,0,0,0,.111,2.185,21,21,0,0,0,1.071,3.295,14.694,14.694,0,0,0,1.716,2.986.314.314,0,0,1,.082.228c-.119-.164-.31-.266-.394-.459.011-.029,0-.037-.028-.03" transform="translate(-21.341 -31.604)" fill="#e4d4cd"/>
        <path id="Trazado_729057" data-name="Trazado 729057" d="M95.371,146.919a.076.076,0,0,1-.09.087c0-.061.028-.091.09-.087" transform="translate(-83.671 -129.018)" fill="#0d0c0c"/>
        <path id="Trazado_729058" data-name="Trazado 729058" d="M101.719,142.785c0,.065-.024.075-.076.046,0-.061.046-.038.076-.046" transform="translate(-89.258 -125.388)" fill="#0d0c0c"/>
        <path id="Trazado_729059" data-name="Trazado 729059" d="M81.9,148.955c-.036.007-.073.018-.086-.034.039-.015.084-.044.086.034" transform="translate(-71.843 -130.761)" fill="#efe8e8"/>
        <path id="Trazado_729060" data-name="Trazado 729060" d="M141.073,42.274c.032-.058.063-.059.093,0l-.093,0" transform="translate(-123.884 -37.085)" fill="#efe8e8"/>
        <path id="Trazado_729061" data-name="Trazado 729061" d="M117.641,128.564v.051l-.031-.033.031-.018" transform="translate(-103.28 -112.899)" fill="#070808"/>
        <path id="Trazado_729062" data-name="Trazado 729062" d="M47.473,35.74c.005-.024.016-.042.045-.034l-.045.034" transform="translate(-41.689 -31.354)" fill="#e4d4cd"/>
        <path id="Trazado_729063" data-name="Trazado 729063" d="M61.414,96.725a.037.037,0,0,1,0,.038l-.033-.03a.057.057,0,0,1,.034-.008" transform="translate(-53.901 -84.939)" fill="#efe8e8"/>
        <path id="Trazado_729064" data-name="Trazado 729064" d="M54.785,126.24c.028-.007.039,0,.028.03l-.028-.03" transform="translate(-48.11 -110.856)" fill="#0d0c0c"/>
        <path id="Trazado_729065" data-name="Trazado 729065" d="M117.232,85.238c.011.026-.005.038-.025.048l.025-.048" transform="translate(-102.926 -74.852)" fill="#b43446"/>
        <path id="Trazado_729066" data-name="Trazado 729066" d="M117.2,80.021c.018.01.036.021.023.047l-.023-.047" transform="translate(-102.921 -70.271)" fill="#b43446"/>
      </g>
    </g>
  </g>
</svg>
