<svg id="Grupo_1019299" data-name="Grupo 1019299" xmlns="http://www.w3.org/2000/svg" xmlns:xlink="http://www.w3.org/1999/xlink" width="60.837" height="89.905" viewBox="0 0 60.837 89.905">
  <defs>
    <clipPath id="clip-path">
      <rect id="Rectángulo_352925" data-name="Rectángulo 352925" width="60.837" height="89.906" fill="none"/>
    </clipPath>
  </defs>
  <g id="Grupo_1019299-2" data-name="Grupo 1019299" clip-path="url(#clip-path)">
    <path id="Trazado_735838" data-name="Trazado 735838" d="M25.264,89.906H23.641c.073-.188.27-.014.419-.179l-.688.051h-.523a2.166,2.166,0,0,1-.5-.018c-.408-.109-.834-.108-1.238-.245-.43-.146-.885-.221-1.311-.376a17.524,17.524,0,0,1-1.79-.821,10.768,10.768,0,0,1-1.349-.844A13.879,13.879,0,0,1,14.7,85.9,14.563,14.563,0,0,1,12.525,83a11.247,11.247,0,0,1-1.07-2.3,13.115,13.115,0,0,1-.444-1.693,15,15,0,0,1-.266-1.772c-.025-.458-.11-.914-.123-1.371-.011-.405-.091-.8-.093-1.209,0-.27-.085-.541-.083-.811,0-.321-.069-.637-.052-.957a.207.207,0,0,0-.15-.213c-.233-.108-.463-.225-.689-.347-.848-.459-1.72-.87-2.576-1.312a10.836,10.836,0,0,1-1.795-1.181A13.224,13.224,0,0,1,3.6,68.368c-.3-.331-.606-.658-.869-1.014A13.308,13.308,0,0,1,.639,63.163,10.646,10.646,0,0,1,.177,59.7a.036.036,0,0,0,.036-.05c0-.012-.026-.019-.04-.028a12.262,12.262,0,0,1,.094-2.174A7.454,7.454,0,0,1,.514,56.2a18.544,18.544,0,0,1,.637-1.8,16.013,16.013,0,0,1,.858-1.682A11.833,11.833,0,0,1,3.238,51,14.5,14.5,0,0,1,5.3,49.109a12.085,12.085,0,0,1,3.113-1.763c.179-.065.156-.126.056-.253a11.866,11.866,0,0,1-2.534-6.4,9.965,9.965,0,0,1,.118-2.647,12.73,12.73,0,0,1,.748-2.63,10.839,10.839,0,0,1,1.469-2.578A16.655,16.655,0,0,0,10.1,30a14.067,14.067,0,0,0,1.081-2.891,14.151,14.151,0,0,0,.39-1.92q.105-1.028.113-2.064c.02-3.234-.026-6.469.016-9.7,0-.346.084-.678.107-1.02a6.448,6.448,0,0,1,.229-1.211,9.03,9.03,0,0,1,.293-1.165c.171-.417.29-.856.484-1.267a15.954,15.954,0,0,1,3.2-4.708,8,8,0,0,1,.634-.546c.447-.374.912-.724,1.395-1.052a13.36,13.36,0,0,1,2.711-1.435A5.392,5.392,0,0,1,21.68.669c.388-.072.758-.2,1.139-.293A13.377,13.377,0,0,1,24.873.055,9.187,9.187,0,0,1,26.433.023c.7.066,1.407.107,2.106.228.854.147,1.689.37,2.529.576.629.154,1.263.295,1.882.485a1.536,1.536,0,0,0,.862.028C34.606,1.134,35.4.924,36.2.73a23.815,23.815,0,0,1,2.58-.565A12.8,12.8,0,0,1,41.32.028a20.265,20.265,0,0,1,2.249.265,14.229,14.229,0,0,1,2.6.746A14.024,14.024,0,0,1,51.2,4.5a14.3,14.3,0,0,1,3.24,5.457,12.707,12.707,0,0,1,.6,2.794c.068.693.119,1.389.121,2.088.008,2.73-.035,5.46.02,8.19.01.52.069,1.037.122,1.554a18.622,18.622,0,0,0,.413,2.379,20.912,20.912,0,0,0,.979,3.073,21.8,21.8,0,0,0,1.962,3.8A13.594,13.594,0,0,1,60.5,37.82a10.345,10.345,0,0,1,.338,1.825,10.179,10.179,0,0,1,.08,1.977c-.028.25-.074.5-.084.749a8.616,8.616,0,0,1-.2,1.367,13.645,13.645,0,0,1-.677,2.093,12.066,12.066,0,0,1-1.1,2.08,8.982,8.982,0,0,1-.82,1.106A13.075,13.075,0,0,1,56.2,50.777a12.625,12.625,0,0,1-1.8,1.174,17.332,17.332,0,0,1,2.188,1.958c.335.38.68.754.982,1.159a11.444,11.444,0,0,1,.954,1.374c.13.242.295.466.423.708.176.332.318.683.5,1.012a11.131,11.131,0,0,1,.643,1.606,15.056,15.056,0,0,1,.482,1.711c.071.313.117.632.2.944.051.194.03.433.064.654a12.9,12.9,0,0,1,.121,2.1c-.045,3.2.137,6.412-.108,9.615a15.324,15.324,0,0,1-.778,3.615c-.122.3-.214.632-.317.949a10.7,10.7,0,0,1-.835,1.779,16.681,16.681,0,0,1-4.794,5.493,15.12,15.12,0,0,1-1.346.9,18.083,18.083,0,0,1-2.242,1.116,15.708,15.708,0,0,1-2.316.753,12.718,12.718,0,0,1-2.253.385h-.445c-.026.043.077.074.011.122H43.641c.071-.177.244-.03.352-.112-.209-.132-.42,0-.627-.012l-.645-.009a3.743,3.743,0,0,1-.91-.05,17.9,17.9,0,0,1-2.1-.468c-.712-.2-1.424-.4-2.134-.612q-1.513-.448-3.035-.864a1.257,1.257,0,0,0-.716-.1c-.469.142-.938.286-1.408.427-.685.205-1.376.394-2.055.616-.4.132-.811.245-1.213.372-.461.146-.94.251-1.411.37a8.742,8.742,0,0,1-1.94.315c-.2-.045-.405.025-.6-.039h-.881a4.127,4.127,0,0,0,.862.076c.058,0,.117,0,.089.087M54.43,55.8l0,0-.04-.042a1.59,1.59,0,0,0-.3-.31l-.1-.1-.034-.027-.045-.043a3.118,3.118,0,0,0-.4-.352.285.285,0,0,0-.173-.137,2.164,2.164,0,0,0-.486-.39,2.14,2.14,0,0,0-.436-.311.549.549,0,0,0-.26-.174.622.622,0,0,0-.267-.175c-.016-.039-.051-.04-.084-.044a.378.378,0,0,0-.219-.142.193.193,0,0,0-.134-.077l-.045-.032-.044-.015a.679.679,0,0,0-.308-.172.3.3,0,0,0-.174-.088.285.285,0,0,0-.177-.089.3.3,0,0,0-.176-.086,1.126,1.126,0,0,0-.351-.166c-.153-.048-.259-.209-.443-.183a.076.076,0,0,0-.081-.035,4.964,4.964,0,0,0-.965-.318l-.045-.032-.089-.011a.4.4,0,0,0-.219-.076l-.146-.021-.072-.026c-.088-.018-.169-.072-.265-.053-.047-.064-.115-.037-.176-.042h0a.075.075,0,0,0-.083-.032l-.18-.012-.037-.021-.531-.1-.3-.045-.572-.057c-.048-.061-.114-.042-.176-.036l-.175-.038-.176-.011h0a.128.128,0,0,0-.126-.033l-.573-.057a1.4,1.4,0,0,0-.481-.093c-.007-.025-.021-.039-.049-.031-.079-.088-.125-.03-.167.039l0,0c-.056.024-.054.079-.065.127l-.244.4a.038.038,0,0,0-.04.043l0,0-.041.083,0,0c-.026,0-.041.014-.039.042l-.045.089c-.026,0-.044.012-.038.043a10.849,10.849,0,0,1-.842,1.1l-.047.041h0c-.036.021-.074.04-.077.09-.237.309-.572.526-.8.846l-.035.033-.275.227c-.028-.007-.039.01-.045.034h0l-.093.09c-.063.059-.125.119-.19.175a14.245,14.245,0,0,1-1.383,1.021l-.046.031h0l-.08.049a15.778,15.778,0,0,1-2.067,1.019.348.348,0,0,0-.176.075l-1.317.411L36,57.587l0,0c-.075.011-.155,0-.22.05l-.432.1a.178.178,0,0,0-.151.034l-.157.017a.107.107,0,0,0-.1.028l-.163.014a.038.038,0,0,0-.041,0l-.355.043c-.029-.011-.037.01-.046.03l-.217.012c-.113.011-.1.066-.048.135l.152.384c0,.032-.011.065.03.08l.013.093c-.009.034.013.039.038.04.069.2.152.4.205.613a8.718,8.718,0,0,1,.319,2.069c0,.075-.042.157.034.22l.007.085c0,.016,0,.033,0,.049v.126c0,.031,0,.062,0,.094s0,.055,0,.082,0,.063,0,.094v.081c0,.031,0,.063,0,.094v.081c0,.031,0,.063,0,.094v.257c0,.031,0,.063,0,.094v.081c0,.031,0,.063,0,.094v.081c0,.031,0,.063,0,.094l0,.565c-.015.053-.014.1.041.131a1.858,1.858,0,0,0,.874.073l.176.012a6.763,6.763,0,0,0,.78.132,12.5,12.5,0,0,1,1.632.269c0,.024.015.041.044.036l.175.009c0,.025.015.042.045.036l.09,0,.042.012c0,.025.014.041.043.036a.471.471,0,0,1,.223.038l.086.008a1.358,1.358,0,0,0,.485.121l.04.02c.764.254,1.537.481,2.284.787,0,.027.012.042.041.037l.1.035a8.234,8.234,0,0,1,.868.369c.005.025.014.043.045.029s.043.065.09.041l.042.013v0l.217.114.048.018c0,.027.01.041.039.036l.043.012c.015.051.063.018.091.035v0c.03.047.081.056.128.072l.048.016a.529.529,0,0,0,.216.122l.043.012c0,.025.013.042.043.033.111,0,.153.139.265.14l.175.124.043.013c.014.047.059.029.089.042l.35.222c.007.023.017.04.045.024l.087.061.217.134h0c.007.022.016.042.045.029l.221.147c.007.023.015.043.045.027l.522.333a.6.6,0,0,0,.358.2c-.048-.169.057-.321-.015-.473,0-.043.012-.087.012-.13q0-2.663,0-5.326c0-.058-.011-.115-.016-.173v-.124a.6.6,0,0,0,.011-.272l0-.523q0-.055.008-.109l.017-.061.012-.094a.041.041,0,0,0,0-.042l.095-.526.031-.087.02-.15a.13.13,0,0,0,.039-.118,7.1,7.1,0,0,1,1.268-2.329.291.291,0,0,0,.118-.129l.065-.069c.064-.051.112-.132.213-.114q.451.444.9.889c.3.3.61.587.906.889.071.073.2.142.12.288l-.053.053a.025.025,0,0,0-.03.023l-.06.073a3.213,3.213,0,0,0-.787,1.956c0,.006-.013.011-.013.017a.22.22,0,0,0,.009.039q-.009.172-.019.343v.053c0,.041,0,.082,0,.123,0,.018,0,.035,0,.053,0,.041,0,.082,0,.123,0,.018,0,.035,0,.053v.122c0,.018,0,.036,0,.053v.474c0,.018,0,.036,0,.053v.351c0,.041,0,.082,0,.122v.053c0,.041,0,.082,0,.122v.053q0,.061,0,.122v4.917c0,.018,0,.035,0,.053v.176q0,.061,0,.122c0,.018,0,.035,0,.053q0,.062,0,.123v.053q0,.15,0,.3c-.006.075-.046.157.04.216a.326.326,0,0,0,.211.041l8.243,0c.076.009.158.057.218-.036q0-2.429.007-4.859a.316.316,0,0,0-.05-.185,5.355,5.355,0,0,0,0-.748c.009-.029-.011-.038-.032-.046a4.361,4.361,0,0,0-.092-.875c0-.07.023-.143-.034-.2l-.013-.149a.114.114,0,0,0-.03-.115l-.066-.367a1.123,1.123,0,0,0-.074-.308l-.013-.09-.025-.055-.106-.428L57.5,61.1a1.165,1.165,0,0,0-.13-.386.254.254,0,0,0-.05-.174l-.009-.045-.028-.06a11.085,11.085,0,0,0-1.452-2.881l-.04-.058a1.833,1.833,0,0,0-.284-.427l-.029-.034,0-.006-.038-.044a.149.149,0,0,0-.083-.091,1.4,1.4,0,0,0-.269-.348,3.405,3.405,0,0,0-.448-.526l-.08-.084a.152.152,0,0,0-.089-.094ZM17.479,31.86a1.3,1.3,0,0,0,.012-.13q0-2.622,0-5.244c0-.408-.035-.438-.432-.368A2.939,2.939,0,0,0,14.6,28.675a2.9,2.9,0,0,0,2.72,3.21c.061.035.12.067.161-.025M58.062,72.824c.007-.339.068-.3-.289-.3q-3.351,0-6.7,0c-.062,0-.147-.035-.183.024s.042.113.077.163a7.081,7.081,0,0,1,1.279,3.628l0,.051a6.474,6.474,0,0,1-.145,1.823,7.143,7.143,0,0,1-4.678,5.467c-1.078.4-2.2.676-3.3,1-1.558.46-3.119.912-4.679,1.366-.042.012-.1.02-.093.071.007.07.074.082.131.1.677.164,1.337.4,2.026.515a14.062,14.062,0,0,0,2.59.279c.326,0,.652-.024.977-.033a10.66,10.66,0,0,0,2.212-.3,13.678,13.678,0,0,0,7.479-4.554,13.463,13.463,0,0,0,3.012-6.258,17.266,17.266,0,0,0,.285-2.985l0-.054M8.812,40.345a5.671,5.671,0,0,0,.181,1.344,9.192,9.192,0,0,0,1.732,3.57,11.949,11.949,0,0,0,.977,1.067.36.36,0,0,0,.308.126c.33-.031.664-.029.993-.035,1.41-.027,2.821-.017,4.232-.009a10.217,10.217,0,0,1,1.656.152,10.65,10.65,0,0,1,4.221,1.674.67.67,0,0,0,.557.1,2.99,2.99,0,0,0,2.4-2.174c.043-.143.048-.243-.123-.312a12.669,12.669,0,0,1-2.686-1.563,16.427,16.427,0,0,1-2.13-1.915,5.39,5.39,0,0,1-.512-.519c-.216-.3-.42-.624-.63-.935-.476-.7-.813-1.489-1.287-2.193.042-.242-.118-.425-.2-.629a14.3,14.3,0,0,1-.83-3.126c-.014-.1-.04-.174-.158-.165a3.454,3.454,0,0,1-.586-.038,5.584,5.584,0,0,1-3.118-1.342,5.686,5.686,0,0,1-1.27-1.494c-.079-.134-.143-.177-.234,0A16.529,16.529,0,0,1,10.741,34.3a8.926,8.926,0,0,0-1.915,4.807,5.259,5.259,0,0,0-.017,1.182c-.021.019-.019.037,0,.055m7.159,8.977c-.592,0-1.184,0-1.776.009a17.605,17.605,0,0,0-2.4.089,10.146,10.146,0,0,0-6.6,3.8,10.91,10.91,0,0,0-1.472,2.506A9.427,9.427,0,0,0,3.127,58a9.806,9.806,0,0,0,.068,3.457A10.187,10.187,0,0,0,5.2,65.831a8.808,8.808,0,0,0,1.756,1.7,9.054,9.054,0,0,0,.829.574c.288.165.565.378.864.531,1.234.633,2.478,1.247,3.718,1.868l3.438,1.721c.124.062.242.126.388.039.24-.141.484-.276.733-.4.373-.187.753-.359,1.126-.546.608-.306,1.2-.635,1.821-.922.27-.126.28-.1.189-.415a9.016,9.016,0,0,0-1.146-2.45c-.189-.286-.232-.3-.529-.141-.025.013-.05.027-.075.042a5.636,5.636,0,0,1-1.27.554,4.74,4.74,0,0,1-1.973.1,5.41,5.41,0,0,1-3.553-1.978,5.573,5.573,0,0,1-1.2-4.5A4.8,4.8,0,0,1,11.492,59.1a.716.716,0,0,0,.222-.44,11.789,11.789,0,0,1,.741-3.543,11.994,11.994,0,0,1,3.734-5.13c.263-.216.543-.409.821-.647-.309-.068-.594.015-.875-.025a.135.135,0,0,0-.164,0m42.073-8.059a10.293,10.293,0,0,0-.262-2.479,9.9,9.9,0,0,0-1.451-3.27A18.914,18.914,0,0,1,54.5,32.078a.284.284,0,0,0-.142-.156c-.068-.025-.1.062-.139.116A5.687,5.687,0,0,1,49.382,34.8c-.134,0-.191.048-.211.187a13.729,13.729,0,0,1-1.6,4.736,14.312,14.312,0,0,1-3.346,4.06,15.108,15.108,0,0,1-2.038,1.408,9.365,9.365,0,0,1-1.314.651c-.114.046-.2.1-.157.257a3.007,3.007,0,0,0,2.3,2.263c.866.2,1.758.271,2.638.406.966.148,1.938.251,2.892.474a17.131,17.131,0,0,1,2.762.906.428.428,0,0,0,.412-.027c.241-.137.488-.264.737-.387a11.039,11.039,0,0,0,2.075-1.3A9.682,9.682,0,0,0,57.5,44.181a8.835,8.835,0,0,0,.453-1.726,5.956,5.956,0,0,0,.084-1.148s.013-.009.013-.012a.18.18,0,0,0-.009-.032M14.566,60.011a1.183,1.183,0,0,1-.131.194,10.913,10.913,0,0,0-.86.964,2.493,2.493,0,0,0-.394,1.956A2.451,2.451,0,0,0,14.4,64.86a2.575,2.575,0,0,0,3.006-.236,9.7,9.7,0,0,0,1.374-1.269c.1-.1.175-.156.3-.022a19.456,19.456,0,0,1,1.843,2.038,14.738,14.738,0,0,1,1.073,1.67,9.7,9.7,0,0,1,.682,1.612c.07.22.155.249.367.146.159-.078.323-.144.481-.224C26.266,67.2,29,65.8,31.767,64.479a.317.317,0,0,0,.22-.346c-.038-.875.028-1.751-.047-2.626a8.608,8.608,0,0,0-.121-.973c-.133.1-.253.182-.357.278a5.4,5.4,0,0,1-1.034.782,5.531,5.531,0,0,1-2.589.745c-.142,0-.209-.023-.208-.189.007-.849.005-1.7,0-2.546,0-.124.04-.157.158-.167a3.149,3.149,0,0,0,1.828-.819,7.141,7.141,0,0,0,.668-.887.2.2,0,0,0-.025-.258,9.937,9.937,0,0,0-.78-.715,11.381,11.381,0,0,0-2.013-1.064,10.774,10.774,0,0,1-2.514-1.647A11.938,11.938,0,0,1,23.474,52.5a8.85,8.85,0,0,0-2.427-2.183.283.283,0,0,0-.354.014c-.533.37-1.064.744-1.611,1.092A9.461,9.461,0,0,0,14.8,57.393a6.388,6.388,0,0,0-.2,1.474c0,.263.023.527-.005.79-.005,0-.016.01-.015.013a.228.228,0,0,0,.016.034c0,.029,0,.057,0,.085a.377.377,0,0,0-.03.223M40,82.875l1.929-.56c.076.078.068-.02.094-.045a4.579,4.579,0,0,0,.784-.225A.322.322,0,0,0,42.983,82c.349-.1.7-.2,1.048-.3.885-.267,1.787-.483,2.644-.832A4.341,4.341,0,0,0,49.334,76.6a.036.036,0,0,0,0-.042l-.037-.265c0-.048.026-.1-.035-.133a3.209,3.209,0,0,0-.434-1.406.1.1,0,0,0-.048-.086l-.222-.35a.609.609,0,0,0-.164-.225.246.246,0,0,0-.1-.125,1.1,1.1,0,0,0-.3-.325,3.417,3.417,0,0,0-1.448-.875l-.172-.057a3.669,3.669,0,0,0-.926-.151c-.064-.077-.147-.032-.223-.035a3.393,3.393,0,0,0-.617.009.121.121,0,0,0-.11.023,4.867,4.867,0,0,0-1.861.491.6.6,0,0,0-.237.12,3.017,3.017,0,0,0-.821.519c-.535.434-.991.951-1.481,1.432a.691.691,0,0,1-.388.221c-.516.078-1.029.184-1.547.243-.718.083-1.425.227-2.139.332-.583.086-1.17.167-1.751.28-.637.125-1.287.178-1.93.275-.713.108-1.422.238-2.135.345-.926.14-1.859.244-2.781.406-.9.157-1.8.275-2.7.428a11.829,11.829,0,0,0-2.7.752,10.8,10.8,0,0,0-3.513,2.379,1.521,1.521,0,0,1-.853.427c-.794.151-1.589.3-2.383.45-.134.026-.182.077-.09.22a9.9,9.9,0,0,0,.572.834,12.112,12.112,0,0,0,1.2,1.349,11.338,11.338,0,0,0,2.694,1.871A10.608,10.608,0,0,0,23.574,87a9.948,9.948,0,0,0,2.087-.066,12.61,12.61,0,0,0,2.278-.5l.131-.042,1.054-.309.072-.028c.569-.135,1.125-.316,1.682-.494a.148.148,0,0,0,.132-.04,1.186,1.186,0,0,0,.127-.023q1.517-.446,3.033-.893c.892-.264,1.782-.533,2.673-.8a.314.314,0,0,0,.175-.048c.939-.264,1.878-.532,2.807-.83A.312.312,0,0,0,40,82.875M20.4,19.7a2.675,2.675,0,0,0,.9-.259,15.4,15.4,0,0,0,3.375-1.474,10.936,10.936,0,0,0,1.362-.9c.3-.26.6-.51.9-.772.262-.232.512-.484.8-.692.166-.122.122-.224-.021-.317a5.819,5.819,0,0,1-.766-.637,17.373,17.373,0,0,1-1.672-1.877c-.24-.3-.259-.257.059-.51.6-.478,1.211-.944,1.808-1.424a.186.186,0,0,1,.31.036c.321.4.682.762,1.038,1.131a19.562,19.562,0,0,0,3.4,2.891,5.909,5.909,0,0,0,.642.433c.391.182.729.446,1.118.632a28.112,28.112,0,0,0,2.822,1.219,20.319,20.319,0,0,0,3.109.833c.957.171,1.924.251,2.891.341.894.083,1.787.175,2.682.245.37.029.734.112,1.107.105.1,0,.187-.006.149-.138a5.157,5.157,0,0,0-.3-.957,3.9,3.9,0,0,0-1.584-1.7c-.153-.083-.153-.184-.081-.325q.556-1.089,1.1-2.184c.077-.154.152-.178.306-.093a7.108,7.108,0,0,1,1.065.727,6.5,6.5,0,0,1,1.938,2.6,7.261,7.261,0,0,1,.494,2.71c.012,1.193,0,2.385,0,3.578,0,.277.012.286.3.3.2.013.4.033.6.065a5.645,5.645,0,0,1,1.909.676c.054.03.113.1.176.056s.034-.136.029-.2c-.023-.283-.075-.566-.076-.849-.011-2.692-.011-5.385-.021-8.077a11.607,11.607,0,0,0-.1-1.921,12.238,12.238,0,0,0-.6-2.537,11.68,11.68,0,0,0-.616-1.4,11.943,11.943,0,0,0-4.387-4.557A11.569,11.569,0,0,0,41.1,2.9l-.051,0a11.228,11.228,0,0,0-2.524.238c-1.532.334-3.044.753-4.568,1.124a1.367,1.367,0,0,1-.659.106c-1.316-.324-2.631-.658-3.948-.981a13.894,13.894,0,0,0-2.99-.488,13.138,13.138,0,0,0-2.539.22,10.986,10.986,0,0,0-2.091.594,12.113,12.113,0,0,0-1.341.661,9.823,9.823,0,0,0-1.426.952,15.335,15.335,0,0,0-1.4,1.334,9.308,9.308,0,0,0-1.386,1.823,11.2,11.2,0,0,0-.917,1.993,14.589,14.589,0,0,0-.593,2.427,10.05,10.05,0,0,0-.093,1.645q0,3.995,0,7.99c0,.414-.015.827-.008,1.24,0,.239.028.244.233.134a5.471,5.471,0,0,1,2.478-.7c.192,0,.228-.075.227-.248-.008-.9-.025-1.8,0-2.7a10.176,10.176,0,0,1,.107-2.194c.076-.312.1-.646.194-.963a6.56,6.56,0,0,1,.706-1.544,6.777,6.777,0,0,1,1-1.142A6.314,6.314,0,0,1,21,13.289c.152-.084.231-.071.28.081a6.564,6.564,0,0,0,.47.947c.22.431.387.887.632,1.306.078.134,0,.205-.12.271a3.485,3.485,0,0,0-.891.719,4.272,4.272,0,0,0-1,3.045c-.011.028,0,.04.029.042m7.278,23.714a.15.15,0,0,0,.13.048,4.564,4.564,0,0,0,.878.3c.058.026.093.108.176.077.042.022.074.069.131.057l.1.171q0,.572,0,1.144,0,.132,0,.264a3.216,3.216,0,0,1-.108.985,5.712,5.712,0,0,1-1.63,3.091,4.1,4.1,0,0,1-.7.608,2.3,2.3,0,0,1-.758.4l-.04-.026-.011.032c-.007.059-.094.112-.012.178l.072.095a.754.754,0,0,0,.046.074,7.751,7.751,0,0,0,3.109,2.336,8.478,8.478,0,0,1,1.639.873c.009.022.018.045.05.033l.449.317c0,.023,0,.044.033.028.146.147.327.25.471.407a.706.706,0,0,0,.615.229,7.671,7.671,0,0,1,.89-.047,6.84,6.84,0,0,0,1.512-.159A10.213,10.213,0,0,0,40.9,51.09c.25-.326.3-.28-.12-.527A5.733,5.733,0,0,1,37.8,45.878c0-.019,0-.038,0-.057l-.036-1.7c.06-.045.058-.09,0-.134.008-.07.038-.1.115-.125.349-.12.706-.216,1.052-.346a18.031,18.031,0,0,0,1.723-.78,6.629,6.629,0,0,0,1.369-.91.531.531,0,0,0,.268-.207,2.612,2.612,0,0,0,.506-.406,11.953,11.953,0,0,0,1.172-1.258l.043-.056a13.891,13.891,0,0,0,1.3-2.1.6.6,0,0,0,.127-.267c.075-.181.156-.36.224-.544a12.455,12.455,0,0,0,.465-1.472,6.887,6.887,0,0,0,.237-1.45c.042-.018.041-.055.043-.091.021-.487.059-.974.06-1.461q.009-3.475,0-6.951c0-1.162-.01-2.324-.015-3.485q.008-.148.015-.3c.154-.07.027-.1-.02-.141a.022.022,0,0,0-.03-.005A.591.591,0,0,0,46.1,21.6a1.9,1.9,0,0,1-.261-.007,14.837,14.837,0,0,0-1.485-.131l-.041-.006a16.928,16.928,0,0,0-1.94-.17c-.016-.045-.052-.041-.089-.035a2.872,2.872,0,0,0-.688-.055l-.049-.008a.922.922,0,0,0-.36-.03l-.219.006c-.073-.059-.163-.041-.245-.058s-.111.073-.177.034a2.1,2.1,0,0,0-.806-.156c-.119.006-.228-.082-.351-.039a1.729,1.729,0,0,0-.7-.132.89.89,0,0,0-.395-.092l-.431-.116-.359-.1a.644.644,0,0,0-.251-.057,1.586,1.586,0,0,0-.407-.119l-.307-.09-.219-.083-.307-.092-.132-.043a.383.383,0,0,0-.2-.058L35.22,19.8l-.132,0c-.161-.182-.4-.2-.607-.291-.27-.117-.54-.232-.809-.35a22.146,22.146,0,0,1-3.288-1.826c-.125-.082-.193-.094-.3.03a15.316,15.316,0,0,1-2.268,2.059,16.133,16.133,0,0,1-4.071,2.227c-.4.148-.8.294-1.2.441l-.041.01-.485.166-.041.009c-.169.054-.341.1-.506.164a9.208,9.208,0,0,0-1.093.39c-.005,0-.015.007-.015.01a.169.169,0,0,0,.006.033l.007.09s-.015.011-.014.013A.2.2,0,0,0,20.38,23c0,.1.011.2.011.306q0,4.658,0,9.317c0,.169-.005.338,0,.506a9.1,9.1,0,0,0,.154,1.523c.051.251.085.522.134.78a10.3,10.3,0,0,0,.645,2.011c-.058.1.046.067.078.091l.048.217c-.035.09.037.078.084.089l.1.261c-.021.072.02.106.079.127.292.5.6.987.934,1.455-.011.029,0,.037.028.032.318.373.613.77.96,1.114a11.31,11.31,0,0,0,2.119,1.663,9.445,9.445,0,0,0,1.922.922M43.923,69.689c-.065-.114-.167-.131-.246-.178a17.6,17.6,0,0,0-4.972-2.146c-.752-.178-1.5-.352-2.268-.46a16.129,16.129,0,0,0-2.419-.185,1.151,1.151,0,0,0-.545.122c-.93.485-1.883.923-2.81,1.415-.893.474-1.811.9-2.716,1.351q-4.936,2.467-9.871,4.937c-.357.178-.361.177-.267.558.154.622.317,1.243.467,1.866.041.17.088.205.24.091a9.578,9.578,0,0,1,1.246-.77,14.047,14.047,0,0,1,4.786-1.541c.664-.089,1.324-.206,1.986-.305.329-.049.664-.08.988-.142.666-.129,1.338-.209,2.005-.326s1.329-.192,1.992-.294c.559-.086,1.114-.192,1.673-.279.835-.13,1.671-.25,2.506-.375.735-.111,1.467-.24,2.2-.329a1.606,1.606,0,0,0,1.044-.5,8.162,8.162,0,0,1,4.131-2.336,6.021,6.021,0,0,0,.844-.173M49.36,29.015c0,.256,0,.512,0,.767,0,.643-.005,1.286,0,1.929,0,.087-.032.217.124.2a5.046,5.046,0,0,0,.588-.113,2.888,2.888,0,0,0-.529-5.68c-.15-.012-.182.041-.181.183.006.906,0,1.812,0,2.719M13.613,76.6c-.047.151.023.266.029.388a12.96,12.96,0,0,0,.26,1.792c.029.151.092.213.255.177.448-.1.9-.2,1.35-.275.2-.033.21-.107.166-.277q-.4-1.59-.788-3.186a.568.568,0,0,0-.345-.416c-.284-.132-.565-.273-.844-.416s-.279-.14-.273.157a1.079,1.079,0,0,0,0,.219c.146.612.049,1.247.186,1.837M45.277,89.8v-.056H44.3a3.382,3.382,0,0,0,.975.056" transform="translate(-0.137 -0.001)" fill="#12263f"/>
    <path id="Trazado_735839" data-name="Trazado 735839" d="M145.743,500.263a8.748,8.748,0,0,0,1.94-.315c.472-.119.951-.225,1.411-.37.4-.127.811-.24,1.213-.372.68-.222,1.37-.411,2.055-.616.47-.14.938-.285,1.408-.427a1.257,1.257,0,0,1,.716.1q1.521.419,3.035.864c.71.21,1.422.41,2.134.612a17.919,17.919,0,0,0,2.1.468,3.741,3.741,0,0,0,.909.05c.04.044-.057.088,0,.132h-16.93c0-.041-.025-.084.006-.124" transform="translate(-120.083 -410.481)" fill="#fff"/>
    <path id="Trazado_735840" data-name="Trazado 735840" d="M241.909,510.3c-.057-.044.04-.088,0-.132l.645.009c.012.04-.051.088.012.123Z" transform="translate(-199.326 -420.397)" fill="#737575"/>
    <path id="Trazado_735841" data-name="Trazado 735841" d="M142.909,510.035c-.03.04-.009.082-.006.124h-.526c.028-.088-.031-.087-.089-.087l.018-.076c.2.064.4-.005.6.039" transform="translate(-117.25 -420.253)" fill="#737575"/>
    <path id="Trazado_735842" data-name="Trazado 735842" d="M129.073,510.319a.1.1,0,0,0,0-.128h.523c.023.042-.049.087.006.128Z" transform="translate(-106.359 -420.414)" fill="#737575"/>
    <path id="Trazado_735843" data-name="Trazado 735843" d="M131.978,510.082c-.055-.04.017-.086-.006-.128l.688-.051c-.149.165-.346-.009-.419.179Z" transform="translate(-108.736 -420.176)" fill="#211c19"/>
    <path id="Trazado_735844" data-name="Trazado 735844" d="M245.6,510.118c-.063-.035,0-.083-.012-.123.207.009.418-.12.627.011-.108.082-.28-.065-.352.112Z" transform="translate(-202.359 -420.212)" fill="#211c19"/>
    <path id="Trazado_735845" data-name="Trazado 735845" d="M258.31,510.23c0,.04,0,.081,0,.122h-.307c.01-.023,0-.042-.022-.042s-.032.018-.022.042h-.088c.066-.047-.037-.079-.011-.122Z" transform="translate(-212.486 -420.446)" fill="#f6c19e"/>
    <path id="Trazado_735846" data-name="Trazado 735846" d="M258.425,510.726c-.01-.023,0-.042.022-.042s.032.018.022.042Z" transform="translate(-212.947 -420.82)" fill="#090b0b"/>
    <path id="Trazado_735847" data-name="Trazado 735847" d="M136.623,122.67a6.626,6.626,0,0,1-1.368.91,18.032,18.032,0,0,1-1.723.78c-.347.13-.7.226-1.052.346-.077.027-.108.055-.115.125-.063.045-.065.09,0,.134q.018.852.036,1.7c-.026.021-.019.039,0,.057a5.732,5.732,0,0,0,2.976,4.685c.422.247.37.2.12.527a10.213,10.213,0,0,1-6.181,3.843,6.839,6.839,0,0,1-1.512.159,7.672,7.672,0,0,0-.89.047.705.705,0,0,1-.615-.229c-.144-.157-.325-.26-.471-.407l-.033-.028-.449-.317-.05-.033a8.466,8.466,0,0,0-1.639-.873,7.752,7.752,0,0,1-3.109-2.336.722.722,0,0,1-.045-.074c.024-.014.056-.032.04-.062s-.073-.03-.113-.032c-.082-.065.005-.119.012-.178l.051-.005a2.3,2.3,0,0,0,.758-.4,4.1,4.1,0,0,0,.7-.608,5.712,5.712,0,0,0,1.63-3.091,3.227,3.227,0,0,0,.108-.985c.125-.087.123-.175,0-.263q0-.572,0-1.144c.046-.156.04-.165-.1-.171-.057.012-.088-.035-.131-.056-.026-.1-.067-.167-.176-.077a4.574,4.574,0,0,1-.878-.3c-.014-.1-.054-.121-.13-.048a9.455,9.455,0,0,1-1.922-.922,11.323,11.323,0,0,1-2.119-1.664c-.346-.345-.642-.741-.96-1.114a.062.062,0,0,0-.029-.032c-.338-.468-.642-.957-.934-1.455,0-.058,0-.119-.08-.127l-.1-.261a.079.079,0,0,0-.084-.089l-.048-.217a.078.078,0,0,0-.079-.091,10.312,10.312,0,0,1-.645-2.011c-.049-.258-.083-.529-.134-.78a9.1,9.1,0,0,1-.154-1.523c-.005-.168,0-.337,0-.506q0-4.658,0-9.317c0-.1-.007-.2-.011-.306l0-.045-.007-.09.009-.043a9.248,9.248,0,0,1,1.093-.39c.165-.063.337-.11.506-.164.018.016.031.01.041-.009l.486-.166c.018.016.031.01.041-.009.4-.147.8-.293,1.2-.441a16.134,16.134,0,0,0,4.071-2.227,15.324,15.324,0,0,0,2.268-2.059c.11-.123.178-.112.3-.03A22.157,22.157,0,0,0,128.277,100c.269.118.539.233.809.35-.006.074-.016.151.092.158.052,0,.1.008.116.073.043.232.141.249.3.082.02-.021.068-.015.1-.022l.132,0c-.017.156.047.227.209.217a.576.576,0,0,0,.249-.054.386.386,0,0,1,.2.058c0,.045-.009.1.055.116s.069-.029.076-.073l.307.092c.016.071-.044.175.072.2.086.02.137-.031.147-.119l.307.09c.009.089-.035.2.084.245a.22.22,0,0,0,.251-.079.335.335,0,0,1,.072-.047.645.645,0,0,1,.251.057c.01.107-.046.248.114.285.143.033.2-.073.244-.186l.431.116c.016.07-.019.222.056.194.112-.043.292.122.339-.1a1.726,1.726,0,0,1,.7.132c-.012.106.02.2.136.2a.184.184,0,0,0,.215-.162,2.1,2.1,0,0,1,.805.156c.066.04.108-.048.177-.034s.173,0,.245.058c.077.128.15.131.219-.006a.923.923,0,0,1,.36.03l.049.008a2.87,2.87,0,0,1,.688.055c.013.049-.032.132.049.14.049.005.033-.066.04-.105a16.966,16.966,0,0,1,1.94.17.087.087,0,0,0,.041.006,14.839,14.839,0,0,1,1.485.131,1.9,1.9,0,0,0,.261.007c.006.054-.02.123.04.154s.079-.03.105-.071c.043-.065.115-.035.174-.047a.022.022,0,0,1,.03.006l.02.141q-.008.148-.015.3c-.152.126-.131.307-.131.469,0,3.285-.015,6.569.012,9.854a10.838,10.838,0,0,0-.019,1.228c.018.145-.073.3.049.437a6.879,6.879,0,0,1-.237,1.45,12.419,12.419,0,0,1-.464,1.471c-.068.184-.149.362-.224.544-.214.007-.191.127-.127.267a13.868,13.868,0,0,1-1.3,2.1c-.016-.04-.036-.078-.089-.056a.068.068,0,0,0-.037.045c-.005.058.043.059.083.067a11.951,11.951,0,0,1-1.172,1.258,2.612,2.612,0,0,1-.506.406c-.145,0-.285,0-.268.208m-15.8-16.892c-.021.014-.059.027-.06.04,0,.047.042.041.074.044l.078.224c.012.091-.047.225.129.219a.991.991,0,0,0,.342.347,1.423,1.423,0,0,0,1.657.028,1.448,1.448,0,0,0,.577-1.545,1.366,1.366,0,0,0-1.088-1.045,1.322,1.322,0,0,0-1.421.471,1.43,1.43,0,0,0-.29,1.217m11.614-.714a1.3,1.3,0,0,0,.015.861,1.492,1.492,0,0,0,1.662.992,1.461,1.461,0,0,0,1.134-1.3,1.409,1.409,0,0,0-.69-1.358,1.451,1.451,0,0,0-2.062.638c-.106.024-.1.089-.058.164m-3.8,10.337c.022.082-.06.215.069.24.1.02.106-.09.1-.172.059-.1.125-.2.176-.3.312-.623.619-1.249.93-1.873.179-.36.181-.36-.138-.582-.009-.055-.017-.11-.087-.045-.307-.15-.628-.27-.921-.45.021-.174-.1-.254-.219-.34.146-.451.309-.9.436-1.353a15.711,15.711,0,0,0,.493-3.345s.014-.009.013-.012a.168.168,0,0,0-.013-.03q-.006-.084-.012-.168c0-.023-.014-.038-.039-.019l-2.809,0c-.019-.021-.032-.014-.043.008-.1.228-.01.47-.049.7-.113.057-.184.121-.036.22l-.007.219c-.143.089-.153.132-.047.22a.751.751,0,0,1,0,.239c-.106.324-.091.669-.2.994-.156.469-.279.949-.471,1.407-.158.376-.337.742-.51,1.11s-.35.719-.512,1.084c-.061.006-.13.008-.044.088a.154.154,0,0,0,.076.224l.055.03c.035,0,.065.006.077.045a.368.368,0,0,0,.453.216l.253.125c.006.059.007.129.087.046a3.628,3.628,0,0,1,.566.281c-.008.133.059.123.145.076a.463.463,0,0,1,.206.1c-.008.133.058.123.145.076a.463.463,0,0,1,.206.1c-.008.133.058.123.145.076a.463.463,0,0,1,.206.1c-.008.133.059.123.145.076l1.171.585m-4.87,4.323c-.124.056-.1.15-.039.226.093.123.153-.029.232-.042l.294.241a.059.059,0,0,0,.031.027l.055.041a.4.4,0,0,0,.076.241c.09.156.186.169.283.005l.3.19c-.01.11.026.182.149.183.043,0,.09.005.1.057.066.278.172.14.276.028a1.1,1.1,0,0,1,.347.137c0,.226.145.071.227.082l.394.113c0,.054-.026.124.051.142s.1-.038.123-.093l.521.112c.007.073-.024.174.08.192s.074-.121.141-.156l1.123,0,.1-.021c.093-.013.186-.025.278-.039a7.768,7.768,0,0,0,1.521-.423.181.181,0,0,0,.255.08c.112-.045,0-.134.011-.2l.009-.012.014,0,.064-.034.038-.021a.138.138,0,0,0,.192.092c.121-.045.031-.135.035-.206a5.094,5.094,0,0,0,.566-.4l.047-.032a4.036,4.036,0,0,0,.9-.8c.081-.058.289.006.2-.212.046-.072.09-.145.139-.215a9.67,9.67,0,0,0,.686-1.11c.026-.049.112-.116-.012-.174-.339-.159-.675-.324-1.01-.491-.418-.208-.837-.415-1.25-.633-.2-.105-.3-.095-.394.1a3.165,3.165,0,0,1-1.914,1.678,3.067,3.067,0,0,1-2.213-.078c-.021-.11-.058-.185-.178-.082a2.936,2.936,0,0,1-1.582-1.658c-.006-.058.041-.14-.035-.165-.05-.017-.04.055-.046.092a.676.676,0,0,0-.307.091c-.391.253-.825.421-1.236.634a6.7,6.7,0,0,0-.987.52.14.14,0,0,0-.135.192c.03.121.148.107.246.11l.056.116c-.05.152-.091.3.16.279l.157.257c-.077.164.01.216.156.227l.092.129c0,.072.005.136.1.128Z" transform="translate(-94.741 -80.847)" fill="#f7c29f"/>
    <path id="Trazado_735848" data-name="Trazado 735848" d="M108.52,16.47a11.566,11.566,0,0,1,5.456,1.569,11.943,11.943,0,0,1,4.387,4.557,11.722,11.722,0,0,1,.616,1.4,12.247,12.247,0,0,1,.6,2.537,11.606,11.606,0,0,1,.1,1.921c.01,2.692.01,5.385.021,8.077,0,.283.053.565.076.848.006.069.043.157-.029.2s-.123-.025-.176-.056a5.641,5.641,0,0,0-1.909-.675c-.2-.032-.4-.052-.6-.065-.285-.018-.3-.027-.3-.3,0-1.193.011-2.385,0-3.578a7.258,7.258,0,0,0-.493-2.71,6.5,6.5,0,0,0-1.938-2.6,7.117,7.117,0,0,0-1.065-.727c-.154-.085-.229-.061-.306.093q-.543,1.1-1.1,2.184c-.072.141-.072.242.081.325a3.9,3.9,0,0,1,1.583,1.7,5.153,5.153,0,0,1,.3.957c.038.132-.048.136-.149.138-.373.007-.737-.076-1.107-.105-.895-.071-1.788-.162-2.682-.245-.966-.09-1.933-.17-2.89-.341a20.327,20.327,0,0,1-3.109-.833,28.189,28.189,0,0,1-2.822-1.219c-.389-.185-.727-.449-1.118-.632a5.9,5.9,0,0,1-.642-.433,19.548,19.548,0,0,1-3.4-2.891c-.355-.368-.717-.73-1.038-1.13a.186.186,0,0,0-.31-.036c-.6.481-1.208.946-1.808,1.424-.318.253-.3.21-.059.51a17.389,17.389,0,0,0,1.672,1.877,5.816,5.816,0,0,0,.766.637c.143.094.188.2.021.317-.284.208-.534.46-.8.692-.3.261-.6.512-.9.772a10.95,10.95,0,0,1-1.362.9,15.413,15.413,0,0,1-3.375,1.474,2.676,2.676,0,0,1-.9.259l-.028-.042a4.271,4.271,0,0,1,1-3.045,3.481,3.481,0,0,1,.891-.719c.115-.066.2-.137.12-.271-.244-.42-.412-.876-.632-1.306a6.564,6.564,0,0,1-.47-.947c-.049-.153-.128-.165-.28-.081a6.309,6.309,0,0,0-1.5,1.135,6.779,6.779,0,0,0-1,1.142,6.552,6.552,0,0,0-.705,1.544c-.094.317-.118.65-.194.963a10.175,10.175,0,0,0-.107,2.194c-.024.9-.008,1.8,0,2.7,0,.172-.035.243-.227.248a5.473,5.473,0,0,0-2.478.7c-.2.11-.229.1-.233-.134-.007-.413.008-.827.008-1.24q0-3.995,0-7.99a10.053,10.053,0,0,1,.092-1.645,14.609,14.609,0,0,1,.593-2.426,11.2,11.2,0,0,1,.917-1.993,9.315,9.315,0,0,1,1.386-1.823,15.264,15.264,0,0,1,1.4-1.334,9.808,9.808,0,0,1,1.426-.952,12.145,12.145,0,0,1,1.341-.662,11.012,11.012,0,0,1,2.091-.594,13.165,13.165,0,0,1,2.539-.22,13.883,13.883,0,0,1,2.99.489c1.317.323,2.631.656,3.948.981a1.37,1.37,0,0,0,.659-.107c1.524-.371,3.035-.79,4.568-1.124a11.217,11.217,0,0,1,2.524-.238c.016.02.033.022.051,0" transform="translate(-67.556 -13.566)" fill="#d2e1f1"/>
    <path id="Trazado_735849" data-name="Trazado 735849" d="M106.938,423.391c-.891.267-1.781.535-2.673.8q-1.516.45-3.033.893a1.185,1.185,0,0,1-.127.023c-.007-.034-.008-.078-.056-.07s-.071.059-.076.11c-.557.178-1.112.359-1.682.494l-.072.028-1.054.309c-.009-.047-.028-.087-.086-.069s-.042.069-.046.111a12.605,12.605,0,0,1-2.278.5,9.948,9.948,0,0,1-2.087.066,10.607,10.607,0,0,1-3.925-1.06,11.337,11.337,0,0,1-2.694-1.871,12.11,12.11,0,0,1-1.2-1.349,9.9,9.9,0,0,1-.572-.834c-.092-.143-.043-.194.09-.22.794-.151,1.589-.3,2.383-.45a1.521,1.521,0,0,0,.854-.427A10.806,10.806,0,0,1,92.117,418a11.834,11.834,0,0,1,2.7-.752c.9-.152,1.8-.27,2.7-.428.922-.162,1.855-.266,2.781-.406.713-.108,1.422-.237,2.135-.345.643-.1,1.293-.15,1.93-.275.581-.114,1.167-.194,1.751-.28.714-.106,1.421-.25,2.139-.332.518-.06,1.031-.166,1.547-.243a.691.691,0,0,0,.388-.221c.49-.481.946-1,1.481-1.432a3.022,3.022,0,0,1,.821-.52c.226.136.227.136.237-.12a4.866,4.866,0,0,1,1.861-.491l.11-.023a3.388,3.388,0,0,1,.617-.009c.044.207.141.074.223.035a3.667,3.667,0,0,1,.925.151c0,.054-.029.124.046.145s.1-.033.126-.088a3.417,3.417,0,0,1,1.448.875c-.073.02-.112.074-.044.121.109.076.13.311.345.2a.245.245,0,0,1,.1.125c-.14.217.015.219.164.225l.222.35c-.069.077-.008.08.048.086a3.212,3.212,0,0,1,.434,1.406c-.071.067-.058.111.035.133l.037.265s-.013.01-.012.013a.177.177,0,0,0,.015.029,4.34,4.34,0,0,1-2.658,4.259c-.858.35-1.76.566-2.644.833-.348.1-.7.2-1.048.3-.009-.059-.028-.121-.1-.106s-.074.09-.075.154a4.59,4.59,0,0,1-.784.225.091.091,0,0,0-.094.045l-1.929.56a.08.08,0,0,0-.1-.077c-.079.009-.072.07-.075.125-.929.3-1.868.566-2.807.83-.009-.059-.028-.121-.1-.106s-.074.09-.075.154m10.6-10.472c-.005.012-.017.026-.014.035s.022.011.034.017c.005-.012.017-.026.014-.035s-.022-.011-.034-.017" transform="translate(-70.232 -339.592)" fill="#f7c29f"/>
    <path id="Trazado_735850" data-name="Trazado 735850" d="M210.24,294.411a.194.194,0,0,1,.134.077c-.039.22.088.184.219.142.034,0,.069.005.084.044-.047.266.12.206.267.175a.55.55,0,0,1,.26.174c.016.236.118.308.436.311a2.156,2.156,0,0,1,.486.39c-.022.147.034.195.173.136a3.135,3.135,0,0,1,.4.352l.045.043.034.027c-.025.014-.065.026-.053.059.029.075.1.034.152.044a1.6,1.6,0,0,1,.3.31l.04.043,0,0,.041.04a.151.151,0,0,1,.089.094.084.084,0,0,0,.08.084,3.4,3.4,0,0,1,.448.526.916.916,0,0,1-.014.191c-.051.177.028.205.177.169a.816.816,0,0,1,.106-.013.148.148,0,0,1,.083.091l.038.044,0,.006.029.034a1.829,1.829,0,0,1,.284.427l.04.058a11.08,11.08,0,0,1,1.452,2.881l.028.06.01.045c-.047.007-.088.023-.079.081s.065.091.128.093a1.16,1.16,0,0,1,.13.386l.027.052.106.428.025.055.013.09c-.093.016-.172.056-.152.164s.111.158.226.144l.066.367a.116.116,0,0,0,.03.114l.013.15c.029.065-.121.159.034.2a4.361,4.361,0,0,1,.092.875l.032.046a5.358,5.358,0,0,1,0,.748.287.287,0,0,1-.148-.024c-.051-.033-.042-.177-.142-.1-.075.055-.065.155-.018.242a.553.553,0,0,1,.029.447,1.5,1.5,0,0,0-.065.5c0,.534,0,1.068,0,1.6a9.093,9.093,0,0,0,.175,2.387.1.1,0,0,0-.006.034l-8.243,0a.325.325,0,0,1-.211-.041c-.013-.072.01-.151-.04-.216l0-.3c.026-.017.026-.035,0-.053q0-.062,0-.123c.026-.018.026-.035,0-.053q0-.061,0-.123c.026-.018.026-.035,0-.053v-.122c.026-.018.026-.035,0-.053V309.3c.026-.018.026-.035,0-.053v-.122c.026-.018.026-.035,0-.053v-.122c.026-.018.026-.035,0-.053v-.122c.026-.018.026-.035,0-.053V308.6c.026-.018.026-.035,0-.053v-.122c.026-.018.026-.035,0-.053v-.122c.026-.018.026-.036,0-.053v-.122q.039-.027,0-.053v-.122q.039-.027,0-.053v-.122q.039-.027,0-.053v-.122q.039-.027,0-.053v-.122c.026-.018.026-.036,0-.053v-.122q.039-.027,0-.053v-.122q.039-.027,0-.053v-.122q.039-.027,0-.053v-.123q.039-.027,0-.053v-.122q.039-.027,0-.053v-.122c.026-.018.026-.035,0-.053v-.122c.026-.018.026-.035,0-.053v-.122c.026-.018.026-.035,0-.053v-.122c.026-.018.026-.035,0-.053v-.122c.026-.018.026-.035,0-.053v-.122c.026-.018.026-.035,0-.053v-.122c.026-.018.026-.035,0-.053v-.122q.039-.026,0-.053v-.122c.026-.018.026-.035,0-.053v-.122c.026-.018.026-.035,0-.053v-.122q.039-.026,0-.053c0-.041,0-.082,0-.122q.039-.027,0-.053c0-.041,0-.081,0-.122.026-.018.026-.036,0-.053,0-.041,0-.082,0-.122.026-.018.026-.036,0-.053v-.122c.026-.018.026-.036,0-.053v-.122c.026-.018.026-.036,0-.053,0-.041,0-.081,0-.122.026-.018.026-.036,0-.053v-.122c.026-.018.026-.036,0-.053v-.122c.026-.018.026-.036,0-.053v-.123c.026-.018.025-.035,0-.053,0-.041,0-.082,0-.123.026-.018.025-.035,0-.053,0-.041,0-.082,0-.123.026-.018.025-.035,0-.052q.01-.172.019-.343c0-.019,0-.037,0-.056a3.213,3.213,0,0,1,.787-1.956c.016.071.027.148.122.154a.058.058,0,0,0,.059-.051.141.141,0,0,0-.1-.168l-.02-.008a.025.025,0,0,1,.03-.023l.053-.053c.083-.146-.049-.215-.12-.288-.3-.3-.6-.593-.905-.889s-.6-.592-.9-.889c-.014-.08-.06-.086-.126-.06a.137.137,0,0,0-.087.174l-.065.069c-.095-.008-.124.045-.118.129a7.1,7.1,0,0,0-1.268,2.329.107.107,0,0,0-.039.118l-.02.149-.031.087-.095.526s-.015.009-.014.011a.17.17,0,0,0,.011.031l-.012.094-.017.061-.008.109c-.109.011-.272-.048-.285.118a1.459,1.459,0,0,1-.178.635c-.05.087.047.246.021.36a6.579,6.579,0,0,0-.027,1.324c-.033,1.038-.011,2.077-.01,3.116a.768.768,0,0,0,0,.153c.02.1.041.245.144.242.137,0,.069-.152.069-.232q.007-2.5,0-5c0-.181.028-.274.227-.184.007.089-.027.18.022.266v.124a.469.469,0,0,0-.026.257q0,2.684,0,5.367c-.186,0-.241.143-.308.274l-.522-.334c-.008-.02,0-.069-.045-.027l-.221-.147-.045-.029h0c0-.156-.055-.235-.217-.135l-.087-.061c-.008-.022,0-.068-.045-.025l-.35-.222c-.022-.029-.026-.1-.089-.042l-.043-.013c0-.075.016-.162-.079-.2-.061-.023-.09.015-.1.074-.113,0-.155-.136-.265-.14l-.043-.033-.043-.011c0-.172-.13-.106-.216-.122l-.048-.016c-.012-.078-.073-.069-.128-.072v0c-.013-.056-.029-.105-.091-.036l-.043-.012-.039-.037-.048-.018c-.038-.1-.128-.109-.217-.114v0c-.009-.02-.022-.029-.042-.013-.047.024-.054-.04-.09-.041-.009-.019.008-.076-.044-.029a8.219,8.219,0,0,0-.868-.369l-.1-.035-.041-.037c-.746-.305-1.519-.532-2.284-.786-.006-.022-.016-.035-.04-.02a1.356,1.356,0,0,1-.485-.121c-.025-.037-.053-.043-.086-.008a.471.471,0,0,0-.223-.038l-.043-.036c-.009-.022-.022-.031-.042-.012l-.09,0-.045-.036-.175-.009-.044-.035a12.489,12.489,0,0,0-1.632-.269,6.808,6.808,0,0,1-.78-.133c-.018-.073.049-.2-.082-.2s-.076.12-.093.192a1.86,1.86,0,0,1-.874-.073l-.041-.131q0-.283,0-.565a.057.057,0,0,0,0-.094c0-.027,0-.054,0-.081a.057.057,0,0,0,0-.094v-.081a.057.057,0,0,0,0-.094c0-.027,0-.054,0-.081a.057.057,0,0,0,0-.094v-.081a.058.058,0,0,0,0-.094V303.2a.057.057,0,0,0,0-.094c0-.027,0-.054,0-.082a.058.058,0,0,0,0-.094v-.082a.057.057,0,0,0,0-.094v-.126c0-.005.013-.011.012-.015a.2.2,0,0,0-.013-.034c0-.028,0-.056-.007-.084.063-.085.093-.165-.034-.22a8.716,8.716,0,0,0-.319-2.069c-.053-.208-.136-.409-.205-.613.025-.049-.019-.033-.038-.04l-.013-.093-.03-.08-.152-.384.047-.135.217-.012.046-.03.355-.043c.016.017.029.014.041,0l.163-.014a.105.105,0,0,0,.1-.028l.157-.017c.054,0,.11.017.151-.034l.432-.1a.206.206,0,0,1,.031.03c.036.053.012.171.123.141s.058-.142.066-.221l0,0,.051-.023,1.317-.411c.006.08.049.159.123.153s.041-.1.052-.163a.349.349,0,0,0,0-.065A15.757,15.757,0,0,0,198.4,297a.488.488,0,0,1,.071.074c.023.037.023.117.092.069s.011-.09-.033-.126a.363.363,0,0,1-.051-.066h0l.046-.031a14.221,14.221,0,0,0,1.383-1.021c.065-.056.127-.117.19-.175.059,0,.093-.028.093-.09h0l.045-.034.275-.227.035-.034c.225-.32.56-.537.8-.846a.077.077,0,0,0,.077-.09h0l.047-.041a10.8,10.8,0,0,0,.842-1.1c.018-.009.073.015.038-.042l.045-.089.039-.042,0,0,.041-.083,0,0,.04-.043.244-.4c.071-.017.061-.075.065-.126l0,0c.057-.008.121.016.167-.039.028-.008.042.006.049.031.017.076-.042.23.073.207.134-.027.292-.01.408-.114l.573.056c.035.039.082.03.126.033h0c.052.118.11.123.176.011l.175.038c.032.142.119.014.176.037l.572.057a.791.791,0,0,1,.039.1c.013.052-.016.13.067.14a.155.155,0,0,0,.148-.077.782.782,0,0,0,.051-.119l.531.1a.07.07,0,0,0,.037.021l.18.012.083.032h0c.007.068-.093.171.033.2.088.019.131-.069.143-.155.1-.018.176.036.265.053l.071.026.146.02c0,.076-.016.169.084.2s.127-.038.136-.119l.089.011.045.032a4.951,4.951,0,0,1,.965.318l.081.035c.184-.026.29.136.443.184.055.276.093.294.351.167a.3.3,0,0,1,.176.086c-.02.186.053.189.177.089a.3.3,0,0,1,.174.088c-.049.192.131.155.213.217s.084.014.1-.045l.044.015.045.033m6.164,9.34c-.012-.005-.026-.017-.035-.014s-.011.022-.016.034c.012.005.026.017.035.014s.011-.022.017-.034" transform="translate(-158.926 -240.945)" fill="#6f88da"/>
    <path id="Trazado_735851" data-name="Trazado 735851" d="M75.321,295.031c.029-.263,0-.527.005-.79a6.386,6.386,0,0,1,.2-1.474A9.461,9.461,0,0,1,79.81,286.8c.547-.348,1.078-.722,1.611-1.092a.283.283,0,0,1,.354-.014,8.849,8.849,0,0,1,2.427,2.183,11.94,11.94,0,0,0,1.478,1.543,10.775,10.775,0,0,0,2.514,1.647,11.389,11.389,0,0,1,2.013,1.064,9.929,9.929,0,0,1,.78.715.2.2,0,0,1,.025.258,7.138,7.138,0,0,1-.668.887,3.149,3.149,0,0,1-1.828.819c-.118.01-.159.043-.158.167.006.849.008,1.7,0,2.546,0,.166.065.191.208.189a5.531,5.531,0,0,0,2.589-.745,5.407,5.407,0,0,0,1.034-.782c.1-.1.224-.175.357-.278a8.613,8.613,0,0,1,.121.973c.076.876.009,1.752.047,2.626a.317.317,0,0,1-.22.346c-2.77,1.32-5.5,2.718-8.242,4.1-.158.079-.322.146-.481.224-.212.1-.3.075-.367-.146a9.7,9.7,0,0,0-.682-1.612,14.738,14.738,0,0,0-1.073-1.67,19.457,19.457,0,0,0-1.843-2.038c-.128-.134-.2-.076-.3.022A9.708,9.708,0,0,1,78.13,300a2.575,2.575,0,0,1-3.006.237,2.452,2.452,0,0,1-1.215-1.735,2.493,2.493,0,0,1,.394-1.956,10.863,10.863,0,0,1,.86-.964,1.179,1.179,0,0,0,.131-.195c.067-.067.043-.146.03-.223,0-.029,0-.057,0-.085v-.047m8.7-4.564H82.725c-.116,0-.205.009-.2.176a2.645,2.645,0,0,1-.228,1.077,3.293,3.293,0,0,1-1.647,1.715c-.1.048-.185.079-.112.223q.578,1.142,1.142,2.291c.062.126.128.153.254.089a6.158,6.158,0,0,0,3.535-5.348c.015-.185-.059-.226-.221-.224-.409.006-.818,0-1.228,0" transform="translate(-60.865 -235.375)" fill="#f7c29f"/>
    <path id="Trazado_735852" data-name="Trazado 735852" d="M247.886,190.771a5.94,5.94,0,0,1-.084,1.148,8.817,8.817,0,0,1-.453,1.726,9.682,9.682,0,0,1-2.969,4.254,11.03,11.03,0,0,1-2.075,1.3c-.248.124-.5.25-.737.387a.429.429,0,0,1-.412.027,17.136,17.136,0,0,0-2.762-.906c-.954-.222-1.926-.326-2.892-.474-.879-.135-1.771-.2-2.638-.406a3.007,3.007,0,0,1-2.3-2.263c-.047-.161.042-.212.157-.257a9.324,9.324,0,0,0,1.314-.651,15.127,15.127,0,0,0,2.038-1.408,14.317,14.317,0,0,0,3.346-4.06,13.733,13.733,0,0,0,1.6-4.736c.02-.138.077-.182.211-.187a5.687,5.687,0,0,0,4.841-2.764c.035-.054.071-.141.14-.116a.283.283,0,0,1,.142.156,18.9,18.9,0,0,0,1.826,3.435,9.9,9.9,0,0,1,1.451,3.27,10.294,10.294,0,0,1,.262,2.479c0,.015,0,.03,0,.045" transform="translate(-189.982 -149.465)" fill="#d2e1f1"/>
    <path id="Trazado_735853" data-name="Trazado 735853" d="M29.427,280.263c.281.04.566-.044.875.025-.278.238-.559.431-.821.647a11.994,11.994,0,0,0-3.734,5.13,11.789,11.789,0,0,0-.741,3.543.716.716,0,0,1-.222.44,4.8,4.8,0,0,0-1.171,2.509,5.573,5.573,0,0,0,1.2,4.5,5.41,5.41,0,0,0,3.553,1.978,4.74,4.74,0,0,0,1.973-.1,5.636,5.636,0,0,0,1.27-.554c.025-.014.049-.029.075-.042.3-.154.34-.144.529.141a9.01,9.01,0,0,1,1.146,2.45c.092.313.082.289-.189.415-.616.287-1.213.616-1.821.922-.373.187-.753.359-1.126.546-.249.125-.493.26-.733.4-.147.087-.264.023-.389-.039l-3.438-1.721c-1.24-.621-2.484-1.235-3.718-1.868-.3-.153-.576-.367-.864-.532a9.023,9.023,0,0,1-.829-.574,8.808,8.808,0,0,1-1.756-1.7,10.189,10.189,0,0,1-2.01-4.375,9.806,9.806,0,0,1-.068-3.457,9.419,9.419,0,0,1,.589-2.271,10.908,10.908,0,0,1,1.472-2.506,10.146,10.146,0,0,1,6.6-3.8,17.607,17.607,0,0,1,2.4-.089c.592-.009,1.184-.006,1.776-.009.055.084.11.085.164,0" transform="translate(-13.429 -230.943)" fill="#505b67"/>
    <path id="Trazado_735854" data-name="Trazado 735854" d="M49.149,189.269a5.26,5.26,0,0,1,.017-1.182,8.928,8.928,0,0,1,1.915-4.807,16.514,16.514,0,0,0,1.571-2.374c.091-.172.155-.129.234,0a5.689,5.689,0,0,0,1.27,1.495,5.586,5.586,0,0,0,3.118,1.342,3.453,3.453,0,0,0,.586.038c.118-.009.144.067.158.165a14.3,14.3,0,0,0,.83,3.126c.078.2.237.386.2.629.474.7.81,1.489,1.286,2.193.21.311.414.632.63.935a5.372,5.372,0,0,0,.512.519,16.415,16.415,0,0,0,2.13,1.915,12.67,12.67,0,0,0,2.686,1.563c.171.069.166.168.123.312a2.99,2.99,0,0,1-2.4,2.174.67.67,0,0,1-.557-.1,10.646,10.646,0,0,0-4.221-1.674,10.218,10.218,0,0,0-1.656-.152c-1.411-.008-2.822-.018-4.232.009-.329.006-.663,0-.993.035a.36.36,0,0,1-.308-.126,11.92,11.92,0,0,1-.977-1.067,9.19,9.19,0,0,1-1.732-3.57,5.672,5.672,0,0,1-.181-1.344c0-.018,0-.036,0-.055" transform="translate(-40.477 -148.979)" fill="#d2e1f1"/>
    <path id="Trazado_735855" data-name="Trazado 735855" d="M126.308,382.122a6.02,6.02,0,0,1-.844.173,8.162,8.162,0,0,0-4.131,2.336,1.606,1.606,0,0,1-1.044.5c-.737.089-1.47.219-2.2.329-.835.126-1.671.246-2.506.375-.559.087-1.114.192-1.673.279-.663.1-1.331.179-1.992.294s-1.34.2-2.005.326c-.324.063-.659.093-.988.142-.663.1-1.322.216-1.986.305a14.047,14.047,0,0,0-4.786,1.541,9.578,9.578,0,0,0-1.246.77c-.152.114-.2.078-.24-.091-.151-.623-.313-1.243-.467-1.866-.094-.381-.09-.379.267-.558q4.935-2.468,9.871-4.937c.9-.452,1.823-.877,2.716-1.351.927-.491,1.88-.93,2.81-1.415a1.153,1.153,0,0,1,.545-.122,16.128,16.128,0,0,1,2.419.185c.763.108,1.516.281,2.268.46a17.6,17.6,0,0,1,4.972,2.146c.079.047.181.064.246.178" transform="translate(-82.522 -312.434)" fill="#ffca28"/>
    <path id="Trazado_735856" data-name="Trazado 735856" d="M235.723,415.9a7.083,7.083,0,0,0-1.279-3.628c-.035-.051-.118-.1-.077-.163s.121-.024.183-.024q3.351,0,6.7,0c.357,0,.3-.037.289.3-.023.017-.029.034,0,.053a17.266,17.266,0,0,1-.285,2.985,13.464,13.464,0,0,1-3.012,6.258,13.677,13.677,0,0,1-7.479,4.554,10.658,10.658,0,0,1-2.212.3c-.325.009-.651.028-.977.033a14.074,14.074,0,0,1-2.59-.279c-.689-.118-1.349-.35-2.026-.515-.056-.014-.124-.025-.131-.1,0-.052.05-.059.092-.072,1.56-.454,3.121-.906,4.679-1.366,1.1-.326,2.227-.6,3.3-1a7.143,7.143,0,0,0,4.678-5.467,6.475,6.475,0,0,0,.144-1.823c0-.005.012-.012.011-.016a.228.228,0,0,0-.015-.035" transform="translate(-183.617 -339.561)" fill="#f7c29f"/>
    <path id="Trazado_735857" data-name="Trazado 735857" d="M84.789,154.05a2.9,2.9,0,0,1-2.72-3.21,2.939,2.939,0,0,1,2.458-2.557c.4-.071.432-.04.432.368q0,2.622,0,5.244c0,.043-.008.087-.012.13l-.161.025" transform="translate(-67.608 -122.166)" fill="#f6c19e"/>
    <path id="Trazado_735858" data-name="Trazado 735858" d="M279.694,151.287c0-.906,0-1.812,0-2.719,0-.142.031-.194.181-.183a2.888,2.888,0,0,1,.529,5.68,5.041,5.041,0,0,1-.588.113c-.157.021-.124-.108-.124-.2,0-.643,0-1.286,0-1.929,0-.256,0-.512,0-.767" transform="translate(-230.471 -122.273)" fill="#f7c29f"/>
    <path id="Trazado_735859" data-name="Trazado 735859" d="M75.677,424.531c-.138-.59-.04-1.225-.186-1.837a1.079,1.079,0,0,1,0-.219c-.007-.3,0-.3.273-.157s.559.284.843.416a.568.568,0,0,1,.345.416q.381,1.6.788,3.186c.043.171.032.244-.166.277-.453.075-.9.175-1.35.275-.163.036-.227-.026-.255-.177a12.927,12.927,0,0,1-.26-1.792c-.006-.122-.075-.238-.029-.388" transform="translate(-62.2 -347.928)" fill="#6f88da"/>
    <path id="Trazado_735860" data-name="Trazado 735860" d="M327.153,371.067a9.1,9.1,0,0,1-.175-2.387c0-.534,0-1.068,0-1.6a1.5,1.5,0,0,1,.065-.5.553.553,0,0,0-.029-.447c-.047-.087-.057-.187.018-.242.1-.073.091.07.142.1a.287.287,0,0,0,.148.024.316.316,0,0,1,.05.185q0,2.429-.007,4.859l-.212,0" transform="translate(-269.438 -301.491)" fill="#e74e6d"/>
    <path id="Trazado_735861" data-name="Trazado 735861" d="M262.379,137.447c-.122-.135-.031-.292-.049-.437a10.86,10.86,0,0,1,.019-1.228c-.027-3.285-.017-6.569-.012-9.854,0-.162-.021-.344.131-.469.005,1.162.014,2.324.015,3.486q0,3.475,0,6.951c0,.487-.039.974-.06,1.461,0,.036,0,.074-.043.091" transform="translate(-216.154 -103.381)" fill="#f6c19e"/>
    <path id="Trazado_735862" data-name="Trazado 735862" d="M261.073,346.529c-.2-.09-.227,0-.227.184q.008,2.5,0,5c0,.08.067.228-.07.232-.1,0-.123-.144-.144-.242a.754.754,0,0,1,0-.153c0-1.039-.022-2.078.01-3.116a6.581,6.581,0,0,1,.027-1.324c.026-.113-.07-.273-.021-.36a1.456,1.456,0,0,0,.178-.635c.013-.166.176-.107.285-.118l0,.523-.032.006" transform="translate(-214.757 -285.114)" fill="#e74e6d"/>
    <path id="Trazado_735863" data-name="Trazado 735863" d="M263.155,356.85q0-2.683,0-5.367a.468.468,0,0,1,.026-.257c.006.058.016.116.016.173q0,2.663,0,5.326c0,.043-.008.087-.012.13a.113.113,0,0,1-.035-.005" transform="translate(-216.846 -289.422)" fill="#7f2e3c"/>
    <path id="Trazado_735864" data-name="Trazado 735864" d="M261.719,383.186a.114.114,0,0,0,.035.005c.072.152-.033.3.015.473a.6.6,0,0,1-.358-.2c.068-.131.122-.277.308-.274" transform="translate(-215.411 -315.757)" fill="#e74e6d"/>
    <path id="Trazado_735865" data-name="Trazado 735865" d="M195.764,111.122c-.035.007-.083,0-.1.022-.155.166-.254.149-.3-.083-.012-.065-.064-.069-.116-.073-.109-.007-.1-.084-.092-.158.2.094.445.109.607.291" transform="translate(-160.813 -91.328)" fill="#f6c19e"/>
    <path id="Trazado_735866" data-name="Trazado 735866" d="M212.685,116.621c-.043.113-.1.219-.244.186-.16-.037-.1-.178-.114-.284l.359.1" transform="translate(-174.962 -96.018)" fill="#f6c19e"/>
    <path id="Trazado_735867" data-name="Trazado 735867" d="M251.207,292.681c-.116.1-.274.087-.408.114-.115.023-.056-.131-.073-.207a1.4,1.4,0,0,1,.481.093" transform="translate(-206.606 -241.102)" fill="#e74e6d"/>
    <path id="Trazado_735868" data-name="Trazado 735868" d="M251.959,510.047a3.382,3.382,0,0,1-.975-.056h.975v.056" transform="translate(-206.819 -420.249)" fill="#211c19"/>
    <path id="Trazado_735869" data-name="Trazado 735869" d="M209,115.638a.335.335,0,0,0-.072.047.22.22,0,0,1-.251.079c-.118-.045-.075-.156-.084-.245a1.6,1.6,0,0,1,.407.119" transform="translate(-171.885 -95.191)" fill="#f6c19e"/>
    <path id="Trazado_735870" data-name="Trazado 735870" d="M217.216,117.835c-.047.224-.227.058-.339.1-.074.029-.039-.123-.056-.194a.888.888,0,0,1,.395.092" transform="translate(-178.667 -97.024)" fill="#f6c19e"/>
    <path id="Trazado_735871" data-name="Trazado 735871" d="M312.412,321.666a.878.878,0,0,0-.106.013c-.148.036-.228.008-.177-.169a.916.916,0,0,0,.014-.191,1.4,1.4,0,0,1,.269.348" transform="translate(-257.191 -264.776)" fill="#e74e6d"/>
    <path id="Trazado_735872" data-name="Trazado 735872" d="M138.269,510l-.018.076a4.134,4.134,0,0,1-.862-.076Z" transform="translate(-113.212 -420.253)" fill="#211c19"/>
    <path id="Trazado_735873" data-name="Trazado 735873" d="M297.523,307.628c-.318,0-.419-.075-.436-.311a2.14,2.14,0,0,1,.436.311" transform="translate(-244.809 -253.239)" fill="#e74e6d"/>
    <path id="Trazado_735874" data-name="Trazado 735874" d="M199.82,112.673a.576.576,0,0,1-.249.054c-.162.01-.226-.062-.209-.218l.458.164" transform="translate(-164.278 -92.711)" fill="#f6c19e"/>
    <path id="Trazado_735875" data-name="Trazado 735875" d="M223.392,119a.184.184,0,0,1-.215.162c-.116-.006-.148-.095-.136-.2.123-.042.232.046.351.039" transform="translate(-183.791 -98.017)" fill="#f6c19e"/>
    <path id="Trazado_735876" data-name="Trazado 735876" d="M271.866,418.845c-.216.107-.236-.128-.345-.2-.068-.047-.029-.1.044-.121a1.1,1.1,0,0,1,.3.325" transform="translate(-223.713 -344.874)" fill="#f6c19e"/>
    <path id="Trazado_735877" data-name="Trazado 735877" d="M326.328,351.057c-.115.014-.2-.026-.227-.144s.059-.148.152-.163a1.123,1.123,0,0,1,.074.308" transform="translate(-268.715 -289.028)" fill="#e74e6d"/>
    <path id="Trazado_735878" data-name="Trazado 735878" d="M264,294.483a.793.793,0,0,1-.051.119.155.155,0,0,1-.148.077c-.083-.01-.054-.087-.067-.14a.811.811,0,0,0-.039-.1l.3.045" transform="translate(-217.292 -242.626)" fill="#e74e6d"/>
    <path id="Trazado_735879" data-name="Trazado 735879" d="M284.718,300.32c-.258.127-.3.109-.351-.166a1.121,1.121,0,0,1,.351.166" transform="translate(-234.328 -247.337)" fill="#e74e6d"/>
    <path id="Trazado_735880" data-name="Trazado 735880" d="M289.623,302.765c-.011.059-.026.1-.1.045s-.263-.025-.213-.217a.677.677,0,0,1,.308.172" transform="translate(-238.397 -249.346)" fill="#e74e6d"/>
    <path id="Trazado_735881" data-name="Trazado 735881" d="M202.789,327.237c-.008.078.057.188-.066.221s-.087-.088-.123-.141a.193.193,0,0,0-.031-.03c.065-.053.146-.039.22-.05" transform="translate(-166.923 -269.654)" fill="#e74e6d"/>
    <path id="Trazado_735882" data-name="Trazado 735882" d="M202.612,362.222c.018-.072-.046-.2.093-.192s.064.131.082.2l-.176-.012" transform="translate(-166.959 -298.324)" fill="#e74e6d"/>
    <path id="Trazado_735883" data-name="Trazado 735883" d="M274.117,296.5c-.009.081-.045.143-.136.12s-.081-.119-.084-.2a.4.4,0,0,1,.219.076" transform="translate(-225.701 -244.266)" fill="#e74e6d"/>
    <path id="Trazado_735884" data-name="Trazado 735884" d="M294.322,305.509c-.147.031-.314.09-.267-.175a.622.622,0,0,1,.267.175" transform="translate(-242.304 -251.605)" fill="#e74e6d"/>
    <path id="Trazado_735885" data-name="Trazado 735885" d="M270.188,295.656c-.011.087-.055.174-.143.155-.126-.027-.026-.129-.033-.2.061.005.13-.022.176.042" transform="translate(-222.473 -243.594)" fill="#e74e6d"/>
    <path id="Trazado_735886" data-name="Trazado 735886" d="M205.816,114.625c-.01.089-.061.139-.147.119-.116-.027-.056-.131-.072-.2l.219.083" transform="translate(-169.417 -94.386)" fill="#f6c19e"/>
    <path id="Trazado_735887" data-name="Trazado 735887" d="M211.76,324.367a.334.334,0,0,1,0,.065c-.011.058.036.156-.052.163s-.117-.073-.123-.153a.347.347,0,0,1,.176-.075" transform="translate(-174.352 -267.289)" fill="#e74e6d"/>
    <path id="Trazado_735888" data-name="Trazado 735888" d="M284.353,336.431l.02.008a.141.141,0,0,1,.1.168.058.058,0,0,1-.059.051c-.094-.006-.106-.083-.122-.154l.06-.073" transform="translate(-234.267 -277.23)" fill="#e74e6d"/>
    <path id="Trazado_735889" data-name="Trazado 735889" d="M274.121,421.3c-.149-.006-.3-.008-.164-.225a.608.608,0,0,1,.164.225" transform="translate(-225.704 -346.979)" fill="#f6c19e"/>
    <path id="Trazado_735890" data-name="Trazado 735890" d="M238,236.7c-.017-.206.123-.211.268-.208a.53.53,0,0,1-.268.208" transform="translate(-196.119 -194.875)" fill="#f6c19e"/>
    <path id="Trazado_735891" data-name="Trazado 735891" d="M240.388,415.139c-.01.256-.011.257-.237.12a.6.6,0,0,1,.237-.12" transform="translate(-197.892 -342.088)" fill="#f6c19e"/>
    <path id="Trazado_735892" data-name="Trazado 735892" d="M261.5,122.752c-.059.012-.132-.018-.174.047-.026.041-.043.1-.105.07s-.034-.1-.039-.154a.591.591,0,0,1,.319.036" transform="translate(-215.223 -101.118)" fill="#f6c19e"/>
    <path id="Trazado_735893" data-name="Trazado 735893" d="M256.5,213.546c-.064-.14-.087-.26.127-.267a.6.6,0,0,1-.127.267" transform="translate(-211.327 -175.749)" fill="#f6c19e"/>
    <path id="Trazado_735894" data-name="Trazado 735894" d="M292.555,304.417c-.13.041-.258.078-.219-.142a.378.378,0,0,1,.219.142" transform="translate(-240.889 -250.732)" fill="#e74e6d"/>
    <path id="Trazado_735895" data-name="Trazado 735895" d="M250.971,377.805c.007-.059.035-.1.1-.074.094.035.076.122.079.2l-.175-.123" transform="translate(-206.808 -311.258)" fill="#e74e6d"/>
    <path id="Trazado_735896" data-name="Trazado 735896" d="M208.6,475.492c0-.064,0-.138.075-.154s.091.047.1.106a.314.314,0,0,1-.175.048" transform="translate(-171.89 -391.692)" fill="#f6c19e"/>
    <path id="Trazado_735897" data-name="Trazado 735897" d="M255.454,380.727c.162-.1.214-.022.217.134l-.217-.134" transform="translate(-210.502 -313.695)" fill="#e74e6d"/>
    <path id="Trazado_735898" data-name="Trazado 735898" d="M164.516,256.94c.122.089.124.176,0,.263q0-.132,0-.263" transform="translate(-135.565 -211.727)" fill="#f6c19e"/>
    <path id="Trazado_735899" data-name="Trazado 735899" d="M224.412,318.3a.358.358,0,0,0,.051.066c.043.036.11.072.033.126s-.069-.032-.092-.069a.487.487,0,0,0-.071-.074l.08-.048" transform="translate(-184.857 -262.288)" fill="#e74e6d"/>
    <path id="Trazado_735900" data-name="Trazado 735900" d="M242.494,465.512c0-.064,0-.138.075-.154s.091.047.1.106a.322.322,0,0,1-.175.048" transform="translate(-199.823 -383.468)" fill="#f6c19e"/>
    <path id="Trazado_735901" data-name="Trazado 735901" d="M272.918,324.03a.137.137,0,0,1,.087-.174c.066-.026.112-.02.126.06-.1-.019-.149.063-.213.114" transform="translate(-224.889 -266.857)" fill="#e74e6d"/>
    <path id="Trazado_735902" data-name="Trazado 735902" d="M262.875,413.279c-.025.055-.06.107-.126.088s-.047-.091-.046-.145l.172.057" transform="translate(-216.471 -340.508)" fill="#f6c19e"/>
    <path id="Trazado_735903" data-name="Trazado 735903" d="M302.475,311.438c-.14.058-.195.01-.173-.136a.285.285,0,0,1,.173.136" transform="translate(-249.103 -256.523)" fill="#e74e6d"/>
    <path id="Trazado_735904" data-name="Trazado 735904" d="M287.525,301.677c-.124.1-.2.1-.177-.089a.284.284,0,0,1,.177.089" transform="translate(-236.782 -248.519)" fill="#e74e6d"/>
    <path id="Trazado_735905" data-name="Trazado 735905" d="M225.545,470.646c0-.055,0-.116.075-.125a.08.08,0,0,1,.1.077.314.314,0,0,1-.175.048" transform="translate(-185.856 -387.724)" fill="#f6c19e"/>
    <path id="Trazado_735906" data-name="Trazado 735906" d="M256.425,412.149c-.082.039-.179.172-.223-.035.076,0,.159-.042.223.035" transform="translate(-211.119 -339.587)" fill="#f6c19e"/>
    <path id="Trazado_735907" data-name="Trazado 735907" d="M232.244,120.229c-.07.137-.143.133-.219.006Z" transform="translate(-191.196 -99.073)" fill="#f6c19e"/>
    <path id="Trazado_735908" data-name="Trazado 735908" d="M324.666,344.186c-.064,0-.117-.022-.128-.093s.032-.074.079-.081a.254.254,0,0,1,.05.174" transform="translate(-267.428 -283.477)" fill="#e74e6d"/>
    <path id="Trazado_735909" data-name="Trazado 735909" d="M197.123,348.5c.127.055.1.135.034.22-.077-.063-.031-.146-.034-.22" transform="translate(-162.427 -287.178)" fill="#e74e6d"/>
    <path id="Trazado_735910" data-name="Trazado 735910" d="M247.749,376.439c.086.016.218-.05.216.122a.529.529,0,0,1-.216-.122" transform="translate(-204.153 -310.198)" fill="#e74e6d"/>
    <path id="Trazado_735911" data-name="Trazado 735911" d="M163.975,249.47c.142.005.147.015.1.171l-.1-.171" transform="translate(-135.121 -205.571)" fill="#f6c19e"/>
    <path id="Trazado_735912" data-name="Trazado 735912" d="M162.233,248.513c.109-.09.15-.023.176.077-.083.031-.117-.051-.176-.077" transform="translate(-133.685 -204.748)" fill="#f6c19e"/>
    <path id="Trazado_735913" data-name="Trazado 735913" d="M174.7,485.682c0-.051.018-.1.076-.11s.05.037.056.07a.148.148,0,0,1-.132.04" transform="translate(-143.957 -400.126)" fill="#f6c19e"/>
    <path id="Trazado_735914" data-name="Trazado 735914" d="M203.244,113.815c-.007.043-.023.083-.076.072s-.051-.07-.055-.116l.132.043" transform="translate(-167.371 -93.752)" fill="#f6c19e"/>
    <path id="Trazado_735915" data-name="Trazado 735915" d="M90.147,280.151c-.054.086-.109.085-.164,0a.135.135,0,0,1,.164,0" transform="translate(-74.149 -230.831)" fill="#211c19"/>
    <path id="Trazado_735916" data-name="Trazado 735916" d="M239.588,120.769c-.007.039.01.111-.04.105-.08-.008-.036-.09-.049-.14.037-.006.072-.011.089.035" transform="translate(-197.355 -99.486)" fill="#f6c19e"/>
    <path id="Trazado_735917" data-name="Trazado 735917" d="M248.675,226.478c-.039-.009-.088-.009-.083-.067a.068.068,0,0,1,.038-.045c.052-.022.072.016.089.056l-.043.056" transform="translate(-204.848 -186.528)" fill="#f6c19e"/>
    <path id="Trazado_735918" data-name="Trazado 735918" d="M158,490.618c0-.042-.008-.094.046-.111s.077.021.086.069l-.132.042" transform="translate(-130.195 -404.19)" fill="#f6c19e"/>
    <path id="Trazado_735919" data-name="Trazado 735919" d="M257.62,293.637c-.066.111-.125.107-.176-.011l.176.011" transform="translate(-212.142 -241.957)" fill="#e74e6d"/>
    <path id="Trazado_735920" data-name="Trazado 735920" d="M305.844,314.584c-.052-.01-.123.03-.151-.044-.013-.033.028-.045.053-.059l.1.1" transform="translate(-251.898 -259.142)" fill="#e74e6d"/>
    <path id="Trazado_735921" data-name="Trazado 735921" d="M244.25,374.7c.09.005.18.01.217.114l-.217-.114" transform="translate(-201.27 -308.761)" fill="#e74e6d"/>
    <path id="Trazado_735922" data-name="Trazado 735922" d="M249.67,292.2c-.046.054-.11.03-.167.039.043-.069.088-.127.167-.039" transform="translate(-205.599 -240.746)" fill="#e74e6d"/>
    <path id="Trazado_735923" data-name="Trazado 735923" d="M213.579,250.082c-.066-.044-.064-.089,0-.134.059.044.061.089,0,.134" transform="translate(-175.956 -205.965)" fill="#211c19"/>
    <path id="Trazado_735924" data-name="Trazado 735924" d="M263.182,348.985l.032-.006a.6.6,0,0,1-.011.272c-.048-.085-.014-.177-.021-.266" transform="translate(-216.866 -287.57)" fill="#7f2e3c"/>
    <path id="Trazado_735925" data-name="Trazado 735925" d="M259.618,293.909c-.056-.022-.144.106-.176-.036.062-.005.127-.025.176.036" transform="translate(-213.789 -242.155)" fill="#e74e6d"/>
    <path id="Trazado_735926" data-name="Trazado 735926" d="M327.883,356.285c-.154-.044,0-.138-.034-.2.056.06.035.133.034.2" transform="translate(-270.127 -293.423)" fill="#e74e6d"/>
    <path id="Trazado_735927" data-name="Trazado 735927" d="M278.974,432.956c-.093-.023-.107-.066-.035-.133.062.031.038.085.035.133" transform="translate(-229.817 -356.66)" fill="#f6c19e"/>
    <path id="Trazado_735928" data-name="Trazado 735928" d="M156.5,246.517c.076-.073.116-.048.13.047a.15.15,0,0,1-.13-.047" transform="translate(-128.962 -203.103)" fill="#f6c19e"/>
    <path id="Trazado_735929" data-name="Trazado 735929" d="M271.9,325.425c-.006-.084.023-.137.118-.129a.289.289,0,0,1-.118.129" transform="translate(-224.051 -268.053)" fill="#e74e6d"/>
    <path id="Trazado_735930" data-name="Trazado 735930" d="M146.005,288.383c.04,0,.09-.013.113.032s-.016.048-.04.063l-.073-.095" transform="translate(-120.313 -237.636)" fill="#f6c19e"/>
    <path id="Trazado_735931" data-name="Trazado 735931" d="M263.192,123.114c-.007-.047-.013-.094-.02-.141.047.041.174.071.02.141" transform="translate(-216.862 -101.334)" fill="#634f3f"/>
    <path id="Trazado_735932" data-name="Trazado 735932" d="M82.014,339.765c.013.077.037.156-.03.223a.378.378,0,0,1,.03-.223" transform="translate(-67.555 -279.977)" fill="#363838"/>
    <path id="Trazado_735933" data-name="Trazado 735933" d="M120.324,212.781a.078.078,0,0,1,.079.091c-.033-.024-.137.013-.079-.091" transform="translate(-99.137 -175.338)" fill="#f6c19e"/>
    <path id="Trazado_735934" data-name="Trazado 735934" d="M122.134,216.523c.081.008.078.069.079.127-.059-.022-.1-.055-.079-.127" transform="translate(-100.638 -178.422)" fill="#f6c19e"/>
    <path id="Trazado_735935" data-name="Trazado 735935" d="M327.955,395.382l.212,0c-.059.093-.142.045-.218.036a.1.1,0,0,1,.006-.034" transform="translate(-270.241 -325.806)" fill="#7f2e3c"/>
    <path id="Trazado_735936" data-name="Trazado 735936" d="M279.615,394.142c.05.065.027.144.04.216-.086-.058-.046-.14-.04-.216" transform="translate(-230.4 -324.786)" fill="#7f2e3c"/>
    <path id="Trazado_735937" data-name="Trazado 735937" d="M121.079,214.531a.079.079,0,0,1,.084.089c-.048-.011-.12,0-.084-.089" transform="translate(-99.765 -176.78)" fill="#f6c19e"/>
    <path id="Trazado_735938" data-name="Trazado 735938" d="M192.729,329.106l-.047.135c-.052-.069-.065-.124.047-.135" transform="translate(-158.744 -271.194)" fill="#e74e6d"/>
    <path id="Trazado_735939" data-name="Trazado 735939" d="M249.183,292.647c0,.051.007.11-.065.127.011-.048.008-.1.065-.127" transform="translate(-205.281 -241.151)" fill="#e74e6d"/>
    <path id="Trazado_735940" data-name="Trazado 735940" d="M237.5,467.565a.092.092,0,0,1,.094-.045c-.026.026-.018.123-.094.045" transform="translate(-195.709 -385.251)" fill="#f6c19e"/>
    <path id="Trazado_735941" data-name="Trazado 735941" d="M97.641,181.075l.161-.025c-.041.092-.1.06-.161.025" transform="translate(-80.459 -149.191)" fill="#737575"/>
    <path id="Trazado_735942" data-name="Trazado 735942" d="M276.313,424.427c-.056-.007-.118-.01-.048-.086a.1.1,0,0,1,.048.086" transform="translate(-227.626 -349.671)" fill="#f6c19e"/>
    <path id="Trazado_735943" data-name="Trazado 735943" d="M246.225,375.555c.062-.07.078-.021.091.035-.028-.017-.076.015-.091-.035" transform="translate(-202.897 -309.441)" fill="#e74e6d"/>
    <path id="Trazado_735944" data-name="Trazado 735944" d="M.04,338.88c-.049-.024-.057-.049,0-.078.014.009.036.016.04.028a.036.036,0,0,1-.036.05" transform="translate(0 -279.184)" fill="#f6c19e"/>
    <path id="Trazado_735945" data-name="Trazado 735945" d="M246.751,375.938c.055,0,.116-.006.128.072-.047-.017-.1-.025-.128-.072" transform="translate(-203.331 -309.785)" fill="#e74e6d"/>
    <path id="Trazado_735946" data-name="Trazado 735946" d="M309.362,317.938a.084.084,0,0,1-.08-.084l.08.084" transform="translate(-254.858 -261.922)" fill="#e74e6d"/>
    <path id="Trazado_735947" data-name="Trazado 735947" d="M199.408,328.057c-.042.051-.1.037-.151.034a.178.178,0,0,1,.151-.034" transform="translate(-164.194 -270.328)" fill="#e74e6d"/>
    <path id="Trazado_735948" data-name="Trazado 735948" d="M197.372,361.962l.041.131c-.055-.031-.056-.078-.041-.131" transform="translate(-162.634 -298.268)" fill="#7f2e3c"/>
    <path id="Trazado_735949" data-name="Trazado 735949" d="M241.128,303.832a.077.077,0,0,1-.077.09c0-.05.04-.069.077-.09" transform="translate(-198.634 -250.367)" fill="#e74e6d"/>
    <path id="Trazado_735950" data-name="Trazado 735950" d="M234.071,310.821c0,.062-.035.088-.093.09l.093-.09" transform="translate(-192.805 -256.126)" fill="#e74e6d"/>
    <path id="Trazado_735951" data-name="Trazado 735951" d="M252.209,378.859c.062-.055.066.012.089.042-.03-.013-.075.005-.089-.042" transform="translate(-207.828 -312.175)" fill="#e74e6d"/>
    <path id="Trazado_735952" data-name="Trazado 735952" d="M256.844,293.455c-.044,0-.091.006-.126-.033a.128.128,0,0,1,.126.033" transform="translate(-211.544 -241.787)" fill="#e74e6d"/>
    <path id="Trazado_735953" data-name="Trazado 735953" d="M327.8,354.7a.116.116,0,0,1-.03-.114.113.113,0,0,1,.03.114" transform="translate(-270.087 -292.188)" fill="#e74e6d"/>
    <path id="Trazado_735954" data-name="Trazado 735954" d="M264.183,340.872l.031-.087-.031.087" transform="translate(-217.695 -280.818)" fill="#e74e6d"/>
    <path id="Trazado_735955" data-name="Trazado 735955" d="M258.193,382.614c.046-.042.037.007.045.027-.03.016-.038,0-.045-.027" transform="translate(-212.759 -315.272)" fill="#e74e6d"/>
    <path id="Trazado_735956" data-name="Trazado 735956" d="M254.7,380.368c.043-.044.037,0,.045.024-.028.016-.038,0-.045-.024" transform="translate(-209.882 -313.421)" fill="#e74e6d"/>
    <path id="Trazado_735957" data-name="Trazado 735957" d="M264.462,339.385a.107.107,0,0,1,.039-.118.13.13,0,0,1-.039.118" transform="translate(-217.923 -279.567)" fill="#e74e6d"/>
    <path id="Trazado_735958" data-name="Trazado 735958" d="M269.761,295.456l-.083-.032a.075.075,0,0,1,.083.032" transform="translate(-222.223 -243.437)" fill="#e74e6d"/>
    <path id="Trazado_735959" data-name="Trazado 735959" d="M252.181,412.2l-.11.023a.121.121,0,0,1,.11-.023" transform="translate(-207.715 -339.66)" fill="#f6c19e"/>
    <path id="Trazado_735960" data-name="Trazado 735960" d="M247.3,295.893l-.041.083.041-.083" transform="translate(-203.749 -243.825)" fill="#e74e6d"/>
    <path id="Trazado_735961" data-name="Trazado 735961" d="M193.963,333.033c.019.008.063-.009.038.04-.026,0-.048-.006-.038-.04" transform="translate(-159.83 -274.43)" fill="#e74e6d"/>
    <path id="Trazado_735962" data-name="Trazado 735962" d="M243.239,374.121c.052-.047.036.01.044.029-.031.014-.039,0-.044-.029" transform="translate(-200.437 -308.273)" fill="#e74e6d"/>
    <path id="Trazado_735963" data-name="Trazado 735963" d="M221.074,366.279c.032-.035.06-.029.085.008l-.085-.008" transform="translate(-182.172 -301.806)" fill="#e74e6d"/>
    <path id="Trazado_735964" data-name="Trazado 735964" d="M193.715,332.054l.03.08c-.041-.015-.033-.048-.03-.08" transform="translate(-159.625 -273.623)" fill="#e74e6d"/>
    <path id="Trazado_735965" data-name="Trazado 735965" d="M197.43,358.214a.057.057,0,0,1,0,.094c0-.031,0-.063,0-.094" transform="translate(-162.689 -295.18)" fill="#7f2e3c"/>
    <path id="Trazado_735966" data-name="Trazado 735966" d="M197.43,357.216a.057.057,0,0,1,0,.094v-.094" transform="translate(-162.689 -294.357)" fill="#7f2e3c"/>
    <path id="Trazado_735967" data-name="Trazado 735967" d="M281.47,298.938l-.081-.035a.076.076,0,0,1,.081.035" transform="translate(-231.874 -246.304)" fill="#e74e6d"/>
    <path id="Trazado_735968" data-name="Trazado 735968" d="M197.421,351.231a.057.057,0,0,1,0,.094c0-.031,0-.062,0-.094" transform="translate(-162.681 -289.426)" fill="#7f2e3c"/>
    <path id="Trazado_735969" data-name="Trazado 735969" d="M246.569,297.117c.035.057-.02.033-.038.042-.006-.031.012-.04.038-.042" transform="translate(-203.149 -244.834)" fill="#e74e6d"/>
    <path id="Trazado_735970" data-name="Trazado 735970" d="M197.9,328.347a.106.106,0,0,1-.1.028.106.106,0,0,1,.1-.028" transform="translate(-162.994 -270.566)" fill="#e74e6d"/>
    <path id="Trazado_735971" data-name="Trazado 735971" d="M197.426,352.227a.058.058,0,0,1,0,.094c0-.031,0-.063,0-.094" transform="translate(-162.685 -290.246)" fill="#7f2e3c"/>
    <path id="Trazado_735972" data-name="Trazado 735972" d="M197.43,356.218a.057.057,0,0,1,0,.094v-.094" transform="translate(-162.689 -293.535)" fill="#7f2e3c"/>
    <path id="Trazado_735973" data-name="Trazado 735973" d="M197.428,353.225a.057.057,0,0,1,0,.094v-.094" transform="translate(-162.687 -291.069)" fill="#7f2e3c"/>
    <path id="Trazado_735974" data-name="Trazado 735974" d="M197.43,355.22a.057.057,0,0,1,0,.094v-.094" transform="translate(-162.689 -292.713)" fill="#7f2e3c"/>
    <path id="Trazado_735975" data-name="Trazado 735975" d="M197.429,354.223a.057.057,0,0,1,0,.094v-.094" transform="translate(-162.688 -291.891)" fill="#7f2e3c"/>
    <path id="Trazado_735976" data-name="Trazado 735976" d="M279.7,369.184c.026.018.026.035,0,.053v-.053" transform="translate(-230.485 -304.219)" fill="#7f2e3c"/>
    <path id="Trazado_735977" data-name="Trazado 735977" d="M279.7,353.217c.026.018.026.035,0,.053v-.053" transform="translate(-230.484 -291.062)" fill="#7f2e3c"/>
    <path id="Trazado_735978" data-name="Trazado 735978" d="M279.7,355.213c.026.018.026.035,0,.053v-.053" transform="translate(-230.485 -292.707)" fill="#7f2e3c"/>
    <path id="Trazado_735979" data-name="Trazado 735979" d="M279.7,352.219c.026.018.026.035,0,.053,0-.018,0-.035,0-.053" transform="translate(-230.483 -290.24)" fill="#7f2e3c"/>
    <path id="Trazado_735980" data-name="Trazado 735980" d="M279.7,356.211c.026.018.026.035,0,.053,0-.018,0-.035,0-.053" transform="translate(-230.485 -293.529)" fill="#7f2e3c"/>
    <path id="Trazado_735981" data-name="Trazado 735981" d="M275.7,296.953l-.045-.032Z" transform="translate(-227.146 -244.672)" fill="#e74e6d"/>
    <path id="Trazado_735982" data-name="Trazado 735982" d="M279.7,351.222c.025.017.026.035,0,.053,0-.018,0-.035,0-.053" transform="translate(-230.48 -289.418)" fill="#7f2e3c"/>
    <path id="Trazado_735983" data-name="Trazado 735983" d="M279.694,350.225c.025.017.026.035,0,.052v-.052" transform="translate(-230.477 -288.597)" fill="#7f2e3c"/>
    <path id="Trazado_735984" data-name="Trazado 735984" d="M279.7,357.208c.026.018.026.036,0,.053v-.053" transform="translate(-230.486 -294.351)" fill="#7f2e3c"/>
    <path id="Trazado_735985" data-name="Trazado 735985" d="M197.407,350.237a.192.192,0,0,1,.013.034s-.008.01-.012.015l0-.049" transform="translate(-162.67 -288.607)" fill="#7f2e3c"/>
    <path id="Trazado_735986" data-name="Trazado 735986" d="M279.7,358.206c.026.018.026.036,0,.053v-.053" transform="translate(-230.486 -295.173)" fill="#7f2e3c"/>
    <path id="Trazado_735987" data-name="Trazado 735987" d="M279.706,359.2c.026.018.026.036,0,.053V359.2" transform="translate(-230.487 -295.996)" fill="#7f2e3c"/>
    <path id="Trazado_735988" data-name="Trazado 735988" d="M279.7,360.2q.038.027,0,.053c0-.018,0-.036,0-.053" transform="translate(-230.485 -296.818)" fill="#7f2e3c"/>
    <path id="Trazado_735989" data-name="Trazado 735989" d="M279.7,361.2c.026.018.026.036,0,.053V361.2" transform="translate(-230.485 -297.64)" fill="#7f2e3c"/>
    <path id="Trazado_735990" data-name="Trazado 735990" d="M326.79,349.979l-.025-.055.025.055" transform="translate(-269.265 -288.349)" fill="#e74e6d"/>
    <path id="Trazado_735991" data-name="Trazado 735991" d="M247.05,296.377l-.039.042c0-.028.013-.04.039-.042" transform="translate(-203.544 -244.224)" fill="#e74e6d"/>
    <path id="Trazado_735992" data-name="Trazado 735992" d="M279.7,362.2c.026.018.026.035,0,.053V362.2" transform="translate(-230.485 -298.463)" fill="#7f2e3c"/>
    <path id="Trazado_735993" data-name="Trazado 735993" d="M328.772,362.253l-.032-.046c.021.008.041.017.032.046" transform="translate(-270.892 -298.47)" fill="#e74e6d"/>
    <path id="Trazado_735994" data-name="Trazado 735994" d="M279.7,363.2c.026.018.026.035,0,.053V363.2" transform="translate(-230.485 -299.285)" fill="#7f2e3c"/>
    <path id="Trazado_735995" data-name="Trazado 735995" d="M279.7,364.194c.026.018.026.035,0,.053v-.053" transform="translate(-230.485 -300.108)" fill="#7f2e3c"/>
    <path id="Trazado_735996" data-name="Trazado 735996" d="M279.7,365.192c.026.018.026.035,0,.053v-.053" transform="translate(-230.485 -300.93)" fill="#7f2e3c"/>
    <path id="Trazado_735997" data-name="Trazado 735997" d="M217.314,365.47l.044.035c-.029.006-.039-.011-.044-.035" transform="translate(-179.074 -301.159)" fill="#e74e6d"/>
    <path id="Trazado_735998" data-name="Trazado 735998" d="M218.555,365.721l.045.036c-.029.006-.04-.011-.045-.036" transform="translate(-180.096 -301.366)" fill="#e74e6d"/>
    <path id="Trazado_735999" data-name="Trazado 735999" d="M219.322,365.852c.02-.019.033-.011.042.012l-.042-.012" transform="translate(-180.728 -301.465)" fill="#e74e6d"/>
    <path id="Trazado_736000" data-name="Trazado 736000" d="M272.734,296.19l-.072-.026.072.026" transform="translate(-224.682 -244.049)" fill="#e74e6d"/>
    <path id="Trazado_736001" data-name="Trazado 736001" d="M219.562,365.968l.043.036c-.029.005-.04-.011-.043-.036" transform="translate(-180.926 -301.569)" fill="#e74e6d"/>
    <path id="Trazado_736002" data-name="Trazado 736002" d="M241.53,303.606l-.047.041.047-.041" transform="translate(-198.99 -250.181)" fill="#e74e6d"/>
    <path id="Trazado_736003" data-name="Trazado 736003" d="M279.7,366.19c.026.018.026.035,0,.053v-.053" transform="translate(-230.485 -301.752)" fill="#7f2e3c"/>
    <path id="Trazado_736004" data-name="Trazado 736004" d="M224.314,367.091c.024-.015.034,0,.04.02l-.04-.02" transform="translate(-184.842 -302.489)" fill="#e74e6d"/>
    <path id="Trazado_736005" data-name="Trazado 736005" d="M279.7,367.188c.026.018.026.035,0,.053v-.053" transform="translate(-230.485 -302.575)" fill="#7f2e3c"/>
    <path id="Trazado_736006" data-name="Trazado 736006" d="M279.7,368.186c.026.018.026.035,0,.053v-.053" transform="translate(-230.485 -303.397)" fill="#7f2e3c"/>
    <path id="Trazado_736007" data-name="Trazado 736007" d="M314.315,323.854l-.038-.044.038.044" transform="translate(-258.974 -266.83)" fill="#e74e6d"/>
    <path id="Trazado_736008" data-name="Trazado 736008" d="M279.7,370.182c.026.018.026.035,0,.053v-.053" transform="translate(-230.485 -305.042)" fill="#7f2e3c"/>
    <path id="Trazado_736009" data-name="Trazado 736009" d="M279.7,371.18c.026.018.026.035,0,.053v-.053" transform="translate(-230.485 -305.864)" fill="#7f2e3c"/>
    <path id="Trazado_736010" data-name="Trazado 736010" d="M237.52,371.7l.041.037c-.029.005-.04-.01-.041-.037" transform="translate(-195.724 -306.295)" fill="#e74e6d"/>
    <path id="Trazado_736011" data-name="Trazado 736011" d="M279.7,372.178c.026.018.026.035,0,.053v-.053" transform="translate(-230.485 -306.687)" fill="#7f2e3c"/>
    <path id="Trazado_736012" data-name="Trazado 736012" d="M279.7,373.176c.026.018.026.035,0,.053v-.053" transform="translate(-230.485 -307.509)" fill="#7f2e3c"/>
    <path id="Trazado_736013" data-name="Trazado 736013" d="M291.4,303.688l-.045-.033.045.033" transform="translate(-240.086 -250.222)" fill="#e74e6d"/>
    <path id="Trazado_736014" data-name="Trazado 736014" d="M279.7,374.174c.026.018.026.035,0,.053v-.053" transform="translate(-230.485 -308.331)" fill="#7f2e3c"/>
    <path id="Trazado_736015" data-name="Trazado 736015" d="M244,374.568c.02-.016.033-.007.042.013l-.042-.013" transform="translate(-201.068 -308.649)" fill="#e74e6d"/>
    <path id="Trazado_736016" data-name="Trazado 736016" d="M279.763,347.959c0,.018,0,.037,0,.056a.237.237,0,0,1-.009-.039c0-.005.008-.011.013-.017" transform="translate(-230.523 -286.729)" fill="#7f2e3c"/>
    <path id="Trazado_736017" data-name="Trazado 736017" d="M279.7,375.172c.026.018.026.035,0,.053v-.053" transform="translate(-230.485 -309.154)" fill="#7f2e3c"/>
    <path id="Trazado_736018" data-name="Trazado 736018" d="M245.759,375.443l.039.036c-.029,0-.039-.01-.039-.036" transform="translate(-202.513 -309.377)" fill="#e74e6d"/>
    <path id="Trazado_736019" data-name="Trazado 736019" d="M326.039,347.247l-.027-.052.027.052" transform="translate(-268.644 -286.1)" fill="#e74e6d"/>
    <path id="Trazado_736020" data-name="Trazado 736020" d="M173.66,307.581l.049.033c-.032.012-.04-.011-.049-.033" transform="translate(-143.101 -253.457)" fill="#f6c19e"/>
    <path id="Trazado_736021" data-name="Trazado 736021" d="M279.7,376.17c.026.018.026.035,0,.053v-.053" transform="translate(-230.485 -309.976)" fill="#7f2e3c"/>
    <path id="Trazado_736022" data-name="Trazado 736022" d="M247.543,295.621l-.04.043a.038.038,0,0,1,.04-.043" transform="translate(-203.95 -243.601)" fill="#e74e6d"/>
    <path id="Trazado_736023" data-name="Trazado 736023" d="M249.217,377.2l.043.033c-.03.01-.039-.008-.043-.033" transform="translate(-205.363 -310.822)" fill="#e74e6d"/>
    <path id="Trazado_736024" data-name="Trazado 736024" d="M279.7,377.168c.026.018.026.035,0,.053v-.053" transform="translate(-230.485 -310.799)" fill="#7f2e3c"/>
    <path id="Trazado_736025" data-name="Trazado 736025" d="M263.463,345.1l.017-.061-.017.061" transform="translate(-217.102 -284.322)" fill="#e74e6d"/>
    <path id="Trazado_736026" data-name="Trazado 736026" d="M279.7,378.166c.026.018.026.035,0,.053v-.053" transform="translate(-230.485 -311.621)" fill="#7f2e3c"/>
    <path id="Trazado_736027" data-name="Trazado 736027" d="M263.575,344.308a.166.166,0,0,1-.011-.031s.009-.008.014-.011a.042.042,0,0,1,0,.042" transform="translate(-217.185 -283.686)" fill="#e74e6d"/>
    <path id="Trazado_736028" data-name="Trazado 736028" d="M268.48,295.265a.07.07,0,0,1-.037-.021l.037.021" transform="translate(-221.206 -243.291)" fill="#e74e6d"/>
    <path id="Trazado_736029" data-name="Trazado 736029" d="M279.7,379.164c.026.018.026.035,0,.053v-.053" transform="translate(-230.485 -312.443)" fill="#7f2e3c"/>
    <path id="Trazado_736030" data-name="Trazado 736030" d="M236.357,309.151l-.035.034.035-.034" transform="translate(-194.737 -254.75)" fill="#e74e6d"/>
    <path id="Trazado_736031" data-name="Trazado 736031" d="M279.7,380.162c.026.018.026.035,0,.053v-.053" transform="translate(-230.485 -313.266)" fill="#7f2e3c"/>
    <path id="Trazado_736032" data-name="Trazado 736032" d="M176.491,309.573l.033.028c-.032.016-.034,0-.033-.028" transform="translate(-145.434 -255.098)" fill="#f6c19e"/>
    <path id="Trazado_736033" data-name="Trazado 736033" d="M279.7,381.16c.026.018.026.035,0,.053v-.053" transform="translate(-230.485 -314.088)" fill="#7f2e3c"/>
    <path id="Trazado_736034" data-name="Trazado 736034" d="M256.683,381.7l.045.029c-.029.013-.038-.007-.045-.029" transform="translate(-211.515 -314.529)" fill="#e74e6d"/>
    <path id="Trazado_736035" data-name="Trazado 736035" d="M279.7,382.158c.026.018.026.035,0,.053v-.053" transform="translate(-230.485 -314.91)" fill="#7f2e3c"/>
    <path id="Trazado_736036" data-name="Trazado 736036" d="M324.8,343.475l-.028-.06.028.06" transform="translate(-267.626 -282.985)" fill="#e74e6d"/>
    <path id="Trazado_736037" data-name="Trazado 736037" d="M234.553,310.624l-.045.034c.005-.024.016-.04.045-.034" transform="translate(-193.242 -255.963)" fill="#e74e6d"/>
    <path id="Trazado_736038" data-name="Trazado 736038" d="M146.125,287.223l-.051.005.011-.032.04.027" transform="translate(-120.37 -236.659)" fill="#f6c19e"/>
    <path id="Trazado_736039" data-name="Trazado 736039" d="M279.7,383.156c.026.018.026.035,0,.053v-.053" transform="translate(-230.485 -315.733)" fill="#7f2e3c"/>
    <path id="Trazado_736040" data-name="Trazado 736040" d="M279.7,384.153c.026.018.026.035,0,.053v-.053" transform="translate(-230.485 -316.554)" fill="#7f2e3c"/>
    <path id="Trazado_736041" data-name="Trazado 736041" d="M279.7,385.151c.026.018.026.035,0,.053Z" transform="translate(-230.485 -317.377)" fill="#7f2e3c"/>
    <path id="Trazado_736042" data-name="Trazado 736042" d="M279.7,386.149c.026.018.026.035,0,.053v-.053" transform="translate(-230.485 -318.199)" fill="#7f2e3c"/>
    <path id="Trazado_736043" data-name="Trazado 736043" d="M213.94,260.449c-.022-.018-.029-.036,0-.057l0,.057" transform="translate(-176.277 -214.571)" fill="#634f3f"/>
    <path id="Trazado_736044" data-name="Trazado 736044" d="M279.7,387.147c.026.018.026.035,0,.053v-.053" transform="translate(-230.485 -319.022)" fill="#7f2e3c"/>
    <path id="Trazado_736045" data-name="Trazado 736045" d="M279.7,388.145c.026.018.026.035,0,.053Z" transform="translate(-230.485 -319.844)" fill="#7f2e3c"/>
    <path id="Trazado_736046" data-name="Trazado 736046" d="M279.7,389.143c.026.018.026.035,0,.053,0-.018,0-.035,0-.053" transform="translate(-230.485 -320.666)" fill="#7f2e3c"/>
    <path id="Trazado_736047" data-name="Trazado 736047" d="M279.7,390.141q.038.027,0,.053v-.053" transform="translate(-230.486 -321.489)" fill="#7f2e3c"/>
    <path id="Trazado_736048" data-name="Trazado 736048" d="M279.7,391.139c.026.018.025.036,0,.053,0-.018,0-.035,0-.053" transform="translate(-230.483 -322.311)" fill="#7f2e3c"/>
    <path id="Trazado_736049" data-name="Trazado 736049" d="M279.7,392.138c.025.018.025.036,0,.053v-.053" transform="translate(-230.481 -323.134)" fill="#7f2e3c"/>
    <path id="Trazado_736050" data-name="Trazado 736050" d="M329.056,234.53l0-.045a.173.173,0,0,1,.009.032s-.008.008-.013.012" transform="translate(-271.153 -193.223)" fill="#211c19"/>
    <path id="Trazado_736051" data-name="Trazado 736051" d="M82.081,339.015v.047a.228.228,0,0,1-.016-.034s.01-.008.015-.013" transform="translate(-67.625 -279.359)" fill="#363838"/>
    <path id="Trazado_736052" data-name="Trazado 736052" d="M284.859,336l-.053.053.053-.053" transform="translate(-234.689 -276.874)" fill="#e74e6d"/>
    <path id="Trazado_736053" data-name="Trazado 736053" d="M49.212,228.962c0,.018,0,.036,0,.055-.022-.017-.024-.035,0-.055" transform="translate(-40.54 -188.672)" fill="#62391b"/>
    <path id="Trazado_736054" data-name="Trazado 736054" d="M127.9,225.513a.062.062,0,0,1,.028.032c-.027.005-.039,0-.028-.032" transform="translate(-105.392 -185.83)" fill="#f6c19e"/>
    <path id="Trazado_736055" data-name="Trazado 736055" d="M329.083,413.9c-.026-.019-.02-.037,0-.054l0,.054" transform="translate(-271.161 -341.021)" fill="#7a6153"/>
    <path id="Trazado_736056" data-name="Trazado 736056" d="M194.415,328.852l-.046.03c.009-.02.017-.041.046-.03" transform="translate(-160.166 -270.983)" fill="#e74e6d"/>
    <path id="Trazado_736057" data-name="Trazado 736057" d="M305.6,314.123l-.045-.043.045.043" transform="translate(-251.786 -258.812)" fill="#e74e6d"/>
    <path id="Trazado_736058" data-name="Trazado 736058" d="M308.334,316.872l-.04-.043.04.043" transform="translate(-254.044 -261.077)" fill="#e74e6d"/>
    <path id="Trazado_736059" data-name="Trazado 736059" d="M308.583,317.132l-.041-.04.041.04" transform="translate(-254.249 -261.294)" fill="#e74e6d"/>
    <path id="Trazado_736060" data-name="Trazado 736060" d="M203.857,327.128l-.051.023.051-.023" transform="translate(-167.943 -269.564)" fill="#e74e6d"/>
    <path id="Trazado_736061" data-name="Trazado 736061" d="M296.113,433.812a.231.231,0,0,1,.015.035s-.007.01-.011.016c0-.017,0-.034,0-.051" transform="translate(-244.007 -357.475)" fill="#7a6153"/>
    <path id="Trazado_736062" data-name="Trazado 736062" d="M279.512,435.127a.17.17,0,0,1-.015-.029s.008-.008.012-.013a.036.036,0,0,1,0,.042" transform="translate(-230.315 -358.524)" fill="#f6c19e"/>
    <path id="Trazado_736063" data-name="Trazado 736063" d="M316.337,326.775l-.04-.058.04.058" transform="translate(-260.639 -269.225)" fill="#e74e6d"/>
    <path id="Trazado_736064" data-name="Trazado 736064" d="M224.822,318.127l-.046.031.046-.031" transform="translate(-185.223 -262.147)" fill="#e74e6d"/>
    <path id="Trazado_736065" data-name="Trazado 736065" d="M164.733,489.037l.072-.027-.072.027" transform="translate(-135.745 -402.96)" fill="#f6c19e"/>
    <path id="Trazado_736066" data-name="Trazado 736066" d="M314.545,324.129l-.029-.034.029.034" transform="translate(-259.171 -267.065)" fill="#e74e6d"/>
    <path id="Trazado_736067" data-name="Trazado 736067" d="M114.946,130.449l0,.045a.222.222,0,0,1-.018-.031s.009-.009.014-.013" transform="translate(-94.708 -107.494)" fill="#211c19"/>
    <path id="Trazado_736068" data-name="Trazado 736068" d="M114.953,129.7l-.009.043a.18.18,0,0,1-.006-.033s.01-.007.015-.01" transform="translate(-94.713 -106.874)" fill="#211c19"/>
    <path id="Trazado_736069" data-name="Trazado 736069" d="M124.154,126.5c-.01.019-.023.026-.041.009l.041-.009" transform="translate(-102.273 -104.236)" fill="#f6c19e"/>
    <path id="Trazado_736070" data-name="Trazado 736070" d="M127.145,125.5c-.01.019-.023.026-.041.01l.041-.01" transform="translate(-104.738 -103.415)" fill="#f6c19e"/>
    <path id="Trazado_736071" data-name="Trazado 736071" d="M251.071,121.922a.085.085,0,0,1-.041-.006l.041.006" transform="translate(-206.857 -100.463)" fill="#f6c19e"/>
    <path id="Trazado_736072" data-name="Trazado 736072" d="M235.365,120.407l-.049-.007.049.007" transform="translate(-193.908 -99.213)" fill="#f6c19e"/>
    <path id="Trazado_736073" data-name="Trazado 736073" d="M114.963,111.713l.028.042c-.028,0-.039-.014-.028-.042" transform="translate(-94.729 -92.055)" fill="#62391b"/>
    <path id="Trazado_736074" data-name="Trazado 736074" d="M232.556,16.49c-.018.02-.035.018-.051,0l.051,0" transform="translate(-191.592 -13.587)" fill="#62391b"/>
    <path id="Trazado_736075" data-name="Trazado 736075" d="M196.685,328.579c-.011.019-.025.022-.041,0a.038.038,0,0,1,.041,0" transform="translate(-162.041 -270.757)" fill="#e74e6d"/>
    <path id="Trazado_736076" data-name="Trazado 736076" d="M279.7,354.215c.026.018.026.035,0,.053v-.053" transform="translate(-230.485 -291.885)" fill="#7f2e3c"/>
    <path id="Trazado_736077" data-name="Trazado 736077" d="M159.913,202.565a2.936,2.936,0,0,0,1.582,1.658.28.28,0,0,0,.178.082,3.066,3.066,0,0,0,2.214.079,3.165,3.165,0,0,0,1.914-1.678c.095-.191.2-.2.394-.1.413.218.832.425,1.25.633.335.167.671.332,1.01.491.124.058.038.125.012.174a9.655,9.655,0,0,1-.686,1.11c-.049.07-.093.143-.139.215a.394.394,0,0,0-.2.212,4.042,4.042,0,0,1-.9.8c-.03-.011-.039.009-.047.032a5.077,5.077,0,0,1-.566.4l-.226.113-.038.021-.064.034-.014,0-.009.012a.744.744,0,0,0-.265.123,7.8,7.8,0,0,1-1.521.423l-.279.039a.1.1,0,0,0-.1.021l-1.123,0c-.064-.073-.145-.04-.221-.036l-.52-.112-.174-.049-.394-.113a.47.47,0,0,0-.227-.082,1.092,1.092,0,0,0-.346-.137l-.528-.268-.3-.19-.359-.246-.055-.04-.031-.027-.294-.241-.193-.184-.509-.561a.262.262,0,0,0-.1-.128l-.092-.128-.156-.227-.158-.257a.914.914,0,0,0-.16-.279l-.056-.116c-.015-.109-.146-.175-.111-.3a6.68,6.68,0,0,1,.987-.52c.411-.214.845-.381,1.236-.634a.673.673,0,0,1,.307-.091l.081.073" transform="translate(-129.617 -166.86)" fill="#12263f"/>
    <path id="Trazado_736078" data-name="Trazado 736078" d="M172.1,155.788a.463.463,0,0,0-.206-.1.241.241,0,0,0-.145-.076,3.623,3.623,0,0,0-.566-.281l-.087-.046-.253-.125a2.14,2.14,0,0,0-.453-.216c-.012-.039-.042-.046-.077-.045l-.055-.03a.154.154,0,0,1-.076-.224l.044-.088c.162-.365.342-.724.512-1.084s.352-.734.51-1.11c.192-.458.315-.938.471-1.407.108-.325.093-.671.2-.994a.755.755,0,0,0,0-.239.262.262,0,0,0,.047-.22l.007-.219c.074-.063.032-.146.036-.22.039-.233-.054-.475.049-.7l.043-.008,2.81,0,.039.019.012.168c0,.014,0,.028,0,.042a15.7,15.7,0,0,1-.493,3.346c-.127.456-.289.9-.436,1.353-.138.1-.13.175.025.243.066.029.13.065.194.1.293.179.614.3.921.45a.093.093,0,0,0,.087.045c.319.222.317.222.137.582-.311.624-.619,1.249-.93,1.873-.052.1-.117.2-.176.3l-.171-.067-1.171-.585a.243.243,0,0,0-.145-.076.463.463,0,0,0-.206-.1.241.241,0,0,0-.145-.076.462.462,0,0,0-.206-.1.24.24,0,0,0-.145-.076" transform="translate(-140.22 -122.247)" fill="#12263f"/>
    <path id="Trazado_736079" data-name="Trazado 736079" d="M213.989,132.748a1.451,1.451,0,0,1,2.062-.638,1.409,1.409,0,0,1,.69,1.358,1.46,1.46,0,0,1-1.134,1.3,1.492,1.492,0,0,1-1.662-.992,1.3,1.3,0,0,1-.015-.861.285.285,0,0,0,.059-.164" transform="translate(-176.231 -108.695)" fill="#12263f"/>
    <path id="Trazado_736080" data-name="Trazado 736080" d="M148.152,133.91l-.078-.224-.015-.085a1.43,1.43,0,0,1,.29-1.217,1.322,1.322,0,0,1,1.421-.471,1.366,1.366,0,0,1,1.087,1.045,1.448,1.448,0,0,1-.577,1.545,1.423,1.423,0,0,1-1.657-.028.99.99,0,0,1-.342-.347l-.129-.219" transform="translate(-121.972 -108.671)" fill="#12263f"/>
    <path id="Trazado_736081" data-name="Trazado 736081" d="M171.964,226.212l.528.269c-.1.112-.21.25-.276-.028-.012-.052-.059-.057-.1-.057-.124,0-.159-.074-.15-.183" transform="translate(-141.703 -186.406)" fill="#f6c19e"/>
    <path id="Trazado_736082" data-name="Trazado 736082" d="M168.211,223.731l.359.246c-.1.164-.193.151-.283-.005a.4.4,0,0,1-.076-.241" transform="translate(-138.61 -184.362)" fill="#f6c19e"/>
    <path id="Trazado_736083" data-name="Trazado 736083" d="M191.909,176.7c-.065-.033-.128-.068-.194-.1-.155-.067-.163-.147-.025-.243.116.086.24.166.219.34" transform="translate(-157.878 -145.323)" fill="#f6c19e"/>
    <path id="Trazado_736084" data-name="Trazado 736084" d="M156.666,209.567c-.036.127.1.193.111.3-.1,0-.216.011-.246-.11a.14.14,0,0,1,.135-.192" transform="translate(-128.981 -172.69)" fill="#f6c19e"/>
    <path id="Trazado_736085" data-name="Trazado 736085" d="M202.852,227.395a.745.745,0,0,1,.265-.123c-.011.069.1.158-.011.2a.181.181,0,0,1-.255-.08" transform="translate(-167.157 -187.279)" fill="#f6c19e"/>
    <path id="Trazado_736086" data-name="Trazado 736086" d="M164.555,220.928l.193.184c-.078.013-.138.165-.232.042-.058-.077-.085-.17.039-.226" transform="translate(-135.526 -182.052)" fill="#f6c19e"/>
    <path id="Trazado_736087" data-name="Trazado 736087" d="M171.464,185.818a2.147,2.147,0,0,1,.453.216.368.368,0,0,1-.453-.216" transform="translate(-141.292 -153.12)" fill="#f6c19e"/>
    <path id="Trazado_736088" data-name="Trazado 736088" d="M205.07,226.373l.226-.113c0,.07.087.16-.035.206a.137.137,0,0,1-.191-.092" transform="translate(-168.984 -186.446)" fill="#f6c19e"/>
    <path id="Trazado_736089" data-name="Trazado 736089" d="M192.617,196.361l.171.067c0,.082,0,.193-.1.172-.128-.025-.046-.157-.069-.24" transform="translate(-158.718 -161.808)" fill="#f6c19e"/>
    <path id="Trazado_736090" data-name="Trazado 736090" d="M184.418,230.486c.076,0,.157-.037.221.036-.068.035-.034.176-.141.156s-.073-.119-.08-.192" transform="translate(-151.966 -189.919)" fill="#f6c19e"/>
    <path id="Trazado_736091" data-name="Trazado 736091" d="M158.1,211.946a.914.914,0,0,1,.16.279c-.251.021-.209-.127-.16-.279" transform="translate(-130.251 -174.65)" fill="#f6c19e"/>
    <path id="Trazado_736092" data-name="Trazado 736092" d="M214.945,218.277a.394.394,0,0,1,.2-.212c.088.218-.121.154-.2.212" transform="translate(-177.122 -179.693)" fill="#f6c19e"/>
    <path id="Trazado_736093" data-name="Trazado 736093" d="M159.949,214.989l.156.227c-.146-.011-.233-.062-.156-.227" transform="translate(-131.779 -177.158)" fill="#f6c19e"/>
    <path id="Trazado_736094" data-name="Trazado 736094" d="M180.09,152.4c0,.075.038.157-.036.22-.148-.1-.077-.164.036-.22" transform="translate(-148.301 -125.586)" fill="#f6c19e"/>
    <path id="Trazado_736095" data-name="Trazado 736095" d="M179.855,154.9a.261.261,0,0,1-.047.219c-.105-.087-.1-.131.047-.219" transform="translate(-148.109 -127.642)" fill="#f6c19e"/>
    <path id="Trazado_736096" data-name="Trazado 736096" d="M180.45,229.623l.174.049c-.023.055-.057.109-.123.093s-.051-.088-.051-.142" transform="translate(-148.693 -189.217)" fill="#f6c19e"/>
    <path id="Trazado_736097" data-name="Trazado 736097" d="M176.941,228.516a.47.47,0,0,1,.227.082c-.082-.011-.223.144-.227-.082" transform="translate(-145.805 -188.305)" fill="#f6c19e"/>
    <path id="Trazado_736098" data-name="Trazado 736098" d="M181.337,212.184a.28.28,0,0,1-.178-.082c.119-.1.157-.028.178.082" transform="translate(-149.281 -174.738)" fill="#f6c19e"/>
    <path id="Trazado_736099" data-name="Trazado 736099" d="M148.772,143.428l.129.219c-.176.005-.117-.128-.129-.219" transform="translate(-122.593 -118.189)" fill="#f6c19e"/>
    <path id="Trazado_736100" data-name="Trazado 736100" d="M171.788,202.121l-.081-.073c.006-.037,0-.109.046-.092.076.026.029.108.035.166" transform="translate(-141.492 -166.416)" fill="#f6c19e"/>
    <path id="Trazado_736101" data-name="Trazado 736101" d="M185.163,192.6a.242.242,0,0,1,.145.076c-.086.047-.153.057-.145-.076" transform="translate(-152.58 -158.713)" fill="#f6c19e"/>
    <path id="Trazado_736102" data-name="Trazado 736102" d="M183.169,191.607a.241.241,0,0,1,.145.076c-.086.047-.153.056-.145-.076" transform="translate(-150.937 -157.89)" fill="#f6c19e"/>
    <path id="Trazado_736103" data-name="Trazado 736103" d="M179.181,189.612a.241.241,0,0,1,.145.076c-.086.047-.153.057-.145-.076" transform="translate(-147.65 -156.246)" fill="#f6c19e"/>
    <path id="Trazado_736104" data-name="Trazado 736104" d="M181.175,190.61a.24.24,0,0,1,.145.076c-.086.047-.153.056-.145-.076" transform="translate(-149.293 -157.069)" fill="#f6c19e"/>
    <path id="Trazado_736105" data-name="Trazado 736105" d="M214.181,136.686a.285.285,0,0,1-.059.164c-.036-.075-.047-.14.059-.164" transform="translate(-176.423 -112.634)" fill="#f6c19e"/>
    <path id="Trazado_736106" data-name="Trazado 736106" d="M161.49,217.011a.258.258,0,0,1,.1.128c-.1.007-.1-.057-.1-.128" transform="translate(-133.073 -178.824)" fill="#f6c19e"/>
    <path id="Trazado_736107" data-name="Trazado 736107" d="M147.965,141.676l.015.085c-.032,0-.075,0-.074-.044,0-.014.039-.027.059-.04" transform="translate(-121.879 -116.746)" fill="#f6c19e"/>
    <path id="Trazado_736108" data-name="Trazado 736108" d="M198.714,180.749a.094.094,0,0,1-.087-.045c.07-.065.079-.01.087.045" transform="translate(-163.675 -148.882)" fill="#f6c19e"/>
    <path id="Trazado_736109" data-name="Trazado 736109" d="M170.142,183.618l-.044.088c-.086-.08-.017-.082.044-.088" transform="translate(-140.133 -151.307)" fill="#f6c19e"/>
    <path id="Trazado_736110" data-name="Trazado 736110" d="M175.473,187.758l.087.046c-.081.083-.081.013-.087-.046" transform="translate(-144.595 -154.719)" fill="#f6c19e"/>
    <path id="Trazado_736111" data-name="Trazado 736111" d="M192.055,230.6a.106.106,0,0,1,.1-.021l-.1.021" transform="translate(-158.259 -189.999)" fill="#f6c19e"/>
    <path id="Trazado_736112" data-name="Trazado 736112" d="M204.491,227.056l.064-.034-.064.034" transform="translate(-168.507 -187.073)" fill="#f6c19e"/>
    <path id="Trazado_736113" data-name="Trazado 736113" d="M209.571,223.836c.007-.023.016-.043.047-.032l-.047.032" transform="translate(-172.693 -184.419)" fill="#f6c19e"/>
    <path id="Trazado_736114" data-name="Trazado 736114" d="M167.729,223.345l.031.027a.058.058,0,0,1-.031-.027" transform="translate(-138.214 -184.043)" fill="#f6c19e"/>
    <path id="Trazado_736115" data-name="Trazado 736115" d="M170.717,185.39l.055.03-.055-.03" transform="translate(-140.676 -152.767)" fill="#f6c19e"/>
    <path id="Trazado_736116" data-name="Trazado 736116" d="M197.426,149.456c0-.014,0-.028,0-.042a.173.173,0,0,1,.013.03s-.009.008-.013.012" transform="translate(-162.685 -123.122)" fill="#f6c19e"/>
    <path id="Trazado_736117" data-name="Trazado 736117" d="M197.177,148.331l-.039-.019c.026-.019.035,0,.039.019" transform="translate(-162.448 -122.206)" fill="#f6c19e"/>
    <path id="Trazado_736118" data-name="Trazado 736118" d="M180.973,148.3l-.043.008c.01-.023.024-.029.043-.008" transform="translate(-149.092 -122.196)" fill="#f6c19e"/>
    <path id="Trazado_736119" data-name="Trazado 736119" d="M268.782,416.712c.012.005.03.008.034.017s-.008.023-.014.035c-.012-.005-.03-.008-.034-.016s.008-.023.014-.035" transform="translate(-221.473 -343.384)" fill="#f6c19e"/>
    <path id="Trazado_736120" data-name="Trazado 736120" d="M326.4,356.853c-.005.012-.008.03-.017.034s-.023-.009-.035-.014c.005-.012.008-.03.017-.034s.023.008.035.014" transform="translate(-268.923 -294.047)" fill="#e74e6d"/>
    <path id="Trazado_736121" data-name="Trazado 736121" d="M115.142,313.074c.409,0,.819,0,1.228,0,.162,0,.235.039.221.224a6.158,6.158,0,0,1-3.535,5.348c-.126.064-.193.036-.254-.089q-.565-1.149-1.142-2.291c-.073-.144.015-.175.112-.222a3.294,3.294,0,0,0,1.647-1.715,2.645,2.645,0,0,0,.228-1.077c0-.167.086-.176.2-.176h1.294" transform="translate(-91.988 -257.981)" fill="#12263f"/>
  </g>
</svg>
