<svg xmlns="http://www.w3.org/2000/svg" xmlns:xlink="http://www.w3.org/1999/xlink" width="307.018" height="214.547" viewBox="0 0 307.018 214.547">
  <defs>
    <filter id="Rectángulo_352950" x="0" y="0" width="307.018" height="214.547" filterUnits="userSpaceOnUse">
      <feOffset dy="3" input="SourceAlpha"/>
      <feGaussianBlur stdDeviation="3" result="blur"/>
      <feFlood flood-opacity="0.161"/>
      <feComposite operator="in" in2="blur"/>
      <feComposite in="SourceGraphic"/>
    </filter>
    <clipPath id="clip-path">
      <rect id="Rectángulo_58138" data-name="Rectángulo 58138" width="49.662" height="57.306" fill="#12263f"/>
    </clipPath>
  </defs>
  <g id="Grupo_1019475" data-name="Grupo 1019475" transform="translate(-332.413 -12560.352)">
    <g transform="matrix(1, 0, 0, 1, 332.41, 12560.35)" filter="url(#Rectángulo_352950)">
      <rect id="Rectángulo_352950-2" data-name="Rectángulo 352950" width="289.018" height="196.547" rx="10" transform="translate(9 6)" fill="#f6f6f6"/>
    </g>
    <g id="Grupo_1019349" data-name="Grupo 1019349" transform="translate(439.688 12586.018)">
      <ellipse id="Elipse_4870" data-name="Elipse 4870" cx="46.5" cy="47" rx="46.5" ry="47" transform="translate(-0.275 0.334)" fill="#4adbd1"/>
      <g id="Grupo_980861" data-name="Grupo 980861" transform="translate(23.477 15.537)">
        <g id="Grupo_180308" data-name="Grupo 180308" clip-path="url(#clip-path)">
          <path id="Trazado_231740" data-name="Trazado 231740" d="M2.341,57.306A3,3,0,0,1,.052,54.9,4.539,4.539,0,0,1,0,54.123Q0,28.663,0,3.2A2.9,2.9,0,0,1,3.18,0H31.2a2.869,2.869,0,0,1,3.162,3.148q.007,3.861,0,7.722v.539H32.454v-.623q0-3.805,0-7.61c0-.968-.3-1.269-1.269-1.27-1.7,0-3.393.015-5.089-.011-.421-.007-.59.126-.663.532-.1.567-.26,1.125-.406,1.683A1.918,1.918,0,0,1,22.978,5.72q-5.789.008-11.577,0A1.884,1.884,0,0,1,9.377,4.162C9.179,3.426,9,2.685,8.8,1.913c-2.005,0-4-.014-5.99.01a.9.9,0,0,0-.887.853,3.974,3.974,0,0,0-.016.614q0,25.265,0,50.529c0,1.229.249,1.48,1.467,1.48H30.891c1.359,0,1.537-.176,1.564-1.538,0-.092.011-.183.019-.322h1.814a2.961,2.961,0,0,1-2.062,3.671.538.538,0,0,0-.128.1ZM10.8,1.932c.109.467.232.895.305,1.331.07.413.241.567.693.564,3.612-.022,7.225-.012,10.837-.013.163,0,.327-.016.5-.025l.451-1.856Z" transform="translate(0)" fill="#12263f"/>
          <path id="Trazado_231741" data-name="Trazado 231741" d="M140.427,141.426a1.406,1.406,0,0,1-1.152.758c-.977.137-1.952.3-2.919.49a.875.875,0,0,0-.534.429,21.153,21.153,0,0,0-.855,2.06.876.876,0,0,0,.067.682c.567.854,1.181,1.676,1.772,2.513a1.033,1.033,0,0,1-.116,1.581q-1.873,1.885-3.757,3.759a1.017,1.017,0,0,1-1.535.125c-.836-.593-1.678-1.178-2.5-1.794a.677.677,0,0,0-.805-.06c-.656.308-1.344.548-2,.858a.813.813,0,0,0-.413.486c-.188.95-.33,1.909-.482,2.866-.161,1.01-.418,1.238-1.427,1.239q-2.517,0-5.034,0c-.841,0-1.122-.247-1.266-1.084-.171-.991-.355-1.981-.5-2.976a.625.625,0,0,0-.478-.583c-.682-.243-1.336-.567-2.019-.808a.882.882,0,0,0-.686.055c-.869.577-1.7,1.206-2.557,1.805a1.015,1.015,0,0,1-1.536-.13q-1.884-1.874-3.757-3.759a1.014,1.014,0,0,1-.109-1.577c.581-.822,1.158-1.647,1.759-2.454a.654.654,0,0,0,.084-.794,18.707,18.707,0,0,1-.81-1.958.67.67,0,0,0-.622-.511c-1.032-.145-2.06-.328-3.085-.516-.686-.126-.92-.405-.924-1.11q-.015-2.714,0-5.428c0-.715.264-.988.987-1.112,1.009-.174,2.016-.363,3.03-.508a.665.665,0,0,0,.616-.512,21.088,21.088,0,0,1,.808-1.96.629.629,0,0,0-.053-.75c-.624-.837-1.225-1.691-1.825-2.545a.974.974,0,0,1,.113-1.488q1.91-1.927,3.837-3.838a.957.957,0,0,1,1.445-.116c.87.609,1.736,1.225,2.589,1.857a.593.593,0,0,0,.7.053c.674-.312,1.381-.554,2.054-.868a.8.8,0,0,0,.4-.489c.206-1.022.365-2.054.542-3.082.13-.757.4-1.02,1.144-1.024q2.685-.017,5.369,0c.736,0,1.016.237,1.147.956.188,1.026.361,2.055.513,3.087a.635.635,0,0,0,.48.586,20.6,20.6,0,0,1,2.009.833.624.624,0,0,0,.746-.077c.809-.6,1.633-1.177,2.453-1.76.678-.482,1.044-.461,1.62.112q1.864,1.854,3.718,3.719a1.036,1.036,0,0,1,.133,1.58c-.59.838-1.177,1.679-1.791,2.5a.637.637,0,0,0-.064.756c.307.657.586,1.328.834,2.009a.578.578,0,0,0,.541.445c.977.138,1.945.342,2.922.476a1.473,1.473,0,0,1,1.171.73Zm-8.468-16.69c-.864.617-1.749,1.235-2.616,1.877a1.262,1.262,0,0,1-1.45.089,23.126,23.126,0,0,0-2.927-1.222,1.389,1.389,0,0,1-1.1-1.289c-.114-.886-.306-1.762-.425-2.648-.045-.338-.179-.433-.5-.429-1.081.014-2.162.019-3.243,0-.367-.008-.48.146-.528.476-.136.921-.317,1.836-.445,2.758a1.246,1.246,0,0,1-.947,1.1,25.694,25.694,0,0,0-2.932,1.211,1.412,1.412,0,0,1-1.691-.135c-.82-.633-1.683-1.21-2.476-1.775l-2.918,2.927c.6.841,1.214,1.728,1.856,2.595a1.273,1.273,0,0,1,.106,1.45c-.472,1.008-.9,2.04-1.278,3.087a1.227,1.227,0,0,1-1.064.914c-.939.138-1.873.314-2.812.451-.318.046-.442.167-.437.5.018,1.1.013,2.2,0,3.3,0,.294.083.422.4.466.94.131,1.873.315,2.812.455a1.286,1.286,0,0,1,1.123.993,24.755,24.755,0,0,0,1.212,2.933,1.35,1.35,0,0,1-.106,1.594c-.639.841-1.231,1.718-1.823,2.552l2.926,2.909c.851-.6,1.754-1.223,2.634-1.874a1.227,1.227,0,0,1,1.4-.1c1.009.468,2.041.893,3.086,1.276a1.261,1.261,0,0,1,.939,1.106c.151,1.067.353,2.127.54,3.23,1.3,0,2.567.009,3.831-.015.109,0,.283-.208.309-.342.177-.933.342-1.869.473-2.81a1.342,1.342,0,0,1,1.056-1.2,19.916,19.916,0,0,0,2.828-1.169,1.4,1.4,0,0,1,1.69.108c.821.633,1.683,1.213,2.454,1.763l2.949-2.918c-.572-.8-1.143-1.654-1.769-2.464a1.393,1.393,0,0,1-.124-1.687,19.237,19.237,0,0,0,1.168-2.829,1.368,1.368,0,0,1,1.247-1.074c.922-.122,1.84-.283,2.753-.461.141-.027.35-.231.352-.357.026-1.247.016-2.5.016-3.8-1.069-.181-2.108-.385-3.156-.525a1.319,1.319,0,0,1-1.193-.987c-.366-1.031-.791-2.044-1.253-3.036a1.223,1.223,0,0,1,.081-1.4c.653-.882,1.275-1.788,1.887-2.65l-2.918-2.924" transform="translate(-90.766 -105.834)" fill="#12263f"/>
          <path id="Trazado_231742" data-name="Trazado 231742" d="M36.92,426.047a2.831,2.831,0,0,1,2.865,2.871,2.861,2.861,0,0,1-2.845,2.85,2.9,2.9,0,0,1-2.878-2.887,2.863,2.863,0,0,1,2.859-2.834m.947,2.834a.916.916,0,0,0-.97-.922.95.95,0,0,0-.919.932.978.978,0,0,0,.956.964.946.946,0,0,0,.933-.974" transform="translate(-30.242 -378.278)" fill="#12263f"/>
          <path id="Trazado_231743" data-name="Trazado 231743" d="M107.511,428.365l1.339,1.315c-.662.691-1.308,1.374-1.969,2.043a.63.63,0,0,1-.4.17c-1.3.013-2.59.008-3.919.008v-1.889c.929,0,1.852-.02,2.773.009a1.171,1.171,0,0,0,1.022-.421c.361-.423.759-.814,1.156-1.234" transform="translate(-91.061 -380.336)" fill="#12263f"/>
          <path id="Trazado_231744" data-name="Trazado 231744" d="M40.1,119.543c0,.545.017,1.062-.014,1.577a.419.419,0,0,1-.287.29c-1.781.018-3.563.013-5.387.013v-1.88Z" transform="translate(-30.554 -106.14)" fill="#12263f"/>
          <path id="Trazado_231745" data-name="Trazado 231745" d="M40.074,153.707c.168,1.878.168,1.878-1.6,1.878H34.422v-1.878Z" transform="translate(-30.563 -136.473)" fill="#12263f"/>
          <path id="Trazado_231746" data-name="Trazado 231746" d="M107.955,121.7l-1.451,1.385c-.36-.4-.757-.82-1.122-1.264a1.082,1.082,0,0,0-.979-.4c-.609.028-1.221.007-1.862.007V119.55c1.026,0,2.025-.012,3.024.011a.828.828,0,0,1,.483.249c.631.606,1.244,1.23,1.906,1.89" transform="translate(-91.044 -106.143)" fill="#12263f"/>
          <rect id="Rectángulo_58134" data-name="Rectángulo 58134" width="1.835" height="1.837" transform="translate(10.533 8.635)" fill="#12263f"/>
          <rect id="Rectángulo_58135" data-name="Rectángulo 58135" width="1.821" height="1.849" transform="translate(14.368 8.649)" fill="#12263f"/>
          <rect id="Rectángulo_58136" data-name="Rectángulo 58136" width="1.832" height="1.841" transform="translate(18.178 8.643)" fill="#12263f"/>
          <rect id="Rectángulo_58137" data-name="Rectángulo 58137" width="1.819" height="1.854" transform="translate(22.001 8.64)" fill="#12263f"/>
          <path id="Trazado_231747" data-name="Trazado 231747" d="M181.9,210.416a11.456,11.456,0,1,1,11.438-11.485A11.451,11.451,0,0,1,181.9,210.416m-9.461-10.463a9.5,9.5,0,0,0,10.332,8.514c4.365-.341,8.98-4.9,8.516-8.536l-.787-.052v-1.852l.94-.083-.8-2.92-.862.438-.928-1.615.815-.526-2.167-2.15-.528.8-1.6-.934.424-.874-2.921-.779-.064.924h-1.852l-.075-.925-2.936.792.442.866-1.611.935-.537-.812-2.144,2.17.808.51-.939,1.617-.865-.443-.786,2.938.921.081v1.846l-.8.066" transform="translate(-151.323 -166.48)" fill="#12263f"/>
          <path id="Trazado_231748" data-name="Trazado 231748" d="M253.9,241.539l1.373,1.365c-.824.822-1.63,1.643-2.457,2.443a.642.642,0,0,0-.2.768,2.806,2.806,0,0,1-1.27,3.278,2.861,2.861,0,0,1-3.919-3.916,2.808,2.808,0,0,1,3.334-1.252.561.561,0,0,0,.672-.175c.813-.846,1.644-1.674,2.472-2.512m-3.058,5.375a.945.945,0,0,0-.985-.92.912.912,0,0,0-.906.983.947.947,0,0,0,.942.907.979.979,0,0,0,.949-.971" transform="translate(-219.33 -214.457)" fill="#12263f"/>
          <path id="Trazado_231749" data-name="Trazado 231749" d="M230.032,334.492a1.943,1.943,0,0,1-.043-.278c0-.5,0-1,0-1.545H239.5v1.823Z" transform="translate(-204.201 -295.37)" fill="#12263f"/>
          <path id="Trazado_231750" data-name="Trazado 231750" d="M220.022,230.249v1.838a4.9,4.9,0,0,0-4.781,4.787h-1.782c-.324-2.64,2.219-6.63,6.563-6.626" transform="translate(-189.501 -204.433)" fill="#12263f"/>
        </g>
      </g>
    </g>
    <path id="Trazado_736468" data-name="Trazado 736468" d="M10.824,3.625v7.734a3.628,3.628,0,0,1-1.012,2.633A4.077,4.077,0,0,1,7.09,15.141l-.4.016a4.258,4.258,0,0,1-2.977-1.008A3.6,3.6,0,0,1,2.59,11.375V3.625H4.074v7.7a2.6,2.6,0,0,0,.68,1.918,2.612,2.612,0,0,0,1.938.684,2.63,2.63,0,0,0,1.949-.68,2.6,2.6,0,0,0,.676-1.914V3.625Zm3.508,2.922.047,1.063A3.08,3.08,0,0,1,16.91,6.391q2.68,0,2.7,3.023V15H18.168V9.406a1.946,1.946,0,0,0-.418-1.352,1.675,1.675,0,0,0-1.277-.437,2.086,2.086,0,0,0-1.234.375,2.546,2.546,0,0,0-.828.984V15H12.965V6.547ZM27.012,15a3.036,3.036,0,0,1-.2-.891A3.225,3.225,0,0,1,24.4,15.156a2.984,2.984,0,0,1-2.051-.707,2.287,2.287,0,0,1-.8-1.793,2.39,2.39,0,0,1,1-2.051,4.733,4.733,0,0,1,2.824-.73h1.406V9.211A1.623,1.623,0,0,0,26.332,8,1.821,1.821,0,0,0,25,7.555a2.108,2.108,0,0,0-1.3.391,1.151,1.151,0,0,0-.523.945H21.723a2,2,0,0,1,.449-1.223,3.066,3.066,0,0,1,1.219-.934,4.1,4.1,0,0,1,1.691-.344,3.342,3.342,0,0,1,2.289.73,2.635,2.635,0,0,1,.859,2.012v3.891a4.757,4.757,0,0,0,.3,1.852V15Zm-2.4-1.1a2.54,2.54,0,0,0,1.289-.352,2.127,2.127,0,0,0,.883-.914V10.9H25.652Q23,10.9,23,12.453a1.316,1.316,0,0,0,.453,1.063A1.742,1.742,0,0,0,24.613,13.9Zm14.766-1.141a1.064,1.064,0,0,0-.441-.91,4.249,4.249,0,0,0-1.539-.559,7.277,7.277,0,0,1-1.742-.562,2.479,2.479,0,0,1-.953-.781,1.869,1.869,0,0,1-.309-1.078,2.193,2.193,0,0,1,.879-1.758,3.432,3.432,0,0,1,2.246-.719,3.532,3.532,0,0,1,2.332.742,2.357,2.357,0,0,1,.895,1.9H39.293a1.3,1.3,0,0,0-.5-1.023,1.888,1.888,0,0,0-1.27-.43,1.976,1.976,0,0,0-1.234.344,1.082,1.082,0,0,0-.445.9.877.877,0,0,0,.414.789,5.1,5.1,0,0,0,1.5.508A7.8,7.8,0,0,1,39.5,10.7a2.558,2.558,0,0,1,1,.809,1.988,1.988,0,0,1,.324,1.152,2.163,2.163,0,0,1-.906,1.816,3.8,3.8,0,0,1-2.352.684,4.257,4.257,0,0,1-1.8-.359,2.922,2.922,0,0,1-1.223-1,2.42,2.42,0,0,1-.441-1.395h1.445a1.5,1.5,0,0,0,.582,1.152,2.258,2.258,0,0,0,1.434.426,2.331,2.331,0,0,0,1.316-.332A1.02,1.02,0,0,0,39.379,12.758Zm6.836,2.4a3.693,3.693,0,0,1-2.8-1.129,4.19,4.19,0,0,1-1.078-3.02v-.266A5.073,5.073,0,0,1,42.82,8.5a3.748,3.748,0,0,1,1.344-1.547,3.378,3.378,0,0,1,1.871-.559A3.166,3.166,0,0,1,48.6,7.477a4.7,4.7,0,0,1,.914,3.109v.6H43.785a3,3,0,0,0,.73,2.02,2.3,2.3,0,0,0,1.777.77,2.517,2.517,0,0,0,1.3-.312,3.259,3.259,0,0,0,.93-.828l.883.688A3.55,3.55,0,0,1,46.215,15.156Zm-.18-7.578a1.928,1.928,0,0,0-1.469.637A3.1,3.1,0,0,0,43.832,10h4.234V9.891a2.753,2.753,0,0,0-.594-1.707A1.815,1.815,0,0,0,46.035,7.578Zm10.07,5.18a1.064,1.064,0,0,0-.441-.91,4.249,4.249,0,0,0-1.539-.559,7.277,7.277,0,0,1-1.742-.562,2.479,2.479,0,0,1-.953-.781,1.869,1.869,0,0,1-.309-1.078A2.193,2.193,0,0,1,52,7.109a3.432,3.432,0,0,1,2.246-.719,3.532,3.532,0,0,1,2.332.742,2.357,2.357,0,0,1,.895,1.9H56.02a1.3,1.3,0,0,0-.5-1.023,1.888,1.888,0,0,0-1.27-.43,1.976,1.976,0,0,0-1.234.344,1.082,1.082,0,0,0-.445.9.877.877,0,0,0,.414.789,5.1,5.1,0,0,0,1.5.508,7.8,7.8,0,0,1,1.754.578,2.558,2.558,0,0,1,1,.809,1.988,1.988,0,0,1,.324,1.152,2.163,2.163,0,0,1-.906,1.816,3.8,3.8,0,0,1-2.352.684,4.257,4.257,0,0,1-1.8-.359,2.922,2.922,0,0,1-1.223-1,2.42,2.42,0,0,1-.441-1.395h1.445a1.5,1.5,0,0,0,.582,1.152,2.258,2.258,0,0,0,1.434.426,2.331,2.331,0,0,0,1.316-.332A1.02,1.02,0,0,0,56.105,12.758ZM61,15H59.559V6.547H61ZM59.441,4.3a.863.863,0,0,1,.215-.594.807.807,0,0,1,.637-.242.819.819,0,0,1,.641.242.854.854,0,0,1,.219.594.826.826,0,0,1-.219.586.834.834,0,0,1-.641.234.821.821,0,0,1-.637-.234A.834.834,0,0,1,59.441,4.3ZM62.934,10.7a4.993,4.993,0,0,1,.488-2.234A3.643,3.643,0,0,1,64.781,6.93a3.7,3.7,0,0,1,1.988-.539,3.565,3.565,0,0,1,2.793,1.2,4.6,4.6,0,0,1,1.066,3.18v.1a5.036,5.036,0,0,1-.473,2.215A3.589,3.589,0,0,1,68.8,14.609a3.743,3.743,0,0,1-2.02.547A3.556,3.556,0,0,1,64,13.961,4.575,4.575,0,0,1,62.934,10.8Zm1.453.172a3.616,3.616,0,0,0,.652,2.258,2.211,2.211,0,0,0,3.5-.012,3.955,3.955,0,0,0,.648-2.418,3.61,3.61,0,0,0-.66-2.254,2.1,2.1,0,0,0-1.754-.863,2.075,2.075,0,0,0-1.727.852A3.925,3.925,0,0,0,64.387,10.867Zm3.039-7.852h1.75l-2.094,2.3-1.164,0Zm6.383,3.531.047,1.063a3.08,3.08,0,0,1,2.531-1.219q2.68,0,2.7,3.023V15H77.645V9.406a1.946,1.946,0,0,0-.418-1.352,1.675,1.675,0,0,0-1.277-.437,2.086,2.086,0,0,0-1.234.375,2.546,2.546,0,0,0-.828.984V15H72.441V6.547ZM90.449,15a3.036,3.036,0,0,1-.2-.891,3.225,3.225,0,0,1-2.406,1.047,2.984,2.984,0,0,1-2.051-.707,2.288,2.288,0,0,1-.8-1.793,2.39,2.39,0,0,1,1-2.051,4.733,4.733,0,0,1,2.824-.73h1.406V9.211A1.623,1.623,0,0,0,89.77,8a1.821,1.821,0,0,0-1.336-.449,2.108,2.108,0,0,0-1.3.391,1.151,1.151,0,0,0-.523.945H85.16a2,2,0,0,1,.449-1.223,3.066,3.066,0,0,1,1.219-.934,4.1,4.1,0,0,1,1.691-.344,3.342,3.342,0,0,1,2.289.73,2.635,2.635,0,0,1,.859,2.012v3.891a4.757,4.757,0,0,0,.3,1.852V15Zm-2.4-1.1a2.54,2.54,0,0,0,1.289-.352,2.127,2.127,0,0,0,.883-.914V10.9H89.09q-2.656,0-2.656,1.555a1.316,1.316,0,0,0,.453,1.063A1.742,1.742,0,0,0,88.051,13.9ZM95.3,6.547l.047,1.063a3.08,3.08,0,0,1,2.531-1.219q2.68,0,2.7,3.023V15H99.137V9.406a1.946,1.946,0,0,0-.418-1.352,1.675,1.675,0,0,0-1.277-.437,2.086,2.086,0,0,0-1.234.375,2.546,2.546,0,0,0-.828.984V15H93.934V6.547ZM104.723,4.5V6.547H106.3V7.664h-1.578v5.249a1.173,1.173,0,0,0,.211.763.888.888,0,0,0,.719.254,3.5,3.5,0,0,0,.688-.094V15a4.215,4.215,0,0,1-1.109.155,1.8,1.8,0,0,1-1.461-.586,2.517,2.517,0,0,1-.492-1.664V7.664h-1.539V6.547h1.539V4.5ZM111.5,15.156a3.693,3.693,0,0,1-2.8-1.129,4.19,4.19,0,0,1-1.078-3.02v-.266A5.073,5.073,0,0,1,108.1,8.5a3.748,3.748,0,0,1,1.344-1.547,3.378,3.378,0,0,1,1.871-.559,3.166,3.166,0,0,1,2.563,1.086,4.7,4.7,0,0,1,.914,3.109v.6h-5.727a3,3,0,0,0,.73,2.02,2.3,2.3,0,0,0,1.777.77,2.517,2.517,0,0,0,1.3-.312,3.259,3.259,0,0,0,.93-.828l.883.688A3.55,3.55,0,0,1,111.5,15.156Zm-.18-7.578a1.928,1.928,0,0,0-1.469.637A3.1,3.1,0,0,0,109.113,10h4.234V9.891a2.753,2.753,0,0,0-.594-1.707A1.815,1.815,0,0,0,111.316,7.578Zm10.07,5.18a1.064,1.064,0,0,0-.441-.91,4.249,4.249,0,0,0-1.539-.559,7.277,7.277,0,0,1-1.742-.562,2.479,2.479,0,0,1-.953-.781,1.869,1.869,0,0,1-.309-1.078,2.193,2.193,0,0,1,.879-1.758,3.432,3.432,0,0,1,2.246-.719,3.532,3.532,0,0,1,2.332.742,2.357,2.357,0,0,1,.895,1.9H121.3a1.3,1.3,0,0,0-.5-1.023,1.888,1.888,0,0,0-1.27-.43,1.976,1.976,0,0,0-1.234.344,1.082,1.082,0,0,0-.445.9.877.877,0,0,0,.414.789,5.1,5.1,0,0,0,1.5.508,7.8,7.8,0,0,1,1.754.578,2.558,2.558,0,0,1,1,.809,1.988,1.988,0,0,1,.324,1.152,2.163,2.163,0,0,1-.906,1.816,3.8,3.8,0,0,1-2.352.684,4.257,4.257,0,0,1-1.8-.359,2.922,2.922,0,0,1-1.223-1,2.42,2.42,0,0,1-.441-1.395h1.445a1.5,1.5,0,0,0,.582,1.152,2.258,2.258,0,0,0,1.434.426,2.331,2.331,0,0,0,1.316-.332A1.02,1.02,0,0,0,121.387,12.758Zm6.938-2.055a4.952,4.952,0,0,1,.922-3.129,3.137,3.137,0,0,1,4.766-.168V3h1.445V15h-1.328l-.07-.906a2.943,2.943,0,0,1-2.414,1.063,2.887,2.887,0,0,1-2.395-1.2,5.008,5.008,0,0,1-.926-3.141Zm1.445.164a3.749,3.749,0,0,0,.594,2.25A1.919,1.919,0,0,0,132,13.93a2.108,2.108,0,0,0,2.008-1.234V8.813a2.125,2.125,0,0,0-1.992-1.2,1.929,1.929,0,0,0-1.656.82A4.128,4.128,0,0,0,129.77,10.867Zm11.438,4.289a3.693,3.693,0,0,1-2.8-1.129,4.19,4.19,0,0,1-1.078-3.02v-.266a5.073,5.073,0,0,1,.48-2.246,3.748,3.748,0,0,1,1.344-1.547,3.378,3.378,0,0,1,1.871-.559,3.166,3.166,0,0,1,2.563,1.086,4.7,4.7,0,0,1,.914,3.109v.6h-5.727a3,3,0,0,0,.73,2.02,2.3,2.3,0,0,0,1.777.77,2.517,2.517,0,0,0,1.3-.312,3.258,3.258,0,0,0,.93-.828l.883.688A3.55,3.55,0,0,1,141.207,15.156Zm-.18-7.578a1.928,1.928,0,0,0-1.469.637A3.1,3.1,0,0,0,138.824,10h4.234V9.891a2.753,2.753,0,0,0-.594-1.707A1.815,1.815,0,0,0,141.027,7.578ZM151.707,15h-1.445V3h1.445Zm7.531,0a3.036,3.036,0,0,1-.2-.891,3.225,3.225,0,0,1-2.406,1.047,2.984,2.984,0,0,1-2.051-.707,2.287,2.287,0,0,1-.8-1.793,2.39,2.39,0,0,1,1-2.051,4.733,4.733,0,0,1,2.824-.73h1.406V9.211A1.623,1.623,0,0,0,158.559,8a1.821,1.821,0,0,0-1.336-.449,2.107,2.107,0,0,0-1.3.391,1.151,1.151,0,0,0-.523.945h-1.453a2,2,0,0,1,.449-1.223,3.066,3.066,0,0,1,1.219-.934,4.1,4.1,0,0,1,1.691-.344,3.342,3.342,0,0,1,2.289.73,2.635,2.635,0,0,1,.859,2.012v3.891a4.757,4.757,0,0,0,.3,1.852V15Zm-2.4-1.1a2.54,2.54,0,0,0,1.289-.352,2.127,2.127,0,0,0,.883-.914V10.9h-1.133q-2.656,0-2.656,1.555a1.316,1.316,0,0,0,.453,1.063A1.742,1.742,0,0,0,156.84,13.9Zm14.766-1.141a1.064,1.064,0,0,0-.441-.91,4.249,4.249,0,0,0-1.539-.559,7.277,7.277,0,0,1-1.742-.562,2.479,2.479,0,0,1-.953-.781,1.869,1.869,0,0,1-.309-1.078,2.193,2.193,0,0,1,.879-1.758,3.432,3.432,0,0,1,2.246-.719,3.532,3.532,0,0,1,2.332.742,2.357,2.357,0,0,1,.895,1.9H171.52a1.3,1.3,0,0,0-.5-1.023,1.888,1.888,0,0,0-1.27-.43,1.976,1.976,0,0,0-1.234.344,1.082,1.082,0,0,0-.445.9.877.877,0,0,0,.414.789,5.1,5.1,0,0,0,1.5.508,7.8,7.8,0,0,1,1.754.578,2.558,2.558,0,0,1,1,.809,1.988,1.988,0,0,1,.324,1.152,2.163,2.163,0,0,1-.906,1.816,3.8,3.8,0,0,1-2.352.684A4.257,4.257,0,0,1,168,14.8a2.922,2.922,0,0,1-1.223-1,2.42,2.42,0,0,1-.441-1.395h1.445a1.5,1.5,0,0,0,.582,1.152,2.258,2.258,0,0,0,1.434.426,2.331,2.331,0,0,0,1.316-.332A1.02,1.02,0,0,0,171.605,12.758Zm6.836,2.4a3.693,3.693,0,0,1-2.8-1.129,4.19,4.19,0,0,1-1.078-3.02v-.266a5.073,5.073,0,0,1,.48-2.246,3.748,3.748,0,0,1,1.344-1.547,3.378,3.378,0,0,1,1.871-.559,3.166,3.166,0,0,1,2.563,1.086,4.7,4.7,0,0,1,.914,3.109v.6h-5.727a3,3,0,0,0,.73,2.02,2.3,2.3,0,0,0,1.777.77,2.517,2.517,0,0,0,1.3-.312,3.258,3.258,0,0,0,.93-.828l.883.688A3.55,3.55,0,0,1,178.441,15.156Zm-.18-7.578a1.928,1.928,0,0,0-1.469.637A3.1,3.1,0,0,0,176.059,10h4.234V9.891a2.753,2.753,0,0,0-.594-1.707A1.815,1.815,0,0,0,178.262,7.578Zm6.508-1.031.039.938a3.122,3.122,0,0,1,2.508-1.094A2.417,2.417,0,0,1,189.73,7.75a3.2,3.2,0,0,1,1.1-.984,3.242,3.242,0,0,1,1.6-.375q2.781,0,2.828,2.945V15h-1.445V9.422a1.941,1.941,0,0,0-.414-1.355A1.823,1.823,0,0,0,192,7.617a1.917,1.917,0,0,0-1.336.48,1.949,1.949,0,0,0-.617,1.293V15H188.6V9.461a1.613,1.613,0,0,0-1.8-1.844,1.934,1.934,0,0,0-1.945,1.211V15H183.4V6.547ZM202.652,15a3.036,3.036,0,0,1-.2-.891,3.225,3.225,0,0,1-2.406,1.047,2.984,2.984,0,0,1-2.051-.707,2.287,2.287,0,0,1-.8-1.793,2.39,2.39,0,0,1,1-2.051,4.733,4.733,0,0,1,2.824-.73h1.406V9.211A1.623,1.623,0,0,0,201.973,8a1.821,1.821,0,0,0-1.336-.449,2.107,2.107,0,0,0-1.3.391,1.151,1.151,0,0,0-.523.945h-1.453a2,2,0,0,1,.449-1.223,3.066,3.066,0,0,1,1.219-.934,4.1,4.1,0,0,1,1.691-.344,3.342,3.342,0,0,1,2.289.73,2.635,2.635,0,0,1,.859,2.012v3.891a4.757,4.757,0,0,0,.3,1.852V15Zm-2.4-1.1a2.54,2.54,0,0,0,1.289-.352,2.127,2.127,0,0,0,.883-.914V10.9h-1.133q-2.656,0-2.656,1.555a1.316,1.316,0,0,0,.453,1.063A1.742,1.742,0,0,0,200.254,13.9Zm7.25-7.352.047,1.063a3.08,3.08,0,0,1,2.531-1.219q2.68,0,2.7,3.023V15H211.34V9.406a1.946,1.946,0,0,0-.418-1.352,1.675,1.675,0,0,0-1.277-.437,2.086,2.086,0,0,0-1.234.375,2.546,2.546,0,0,0-.828.984V15h-1.445V6.547ZM220.184,15a3.036,3.036,0,0,1-.2-.891,3.225,3.225,0,0,1-2.406,1.047,2.984,2.984,0,0,1-2.051-.707,2.287,2.287,0,0,1-.8-1.793,2.39,2.39,0,0,1,1-2.051,4.733,4.733,0,0,1,2.824-.73h1.406V9.211A1.623,1.623,0,0,0,219.5,8a1.821,1.821,0,0,0-1.336-.449,2.107,2.107,0,0,0-1.3.391,1.151,1.151,0,0,0-.523.945h-1.453a2,2,0,0,1,.449-1.223,3.066,3.066,0,0,1,1.219-.934,4.1,4.1,0,0,1,1.691-.344,3.342,3.342,0,0,1,2.289.73,2.635,2.635,0,0,1,.859,2.012v3.891a4.757,4.757,0,0,0,.3,1.852V15Zm-2.4-1.1a2.54,2.54,0,0,0,1.289-.352,2.127,2.127,0,0,0,.883-.914V10.9h-1.133q-2.656,0-2.656,1.555a1.316,1.316,0,0,0,.453,1.063A1.742,1.742,0,0,0,217.785,13.9ZM232.23,15h-1.453V5.367l-2.914,1.07V5.125L232,3.57h.227Zm10.336-3.82h1.578v1.18h-1.578V15h-1.453V12.359h-5.18v-.852l5.094-7.883h1.539Zm-4.992,0h3.539V5.6l-.172.313Z" transform="translate(364.904 12689.352)" fill="#12263f"/>
    <path id="Trazado_736471" data-name="Trazado 736471" d="M11.66,13.189a6.789,6.789,0,0,1-1.294,4.443A4.471,4.471,0,0,1,6.719,19.2a4.5,4.5,0,0,1-3.672-1.572,6.779,6.779,0,0,1-1.3-4.434v-2.6A6.789,6.789,0,0,1,3.042,6.148,4.483,4.483,0,0,1,6.7,4.586a4.484,4.484,0,0,1,3.662,1.572,6.8,6.8,0,0,1,1.3,4.443ZM8.369,10.172a5.071,5.071,0,0,0-.4-2.29A1.338,1.338,0,0,0,6.7,7.125a1.307,1.307,0,0,0-1.235.7,4.777,4.777,0,0,0-.415,2.129V13.59a5.109,5.109,0,0,0,.4,2.329,1.343,1.343,0,0,0,1.27.737,1.325,1.325,0,0,0,1.24-.718,4.878,4.878,0,0,0,.41-2.251ZM20.664,19h-3.3V8.492l-3.242.947v-2.5l6.24-2.158h.3Z" transform="translate(352.404 12573.021)" fill="#12263f" opacity="0.134"/>
  </g>
</svg>
