<svg id="Grupo_1019343" data-name="Grupo 1019343" xmlns="http://www.w3.org/2000/svg" xmlns:xlink="http://www.w3.org/1999/xlink" width="161.612" height="154.645" viewBox="0 0 161.612 154.645">
  <defs>
    <clipPath id="clip-path">
      <rect id="Rectángulo_352939" data-name="Rectángulo 352939" width="161.612" height="154.644" fill="none"/>
    </clipPath>
  </defs>
  <g id="Grupo_1019330" data-name="Grupo 1019330" clip-path="url(#clip-path)">
    <path id="Trazado_736169" data-name="Trazado 736169" d="M40.1,20.505c.89-2.418,1-2.563,3.355-2.492a2.306,2.306,0,0,0,1.941-1.031,9.371,9.371,0,0,1,7.771-3.391,9.812,9.812,0,0,1,7.154,2.991,4.054,4.054,0,0,0,3.394,1.439c5.511-.09,9.035,3.151,10.406,8.085a14.665,14.665,0,0,1,.1,4.08,1.363,1.363,0,0,0,.591,1.239c4.443,3.862,7.78,8.436,8.888,14.377.154.828.489,1.907,1.512,1.459,1.384-.605,2.426.139,3.459.555a8.922,8.922,0,0,1,5.558,9.676c-.742,5.291-3.737,8.564-7.887,11.172a6.94,6.94,0,0,1-5.045,1.015c-1.8-.359-2.419.969-3.119,2.018-.442.662.441.939.963,1.229A70.283,70.283,0,0,1,86.656,77.6,46.494,46.494,0,0,1,98.773,90.821a2.662,2.662,0,0,0,2.715,1.444c3.258-.071,6.52-.055,9.779-.005.979.015,1.368-.2,1.354-1.288-.067-5.152-.039-10.3-.07-15.457,0-.354.3-.927-.331-1.043-.5-.091-.618.4-.853.743-2.526,3.73-5.9,6.063-10.557,5.82-2.392-.125-4.582-.739-6.241-2.934-.849-1.124-1.673-1.931-1.8-3.478-.16-1.927,1.11-2.94,2.041-4.162,3.305-4.34,6.689-8.621,10.046-12.922a6.779,6.779,0,0,0,1.505-3.766,11.533,11.533,0,0,1,6.179-9.5,13.036,13.036,0,0,1,3.729-1.233c.995-.213,1.348-.681,1.167-1.605-.177-.907.54-2.028-.63-2.7l-.367-.253a3.892,3.892,0,0,1-1.524-3.335c.02-9.7.074-19.411-.033-29.114-.028-2.6.319-4.78,2.877-6.032h.316c.463.52,1.08.306,1.63.307q17.458.018,34.915,0c.55,0,1.167.212,1.63-.307h.316c1.563.911,2.91,2.013,3.075,3.978.091,1.082,0,2.18.083,3.264.13,1.733-.805,2.653-2.284,3.214-.517-.1-1.09,0-1.512-.428l-.331-.242-.3-.314-.227-.315C155.044,8,154.968,6.848,155,5.7c.024-.753-.212-1-.973-.979-2.1.061-4.2.05-6.3.068q-13.559-.027-27.118-.068c-.754,0-.979.214-.975.971.043,7.251.051,14.5.068,21.754-.018,1.995.029,3.993-.078,5.983-.061,1.115.4,1.26,1.358,1.258q16.312-.043,32.625.007c1.085,0,1.424-.243,1.407-1.373-.068-4.464-.036-8.93-.024-13.4.005-1.909.6-2.523,2.451-2.622,1.671.279,2.263,1,2.266,2.845.009,4.819,0,9.638.006,14.457a4.54,4.54,0,0,1-1.556,3.7,1.872,1.872,0,0,0-.691,1.618c.036,2.828.013,5.657.018,8.486,0,.457-.1.941.346,1.292,1.919,1.51,2.889,3.64,3.78,5.82v.316a.762.762,0,0,0,0,1.262V86.437c-.817.717-1.01,1.824-1.777,2.629-2.42,2.538-5.341,2.757-8.5,2.151a2.141,2.141,0,0,0-2.374.685,8.752,8.752,0,0,1-11.43,1.476c-.559-.35-.711-.167-1.142.1-2.475,1.555-5.173,1.372-7.894.875-.154-.222-.379-.406-.539-.08-.2.4.044.636.462.693.013,3.784,0,7.568.051,11.352.019,1.453-.635,3.383.282,4.218.786.716,2.689.224,4.1.233a10.543,10.543,0,0,1,3.19.529c3.631,1.15,4.319,3.694,4.369,6.154.107,5.307.067,10.618.022,15.926a6.5,6.5,0,0,1-6.949,6.661c-1.2-.09-2.419.027-3.626-.029-.777-.035-1.028.158-1.093,1.012a14.751,14.751,0,0,1-9.733,12.742c-8.753,3-17.032-2.487-18.912-11.1a.986.986,0,0,1-.022-.155c-.041-.776.219-1.881-.189-2.254-.66-.6-1.791-.216-2.719-.219-5.309-.021-10.619-.01-15.929-.01-2.551,0-2.639-.01-2.916,2.351a14.255,14.255,0,0,1-28.1.738c-.059-.3-.241-.572-.3-.87-.129-.7.344-1.742-.222-2.06-.645-.362-1.624-.117-2.456-.163-2.176-.119-4.4.384-6.4-1.157a5.748,5.748,0,0,1-2.527-4.781Q38.3,129.043,38.258,124a.291.291,0,0,0,.087-.271c.388-2.545.079-5.107.18-7.658-.312-2.485,2.638-5.012,5.12-5.072q6.478.021,12.955.041c.308,0,.632.033.856-.256l.026-.073c.467-.193.324-.614.324-.952q0-6.149-.028-12.3a3.331,3.331,0,0,1,.429-1.755A6.1,6.1,0,0,1,62.846,92.4c4.136.011,8.273.054,12.408.021a58.006,58.006,0,0,0,7.207-.129H94.184A42.844,42.844,0,0,0,75.739,76.623a1.472,1.472,0,0,0-1.915.247c-.97.939-2.037,1.777-3.063,2.657A34.871,34.871,0,0,1,59.31,85.344a5.113,5.113,0,0,1-3.048.47l-.328.216c-2.087.723-4.2-.972-6.295.067-.087.043-.266-.14-.412-.169a34.646,34.646,0,0,1-8.049-2.94,26.14,26.14,0,0,1-7.315-5.036c-1.73-1.7-2.509-1.971-4.67-.88A44.868,44.868,0,0,0,6.765,103.135c-1.969,5.924-2.257,12.1-1.923,18.3.156.508.59.343.916.343q11.993-.006,23.986-.035c1.04.388,1.787.988,1.623,2.246-.179,1.806-.959,2.44-3.083,2.441-7.935.006-15.87-.038-23.8.035A4.6,4.6,0,0,1,.726,124.75a2.234,2.234,0,0,1-.634-1.519c.014-3.625-.24-7.269.045-10.872A46.927,46.927,0,0,1,4.345,96.522,48.74,48.74,0,0,1,16.522,79.983,40.2,40.2,0,0,1,26.911,73c.475-.207,1.328-.38.991-1.141-.376-.851-.5-2.057-1.809-2.138-1.789-.112-3.576.151-5.336-.627A14.754,14.754,0,0,1,12.064,58.54a8.873,8.873,0,0,1,1.691-8.076.36.36,0,0,0,.2-.218A8.43,8.43,0,0,1,20.9,47.329c1.844.072,1.488-1.635,1.788-2.493a23.812,23.812,0,0,0,.807-2.886l.237-.342a26.355,26.355,0,0,1,7.856-10.377c.866-.053.537-.537.349-.97,0-1.1-.005-2.2.012-3.3.026-1.686.589-2.24,2.3-2.363a13.776,13.776,0,0,0,1.474-.262,1.144,1.144,0,0,0,.264.7,4.5,4.5,0,0,1,.694,4.294c0,.428-.058.888.558.956q.034.315.067.631c-.452.8.238.552.574.631.734,1.5,3.31,2.94,4.97,2.478,2.641-.736,4.661-.245,6.426,1.993a4.567,4.567,0,0,0,5,1.524,6.939,6.939,0,0,0,3.645-2.437c1.057-1.266,2.29-2.01,4.084-1.417a4.74,4.74,0,0,0,2.745.272c3.551-.916,5.1-3.09,4.73-6.794-.273-2.719-4.531-5.559-7.052-4.7-2.055.7-3.208.428-4.287-1.308a5.782,5.782,0,0,0-9.94-.117,4.7,4.7,0,0,1-8.106-.534M91.836,97.154a.691.691,0,0,0-.285.68q0,6.044,0,12.088c0,.305-.038.64.321.811l.014.011c.249.377.641.293.994.293q9.332.005,18.664,0c.4,0,.855.114,1.129-.338q.029-6.381.053-12.763c0-.281.1-.661-.371-.716l-2.771-.075c-.207-.323-.541-.268-.846-.268q-8.008-.006-16.017,0c-.3,0-.641-.079-.826.279Zm-4.983.008-.013-.009c-.294-.452-.757-.273-1.146-.274q-10.538-.017-21.077,0c-.406,0-.848-.106-1.189.243a.9.9,0,0,0-.926.926c-.384.388-.246.882-.248,1.334q-.016,5.231,0,10.463c0,.382-.2.843.252,1.138q11.745.029,23.49.058c.312,0,.638.022.849-.286l-.011-.034c.417-.128.329-.486.33-.779q.009-5.99,0-11.98c0-.3.083-.648-.316-.8m66.562-45.128.012.011c-.821-1.492-.672-3.123-.677-4.73-.008-2.146-.079-4.3.027-6.436.064-1.3-.359-1.724-1.587-1.4q-14.035-.033-28.07-.081c-.768,0-1.041.243-.961.988a8.388,8.388,0,0,1,.005,1.261c-.108,2.5-.785,4.512-3.346,5.76-1.161.565-2.306.309-3.394.792a7.665,7.665,0,0,0-4.577,6.825,7.127,7.127,0,0,1-1.6,4.754c-3.321,4.284-6.672,8.544-10.005,12.818-.577.74-1.868,1.514-1.39,2.321.592,1,2.046,1.242,3.281,1.428a4.124,4.124,0,0,0,2.113-.366.4.4,0,0,0,.48-.216l.084.017.05-.07a1.605,1.605,0,0,0,1.268-.535,31.9,31.9,0,0,0,5.643-7.675l1.908-2.206.344-.223c1.585-.28,3.057-.2,4.089,1.281a.37.37,0,0,0,.081.285c.051.837.146,1.674.148,2.511.024,13.876.079,27.752.014,41.627-.013,2.682.967,3.292,3.245,3.115.418-.033.838-.037,1.258-.054,1.546-.421,1.888-1.542,1.882-2.992-.029-7.559,0-15.118-.024-22.678-.005-1.592.545-2.61,2.251-2.739,1.271.23,2.21.646,2.271,2.254a2.035,2.035,0,0,0,1.991,2.176c1.463-.067,3.309.886,4.258-1.168.49-1.059,1.017-1.946,2.459-1.97a2.826,2.826,0,0,1,2.734,1.946c.957,1.955,2.711,1.082,4.155,1.223,1.066.1,1.563-.8,1.845-1.608a7.533,7.533,0,0,0,.163-2.17c.037-1.1.476-2.075,1.61-2.152,1.186-.081,2.678-.52,3.205,1.35.139.492.258,1.386.989,1.4a7.332,7.332,0,0,0,3.377-.191c1.67-.184,1.87-1.376,1.869-2.714q0-12.654,0-25.308a6.326,6.326,0,0,0-2.859-5.815l-.281-.311-.336-.332M72.341,35.645c-.042-.174-.112-.312-.332-.252-.688-.216-.864.447-1.256.736-2.592,1.911-5.352,3.209-8.693,2.383a1.367,1.367,0,0,0-1.506.555c-3.424,4.229-10.911,4.466-14.689.245a2.042,2.042,0,0,0-2.469-.69,3.259,3.259,0,0,1-1.534.167A11.14,11.14,0,0,1,35.2,35.877c-.611-.552-1.034-.754-1.689-.083-3.2,3.275-5.819,6.84-6.687,11.514-.186,1-.249,2.037-.428,3.038a12.775,12.775,0,0,0,.508,6.42c0,.12,0,.24,0,.36a27.036,27.036,0,0,0,3.168,8.984,38.931,38.931,0,0,0,4.56,6.184,24,24,0,0,0,7.049,5.651,11.741,11.741,0,0,0,4.472,2.188c.085,0,.17,0,.255.01.209.005.481-.074.617.029,2.9,2.193,6.2,1.522,9.365,1.123,2.625-.33,5.013-1.591,7.385-2.756a.57.57,0,0,0,.652-.652c.544-.44,1.26-.5,1.84-.932a33.709,33.709,0,0,0,5.869-5.279c5.643-6.667,8.7-14.142,7.441-23.009a19.834,19.834,0,0,0-7.248-13.031ZM45.548,115.556l-.387.182c-1.595-.2-2.12.588-2.1,2.089.06,4.022.049,8.044.067,12.067a15.589,15.589,0,0,0-.136,3.427c-.045,1.384.734,1.975,2.04,1.982,1.566.009,3.132-.03,4.7.017a1.291,1.291,0,0,0,1.441-.89A16.737,16.737,0,0,1,54.056,130a14.642,14.642,0,0,1,20.476-.026,22.026,22.026,0,0,1,3.3,4.706c.307.491.482.629.963.629q10.531-.007,21.061.005c.631,0,1.061-.1,1.33-.78a17.07,17.07,0,0,1,3.011-4.557,14.672,14.672,0,0,1,10.988-4.136,25.526,25.526,0,0,1,6.042,1.465c.072.375.346.454.672.456l2.784,2.22a7.647,7.647,0,0,1,1.415,1.858c1.167,3.309,3.589,4.011,6.708,3.474a4.856,4.856,0,0,1,1.1-.006,1.549,1.549,0,0,0,1.784-1.711c.046-5.45.028-10.9.016-16.35,0-1.025-.546-1.514-1.6-1.477-1.256.045-2.514.04-3.771.057-1.771-.137-3.556-.367-4.776,1.419a2.454,2.454,0,0,1-.921.583c-3.562,1.851-7.863,1.013-10.932-2.123l-.408-.149H45.548m59.283,24.629c-.338,2.416.836,4.506,2.33,6.473,1.739,2.291,4.621,2.52,6.923,3.8,1.992-1.126,4.431-1.162,6.27-2.718,3.1-2.625,3.767-6,3.541-9.845-.175-2.974-5.35-7.007-9.083-7.352-5.275-.488-10.493,4.717-9.981,9.645M64.166,130.6a9.506,9.506,0,0,0-9.51,8.861c-.284,7.041,4.83,10.474,9.3,10.507a9.584,9.584,0,0,0,9.924-9.631,9.415,9.415,0,0,0-9.719-9.737M21.481,53.7c.727-1.763-.412-1.724-1.6-1.653-1.622.1-3.234,2.018-3.419,3.8-.317,3.057,3.2,7.877,6.067,8.794.447.143,1.009.688,1.408.162.172-.227-.1-.867-.277-1.269-1.4-3.13-1.63-6.508-2.183-9.836M89.7,56.358a3.963,3.963,0,0,0-4.07-4.321c-.695.008-1.04.1-1.013.927A30.287,30.287,0,0,1,82.385,64.2c-.077.213-.41.424-.084.668.232.174.469.015.723-.043,3.129-.717,6.687-4.9,6.677-8.469m22.822,17.56c-.033.035-.091.07-.09.1s.06.067.094.1c.033-.035.09-.07.09-.1s-.059-.068-.094-.1" transform="translate(0 -0.001)" fill="#12263f"/>
    <path id="Trazado_736170" data-name="Trazado 736170" d="M411.559,0c-.463.519-1.08.306-1.63.307q-17.457.018-34.915,0c-.55,0-1.167.213-1.63-.307Z" transform="translate(-255.311)" fill="#0a0a0a"/>
    <path id="Trazado_736171" data-name="Trazado 736171" d="M510.342,177.834a.762.762,0,0,1,0-1.262Z" transform="translate(-348.73 -120.735)" fill="#0a0a0a"/>
    <path id="Trazado_736172" data-name="Trazado 736172" d="M15.052,286.679c-.334-6.2-.046-12.374,1.923-18.3A44.867,44.867,0,0,1,39.4,242.319c2.161-1.091,2.94-.817,4.67.88a26.136,26.136,0,0,0,7.315,5.036,34.654,34.654,0,0,0,8.049,2.94c.146.029.325.212.412.169,2.091-1.039,4.208.656,6.295-.068.216.089.267-.07.328-.216a5.111,5.111,0,0,0,3.048-.47,34.866,34.866,0,0,0,11.451-5.817c1.07.9,2.175,1.771,3.205,2.72a43.013,43.013,0,0,1,8.131,9.821q-8.716.024-17.432.054c-.613,0-1.266-.164-1.819.274a6.1,6.1,0,0,0-4.638,3.311,3.331,3.331,0,0,0-.428,1.755c-.438.551-.269,1.2-.273,1.814-.021,3.812-.019,7.624-.024,11.436l-.025.072c-3.8-.009-7.591-.035-11.387-.014a4.392,4.392,0,0,0-2.425.229c-2.482.06-5.432,2.587-5.12,5.072-.615,2.54-.268,5.1-.18,7.658a.291.291,0,0,1-.087.271l-6.892-.013c.164-1.259-.583-1.858-1.623-2.246-.552-.452-1.207-.259-1.816-.261q-11.543-.039-23.086-.047" transform="translate(-10.21 -165.247)" fill="#ffca28"/>
    <path id="Trazado_736173" data-name="Trazado 736173" d="M113.923,68.833a4.494,4.494,0,0,0-.694-4.294,1.147,1.147,0,0,1-.264-.7c.735-2.1,2.392-3.151,4.372-3.831a4.7,4.7,0,0,0,8.106.534,5.782,5.782,0,0,1,9.94.117c1.079,1.735,2.232,2.006,4.287,1.308,2.521-.857,6.779,1.983,7.052,4.7.371,3.7-1.179,5.877-4.73,6.794a4.743,4.743,0,0,1-2.745-.272c-1.793-.593-3.026.151-4.084,1.417a6.937,6.937,0,0,1-3.645,2.437,4.567,4.567,0,0,1-5-1.524c-1.765-2.238-3.785-2.729-6.426-1.993-1.66.463-4.236-.972-4.97-2.478a.738.738,0,0,0-.574-.631q-.033-.315-.067-.631c.147-.513-.25-.709-.558-.956" transform="translate(-77.243 -39.504)" fill="#ffca28"/>
    <path id="Trazado_736174" data-name="Trazado 736174" d="M99.955,95.693c.188.433.516.916-.35.97-.24-.452-.156-.786.35-.97" transform="translate(-68.019 -65.432)" fill="#0a0a0a"/>
    <path id="Trazado_736175" data-name="Trazado 736175" d="M404.947,298.44c-.418-.057-.659-.292-.461-.693.16-.326.385-.142.539.08q-.039.306-.078.612" transform="translate(-276.529 -203.471)" fill="#363433"/>
    <path id="Trazado_736176" data-name="Trazado 736176" d="M74.478,131.573l-.237.342c-.083-.226.068-.29.237-.342" transform="translate(-50.748 -89.966)" fill="#0a0a0a"/>
    <path id="Trazado_736177" data-name="Trazado 736177" d="M43.624,158.855a.359.359,0,0,1-.2.218c-.088-.215,0-.268.2-.218" transform="translate(-29.668 -108.608)" fill="#0a0a0a"/>
    <path id="Trazado_736178" data-name="Trazado 736178" d="M368.212,121.69l.367.253c-.237.081-.3-.089-.367-.253" transform="translate(-251.774 -83.208)" fill="#0a0a0a"/>
    <path id="Trazado_736179" data-name="Trazado 736179" d="M324.021,150.461l-1.908,2.206c-1.063-.059-1.57.781-2.106,1.432-1.518,1.839-2.937,3.758-4.418,5.629a1.712,1.712,0,0,0-.387,1.15l-.05.07-.085-.017-.479.215a4.124,4.124,0,0,1-2.114.367c-1.235-.186-2.688-.429-3.28-1.428-.478-.807.813-1.581,1.39-2.321,3.333-4.274,6.684-8.535,10.005-12.818a7.126,7.126,0,0,0,1.6-4.754,7.665,7.665,0,0,1,4.577-6.824c1.088-.483,2.233-.226,3.394-.792,2.561-1.248,3.237-3.262,3.345-5.76a8.345,8.345,0,0,0-.005-1.26c-.08-.745.193-.992.961-.988q14.035.068,28.07.082c0,3.144.05,6.289-.013,9.432a3.016,3.016,0,0,0,2.251,3.139l-.011-.011.336.332.281.311c-.077,1.065.73,1.82.971,2.786a25.157,25.157,0,0,1,.276,6.565c-.111,8.162.367,16.33-.259,24.486a7.337,7.337,0,0,1-3.377.191c-.731-.017-.85-.911-.989-1.4-.527-1.87-2.019-1.431-3.2-1.35-1.135.077-1.573,1.047-1.61,2.153a7.545,7.545,0,0,1-.164,2.17c-.282.811-.779,1.712-1.845,1.608-1.444-.141-3.2.732-4.155-1.223a2.825,2.825,0,0,0-2.734-1.946c-1.442.024-1.97.91-2.46,1.97-.949,2.055-2.8,1.1-4.258,1.168a2.035,2.035,0,0,1-1.991-2.176c-.061-1.609-1-2.024-2.271-2.254-2.295-.634-3.772.624-3.778,3.287-.017,7.025-.006,14.051-.006,21.076A13.8,13.8,0,0,1,333.2,199c-.42.017-.84.022-1.258.054-2.278.177-3.258-.433-3.245-3.115.065-13.875.01-27.751-.014-41.627,0-.837-.1-1.674-.148-2.511l.147-.272-.227-.012c-1.033-1.482-2.5-1.561-4.09-1.281-.222-.091-.287.06-.344.223" transform="translate(-211.348 -85.174)" fill="#f29688"/>
    <path id="Trazado_736180" data-name="Trazado 736180" d="M98.331,154.38a24,24,0,0,1-7.049-5.651,38.931,38.931,0,0,1-4.56-6.184,27.046,27.046,0,0,1-3.168-8.984l.226-.236-.229-.124a12.777,12.777,0,0,1-.508-6.42c.179-1,.242-2.036.428-3.038.868-4.674,3.484-8.239,6.687-11.514.656-.67,1.079-.469,1.689.083a11.142,11.142,0,0,0,6.662,2.911,3.259,3.259,0,0,0,1.534-.167,2.042,2.042,0,0,1,2.469.69c3.777,4.221,11.265,3.984,14.689-.245a1.367,1.367,0,0,1,1.507-.556c3.341.826,6.1-.472,8.693-2.382.391-.289.567-.952,1.256-.736l.331.252-.009-.008a6.666,6.666,0,0,0,.7,2.56,26.492,26.492,0,0,1-.565,19A34.371,34.371,0,0,1,117.542,148.8a27.8,27.8,0,0,1-10.68,5.13,26.111,26.111,0,0,1-8.531.445m11.5-4.718a11.063,11.063,0,0,0,7.358-3.23,2.356,2.356,0,1,0-3.276-3.352c-2.717,2.407-5.686,2.433-8.285.072a2.73,2.73,0,0,0-3.506-.276,2.659,2.659,0,0,0,.265,3.644,10.738,10.738,0,0,0,7.444,3.141m14.408-16.046a3,3,0,1,0-3.254,3.054,2.881,2.881,0,0,0,3.254-3.054m-26.028-2.921c-2.1-.009-3,.843-3,2.844a3,3,0,1,0,6,.274c.014-2.317-.746-3.108-3-3.117" transform="translate(-56.648 -76.436)" fill="#f8b6ad"/>
    <path id="Trazado_736181" data-name="Trazado 736181" d="M214.344,377.167A25.513,25.513,0,0,0,208.3,375.7a14.671,14.671,0,0,0-10.988,4.136l-29.669,0a14.642,14.642,0,0,0-20.476.026l-10.926-.1c-.017-4.022-.007-8.045-.067-12.067-.022-1.5.5-2.29,2.1-2.089l.387-.182h67.76l.408.15c3.069,3.136,7.37,3.974,10.932,2.123a2.451,2.451,0,0,0,.92-.583c1.22-1.785,3.005-1.555,4.776-1.418.008,3.361.033,6.721.017,10.082-.011,2.4-1.572,3.6-3.631,4.023a11.291,11.291,0,0,1-2.043.051l-2.785-2.22c-.047-.412-.161-.726-.672-.457" transform="translate(-93.113 -249.863)" fill="#d2e1f1"/>
    <path id="Trazado_736182" data-name="Trazado 736182" d="M378.39,37.64c-.018-7.251-.025-14.5-.068-21.754,0-.758.221-.975.975-.971q13.559.061,27.118.068,0,9.852,0,19.7c0,2.4-.556,2.955-2.96,2.955q-12.533,0-25.066,0" transform="translate(-258.687 -10.198)" fill="#8595cb"/>
    <path id="Trazado_736183" data-name="Trazado 736183" d="M378.357,37.636q12.533,0,25.066,0c2.4,0,2.959-.555,2.96-2.955q0-9.852,0-19.7c2.1-.018,4.2-.007,6.3-.068.761-.022,1,.225.974.979-.036,1.153.04,2.309.069,3.463-.076.214.059.276.227.314l.3.315c.043.173.114.307.331.242.422.431,1,.33,1.512.428q0,3.422,0,6.843c-1.851.1-2.446.713-2.451,2.622-.012,4.465-.044,8.931.024,13.4.017,1.13-.323,1.377-1.407,1.373q-16.312-.062-32.625-.007c-.956,0-1.418-.143-1.358-1.258.108-1.99.061-3.988.078-5.983" transform="translate(-258.653 -10.194)" fill="#6f88da"/>
    <path id="Trazado_736184" data-name="Trazado 736184" d="M131.815,155a26.111,26.111,0,0,0,8.531-.446,27.793,27.793,0,0,0,10.68-5.13,34.37,34.37,0,0,0,11.568-15.178,26.491,26.491,0,0,0,.565-18.995,6.666,6.666,0,0,1-.7-2.56,19.834,19.834,0,0,1,7.248,13.03c1.255,8.867-1.8,16.342-7.442,23.009a33.7,33.7,0,0,1-5.869,5.279c-.58.428-1.3.491-1.84.932a.557.557,0,0,0-.652.652c-2.372,1.166-4.76,2.426-7.385,2.756-3.165.4-6.462,1.07-9.365-1.124-.135-.1-.408-.023-.617-.028l-.109-.253-.146.243A11.732,11.732,0,0,1,131.815,155" transform="translate(-90.132 -77.055)" fill="#f29688"/>
    <path id="Trazado_736185" data-name="Trazado 736185" d="M197.649,308.036a.9.9,0,0,1,.926-.925l23.412.035.013.009q-.008,6.777-.015,13.555l.011.034-24.282-.066q-.033-6.321-.065-12.641" transform="translate(-135.147 -209.995)" fill="#219cd5"/>
    <path id="Trazado_736186" data-name="Trazado 736186" d="M308.159,307.186l2.771.075q0,6.719,0,13.438l-20.467.089-.014-.01q-.018-6.789-.035-13.578h.059l17.689-.012" transform="translate(-198.576 -210.046)" fill="#219cd5"/>
    <path id="Trazado_736187" data-name="Trazado 736187" d="M331.378,422.379c-.512-4.928,4.706-10.133,9.981-9.645,3.733.345,8.908,4.378,9.083,7.352.226,3.844-.437,7.22-3.541,9.845-1.839,1.556-4.278,1.592-6.27,2.718-2.3-1.277-5.184-1.506-6.923-3.8-1.494-1.967-2.667-4.057-2.33-6.473m6-.163a3.537,3.537,0,0,0,3.391,3.829,3.906,3.906,0,0,0,3.777-3.676,3.773,3.773,0,0,0-3.624-3.584,3.407,3.407,0,0,0-3.543,3.431" transform="translate(-226.548 -282.195)" fill="#cde1eb"/>
    <path id="Trazado_736188" data-name="Trazado 736188" d="M182.323,412.984a9.415,9.415,0,0,1,9.719,9.737,9.585,9.585,0,0,1-9.924,9.631c-4.474-.032-9.588-3.465-9.3-10.506a9.506,9.506,0,0,1,9.51-8.862m-3.511,9.6a3.792,3.792,0,0,0,3.426,3.654,4.056,4.056,0,0,0,3.84-3.672,3.662,3.662,0,0,0-3.686-3.588,3.5,3.5,0,0,0-3.579,3.607" transform="translate(-118.158 -282.383)" fill="#cde1eb"/>
    <path id="Trazado_736189" data-name="Trazado 736189" d="M235.1,257.232a43,43,0,0,0-8.131-9.821c-1.031-.948-2.135-1.815-3.205-2.72,1.026-.881,2.093-1.719,3.063-2.657a1.471,1.471,0,0,1,1.915-.247,42.843,42.843,0,0,1,18.445,15.665H235.466l-.364-.22" transform="translate(-153.005 -165.165)" fill="#f4b100"/>
    <path id="Trazado_736190" data-name="Trazado 736190" d="M235.691,411.009l29.669,0a17.085,17.085,0,0,0-3.011,4.557c-.269.681-.7.781-1.33.78q-10.53-.02-21.061-.005c-.481,0-.656-.138-.963-.629a22.055,22.055,0,0,0-3.3-4.706" transform="translate(-161.159 -281.037)" fill="#727997"/>
    <path id="Trazado_736191" data-name="Trazado 736191" d="M394.3,380.3a11.263,11.263,0,0,0,2.043-.051c2.059-.418,3.62-1.622,3.631-4.022.016-3.361-.01-6.721-.017-10.082,1.257-.017,2.515-.013,3.771-.057,1.049-.037,1.593.452,1.595,1.477.012,5.45.029,10.9-.016,16.35a1.549,1.549,0,0,1-1.784,1.711,4.873,4.873,0,0,0-1.1.006c-3.118.538-5.541-.165-6.708-3.474A7.648,7.648,0,0,0,394.3,380.3" transform="translate(-269.61 -250.322)" fill="#727997"/>
    <path id="Trazado_736192" data-name="Trazado 736192" d="M57.038,166.193c.553,3.329.786,6.706,2.183,9.836.18.4.449,1.043.277,1.27-.4.526-.961-.019-1.408-.162-2.862-.916-6.384-5.737-6.067-8.793.185-1.785,1.8-3.706,3.419-3.8,1.185-.071,2.324-.109,1.6,1.653" transform="translate(-35.558 -112.491)" fill="#f8b6ad"/>
    <path id="Trazado_736193" data-name="Trazado 736193" d="M267.352,168.874c.01,3.565-3.547,7.752-6.677,8.469-.254.058-.49.217-.723.043-.325-.243.008-.454.084-.667a30.284,30.284,0,0,0,2.231-11.238c-.027-.831.319-.92,1.014-.927a3.963,3.963,0,0,1,4.07,4.322" transform="translate(-177.653 -112.516)" fill="#f29688"/>
    <path id="Trazado_736194" data-name="Trazado 736194" d="M488.072,200.414c.627-8.156.148-16.324.259-24.486a25.157,25.157,0,0,0-.276-6.566c-.242-.966-1.048-1.721-.971-2.786a6.325,6.325,0,0,1,2.859,5.815q-.011,12.654,0,25.308c0,1.339-.2,2.53-1.869,2.714" transform="translate(-333.052 -113.901)" fill="#e67968"/>
    <path id="Trazado_736195" data-name="Trazado 736195" d="M136.036,410.758l10.926.1a16.745,16.745,0,0,0-2.885,4.43,1.292,1.292,0,0,1-1.441.891c-1.564-.047-3.13-.008-4.7-.017-1.306-.008-2.085-.6-2.04-1.982a15.568,15.568,0,0,1,.136-3.427" transform="translate(-92.906 -280.866)" fill="#727997"/>
    <path id="Trazado_736196" data-name="Trazado 736196" d="M385.336,298.185a13.8,13.8,0,0,0,.325-4.045c0-7.025-.011-14.051.006-21.076.006-2.663,1.483-3.921,3.778-3.287-1.705.129-2.256,1.146-2.251,2.739.025,7.559-.005,15.118.024,22.677.006,1.45-.336,2.571-1.882,2.992" transform="translate(-263.483 -184.356)" fill="#e67968"/>
    <path id="Trazado_736197" data-name="Trazado 736197" d="M480.31,137.176a3.015,3.015,0,0,1-2.251-3.139c.063-3.143.015-6.288.013-9.432,1.228-.319,1.651.109,1.587,1.4-.105,2.141-.034,4.29-.027,6.436.005,1.607-.144,3.239.677,4.73" transform="translate(-326.884 -85.132)" fill="#e67968"/>
    <path id="Trazado_736198" data-name="Trazado 736198" d="M328.417,221.637a1.713,1.713,0,0,1,.387-1.15c1.48-1.87,2.9-3.79,4.417-5.629.537-.65,1.044-1.491,2.107-1.432a31.893,31.893,0,0,1-5.642,7.675,1.606,1.606,0,0,1-1.268.535" transform="translate(-224.563 -145.934)" fill="#e67968"/>
    <path id="Trazado_736199" data-name="Trazado 736199" d="M15.309,384.006q11.543.019,23.086.047c.609,0,1.265-.191,1.816.261q-11.993.021-23.986.035c-.327,0-.761.165-.916-.343" transform="translate(-10.468 -262.573)" fill="#8a7521"/>
    <path id="Trazado_736200" data-name="Trazado 736200" d="M197.732,350.014l24.282.065c-.211.31-.537.288-.849.287q-11.745-.027-23.49-.058.031-.147.057-.295" transform="translate(-135.165 -239.33)" fill="#113e56"/>
    <path id="Trazado_736201" data-name="Trazado 736201" d="M223.989,306.555l-23.412-.035c.341-.349.782-.243,1.189-.243q10.538-.009,21.076,0c.39,0,.852-.178,1.146.274" transform="translate(-137.149 -209.403)" fill="#196086"/>
    <path id="Trazado_736202" data-name="Trazado 736202" d="M290.568,350.007l20.467-.089.319.04c-.274.452-.727.337-1.129.338q-9.332.01-18.664,0c-.353,0-.746.084-.994-.293" transform="translate(-198.683 -239.265)" fill="#113e56"/>
    <path id="Trazado_736203" data-name="Trazado 736203" d="M217.988,291.143l.364.22a58.005,58.005,0,0,1-7.207.128c-4.136.033-8.272-.01-12.408-.021.553-.438,1.206-.271,1.819-.274q8.716-.042,17.432-.054" transform="translate(-135.891 -199.076)" fill="#8a7521"/>
    <path id="Trazado_736204" data-name="Trazado 736204" d="M308.286,306.593,290.6,306.6c.185-.357.528-.278.826-.279q8.008-.007,16.017,0c.3,0,.638-.055.846.268" transform="translate(-198.703 -209.453)" fill="#196086"/>
    <path id="Trazado_736205" data-name="Trazado 736205" d="M138.016,350.39a4.392,4.392,0,0,1,2.425-.229c3.8-.021,7.592,0,11.387.014-.225.288-.549.257-.857.256q-6.478-.018-12.955-.041" transform="translate(-94.372 -239.392)" fill="#363433"/>
    <path id="Trazado_736206" data-name="Trazado 736206" d="M274.607,320.806q.007-6.777.014-13.555c.4.148.316.5.316.8q.008,5.99,0,11.98c0,.293.087.65-.33.779" transform="translate(-187.769 -210.09)" fill="#196086"/>
    <path id="Trazado_736207" data-name="Trazado 736207" d="M289.791,307.227q.018,6.789.035,13.578c-.358-.171-.32-.505-.321-.811q0-6.044,0-12.088a.691.691,0,0,1,.285-.679" transform="translate(-197.955 -210.074)" fill="#113e56"/>
    <path id="Trazado_736208" data-name="Trazado 736208" d="M355.61,320.9l-.32-.04q0-6.719,0-13.438c.475.055.371.434.37.716q-.017,6.381-.053,12.763" transform="translate(-242.938 -210.208)" fill="#196086"/>
    <path id="Trazado_736209" data-name="Trazado 736209" d="M181.764,321.45c.006-3.812,0-7.624.024-11.436,0-.611-.165-1.262.273-1.814q.017,6.149.028,12.3c0,.338.143.759-.324.952" transform="translate(-124.282 -210.739)" fill="#8a7521"/>
    <path id="Trazado_736210" data-name="Trazado 736210" d="M197.094,322.679q-.026.148-.057.295c-.452-.3-.25-.756-.252-1.138q-.026-5.232,0-10.463c0-.453-.137-.947.247-1.334q.033,6.321.065,12.641" transform="translate(-134.527 -211.996)" fill="#196086"/>
    <path id="Trazado_736211" data-name="Trazado 736211" d="M120.875,374.705c-.088-2.556-.435-5.119.18-7.658-.1,2.552.208,5.113-.18,7.658" transform="translate(-82.53 -250.977)" fill="#8a7521"/>
    <path id="Trazado_736212" data-name="Trazado 736212" d="M115.992,92.747c.308.247.705.443.558.956-.616-.068-.559-.528-.558-.956" transform="translate(-79.312 -63.418)" fill="#0a0a0a"/>
    <path id="Trazado_736213" data-name="Trazado 736213" d="M117.651,97.766a.738.738,0,0,1,.574.631c-.336-.079-1.026.164-.574-.631" transform="translate(-80.345 -66.85)" fill="#0a0a0a"/>
    <path id="Trazado_736214" data-name="Trazado 736214" d="M201.679,246.948a.557.557,0,0,1,.652-.652.57.57,0,0,1-.652.652" transform="translate(-137.902 -168.41)" fill="#0a0a0a"/>
    <path id="Trazado_736215" data-name="Trazado 736215" d="M383.367,402.357c.511-.27.624.045.672.457-.326,0-.6-.081-.672-.457" transform="translate(-262.136 -275.052)" fill="#0a0a0a"/>
    <path id="Trazado_736216" data-name="Trazado 736216" d="M177.206,271.368c-.061.146-.112.305-.328.216l.328-.216" transform="translate(-120.945 -185.554)" fill="#0a0a0a"/>
    <path id="Trazado_736217" data-name="Trazado 736217" d="M485.478,164.876l-.336-.332.336.332" transform="translate(-331.727 -112.511)" fill="#e67968"/>
    <path id="Trazado_736218" data-name="Trazado 736218" d="M143.2,365.419l-.387.182.387-.182" transform="translate(-97.65 -249.864)" fill="#113e56"/>
    <path id="Trazado_736219" data-name="Trazado 736219" d="M358.72,365.568l-.408-.15.408.15" transform="translate(-245.004 -249.863)" fill="#113e56"/>
    <path id="Trazado_736220" data-name="Trazado 736220" d="M228.045,112.142l-.332-.252c.22-.06.289.078.332.252" transform="translate(-155.704 -76.498)" fill="#f29688"/>
    <path id="Trazado_736221" data-name="Trazado 736221" d="M145.956,252.874l.146-.243.109.253q-.127-.011-.255-.01" transform="translate(-99.801 -172.742)" fill="#0a0a0a"/>
    <path id="Trazado_736222" data-name="Trazado 736222" d="M326.477,239.779l.479-.215a.4.4,0,0,1-.479.215" transform="translate(-223.236 -163.808)" fill="#e67968"/>
    <path id="Trazado_736223" data-name="Trazado 736223" d="M355.631,233.748c.034.034.093.067.093.1s-.058.07-.09.1c-.034-.034-.093-.067-.094-.1s.058-.069.09-.1" transform="translate(-243.11 -159.831)" fill="#196086"/>
    <path id="Trazado_736224" data-name="Trazado 736224" d="M370.322,209.8l.227.012-.147.272a.371.371,0,0,1-.08-.284" transform="translate(-253.215 -143.458)" fill="#363433"/>
    <path id="Trazado_736225" data-name="Trazado 736225" d="M492.371,31.19c-.217.066-.288-.069-.331-.242l.331.242" transform="translate(-336.444 -21.161)" fill="#0a0a0a"/>
    <path id="Trazado_736226" data-name="Trazado 736226" d="M490.565,29.275c-.168-.039-.3-.1-.227-.315l.227.315" transform="translate(-335.266 -19.802)" fill="#0a0a0a"/>
    <path id="Trazado_736227" data-name="Trazado 736227" d="M85.077,179.508l.229.124-.225.236c0-.12,0-.239,0-.359" transform="translate(-58.173 -122.743)" fill="#0a0a0a"/>
    <path id="Trazado_736228" data-name="Trazado 736228" d="M356.307,205.915c.057-.163.122-.314.344-.223l-.344.223" transform="translate(-243.633 -140.628)" fill="#0a0a0a"/>
    <path id="Trazado_736229" data-name="Trazado 736229" d="M150.223,215.758a10.738,10.738,0,0,1-7.444-3.141,2.659,2.659,0,0,1-.265-3.644,2.731,2.731,0,0,1,3.506.276c2.6,2.361,5.567,2.336,8.285-.072a2.355,2.355,0,1,1,3.275,3.352,11.063,11.063,0,0,1-7.358,3.23" transform="translate(-97.035 -142.532)" fill="#060706"/>
    <path id="Trazado_736230" data-name="Trazado 736230" d="M200.8,173.855a3,3,0,1,1-5.992-.048,3,3,0,1,1,5.992.048" transform="translate(-133.205 -116.676)" fill="#060706"/>
    <path id="Trazado_736231" data-name="Trazado 736231" d="M124.967,171.582c2.252.009,3.012.8,3,3.117a3,3,0,1,1-6-.274c0-2,.9-2.852,3-2.844" transform="translate(-83.399 -117.323)" fill="#060706"/>
    <path id="Trazado_736232" data-name="Trazado 736232" d="M350.463,435.365a3.407,3.407,0,0,1,3.543-3.431,3.773,3.773,0,0,1,3.624,3.584,3.906,3.906,0,0,1-3.777,3.676,3.537,3.537,0,0,1-3.391-3.829" transform="translate(-239.637 -295.345)" fill="#060706"/>
    <path id="Trazado_736233" data-name="Trazado 736233" d="M191.808,435.544a3.5,3.5,0,0,1,3.579-3.607,3.662,3.662,0,0,1,3.686,3.588,4.056,4.056,0,0,1-3.84,3.672,3.792,3.792,0,0,1-3.426-3.654" transform="translate(-131.153 -295.347)" fill="#060706"/>
  </g>
</svg>
