<svg xmlns="http://www.w3.org/2000/svg" width="37.253" height="67" viewBox="0 0 37.253 67">
  <g id="Grupo_1014923" data-name="Grupo 1014923" transform="translate(37.253) rotate(90)">
    <g id="Grupo_78414" data-name="Grupo 78414" transform="translate(0 0)">
      <path id="Trazado_114078" data-name="Trazado 114078" d="M57.8,0c-2.635,0-3.936,2.821-4.981,5.089-1.059,2.294-1.776,3.7-3.125,3.7s-2.065-1.406-3.121-3.7C45.529,2.821,44.228,0,41.594,0s-3.936,2.821-4.981,5.089c-1.057,2.294-1.774,3.7-3.122,3.7s-2.064-1.406-3.121-3.7C29.324,2.821,28.023,0,25.389,0S21.454,2.823,20.41,5.09c-1.057,2.293-1.773,3.7-3.12,3.7s-2.063-1.406-3.12-3.7C13.126,2.821,11.826,0,9.192,0S5.258,2.821,4.213,5.09c-1.057,2.293-1.773,3.7-3.12,3.7C.49,8.79,0,9.446,0,10.254s.49,1.465,1.093,1.465c2.633,0,3.934-2.821,4.979-5.089,1.056-2.294,1.773-3.7,3.12-3.7s2.063,1.406,3.12,3.7c1.045,2.268,2.346,5.089,4.979,5.089S21.224,8.9,22.268,6.63c1.057-2.294,1.773-3.7,3.121-3.7s2.064,1.406,3.121,3.7c1.045,2.268,2.346,5.089,4.98,5.089S37.425,8.9,38.471,6.63c1.056-2.294,1.773-3.7,3.122-3.7s2.064,1.406,3.121,3.7c1.044,2.268,2.346,5.089,4.98,5.089S53.632,8.9,54.677,6.63c1.059-2.294,1.776-3.7,3.124-3.7s2.066,1.406,3.125,3.7c1.045,2.268,2.347,5.089,4.982,5.089.6,0,1.092-.655,1.092-1.465S66.512,8.79,65.908,8.79c-1.349,0-2.066-1.406-3.125-3.7C61.738,2.821,60.437,0,57.8,0Z" transform="translate(0 25.534)" fill="#6f88da"/>
      <path id="Trazado_114079" data-name="Trazado 114079" d="M57.8,0c-2.635,0-3.936,2.823-4.981,5.089-1.059,2.3-1.776,3.7-3.125,3.7s-2.065-1.406-3.121-3.7C45.529,2.823,44.228,0,41.594,0s-3.936,2.823-4.981,5.09c-1.057,2.294-1.774,3.7-3.122,3.7s-2.064-1.406-3.121-3.7C29.324,2.823,28.023,0,25.389,0S21.454,2.824,20.41,5.09c-1.057,2.294-1.773,3.7-3.12,3.7s-2.063-1.406-3.12-3.7C13.126,2.823,11.826,0,9.192,0S5.258,2.823,4.213,5.09c-1.057,2.294-1.773,3.7-3.12,3.7C.49,8.791,0,9.446,0,10.256s.49,1.465,1.093,1.465c2.633,0,3.934-2.823,4.979-5.09,1.056-2.293,1.773-3.7,3.12-3.7s2.063,1.406,3.12,3.7c1.045,2.268,2.346,5.09,4.979,5.09S21.224,8.9,22.268,6.63c1.057-2.293,1.773-3.7,3.121-3.7s2.064,1.406,3.121,3.7c1.045,2.268,2.346,5.09,4.98,5.09S37.425,8.9,38.471,6.63c1.056-2.293,1.773-3.7,3.122-3.7s2.064,1.406,3.121,3.7c1.044,2.268,2.346,5.09,4.98,5.09S53.632,8.9,54.677,6.63c1.059-2.293,1.776-3.7,3.124-3.7s2.066,1.406,3.125,3.7c1.045,2.268,2.347,5.09,4.982,5.09.6,0,1.092-.657,1.092-1.465s-.488-1.465-1.092-1.465c-1.349,0-2.066-1.406-3.125-3.7C61.738,2.823,60.437,0,57.8,0Z" transform="translate(0 12.765)" fill="#6f88da"/>
      <path id="Trazado_114080" data-name="Trazado 114080" d="M57.8,0c-2.635,0-3.936,2.821-4.981,5.089-1.059,2.294-1.776,3.7-3.125,3.7s-2.065-1.406-3.121-3.7C45.529,2.821,44.228,0,41.594,0s-3.936,2.821-4.981,5.089c-1.057,2.294-1.774,3.7-3.122,3.7s-2.064-1.406-3.121-3.7C29.324,2.821,28.023,0,25.389,0S21.454,2.821,20.41,5.089c-1.057,2.294-1.773,3.7-3.12,3.7s-2.063-1.406-3.12-3.7C13.126,2.821,11.826,0,9.192,0S5.258,2.821,4.213,5.089c-1.057,2.294-1.773,3.7-3.12,3.7C.49,8.79,0,9.444,0,10.254s.49,1.465,1.093,1.465c2.633,0,3.934-2.823,4.979-5.09,1.056-2.293,1.773-3.7,3.12-3.7s2.063,1.406,3.12,3.7c1.045,2.268,2.346,5.09,4.979,5.09S21.224,8.9,22.268,6.63c1.057-2.294,1.773-3.7,3.121-3.7s2.064,1.406,3.121,3.7c1.045,2.266,2.346,5.089,4.98,5.089S37.425,8.9,38.471,6.63c1.056-2.294,1.773-3.7,3.122-3.7s2.064,1.406,3.121,3.7c1.044,2.266,2.346,5.089,4.98,5.089S53.632,8.9,54.677,6.63c1.059-2.294,1.776-3.7,3.124-3.7s2.066,1.406,3.125,3.7c1.045,2.266,2.347,5.089,4.982,5.089.6,0,1.092-.657,1.092-1.465S66.512,8.79,65.908,8.79c-1.349,0-2.066-1.406-3.125-3.7C61.738,2.821,60.437,0,57.8,0Z" fill="#6f88da"/>
    </g>
  </g>
</svg>
