<svg id="Grupo_1015162" data-name="Grupo 1015162" xmlns="http://www.w3.org/2000/svg" xmlns:xlink="http://www.w3.org/1999/xlink" width="147.648" height="146.621" viewBox="0 0 147.648 146.621">
  <defs>
    <clipPath id="clip-path">
      <rect id="Rectángulo_352989" data-name="Rectángulo 352989" width="65" height="65" transform="translate(0.393 0.391)" fill="none"/>
    </clipPath>
  </defs>
  <g id="Grupo_156356" data-name="Grupo 156356" transform="translate(0 59.528)">
    <g id="Grupo_156332" data-name="Grupo 156332" transform="translate(0 0)">
      <path id="Trazado_99257" data-name="Trazado 99257" d="M419.7,105.4a2.748,2.748,0,1,1-2.747-2.624A2.688,2.688,0,0,1,419.7,105.4Z" transform="translate(-414.214 -102.779)" fill="#12263f"/>
      <path id="Trazado_116526" data-name="Trazado 116526" d="M419.7,105.4a2.748,2.748,0,1,1-2.747-2.624A2.688,2.688,0,0,1,419.7,105.4Z" transform="translate(-352.044 -102.779)" fill="#12263f"/>
      <path id="Trazado_99258" data-name="Trazado 99258" d="M428.151,105.4a2.748,2.748,0,1,1-2.744-2.624A2.687,2.687,0,0,1,428.151,105.4Z" transform="translate(-410.227 -102.779)" fill="#12263f"/>
      <path id="Trazado_116527" data-name="Trazado 116527" d="M428.151,105.4a2.748,2.748,0,1,1-2.744-2.624A2.687,2.687,0,0,1,428.151,105.4Z" transform="translate(-348.055 -102.779)" fill="#12263f"/>
      <path id="Trazado_99259" data-name="Trazado 99259" d="M436.6,105.4a2.748,2.748,0,1,1-2.744-2.624A2.687,2.687,0,0,1,436.6,105.4Z" transform="translate(-406.238 -102.779)" fill="#12263f"/>
      <path id="Trazado_116531" data-name="Trazado 116531" d="M436.6,105.4a2.748,2.748,0,1,1-2.744-2.624A2.687,2.687,0,0,1,436.6,105.4Z" transform="translate(-344.068 -102.779)" fill="#12263f"/>
      <path id="Trazado_99260" data-name="Trazado 99260" d="M445.044,105.4a2.748,2.748,0,1,1-2.747-2.624A2.687,2.687,0,0,1,445.044,105.4Z" transform="translate(-402.251 -102.779)" fill="#12263f"/>
      <path id="Trazado_116532" data-name="Trazado 116532" d="M445.044,105.4a2.748,2.748,0,1,1-2.747-2.624A2.687,2.687,0,0,1,445.044,105.4Z" transform="translate(-340.08 -102.779)" fill="#12263f"/>
      <path id="Trazado_99261" data-name="Trazado 99261" d="M453.49,105.4a2.748,2.748,0,1,1-2.744-2.624A2.687,2.687,0,0,1,453.49,105.4Z" transform="translate(-398.263 -102.779)" fill="#12263f"/>
    </g>
    <g id="Grupo_156331" data-name="Grupo 156331" transform="translate(0 13.639)">
      <ellipse id="Elipse_3975" data-name="Elipse 3975" cx="2.745" cy="2.625" rx="2.745" ry="2.625" transform="translate(0 0.001)" fill="#12263f"/>
      <ellipse id="Elipse_4742" data-name="Elipse 4742" cx="2.745" cy="2.625" rx="2.745" ry="2.625" transform="translate(62.171 0.001)" fill="#12263f"/>
      <path id="Trazado_99268" data-name="Trazado 99268" d="M428.151,112.911a2.748,2.748,0,1,1-2.744-2.624A2.688,2.688,0,0,1,428.151,112.911Z" transform="translate(-410.226 -110.287)" fill="#12263f"/>
      <path id="Trazado_116528" data-name="Trazado 116528" d="M428.151,112.911a2.748,2.748,0,1,1-2.744-2.624A2.688,2.688,0,0,1,428.151,112.911Z" transform="translate(-348.055 -110.287)" fill="#12263f"/>
      <ellipse id="Elipse_3976" data-name="Elipse 3976" cx="2.745" cy="2.625" rx="2.745" ry="2.625" transform="translate(24.868 0.001)" fill="#12263f"/>
      <ellipse id="Elipse_4743" data-name="Elipse 4743" cx="2.745" cy="2.625" rx="2.745" ry="2.625" transform="translate(87.039 0.001)" fill="#12263f"/>
      <path id="Trazado_99269" data-name="Trazado 99269" d="M445.044,112.911a2.748,2.748,0,1,1-2.747-2.624A2.689,2.689,0,0,1,445.044,112.911Z" transform="translate(-402.251 -110.287)" fill="#12263f"/>
      <path id="Trazado_116533" data-name="Trazado 116533" d="M445.044,112.911a2.748,2.748,0,1,1-2.747-2.624A2.689,2.689,0,0,1,445.044,112.911Z" transform="translate(-340.08 -110.287)" fill="#12263f"/>
      <path id="Trazado_99270" data-name="Trazado 99270" d="M453.49,112.911a2.748,2.748,0,1,1-2.744-2.624A2.688,2.688,0,0,1,453.49,112.911Z" transform="translate(-398.263 -110.287)" fill="#12263f"/>
    </g>
    <g id="Grupo_156330" data-name="Grupo 156330" transform="translate(0 27.279)">
      <path id="Trazado_99274" data-name="Trazado 99274" d="M419.7,120.421a2.748,2.748,0,1,1-2.747-2.627A2.689,2.689,0,0,1,419.7,120.421Z" transform="translate(-414.214 -117.794)" fill="#12263f"/>
      <path id="Trazado_116529" data-name="Trazado 116529" d="M419.7,120.421a2.748,2.748,0,1,1-2.747-2.627A2.689,2.689,0,0,1,419.7,120.421Z" transform="translate(-352.044 -117.794)" fill="#12263f"/>
      <path id="Trazado_99275" data-name="Trazado 99275" d="M428.151,120.421a2.748,2.748,0,1,1-2.744-2.627A2.688,2.688,0,0,1,428.151,120.421Z" transform="translate(-410.227 -117.794)" fill="#12263f"/>
      <path id="Trazado_116530" data-name="Trazado 116530" d="M428.151,120.421a2.748,2.748,0,1,1-2.744-2.627A2.688,2.688,0,0,1,428.151,120.421Z" transform="translate(-348.055 -117.794)" fill="#12263f"/>
      <path id="Trazado_99276" data-name="Trazado 99276" d="M436.6,120.421a2.748,2.748,0,1,1-2.744-2.627A2.689,2.689,0,0,1,436.6,120.421Z" transform="translate(-406.238 -117.794)" fill="#12263f"/>
      <path id="Trazado_116534" data-name="Trazado 116534" d="M436.6,120.421a2.748,2.748,0,1,1-2.744-2.627A2.689,2.689,0,0,1,436.6,120.421Z" transform="translate(-344.068 -117.794)" fill="#12263f"/>
      <path id="Trazado_99277" data-name="Trazado 99277" d="M445.044,120.421a2.748,2.748,0,1,1-2.747-2.627A2.689,2.689,0,0,1,445.044,120.421Z" transform="translate(-402.251 -117.794)" fill="#12263f"/>
      <path id="Trazado_116535" data-name="Trazado 116535" d="M445.044,120.421a2.748,2.748,0,1,1-2.747-2.627A2.689,2.689,0,0,1,445.044,120.421Z" transform="translate(-340.08 -117.794)" fill="#12263f"/>
      <path id="Trazado_99278" data-name="Trazado 99278" d="M453.49,120.421a2.748,2.748,0,1,1-2.744-2.627A2.688,2.688,0,0,1,453.49,120.421Z" transform="translate(-398.263 -117.794)" fill="#12263f"/>
    </g>
    <g id="Grupo_156327" data-name="Grupo 156327" transform="translate(0 68.2)">
      <path id="Trazado_116550" data-name="Trazado 116550" d="M419.7,120.421a2.748,2.748,0,1,1-2.747-2.627A2.689,2.689,0,0,1,419.7,120.421Z" transform="translate(-414.214 -117.794)" fill="#12263f"/>
      <path id="Trazado_116551" data-name="Trazado 116551" d="M419.7,120.421a2.748,2.748,0,1,1-2.747-2.627A2.689,2.689,0,0,1,419.7,120.421Z" transform="translate(-352.044 -117.794)" fill="#12263f"/>
      <path id="Trazado_116552" data-name="Trazado 116552" d="M428.151,120.421a2.748,2.748,0,1,1-2.744-2.627A2.688,2.688,0,0,1,428.151,120.421Z" transform="translate(-410.227 -117.794)" fill="#12263f"/>
      <path id="Trazado_116553" data-name="Trazado 116553" d="M428.151,120.421a2.748,2.748,0,1,1-2.744-2.627A2.688,2.688,0,0,1,428.151,120.421Z" transform="translate(-348.055 -117.794)" fill="#12263f"/>
      <path id="Trazado_116554" data-name="Trazado 116554" d="M436.6,120.421a2.748,2.748,0,1,1-2.744-2.627A2.689,2.689,0,0,1,436.6,120.421Z" transform="translate(-406.238 -117.794)" fill="#12263f"/>
      <path id="Trazado_116555" data-name="Trazado 116555" d="M436.6,120.421a2.748,2.748,0,1,1-2.744-2.627A2.689,2.689,0,0,1,436.6,120.421Z" transform="translate(-344.068 -117.794)" fill="#12263f"/>
      <path id="Trazado_116556" data-name="Trazado 116556" d="M445.044,120.421a2.748,2.748,0,1,1-2.747-2.627A2.689,2.689,0,0,1,445.044,120.421Z" transform="translate(-402.251 -117.794)" fill="#12263f"/>
      <path id="Trazado_116557" data-name="Trazado 116557" d="M445.044,120.421a2.748,2.748,0,1,1-2.747-2.627A2.689,2.689,0,0,1,445.044,120.421Z" transform="translate(-340.08 -117.794)" fill="#12263f"/>
      <path id="Trazado_116558" data-name="Trazado 116558" d="M453.49,120.421a2.748,2.748,0,1,1-2.744-2.627A2.688,2.688,0,0,1,453.49,120.421Z" transform="translate(-398.263 -117.794)" fill="#12263f"/>
    </g>
    <g id="Grupo_156329" data-name="Grupo 156329" transform="translate(0 40.92)">
      <ellipse id="Elipse_3980" data-name="Elipse 3980" cx="2.745" cy="2.625" rx="2.745" ry="2.625" transform="translate(0 0.002)" fill="#12263f"/>
      <ellipse id="Elipse_4744" data-name="Elipse 4744" cx="2.745" cy="2.625" rx="2.745" ry="2.625" transform="translate(62.171 0.002)" fill="#12263f"/>
      <path id="Trazado_99285" data-name="Trazado 99285" d="M428.151,127.929a2.748,2.748,0,1,1-2.744-2.627A2.686,2.686,0,0,1,428.151,127.929Z" transform="translate(-410.226 -125.302)" fill="#12263f"/>
      <path id="Trazado_116536" data-name="Trazado 116536" d="M428.151,127.929a2.748,2.748,0,1,1-2.744-2.627A2.686,2.686,0,0,1,428.151,127.929Z" transform="translate(-348.055 -125.302)" fill="#12263f"/>
      <ellipse id="Elipse_3981" data-name="Elipse 3981" cx="2.745" cy="2.625" rx="2.745" ry="2.625" transform="translate(24.868 0.002)" fill="#12263f"/>
      <ellipse id="Elipse_4745" data-name="Elipse 4745" cx="2.745" cy="2.625" rx="2.745" ry="2.625" transform="translate(87.039 0.002)" fill="#12263f"/>
      <path id="Trazado_99286" data-name="Trazado 99286" d="M445.044,127.929A2.748,2.748,0,1,1,442.3,125.3,2.687,2.687,0,0,1,445.044,127.929Z" transform="translate(-402.251 -125.302)" fill="#12263f"/>
      <path id="Trazado_116537" data-name="Trazado 116537" d="M445.044,127.929A2.748,2.748,0,1,1,442.3,125.3,2.687,2.687,0,0,1,445.044,127.929Z" transform="translate(-340.08 -125.302)" fill="#12263f"/>
      <path id="Trazado_99287" data-name="Trazado 99287" d="M453.49,127.929a2.748,2.748,0,1,1-2.744-2.627A2.686,2.686,0,0,1,453.49,127.929Z" transform="translate(-398.263 -125.302)" fill="#12263f"/>
    </g>
    <g id="Grupo_156326" data-name="Grupo 156326" transform="translate(0 81.843)">
      <ellipse id="Elipse_4754" data-name="Elipse 4754" cx="2.745" cy="2.625" rx="2.745" ry="2.625" transform="translate(0 0.001)" fill="#12263f"/>
      <ellipse id="Elipse_4750" data-name="Elipse 4750" cx="2.745" cy="2.625" rx="2.745" ry="2.625" transform="translate(62.171 0.001)" fill="#12263f"/>
      <path id="Trazado_116548" data-name="Trazado 116548" d="M428.151,127.929a2.748,2.748,0,1,1-2.744-2.627A2.686,2.686,0,0,1,428.151,127.929Z" transform="translate(-410.226 -125.302)" fill="#12263f"/>
      <path id="Trazado_116542" data-name="Trazado 116542" d="M428.151,127.929a2.748,2.748,0,1,1-2.744-2.627A2.686,2.686,0,0,1,428.151,127.929Z" transform="translate(-348.055 -125.302)" fill="#12263f"/>
      <ellipse id="Elipse_4751" data-name="Elipse 4751" cx="2.745" cy="2.625" rx="2.745" ry="2.625" transform="translate(24.868 0.001)" fill="#12263f"/>
      <ellipse id="Elipse_4752" data-name="Elipse 4752" cx="2.745" cy="2.625" rx="2.745" ry="2.625" transform="translate(87.039 0.001)" fill="#12263f"/>
      <path id="Trazado_116543" data-name="Trazado 116543" d="M445.044,127.929A2.748,2.748,0,1,1,442.3,125.3,2.687,2.687,0,0,1,445.044,127.929Z" transform="translate(-402.251 -125.302)" fill="#12263f"/>
      <path id="Trazado_116544" data-name="Trazado 116544" d="M445.044,127.929A2.748,2.748,0,1,1,442.3,125.3,2.687,2.687,0,0,1,445.044,127.929Z" transform="translate(-340.08 -125.302)" fill="#12263f"/>
      <path id="Trazado_116545" data-name="Trazado 116545" d="M453.49,127.929a2.748,2.748,0,1,1-2.744-2.627A2.686,2.686,0,0,1,453.49,127.929Z" transform="translate(-398.263 -125.302)" fill="#12263f"/>
    </g>
    <g id="Grupo_156328" data-name="Grupo 156328" transform="translate(0 54.561)">
      <ellipse id="Elipse_3985" data-name="Elipse 3985" cx="2.745" cy="2.625" rx="2.745" ry="2.625" transform="translate(0 0.001)" fill="#12263f"/>
      <ellipse id="Elipse_4746" data-name="Elipse 4746" cx="2.745" cy="2.625" rx="2.745" ry="2.625" transform="translate(62.171 0.001)" fill="#12263f"/>
      <path id="Trazado_99291" data-name="Trazado 99291" d="M428.151,135.437a2.748,2.748,0,1,1-2.744-2.627A2.686,2.686,0,0,1,428.151,135.437Z" transform="translate(-410.226 -132.81)" fill="#12263f"/>
      <path id="Trazado_116538" data-name="Trazado 116538" d="M428.151,135.437a2.748,2.748,0,1,1-2.744-2.627A2.686,2.686,0,0,1,428.151,135.437Z" transform="translate(-348.055 -132.81)" fill="#12263f"/>
      <ellipse id="Elipse_3986" data-name="Elipse 3986" cx="2.745" cy="2.625" rx="2.745" ry="2.625" transform="translate(24.868 0.001)" fill="#12263f"/>
      <ellipse id="Elipse_4747" data-name="Elipse 4747" cx="2.745" cy="2.625" rx="2.745" ry="2.625" transform="translate(87.039 0.001)" fill="#12263f"/>
      <path id="Trazado_99292" data-name="Trazado 99292" d="M445.044,135.437a2.748,2.748,0,1,1-2.747-2.627A2.687,2.687,0,0,1,445.044,135.437Z" transform="translate(-402.251 -132.81)" fill="#12263f"/>
      <path id="Trazado_116539" data-name="Trazado 116539" d="M445.044,135.437a2.748,2.748,0,1,1-2.747-2.627A2.687,2.687,0,0,1,445.044,135.437Z" transform="translate(-340.08 -132.81)" fill="#12263f"/>
      <path id="Trazado_99293" data-name="Trazado 99293" d="M453.49,135.437a2.748,2.748,0,1,1-2.744-2.627A2.686,2.686,0,0,1,453.49,135.437Z" transform="translate(-398.263 -132.81)" fill="#12263f"/>
    </g>
  </g>
  <g id="Grupo_1015138" data-name="Grupo 1015138" transform="translate(15.701 0)">
    <circle id="Elipse_8447" data-name="Elipse 8447" cx="65.974" cy="65.974" r="65.974" transform="translate(0)" fill="#6f88da"/>
    <circle id="Elipse_8448" data-name="Elipse 8448" cx="55.275" cy="55.275" r="55.275" transform="translate(10.698 10.698)" fill="#fff"/>
    <g id="Grupo_1019439" data-name="Grupo 1019439" transform="translate(35.555 27.792)">
      <g id="Grupo_1019438" data-name="Grupo 1019438" transform="translate(0 0.48)" clip-path="url(#clip-path)">
        <path id="Trazado_736363" data-name="Trazado 736363" d="M76.169,0h5.049a3.387,3.387,0,0,0-.459.335A1.231,1.231,0,0,0,80.422,1.8a1.226,1.226,0,0,0,1.282.785,1.238,1.238,0,0,0,1.157-.966c.179-.586-.1-1.093-.866-1.618h5.049c-.793.544-1.052,1.057-.85,1.68.211.649.688.911,1.66.912,1.337,0,2.674-.016,4.011.007a2.92,2.92,0,0,1,2.929,2.858q.038,7.86,0,15.721a2.929,2.929,0,0,1-2.954,2.9c-.755.01-1.51-.007-2.264,0-2.939.042-2.064-.354-4.192,1.738-.619.609-1.233,1.223-1.966,1.95,0-.784,0-1.383,0-1.981,0-1.266-.443-1.707-1.714-1.708q-5.3,0-10.61,0a2.95,2.95,0,0,1-3.078-3.1q-.006-7.634,0-15.268a2.958,2.958,0,0,1,3.134-3.112c1.531,0,3.062.006,4.593-.005a1.264,1.264,0,0,0,1.287-.972,1.263,1.263,0,0,0-.555-1.4c-.1-.075-.205-.143-.308-.214m.589,9.716c-.366,0-.733-.005-1.1,0A2.3,2.3,0,0,0,74.3,13.95c.537.4,1.065.809,1.63,1.16a.733.733,0,0,1,.364,1.05c-.258.635-.45,1.3-.645,1.957a2.291,2.291,0,0,0,3.614,2.561,20.087,20.087,0,0,0,1.664-1.223.659.659,0,0,1,1,.011c.575.453,1.164.89,1.77,1.3A2.28,2.28,0,0,0,87.2,18.215c-.208-.723-.426-1.445-.688-2.149a.613.613,0,0,1,.264-.859c.627-.417,1.234-.867,1.832-1.325a2.3,2.3,0,0,0,.854-2.586,2.326,2.326,0,0,0-2.22-1.575c-.754-.017-1.509-.026-2.263,0a.578.578,0,0,1-.685-.49c-.216-.764-.462-1.522-.742-2.264a2.267,2.267,0,0,0-4.271-.012c-.159.4-.274.815-.4,1.224-.493,1.535-.492,1.535-2.113,1.538" transform="translate(-59.209 -0.501)" fill="#dee4f0"/>
        <path id="Trazado_736364" data-name="Trazado 736364" d="M58.754,0c.1.071.208.14.308.214a1.263,1.263,0,0,1,.555,1.4,1.264,1.264,0,0,1-1.287.972c-1.531.012-3.062,0-4.593.005A2.958,2.958,0,0,0,50.6,5.707q-.007,7.634,0,15.268a2.949,2.949,0,0,0,3.078,3.1q5.3.009,10.61,0c1.271,0,1.711.442,1.714,1.708,0,.6,0,1.2,0,1.981.733-.727,1.346-1.342,1.966-1.95,2.129-2.092,1.253-1.7,4.192-1.738.755-.011,1.51.006,2.264,0a2.929,2.929,0,0,0,2.954-2.9q.034-7.86,0-15.721A2.92,2.92,0,0,0,74.45,2.6c-1.337-.023-2.674-.006-4.011-.007-.972,0-1.449-.263-1.66-.912-.2-.624.057-1.137.85-1.681H75.2A6.764,6.764,0,0,1,78.12,1.413,5.8,5.8,0,0,1,80.007,5.7h.733q8.026,0,16.053,0a4.861,4.861,0,0,1,5.07,5.092q0,6.344,0,12.687a4.825,4.825,0,0,1-4.953,5.005c-2.8.017-5.61.006-8.414.008a1.351,1.351,0,0,0-.181.033,4.215,4.215,0,0,0-.053.47c-.006.841-.017,1.683,0,2.524a1.369,1.369,0,0,1-2.493,1c-1.211-1.23-2.426-2.456-3.67-3.652a1.514,1.514,0,0,0-.884-.369c-1.158-.079-2.326-.038-3.479-.153a4.414,4.414,0,0,1-2.464-1.319,1.415,1.415,0,0,0-.822-.345c-1.013-.04-2.028.007-3.041-.024a1.327,1.327,0,0,0-1.071.453q-2.292,2.329-4.621,4.622A1.272,1.272,0,0,1,63.5,31.4a2.035,2.035,0,0,1-.089-.7c-.008-1.313,0-2.626,0-4.037h-.728c-3,0-6,0-9,0a5.524,5.524,0,0,1-5.674-5.679q0-7.573,0-15.146A5.51,5.51,0,0,1,52.633.094.644.644,0,0,0,52.8,0ZM85.329,28.488l.239-.141c0-.269-.009-.538,0-.806.049-1.251.5-1.684,1.762-1.684q4.691,0,9.383,0a2.31,2.31,0,0,0,2.525-2.532q0-6.18,0-12.36a2.358,2.358,0,0,0-2.622-2.643q-7.927,0-15.854,0H80.02v.715q0,6.05,0,12.1a5.55,5.55,0,0,1-1.861,4.178c-.1.091-.177.2-.344.386a11.471,11.471,0,0,0,1.182.15c.992.018,1.985.028,2.976,0a1.784,1.784,0,0,1,1.49.615c.611.683,1.24,1.35,1.861,2.024" transform="translate(-41.794 -0.501)" fill="#12263f"/>
        <path id="Trazado_736365" data-name="Trazado 736365" d="M0,293.431c.147-.625.255-1.262.447-1.873A10,10,0,0,1,9.8,284.5c.119,0,.238-.014.229-.014a14.35,14.35,0,0,1-1.238-3.2c-.361-2.685-.627-5.419.926-7.906a7.293,7.293,0,0,1,7.658-3.222,7.123,7.123,0,0,1,5.616,6.1,13.589,13.589,0,0,1-.352,6.016,22.123,22.123,0,0,1-1.1,2.2A10.064,10.064,0,0,1,31.578,294.4c.054,1.723-.025,3.45.024,5.173a1.746,1.746,0,0,1-.919,1.754H0v-7.9m2.524,5.256H29.04c-.067-1.859-.025-3.694-.221-5.5a7.153,7.153,0,0,0-6.153-5.936c-1.759-.129-3.53-.1-5.3-.134a1.03,1.03,0,0,0-.263.074c0,.75,0,1.481,0,2.213-.007.932-.508,1.469-1.349,1.457a1.3,1.3,0,0,1-1.277-1.467c0-.746,0-1.493,0-2.259-1.7,0-3.32-.095-4.926.02a7.12,7.12,0,0,0-6.722,5.792,46.545,46.545,0,0,0-.308,5.743m8.6-20.19.138.014c0,.56-.031,1.123.005,1.68a4.583,4.583,0,0,0,4.32,4.279,4.511,4.511,0,0,0,4.705-3.525,19.769,19.769,0,0,0,.154-3.8,4.588,4.588,0,0,0-8.924-1.442,16.666,16.666,0,0,0-.4,2.789" transform="translate(0 -235.543)" fill="#12263f"/>
        <path id="Trazado_736366" data-name="Trazado 736366" d="M268.811,301.336a1.739,1.739,0,0,1-.919-1.754c.05-1.595.015-3.192.015-4.789a9.989,9.989,0,0,1,9.961-10.289.834.834,0,0,0,.127-.023c.009-.039.038-.094.022-.115a7.785,7.785,0,0,1-1.563-5.4,21.606,21.606,0,0,1,.273-3.525,7.184,7.184,0,0,1,14.072.664,21.116,21.116,0,0,1-.042,5.145,13.919,13.919,0,0,1-1.23,3.2c.6.085,1.378.149,2.137.311a9.929,9.929,0,0,1,7.716,8.312,2.3,2.3,0,0,0,.115.365v7.9Zm13.59-14.218c-1.735,0-3.4-.087-5.045.018a7.213,7.213,0,0,0-6.721,6.258,44.954,44.954,0,0,0-.136,4.71c0,.2,0,.408,0,.6h26.269a48.188,48.188,0,0,0-.04-5.572,7.026,7.026,0,0,0-6.053-5.883c-1.836-.185-3.7-.095-5.55-.124-.032,0-.064.051-.127.1,0,.728.009,1.482,0,2.236a1.3,1.3,0,1,1-2.592,0c-.01-.753,0-1.506,0-2.342m-3.439-8.6.092.012c0,.41,0,.82,0,1.23a4.7,4.7,0,0,0,4.4,4.721,4.556,4.556,0,0,0,4.785-3.98,18.192,18.192,0,0,0,.084-3.419,4.64,4.64,0,0,0-4.246-4.454,4.589,4.589,0,0,0-4.772,3.282,16.639,16.639,0,0,0-.343,2.608" transform="translate(-233.208 -235.551)" fill="#12263f"/>
        <path id="Trazado_736367" data-name="Trazado 736367" d="M164.636,0c.762.525,1.045,1.031.866,1.618a1.238,1.238,0,0,1-1.157.966,1.226,1.226,0,0,1-1.282-.785A1.231,1.231,0,0,1,163.4.335,3.378,3.378,0,0,1,163.859,0Z" transform="translate(-141.85 -0.501)" fill="#1a1818"/>
        <path id="Trazado_736368" data-name="Trazado 736368" d="M111.891,46.39c1.621,0,1.62,0,2.113-1.538.131-.409.246-.825.4-1.224a2.267,2.267,0,0,1,4.271.012c.281.742.527,1.5.742,2.264a.578.578,0,0,0,.685.49c.753-.026,1.509-.017,2.263,0a2.326,2.326,0,0,1,2.22,1.575,2.3,2.3,0,0,1-.854,2.586c-.6.458-1.2.908-1.832,1.325a.613.613,0,0,0-.264.859c.263.7.48,1.426.688,2.149a2.28,2.28,0,0,1-3.507,2.554c-.605-.412-1.195-.849-1.77-1.3a.659.659,0,0,0-1-.011,20.111,20.111,0,0,1-1.664,1.223,2.291,2.291,0,0,1-3.614-2.561c.2-.659.387-1.323.646-1.957a.733.733,0,0,0-.364-1.05c-.566-.351-1.093-.764-1.63-1.16a2.3,2.3,0,0,1,1.363-4.233c.366-.006.733,0,1.1,0m1.677,8.3c.748-.543,1.339-.971,1.928-1.4a1.441,1.441,0,0,1,2.1,0l1.908,1.394c-.276-.852-.5-1.542-.723-2.233a1.457,1.457,0,0,1,.64-2c.606-.445,1.21-.893,1.943-1.433-.945,0-1.7.006-2.453,0-1-.009-1.331-.259-1.642-1.21-.228-.7-.453-1.4-.7-2.146a1.226,1.226,0,0,0-.114.179q-.312.947-.62,1.895c-.343,1.054-.664,1.286-1.783,1.285h-2.142a15.306,15.306,0,0,0,1.8,1.457,1.442,1.442,0,0,1,.619,1.9c-.226.711-.466,1.418-.764,2.318" transform="translate(-94.343 -37.175)" fill="#1a1818"/>
        <path id="Trazado_736369" data-name="Trazado 736369" d="M285.782,84.445c-.621-.674-1.25-1.341-1.861-2.025a1.784,1.784,0,0,0-1.49-.615c-.991.033-1.984.022-2.976,0a11.466,11.466,0,0,1-1.182-.15c.166-.188.247-.3.344-.386a5.55,5.55,0,0,0,1.861-4.178q-.011-6.05,0-12.1v-.714h.744q7.927,0,15.854,0a2.358,2.358,0,0,1,2.622,2.643q0,6.18,0,12.36a2.31,2.31,0,0,1-2.525,2.532q-4.691,0-9.383,0c-1.257,0-1.714.432-1.762,1.684-.01.268,0,.537,0,.806l-.239.141m2.493-10.058v0c1.078,0,2.157.011,3.235,0a1.337,1.337,0,1,0-.029-2.67q-3.138-.012-6.275,0a1.3,1.3,0,0,0-1.431,1.321,1.276,1.276,0,0,0,1.395,1.349c1.035.013,2.07,0,3.105,0" transform="translate(-242.247 -56.458)" fill="#6f88da"/>
        <path id="Trazado_736370" data-name="Trazado 736370" d="M19.493,413.649a46.566,46.566,0,0,1,.308-5.743,7.12,7.12,0,0,1,6.722-5.792c1.606-.114,3.227-.02,4.926-.02,0,.766,0,1.513,0,2.259a1.3,1.3,0,0,0,1.277,1.467c.841.012,1.342-.524,1.349-1.457.005-.732,0-1.463,0-2.213a1.043,1.043,0,0,1,.263-.074c1.766.036,3.537.006,5.3.134a7.152,7.152,0,0,1,6.152,5.936c.2,1.808.155,3.642.221,5.5Z" transform="translate(-16.969 -350.506)" fill="#4adbd1"/>
        <path id="Trazado_736371" data-name="Trazado 736371" d="M85.9,296a16.666,16.666,0,0,1,.4-2.789,4.588,4.588,0,0,1,8.924,1.442,19.768,19.768,0,0,1-.154,3.8,4.511,4.511,0,0,1-4.705,3.525,4.583,4.583,0,0,1-4.32-4.279c-.037-.558-.005-1.12-.005-1.68L85.9,296" transform="translate(-74.779 -253.043)" fill="#f6f6f6"/>
        <path id="Trazado_736372" data-name="Trazado 736372" d="M299.925,401.945c0,.836-.008,1.589,0,2.342a1.3,1.3,0,1,0,2.592,0c.012-.753,0-1.507,0-2.235.062-.053.1-.1.127-.1,1.851.029,3.714-.062,5.55.124a7.025,7.025,0,0,1,6.053,5.883,48.188,48.188,0,0,1,.04,5.572H288.022c0-.192,0-.4,0-.6a44.975,44.975,0,0,1,.136-4.71,7.213,7.213,0,0,1,6.721-6.258c1.649-.106,3.31-.018,5.045-.018" transform="translate(-250.732 -350.379)" fill="#219cd5"/>
        <path id="Trazado_736373" data-name="Trazado 736373" d="M353.408,295.969a16.65,16.65,0,0,1,.343-2.608,4.589,4.589,0,0,1,4.772-3.282,4.64,4.64,0,0,1,4.246,4.454,18.19,18.19,0,0,1-.084,3.419,4.556,4.556,0,0,1-4.785,3.98,4.7,4.7,0,0,1-4.4-4.721c-.006-.41,0-.82,0-1.23l-.092-.012" transform="translate(-307.654 -253.003)" fill="#f6f6f6"/>
        <path id="Trazado_736374" data-name="Trazado 736374" d="M137.359,78.408c.3-.9.538-1.606.764-2.318a1.442,1.442,0,0,0-.619-1.9,15.309,15.309,0,0,1-1.8-1.457h2.142c1.119,0,1.44-.231,1.783-1.285q.308-.948.62-1.895a1.226,1.226,0,0,1,.114-.179c.243.749.467,1.448.7,2.146.311.951.646,1.2,1.642,1.21.754.007,1.508,0,2.453,0-.733.541-1.337.988-1.943,1.433a1.457,1.457,0,0,0-.64,2c.223.691.447,1.381.723,2.233L141.383,77a1.441,1.441,0,0,0-2.1,0c-.589.431-1.18.858-1.928,1.4" transform="translate(-118.133 -60.894)" fill="#ffca28"/>
        <path id="Trazado_736375" data-name="Trazado 736375" d="M325.272,124.354c-1.035,0-2.07.01-3.105,0A1.275,1.275,0,0,1,320.772,123a1.3,1.3,0,0,1,1.431-1.321q3.138-.008,6.275,0a1.337,1.337,0,1,1,.028,2.67c-1.078.014-2.156,0-3.235,0Z" transform="translate(-279.244 -106.426)" fill="#1a1818"/>
      </g>
    </g>
  </g>
</svg>
