<svg xmlns="http://www.w3.org/2000/svg" xmlns:xlink="http://www.w3.org/1999/xlink" width="307.018" height="214.547" viewBox="0 0 307.018 214.547">
  <defs>
    <filter id="Rectángulo_352952" x="0" y="0" width="307.018" height="214.547" filterUnits="userSpaceOnUse">
      <feOffset dy="3" input="SourceAlpha"/>
      <feGaussianBlur stdDeviation="3" result="blur"/>
      <feFlood flood-opacity="0.161"/>
      <feComposite operator="in" in2="blur"/>
      <feComposite in="SourceGraphic"/>
    </filter>
    <clipPath id="clip-path">
      <rect id="Rectángulo_56651" data-name="Rectángulo 56651" width="53.2" height="54.231" fill="#12263f"/>
    </clipPath>
  </defs>
  <g id="Grupo_1019477" data-name="Grupo 1019477" transform="translate(-962.396 -12560.352)">
    <g transform="matrix(1, 0, 0, 1, 962.4, 12560.35)" filter="url(#Rectángulo_352952)">
      <rect id="Rectángulo_352952-2" data-name="Rectángulo 352952" width="289.018" height="196.547" rx="10" transform="translate(9 6)" fill="#f6f6f6"/>
    </g>
    <g id="Grupo_1019351" data-name="Grupo 1019351" transform="translate(1069.67 12586.018)">
      <ellipse id="Elipse_4870" data-name="Elipse 4870" cx="46.5" cy="47" rx="46.5" ry="47" transform="translate(-0.275 0.334)" fill="#4adbd1"/>
      <g id="Grupo_179734" data-name="Grupo 179734" transform="translate(17.231 16.734)">
        <g id="Grupo_176137" data-name="Grupo 176137" clip-path="url(#clip-path)">
          <path id="Trazado_218549" data-name="Trazado 218549" d="M53.2,52.112a2.726,2.726,0,0,1-2.058,2.051,3.613,3.613,0,0,1-.735.064q-17.264,0-34.528,0a2.611,2.611,0,0,1-2.818-2.849q0-4.872,0-9.745v-.682c-.2.187-.344.3-.472.432-1.337,1.334-2.656,2.687-4.011,4a4.977,4.977,0,0,1-8.14-1.537,4.682,4.682,0,0,1,.922-5.312C3.786,36,6.3,33.549,8.793,31.071c.547-.544,1.032-.489,1.8.16.741-.741,1.491-1.48,2.221-2.239a.47.47,0,0,0,.022-.41,10.894,10.894,0,0,1,.121-9.226,1.649,1.649,0,0,0,.1-.666q.009-5.614,0-11.227a2.629,2.629,0,0,1,2.9-2.882l8.473-.007h.59c.022-.407.022-.758.065-1.1A3.83,3.83,0,0,1,28.071.1a1.779,1.779,0,0,0,.239-.1h9.638a1.062,1.062,0,0,0,.186.088,3.865,3.865,0,0,1,3.074,3.8c.006.22,0,.44,0,.69h.716q4.258,0,8.515.008A2.586,2.586,0,0,1,53,6.2c.07.157.136.317.2.476V36.33c-.085.106-.165.217-.256.318a1,1,0,0,1-1.094.336,1.008,1.008,0,0,1-.761-.915,4.918,4.918,0,0,1-.01-.582q0-13.925,0-27.85c0-.863-.074-.938-.927-.938H46.644c0,.444.005.843,0,1.242a3.148,3.148,0,0,1-3.2,3.181q-10.324.011-20.649,0a3.148,3.148,0,0,1-3.18-3.145c-.007-.4,0-.8,0-1.277-1.049,0-2.05.008-3.05,0-1.486-.014-1.392-.024-1.389,1.379.006,2.524,0,5.048,0,7.571v.6c.195-.155.313-.247.429-.341,3.366-2.724,7.114-3.495,11.137-1.827a10.4,10.4,0,0,1,6.763,9.162A10.735,10.735,0,0,1,21.626,34.854a27.323,27.323,0,0,1-3.219-.784.7.7,0,0,0-.54.043c-.747.7-1.464,1.428-2.2,2.161.073.1.118.171.173.236a1.042,1.042,0,0,1-.059,1.664,1.809,1.809,0,0,0-.613,1.52c.03,3.865.014,7.73.015,11.6,0,.729.093.822.822.822H50.257c.728,0,.822-.094.822-.823q0-2.833,0-5.665c0-.787.242-1.208.766-1.345.561-.147.954.067,1.354.737ZM22.639,32.786a8.665,8.665,0,0,0,8.81-8.665,8.719,8.719,0,0,0-17.438-.111,8.628,8.628,0,0,0,8.628,8.775M44.521,6.692h-.578c-1.217,0-2.435,0-3.652,0-.82,0-1.186-.376-1.2-1.2-.007-.494,0-.988,0-1.482A1.755,1.755,0,0,0,37.2,2.12q-4.075-.007-8.151,0a1.752,1.752,0,0,0-1.886,1.886c-.008.494,0,.988,0,1.482-.012.826-.379,1.2-1.2,1.2-1.217.007-2.435,0-3.652,0h-.583c0,.334,0,.58,0,.826,0,1.207.283,1.489,1.5,1.489H43.025c.159,0,.318.006.476,0A1.014,1.014,0,0,0,44.517,8c.019-.4,0-.809,0-1.3M9.55,33.294,3.308,39.547c-.174.175-.355.345-.513.534A2.87,2.87,0,0,0,7.141,43.83q3.117-3.094,6.213-6.211c.094-.094.172-.2.242-.288L9.55,33.294m6.425-.417-1.887-1.964-1.843,1.829,1.933,1.936,1.8-1.8" transform="translate(0)" fill="#12263f"/>
          <path id="Trazado_218550" data-name="Trazado 218550" d="M483.465,374.531c-.294.4-.6.782-1.176.709a1.083,1.083,0,0,1-.934-.931,1.07,1.07,0,0,1,.655-1.092,1.053,1.053,0,0,1,1.256.377c.071.1.133.2.2.3Z" transform="translate(-430.265 -333.54)" fill="#12263f"/>
          <path id="Trazado_218551" data-name="Trazado 218551" d="M185.921,358.248a5.751,5.751,0,0,1,5.431-6.02c.785-.017,1.256.36,1.271,1.014s-.421,1.05-1.214,1.1a3.537,3.537,0,1,0,3.226,5.316c.089-.152.158-.315.243-.469a1.054,1.054,0,1,1,1.9.905,5.289,5.289,0,0,1-1.933,2.4,5.454,5.454,0,0,1-5.858.4,5.391,5.391,0,0,1-3.07-4.641" transform="translate(-166.19 -314.847)" fill="#12263f"/>
          <path id="Trazado_218552" data-name="Trazado 218552" d="M331.412,370.818q2.325,0,4.651,0a1.026,1.026,0,0,1,1.079.76.92.92,0,0,1-.38,1.114,1.815,1.815,0,0,1-.895.231c-1.162.026-2.325.011-3.488.011H327.2a5.049,5.049,0,0,1-.528-.015,1.048,1.048,0,0,1-1.019-1.068,1.02,1.02,0,0,1,1.056-1.024c1.092-.024,2.184-.01,3.276-.011h1.427Z" transform="translate(-291.092 -331.46)" fill="#12263f"/>
          <path id="Trazado_218553" data-name="Trazado 218553" d="M337.913,190.586c1.394,0,2.787,0,4.181,0,.781,0,1.259.4,1.27,1.038s-.489,1.077-1.288,1.078q-4.128,0-8.255,0c-.785,0-1.252-.394-1.261-1.043-.009-.68.451-1.071,1.279-1.073,1.358,0,2.716,0,4.075,0" transform="translate(-297.265 -170.359)" fill="#12263f"/>
          <path id="Trazado_218554" data-name="Trazado 218554" d="M221.939,369.094c1.03-1.032,1.949-1.953,2.869-2.873.719-.719,1.321-.816,1.821-.3.483.5.381,1.092-.311,1.785q-1.684,1.685-3.37,3.368a1.132,1.132,0,0,1-1.863-.007c-.4-.4-.806-.792-1.2-1.2a1.071,1.071,0,0,1-.055-1.556,1.043,1.043,0,0,1,1.551.076,7.078,7.078,0,0,1,.554.7" transform="translate(-196.228 -326.797)" fill="#12263f"/>
          <path id="Trazado_218555" data-name="Trazado 218555" d="M329.776,418.13c.97,0,1.94-.006,2.91,0a1.066,1.066,0,1,1,.008,2.114q-2.936.009-5.873,0a1.062,1.062,0,1,1-.008-2.113c.988-.009,1.975,0,2.963,0" transform="translate(-291.088 -373.753)" fill="#12263f"/>
          <path id="Trazado_218556" data-name="Trazado 218556" d="M336.325,239.949c-.863,0-1.725.009-2.588,0-.742-.01-1.186-.42-1.182-1.058a1.064,1.064,0,0,1,1.2-1.053q2.562-.017,5.123,0a1.064,1.064,0,1,1-.015,2.11c-.845.011-1.69,0-2.535,0" transform="translate(-297.262 -212.587)" fill="#12263f"/>
          <path id="Trazado_218557" data-name="Trazado 218557" d="M169.487,199.589c1.621-1.624,3.173-3.187,4.737-4.739a1.056,1.056,0,0,1,1.769.207.976.976,0,0,1-.18,1.175q-2.773,2.8-5.571,5.572a1.007,1.007,0,0,1-1.512-.028q-1.345-1.309-2.655-2.655a1.053,1.053,0,1,1,1.484-1.491c.645.625,1.261,1.278,1.929,1.959" transform="translate(-148.144 -173.829)" fill="#12263f"/>
          <path id="Trazado_218558" data-name="Trazado 218558" d="M287.107,42.454c.616,0,1.232-.013,1.847,0a1.062,1.062,0,0,1,1.138,1.059,1.049,1.049,0,0,1-1.1,1.043q-1.9.034-3.8,0a1.041,1.041,0,0,1-1.085-1.058,1.067,1.067,0,0,1,1.1-1.044c.035,0,.07,0,.105,0h1.794" transform="translate(-253.955 -37.945)" fill="#12263f"/>
        </g>
      </g>
    </g>
    <path id="Trazado_736470" data-name="Trazado 736470" d="M41.563,4.852H37.906V15H36.414V4.852H32.766V3.625h8.8Zm4.961,2.992a4.331,4.331,0,0,0-.711-.055A1.9,1.9,0,0,0,43.883,9v6H42.438V6.547h1.406l.023.977a2.251,2.251,0,0,1,2.016-1.133,1.477,1.477,0,0,1,.641.109Zm4.688,7.313a3.693,3.693,0,0,1-2.8-1.129,4.19,4.19,0,0,1-1.078-3.02v-.266a5.073,5.073,0,0,1,.48-2.246A3.748,3.748,0,0,1,49.16,6.949a3.378,3.378,0,0,1,1.871-.559,3.166,3.166,0,0,1,2.563,1.086,4.7,4.7,0,0,1,.914,3.109v.6H48.781a3,3,0,0,0,.73,2.02,2.3,2.3,0,0,0,1.777.77,2.517,2.517,0,0,0,1.3-.312,3.259,3.259,0,0,0,.93-.828l.883.688A3.55,3.55,0,0,1,51.211,15.156Zm-.18-7.578a1.928,1.928,0,0,0-1.469.637A3.1,3.1,0,0,0,48.828,10h4.234V9.891a2.753,2.753,0,0,0-.594-1.707A1.815,1.815,0,0,0,51.031,7.578Zm10.07,5.18a1.064,1.064,0,0,0-.441-.91,4.249,4.249,0,0,0-1.539-.559,7.277,7.277,0,0,1-1.742-.562,2.479,2.479,0,0,1-.953-.781,1.869,1.869,0,0,1-.309-1.078A2.193,2.193,0,0,1,57,7.109a3.432,3.432,0,0,1,2.246-.719,3.532,3.532,0,0,1,2.332.742,2.357,2.357,0,0,1,.895,1.9H61.016a1.3,1.3,0,0,0-.5-1.023,1.888,1.888,0,0,0-1.27-.43,1.976,1.976,0,0,0-1.234.344,1.082,1.082,0,0,0-.445.9.877.877,0,0,0,.414.789,5.1,5.1,0,0,0,1.5.508,7.8,7.8,0,0,1,1.754.578,2.558,2.558,0,0,1,1,.809,1.988,1.988,0,0,1,.324,1.152,2.163,2.163,0,0,1-.906,1.816,3.8,3.8,0,0,1-2.352.684,4.257,4.257,0,0,1-1.8-.359,2.922,2.922,0,0,1-1.223-1,2.42,2.42,0,0,1-.441-1.395h1.445a1.5,1.5,0,0,0,.582,1.152,2.258,2.258,0,0,0,1.434.426,2.331,2.331,0,0,0,1.316-.332A1.02,1.02,0,0,0,61.1,12.758Zm12.211,0a1.064,1.064,0,0,0-.441-.91,4.249,4.249,0,0,0-1.539-.559,7.277,7.277,0,0,1-1.742-.562,2.479,2.479,0,0,1-.953-.781,1.869,1.869,0,0,1-.309-1.078,2.193,2.193,0,0,1,.879-1.758,3.432,3.432,0,0,1,2.246-.719,3.532,3.532,0,0,1,2.332.742,2.357,2.357,0,0,1,.895,1.9H73.227a1.3,1.3,0,0,0-.5-1.023,1.888,1.888,0,0,0-1.27-.43,1.976,1.976,0,0,0-1.234.344,1.082,1.082,0,0,0-.445.9.877.877,0,0,0,.414.789,5.1,5.1,0,0,0,1.5.508,7.8,7.8,0,0,1,1.754.578,2.558,2.558,0,0,1,1,.809,1.988,1.988,0,0,1,.324,1.152,2.163,2.163,0,0,1-.906,1.816,3.8,3.8,0,0,1-2.352.684,4.257,4.257,0,0,1-1.8-.359,2.922,2.922,0,0,1-1.223-1,2.42,2.42,0,0,1-.441-1.395h1.445a1.5,1.5,0,0,0,.582,1.152,2.258,2.258,0,0,0,1.434.426,2.331,2.331,0,0,0,1.316-.332A1.02,1.02,0,0,0,73.313,12.758Zm6.836,2.4a3.693,3.693,0,0,1-2.8-1.129,4.19,4.19,0,0,1-1.078-3.02v-.266a5.073,5.073,0,0,1,.48-2.246A3.748,3.748,0,0,1,78.1,6.949a3.378,3.378,0,0,1,1.871-.559,3.166,3.166,0,0,1,2.563,1.086,4.7,4.7,0,0,1,.914,3.109v.6H77.719a3,3,0,0,0,.73,2.02,2.3,2.3,0,0,0,1.777.77,2.517,2.517,0,0,0,1.3-.312,3.259,3.259,0,0,0,.93-.828l.883.688A3.55,3.55,0,0,1,80.148,15.156Zm-.18-7.578a1.928,1.928,0,0,0-1.469.637A3.1,3.1,0,0,0,77.766,10H82V9.891a2.753,2.753,0,0,0-.594-1.707A1.815,1.815,0,0,0,79.969,7.578Zm10.07,5.18a1.064,1.064,0,0,0-.441-.91,4.249,4.249,0,0,0-1.539-.559,7.277,7.277,0,0,1-1.742-.562,2.479,2.479,0,0,1-.953-.781,1.869,1.869,0,0,1-.309-1.078,2.193,2.193,0,0,1,.879-1.758,3.432,3.432,0,0,1,2.246-.719,3.532,3.532,0,0,1,2.332.742,2.357,2.357,0,0,1,.895,1.9H89.953a1.3,1.3,0,0,0-.5-1.023,1.888,1.888,0,0,0-1.27-.43,1.976,1.976,0,0,0-1.234.344,1.082,1.082,0,0,0-.445.9.877.877,0,0,0,.414.789,5.1,5.1,0,0,0,1.5.508,7.8,7.8,0,0,1,1.754.578,2.558,2.558,0,0,1,1,.809,1.988,1.988,0,0,1,.324,1.152,2.163,2.163,0,0,1-.906,1.816,3.8,3.8,0,0,1-2.352.684,4.257,4.257,0,0,1-1.8-.359,2.922,2.922,0,0,1-1.223-1,2.42,2.42,0,0,1-.441-1.395h1.445a1.5,1.5,0,0,0,.582,1.152,2.258,2.258,0,0,0,1.434.426,2.331,2.331,0,0,0,1.316-.332A1.02,1.02,0,0,0,90.039,12.758ZM94.938,15H93.492V6.547h1.445ZM93.375,4.3a.863.863,0,0,1,.215-.594.807.807,0,0,1,.637-.242.819.819,0,0,1,.641.242.854.854,0,0,1,.219.594.826.826,0,0,1-.219.586.834.834,0,0,1-.641.234.821.821,0,0,1-.637-.234A.834.834,0,0,1,93.375,4.3ZM96.867,10.7a4.993,4.993,0,0,1,.488-2.234A3.643,3.643,0,0,1,98.715,6.93a3.7,3.7,0,0,1,1.988-.539,3.565,3.565,0,0,1,2.793,1.2,4.6,4.6,0,0,1,1.066,3.18v.1a5.036,5.036,0,0,1-.473,2.215,3.589,3.589,0,0,1-1.352,1.527,3.743,3.743,0,0,1-2.02.547,3.556,3.556,0,0,1-2.785-1.2A4.575,4.575,0,0,1,96.867,10.8Zm1.453.172a3.616,3.616,0,0,0,.652,2.258,2.211,2.211,0,0,0,3.5-.012,3.955,3.955,0,0,0,.648-2.418,3.61,3.61,0,0,0-.66-2.254,2.1,2.1,0,0,0-1.754-.863,2.075,2.075,0,0,0-1.727.852A3.925,3.925,0,0,0,98.32,10.867Zm9.422-4.32.047,1.063a3.08,3.08,0,0,1,2.531-1.219q2.68,0,2.7,3.023V15h-1.445V9.406a1.946,1.946,0,0,0-.418-1.352,1.675,1.675,0,0,0-1.277-.437,2.086,2.086,0,0,0-1.234.375,2.546,2.546,0,0,0-.828.984V15h-1.445V6.547Zm10.969,8.609a3.693,3.693,0,0,1-2.8-1.129,4.19,4.19,0,0,1-1.078-3.02v-.266a5.073,5.073,0,0,1,.48-2.246,3.748,3.748,0,0,1,1.344-1.547,3.378,3.378,0,0,1,1.871-.559,3.166,3.166,0,0,1,2.563,1.086,4.7,4.7,0,0,1,.914,3.109v.6h-5.727a3,3,0,0,0,.73,2.02,2.3,2.3,0,0,0,1.777.77,2.517,2.517,0,0,0,1.3-.312,3.259,3.259,0,0,0,.93-.828l.883.688A3.55,3.55,0,0,1,118.711,15.156Zm-.18-7.578a1.928,1.928,0,0,0-1.469.637A3.1,3.1,0,0,0,116.328,10h4.234V9.891a2.753,2.753,0,0,0-.594-1.707A1.815,1.815,0,0,0,118.531,7.578Zm10.07,5.18a1.064,1.064,0,0,0-.441-.91,4.249,4.249,0,0,0-1.539-.559,7.277,7.277,0,0,1-1.742-.562,2.479,2.479,0,0,1-.953-.781,1.869,1.869,0,0,1-.309-1.078,2.193,2.193,0,0,1,.879-1.758,3.432,3.432,0,0,1,2.246-.719,3.532,3.532,0,0,1,2.332.742,2.357,2.357,0,0,1,.895,1.9h-1.453a1.3,1.3,0,0,0-.5-1.023,1.888,1.888,0,0,0-1.27-.43,1.976,1.976,0,0,0-1.234.344,1.082,1.082,0,0,0-.445.9.877.877,0,0,0,.414.789,5.1,5.1,0,0,0,1.5.508,7.8,7.8,0,0,1,1.754.578,2.558,2.558,0,0,1,1,.809,1.988,1.988,0,0,1,.324,1.152,2.163,2.163,0,0,1-.906,1.816,3.8,3.8,0,0,1-2.352.684,4.257,4.257,0,0,1-1.8-.359,2.922,2.922,0,0,1-1.223-1,2.42,2.42,0,0,1-.441-1.395h1.445a1.5,1.5,0,0,0,.582,1.152,2.258,2.258,0,0,0,1.434.426,2.331,2.331,0,0,0,1.316-.332A1.02,1.02,0,0,0,128.6,12.758Zm10.8,2.4a3.693,3.693,0,0,1-2.8-1.129,4.19,4.19,0,0,1-1.078-3.02v-.266A5.073,5.073,0,0,1,136,8.5a3.748,3.748,0,0,1,1.344-1.547,3.378,3.378,0,0,1,1.871-.559,3.166,3.166,0,0,1,2.563,1.086,4.7,4.7,0,0,1,.914,3.109v.6h-5.727a3,3,0,0,0,.73,2.02,2.3,2.3,0,0,0,1.777.77,2.517,2.517,0,0,0,1.3-.312,3.258,3.258,0,0,0,.93-.828l.883.688A3.55,3.55,0,0,1,139.4,15.156Zm-.18-7.578a1.928,1.928,0,0,0-1.469.637A3.1,3.1,0,0,0,137.016,10h4.234V9.891a2.753,2.753,0,0,0-.594-1.707A1.815,1.815,0,0,0,139.219,7.578Zm6.516-1.031.047,1.063a3.08,3.08,0,0,1,2.531-1.219q2.68,0,2.7,3.023V15H149.57V9.406a1.946,1.946,0,0,0-.418-1.352,1.675,1.675,0,0,0-1.277-.437,2.086,2.086,0,0,0-1.234.375,2.546,2.546,0,0,0-.828.984V15h-1.445V6.547Zm14.93,8.609a3.693,3.693,0,0,1-2.8-1.129,4.19,4.19,0,0,1-1.078-3.02v-.266a5.073,5.073,0,0,1,.48-2.246,3.748,3.748,0,0,1,1.344-1.547,3.378,3.378,0,0,1,1.871-.559,3.166,3.166,0,0,1,2.563,1.086,4.7,4.7,0,0,1,.914,3.109v.6h-5.727a3,3,0,0,0,.73,2.02,2.3,2.3,0,0,0,1.777.77,2.517,2.517,0,0,0,1.3-.312,3.258,3.258,0,0,0,.93-.828l.883.688A3.55,3.55,0,0,1,160.664,15.156Zm-.18-7.578a1.928,1.928,0,0,0-1.469.637A3.1,3.1,0,0,0,158.281,10h4.234V9.891a2.753,2.753,0,0,0-.594-1.707A1.815,1.815,0,0,0,160.484,7.578ZM167.2,15h-1.445V3H167.2Zm8.234-10.5V6.547h1.578V7.664h-1.578v5.249a1.173,1.173,0,0,0,.211.763.888.888,0,0,0,.719.254,3.5,3.5,0,0,0,.688-.094V15a4.215,4.215,0,0,1-1.109.155,1.8,1.8,0,0,1-1.461-.586,2.517,2.517,0,0,1-.492-1.664V7.664h-1.539V6.547h1.539V4.5Zm6.773,10.656a3.693,3.693,0,0,1-2.8-1.129,4.19,4.19,0,0,1-1.078-3.02v-.266a5.073,5.073,0,0,1,.48-2.246,3.748,3.748,0,0,1,1.344-1.547,3.378,3.378,0,0,1,1.871-.559,3.166,3.166,0,0,1,2.563,1.086,4.7,4.7,0,0,1,.914,3.109v.6h-5.727a3,3,0,0,0,.73,2.02,2.3,2.3,0,0,0,1.777.77,2.517,2.517,0,0,0,1.3-.312,3.258,3.258,0,0,0,.93-.828l.883.688A3.55,3.55,0,0,1,182.211,15.156Zm-.18-7.578a1.928,1.928,0,0,0-1.469.637A3.1,3.1,0,0,0,179.828,10h4.234V9.891a2.753,2.753,0,0,0-.594-1.707A1.815,1.815,0,0,0,182.031,7.578Zm9.234.266a4.331,4.331,0,0,0-.711-.055A1.9,1.9,0,0,0,188.625,9v6H187.18V6.547h1.406l.023.977a2.251,2.251,0,0,1,2.016-1.133,1.477,1.477,0,0,1,.641.109Zm4.57,6.133a2.082,2.082,0,0,0,1.352-.469,1.649,1.649,0,0,0,.641-1.172H199.2a2.621,2.621,0,0,1-.5,1.383,3.293,3.293,0,0,1-1.23,1.047,3.55,3.55,0,0,1-1.629.391A3.482,3.482,0,0,1,193.09,14a4.59,4.59,0,0,1-1.02-3.152v-.242a5.089,5.089,0,0,1,.453-2.2,3.451,3.451,0,0,1,1.3-1.492,3.7,3.7,0,0,1,2-.531,3.39,3.39,0,0,1,2.363.852,3.043,3.043,0,0,1,1,2.211h-1.367a1.992,1.992,0,0,0-.621-1.348,1.932,1.932,0,0,0-1.379-.527,2.023,2.023,0,0,0-1.707.793,3.724,3.724,0,0,0-.605,2.293v.273a3.65,3.65,0,0,0,.6,2.25A2.033,2.033,0,0,0,195.836,13.977Zm8.492,1.18a3.693,3.693,0,0,1-2.8-1.129,4.19,4.19,0,0,1-1.078-3.02v-.266a5.073,5.073,0,0,1,.48-2.246,3.748,3.748,0,0,1,1.344-1.547,3.378,3.378,0,0,1,1.871-.559,3.166,3.166,0,0,1,2.563,1.086,4.7,4.7,0,0,1,.914,3.109v.6H201.9a3,3,0,0,0,.73,2.02,2.3,2.3,0,0,0,1.777.77,2.517,2.517,0,0,0,1.3-.312,3.258,3.258,0,0,0,.93-.828l.883.688A3.55,3.55,0,0,1,204.328,15.156Zm-.18-7.578a1.928,1.928,0,0,0-1.469.637A3.1,3.1,0,0,0,201.945,10h4.234V9.891a2.753,2.753,0,0,0-.594-1.707A1.815,1.815,0,0,0,204.148,7.578Zm9.234.266a4.331,4.331,0,0,0-.711-.055A1.9,1.9,0,0,0,210.742,9v6H209.3V6.547H210.7l.023.977a2.251,2.251,0,0,1,2.016-1.133,1.477,1.477,0,0,1,.641.109ZM93.934,26.5v2.047h1.578v1.117H93.934v5.249a1.173,1.173,0,0,0,.211.763.888.888,0,0,0,.719.254,3.5,3.5,0,0,0,.688-.094V37a4.215,4.215,0,0,1-1.109.155,1.8,1.8,0,0,1-1.461-.586,2.517,2.517,0,0,1-.492-1.664V29.664H90.949V28.547h1.539V26.5Zm7.352,3.344a4.331,4.331,0,0,0-.711-.055A1.9,1.9,0,0,0,98.645,31v6H97.2V28.547h1.406l.023.977a2.251,2.251,0,0,1,2.016-1.133,1.477,1.477,0,0,1,.641.109Zm2.9,7.156h-1.445V28.547h1.445Zm-1.562-10.7a.863.863,0,0,1,.215-.594.807.807,0,0,1,.637-.242.819.819,0,0,1,.641.242.854.854,0,0,1,.219.594.826.826,0,0,1-.219.586.834.834,0,0,1-.641.234.821.821,0,0,1-.637-.234A.834.834,0,0,1,102.621,26.3Zm5.234,2.242.039.938a3.122,3.122,0,0,1,2.508-1.094,2.417,2.417,0,0,1,2.414,1.359,3.2,3.2,0,0,1,1.1-.984,3.242,3.242,0,0,1,1.6-.375q2.781,0,2.828,2.945V37h-1.445V31.422a1.941,1.941,0,0,0-.414-1.355,1.823,1.823,0,0,0-1.391-.449,1.916,1.916,0,0,0-1.336.48,1.949,1.949,0,0,0-.617,1.293V37h-1.453V31.461a1.613,1.613,0,0,0-1.8-1.844,1.934,1.934,0,0,0-1.945,1.211V37h-1.445V28.547Zm16.172,8.609a3.693,3.693,0,0,1-2.8-1.129,4.19,4.19,0,0,1-1.078-3.02v-.266a5.073,5.073,0,0,1,.48-2.246,3.748,3.748,0,0,1,1.344-1.547,3.378,3.378,0,0,1,1.871-.559,3.166,3.166,0,0,1,2.563,1.086,4.7,4.7,0,0,1,.914,3.109v.6H121.6a3,3,0,0,0,.73,2.02,2.3,2.3,0,0,0,1.777.77,2.517,2.517,0,0,0,1.3-.312,3.259,3.259,0,0,0,.93-.828l.883.688A3.55,3.55,0,0,1,124.027,37.156Zm-.18-7.578a1.928,1.928,0,0,0-1.469.637A3.1,3.1,0,0,0,121.645,32h4.234v-.109a2.753,2.753,0,0,0-.594-1.707A1.815,1.815,0,0,0,123.848,29.578Zm10.07,5.18a1.064,1.064,0,0,0-.441-.91,4.249,4.249,0,0,0-1.539-.559,7.277,7.277,0,0,1-1.742-.562,2.479,2.479,0,0,1-.953-.781,1.869,1.869,0,0,1-.309-1.078,2.193,2.193,0,0,1,.879-1.758,3.432,3.432,0,0,1,2.246-.719,3.532,3.532,0,0,1,2.332.742,2.357,2.357,0,0,1,.895,1.9h-1.453a1.3,1.3,0,0,0-.5-1.023,1.888,1.888,0,0,0-1.27-.43,1.976,1.976,0,0,0-1.234.344,1.082,1.082,0,0,0-.445.9.877.877,0,0,0,.414.789,5.1,5.1,0,0,0,1.5.508,7.8,7.8,0,0,1,1.754.578,2.558,2.558,0,0,1,1,.809,1.988,1.988,0,0,1,.324,1.152,2.163,2.163,0,0,1-.906,1.816,3.8,3.8,0,0,1-2.352.684,4.257,4.257,0,0,1-1.8-.359,2.922,2.922,0,0,1-1.223-1,2.42,2.42,0,0,1-.441-1.395h1.445a1.5,1.5,0,0,0,.582,1.152,2.258,2.258,0,0,0,1.434.426,2.331,2.331,0,0,0,1.316-.332A1.02,1.02,0,0,0,133.918,34.758Zm5.289-8.258v2.047h1.578v1.117h-1.578v5.249a1.173,1.173,0,0,0,.211.763.888.888,0,0,0,.719.254,3.5,3.5,0,0,0,.688-.094V37a4.215,4.215,0,0,1-1.109.155,1.8,1.8,0,0,1-1.461-.586,2.517,2.517,0,0,1-.492-1.664V29.664h-1.539V28.547h1.539V26.5Zm7.352,3.344a4.331,4.331,0,0,0-.711-.055A1.9,1.9,0,0,0,143.918,31v6h-1.445V28.547h1.406l.023.977a2.251,2.251,0,0,1,2.016-1.133,1.477,1.477,0,0,1,.641.109Zm4.688,7.313a3.693,3.693,0,0,1-2.8-1.129,4.19,4.19,0,0,1-1.078-3.02v-.266a5.073,5.073,0,0,1,.48-2.246,3.748,3.748,0,0,1,1.344-1.547,3.378,3.378,0,0,1,1.871-.559,3.166,3.166,0,0,1,2.563,1.086,4.7,4.7,0,0,1,.914,3.109v.6h-5.727a3,3,0,0,0,.73,2.02,2.3,2.3,0,0,0,1.777.77,2.517,2.517,0,0,0,1.3-.312,3.258,3.258,0,0,0,.93-.828l.883.688A3.55,3.55,0,0,1,151.246,37.156Zm-.18-7.578a1.928,1.928,0,0,0-1.469.637A3.1,3.1,0,0,0,148.863,32H153.1v-.109a2.753,2.753,0,0,0-.594-1.707A1.815,1.815,0,0,0,151.066,29.578Z" transform="translate(994.886 12689.352)" fill="#12263f"/>
    <path id="Trazado_736473" data-name="Trazado 736473" d="M11.66,13.189a6.789,6.789,0,0,1-1.294,4.443A4.471,4.471,0,0,1,6.719,19.2a4.5,4.5,0,0,1-3.672-1.572,6.779,6.779,0,0,1-1.3-4.434v-2.6A6.789,6.789,0,0,1,3.042,6.148,4.483,4.483,0,0,1,6.7,4.586a4.484,4.484,0,0,1,3.662,1.572,6.8,6.8,0,0,1,1.3,4.443ZM8.369,10.172a5.071,5.071,0,0,0-.4-2.29A1.338,1.338,0,0,0,6.7,7.125a1.307,1.307,0,0,0-1.235.7,4.777,4.777,0,0,0-.415,2.129V13.59a5.109,5.109,0,0,0,.4,2.329,1.343,1.343,0,0,0,1.27.737,1.325,1.325,0,0,0,1.24-.718,4.878,4.878,0,0,0,.41-2.251Zm8.008.342H17.93a1.614,1.614,0,0,0,1.846-1.807,1.562,1.562,0,0,0-.439-1.147,1.666,1.666,0,0,0-1.24-.444,1.784,1.784,0,0,0-1.138.381,1.162,1.162,0,0,0-.483.947H13.184a3.369,3.369,0,0,1,.625-2,4.127,4.127,0,0,1,1.733-1.372,5.926,5.926,0,0,1,2.437-.493,5.823,5.823,0,0,1,3.73,1.084,3.6,3.6,0,0,1,1.357,2.979,3,3,0,0,1-.562,1.733A4,4,0,0,1,20.869,11.7a3.823,3.823,0,0,1,1.777,1.245,3.279,3.279,0,0,1,.645,2.065,3.669,3.669,0,0,1-1.465,3.047A6.08,6.08,0,0,1,17.979,19.2a6.306,6.306,0,0,1-2.593-.532,4.062,4.062,0,0,1-1.812-1.475,3.834,3.834,0,0,1-.615-2.144H16.27a1.482,1.482,0,0,0,.527,1.133,1.862,1.862,0,0,0,1.3.479,1.95,1.95,0,0,0,1.387-.483A1.616,1.616,0,0,0,20,14.938a1.889,1.889,0,0,0-.537-1.523,2.245,2.245,0,0,0-1.484-.449h-1.6Z" transform="translate(982.386 12573.021)" fill="#12263f" opacity="0.134"/>
  </g>
</svg>
