<svg xmlns="http://www.w3.org/2000/svg" xmlns:xlink="http://www.w3.org/1999/xlink" width="136.934" height="135.983" viewBox="0 0 136.934 135.983">
  <defs>
    <clipPath id="clip-path">
      <rect id="Rectángulo_352700" data-name="Rectángulo 352700" width="63.784" height="63.773" fill="none"/>
    </clipPath>
  </defs>
  <g id="Grupo_1015162" data-name="Grupo 1015162" transform="translate(-263 -595.534)">
    <g id="Grupo_156356" data-name="Grupo 156356" transform="translate(263 650.743)">
      <g id="Grupo_156332" data-name="Grupo 156332" transform="translate(0 0)">
        <path id="Trazado_99257" data-name="Trazado 99257" d="M419.306,105.213a2.549,2.549,0,1,1-2.548-2.434A2.492,2.492,0,0,1,419.306,105.213Z" transform="translate(-414.214 -102.779)" fill="#12263f"/>
        <path id="Trazado_116526" data-name="Trazado 116526" d="M419.306,105.213a2.549,2.549,0,1,1-2.548-2.434A2.492,2.492,0,0,1,419.306,105.213Z" transform="translate(-356.555 -102.779)" fill="#12263f"/>
        <path id="Trazado_99258" data-name="Trazado 99258" d="M427.752,105.213a2.549,2.549,0,1,1-2.545-2.434A2.492,2.492,0,0,1,427.752,105.213Z" transform="translate(-411.129 -102.779)" fill="#12263f"/>
        <path id="Trazado_116527" data-name="Trazado 116527" d="M427.752,105.213a2.549,2.549,0,1,1-2.545-2.434A2.492,2.492,0,0,1,427.752,105.213Z" transform="translate(-353.469 -102.779)" fill="#12263f"/>
        <path id="Trazado_99259" data-name="Trazado 99259" d="M436.2,105.213a2.549,2.549,0,1,1-2.545-2.434A2.492,2.492,0,0,1,436.2,105.213Z" transform="translate(-408.043 -102.779)" fill="#12263f"/>
        <path id="Trazado_116531" data-name="Trazado 116531" d="M436.2,105.213a2.549,2.549,0,1,1-2.545-2.434A2.492,2.492,0,0,1,436.2,105.213Z" transform="translate(-350.384 -102.779)" fill="#12263f"/>
        <path id="Trazado_99260" data-name="Trazado 99260" d="M444.645,105.213a2.549,2.549,0,1,1-2.547-2.434A2.492,2.492,0,0,1,444.645,105.213Z" transform="translate(-404.958 -102.779)" fill="#12263f"/>
        <path id="Trazado_116532" data-name="Trazado 116532" d="M444.645,105.213a2.549,2.549,0,1,1-2.547-2.434A2.492,2.492,0,0,1,444.645,105.213Z" transform="translate(-347.298 -102.779)" fill="#12263f"/>
        <path id="Trazado_99261" data-name="Trazado 99261" d="M453.091,105.213a2.549,2.549,0,1,1-2.545-2.434A2.492,2.492,0,0,1,453.091,105.213Z" transform="translate(-401.872 -102.779)" fill="#12263f"/>
      </g>
      <g id="Grupo_156331" data-name="Grupo 156331" transform="translate(0 12.649)">
        <ellipse id="Elipse_3975" data-name="Elipse 3975" cx="2.546" cy="2.435" rx="2.546" ry="2.435" transform="translate(0 0.001)" fill="#12263f"/>
        <ellipse id="Elipse_4742" data-name="Elipse 4742" cx="2.546" cy="2.435" rx="2.546" ry="2.435" transform="translate(57.659 0.001)" fill="#12263f"/>
        <path id="Trazado_99268" data-name="Trazado 99268" d="M427.752,112.721a2.549,2.549,0,1,1-2.545-2.434A2.493,2.493,0,0,1,427.752,112.721Z" transform="translate(-411.129 -110.287)" fill="#12263f"/>
        <path id="Trazado_116528" data-name="Trazado 116528" d="M427.752,112.721a2.549,2.549,0,1,1-2.545-2.434A2.493,2.493,0,0,1,427.752,112.721Z" transform="translate(-353.469 -110.287)" fill="#12263f"/>
        <ellipse id="Elipse_3976" data-name="Elipse 3976" cx="2.546" cy="2.435" rx="2.546" ry="2.435" transform="translate(23.064 0.001)" fill="#12263f"/>
        <ellipse id="Elipse_4743" data-name="Elipse 4743" cx="2.546" cy="2.435" rx="2.546" ry="2.435" transform="translate(80.723 0.001)" fill="#12263f"/>
        <path id="Trazado_99269" data-name="Trazado 99269" d="M444.645,112.721a2.549,2.549,0,1,1-2.547-2.434A2.494,2.494,0,0,1,444.645,112.721Z" transform="translate(-404.958 -110.287)" fill="#12263f"/>
        <path id="Trazado_116533" data-name="Trazado 116533" d="M444.645,112.721a2.549,2.549,0,1,1-2.547-2.434A2.494,2.494,0,0,1,444.645,112.721Z" transform="translate(-347.298 -110.287)" fill="#12263f"/>
        <path id="Trazado_99270" data-name="Trazado 99270" d="M453.091,112.721a2.549,2.549,0,1,1-2.545-2.434A2.493,2.493,0,0,1,453.091,112.721Z" transform="translate(-401.872 -110.287)" fill="#12263f"/>
      </g>
      <g id="Grupo_156330" data-name="Grupo 156330" transform="translate(0 25.3)">
        <path id="Trazado_99274" data-name="Trazado 99274" d="M419.306,120.23a2.549,2.549,0,1,1-2.548-2.436A2.494,2.494,0,0,1,419.306,120.23Z" transform="translate(-414.214 -117.794)" fill="#12263f"/>
        <path id="Trazado_116529" data-name="Trazado 116529" d="M419.306,120.23a2.549,2.549,0,1,1-2.548-2.436A2.494,2.494,0,0,1,419.306,120.23Z" transform="translate(-356.555 -117.794)" fill="#12263f"/>
        <path id="Trazado_99275" data-name="Trazado 99275" d="M427.752,120.23a2.549,2.549,0,1,1-2.545-2.436A2.493,2.493,0,0,1,427.752,120.23Z" transform="translate(-411.129 -117.794)" fill="#12263f"/>
        <path id="Trazado_116530" data-name="Trazado 116530" d="M427.752,120.23a2.549,2.549,0,1,1-2.545-2.436A2.493,2.493,0,0,1,427.752,120.23Z" transform="translate(-353.469 -117.794)" fill="#12263f"/>
        <path id="Trazado_99276" data-name="Trazado 99276" d="M436.2,120.23a2.549,2.549,0,1,1-2.545-2.436A2.493,2.493,0,0,1,436.2,120.23Z" transform="translate(-408.043 -117.794)" fill="#12263f"/>
        <path id="Trazado_116534" data-name="Trazado 116534" d="M436.2,120.23a2.549,2.549,0,1,1-2.545-2.436A2.493,2.493,0,0,1,436.2,120.23Z" transform="translate(-350.384 -117.794)" fill="#12263f"/>
        <path id="Trazado_99277" data-name="Trazado 99277" d="M444.645,120.23a2.549,2.549,0,1,1-2.547-2.436A2.494,2.494,0,0,1,444.645,120.23Z" transform="translate(-404.958 -117.794)" fill="#12263f"/>
        <path id="Trazado_116535" data-name="Trazado 116535" d="M444.645,120.23a2.549,2.549,0,1,1-2.547-2.436A2.494,2.494,0,0,1,444.645,120.23Z" transform="translate(-347.298 -117.794)" fill="#12263f"/>
        <path id="Trazado_99278" data-name="Trazado 99278" d="M453.091,120.23a2.549,2.549,0,1,1-2.545-2.436A2.493,2.493,0,0,1,453.091,120.23Z" transform="translate(-401.872 -117.794)" fill="#12263f"/>
      </g>
      <g id="Grupo_156327" data-name="Grupo 156327" transform="translate(0 63.252)">
        <path id="Trazado_116550" data-name="Trazado 116550" d="M419.306,120.23a2.549,2.549,0,1,1-2.548-2.436A2.494,2.494,0,0,1,419.306,120.23Z" transform="translate(-414.214 -117.794)" fill="#12263f"/>
        <path id="Trazado_116551" data-name="Trazado 116551" d="M419.306,120.23a2.549,2.549,0,1,1-2.548-2.436A2.494,2.494,0,0,1,419.306,120.23Z" transform="translate(-356.555 -117.794)" fill="#12263f"/>
        <path id="Trazado_116552" data-name="Trazado 116552" d="M427.752,120.23a2.549,2.549,0,1,1-2.545-2.436A2.493,2.493,0,0,1,427.752,120.23Z" transform="translate(-411.129 -117.794)" fill="#12263f"/>
        <path id="Trazado_116553" data-name="Trazado 116553" d="M427.752,120.23a2.549,2.549,0,1,1-2.545-2.436A2.493,2.493,0,0,1,427.752,120.23Z" transform="translate(-353.469 -117.794)" fill="#12263f"/>
        <path id="Trazado_116554" data-name="Trazado 116554" d="M436.2,120.23a2.549,2.549,0,1,1-2.545-2.436A2.493,2.493,0,0,1,436.2,120.23Z" transform="translate(-408.043 -117.794)" fill="#12263f"/>
        <path id="Trazado_116555" data-name="Trazado 116555" d="M436.2,120.23a2.549,2.549,0,1,1-2.545-2.436A2.493,2.493,0,0,1,436.2,120.23Z" transform="translate(-350.384 -117.794)" fill="#12263f"/>
        <path id="Trazado_116556" data-name="Trazado 116556" d="M444.645,120.23a2.549,2.549,0,1,1-2.547-2.436A2.494,2.494,0,0,1,444.645,120.23Z" transform="translate(-404.958 -117.794)" fill="#12263f"/>
        <path id="Trazado_116557" data-name="Trazado 116557" d="M444.645,120.23a2.549,2.549,0,1,1-2.547-2.436A2.494,2.494,0,0,1,444.645,120.23Z" transform="translate(-347.298 -117.794)" fill="#12263f"/>
        <path id="Trazado_116558" data-name="Trazado 116558" d="M453.091,120.23a2.549,2.549,0,1,1-2.545-2.436A2.493,2.493,0,0,1,453.091,120.23Z" transform="translate(-401.872 -117.794)" fill="#12263f"/>
      </g>
      <g id="Grupo_156329" data-name="Grupo 156329" transform="translate(0 37.951)">
        <ellipse id="Elipse_3980" data-name="Elipse 3980" cx="2.546" cy="2.435" rx="2.546" ry="2.435" transform="translate(0 0.002)" fill="#12263f"/>
        <ellipse id="Elipse_4744" data-name="Elipse 4744" cx="2.546" cy="2.435" rx="2.546" ry="2.435" transform="translate(57.659 0.002)" fill="#12263f"/>
        <path id="Trazado_99285" data-name="Trazado 99285" d="M427.752,127.738a2.549,2.549,0,1,1-2.545-2.436A2.491,2.491,0,0,1,427.752,127.738Z" transform="translate(-411.129 -125.302)" fill="#12263f"/>
        <path id="Trazado_116536" data-name="Trazado 116536" d="M427.752,127.738a2.549,2.549,0,1,1-2.545-2.436A2.491,2.491,0,0,1,427.752,127.738Z" transform="translate(-353.469 -125.302)" fill="#12263f"/>
        <ellipse id="Elipse_3981" data-name="Elipse 3981" cx="2.546" cy="2.435" rx="2.546" ry="2.435" transform="translate(23.064 0.002)" fill="#12263f"/>
        <ellipse id="Elipse_4745" data-name="Elipse 4745" cx="2.546" cy="2.435" rx="2.546" ry="2.435" transform="translate(80.723 0.002)" fill="#12263f"/>
        <path id="Trazado_99286" data-name="Trazado 99286" d="M444.645,127.738A2.549,2.549,0,1,1,442.1,125.3,2.492,2.492,0,0,1,444.645,127.738Z" transform="translate(-404.958 -125.302)" fill="#12263f"/>
        <path id="Trazado_116537" data-name="Trazado 116537" d="M444.645,127.738A2.549,2.549,0,1,1,442.1,125.3,2.492,2.492,0,0,1,444.645,127.738Z" transform="translate(-347.298 -125.302)" fill="#12263f"/>
        <path id="Trazado_99287" data-name="Trazado 99287" d="M453.091,127.738a2.549,2.549,0,1,1-2.545-2.436A2.491,2.491,0,0,1,453.091,127.738Z" transform="translate(-401.872 -125.302)" fill="#12263f"/>
      </g>
      <g id="Grupo_156326" data-name="Grupo 156326" transform="translate(0 75.904)">
        <ellipse id="Elipse_4754" data-name="Elipse 4754" cx="2.546" cy="2.435" rx="2.546" ry="2.435" transform="translate(0 0.001)" fill="#12263f"/>
        <ellipse id="Elipse_4750" data-name="Elipse 4750" cx="2.546" cy="2.435" rx="2.546" ry="2.435" transform="translate(57.659 0.001)" fill="#12263f"/>
        <path id="Trazado_116548" data-name="Trazado 116548" d="M427.752,127.738a2.549,2.549,0,1,1-2.545-2.436A2.491,2.491,0,0,1,427.752,127.738Z" transform="translate(-411.129 -125.302)" fill="#12263f"/>
        <path id="Trazado_116542" data-name="Trazado 116542" d="M427.752,127.738a2.549,2.549,0,1,1-2.545-2.436A2.491,2.491,0,0,1,427.752,127.738Z" transform="translate(-353.469 -125.302)" fill="#12263f"/>
        <ellipse id="Elipse_4751" data-name="Elipse 4751" cx="2.546" cy="2.435" rx="2.546" ry="2.435" transform="translate(23.064 0.001)" fill="#12263f"/>
        <ellipse id="Elipse_4752" data-name="Elipse 4752" cx="2.546" cy="2.435" rx="2.546" ry="2.435" transform="translate(80.723 0.001)" fill="#12263f"/>
        <path id="Trazado_116543" data-name="Trazado 116543" d="M444.645,127.738A2.549,2.549,0,1,1,442.1,125.3,2.492,2.492,0,0,1,444.645,127.738Z" transform="translate(-404.958 -125.302)" fill="#12263f"/>
        <path id="Trazado_116544" data-name="Trazado 116544" d="M444.645,127.738A2.549,2.549,0,1,1,442.1,125.3,2.492,2.492,0,0,1,444.645,127.738Z" transform="translate(-347.298 -125.302)" fill="#12263f"/>
        <path id="Trazado_116545" data-name="Trazado 116545" d="M453.091,127.738a2.549,2.549,0,1,1-2.545-2.436A2.491,2.491,0,0,1,453.091,127.738Z" transform="translate(-401.872 -125.302)" fill="#12263f"/>
      </g>
      <g id="Grupo_156328" data-name="Grupo 156328" transform="translate(0 50.602)">
        <ellipse id="Elipse_3985" data-name="Elipse 3985" cx="2.546" cy="2.435" rx="2.546" ry="2.435" transform="translate(0 0.001)" fill="#12263f"/>
        <ellipse id="Elipse_4746" data-name="Elipse 4746" cx="2.546" cy="2.435" rx="2.546" ry="2.435" transform="translate(57.659 0.001)" fill="#12263f"/>
        <path id="Trazado_99291" data-name="Trazado 99291" d="M427.752,135.246a2.549,2.549,0,1,1-2.545-2.436A2.491,2.491,0,0,1,427.752,135.246Z" transform="translate(-411.129 -132.81)" fill="#12263f"/>
        <path id="Trazado_116538" data-name="Trazado 116538" d="M427.752,135.246a2.549,2.549,0,1,1-2.545-2.436A2.491,2.491,0,0,1,427.752,135.246Z" transform="translate(-353.469 -132.81)" fill="#12263f"/>
        <ellipse id="Elipse_3986" data-name="Elipse 3986" cx="2.546" cy="2.435" rx="2.546" ry="2.435" transform="translate(23.064 0.001)" fill="#12263f"/>
        <ellipse id="Elipse_4747" data-name="Elipse 4747" cx="2.546" cy="2.435" rx="2.546" ry="2.435" transform="translate(80.723 0.001)" fill="#12263f"/>
        <path id="Trazado_99292" data-name="Trazado 99292" d="M444.645,135.246a2.549,2.549,0,1,1-2.547-2.436A2.492,2.492,0,0,1,444.645,135.246Z" transform="translate(-404.958 -132.81)" fill="#12263f"/>
        <path id="Trazado_116539" data-name="Trazado 116539" d="M444.645,135.246a2.549,2.549,0,1,1-2.547-2.436A2.492,2.492,0,0,1,444.645,135.246Z" transform="translate(-347.298 -132.81)" fill="#12263f"/>
        <path id="Trazado_99293" data-name="Trazado 99293" d="M453.091,135.246a2.549,2.549,0,1,1-2.545-2.436A2.491,2.491,0,0,1,453.091,135.246Z" transform="translate(-401.872 -132.81)" fill="#12263f"/>
      </g>
    </g>
    <g id="Grupo_1015138" data-name="Grupo 1015138" transform="translate(277.562 595.534)">
      <circle id="Elipse_8447" data-name="Elipse 8447" cx="61.186" cy="61.186" r="61.186" transform="translate(0 0)" fill="#6f88da"/>
      <circle id="Elipse_8448" data-name="Elipse 8448" cx="51.264" cy="51.264" r="51.264" transform="translate(9.922 9.922)" fill="#fff"/>
      <g id="Grupo_1018518" data-name="Grupo 1018518" transform="translate(28.965 28.985)">
        <g id="Grupo_1018712" data-name="Grupo 1018712" transform="translate(0.613 -0.114)">
          <g id="Grupo_1018711" data-name="Grupo 1018711" clip-path="url(#clip-path)">
            <path id="Trazado_732870" data-name="Trazado 732870" d="M60.413,63.773H49.576c-.019-.034-.029-.08-.057-.1a1.306,1.306,0,0,1-.662-1.555,1.231,1.231,0,0,1,1.332-.836c1.016,0,2.033-.023,3.048.009.439.014.6-.065.589-.558-.031-2.384-.027-4.769,0-7.153,0-.452-.132-.532-.552-.53q-4.821.027-9.642,0c-.436,0-.545.1-.542.541.022,2.8-.023,5.6.033,8.4a1.925,1.925,0,0,1-.893,1.785H36.373a1.63,1.63,0,0,1-.761-1.53c.027-4.27.01-8.541.019-12.812a2.186,2.186,0,0,1,.084-1.035c.125-.252-.017-.321-.254-.318-.58.007-1.164.04-1.741-.009-.5-.043-.6.14-.6.611.018,4.437-.012,8.873.032,13.309a1.941,1.941,0,0,1-.893,1.785H31.39a1.555,1.555,0,0,1-.759-1.531c.051-.785.012-1.575.012-2.363q0-5.63-.005-11.259c0-.222.166-.564-.328-.547-.786.027-1.573.007-2.329.007a15.69,15.69,0,0,1,.164,1.591c.013,4.106-.017,8.212.029,12.317a1.939,1.939,0,0,1-.893,1.785H21.425a1.625,1.625,0,0,1-.761-1.53c.032-2.9.007-5.8.022-8.7,0-.365-.063-.491-.466-.488q-4.912.028-9.824,0c-.36,0-.44.108-.438.45q.021,3.668,0,7.336c0,.343.079.459.439.45,1.015-.025,2.031-.009,3.047-.008a1.443,1.443,0,0,1,1.473.958,1.256,1.256,0,0,1-.731,1.411.607.607,0,0,0-.109.121H3.239c-.019-.034-.029-.08-.057-.1a1.305,1.305,0,0,1-.662-1.553,1.229,1.229,0,0,1,1.329-.838c1.036,0,2.073-.027,3.107.011.456.017.532-.136.528-.553q-.031-3.573,0-7.147c0-.432-.1-.55-.538-.543-1.906.027-3.812.011-5.718.011A1,1,0,0,1,.123,52.32.263.263,0,0,0,0,52.065V36.995c.54-.291.094-.581,0-.872V35.5L.406,34l.088-.134.156-.488.094-.133a.488.488,0,0,1,.018-.184A8.924,8.924,0,0,1,6.237,28.5c.4-.115.88-.082,1.238-.426a6.04,6.04,0,0,1-4.316-3.244,6.234,6.234,0,0,1,.572-6.77.234.234,0,0,0,.253-.256,6.646,6.646,0,0,1,4.055-2.13c-.445-.478-.947-.943-1.359-1.478a2.476,2.476,0,0,0-2.4-1.017c-1.028.1-2.073.023-3.111.019a.965.965,0,0,1-1.047-.739A.255.255,0,0,0,0,12.209V1A.256.256,0,0,0,.122.744C.3.113.783,0,1.356,0q12.355.006,24.71,0a1.362,1.362,0,0,1,1.483,1.244c-.37,1.061-.628,1.247-1.735,1.247q-11.363,0-22.726-.011c-.487,0-.616.12-.609.608.029,2.033.006,4.067.017,6.1,0,.491-.217,1.134.094,1.433s.954.131,1.437.078c1.722-.189,3.241.076,4.279,1.646.206.312.439.3.7.017.378-.413.8-.784,1.18-1.2a1.363,1.363,0,0,1,1.084-.46q9,.013,17.994,0a1.279,1.279,0,0,1,.985.415c.416.434.852.85,1.269,1.283a.378.378,0,0,0,.631.008A14.014,14.014,0,0,0,33.2,11.351a1.76,1.76,0,0,1,1.562-.648c5.189.019,10.378.067,15.566-.02,1.784-.03,3.37.092,4.46,1.71.166.247.351.221.555.005.4-.422.84-.807,1.221-1.243a1.229,1.229,0,0,1,1.019-.446c1.058.012,2.118-.02,3.175.015.443.015.546-.115.542-.548-.022-2.345-.033-4.69.006-7.035.009-.57-.16-.663-.684-.661q-11.457.027-22.913.011c-1.012,0-1.332-.274-1.477-1.246C36.351.319,36.7,0,37.633,0q12.349,0,24.7,0a1.314,1.314,0,0,1,1.445,1.448q0,5.163,0,10.326a1.319,1.319,0,0,1-1.4,1.427c-.975,0-1.954.061-2.923-.016a2.425,2.425,0,0,0-2.31.944,6.708,6.708,0,0,1-1.583,1.461l-.1.02.092.094c.044.13.155.108.254.113a5.276,5.276,0,0,1,3.539,1.628,6,6,0,0,1,1.83,5.42,6.155,6.155,0,0,1-1.75,3.463A6.332,6.332,0,0,1,56,28.083a.8.8,0,0,0,.2.136c.23.069.463.131.7.18a8.671,8.671,0,0,1,6.868,8.384c.036,4.957.015,9.915.012,14.873a1.317,1.317,0,0,1-1.426,1.405c-1.867,0-3.734.009-5.6-.006-.339,0-.456.072-.454.436.017,2.448.02,4.9,0,7.343,0,.419.149.463.5.456,1-.021,1.991-.008,2.987-.007a1.479,1.479,0,0,1,1.481.955c.154.53-.094.976-.793,1.436-.027.018-.035.065-.052.1M37.112,31.4l0,0c.011-.235-.119-.189-.256-.128-.993-.757-2.187-.512-3.3-.605a18.2,18.2,0,0,0-3.606.012,8.872,8.872,0,0,0-2.637.3,6.635,6.635,0,0,0-3.854,3.914c-.325.85-.308.859.566,1.105l.135,0A14.282,14.282,0,0,1,25.9,37.079,5.108,5.108,0,0,1,27.781,40c.088.441.253.64.786.628,2.2-.047,4.4-.034,6.6-.007a.605.605,0,0,0,.712-.509,5.958,5.958,0,0,1,4.3-4.24c.186-.052.334-.071.253-.363a5.632,5.632,0,0,0-3.062-3.979c.012-.229-.109-.2-.252-.132M26.151,19.421l0,0c.323-.047.259-.26.2-.47a6.5,6.5,0,0,1,4.963-3.287c-.74-.737-1.458-1.445-2.165-2.163a.89.89,0,0,0-.691-.308q-8.215.016-16.43,0a.8.8,0,0,0-.645.268c-.716.766-1.445,1.52-2.174,2.284.163.178.453.012.7.068a6.22,6.22,0,0,1,.671,12.033c-.176.052-.5.031-.473.278.025.227.316.236.54.276a6.862,6.862,0,0,1,1.918.678A8.36,8.36,0,0,1,17.2,35.075a.6.6,0,0,0,.656.558c.725-.03,1.452-.007,2.178-.009a.529.529,0,0,0,.448-.2c.557-.586.559-1.37.848-2.047l.092-.132c1.9-3.767,5.03-5.339,9.177-5.14a3.682,3.682,0,0,1-.953-.357c-.078-.287-.191-.489-.5-.209a6.046,6.046,0,0,1-2.874-2.874c.2-.2.044-.227-.12-.251a4.013,4.013,0,0,1-.465-2.245q.528-.249,0-.5a4.537,4.537,0,0,1,.375-2.119l.092-.135M10.019,28.047c-.138.019-.316-.114-.4.1-.442-.022-.9-.431-1.364.031.5.43.986-.017,1.456.051l.257.017c.082.016.168.019.165-.091,0-.039-.072-.076-.111-.113m22.118-.02a.3.3,0,0,0-.5,0l-.488.025q0,.05,0,.1h.483a.3.3,0,0,0,.5,0c.129-.017.271.044.388-.063-.117-.107-.259-.045-.388-.063m-3.225-8.464a6.246,6.246,0,0,0-.775,2.019,4.646,4.646,0,0,0,.775,2.7c-.043.432.182.658.614.614a3.877,3.877,0,0,0,4.6.008c.459.344.506-.232.749-.358.173-.09.049-.241-.112-.3a3.725,3.725,0,0,0,.848-2.546,3.862,3.862,0,0,0-4.536-3.427,13.929,13.929,0,0,0-1.55.672c-.432-.043-.658.182-.614.614m29.132,4.6a4.107,4.107,0,0,0,.653-2.945A3.758,3.758,0,0,0,53.812,18.4a3.513,3.513,0,0,0-2.466,3.132,3.714,3.714,0,0,0,6.073,3.247c.221.2.228.024.244-.137l.108-.108c.267.008.278-.174.274-.368m-7.376,8.352-.094.1a5.577,5.577,0,0,0-1.723,3.766q0,.183,0,.366-.011,6.72-.029,13.44c0,.358.147.395.442.394,3.859-.007,7.717-.012,11.576.006.428,0,.453-.175.452-.513-.01-2.655.021-5.31-.014-7.965-.026-1.962.056-3.921-.091-5.888a5.989,5.989,0,0,0-5.865-5.453c-.022-.065-.054-.117-.136-.1h-.254a.129.129,0,0,0-.12,0,3.242,3.242,0,0,1-.466.1,5.155,5.155,0,0,0-3.675,1.75m-42.2-1.849c-.365.049-.734.08-1.1.15A5.756,5.756,0,0,0,4.018,32.8a5.784,5.784,0,0,0-1.5,3.58v.366c-.007,4.479-.008,8.958-.031,13.437,0,.5.294.391.565.391,3.775,0,7.55-.011,11.324.016.532,0,.586-.191.585-.635-.014-4.148-.009-8.3-.007-12.443a12.265,12.265,0,0,0-.227-2.011,5.906,5.906,0,0,0-5.739-4.735c-.022-.065-.054-.117-.136-.1H8.593a.129.129,0,0,0-.12,0M48.85,22.048c.079-.013.173-.024.173-.125s-.094-.112-.173-.125a5.359,5.359,0,0,1,1.624-4.157,6.487,6.487,0,0,1,4.016-1.976c-.712-.711-1.408-1.383-2.074-2.083A1.138,1.138,0,0,0,51.5,13.2q-8.032.021-16.065,0a1.173,1.173,0,0,0-.912.394,14.684,14.684,0,0,1-2.388,2.17,6.112,6.112,0,0,1,4.319,1.957,5.833,5.833,0,0,1,1.631,4.379q-.342,4.725-5.2,6.057c.552,0,.9,0,1.256,0a8.769,8.769,0,0,1,4.889,1.372,8.518,8.518,0,0,1,3.824,5.383c.073.306.086.715.564.717.872,0,1.744,0,2.615,0,.238,0,.4-.062.433-.327a8.238,8.238,0,0,1,2.459-4.679,9.034,9.034,0,0,1,4.416-2.34c.184-.046.421.085.537-.174-3.086-.617-5.268-3.555-5.03-6.058M31.888,43.1c-4.193,0-8.386-.005-12.579.006-.613,0-1.434-.271-1.781.12-.3.34-.043,1.147-.1,1.742-.05.525.122.637.637.636q13.17-.027,26.34-.018c.634,0,1.484.277,1.841-.123.312-.35.05-1.186.1-1.8.04-.473-.112-.575-.574-.573-4.629.019-9.258.012-13.886.012m6.229,11.955c0,1.43-.013,2.861.006,4.291.008.633-.28,1.48.128,1.839.356.312,1.186.055,1.8.11.495.045.569-.152.566-.593-.019-2.943-.013-5.887-.007-8.831a1.144,1.144,0,0,1,1.283-1.3c1.285-.007,2.572-.03,3.856.012.515.017.634-.161.6-.627a8.938,8.938,0,0,1,0-1.367c.029-.4-.1-.525-.511-.521-2.073.021-4.146.007-6.22.01-1.05,0-1.495.446-1.5,1.5,0,1.824,0,3.648,0,5.473m-12.456.064q0-2.707,0-5.414c0-1.135-.481-1.62-1.606-1.622-1.556,0-3.112-.012-4.667,0-.635.007-1.526-.284-1.836.121-.323.424-.08,1.268-.118,1.927-.022.367.118.449.46.444,1.244-.018,2.489-.008,3.734-.007,1.075,0,1.542.465,1.542,1.534,0,2.862.015,5.725-.013,8.587,0,.51.155.637.625.6a8.839,8.839,0,0,1,1.368,0c.4.029.526-.1.521-.511-.022-1.887-.01-3.775-.01-5.663M8.619,25.659a3.747,3.747,0,0,0,3.814-3.694A3.673,3.673,0,0,0,8.706,18.2a3.588,3.588,0,0,0-3.694,3.283,3.678,3.678,0,0,0,3.607,4.175M38.374,40.607c2.555,0,5.06-.007,7.566.008.34,0,.419-.107.405-.423a13.925,13.925,0,0,1,0-1.614c.029-.4-.113-.478-.485-.471-1.366.023-2.733,0-4.1.012a3.612,3.612,0,0,0-3.388,2.489m-12.976,0a3.382,3.382,0,0,0-2.614-2.346,30.936,30.936,0,0,0-5-.151c-.279-.01-.355.087-.346.353.018.559.033,1.121,0,1.678-.027.4.109.476.484.473,2.467-.017,4.934-.009,7.485-.009M54.574,28.155c.242.216.458.333.731.152a.146.146,0,0,0,.012-.256c-.26-.2-.482-.08-.743.1m.483-12.635c-.108.013-.113.1-.113.175s0,.174.111.175.114-.093.114-.172,0-.163-.111-.178m-46.24.26c0-.106-.041-.16-.107-.141a.161.161,0,0,0-.086.129c0,.04.068.077.105.115l.088-.1m23.147-.05c-.013-.034-.019-.087-.042-.1s-.066.021-.1.034c.013.034.018.087.042.1s.066-.021.1-.034" transform="translate(0 0)" fill="#030504"/>
            <path id="Trazado_732871" data-name="Trazado 732871" d="M0,289.33c.094.291.54.581,0,.872Z" transform="translate(0 -253.207)" fill="#060706"/>
            <path id="Trazado_732872" data-name="Trazado 732872" d="M.123,417.278,0,417.273v-.249a.262.262,0,0,1,.123.254" transform="translate(0 -364.959)" fill="#060706"/>
            <path id="Trazado_732873" data-name="Trazado 732873" d="M.122,98.044,0,98.038v-.249a.255.255,0,0,1,.122.255" transform="translate(0 -85.58)" fill="#0c0c0c"/>
            <path id="Trazado_732874" data-name="Trazado 732874" d="M0,5.962l.122-.006A.256.256,0,0,1,0,6.212Z" transform="translate(0 -5.212)" fill="#0c0c0c"/>
            <path id="Trazado_732875" data-name="Trazado 732875" d="M50.14,9.987h3.073c.144.972.464,1.246,1.477,1.246q11.457,0,22.913-.011c.525,0,.694.091.684.661-.039,2.344-.028,4.69-.006,7.035,0,.433-.1.562-.542.548-1.057-.035-2.117,0-3.175-.015a1.229,1.229,0,0,0-1.019.446c-.381.437-.822.821-1.221,1.243-.2.216-.389.242-.555-.005-1.09-1.619-2.676-1.74-4.46-1.71-5.187.086-10.377.039-15.566.02a1.759,1.759,0,0,0-1.562.648,14.037,14.037,0,0,1-1.046,1.065.377.377,0,0,1-.631-.008c-.417-.434-.853-.849-1.269-1.283a1.279,1.279,0,0,0-.985-.415q-9,.009-17.994,0a1.362,1.362,0,0,0-1.084.46c-.379.412-.8.783-1.18,1.2-.263.287-.5.295-.7-.017-1.038-1.57-2.557-1.836-4.279-1.646-.484.053-1.13.219-1.437-.078s-.091-.942-.094-1.433c-.011-2.034.012-4.068-.017-6.1-.007-.488.122-.609.609-.608q11.363.025,22.726.011c1.107,0,1.365-.186,1.735-1.247h3.073A1.2,1.2,0,0,0,49.384,11.1a1.593,1.593,0,0,0,.756-1.117" transform="translate(-16.986 -8.74)" fill="#6f88da"/>
            <path id="Trazado_732876" data-name="Trazado 732876" d="M25.99,245.606h.254l.136.1a5.906,5.906,0,0,1,5.739,4.734,12.267,12.267,0,0,1,.227,2.011c0,4.148-.006,8.3.007,12.443,0,.444-.053.639-.585.635-3.775-.027-7.549-.014-11.324-.016-.271,0-.568.105-.565-.391.023-4.479.024-8.958.031-13.437a.22.22,0,0,0,0-.366,6.182,6.182,0,0,1,4.863-5.561c.361-.07.73-.1,1.1-.15.04.059.08.058.12,0" transform="translate(-17.397 -214.942)" fill="#dee4f0"/>
            <path id="Trazado_732877" data-name="Trazado 732877" d="M397.151,245.606h.254l.136.1a5.989,5.989,0,0,1,5.865,5.453c.147,1.967.065,3.926.091,5.888.035,2.655,0,5.31.014,7.965,0,.337-.023.515-.452.513-3.858-.018-7.717-.013-11.576-.006-.294,0-.443-.037-.442-.394q.028-6.72.029-13.44a.22.22,0,0,0,0-.366,5.578,5.578,0,0,1,1.723-3.766c.08.016.113-.014.094-.1a5.155,5.155,0,0,1,3.675-1.75,3.227,3.227,0,0,0,.466-.1c.04.059.08.058.12,0" transform="translate(-342.22 -214.942)" fill="#dee4f0"/>
            <path id="Trazado_732878" data-name="Trazado 732878" d="M187.17,250.36c-.874-.246-.891-.255-.566-1.105a6.635,6.635,0,0,1,3.854-3.914,8.87,8.87,0,0,1,2.637-.3,18.193,18.193,0,0,1,3.605-.012c1.109.093,2.3-.152,3.3.605.037.14.16.107.256.128l0,0c.032.144.159.1.252.131a5.632,5.632,0,0,1,3.062,3.979c.081.293-.067.311-.253.364a5.958,5.958,0,0,0-4.3,4.24.605.605,0,0,1-.712.509c-2.2-.027-4.4-.04-6.6.007-.534.011-.7-.188-.786-.628a5.11,5.11,0,0,0-1.885-2.919,14.264,14.264,0,0,0-1.728-1.082l-.045-.09-.09.088" transform="translate(-163.137 -214.364)" fill="#ffca28"/>
            <path id="Trazado_732879" data-name="Trazado 732879" d="M153.708,344.6c4.629,0,9.258.007,13.886-.012.462,0,.614.1.574.573-.052.616.21,1.453-.1,1.8-.357.4-1.207.122-1.841.123q-13.17.011-26.34.018c-.515,0-.687-.111-.637-.636.057-.594-.2-1.4.1-1.742.347-.391,1.168-.118,1.781-.12,4.193-.011,8.386-.006,12.579-.006" transform="translate(-121.82 -301.5)" fill="#e7f6fe"/>
            <path id="Trazado_732880" data-name="Trazado 732880" d="M304.7,392c0-1.824,0-3.648,0-5.473,0-1.052.447-1.5,1.5-1.5,2.073,0,4.147.01,6.219-.01.413,0,.541.118.511.521a8.938,8.938,0,0,0,0,1.367c.038.466-.081.643-.6.627-1.284-.041-2.57-.018-3.856-.012a1.144,1.144,0,0,0-1.283,1.3c-.006,2.944-.012,5.888.008,8.831,0,.441-.072.638-.566.593-.615-.056-1.445.2-1.8-.111-.408-.359-.12-1.205-.128-1.839-.019-1.43-.006-2.861-.006-4.291" transform="translate(-266.585 -336.952)" fill="#6d7e98"/>
            <path id="Trazado_732881" data-name="Trazado 732881" d="M147.489,391.512c0,1.887-.012,3.775.01,5.663,0,.414-.119.54-.521.511a8.837,8.837,0,0,0-1.368,0c-.47.039-.63-.088-.625-.6.027-2.862.014-5.725.013-8.587,0-1.069-.468-1.533-1.542-1.534-1.245,0-2.49-.011-3.734.007-.342.005-.482-.077-.46-.444.039-.659-.2-1.5.118-1.927.309-.406,1.2-.115,1.836-.121,1.556-.017,3.112-.008,4.667-.005,1.125,0,1.6.487,1.606,1.622q0,2.707,0,5.414" transform="translate(-121.829 -336.396)" fill="#6d7e98"/>
            <path id="Trazado_732882" data-name="Trazado 732882" d="M43.7,153.232a3.678,3.678,0,0,1-3.607-4.175,3.588,3.588,0,0,1,3.694-3.283,3.673,3.673,0,0,1,3.727,3.764,3.747,3.747,0,0,1-3.814,3.694" transform="translate(-35.078 -127.573)" fill="#fedec0"/>
            <path id="Trazado_732883" data-name="Trazado 732883" d="M417.172,152.279a3.714,3.714,0,0,1-6.073-3.247,3.513,3.513,0,0,1,2.466-3.132,3.758,3.758,0,0,1,4.887,2.821,4.107,4.107,0,0,1-.653,2.945.389.389,0,0,0-.274.368l-.108.108c-.093.026-.211.005-.244.137" transform="translate(-359.753 -127.505)" fill="#fedec0"/>
            <path id="Trazado_732884" data-name="Trazado 732884" d="M226.693,146.446a13.942,13.942,0,0,1,1.551-.672,3.862,3.862,0,0,1,4.536,3.426,3.726,3.726,0,0,1-.847,2.546,2.779,2.779,0,0,0-.638.658,3.876,3.876,0,0,1-4.6-.008,2.02,2.02,0,0,0-.614-.614,4.647,4.647,0,0,1-.775-2.7,6.243,6.243,0,0,1,.775-2.019,1.894,1.894,0,0,0,.614-.614" transform="translate(-197.166 -127.498)" fill="#fedec0"/>
            <path id="Trazado_732885" data-name="Trazado 732885" d="M307.361,307.717a3.612,3.612,0,0,1,3.388-2.489c1.367-.007,2.734.011,4.1-.011.372-.006.513.072.485.471a13.946,13.946,0,0,0,0,1.614c.014.316-.065.425-.4.423-2.5-.015-5.01-.008-7.566-.008" transform="translate(-268.987 -267.11)" fill="#fedec0"/>
            <path id="Trazado_732886" data-name="Trazado 732886" d="M147.547,307.549c-2.55,0-5.018-.008-7.485.009-.374,0-.511-.076-.484-.473.038-.557.022-1.119,0-1.678-.008-.267.067-.364.346-.354a30.955,30.955,0,0,1,5,.151,3.383,3.383,0,0,1,2.614,2.346" transform="translate(-122.149 -266.943)" fill="#fedec0"/>
            <path id="Trazado_732887" data-name="Trazado 732887" d="M67.554,224.248c-.47-.067-.952.379-1.456-.051.465-.462.922-.053,1.364-.031l.092.082" transform="translate(-57.846 -196.014)" fill="#060706"/>
            <path id="Trazado_732888" data-name="Trazado 732888" d="M273.354,194.886a2.782,2.782,0,0,1,.637-.658c.161.059.285.211.112.3-.243.126-.29.7-.749.358" transform="translate(-239.226 -169.979)" fill="#060706"/>
            <path id="Trazado_732889" data-name="Trazado 732889" d="M437.118,224.055c.261-.184.483-.3.743-.1a.146.146,0,0,1-.012.256c-.273.181-.489.064-.731-.152" transform="translate(-382.544 -195.9)" fill="#060706"/>
            <path id="Trazado_732890" data-name="Trazado 732890" d="M232.159,151.734a1.894,1.894,0,0,1-.614.614c-.044-.432.182-.657.614-.614" transform="translate(-202.632 -132.786)" fill="#060706"/>
            <path id="Trazado_732891" data-name="Trazado 732891" d="M231.544,194.514a2.021,2.021,0,0,1,.614.614c-.432.044-.657-.182-.614-.614" transform="translate(-202.631 -170.229)" fill="#060706"/>
            <path id="Trazado_732892" data-name="Trazado 732892" d="M253.916,223.7a.3.3,0,0,1-.5,0v-.126a.3.3,0,0,1,.5,0v.126" transform="translate(-221.778 -195.546)" fill="#060706"/>
            <path id="Trazado_732893" data-name="Trazado 732893" d="M233.927,219.882c-.217.05-.36-.08-.5-.209.313-.28.426-.078.5.209" transform="translate(-204.28 -192.129)" fill="#060706"/>
            <path id="Trazado_732894" data-name="Trazado 732894" d="M205.716,174.1v-.5q.528.249,0,.5" transform="translate(-180.032 -151.93)" fill="#060706"/>
            <path id="Trazado_732895" data-name="Trazado 732895" d="M440.192,124.312c.107.015.112.1.112.178s-.007.173-.114.172-.111-.1-.111-.175.006-.162.113-.175" transform="translate(-385.135 -108.792)" fill="#060706"/>
            <path id="Trazado_732896" data-name="Trazado 732896" d="M77.118,224.672l-.092-.082c.087-.218.264-.085.4-.1l-.054.2-.257-.017" transform="translate(-67.409 -196.439)" fill="#fbfbfa"/>
            <path id="Trazado_732897" data-name="Trazado 732897" d="M29.31,142.9c-.265-.431.19-.15.253-.256a.233.233,0,0,1-.253.256" transform="translate(-25.579 -124.834)" fill="#060706"/>
            <path id="Trazado_732898" data-name="Trazado 732898" d="M69.27,125.375l-.088.1c-.038-.038-.1-.075-.105-.115a.16.16,0,0,1,.086-.129c.066-.019.109.035.107.141" transform="translate(-60.452 -109.595)" fill="#060706"/>
            <path id="Trazado_732899" data-name="Trazado 732899" d="M209.418,152.3c-.011-.19.134-.314.2-.47.057.21.122.423-.2.47" transform="translate(-183.272 -132.871)" fill="#060706"/>
            <path id="Trazado_732900" data-name="Trazado 732900" d="M462.725,193.892a.389.389,0,0,1,.274-.368c0,.194-.007.376-.274.368" transform="translate(-404.954 -169.363)" fill="#060706"/>
            <path id="Trazado_732901" data-name="Trazado 732901" d="M250,224.48v.126h-.483q0-.051,0-.1l.488-.025" transform="translate(-218.36 -196.454)" fill="#0c0c0c"/>
            <path id="Trazado_732902" data-name="Trazado 732902" d="M257.41,224.591v-.126c.129.018.271-.044.388.063-.117.107-.259.045-.388.063" transform="translate(-225.272 -196.439)" fill="#0c0c0c"/>
            <path id="Trazado_732903" data-name="Trazado 732903" d="M391.273,174.852V174.6c.079.013.173.024.173.125s-.094.112-.173.125" transform="translate(-342.423 -152.804)" fill="#060706"/>
            <path id="Trazado_732904" data-name="Trazado 732904" d="M209.561,195.833c-.141-.035-.1-.159-.12-.251.164.024.322.052.12.251" transform="translate(-183.292 -171.164)" fill="#060706"/>
            <path id="Trazado_732905" data-name="Trazado 732905" d="M459.9,197.474c.033-.132.152-.111.244-.137-.017.161-.023.341-.244.137" transform="translate(-402.482 -172.7)" fill="#060706"/>
            <path id="Trazado_732906" data-name="Trazado 732906" d="M255.021,125.3c-.034.013-.077.045-.1.034s-.029-.063-.042-.1c.034-.013.076-.045.1-.034s.029.063.042.1" transform="translate(-223.057 -109.565)" fill="#060706"/>
            <path id="Trazado_732907" data-name="Trazado 732907" d="M391.279,291.352a.22.22,0,0,1,0,.366q0-.183,0-.366" transform="translate(-342.427 -254.977)" fill="#ea5560"/>
            <path id="Trazado_732908" data-name="Trazado 732908" d="M295.483,250.251c-.1-.021-.219.011-.256-.128.137-.06.267-.107.256.128" transform="translate(-258.368 -218.852)" fill="#090909"/>
            <path id="Trazado_732909" data-name="Trazado 732909" d="M297.506,251.257c-.093-.027-.22.012-.252-.132.143-.068.265-.1.252.132" transform="translate(-260.142 -219.73)" fill="#090909"/>
            <path id="Trazado_732910" data-name="Trazado 732910" d="M20.131,291.352a.22.22,0,0,1,0,.366v-.366" transform="translate(-17.617 -254.977)" fill="#ea5560"/>
            <path id="Trazado_732911" data-name="Trazado 732911" d="M192.5,287.694l.09-.088.045.09-.135,0" transform="translate(-168.465 -251.698)" fill="#060706"/>
            <path id="Trazado_732912" data-name="Trazado 732912" d="M3.158,271.41c-.041-.091.022-.114.088-.134l-.088.134" transform="translate(-2.752 -237.407)" fill="#090909"/>
            <path id="Trazado_732913" data-name="Trazado 732913" d="M170.77,266.442c-.034-.089.025-.114.092-.132l-.092.132" transform="translate(-149.441 -233.061)" fill="#090909"/>
            <path id="Trazado_732914" data-name="Trazado 732914" d="M5.143,266.438c-.032-.089.026-.114.094-.133l-.094.133" transform="translate(-4.493 -233.057)" fill="#090909"/>
            <path id="Trazado_732915" data-name="Trazado 732915" d="M405.182,260.419c.019.081-.014.112-.094.1l.094-.1" transform="translate(-354.513 -227.906)" fill="#0a0707"/>
            <path id="Trazado_732916" data-name="Trazado 732916" d="M442.142,245.678l-.136-.1c.083-.019.114.033.136.1" transform="translate(-386.822 -214.916)" fill="#ea5560"/>
            <path id="Trazado_732917" data-name="Trazado 732917" d="M208.656,155.687c-.033-.089.025-.115.092-.135l-.092.135" transform="translate(-182.596 -136.131)" fill="#060706"/>
            <path id="Trazado_732918" data-name="Trazado 732918" d="M439.132,245.5c-.04.058-.08.059-.12,0a.129.129,0,0,1,.12,0" transform="translate(-384.201 -214.839)" fill="#ea5560"/>
            <path id="Trazado_732919" data-name="Trazado 732919" d="M70.994,245.678l-.136-.1c.083-.019.114.033.136.1" transform="translate(-62.011 -214.916)" fill="#ea5560"/>
            <path id="Trazado_732920" data-name="Trazado 732920" d="M67.985,245.5c-.04.058-.08.059-.12,0a.129.129,0,0,1,.12,0" transform="translate(-59.392 -214.839)" fill="#ea5560"/>
            <path id="Trazado_732921" data-name="Trazado 732921" d="M444.3,124.9q0,.057,0,.114l-.092-.094.1-.02" transform="translate(-388.748 -109.305)" fill="#fbfbfa"/>
            <path id="Trazado_732922" data-name="Trazado 732922" d="M79.819,224.849l.054-.2c.039.038.111.075.111.113,0,.11-.084.107-.165.091" transform="translate(-69.854 -196.598)" fill="#fff"/>
            <path id="Trazado_732923" data-name="Trazado 732923" d="M247.8,2.021a1.593,1.593,0,0,1-.756,1.117,1.2,1.2,0,0,1-1.776-1.117c.066-.716.363-1.076.925-1.12.969-.076,1.334.085,1.607,1.12" transform="translate(-214.649 -0.774)" fill="#060706"/>
          </g>
        </g>
      </g>
    </g>
  </g>
</svg>
