<svg xmlns="http://www.w3.org/2000/svg" xmlns:xlink="http://www.w3.org/1999/xlink" width="1240" height="189.941" viewBox="0 0 1240 189.941">
  <defs>
    <linearGradient id="linear-gradient" x1="1.043" y1="-0.125" x2="0.336" y2="1.321" gradientUnits="objectBoundingBox">
      <stop offset="0" stop-color="#64f6f0"/>
      <stop offset="0.645" stop-color="#4b31a8"/>
      <stop offset="1" stop-color="#461698"/>
    </linearGradient>
    <clipPath id="clip-path">
      <path id="Rectangle_652" data-name="Rectangle 652" d="M1220.473,0H19.528C8.743,0,0,3.15,0,7.035V182.907c0,3.885,8.743,7.035,19.528,7.035H1220.473c10.785,0,19.527-3.15,19.527-7.035V7.035C1240,3.15,1231.258,0,1220.473,0Z" transform="translate(0 17.973)" fill="url(#linear-gradient)"/>
    </clipPath>
    <linearGradient id="linear-gradient-2" x1="0.5" x2="0.5" y2="1" gradientUnits="objectBoundingBox">
      <stop offset="0" stop-color="#d0cece"/>
      <stop offset="1" stop-color="#e2e2e2"/>
    </linearGradient>
  </defs>
  <g id="Enmascarar_grupo_45" data-name="Enmascarar grupo 45" transform="translate(0 -17.973)" clip-path="url(#clip-path)">
    <path id="Sustracción_4" data-name="Sustracción 4" d="M577.508,520.576h0c-20.883-2.856-41.859-6.716-62.344-11.472-20.256-4.7-40.532-10.4-60.262-16.927-19.546-6.466-39.03-13.9-57.908-22.108-18.738-8.142-37.34-17.234-55.293-27.027-17.848-9.735-35.48-20.394-52.408-31.677-16.847-11.229-33.42-23.362-49.254-36.059-15.767-12.642-31.189-26.156-45.836-40.168s-28.819-28.821-42.143-44.015c-13.382-15.258-26.231-31.269-38.189-47.588-12.013-16.395-23.44-33.519-33.965-50.895-10.58-17.474-20.494-35.62-29.471-53.935C41.4,120.279,33.082,101.2,25.716,82,18.291,62.639,11.668,42.719,6.031,22.8,3.9,15.271,1.872,7.6,0,0H183.354c1.469,4.309,3.012,8.647,4.589,12.895,5.153,13.888,10.99,27.745,17.35,41.187C211.585,67.379,218.551,80.6,226,93.372c7.387,12.672,15.42,25.192,23.878,37.213,8.408,11.957,17.448,23.717,26.868,34.953,9.392,11.2,19.377,22.14,29.679,32.511s21.178,20.43,32.306,29.883S361.552,246.5,373.48,255s24.387,16.613,37.009,24.08c12.695,7.507,25.848,14.541,39.094,20.906,13.338,6.412,27.127,12.317,40.986,17.551,13.966,5.271,28.333,9.983,42.7,14.007,14.518,4.063,29.4,7.522,44.237,10.283V520.575Z" transform="translate(729.794 -0.5)" fill="#6f88da"/>
    <path id="Sustracción_2" data-name="Sustracción 2" d="M405.691,0c224.056,0,405.69,182.171,405.69,406.89s-181.634,406.89-405.69,406.89S0,631.608,0,406.89,181.633,0,405.691,0Z" transform="translate(608.62 110.258)" opacity="0.444" fill="url(#linear-gradient-2)" style="mix-blend-mode: multiply;isolation: isolate"/>
    <path id="Sustracción_6" data-name="Sustracción 6" d="M373.3,319.447h0a502.73,502.73,0,0,1-54.8-14.366A503.749,503.749,0,0,1,247.612,276a507.316,507.316,0,0,1-65.033-39.065,510.816,510.816,0,0,1-58.234-48.089,511.767,511.767,0,0,1-50.473-56.153A510.132,510.132,0,0,1,32.105,69.421,506.966,506.966,0,0,1,0,0H2.13C4.5,6.316,7.013,12.628,9.6,18.761,15.92,33.749,23.061,48.616,30.823,62.949c7.706,14.229,16.2,28.252,25.246,41.678,9.016,13.384,18.778,26.477,29.015,38.914,10.205,12.408,21.15,24.486,32.529,35.9s23.427,22.393,35.8,32.629c12.416,10.275,25.469,20.065,38.8,29.1,13.379,9.067,27.362,17.586,41.555,25.32,14.29,7.785,29.113,14.946,44.06,21.285,15.085,6.4,30.663,12.121,46.3,17,15.778,4.922,32.028,9.113,48.3,12.458l.875.178v2.039Z" transform="translate(934.997 -0.498)" fill="#fff"/>
  </g>
</svg>
