<svg xmlns="http://www.w3.org/2000/svg" xmlns:xlink="http://www.w3.org/1999/xlink" width="98.955" height="99.541" viewBox="0 0 98.955 99.541">
  <defs>
    <radialGradient id="radial-gradient" cx="0.076" cy="0.019" r="1.465" gradientTransform="translate(0.001)" gradientUnits="objectBoundingBox">
      <stop offset="0" stop-color="#f6f6f7"/>
      <stop offset="0.477" stop-color="#f9f9fa"/>
      <stop offset="0.715" stop-color="#fff"/>
    </radialGradient>
    <filter id="Trazado_40937" x="0" y="0.685" width="98.955" height="98.856" filterUnits="userSpaceOnUse">
      <feOffset dy="7" input="SourceAlpha"/>
      <feGaussianBlur stdDeviation="2.5" result="blur"/>
      <feFlood flood-opacity="0.102"/>
      <feComposite operator="in" in2="blur"/>
      <feComposite in="SourceGraphic"/>
    </filter>
    <clipPath id="clip-path">
      <rect id="Rectángulo_352717" data-name="Rectángulo 352717" width="39.416" height="39.429" fill="none"/>
    </clipPath>
  </defs>
  <g id="Grupo_1019310" data-name="Grupo 1019310" transform="translate(-173.586 -4312.63)">
    <g id="Grupo_1000932" data-name="Grupo 1000932" transform="translate(180 4312.63)">
      <g id="Grupo_18423" data-name="Grupo 18423" transform="translate(0 0)">
        <g id="Grupo_18421" data-name="Grupo 18421">
          <g id="Grupo_18420" data-name="Grupo 18420">
            <g id="Grupo_18419" data-name="Grupo 18419">
              <path id="Trazado_40936" data-name="Trazado 40936" d="M279.664,2188.24a42.521,42.521,0,1,1-42.52-42.519A42.52,42.52,0,0,1,279.664,2188.24Z" transform="translate(-194.623 -2145.721)" fill="#fff"/>
            </g>
          </g>
        </g>
        <g transform="matrix(1, 0, 0, 1, -6.41, 0)" filter="url(#Trazado_40937)">
          <path id="Trazado_40937-2" data-name="Trazado 40937" d="M279.432,2187.987a42.52,42.52,0,1,0-42.52,42.521A42.352,42.352,0,0,0,279.432,2187.987Z" transform="translate(-187.98 -2145.47)" fill="url(#radial-gradient)"/>
        </g>
        <path id="Trazado_40938" data-name="Trazado 40938" d="M267.371,2186.006a32.456,32.456,0,1,0-32.456,32.456A32.336,32.336,0,0,0,267.371,2186.006Z" transform="translate(-192.266 -2143.346)" fill="none" stroke="#6f88da" stroke-miterlimit="10" stroke-width="4"/>
        <g id="Grupo_18422" data-name="Grupo 18422" transform="translate(7.533 23.872)">
          <path id="Trazado_40939" data-name="Trazado 40939" d="M273.754,2164.488a42.526,42.526,0,0,1-73.209,42.344,42.391,42.391,0,0,0,73.209-42.344Z" transform="translate(-200.545 -2164.488)" fill="#eceef0"/>
        </g>
      </g>
    </g>
    <g id="Grupo_1018777" data-name="Grupo 1018777" transform="translate(203.629 4336.436)">
      <g id="Grupo_1018776" data-name="Grupo 1018776" clip-path="url(#clip-path)">
        <path id="Trazado_732994" data-name="Trazado 732994" d="M5.558,24.495c-.063-.173-.12-.349-.19-.518a.64.64,0,0,1,.329-.957.7.7,0,0,1,.776.6,4.774,4.774,0,0,0,.224.59,8.587,8.587,0,0,0,1.465,2.611c.023.037.043.1.068.105.081.007.076-.067.084-.123a6.208,6.208,0,0,1,.552-.625,11.116,11.116,0,0,1,1.024-1.13c.4-.393.932-.311,1.43-.335a1.668,1.668,0,0,1,1.132,1.223,6.166,6.166,0,0,1,.079.944c-.073.29-.078.537.328.53A3.828,3.828,0,0,1,16.1,30.421a5,5,0,0,1,.063,1.238c0,.172.025.285.239.307a16.178,16.178,0,0,0,2.919.056,2.941,2.941,0,0,0,1.115-.107,11.087,11.087,0,0,0,2.512-.706,13.026,13.026,0,0,0,3.555-2.143c.474-.4.871-.876,1.361-1.254,0-.029,0-.059,0-.088a11.272,11.272,0,0,0,2.2-3.639,12.106,12.106,0,0,0,.694-2.34,8.922,8.922,0,0,0,.2-1.385c0-.674,0-1.36-.067-2.043a13.368,13.368,0,0,0-1-3.933c-.111-.264-.177-.373-.458-.128a1.5,1.5,0,0,1-2.42-.621,4.674,4.674,0,0,1-.092-1.438c-.012-.157-.009-.266-.222-.256a3.607,3.607,0,0,1-1.541-.472,3.416,3.416,0,0,1-1.362-1.3,3.327,3.327,0,0,1-.614-2.039.367.367,0,0,0-.3-.407c-.507-.158-1.009-.344-1.527-.453a9.936,9.936,0,0,0-2.106-.31,2.323,2.323,0,0,0-.567-.076,13.239,13.239,0,0,0-3.73.491,12.482,12.482,0,0,0-3.335,1.486,12.651,12.651,0,0,0-5.586,7.951,16.113,16.113,0,0,0-.238,1.865,15.343,15.343,0,0,0-.007,1.763c0,.127-.106.216-.05.355.233.579.183.758-.268,1.1-.408.126-.7-.137-.768-.69a14.153,14.153,0,0,1-.06-2.673,13.476,13.476,0,0,1,.3-1.835c.092-.429.263-.843.328-1.288A5.713,5.713,0,0,1,5.8,13.916a5.239,5.239,0,0,1,.421-.868c.24-.345.445-.714.684-1.063A9.643,9.643,0,0,1,7.781,10.7a13.76,13.76,0,0,1,3.157-2.765,6.272,6.272,0,0,0,.628-.455c.075.044.139.063.137-.062.574-.257,1.136-.547,1.725-.762a17.364,17.364,0,0,1,2.788-.74A15.139,15.139,0,0,1,19.4,5.8a10.659,10.659,0,0,1,3.391.68c.369.135.4.125.4-.276-.006-.939-.068-1.881-.008-2.816A3.386,3.386,0,0,1,24.1,1.362c.185-.208.4-.389.6-.582l.084-.058A3.861,3.861,0,0,1,26.942,0h8.782a3.3,3.3,0,0,0,.36.087,3.659,3.659,0,0,1,2.879,2c.2.371.241.795.453,1.155V8.174a.186.186,0,0,0,0,.308v.385c-.077,0-.135,0-.157.108a3.664,3.664,0,0,1-1.8,2.434c-.062.039-.13.068-.191.107-.55.346-.755.314-1.179-.184.041-.159-.057-.362.149-.47.113.006.169-.047.167-.161a1.028,1.028,0,0,1,.158-.1,2.7,2.7,0,0,0,1.691-2.754q.024-1.884,0-3.77a3.236,3.236,0,0,0-.329-1.5A2.592,2.592,0,0,0,35.5,1.167c-2.667-.022-5.334-.008-8-.007a3.26,3.26,0,0,0-1.095.1c-.066-.014-.132-.027-.161.059l0,0c-.353.018-.6.284-.91.4q-.406-.016-.39.39a3.245,3.245,0,0,0-.569,1.432c-.057,1.513-.007,3.026-.027,4.538a2.562,2.562,0,0,0,.561,1.7,1.889,1.889,0,0,0,1.416.856c.269.276.615.16.926.158a.782.782,0,0,1,.835.552c0,.585-.019,1.17,0,1.754.008.328.242.482.5.346a.874.874,0,0,0,.452-.41.134.134,0,0,0,.137-.154c.425-.482.874-.944,1.269-1.454a1.393,1.393,0,0,1,1.291-.64,21.761,21.761,0,0,0,2.378.008.8.8,0,0,1,.911.611A.906.906,0,0,1,34,11.954c-.743-.03-1.488,0-2.232-.012a.5.5,0,0,0-.43.183c-.222.261-.451.517-.683.768a.285.285,0,0,0-.046.376,12.432,12.432,0,0,1,1.312,3.959,13.535,13.535,0,0,1,.187,2.381,14,14,0,0,1-.386,2.98,12.986,12.986,0,0,1-2.545,5.351,13.674,13.674,0,0,1-1.236,1.371A13.847,13.847,0,0,1,22.5,32.6a15.666,15.666,0,0,1-3.075.612,8.446,8.446,0,0,1-1.521.047,7,7,0,0,1-1.35-.133c-.2-.054-.346-.024-.344.277a20.685,20.685,0,0,1-.038,2.341,3.866,3.866,0,0,1-1.866,3,3.806,3.806,0,0,1-2.109.549q-4.041,0-8.082,0c-.09,0-.29-.118-.264.139H3.62c.134-.152.01-.153-.094-.154a3.438,3.438,0,0,1-2.52-1.214A3.446,3.446,0,0,1,0,35.64c.012-1.563.008-3.127,0-4.69a3.236,3.236,0,0,1,.82-2.143,3.4,3.4,0,0,1,2.156-1.333,9.444,9.444,0,0,1,1.387-.136c.782.009,1.563,0,2.345,0,.094,0,.234.061.273-.053.023-.066-.058-.177-.108-.258A11.507,11.507,0,0,1,5.62,24.577l-.062-.082M3.389,38.108l9.114.015a1.42,1.42,0,0,0,.382-.02,2.8,2.8,0,0,0,2.173-2.711c.03-1.384.016-2.769,0-4.154a2.779,2.779,0,0,0-.429-1.467A2.86,2.86,0,0,0,12.048,28.5c-.52-.012-.686-.158-.7-.679-.012-.474-.009-.949,0-1.423,0-.221-.028-.445-.254-.5a.581.581,0,0,0-.648.2c-.59.745-1.226,1.451-1.878,2.143a.769.769,0,0,1-.623.267c-1.32-.007-2.641,0-3.961,0a1.333,1.333,0,0,0-.595.091,2.541,2.541,0,0,0-2.225,2.371c-.023,1.461.041,2.924-.02,4.383a2.781,2.781,0,0,0,2.246,2.767M7.045,27.326l.026-.021-.024-.024-.027.033.024.013" transform="translate(0)"/>
        <path id="Trazado_732995" data-name="Trazado 732995" d="M509.861,106.239a.186.186,0,0,1,0-.308Z" transform="translate(-470.445 -97.757)"/>
        <path id="Trazado_732996" data-name="Trazado 732996" d="M327.457,15.061a3.261,3.261,0,0,1,1.095-.1c2.667,0,5.334-.015,8,.007a2.591,2.591,0,0,1,2.425,1.416,3.235,3.235,0,0,1,.329,1.5q.024,1.885,0,3.77a2.7,2.7,0,0,1-1.691,2.754,1.027,1.027,0,0,0-.158.1.144.144,0,0,0-.167.161c-.206.107-.108.31-.149.47a3.33,3.33,0,0,1-1.067.064.8.8,0,0,0-.911-.611,21.781,21.781,0,0,1-2.378-.008,1.393,1.393,0,0,0-1.291.64c-.395.51-.843.972-1.269,1.454l-.149.014A3.489,3.489,0,0,1,330,25.52c-.012-.133.036-.293-.181-.31s-.451-.049-.676-.074a.781.781,0,0,0-.835-.552c-.311,0-.657.118-.926-.158a4.061,4.061,0,0,1-1.155-3.174c.013-1.09-.015-2.18.008-3.27a3.814,3.814,0,0,1,.778-2.433c.108-.132.3-.219.289-.433l0,0a.163.163,0,0,0,.161-.059m4.809,3.759q1.941,0,3.882,0c.448,0,.7-.21.7-.568s-.242-.584-.687-.584q-3.825,0-7.649,0c-.424,0-.676.232-.671.594.005.344.254.558.655.559q1.884,0,3.767,0m-1.055,2.4c.91,0,1.821,0,2.731,0,.481,0,.672-.153.675-.523,0-.42-.209-.628-.674-.629q-2.712-.006-5.424,0c-.443,0-.682.223-.675.6.006.348.25.552.674.553.9,0,1.8,0,2.693,0" transform="translate(-301.051 -13.803)" fill="#4adbd1"/>
        <path id="Trazado_732997" data-name="Trazado 732997" d="M70.833,104.149c.451-.34.5-.519.268-1.1-.056-.14.053-.229.05-.355a15.325,15.325,0,0,1,.007-1.763,16.111,16.111,0,0,1,.238-1.865,12.651,12.651,0,0,1,5.586-7.951,12.482,12.482,0,0,1,3.335-1.486,13.238,13.238,0,0,1,3.73-.491,2.322,2.322,0,0,1,.567.076,1.094,1.094,0,0,1-.2.116,13.734,13.734,0,0,0-4.834,3.015.793.793,0,0,0-.355.567l-.145.14L79,93.137a11.7,11.7,0,0,0-1.165,1.531l-.066.09a.417.417,0,0,1-.147.3c-.152-.009-.18.119-.237.215a12.609,12.609,0,0,0-1.689,5.706,13.06,13.06,0,0,0,.829,5.41,1.134,1.134,0,0,1,.165.583c-.5.024-1.031-.058-1.43.335a11.106,11.106,0,0,0-1.024,1.13,6.2,6.2,0,0,0-.552.625l-.152.018a8.586,8.586,0,0,1-1.465-2.611,4.765,4.765,0,0,1-.224-.59.7.7,0,0,0-.776-.6,5.45,5.45,0,0,1-.231-1.13" transform="translate(-65.368 -82.259)" fill="#dedaee"/>
        <path id="Trazado_732998" data-name="Trazado 732998" d="M150.03,96.064c0,.125-.062.106-.137.062.007-.107.082-.063.137-.062" transform="translate(-138.327 -88.643)" fill="#030303"/>
        <path id="Trazado_732999" data-name="Trazado 732999" d="M320.25,9.293l-.084.058c.013-.041.029-.078.084-.058" transform="translate(-295.462 -8.571)"/>
        <path id="Trazado_733000" data-name="Trazado 733000" d="M71.977,317.455l.062.082c-.044-.009-.078-.027-.062-.082" transform="translate(-66.419 -292.96)" fill="#030303"/>
        <path id="Trazado_733001" data-name="Trazado 733001" d="M137.073,93.849a.793.793,0,0,1,.355-.567,13.734,13.734,0,0,1,4.834-3.015,1.1,1.1,0,0,0,.2-.116,9.935,9.935,0,0,1,2.106.31c.518.109,1.02.294,1.527.453a.367.367,0,0,1,.3.407,3.327,3.327,0,0,0,.614,2.039,3.415,3.415,0,0,0,1.362,1.3,3.606,3.606,0,0,0,1.541.472c.213-.01.21.1.223.256a4.676,4.676,0,0,0,.092,1.438,1.5,1.5,0,0,0,2.421.621c.281-.245.347-.136.458.128a13.365,13.365,0,0,1,1,3.933c.066.683.064,1.369.067,2.043a8.923,8.923,0,0,1-.2,1.385,12.1,12.1,0,0,1-.694,2.34,11.271,11.271,0,0,1-2.2,3.639l-.057.057.056.031c-.489.379-.886.856-1.361,1.254a13.026,13.026,0,0,1-3.555,2.143,11.084,11.084,0,0,1-2.512.706,2.941,2.941,0,0,1-1.115.107,20.376,20.376,0,0,1-3.221-1.6,3.828,3.828,0,0,0-3.243-3.015.669.669,0,0,0-.328-.53,6.168,6.168,0,0,0-.079-.944,1.668,1.668,0,0,0-1.132-1.223,1.133,1.133,0,0,0-.165-.583,13.06,13.06,0,0,1-.829-5.41,12.608,12.608,0,0,1,1.689-5.706c.056-.1.085-.224.237-.215a9.871,9.871,0,0,0-.649,2.234,2.87,2.87,0,0,0,.656,2.538c-.014.052.006.07.057.058a2.449,2.449,0,0,0,1.78.723,2.558,2.558,0,0,0,2.473-2.452,1.761,1.761,0,0,1,2.65-1.607,1.736,1.736,0,0,1,.72,2.363,1.785,1.785,0,0,1-1.615,1,2.738,2.738,0,0,0-1.466.472c-.055-.022-.071.015-.083.056l0,0a.974.974,0,0,0-.306.308,2.419,2.419,0,0,0-.461.877,10.859,10.859,0,0,0-.136,2.571,2.2,2.2,0,0,0,.038.595,2.66,2.66,0,0,0,1.276,1.653,2.377,2.377,0,0,0,2.83-.37.588.588,0,0,0,.236-.236,1.874,1.874,0,0,0,.458-.748c.081-.227.157-.6.25-.652.328-.18.618-.426.944-.589a5.285,5.285,0,0,0,1.422-1.123,7.424,7.424,0,0,0,1.413-2.257,8.805,8.805,0,0,0,.432-2.274,4.371,4.371,0,0,0-.071-.75,5.921,5.921,0,0,0-1.415-3.579,6.6,6.6,0,0,0-3.212-2.2,7.113,7.113,0,0,0-2.41-.312,7.271,7.271,0,0,0-3.542,1.095c-.236.135-.4.369-.661.473m2,16.753a2.5,2.5,0,0,0,5.007.114,2.55,2.55,0,0,0-2.478-2.65,2.485,2.485,0,0,0-2.53,2.536" transform="translate(-123.21 -83.195)" fill="#faf6f9"/>
        <path id="Trazado_733002" data-name="Trazado 733002" d="M29.167,337.927a1.333,1.333,0,0,1,.595-.091c1.32,0,2.641,0,3.961,0a.768.768,0,0,0,.623-.267c.652-.692,1.288-1.4,1.878-2.143a.581.581,0,0,1,.648-.2c.226.058.258.282.254.5-.008.474-.011.949,0,1.423.013.521.18.668.7.679a2.86,2.86,0,0,1,2.583,1.277,2.779,2.779,0,0,1,.429,1.467c.015,1.384.028,2.77,0,4.154a2.8,2.8,0,0,1-2.173,2.711,1.419,1.419,0,0,1-.382.02l-9.114-.015c-.036-.227-.234-.329-.374-.47a2.842,2.842,0,0,1-.857-2.065c-.005-1.524,0-3.048,0-4.571a2.822,2.822,0,0,1,.043-.455,3.555,3.555,0,0,1,1.188-1.961m4.706,3.971c1.257,0,2.514,0,3.771,0a.7.7,0,0,0,.759-.59c0-.33-.313-.562-.764-.563q-1.5,0-3,0c-1.565,0-3.13.006-4.695,0a.606.606,0,0,0-.607.474c-.079.242.1.436.289.576a.872.872,0,0,0,.554.107h3.694m-1.128,2.4c.936,0,1.872.007,2.808,0a.576.576,0,1,0,0-1.148c-1.872-.006-3.744,0-5.616,0a.542.542,0,0,0-.53.3.577.577,0,0,0,.564.846c.923.012,1.846,0,2.769,0" transform="translate(-25.778 -309.34)" fill="#ffca28"/>
        <path id="Trazado_733003" data-name="Trazado 733003" d="M17.028,370.488a3.555,3.555,0,0,0-1.188,1.961,2.8,2.8,0,0,0-.043.455c0,1.524,0,3.048,0,4.571a2.842,2.842,0,0,0,.857,2.065c.14.141.338.243.374.47a2.781,2.781,0,0,1-2.247-2.767c.061-1.459,0-2.922.02-4.383a2.541,2.541,0,0,1,2.225-2.371" transform="translate(-13.64 -341.901)" fill="#d9ac21"/>
        <path id="Trazado_733004" data-name="Trazado 733004" d="M317.475,17.027c.01.214-.181.3-.289.433a3.814,3.814,0,0,0-.778,2.433c-.023,1.09,0,2.18-.008,3.27a4.061,4.061,0,0,0,1.155,3.174,1.889,1.889,0,0,1-1.416-.856,2.562,2.562,0,0,1-.561-1.7c.02-1.512-.03-3.025.027-4.538a3.246,3.246,0,0,1,.569-1.432,1.21,1.21,0,0,0,.39-.39c.312-.113.557-.379.91-.4" transform="translate(-291.227 -15.713)" fill="#26a59c"/>
        <path id="Trazado_733005" data-name="Trazado 733005" d="M208.69,394.258a20.376,20.376,0,0,0,3.221,1.6,16.185,16.185,0,0,1-2.919-.056c-.214-.022-.236-.136-.239-.307a5,5,0,0,0-.063-1.238" transform="translate(-192.587 -363.837)" fill="#dedaee"/>
        <path id="Trazado_733006" data-name="Trazado 733006" d="M363.915,146.892c.225.025.45.055.676.074s.169.177.181.31a3.488,3.488,0,0,0,.083,1.167l.012.139a.874.874,0,0,1-.452.41c-.262.136-.5-.018-.5-.346-.015-.584,0-1.169,0-1.754" transform="translate(-335.826 -135.558)" fill="#26a59c"/>
        <path id="Trazado_733007" data-name="Trazado 733007" d="M161.948,348.31a.669.669,0,0,1,.328.53c-.406.007-.4-.24-.328-.53" transform="translate(-149.417 -321.434)" fill="#dedaee"/>
        <path id="Trazado_733008" data-name="Trazado 733008" d="M323.7,22.159a1.209,1.209,0,0,1-.39.39q-.016-.406.39-.39" transform="translate(-298.359 -20.448)"/>
        <path id="Trazado_733009" data-name="Trazado 733009" d="M376.232,166.95l-.012-.139.149-.014a.134.134,0,0,1-.137.154" transform="translate(-347.191 -153.926)" fill="#030303"/>
        <path id="Trazado_733010" data-name="Trazado 733010" d="M469.7,138.841a.144.144,0,0,1,.167-.161c0,.114-.054.167-.167.161" transform="translate(-433.46 -127.979)"/>
        <path id="Trazado_733011" data-name="Trazado 733011" d="M105.774,347.33l.152-.018c-.008.056,0,.131-.084.123-.026,0-.046-.068-.068-.105" transform="translate(-97.612 -320.513)" fill="#030303"/>
        <path id="Trazado_733012" data-name="Trazado 733012" d="M340.3,16.189a.163.163,0,0,1-.161.059c.03-.086.1-.073.161-.059" transform="translate(-313.889 -14.931)" fill="#ed596b"/>
        <path id="Trazado_733013" data-name="Trazado 733013" d="M91.016,353.609l-.024-.013.027-.033.024.024-.026.021" transform="translate(-83.971 -326.283)" fill="#faf6f9"/>
        <path id="Trazado_733014" data-name="Trazado 733014" d="M360.475,359.387l-.056-.031.057-.057q0,.044,0,.088" transform="translate(-332.609 -331.576)" fill="#030303"/>
        <path id="Trazado_733015" data-name="Trazado 733015" d="M351.652,51.207q-1.884,0-3.767,0c-.4,0-.65-.215-.655-.559-.006-.362.247-.594.671-.594q3.825,0,7.65,0c.445,0,.689.217.687.584s-.254.567-.7.568q-1.941,0-3.882,0" transform="translate(-320.438 -46.19)"/>
        <path id="Trazado_733016" data-name="Trazado 733016" d="M350.6,82.248c-.9,0-1.8,0-2.693,0-.425,0-.668-.205-.674-.553-.007-.376.232-.6.675-.6q2.712-.006,5.424,0c.465,0,.677.208.674.629,0,.371-.193.522-.675.523-.91,0-1.821,0-2.731,0" transform="translate(-320.442 -74.835)"/>
        <path id="Trazado_733017" data-name="Trazado 733017" d="M152.023,119.308c.259-.1.425-.338.661-.473a7.271,7.271,0,0,1,3.542-1.095,7.11,7.11,0,0,1,2.41.312,6.6,6.6,0,0,1,3.212,2.2,5.921,5.921,0,0,1,1.415,3.579,4.366,4.366,0,0,1,.071.75,8.806,8.806,0,0,1-.432,2.274,7.424,7.424,0,0,1-1.413,2.257,5.285,5.285,0,0,1-1.422,1.123c-.327.163-.616.409-.944.589-.093.051-.169.425-.25.652a1.877,1.877,0,0,1-.458.748q-.267-.032-.236.236a2.378,2.378,0,0,1-2.83.37,2.661,2.661,0,0,1-1.276-1.653,2.2,2.2,0,0,1-.038-.595,10.855,10.855,0,0,1,.136-2.571,2.417,2.417,0,0,1,.461-.877c.3.089.3-.114.307-.308l0,0,.083-.056a2.738,2.738,0,0,1,1.466-.472,1.785,1.785,0,0,0,1.615-1,1.736,1.736,0,0,0-.72-2.363,1.761,1.761,0,0,0-2.65,1.607A2.558,2.558,0,0,1,152.258,127a2.449,2.449,0,0,1-1.78-.723l-.057-.058a2.871,2.871,0,0,1-.656-2.538,9.868,9.868,0,0,1,.649-2.234.417.417,0,0,0,.147-.3c.04-.017.079-.034.066-.09a11.712,11.712,0,0,1,1.165-1.531l.088-.082.145-.14m6.458,2.992c.076.085.153.168.227.255a2.82,2.82,0,0,1,.75,2.136,3.108,3.108,0,0,1-.977,1.985c-.251.167-.435.434-.731.527a3.835,3.835,0,0,1-1.495.262,1.266,1.266,0,0,0-1.068,1.289q0,.88,0,1.761a1.326,1.326,0,0,0,1.221,1.467c.79-.025,1.354-.362,1.427-1.141a1.134,1.134,0,0,1,.819-1.154c.1.056.145.03.14-.084.3.059.4-.247.611-.326a2.956,2.956,0,0,0,.924-.6c.045.068.121.111.174.048.07-.082-.021-.115-.085-.143a10.6,10.6,0,0,0,.859-1.012,5.887,5.887,0,0,0,.9-2.626,4.188,4.188,0,0,0-.051-1.557,7.472,7.472,0,0,0-.7-1.678,5.54,5.54,0,0,0-2.608-2.368,5.763,5.763,0,0,0-3.277-.421,3.2,3.2,0,0,0-1.292.442.606.606,0,0,0-.353.11,5.988,5.988,0,0,0-1.947,1.712,5.409,5.409,0,0,0-1.073,3.385,1.349,1.349,0,0,0,2.694-.039,2.073,2.073,0,0,1,.094-.744,2.962,2.962,0,0,1,4.82-1.483" transform="translate(-138.16 -108.653)"/>
        <path id="Trazado_733018" data-name="Trazado 733018" d="M176.736,139.9l-.088.082.088-.082" transform="translate(-163.018 -129.107)" fill="#faf6f9"/>
        <path id="Trazado_733019" data-name="Trazado 733019" d="M160.763,160.816c.013.056-.026.073-.066.09l.066-.09" transform="translate(-148.298 -148.407)" fill="#faf6f9"/>
        <path id="Trazado_733020" data-name="Trazado 733020" d="M205.506,324.866a2.485,2.485,0,0,1,2.53-2.536,2.55,2.55,0,0,1,2.478,2.65,2.5,2.5,0,0,1-5.007-.114m2.388-1.361a.991.991,0,0,0-.683.245,1.4,1.4,0,0,0,.683,2.5,1.379,1.379,0,0,0,1.467-1.479,1.315,1.315,0,0,0-1.467-1.267" transform="translate(-189.646 -297.459)"/>
        <path id="Trazado_733021" data-name="Trazado 733021" d="M213.8,235.547c-.01.194-.011.4-.306.308a.974.974,0,0,1,.306-.308" transform="translate(-197.017 -217.372)"/>
        <path id="Trazado_733022" data-name="Trazado 733022" d="M259.415,305.7q-.032-.267.236-.236a.588.588,0,0,1-.236.236" transform="translate(-239.395 -281.895)"/>
        <path id="Trazado_733023" data-name="Trazado 733023" d="M217.505,234.776l-.083.056c.012-.041.028-.078.083-.056" transform="translate(-200.646 -216.655)" fill="#030303"/>
        <path id="Trazado_733024" data-name="Trazado 733024" d="M158.839,227.67l.057.058c-.051.012-.071-.007-.057-.058" transform="translate(-146.579 -210.103)"/>
        <path id="Trazado_733025" data-name="Trazado 733025" d="M50.412,408.133H46.718a.872.872,0,0,1-.554-.107c-.185-.14-.368-.334-.289-.576a.606.606,0,0,1,.607-.474c1.565.007,3.13,0,4.695,0q1.5,0,3,0c.452,0,.764.233.764.563a.7.7,0,0,1-.759.59c-1.257,0-2.514,0-3.771,0" transform="translate(-42.318 -375.575)"/>
        <path id="Trazado_733026" data-name="Trazado 733026" d="M49.59,439.246c-.923,0-1.846.009-2.769,0a.577.577,0,0,1-.564-.846.542.542,0,0,1,.53-.3c1.872,0,3.744,0,5.616,0a.576.576,0,1,1,0,1.148c-.936.01-1.872,0-2.808,0" transform="translate(-42.624 -404.289)"/>
        <path id="Trazado_733027" data-name="Trazado 733027" d="M183.2,141.883a2.957,2.957,0,0,1-.924.6c-.21.079-.313.385-.611.326-.115-.088-.118.014-.14.084a1.134,1.134,0,0,0-.819,1.154c-.073.778-.637,1.115-1.427,1.141a2.917,2.917,0,0,1-.47-1.888,9.181,9.181,0,0,0,0-1.189,1.768,1.768,0,0,1,.3-1.162.215.215,0,0,0,.014-.276,3.835,3.835,0,0,0,1.495-.262c.3-.093.48-.361.731-.527a.114.114,0,0,0,.162.042,2.263,2.263,0,0,0,1.513-1.694,2.314,2.314,0,0,0-.908-2.44c-.211-.152-.443-.379-.767-.283a2.962,2.962,0,0,0-4.82,1.483,2.071,2.071,0,0,0-.094.744,1.314,1.314,0,0,1-1.4,1.3,2.01,2.01,0,0,1-.544-1.5,7.35,7.35,0,0,1,.083-.8,6.327,6.327,0,0,1,1.387-3.061c.341-.423.8-.7,1.149-1.1a3.2,3.2,0,0,1,1.292-.442,5.763,5.763,0,0,1,3.277.421,5.54,5.54,0,0,1,2.608,2.368,7.471,7.471,0,0,1,.7,1.678,4.186,4.186,0,0,1,.051,1.557,5.886,5.886,0,0,1-.9,2.626,10.6,10.6,0,0,1-.859,1.012l-.089.095" transform="translate(-161.03 -121.863)" fill="#6f88da"/>
        <path id="Trazado_733028" data-name="Trazado 733028" d="M168.08,138.726c-.348.4-.807.681-1.149,1.1a6.328,6.328,0,0,0-1.387,3.061,7.391,7.391,0,0,0-.083.8,2.01,2.01,0,0,0,.544,1.5,1.3,1.3,0,0,1-1.3-1.258,5.408,5.408,0,0,1,1.073-3.385,5.988,5.988,0,0,1,1.947-1.712.605.605,0,0,1,.353-.11" transform="translate(-151.994 -128.021)" fill="#5b78d8"/>
        <path id="Trazado_733029" data-name="Trazado 733029" d="M221.711,243.784a.215.215,0,0,1-.014.276,1.768,1.768,0,0,0-.3,1.162,9.17,9.17,0,0,1,0,1.189,2.918,2.918,0,0,0,.47,1.888,1.326,1.326,0,0,1-1.221-1.467q0-.88,0-1.761a1.267,1.267,0,0,1,1.068-1.289" transform="translate(-203.615 -224.974)" fill="#5b78d8"/>
        <path id="Trazado_733030" data-name="Trazado 733030" d="M263.364,176.586c.324-.1.556.131.767.283a2.314,2.314,0,0,1,.908,2.44A2.263,2.263,0,0,1,263.526,181a.114.114,0,0,1-.162-.042,3.108,3.108,0,0,0,.977-1.985,2.821,2.821,0,0,0-.75-2.136c-.074-.087-.151-.17-.227-.255" transform="translate(-243.043 -162.939)" fill="#5b78d8"/>
        <path id="Trazado_733031" data-name="Trazado 733031" d="M287.31,258.336l.089-.095c.064.028.155.06.085.143-.053.063-.129.02-.174-.048" transform="translate(-265.141 -238.315)"/>
        <path id="Trazado_733032" data-name="Trazado 733032" d="M265.6,271.169c.022-.07.025-.171.14-.084,0,.114-.043.14-.14.084" transform="translate(-245.106 -250.138)" fill="#030303"/>
        <path id="Trazado_733033" data-name="Trazado 733033" d="M230.788,337.394a1.315,1.315,0,0,1,1.467,1.267,1.379,1.379,0,0,1-1.467,1.479,2.22,2.22,0,0,1,0-2.747" transform="translate(-212.54 -311.348)" fill="#6f88da"/>
        <path id="Trazado_733034" data-name="Trazado 733034" d="M221.546,337.549a2.22,2.22,0,0,0,0,2.747,1.4,1.4,0,0,1-.683-2.5.992.992,0,0,1,.683-.245" transform="translate(-203.299 -311.503)" fill="#5b78d8"/>
      </g>
    </g>
  </g>
</svg>
